<svg xmlns="http://www.w3.org/2000/svg" xmlns:xlink="http://www.w3.org/1999/xlink" width="400" height="498" viewBox="0 0 400 498">
  <defs>
    <clipPath id="clip-path">
      <rect id="Rectángulo_423822" data-name="Rectángulo 423822" width="400" height="498" transform="translate(180 290)" fill="#5c2c88" opacity="0.52"/>
    </clipPath>
    <linearGradient id="linear-gradient" x1="0.5" x2="0.5" y2="1" gradientUnits="objectBoundingBox">
      <stop offset="0" stop-color="#903cdf"/>
      <stop offset="1" stop-color="#481e70"/>
    </linearGradient>
    <filter id="Elipse_14074" x="10" y="353" width="116" height="116" filterUnits="userSpaceOnUse">
      <feOffset dy="3" input="SourceAlpha"/>
      <feGaussianBlur stdDeviation="3" result="blur"/>
      <feFlood flood-opacity="0.161"/>
      <feComposite operator="in" in2="blur"/>
      <feComposite in="SourceGraphic"/>
    </filter>
    <filter id="Elipse_13845" x="234" y="303" width="158" height="158" filterUnits="userSpaceOnUse">
      <feOffset dy="3" input="SourceAlpha"/>
      <feGaussianBlur stdDeviation="3" result="blur-2"/>
      <feFlood flood-opacity="0.161"/>
      <feComposite operator="in" in2="blur-2"/>
      <feComposite in="SourceGraphic"/>
    </filter>
    <clipPath id="clip-path-2">
      <rect id="Rectángulo_424806" data-name="Rectángulo 424806" width="398.767" height="445.554" fill="none"/>
    </clipPath>
    <clipPath id="clip-path-3">
      <rect id="Rectángulo_424565" data-name="Rectángulo 424565" width="398.767" height="445.555" fill="none"/>
    </clipPath>
    <clipPath id="clip-path-4">
      <rect id="Rectángulo_424564" data-name="Rectángulo 424564" width="195.618" height="60.255" fill="none"/>
    </clipPath>
    <clipPath id="clip-path-5">
      <path id="Trazado_1067242" data-name="Trazado 1067242" d="M647.581,1095.3c-15.824,2.493-31.421,6.23-39.787,14.6-6.372,6.373-25.7,47.325-46.454,77.038-7.734,11.4,2.035,24.016,10.99,27.272s22.794-5.746,48.845-48.485c2.442,18.317,5.291,52.15,5.291,69.245h94.026c18.317-18.317,34.6-27.271,45.588-31.342,4.071-7.734-.407-15.875-3.663-24.016s-14.1-65.057-24.393-72.173c-7.763-5.368-27.2-8.93-40.682-12.135Z" transform="translate(-558.533 -1095.299)" fill="none"/>
    </clipPath>
    <clipPath id="clip-path-7">
      <rect id="Rectángulo_424803" data-name="Rectángulo 424803" width="147.785" height="82.821" fill="none"/>
    </clipPath>
  </defs>
  <g id="Enmascarar_grupo_1211600" data-name="Enmascarar grupo 1211600" transform="translate(-180 -290)" clip-path="url(#clip-path)">
    <rect id="Rectángulo_423349" data-name="Rectángulo 423349" width="278" height="497" rx="13" transform="translate(236 290)" fill="url(#linear-gradient)"/>
    <g transform="matrix(1, 0, 0, 1, 180, 290)" filter="url(#Elipse_14074)">
      <circle id="Elipse_14074-2" data-name="Elipse 14074" cx="49" cy="49" r="49" transform="translate(19 359)" fill="#f6ecfe"/>
    </g>
    <g transform="matrix(1, 0, 0, 1, 180, 290)" filter="url(#Elipse_13845)">
      <circle id="Elipse_13845-2" data-name="Elipse 13845" cx="70" cy="70" r="70" transform="translate(243 309)" fill="#f6ecfe"/>
    </g>
    <g id="Grupo_1230362" data-name="Grupo 1230362" transform="translate(181.233 327.998)">
      <g id="Grupo_1230361" data-name="Grupo 1230361" clip-path="url(#clip-path-2)">
        <g id="Grupo_1230353" data-name="Grupo 1230353" transform="translate(0 -0.001)">
          <g id="Grupo_1230352" data-name="Grupo 1230352" clip-path="url(#clip-path-3)">
            <path id="Trazado_1067172" data-name="Trazado 1067172" d="M1937.871,1534.838h-46.818a1.752,1.752,0,0,1-1.75-1.75v-31.526a1.752,1.752,0,0,1,1.75-1.75h46.818a1.752,1.752,0,0,1,1.749,1.75v31.526a1.752,1.752,0,0,1-1.749,1.75m-46.818-34a.721.721,0,0,0-.72.72v31.526a.721.721,0,0,0,.72.72h46.818a.721.721,0,0,0,.72-.72v-31.526a.721.721,0,0,0-.72-.72Z" transform="translate(-1554.136 -1233.741)" fill="#e6d28f"/>
            <path id="Trazado_1067173" data-name="Trazado 1067173" d="M1938.473,1592.6h-1.823v-4.674h-4.71v4.674h-1.83v-10.534h1.83v4.384h4.71v-4.384h1.823Z" transform="translate(-1587.703 -1301.405)" fill="#e6d28f"/>
            <path id="Trazado_1067174" data-name="Trazado 1067174" d="M1992.423,1583.545h-3.285v9.058h-1.816v-9.058h-3.256v-1.476h8.357Z" transform="translate(-1632.088 -1301.405)" fill="#e6d28f"/>
            <path id="Trazado_1067175" data-name="Trazado 1067175" d="M2041.335,1582.069l3.039,8.074,3.031-8.074h2.366V1592.6h-1.824v-3.473l.181-4.645-3.111,8.118h-1.31l-3.1-8.111.181,4.638v3.473h-1.823v-10.534Z" transform="translate(-1677.245 -1301.405)" fill="#e6d28f"/>
            <path id="Trazado_1067176" data-name="Trazado 1067176" d="M2113.917,1591.143h4.783v1.461h-6.613V1582.07h1.83Z" transform="translate(-1737.397 -1301.406)" fill="#e6d28f"/>
            <path id="Trazado_1067177" data-name="Trazado 1067177" d="M1972.094,1522.757a1.389,1.389,0,1,1-1.389-1.389,1.389,1.389,0,0,1,1.389,1.389" transform="translate(-1619.954 -1251.473)" fill="#e6d28f"/>
            <path id="Trazado_1067178" data-name="Trazado 1067178" d="M1945.991,1522.757a1.389,1.389,0,1,1-1.389-1.389,1.389,1.389,0,0,1,1.389,1.389" transform="translate(-1598.482 -1251.473)" fill="#e6d28f"/>
            <path id="Trazado_1067179" data-name="Trazado 1067179" d="M1919.892,1522.757a1.389,1.389,0,1,1-1.389-1.389,1.389,1.389,0,0,1,1.389,1.389" transform="translate(-1577.013 -1251.473)" fill="#e6d28f"/>
            <path id="Trazado_1067180" data-name="Trazado 1067180" d="M247.99,842.18H201.173a1.752,1.752,0,0,1-1.75-1.75V808.9a1.752,1.752,0,0,1,1.75-1.75H247.99a1.752,1.752,0,0,1,1.75,1.75v31.526a1.752,1.752,0,0,1-1.75,1.75m-46.817-34a.721.721,0,0,0-.72.72v31.526a.721.721,0,0,0,.72.72H247.99a.721.721,0,0,0,.72-.72V808.9a.721.721,0,0,0-.72-.72Z" transform="translate(-164.045 -663.963)" fill="#e6d28f"/>
            <path id="Trazado_1067181" data-name="Trazado 1067181" d="M276.1,895.846a3.8,3.8,0,0,1-1.245,2.63,4.242,4.242,0,0,1-2.887.944,4.108,4.108,0,0,1-2.218-.6,3.915,3.915,0,0,1-1.48-1.7,6.123,6.123,0,0,1-.543-2.554v-.984a6.166,6.166,0,0,1,.528-2.626,3.979,3.979,0,0,1,1.516-1.751,4.226,4.226,0,0,1,2.283-.615,4.072,4.072,0,0,1,2.807.944,3.945,3.945,0,0,1,1.237,2.673h-1.823a2.6,2.6,0,0,0-.662-1.639,2.188,2.188,0,0,0-1.559-.5,2.137,2.137,0,0,0-1.834.873,4.362,4.362,0,0,0-.655,2.56v.934a4.627,4.627,0,0,0,.611,2.607,2.029,2.029,0,0,0,1.791.9,2.366,2.366,0,0,0,1.621-.485,2.528,2.528,0,0,0,.687-1.613Z" transform="translate(-220.23 -730.956)" fill="#e6d28f"/>
            <path id="Trazado_1067182" data-name="Trazado 1067182" d="M327.152,896.562a1.272,1.272,0,0,0-.488-1.071,5.882,5.882,0,0,0-1.762-.76,8.507,8.507,0,0,1-2.026-.854,2.7,2.7,0,0,1-1.44-2.359,2.567,2.567,0,0,1,1.038-2.1,4.2,4.2,0,0,1,2.7-.825,4.553,4.553,0,0,1,1.961.405,3.218,3.218,0,0,1,1.353,1.154,2.959,2.959,0,0,1,.492,1.66h-1.823a1.651,1.651,0,0,0-.517-1.292,2.135,2.135,0,0,0-1.479-.467,2.229,2.229,0,0,0-1.393.384,1.276,1.276,0,0,0-.5,1.071,1.154,1.154,0,0,0,.535.966,6.158,6.158,0,0,0,1.765.752,8.125,8.125,0,0,1,1.975.832,3.148,3.148,0,0,1,1.093,1.071,2.792,2.792,0,0,1,.347,1.415,2.507,2.507,0,0,1-1.009,2.094,4.378,4.378,0,0,1-2.739.778,5.147,5.147,0,0,1-2.1-.423,3.532,3.532,0,0,1-1.491-1.169,2.914,2.914,0,0,1-.532-1.737h1.83a1.7,1.7,0,0,0,.593,1.389,2.6,2.6,0,0,0,1.7.492,2.256,2.256,0,0,0,1.436-.387,1.249,1.249,0,0,0,.481-1.024" transform="translate(-264.145 -730.956)" fill="#e6d28f"/>
            <path id="Trazado_1067183" data-name="Trazado 1067183" d="M377.562,896.562a1.272,1.272,0,0,0-.488-1.071,5.881,5.881,0,0,0-1.762-.76,8.509,8.509,0,0,1-2.026-.854,2.7,2.7,0,0,1-1.44-2.359,2.567,2.567,0,0,1,1.038-2.1,4.2,4.2,0,0,1,2.7-.825,4.554,4.554,0,0,1,1.961.405,3.218,3.218,0,0,1,1.353,1.154,2.958,2.958,0,0,1,.492,1.66h-1.823a1.651,1.651,0,0,0-.517-1.292,2.135,2.135,0,0,0-1.479-.467,2.23,2.23,0,0,0-1.393.384,1.276,1.276,0,0,0-.5,1.071,1.155,1.155,0,0,0,.535.966,6.162,6.162,0,0,0,1.765.752,8.121,8.121,0,0,1,1.975.832,3.146,3.146,0,0,1,1.093,1.071,2.79,2.79,0,0,1,.347,1.415,2.507,2.507,0,0,1-1.009,2.094,4.378,4.378,0,0,1-2.739.778,5.146,5.146,0,0,1-2.1-.423,3.531,3.531,0,0,1-1.491-1.169,2.913,2.913,0,0,1-.532-1.737h1.83a1.7,1.7,0,0,0,.593,1.389,2.6,2.6,0,0,0,1.7.492,2.256,2.256,0,0,0,1.436-.387,1.248,1.248,0,0,0,.481-1.024" transform="translate(-305.612 -730.956)" fill="#e6d28f"/>
            <path id="Trazado_1067184" data-name="Trazado 1067184" d="M282.213,830.1a1.389,1.389,0,1,1-1.389-1.389,1.389,1.389,0,0,1,1.389,1.389" transform="translate(-229.862 -681.694)" fill="#e6d28f"/>
            <path id="Trazado_1067185" data-name="Trazado 1067185" d="M256.111,830.1a1.389,1.389,0,1,1-1.389-1.389,1.389,1.389,0,0,1,1.389,1.389" transform="translate(-208.391 -681.694)" fill="#e6d28f"/>
            <path id="Trazado_1067186" data-name="Trazado 1067186" d="M230.009,830.1a1.389,1.389,0,1,1-1.389-1.389,1.389,1.389,0,0,1,1.389,1.389" transform="translate(-186.92 -681.694)" fill="#e6d28f"/>
            <path id="Trazado_1067187" data-name="Trazado 1067187" d="M1874.118,1152.436H1827.3a1.752,1.752,0,0,1-1.75-1.75v-31.526a1.752,1.752,0,0,1,1.75-1.749h46.817a1.751,1.751,0,0,1,1.75,1.749v31.526a1.752,1.752,0,0,1-1.75,1.75m-46.817-34a.721.721,0,0,0-.72.72v31.526a.721.721,0,0,0,.72.72h46.817a.721.721,0,0,0,.72-.72v-31.526a.721.721,0,0,0-.72-.72Z" transform="translate(-1501.693 -919.178)" fill="#e6d28f"/>
            <path id="Trazado_1067188" data-name="Trazado 1067188" d="M1906.1,1206.1a3.805,3.805,0,0,1-1.245,2.63,4.242,4.242,0,0,1-2.886.944,4.108,4.108,0,0,1-2.218-.6,3.915,3.915,0,0,1-1.479-1.7,6.123,6.123,0,0,1-.543-2.554v-.984a6.17,6.17,0,0,1,.528-2.626,3.982,3.982,0,0,1,1.516-1.751,4.228,4.228,0,0,1,2.282-.615,4.071,4.071,0,0,1,2.807.944,3.945,3.945,0,0,1,1.238,2.673h-1.823a2.607,2.607,0,0,0-.662-1.639,2.189,2.189,0,0,0-1.56-.5,2.138,2.138,0,0,0-1.834.872,4.365,4.365,0,0,0-.655,2.56v.934a4.628,4.628,0,0,0,.611,2.607,2.029,2.029,0,0,0,1.791.9,2.366,2.366,0,0,0,1.62-.485,2.529,2.529,0,0,0,.688-1.614Z" transform="translate(-1561.064 -986.171)" fill="#e6d28f"/>
            <path id="Trazado_1067189" data-name="Trazado 1067189" d="M1955.339,1212.792h2.749v1.606h-2.749v3.133h-1.708V1214.4h-2.764v-1.606h2.764v-2.93h1.708Z" transform="translate(-1604.779 -995.228)" fill="#e6d28f"/>
            <path id="Trazado_1067190" data-name="Trazado 1067190" d="M2001.873,1212.792h2.749v1.606h-2.749v3.133h-1.707V1214.4H1997.4v-1.606h2.764v-2.93h1.707Z" transform="translate(-1643.057 -995.228)" fill="#e6d28f"/>
            <path id="Trazado_1067191" data-name="Trazado 1067191" d="M1908.34,1140.354a1.389,1.389,0,1,1-1.389-1.389,1.389,1.389,0,0,1,1.389,1.389" transform="translate(-1567.51 -936.909)" fill="#e6d28f"/>
            <path id="Trazado_1067192" data-name="Trazado 1067192" d="M1882.238,1140.354a1.389,1.389,0,1,1-1.389-1.389,1.389,1.389,0,0,1,1.389,1.389" transform="translate(-1546.038 -936.909)" fill="#e6d28f"/>
            <path id="Trazado_1067193" data-name="Trazado 1067193" d="M1856.138,1140.354a1.389,1.389,0,1,1-1.389-1.389,1.389,1.389,0,0,1,1.389,1.389" transform="translate(-1524.569 -936.909)" fill="#e6d28f"/>
            <path id="Trazado_1067194" data-name="Trazado 1067194" d="M140.793,1288.148H78.633a1.584,1.584,0,0,1-1.582-1.582v-76.454a1.584,1.584,0,0,1,1.582-1.582h62.16a1.584,1.584,0,0,1,1.582,1.582v76.454a1.584,1.584,0,0,1-1.582,1.582m-62.16-78.755a.72.72,0,0,0-.719.719v76.454a.72.72,0,0,0,.719.719h62.16a.72.72,0,0,0,.719-.719v-76.454a.72.72,0,0,0-.719-.719Z" transform="translate(-63.382 -994.133)" fill="#e6d28f"/>
            <path id="Trazado_1067195" data-name="Trazado 1067195" d="M113.768,1244.185a2.06,2.06,0,1,1-2.059-2.06,2.06,2.06,0,0,1,2.059,2.06" transform="translate(-90.197 -1021.768)" fill="#e6d28f"/>
            <path id="Trazado_1067196" data-name="Trazado 1067196" d="M161.6,1244.185a2.059,2.059,0,1,1-2.059-2.06,2.059,2.059,0,0,1,2.059,2.06" transform="translate(-129.546 -1021.768)" fill="#e6d28f"/>
            <path id="Trazado_1067197" data-name="Trazado 1067197" d="M209.439,1244.185a2.059,2.059,0,1,1-2.059-2.06,2.059,2.059,0,0,1,2.059,2.06" transform="translate(-168.896 -1021.768)" fill="#e6d28f"/>
            <path id="Trazado_1067198" data-name="Trazado 1067198" d="M158.11,1326.009H130.867a.432.432,0,0,1,0-.863H158.11a.432.432,0,0,1,0,.863" transform="translate(-107.296 -1090.061)" fill="#e6d28f"/>
            <path id="Trazado_1067199" data-name="Trazado 1067199" d="M168.089,1364.746h-12.6a.431.431,0,1,1,0-.863h12.6a.431.431,0,1,1,0,.863" transform="translate(-127.546 -1121.926)" fill="#e6d28f"/>
            <path id="Trazado_1067200" data-name="Trazado 1067200" d="M153.959,1403.482H130.867a.431.431,0,1,1,0-.863h23.091a.431.431,0,1,1,0,.863" transform="translate(-107.296 -1153.79)" fill="#e6d28f"/>
            <path id="Trazado_1067201" data-name="Trazado 1067201" d="M188.016,1442.217H155.484a.431.431,0,0,1,0-.863h32.531a.431.431,0,1,1,0,.863" transform="translate(-127.546 -1185.653)" fill="#e6d28f"/>
            <path id="Trazado_1067202" data-name="Trazado 1067202" d="M240.456,1480.951h-13.92a.432.432,0,1,1,0-.863h13.92a.432.432,0,1,1,0,.863" transform="translate(-185.993 -1217.516)" fill="#e6d28f"/>
            <path id="Trazado_1067203" data-name="Trazado 1067203" d="M158.11,1519.689H130.867a.431.431,0,1,1,0-.863H158.11a.431.431,0,1,1,0,.863" transform="translate(-107.296 -1249.381)" fill="#e6d28f"/>
            <path id="Trazado_1067204" data-name="Trazado 1067204" d="M1817.195,805h-89.361a1.584,1.584,0,0,1-1.582-1.582V751.025a1.584,1.584,0,0,1,1.582-1.582h89.361a1.584,1.584,0,0,1,1.582,1.582v52.392a1.584,1.584,0,0,1-1.582,1.582m-89.361-54.693a.72.72,0,0,0-.719.719v52.392a.72.72,0,0,0,.719.719h89.361a.72.72,0,0,0,.719-.719V751.025a.72.72,0,0,0-.719-.719Z" transform="translate(-1420.01 -616.489)" fill="#e6d28f"/>
            <path id="Trazado_1067205" data-name="Trazado 1067205" d="M1762.97,784.82a2.06,2.06,0,1,1-2.059-2.06,2.059,2.059,0,0,1,2.059,2.06" transform="translate(-1446.826 -643.895)" fill="#e6d28f"/>
            <path id="Trazado_1067206" data-name="Trazado 1067206" d="M1810.805,784.82a2.06,2.06,0,1,1-2.06-2.06,2.059,2.059,0,0,1,2.06,2.06" transform="translate(-1486.175 -643.895)" fill="#e6d28f"/>
            <path id="Trazado_1067207" data-name="Trazado 1067207" d="M1858.639,784.82a2.06,2.06,0,1,1-2.059-2.06,2.059,2.059,0,0,1,2.059,2.06" transform="translate(-1525.523 -643.895)" fill="#e6d28f"/>
            <path id="Trazado_1067208" data-name="Trazado 1067208" d="M1804.679,848.287h-27.242a.431.431,0,1,1,0-.863h27.242a.431.431,0,1,1,0,.863" transform="translate(-1461.76 -697.088)" fill="#e6d28f"/>
            <path id="Trazado_1067209" data-name="Trazado 1067209" d="M1965.29,848.287h-16.783a.431.431,0,1,1,0-.863h16.783a.431.431,0,1,1,0,.863" transform="translate(-1602.481 -697.088)" fill="#e6d28f"/>
            <path id="Trazado_1067210" data-name="Trazado 1067210" d="M1814.658,887.026h-12.6a.431.431,0,0,1,0-.863h12.6a.431.431,0,1,1,0,.863" transform="translate(-1482.009 -728.955)" fill="#e6d28f"/>
            <path id="Trazado_1067211" data-name="Trazado 1067211" d="M1904.485,887.026h-12.6a.431.431,0,0,1,0-.863h12.6a.431.431,0,1,1,0,.863" transform="translate(-1555.901 -728.955)" fill="#e6d28f"/>
            <path id="Trazado_1067212" data-name="Trazado 1067212" d="M2007.206,887.026h-25.5a.431.431,0,1,1,0-.863h25.5a.431.431,0,0,1,0,.863" transform="translate(-1629.792 -728.955)" fill="#e6d28f"/>
            <path id="Trazado_1067213" data-name="Trazado 1067213" d="M1914.97,925.766H1891.88a.431.431,0,1,1,0-.863h23.091a.431.431,0,1,1,0,.863" transform="translate(-1555.9 -760.822)" fill="#e6d28f"/>
            <path id="Trazado_1067214" data-name="Trazado 1067214" d="M477.089,1909.614c-18.927-9.158-51.9-24.626-64.719-2.036s-6.356,39.687,32.234,56.172c23.569,23.569,51.717,32.055,57.518,37.855H585.7c32.429-18.927,42.188-34.8,56.846-42.128,20.153-7.937,56.99-26.662,31.754-58.614-12.806-16.214-46.81-1.018-59.224,6.716-8.548-8.547-93.416-10.786-137.986,2.036" transform="translate(-334.291 -1557.728)" fill="#2f403d"/>
            <g id="Grupo_1230351" data-name="Grupo 1230351" transform="translate(151.93 357.161)" opacity="0.2">
              <g id="Grupo_1230350" data-name="Grupo 1230350">
                <g id="Grupo_1230349" data-name="Grupo 1230349" clip-path="url(#clip-path-4)">
                  <path id="Trazado_1067215" data-name="Trazado 1067215" d="M856.414,2013.273c36.071,11.474,64.676,14.968,108.288,3.336-19.614,9.854-46.464,22.974-59.485,26.611-9.66-5.666-35.452-20.417-48.8-29.947" transform="translate(-856.414 -2013.273)"/>
                  <path id="Trazado_1067216" data-name="Trazado 1067216" d="M1320.306,2122c5.8,1.789,9,2.922,13.291,4.029a65.657,65.657,0,0,1,4.266,9.31c2.749.75,25.624-2.758,48.331-10.408a52.246,52.246,0,0,1,8.141-5.161c13.508-5.32,34.51-15.487,39.293-31.234-9.89,20.179-66.532,30.969-113.322,33.466" transform="translate(-1238.01 -2075.184)"/>
                </g>
              </g>
            </g>
            <path id="Trazado_1067217" data-name="Trazado 1067217" d="M1020.84,2414.309c-2.107-.173-4.211-.355-6.307-.633-1.261-.167-2.526-.317-3.781-.522-1.277-.209-2.552-.429-3.828-.644-2.618-.441-5.232-.974-7.826-1.54s-5.212-1.168-7.807-1.794c-5.253-1.267-10.454-2.721-15.655-4.182-5.077-1.426-10.114-3.015-15.128-4.647q-6.867-2.236-13.665-4.678-.4-.143-.8-.288c4.412,1.07,8.792,2.268,13.174,3.455,5.122,1.388,10.233,2.814,15.35,4.218q7.842,2.151,15.7,4.237c2.566.633,5.115,1.333,7.68,1.966s5.143,1.269,7.719,1.887q3.813.915,7.66,1.7c1.243.257,2.482.532,3.731.758,1.073.193,2.145.389,3.216.6l.564.109" transform="translate(-778.216 -1970.434)" fill="#212e2b"/>
            <path id="Trazado_1067218" data-name="Trazado 1067218" d="M804.94,1983.535c2.406,1.108,4.716,2.4,7.014,3.719,2.344,1.341,4.661,2.728,6.974,4.119,1.953,1.174,3.9,2.366,5.84,3.554q2.624,1.6,5.242,3.213,2.331,1.435,4.668,2.859c2.827,1.73,5.65,3.466,8.484,5.184,1.8,1.093,3.612,2.174,5.418,3.26q4.186,2.518,8.4,4.979c1.666.975,3.342,1.93,5.015,2.892,1.379.793,2.76,1.585,4.15,2.359,3.136,1.745,6.282,3.471,9.453,5.149q3.922,2.083,7.9,4.05c1.973.98,3.957,1.949,5.964,2.86q2.8,1.27,5.613,2.479c2.362,1.014,4.759,1.935,7.171,2.82,2.256.827,4.552,1.524,6.86,2.188.18.052.37.091.546.157.213.08.293.341.4.528.163.29.321.582.478.876.416.776.8,1.568,1.178,2.362a33.736,33.736,0,0,1,1.3,3.116c.324.9.623,1.8.915,2.709a54.2,54.2,0,0,0-2.716-6c-.582-1.081-1.217-2.129-1.857-3.177l.176.13c-2.2-.533-4.384-1.084-6.55-1.735-.6-.182-1.2-.391-1.8-.589-.755-.249-1.517-.484-2.263-.759-1.345-.495-2.7-.965-4.031-1.493-2.268-.9-4.538-1.807-6.764-2.807-3.156-1.417-6.29-2.871-9.389-4.411-2.664-1.324-5.313-2.674-7.935-4.082-2.057-1.1-4.112-2.214-6.147-3.358q-3.688-2.074-7.349-4.195-4.911-2.856-9.753-5.832-6.956-4.257-13.81-8.682c-2.3-1.481-4.6-2.958-6.885-4.458l-4.2-2.753q-2.616-1.715-5.231-3.431c-2.9-1.913-5.817-3.811-8.775-5.638-1.218-.753-2.457-1.463-3.705-2.163,2.255,1.038.541.3,0,0" transform="translate(-662.142 -1631.65)" fill="#212e2b"/>
            <path id="Trazado_1067219" data-name="Trazado 1067219" d="M1131.511,2009.318c4.154-1.712,8.348-3.334,12.467-5.13,2.4-1.047,4.813-2.075,7.2-3.147q3.628-1.626,7.245-3.277,7.374-3.385,14.664-6.948,7.255-3.524,14.467-7.134c4.632-2.308,9.255-4.634,13.909-6.9,3.342-1.626,6.7-3.216,10.1-4.725-3.4,1.9-6.786,3.81-10.186,5.7-4.58,2.552-9.172,5.09-13.816,7.526q-7.125,3.736-14.337,7.288c-4.837,2.389-9.761,4.611-14.709,6.758q-7.205,3.126-14.574,5.852c-4.1,1.512-8.252,2.856-12.429,4.131" transform="translate(-930.778 -1622.21)" fill="#212e2b"/>
            <path id="Trazado_1067220" data-name="Trazado 1067220" d="M630.735,2326.545H567.543c-5.553-5.552-9.1-29.713,5.675-37.855,21.8,8.447,41.318,14.247,57.518,18.927-2.137,5.954-1.832,13.127,0,18.927" transform="translate(-462.904 -1882.669)" fill="#e6b85e"/>
            <path id="Trazado_1067221" data-name="Trazado 1067221" d="M612.923,2303.029a30.607,30.607,0,0,0-4.079,5.378,29.885,29.885,0,0,0-3.158,6.976,29.323,29.323,0,0,0-.881,13.127,44.266,44.266,0,0,0,1.257,5.458c.429,1.481.989,2.917,1.5,4.371a31.664,31.664,0,0,1-3-5.97,26.422,26.422,0,0,1-1.626-11.605,29.717,29.717,0,0,1,.534-3.372,21.971,21.971,0,0,1,.742-2.555,24.272,24.272,0,0,1,1.546-3.53,24.92,24.92,0,0,1,3.532-5.047,23.016,23.016,0,0,1,1.87-1.862,13.361,13.361,0,0,1,1.759-1.368" transform="translate(-495.901 -1894.465)" fill="#ba954c"/>
            <path id="Trazado_1067222" data-name="Trazado 1067222" d="M692.973,2319.247a12.875,12.875,0,0,1,1.849,2.4,22.38,22.38,0,0,1,1.7,3.26,22.129,22.129,0,0,1,1.709,7.4,26.816,26.816,0,0,1-.3,5.273A26.248,26.248,0,0,1,695.38,2345a28.816,28.816,0,0,1-4.876,6.684c.495-.869,1.012-1.723,1.5-2.6.626-1.128,1.207-2.273,1.741-3.447a32.142,32.142,0,0,0,2.389-7.318,28.788,28.788,0,0,0,.509-5.579,28.641,28.641,0,0,0-2.4-10.957,22.148,22.148,0,0,0-1.265-2.535" transform="translate(-568.007 -1907.806)" fill="#ba954c"/>
            <path id="Trazado_1067223" data-name="Trazado 1067223" d="M744.71,2410.663a117.4,117.4,0,0,1,14.474,1.448c5.186.78,10.336,1.774,15.424,3.048,1.455.365,2.9.749,4.339,1.187-4.87-.265-9.695-1.012-14.511-1.74q-4-.6-7.978-1.362c-2.539-.484-5.078-.981-7.6-1.561-1.388-.32-2.776-.647-4.151-1.021" transform="translate(-612.597 -1983.004)" fill="#ba954c"/>
            <path id="Trazado_1067224" data-name="Trazado 1067224" d="M789.265,2391.335a1.03,1.03,0,0,1-.946-1.436c2.289-5.341,1.265-11.674,1.254-11.737a1.03,1.03,0,0,1,2.03-.343c.048.282,1.141,6.981-1.392,12.891a1.03,1.03,0,0,1-.947.624" transform="translate(-648.4 -1955.282)" fill="#6b633f"/>
            <path id="Trazado_1067225" data-name="Trazado 1067225" d="M843.267,2399.262a1.031,1.031,0,0,1-.972-1.369,24.077,24.077,0,0,0,1.171-11.661,1.03,1.03,0,0,1,2.016-.422,25.854,25.854,0,0,1-1.242,12.761,1.03,1.03,0,0,1-.972.691" transform="translate(-692.822 -1961.887)" fill="#6b633f"/>
            <path id="Trazado_1067226" data-name="Trazado 1067226" d="M893.519,2409.973a1.031,1.031,0,0,1-.983-1.339,20.292,20.292,0,0,0,.754-10.581,1.03,1.03,0,1,1,1.982-.558c.056.2,1.356,4.978-.772,11.756a1.03,1.03,0,0,1-.982.721" transform="translate(-734.159 -1971.555)" fill="#6b633f"/>
            <path id="Trazado_1067227" data-name="Trazado 1067227" d="M1417.537,2280.17c14.348-3.053,45.327-10.667,56.472-15.57,10.181,8.344,13.74,28.388,0,42.128h-56.846c3.122-8.242,2.817-16.485.375-26.559" transform="translate(-1165.754 -1862.853)" fill="#e6b85e"/>
            <path id="Trazado_1067228" data-name="Trazado 1067228" d="M1702.323,2277.979a17.035,17.035,0,0,1,1.925,2.136,28,28,0,0,1,2.089,3.014,31.533,31.533,0,0,1,3.125,6.953,30.952,30.952,0,0,1,1.224,6.706,27.623,27.623,0,0,1-.027,3.893,26.637,26.637,0,0,1-1.333,6.523,29.825,29.825,0,0,1-3.273,6.851,38.671,38.671,0,0,1-2.758,3.679c.459-.848.958-1.677,1.388-2.54.284-.57.6-1.13.863-1.711s.509-1.144.765-1.715c.279-.571.463-1.2.7-1.787s.407-1.187.6-1.783a34.478,34.478,0,0,0,.926-3.693,30.783,30.783,0,0,0,.1-11.229,38.416,38.416,0,0,0-5.5-14.073c-.261-.414-.526-.827-.812-1.223" transform="translate(-1400.326 -1873.859)" fill="#ba954c"/>
            <path id="Trazado_1067229" data-name="Trazado 1067229" d="M1622.308,2291.582a34.379,34.379,0,0,0-3.4,5.688,29.415,29.415,0,0,0-2.487,7.312,28.387,28.387,0,0,0-.42,3.147,20.272,20.272,0,0,0-.06,2.467c.031.476.044.955.087,1.43a27.533,27.533,0,0,0,.422,2.736,26.52,26.52,0,0,0,2.375,6.612c.25.558.578,1.078.875,1.611.311.556.646,1.088.995,1.62.674,1.029,1.371,2.047,2.128,3.017.444.569.9,1.129,1.342,1.7-.747-.646-1.508-1.287-2.194-2-.431-.446-.854-.9-1.282-1.348-.393-.468-.77-.948-1.162-1.416a23.009,23.009,0,0,1-2.145-3.2,24.212,24.212,0,0,1-1.614-3.41,23.759,23.759,0,0,1-1.048-3.634,16.082,16.082,0,0,1-.34-2.344c-.03-.466-.089-.944-.085-1.412.008-.889.03-1.77.1-2.657a25.37,25.37,0,0,1,5.581-13.426,17.428,17.428,0,0,1,2.326-2.5" transform="translate(-1327.917 -1885.049)" fill="#ba954c"/>
            <path id="Trazado_1067230" data-name="Trazado 1067230" d="M1429.885,2401.719c2.011-.656,4.06-1.182,6.114-1.688,2.531-.624,5.092-1.137,7.658-1.592q3.984-.706,8-1.185c1.286-.155,2.576-.266,3.867-.37,1.261-.1,2.526-.194,3.792-.214,1.371-.021,2.741-.03,4.111.014-2.209.483-4.446.83-6.669,1.239-1.271.233-2.547.44-3.822.647-1.324.215-2.643.461-3.968.666-5.191.8-10.38,1.622-15.606,2.167-1.157.121-2.314.235-3.474.316" transform="translate(-1176.22 -1971.48)" fill="#ba954c"/>
            <path id="Trazado_1067231" data-name="Trazado 1067231" d="M1558.961,2377.645a1.03,1.03,0,0,1-.947-.624c-2.533-5.91-1.439-12.608-1.392-12.891a1.03,1.03,0,0,1,2.031.344c-.017.1-1.028,6.412,1.254,11.736a1.03,1.03,0,0,1-.946,1.435" transform="translate(-1280.247 -1944.021)" fill="#6b633f"/>
            <path id="Trazado_1067232" data-name="Trazado 1067232" d="M1505.4,2385.573a1.029,1.029,0,0,1-.972-.691,25.844,25.844,0,0,1-1.242-12.761,1.03,1.03,0,0,1,2.016.421,24.253,24.253,0,0,0,1.17,11.662,1.029,1.029,0,0,1-.972,1.369" transform="translate(-1236.262 -1950.626)" fill="#6b633f"/>
            <path id="Trazado_1067233" data-name="Trazado 1067233" d="M1456.63,2396.287a1.03,1.03,0,0,1-.982-.721c-2.128-6.778-.828-11.556-.772-11.756a1.03,1.03,0,0,1,1.983.556,20.509,20.509,0,0,0,.754,10.583,1.031,1.031,0,0,1-.982,1.339" transform="translate(-1196.412 -1960.296)" fill="#6b633f"/>
            <path id="Trazado_1067234" data-name="Trazado 1067234" d="M647.58,1095.3c-15.824,2.493-31.421,6.23-39.787,14.6-6.372,6.373-25.7,47.325-46.454,77.038-7.734,11.4,2.035,24.015,10.99,27.272s22.794-5.746,48.845-48.485c2.442,18.317,5.291,52.15,5.291,69.245H720.49c18.317-18.317,34.6-27.271,45.588-31.342,4.071-7.734-.407-15.875-3.663-24.016s-14.1-65.057-24.393-72.173c-7.763-5.368-27.2-8.93-40.682-12.135Z" transform="translate(-459.448 -900.989)" fill="#47a394"/>
          </g>
        </g>
        <g id="Grupo_1230355" data-name="Grupo 1230355" transform="translate(99.085 194.309)">
          <g id="Grupo_1230354" data-name="Grupo 1230354" clip-path="url(#clip-path-5)">
            <rect id="Rectángulo_424566" data-name="Rectángulo 424566" width="1.472" height="11.125" transform="matrix(0.707, -0.707, 0.707, 0.707, 3.512, 5.729)" fill="#50b8a7"/>
            <rect id="Rectángulo_424567" data-name="Rectángulo 424567" width="1.472" height="11.125" transform="translate(7.965 23.922) rotate(-66.753)" fill="#50b8a7"/>
            <rect id="Rectángulo_424568" data-name="Rectángulo 424568" width="11.125" height="1.472" transform="translate(15.287 18.6) rotate(-54.864)" fill="#50b8a7"/>
            <rect id="Rectángulo_424569" data-name="Rectángulo 424569" width="11.125" height="1.472" transform="translate(12.037 5.348) rotate(-14.296)" fill="#50b8a7"/>
            <rect id="Rectángulo_424570" data-name="Rectángulo 424570" width="11.125" height="1.472" transform="translate(1.205 24.165) rotate(-54.901)" fill="#50b8a7"/>
            <rect id="Rectángulo_424571" data-name="Rectángulo 424571" width="1.473" height="11.126" transform="matrix(0.707, -0.707, 0.707, 0.707, 25.2, 5.729)" fill="#50b8a7"/>
            <rect id="Rectángulo_424572" data-name="Rectángulo 424572" width="1.472" height="11.125" transform="translate(29.655 23.922) rotate(-66.753)" fill="#50b8a7"/>
            <rect id="Rectángulo_424573" data-name="Rectángulo 424573" width="11.125" height="1.472" transform="matrix(0.576, -0.818, 0.818, 0.576, 36.977, 18.6)" fill="#50b8a7"/>
            <rect id="Rectángulo_424574" data-name="Rectángulo 424574" width="11.125" height="1.472" transform="translate(33.727 5.348) rotate(-14.296)" fill="#50b8a7"/>
            <rect id="Rectángulo_424575" data-name="Rectángulo 424575" width="11.126" height="1.472" transform="matrix(0.575, -0.818, 0.818, 0.575, 22.894, 24.164)" fill="#50b8a7"/>
            <rect id="Rectángulo_424576" data-name="Rectángulo 424576" width="1.472" height="11.125" transform="matrix(0.707, -0.707, 0.707, 0.707, 46.89, 5.729)" fill="#50b8a7"/>
            <rect id="Rectángulo_424577" data-name="Rectángulo 424577" width="1.472" height="11.125" transform="matrix(0.395, -0.919, 0.919, 0.395, 51.343, 23.922)" fill="#50b8a7"/>
            <rect id="Rectángulo_424578" data-name="Rectángulo 424578" width="11.125" height="1.472" transform="translate(58.665 18.6) rotate(-54.864)" fill="#50b8a7"/>
            <rect id="Rectángulo_424579" data-name="Rectángulo 424579" width="11.125" height="1.472" transform="translate(55.415 5.348) rotate(-14.296)" fill="#50b8a7"/>
            <rect id="Rectángulo_424580" data-name="Rectángulo 424580" width="11.125" height="1.472" transform="translate(44.583 24.165) rotate(-54.901)" fill="#50b8a7"/>
            <rect id="Rectángulo_424581" data-name="Rectángulo 424581" width="1.472" height="11.125" transform="matrix(0.707, -0.707, 0.707, 0.707, 68.578, 5.729)" fill="#50b8a7"/>
            <rect id="Rectángulo_424582" data-name="Rectángulo 424582" width="1.472" height="11.125" transform="translate(73.031 23.922) rotate(-66.753)" fill="#50b8a7"/>
            <rect id="Rectángulo_424583" data-name="Rectángulo 424583" width="11.125" height="1.472" transform="matrix(0.576, -0.818, 0.818, 0.576, 80.353, 18.6)" fill="#50b8a7"/>
            <rect id="Rectángulo_424584" data-name="Rectángulo 424584" width="11.125" height="1.472" transform="translate(77.103 5.348) rotate(-14.296)" fill="#50b8a7"/>
            <rect id="Rectángulo_424585" data-name="Rectángulo 424585" width="11.125" height="1.472" transform="matrix(0.575, -0.818, 0.818, 0.575, 66.272, 24.165)" fill="#50b8a7"/>
            <rect id="Rectángulo_424586" data-name="Rectángulo 424586" width="1.473" height="11.125" transform="translate(90.266 5.729) rotate(-45)" fill="#50b8a7"/>
            <rect id="Rectángulo_424587" data-name="Rectángulo 424587" width="1.472" height="11.125" transform="translate(94.72 23.922) rotate(-66.753)" fill="#50b8a7"/>
            <rect id="Rectángulo_424588" data-name="Rectángulo 424588" width="11.125" height="1.472" transform="translate(102.041 18.6) rotate(-54.864)" fill="#50b8a7"/>
            <rect id="Rectángulo_424589" data-name="Rectángulo 424589" width="11.125" height="1.472" transform="matrix(0.969, -0.247, 0.247, 0.969, 98.791, 5.348)" fill="#50b8a7"/>
            <rect id="Rectángulo_424590" data-name="Rectángulo 424590" width="11.125" height="1.472" transform="translate(87.959 24.165) rotate(-54.902)" fill="#50b8a7"/>
            <rect id="Rectángulo_424591" data-name="Rectángulo 424591" width="1.472" height="11.125" transform="translate(111.954 5.729) rotate(-45)" fill="#50b8a7"/>
            <rect id="Rectángulo_424592" data-name="Rectángulo 424592" width="1.472" height="11.125" transform="translate(116.408 23.922) rotate(-66.752)" fill="#50b8a7"/>
            <rect id="Rectángulo_424593" data-name="Rectángulo 424593" width="11.125" height="1.472" transform="translate(123.729 18.6) rotate(-54.864)" fill="#50b8a7"/>
            <rect id="Rectángulo_424594" data-name="Rectángulo 424594" width="11.125" height="1.472" transform="matrix(0.969, -0.247, 0.247, 0.969, 120.479, 5.348)" fill="#50b8a7"/>
            <rect id="Rectángulo_424595" data-name="Rectángulo 424595" width="11.125" height="1.473" transform="translate(109.648 24.165) rotate(-54.902)" fill="#50b8a7"/>
            <rect id="Rectángulo_424596" data-name="Rectángulo 424596" width="1.472" height="11.125" transform="translate(133.642 5.729) rotate(-44.999)" fill="#50b8a7"/>
            <rect id="Rectángulo_424597" data-name="Rectángulo 424597" width="1.472" height="11.125" transform="translate(138.096 23.922) rotate(-66.753)" fill="#50b8a7"/>
            <rect id="Rectángulo_424598" data-name="Rectángulo 424598" width="11.125" height="1.472" transform="translate(145.418 18.6) rotate(-54.864)" fill="#50b8a7"/>
            <rect id="Rectángulo_424599" data-name="Rectángulo 424599" width="11.125" height="1.472" transform="matrix(0.969, -0.247, 0.247, 0.969, 142.167, 5.348)" fill="#50b8a7"/>
            <rect id="Rectángulo_424600" data-name="Rectángulo 424600" width="11.125" height="1.473" transform="translate(131.336 24.164) rotate(-54.901)" fill="#50b8a7"/>
            <rect id="Rectángulo_424601" data-name="Rectángulo 424601" width="1.472" height="11.125" transform="translate(3.512 33.784) rotate(-45.001)" fill="#50b8a7"/>
            <rect id="Rectángulo_424602" data-name="Rectángulo 424602" width="1.472" height="11.125" transform="translate(7.965 51.977) rotate(-66.753)" fill="#50b8a7"/>
            <rect id="Rectángulo_424603" data-name="Rectángulo 424603" width="11.125" height="1.472" transform="translate(15.287 46.655) rotate(-54.864)" fill="#50b8a7"/>
            <rect id="Rectángulo_424604" data-name="Rectángulo 424604" width="11.125" height="1.472" transform="matrix(0.969, -0.247, 0.247, 0.969, 12.037, 33.403)" fill="#50b8a7"/>
            <rect id="Rectángulo_424605" data-name="Rectángulo 424605" width="11.125" height="1.472" transform="translate(1.205 52.22) rotate(-54.901)" fill="#50b8a7"/>
            <rect id="Rectángulo_424606" data-name="Rectángulo 424606" width="1.472" height="11.125" transform="translate(25.201 33.784) rotate(-45.007)" fill="#50b8a7"/>
            <rect id="Rectángulo_424607" data-name="Rectángulo 424607" width="1.473" height="11.125" transform="translate(29.655 51.977) rotate(-66.753)" fill="#50b8a7"/>
            <rect id="Rectángulo_424608" data-name="Rectángulo 424608" width="11.125" height="1.472" transform="translate(36.977 46.655) rotate(-54.863)" fill="#50b8a7"/>
            <rect id="Rectángulo_424609" data-name="Rectángulo 424609" width="11.125" height="1.472" transform="matrix(0.969, -0.247, 0.247, 0.969, 33.727, 33.403)" fill="#50b8a7"/>
            <rect id="Rectángulo_424610" data-name="Rectángulo 424610" width="11.126" height="1.472" transform="matrix(0.575, -0.818, 0.818, 0.575, 22.894, 52.22)" fill="#50b8a7"/>
            <rect id="Rectángulo_424611" data-name="Rectángulo 424611" width="1.472" height="11.125" transform="translate(46.89 33.784) rotate(-45.001)" fill="#50b8a7"/>
            <rect id="Rectángulo_424612" data-name="Rectángulo 424612" width="1.472" height="11.125" transform="matrix(0.395, -0.919, 0.919, 0.395, 51.343, 51.977)" fill="#50b8a7"/>
            <rect id="Rectángulo_424613" data-name="Rectángulo 424613" width="11.125" height="1.472" transform="matrix(0.576, -0.818, 0.818, 0.576, 58.665, 46.655)" fill="#50b8a7"/>
            <rect id="Rectángulo_424614" data-name="Rectángulo 424614" width="11.125" height="1.472" transform="matrix(0.969, -0.247, 0.247, 0.969, 55.415, 33.403)" fill="#50b8a7"/>
            <rect id="Rectángulo_424615" data-name="Rectángulo 424615" width="11.125" height="1.472" transform="translate(44.583 52.22) rotate(-54.901)" fill="#50b8a7"/>
            <rect id="Rectángulo_424616" data-name="Rectángulo 424616" width="1.472" height="11.125" transform="translate(68.578 33.784) rotate(-45.001)" fill="#50b8a7"/>
            <rect id="Rectángulo_424617" data-name="Rectángulo 424617" width="1.473" height="11.125" transform="translate(73.031 51.977) rotate(-66.753)" fill="#50b8a7"/>
            <rect id="Rectángulo_424618" data-name="Rectángulo 424618" width="11.125" height="1.472" transform="translate(80.353 46.655) rotate(-54.863)" fill="#50b8a7"/>
            <rect id="Rectángulo_424619" data-name="Rectángulo 424619" width="11.125" height="1.472" transform="matrix(0.969, -0.247, 0.247, 0.969, 77.103, 33.403)" fill="#50b8a7"/>
            <rect id="Rectángulo_424620" data-name="Rectángulo 424620" width="11.125" height="1.472" transform="matrix(0.575, -0.818, 0.818, 0.575, 66.272, 52.22)" fill="#50b8a7"/>
            <rect id="Rectángulo_424621" data-name="Rectángulo 424621" width="1.472" height="11.125" transform="matrix(0.707, -0.707, 0.707, 0.707, 90.266, 33.784)" fill="#50b8a7"/>
            <rect id="Rectángulo_424622" data-name="Rectángulo 424622" width="1.473" height="11.125" transform="translate(94.72 51.977) rotate(-66.753)" fill="#50b8a7"/>
            <rect id="Rectángulo_424623" data-name="Rectángulo 424623" width="11.125" height="1.472" transform="matrix(0.576, -0.818, 0.818, 0.576, 102.041, 46.655)" fill="#50b8a7"/>
            <rect id="Rectángulo_424624" data-name="Rectángulo 424624" width="11.125" height="1.472" transform="matrix(0.969, -0.247, 0.247, 0.969, 98.791, 33.403)" fill="#50b8a7"/>
            <rect id="Rectángulo_424625" data-name="Rectángulo 424625" width="11.125" height="1.472" transform="translate(87.96 52.22) rotate(-54.902)" fill="#50b8a7"/>
            <rect id="Rectángulo_424626" data-name="Rectángulo 424626" width="1.472" height="11.125" transform="matrix(0.707, -0.707, 0.707, 0.707, 111.954, 33.784)" fill="#50b8a7"/>
            <rect id="Rectángulo_424627" data-name="Rectángulo 424627" width="1.473" height="11.125" transform="translate(116.408 51.977) rotate(-66.752)" fill="#50b8a7"/>
            <rect id="Rectángulo_424628" data-name="Rectángulo 424628" width="11.125" height="1.472" transform="translate(123.729 46.655) rotate(-54.864)" fill="#50b8a7"/>
            <rect id="Rectángulo_424629" data-name="Rectángulo 424629" width="11.125" height="1.472" transform="translate(120.479 33.403) rotate(-14.294)" fill="#50b8a7"/>
            <rect id="Rectángulo_424630" data-name="Rectángulo 424630" width="11.125" height="1.472" transform="translate(109.648 52.22) rotate(-54.902)" fill="#50b8a7"/>
            <rect id="Rectángulo_424631" data-name="Rectángulo 424631" width="1.472" height="11.125" transform="matrix(0.707, -0.707, 0.707, 0.707, 133.642, 33.784)" fill="#50b8a7"/>
            <rect id="Rectángulo_424632" data-name="Rectángulo 424632" width="1.473" height="11.125" transform="translate(138.096 51.977) rotate(-66.753)" fill="#50b8a7"/>
            <rect id="Rectángulo_424633" data-name="Rectángulo 424633" width="11.125" height="1.472" transform="matrix(0.576, -0.818, 0.818, 0.576, 145.418, 46.655)" fill="#50b8a7"/>
            <rect id="Rectángulo_424634" data-name="Rectángulo 424634" width="11.125" height="1.472" transform="translate(142.167 33.403) rotate(-14.294)" fill="#50b8a7"/>
            <rect id="Rectángulo_424635" data-name="Rectángulo 424635" width="11.125" height="1.472" transform="translate(131.336 52.22) rotate(-54.901)" fill="#50b8a7"/>
            <rect id="Rectángulo_424636" data-name="Rectángulo 424636" width="1.472" height="11.125" transform="matrix(0.707, -0.707, 0.707, 0.707, 3.512, 61.839)" fill="#50b8a7"/>
            <rect id="Rectángulo_424637" data-name="Rectángulo 424637" width="1.472" height="11.125" transform="translate(7.966 80.032) rotate(-66.753)" fill="#50b8a7"/>
            <rect id="Rectángulo_424638" data-name="Rectángulo 424638" width="11.125" height="1.472" transform="translate(15.287 74.71) rotate(-54.865)" fill="#50b8a7"/>
            <rect id="Rectángulo_424639" data-name="Rectángulo 424639" width="11.125" height="1.472" transform="translate(12.037 61.459) rotate(-14.296)" fill="#50b8a7"/>
            <rect id="Rectángulo_424640" data-name="Rectángulo 424640" width="11.125" height="1.472" transform="matrix(0.575, -0.818, 0.818, 0.575, 1.205, 80.275)" fill="#50b8a7"/>
            <rect id="Rectángulo_424641" data-name="Rectángulo 424641" width="1.472" height="11.126" transform="matrix(0.707, -0.707, 0.707, 0.707, 25.201, 61.839)" fill="#50b8a7"/>
            <rect id="Rectángulo_424642" data-name="Rectángulo 424642" width="1.472" height="11.125" transform="translate(29.655 80.032) rotate(-66.753)" fill="#50b8a7"/>
            <rect id="Rectángulo_424643" data-name="Rectángulo 424643" width="11.125" height="1.472" transform="matrix(0.576, -0.818, 0.818, 0.576, 36.977, 74.71)" fill="#50b8a7"/>
            <rect id="Rectángulo_424644" data-name="Rectángulo 424644" width="11.125" height="1.472" transform="translate(33.727 61.459) rotate(-14.296)" fill="#50b8a7"/>
            <rect id="Rectángulo_424645" data-name="Rectángulo 424645" width="11.126" height="1.472" transform="translate(22.894 80.275) rotate(-54.894)" fill="#50b8a7"/>
            <rect id="Rectángulo_424646" data-name="Rectángulo 424646" width="1.472" height="11.125" transform="matrix(0.707, -0.707, 0.707, 0.707, 46.89, 61.839)" fill="#50b8a7"/>
            <rect id="Rectángulo_424647" data-name="Rectángulo 424647" width="1.472" height="11.125" transform="matrix(0.395, -0.919, 0.919, 0.395, 51.344, 80.032)" fill="#50b8a7"/>
            <rect id="Rectángulo_424648" data-name="Rectángulo 424648" width="11.125" height="1.472" transform="translate(58.665 74.71) rotate(-54.866)" fill="#50b8a7"/>
            <rect id="Rectángulo_424649" data-name="Rectángulo 424649" width="11.125" height="1.472" transform="translate(55.415 61.459) rotate(-14.296)" fill="#50b8a7"/>
            <rect id="Rectángulo_424650" data-name="Rectángulo 424650" width="11.125" height="1.472" transform="matrix(0.575, -0.818, 0.818, 0.575, 44.583, 80.275)" fill="#50b8a7"/>
            <rect id="Rectángulo_424651" data-name="Rectángulo 424651" width="1.472" height="11.125" transform="matrix(0.707, -0.707, 0.707, 0.707, 68.578, 61.839)" fill="#50b8a7"/>
            <rect id="Rectángulo_424652" data-name="Rectángulo 424652" width="1.472" height="11.125" transform="translate(73.031 80.032) rotate(-66.753)" fill="#50b8a7"/>
            <rect id="Rectángulo_424653" data-name="Rectángulo 424653" width="11.125" height="1.472" transform="translate(80.353 74.71) rotate(-54.864)" fill="#50b8a7"/>
            <rect id="Rectángulo_424654" data-name="Rectángulo 424654" width="11.125" height="1.472" transform="translate(77.103 61.459) rotate(-14.296)" fill="#50b8a7"/>
            <rect id="Rectángulo_424655" data-name="Rectángulo 424655" width="11.125" height="1.472" transform="matrix(0.575, -0.818, 0.818, 0.575, 66.272, 80.275)" fill="#50b8a7"/>
            <rect id="Rectángulo_424656" data-name="Rectángulo 424656" width="1.472" height="11.125" transform="translate(90.266 61.839) rotate(-45)" fill="#50b8a7"/>
            <rect id="Rectángulo_424657" data-name="Rectángulo 424657" width="1.472" height="11.125" transform="matrix(0.395, -0.919, 0.919, 0.395, 94.72, 80.032)" fill="#50b8a7"/>
            <rect id="Rectángulo_424658" data-name="Rectángulo 424658" width="11.125" height="1.472" transform="translate(102.042 74.71) rotate(-54.866)" fill="#50b8a7"/>
            <rect id="Rectángulo_424659" data-name="Rectángulo 424659" width="11.125" height="1.472" transform="matrix(0.969, -0.247, 0.247, 0.969, 98.791, 61.459)" fill="#50b8a7"/>
            <rect id="Rectángulo_424660" data-name="Rectángulo 424660" width="11.125" height="1.472" transform="matrix(0.575, -0.818, 0.818, 0.575, 87.96, 80.275)" fill="#50b8a7"/>
            <rect id="Rectángulo_424661" data-name="Rectángulo 424661" width="1.472" height="11.125" transform="translate(111.954 61.839) rotate(-45)" fill="#50b8a7"/>
            <rect id="Rectángulo_424662" data-name="Rectángulo 424662" width="1.472" height="11.125" transform="translate(116.408 80.032) rotate(-66.752)" fill="#50b8a7"/>
            <rect id="Rectángulo_424663" data-name="Rectángulo 424663" width="11.125" height="1.472" transform="translate(123.73 74.71) rotate(-54.865)" fill="#50b8a7"/>
            <rect id="Rectángulo_424664" data-name="Rectángulo 424664" width="11.125" height="1.472" transform="matrix(0.969, -0.247, 0.247, 0.969, 120.479, 61.459)" fill="#50b8a7"/>
            <rect id="Rectángulo_424665" data-name="Rectángulo 424665" width="11.125" height="1.472" transform="matrix(0.575, -0.818, 0.818, 0.575, 109.648, 80.275)" fill="#50b8a7"/>
            <rect id="Rectángulo_424666" data-name="Rectángulo 424666" width="1.472" height="11.125" transform="translate(133.642 61.839) rotate(-44.999)" fill="#50b8a7"/>
            <rect id="Rectángulo_424667" data-name="Rectángulo 424667" width="1.472" height="11.125" transform="matrix(0.395, -0.919, 0.919, 0.395, 138.096, 80.032)" fill="#50b8a7"/>
            <rect id="Rectángulo_424668" data-name="Rectángulo 424668" width="11.125" height="1.472" transform="translate(145.418 74.71) rotate(-54.866)" fill="#50b8a7"/>
            <rect id="Rectángulo_424669" data-name="Rectángulo 424669" width="11.125" height="1.472" transform="matrix(0.969, -0.247, 0.247, 0.969, 142.167, 61.459)" fill="#50b8a7"/>
            <rect id="Rectángulo_424670" data-name="Rectángulo 424670" width="11.125" height="1.473" transform="matrix(0.575, -0.818, 0.818, 0.575, 131.336, 80.275)" fill="#50b8a7"/>
            <rect id="Rectángulo_424671" data-name="Rectángulo 424671" width="1.472" height="11.125" transform="matrix(0.707, -0.707, 0.707, 0.707, 3.511, 89.894)" fill="#50b8a7"/>
            <rect id="Rectángulo_424672" data-name="Rectángulo 424672" width="1.472" height="11.125" transform="translate(7.966 108.087) rotate(-66.753)" fill="#50b8a7"/>
            <rect id="Rectángulo_424673" data-name="Rectángulo 424673" width="11.125" height="1.472" transform="matrix(0.576, -0.818, 0.818, 0.576, 15.287, 102.765)" fill="#50b8a7"/>
            <rect id="Rectángulo_424674" data-name="Rectángulo 424674" width="11.125" height="1.472" transform="translate(12.037 89.514) rotate(-14.296)" fill="#50b8a7"/>
            <rect id="Rectángulo_424675" data-name="Rectángulo 424675" width="11.125" height="1.472" transform="matrix(0.575, -0.818, 0.818, 0.575, 1.205, 108.33)" fill="#50b8a7"/>
            <rect id="Rectángulo_424676" data-name="Rectángulo 424676" width="1.473" height="11.126" transform="matrix(0.707, -0.707, 0.707, 0.707, 25.2, 89.894)" fill="#50b8a7"/>
            <rect id="Rectángulo_424677" data-name="Rectángulo 424677" width="1.472" height="11.125" transform="translate(29.655 108.087) rotate(-66.753)" fill="#50b8a7"/>
            <rect id="Rectángulo_424678" data-name="Rectángulo 424678" width="11.125" height="1.472" transform="matrix(0.576, -0.818, 0.818, 0.576, 36.977, 102.765)" fill="#50b8a7"/>
            <rect id="Rectángulo_424679" data-name="Rectángulo 424679" width="11.125" height="1.472" transform="translate(33.727 89.514) rotate(-14.296)" fill="#50b8a7"/>
            <rect id="Rectángulo_424680" data-name="Rectángulo 424680" width="11.126" height="1.473" transform="matrix(0.575, -0.818, 0.818, 0.575, 22.893, 108.329)" fill="#50b8a7"/>
            <rect id="Rectángulo_424681" data-name="Rectángulo 424681" width="1.472" height="11.125" transform="translate(46.89 89.894) rotate(-44.999)" fill="#50b8a7"/>
            <rect id="Rectángulo_424682" data-name="Rectángulo 424682" width="1.472" height="11.125" transform="matrix(0.395, -0.919, 0.919, 0.395, 51.344, 108.087)" fill="#50b8a7"/>
            <rect id="Rectángulo_424683" data-name="Rectángulo 424683" width="11.125" height="1.472" transform="translate(58.665 102.765) rotate(-54.865)" fill="#50b8a7"/>
            <rect id="Rectángulo_424684" data-name="Rectángulo 424684" width="11.125" height="1.472" transform="translate(55.415 89.514) rotate(-14.296)" fill="#50b8a7"/>
            <rect id="Rectángulo_424685" data-name="Rectángulo 424685" width="11.125" height="1.473" transform="matrix(0.575, -0.818, 0.818, 0.575, 44.583, 108.329)" fill="#50b8a7"/>
            <rect id="Rectángulo_424686" data-name="Rectángulo 424686" width="1.472" height="11.125" transform="translate(68.578 89.894) rotate(-44.999)" fill="#50b8a7"/>
            <rect id="Rectángulo_424687" data-name="Rectángulo 424687" width="1.472" height="11.125" transform="translate(73.032 108.087) rotate(-66.753)" fill="#50b8a7"/>
            <rect id="Rectángulo_424688" data-name="Rectángulo 424688" width="11.125" height="1.472" transform="matrix(0.576, -0.818, 0.818, 0.576, 80.353, 102.765)" fill="#50b8a7"/>
            <rect id="Rectángulo_424689" data-name="Rectángulo 424689" width="11.125" height="1.472" transform="translate(77.103 89.514) rotate(-14.296)" fill="#50b8a7"/>
            <rect id="Rectángulo_424690" data-name="Rectángulo 424690" width="11.125" height="1.472" transform="translate(66.272 108.33) rotate(-54.902)" fill="#50b8a7"/>
            <rect id="Rectángulo_424691" data-name="Rectángulo 424691" width="1.473" height="11.125" transform="translate(90.266 89.894) rotate(-45.001)" fill="#50b8a7"/>
            <rect id="Rectángulo_424692" data-name="Rectángulo 424692" width="1.472" height="11.125" transform="matrix(0.395, -0.919, 0.919, 0.395, 94.72, 108.087)" fill="#50b8a7"/>
            <rect id="Rectángulo_424693" data-name="Rectángulo 424693" width="11.125" height="1.472" transform="translate(102.042 102.765) rotate(-54.865)" fill="#50b8a7"/>
            <rect id="Rectángulo_424694" data-name="Rectángulo 424694" width="11.125" height="1.472" transform="matrix(0.969, -0.247, 0.247, 0.969, 98.791, 89.514)" fill="#50b8a7"/>
            <rect id="Rectángulo_424695" data-name="Rectángulo 424695" width="11.125" height="1.472" transform="translate(87.959 108.33) rotate(-54.902)" fill="#50b8a7"/>
            <rect id="Rectángulo_424696" data-name="Rectángulo 424696" width="1.472" height="11.125" transform="translate(111.954 89.894) rotate(-45.001)" fill="#50b8a7"/>
            <rect id="Rectángulo_424697" data-name="Rectángulo 424697" width="1.472" height="11.125" transform="translate(116.408 108.087) rotate(-66.752)" fill="#50b8a7"/>
            <rect id="Rectángulo_424698" data-name="Rectángulo 424698" width="11.125" height="1.472" transform="matrix(0.576, -0.818, 0.818, 0.576, 123.73, 102.765)" fill="#50b8a7"/>
            <rect id="Rectángulo_424699" data-name="Rectángulo 424699" width="11.125" height="1.472" transform="matrix(0.969, -0.247, 0.247, 0.969, 120.479, 89.514)" fill="#50b8a7"/>
            <rect id="Rectángulo_424700" data-name="Rectángulo 424700" width="11.125" height="1.473" transform="translate(109.648 108.329) rotate(-54.902)" fill="#50b8a7"/>
            <rect id="Rectángulo_424701" data-name="Rectángulo 424701" width="1.472" height="11.125" transform="translate(133.642 89.894) rotate(-45)" fill="#50b8a7"/>
            <rect id="Rectángulo_424702" data-name="Rectángulo 424702" width="1.472" height="11.125" transform="matrix(0.395, -0.919, 0.919, 0.395, 138.096, 108.087)" fill="#50b8a7"/>
            <rect id="Rectángulo_424703" data-name="Rectángulo 424703" width="11.125" height="1.472" transform="translate(145.418 102.765) rotate(-54.865)" fill="#50b8a7"/>
            <rect id="Rectángulo_424704" data-name="Rectángulo 424704" width="11.125" height="1.472" transform="matrix(0.969, -0.247, 0.247, 0.969, 142.167, 89.514)" fill="#50b8a7"/>
            <rect id="Rectángulo_424705" data-name="Rectángulo 424705" width="11.125" height="1.473" transform="matrix(0.575, -0.818, 0.818, 0.575, 131.336, 108.329)" fill="#50b8a7"/>
            <rect id="Rectángulo_424706" data-name="Rectángulo 424706" width="1.472" height="11.125" transform="matrix(0.707, -0.707, 0.707, 0.707, 3.512, 117.949)" fill="#50b8a7"/>
            <path id="Trazado_1067235" data-name="Trazado 1067235" d="M604.015,1855.091l10.222,4.39-.581,1.352-10.221-4.389Z" transform="translate(-595.469 -1720.302)" fill="#50b8a7"/>
            <rect id="Rectángulo_424707" data-name="Rectángulo 424707" width="11.125" height="1.472" transform="translate(15.287 130.82) rotate(-54.863)" fill="#50b8a7"/>
            <rect id="Rectángulo_424708" data-name="Rectángulo 424708" width="11.125" height="1.472" transform="translate(12.037 117.569) rotate(-14.296)" fill="#50b8a7"/>
            <rect id="Rectángulo_424709" data-name="Rectángulo 424709" width="11.125" height="1.472" transform="matrix(0.575, -0.818, 0.818, 0.575, 1.205, 136.385)" fill="#50b8a7"/>
            <rect id="Rectángulo_424710" data-name="Rectángulo 424710" width="1.472" height="11.126" transform="translate(25.201 117.949) rotate(-45.003)" fill="#50b8a7"/>
            <rect id="Rectángulo_424711" data-name="Rectángulo 424711" width="1.472" height="11.124" transform="matrix(0.395, -0.919, 0.919, 0.395, 29.656, 136.142)" fill="#50b8a7"/>
            <rect id="Rectángulo_424712" data-name="Rectángulo 424712" width="11.125" height="1.472" transform="matrix(0.576, -0.818, 0.818, 0.576, 36.977, 130.82)" fill="#50b8a7"/>
            <rect id="Rectángulo_424713" data-name="Rectángulo 424713" width="11.125" height="1.472" transform="translate(33.727 117.569) rotate(-14.296)" fill="#50b8a7"/>
            <rect id="Rectángulo_424714" data-name="Rectángulo 424714" width="11.126" height="1.472" transform="matrix(0.575, -0.818, 0.818, 0.575, 22.894, 136.385)" fill="#50b8a7"/>
            <rect id="Rectángulo_424715" data-name="Rectángulo 424715" width="1.472" height="11.125" transform="matrix(0.707, -0.707, 0.707, 0.707, 46.89, 117.949)" fill="#50b8a7"/>
            <rect id="Rectángulo_424716" data-name="Rectángulo 424716" width="1.472" height="11.124" transform="translate(51.344 136.141) rotate(-66.756)" fill="#50b8a7"/>
            <rect id="Rectángulo_424717" data-name="Rectángulo 424717" width="11.125" height="1.472" transform="matrix(0.576, -0.818, 0.818, 0.576, 58.665, 130.82)" fill="#50b8a7"/>
            <rect id="Rectángulo_424718" data-name="Rectángulo 424718" width="11.125" height="1.472" transform="translate(55.415 117.569) rotate(-14.296)" fill="#50b8a7"/>
            <rect id="Rectángulo_424719" data-name="Rectángulo 424719" width="11.125" height="1.472" transform="matrix(0.575, -0.818, 0.818, 0.575, 44.583, 136.385)" fill="#50b8a7"/>
            <rect id="Rectángulo_424720" data-name="Rectángulo 424720" width="1.472" height="11.125" transform="matrix(0.707, -0.707, 0.707, 0.707, 68.578, 117.949)" fill="#50b8a7"/>
            <path id="Trazado_1067236" data-name="Trazado 1067236" d="M970.785,1855.091l10.222,4.39-.581,1.352-10.222-4.389Z" transform="translate(-897.172 -1720.302)" fill="#50b8a7"/>
            <rect id="Rectángulo_424721" data-name="Rectángulo 424721" width="11.125" height="1.472" transform="matrix(0.576, -0.818, 0.818, 0.576, 80.353, 130.82)" fill="#50b8a7"/>
            <rect id="Rectángulo_424722" data-name="Rectángulo 424722" width="11.125" height="1.472" transform="translate(77.103 117.569) rotate(-14.296)" fill="#50b8a7"/>
            <rect id="Rectángulo_424723" data-name="Rectángulo 424723" width="11.125" height="1.472" transform="translate(66.272 136.385) rotate(-54.901)" fill="#50b8a7"/>
            <rect id="Rectángulo_424724" data-name="Rectángulo 424724" width="1.472" height="11.125" transform="matrix(0.707, -0.707, 0.707, 0.707, 90.266, 117.949)" fill="#50b8a7"/>
            <path id="Trazado_1067237" data-name="Trazado 1067237" d="M1093.039,1855.091l10.222,4.39-.581,1.352-10.222-4.389Z" transform="translate(-997.738 -1720.302)" fill="#50b8a7"/>
            <rect id="Rectángulo_424725" data-name="Rectángulo 424725" width="11.125" height="1.472" transform="matrix(0.576, -0.818, 0.818, 0.576, 102.041, 130.82)" fill="#50b8a7"/>
            <rect id="Rectángulo_424726" data-name="Rectángulo 424726" width="11.125" height="1.472" transform="matrix(0.969, -0.247, 0.247, 0.969, 98.791, 117.569)" fill="#50b8a7"/>
            <rect id="Rectángulo_424727" data-name="Rectángulo 424727" width="11.125" height="1.472" transform="matrix(0.575, -0.818, 0.818, 0.575, 87.96, 136.385)" fill="#50b8a7"/>
            <rect id="Rectángulo_424728" data-name="Rectángulo 424728" width="1.472" height="11.125" transform="matrix(0.707, -0.707, 0.707, 0.707, 111.954, 117.949)" fill="#50b8a7"/>
            <path id="Trazado_1067238" data-name="Trazado 1067238" d="M1215.293,1855.091l10.221,4.39-.581,1.352-10.222-4.389Z" transform="translate(-1098.304 -1720.302)" fill="#50b8a7"/>
            <rect id="Rectángulo_424729" data-name="Rectángulo 424729" width="11.125" height="1.472" transform="translate(123.729 130.82) rotate(-54.863)" fill="#50b8a7"/>
            <rect id="Rectángulo_424730" data-name="Rectángulo 424730" width="11.125" height="1.472" transform="matrix(0.969, -0.247, 0.247, 0.969, 120.479, 117.569)" fill="#50b8a7"/>
            <rect id="Rectángulo_424731" data-name="Rectángulo 424731" width="11.125" height="1.472" transform="matrix(0.575, -0.818, 0.818, 0.575, 109.648, 136.385)" fill="#50b8a7"/>
            <rect id="Rectángulo_424732" data-name="Rectángulo 424732" width="1.472" height="11.125" transform="matrix(0.707, -0.707, 0.707, 0.707, 133.642, 117.949)" fill="#50b8a7"/>
            <path id="Trazado_1067239" data-name="Trazado 1067239" d="M1337.545,1855.091l10.222,4.39-.581,1.352-10.222-4.389Z" transform="translate(-1198.868 -1720.302)" fill="#50b8a7"/>
            <rect id="Rectángulo_424733" data-name="Rectángulo 424733" width="11.125" height="1.472" transform="matrix(0.576, -0.818, 0.818, 0.576, 145.418, 130.82)" fill="#50b8a7"/>
            <rect id="Rectángulo_424734" data-name="Rectángulo 424734" width="11.125" height="1.472" transform="matrix(0.969, -0.247, 0.247, 0.969, 142.167, 117.569)" fill="#50b8a7"/>
            <rect id="Rectángulo_424735" data-name="Rectángulo 424735" width="11.125" height="1.472" transform="matrix(0.575, -0.818, 0.818, 0.575, 131.336, 136.385)" fill="#50b8a7"/>
            <rect id="Rectángulo_424736" data-name="Rectángulo 424736" width="1.472" height="11.126" transform="matrix(0.707, -0.707, 0.707, 0.707, 154.777, 5.729)" fill="#50b8a7"/>
            <rect id="Rectángulo_424737" data-name="Rectángulo 424737" width="1.472" height="11.125" transform="translate(159.232 23.922) rotate(-66.752)" fill="#50b8a7"/>
            <rect id="Rectángulo_424738" data-name="Rectángulo 424738" width="11.125" height="1.472" transform="translate(166.554 18.6) rotate(-54.864)" fill="#50b8a7"/>
            <rect id="Rectángulo_424739" data-name="Rectángulo 424739" width="11.125" height="1.472" transform="translate(163.304 5.348) rotate(-14.296)" fill="#50b8a7"/>
            <rect id="Rectángulo_424740" data-name="Rectángulo 424740" width="11.126" height="1.472" transform="translate(152.471 24.165) rotate(-54.896)" fill="#50b8a7"/>
            <rect id="Rectángulo_424741" data-name="Rectángulo 424741" width="1.473" height="11.126" transform="matrix(0.707, -0.707, 0.707, 0.707, 176.467, 5.729)" fill="#50b8a7"/>
            <rect id="Rectángulo_424742" data-name="Rectángulo 424742" width="1.472" height="11.125" transform="translate(180.922 23.922) rotate(-66.753)" fill="#50b8a7"/>
            <rect id="Rectángulo_424743" data-name="Rectángulo 424743" width="11.125" height="1.472" transform="matrix(0.576, -0.818, 0.818, 0.576, 188.244, 18.6)" fill="#50b8a7"/>
            <rect id="Rectángulo_424744" data-name="Rectángulo 424744" width="11.125" height="1.472" transform="matrix(0.969, -0.247, 0.247, 0.969, 184.994, 5.348)" fill="#50b8a7"/>
            <rect id="Rectángulo_424745" data-name="Rectángulo 424745" width="11.126" height="1.472" transform="matrix(0.575, -0.818, 0.818, 0.575, 174.16, 24.164)" fill="#50b8a7"/>
            <rect id="Rectángulo_424746" data-name="Rectángulo 424746" width="1.472" height="11.125" transform="matrix(0.707, -0.707, 0.707, 0.707, 198.156, 5.729)" fill="#50b8a7"/>
            <rect id="Rectángulo_424747" data-name="Rectángulo 424747" width="11.125" height="1.472" transform="translate(195.85 24.164) rotate(-54.9)" fill="#50b8a7"/>
            <rect id="Rectángulo_424748" data-name="Rectángulo 424748" width="1.472" height="11.125" transform="translate(154.777 33.784) rotate(-45.005)" fill="#50b8a7"/>
            <rect id="Rectángulo_424749" data-name="Rectángulo 424749" width="1.472" height="11.125" transform="translate(159.232 51.977) rotate(-66.752)" fill="#50b8a7"/>
            <rect id="Rectángulo_424750" data-name="Rectángulo 424750" width="11.125" height="1.472" transform="translate(166.554 46.655) rotate(-54.864)" fill="#50b8a7"/>
            <rect id="Rectángulo_424751" data-name="Rectángulo 424751" width="11.125" height="1.472" transform="matrix(0.969, -0.247, 0.247, 0.969, 163.304, 33.403)" fill="#50b8a7"/>
            <rect id="Rectángulo_424752" data-name="Rectángulo 424752" width="11.126" height="1.472" transform="translate(152.471 52.22) rotate(-54.896)" fill="#50b8a7"/>
            <rect id="Rectángulo_424753" data-name="Rectángulo 424753" width="1.472" height="11.125" transform="translate(176.467 33.784) rotate(-45.008)" fill="#50b8a7"/>
            <rect id="Rectángulo_424754" data-name="Rectángulo 424754" width="1.472" height="11.125" transform="translate(180.922 51.977) rotate(-66.753)" fill="#50b8a7"/>
            <rect id="Rectángulo_424755" data-name="Rectángulo 424755" width="11.125" height="1.472" transform="translate(188.244 46.655) rotate(-54.863)" fill="#50b8a7"/>
            <rect id="Rectángulo_424756" data-name="Rectángulo 424756" width="11.125" height="1.472" transform="matrix(0.969, -0.247, 0.247, 0.969, 184.994, 33.403)" fill="#50b8a7"/>
            <rect id="Rectángulo_424757" data-name="Rectángulo 424757" width="11.126" height="1.472" transform="matrix(0.575, -0.818, 0.818, 0.575, 174.16, 52.22)" fill="#50b8a7"/>
            <rect id="Rectángulo_424758" data-name="Rectángulo 424758" width="1.472" height="11.125" transform="translate(198.157 33.784) rotate(-45.001)" fill="#50b8a7"/>
            <rect id="Rectángulo_424759" data-name="Rectángulo 424759" width="11.125" height="1.472" transform="translate(195.85 52.22) rotate(-54.9)" fill="#50b8a7"/>
            <rect id="Rectángulo_424760" data-name="Rectángulo 424760" width="1.472" height="11.126" transform="matrix(0.707, -0.707, 0.707, 0.707, 154.777, 61.839)" fill="#50b8a7"/>
            <rect id="Rectángulo_424761" data-name="Rectángulo 424761" width="1.472" height="11.125" transform="translate(159.232 80.032) rotate(-66.752)" fill="#50b8a7"/>
            <rect id="Rectángulo_424762" data-name="Rectángulo 424762" width="11.125" height="1.472" transform="translate(166.554 74.71) rotate(-54.865)" fill="#50b8a7"/>
            <rect id="Rectángulo_424763" data-name="Rectángulo 424763" width="11.125" height="1.472" transform="translate(163.304 61.459) rotate(-14.296)" fill="#50b8a7"/>
            <rect id="Rectángulo_424764" data-name="Rectángulo 424764" width="11.126" height="1.472" transform="matrix(0.575, -0.818, 0.818, 0.575, 152.471, 80.275)" fill="#50b8a7"/>
            <rect id="Rectángulo_424765" data-name="Rectángulo 424765" width="1.472" height="11.126" transform="matrix(0.707, -0.707, 0.707, 0.707, 176.467, 61.839)" fill="#50b8a7"/>
            <rect id="Rectángulo_424766" data-name="Rectángulo 424766" width="1.472" height="11.125" transform="matrix(0.395, -0.919, 0.919, 0.395, 180.922, 80.032)" fill="#50b8a7"/>
            <rect id="Rectángulo_424767" data-name="Rectángulo 424767" width="11.125" height="1.472" transform="matrix(0.576, -0.818, 0.818, 0.576, 188.244, 74.71)" fill="#50b8a7"/>
            <rect id="Rectángulo_424768" data-name="Rectángulo 424768" width="11.125" height="1.472" transform="matrix(0.969, -0.247, 0.247, 0.969, 184.994, 61.459)" fill="#50b8a7"/>
            <rect id="Rectángulo_424769" data-name="Rectángulo 424769" width="11.126" height="1.472" transform="translate(174.16 80.275) rotate(-54.894)" fill="#50b8a7"/>
            <rect id="Rectángulo_424770" data-name="Rectángulo 424770" width="1.472" height="11.125" transform="matrix(0.707, -0.707, 0.707, 0.707, 198.157, 61.839)" fill="#50b8a7"/>
            <rect id="Rectángulo_424771" data-name="Rectángulo 424771" width="11.125" height="1.472" transform="matrix(0.575, -0.818, 0.818, 0.575, 195.85, 80.275)" fill="#50b8a7"/>
            <rect id="Rectángulo_424772" data-name="Rectángulo 424772" width="1.472" height="11.126" transform="translate(154.777 89.894) rotate(-45.003)" fill="#50b8a7"/>
            <rect id="Rectángulo_424773" data-name="Rectángulo 424773" width="1.472" height="11.125" transform="translate(159.232 108.086) rotate(-66.752)" fill="#50b8a7"/>
            <rect id="Rectángulo_424774" data-name="Rectángulo 424774" width="11.125" height="1.472" transform="matrix(0.576, -0.818, 0.818, 0.576, 166.554, 102.765)" fill="#50b8a7"/>
            <rect id="Rectángulo_424775" data-name="Rectángulo 424775" width="11.125" height="1.472" transform="translate(163.304 89.514) rotate(-14.296)" fill="#50b8a7"/>
            <rect id="Rectángulo_424776" data-name="Rectángulo 424776" width="11.126" height="1.472" transform="matrix(0.575, -0.818, 0.818, 0.575, 152.471, 108.33)" fill="#50b8a7"/>
            <rect id="Rectángulo_424777" data-name="Rectángulo 424777" width="1.473" height="11.126" transform="translate(176.467 89.895) rotate(-45.006)" fill="#50b8a7"/>
            <rect id="Rectángulo_424778" data-name="Rectángulo 424778" width="1.472" height="11.125" transform="matrix(0.395, -0.919, 0.919, 0.395, 180.922, 108.087)" fill="#50b8a7"/>
            <rect id="Rectángulo_424779" data-name="Rectángulo 424779" width="11.125" height="1.472" transform="translate(188.244 102.765) rotate(-54.863)" fill="#50b8a7"/>
            <rect id="Rectángulo_424780" data-name="Rectángulo 424780" width="11.125" height="1.472" transform="matrix(0.969, -0.247, 0.247, 0.969, 184.994, 89.514)" fill="#50b8a7"/>
            <rect id="Rectángulo_424781" data-name="Rectángulo 424781" width="11.126" height="1.472" transform="matrix(0.575, -0.818, 0.818, 0.575, 174.16, 108.329)" fill="#50b8a7"/>
            <rect id="Rectángulo_424782" data-name="Rectángulo 424782" width="1.472" height="11.125" transform="translate(198.156 89.894) rotate(-44.999)" fill="#50b8a7"/>
            <rect id="Rectángulo_424783" data-name="Rectángulo 424783" width="11.125" height="1.473" transform="matrix(0.575, -0.818, 0.818, 0.575, 195.85, 108.329)" fill="#50b8a7"/>
            <rect id="Rectángulo_424784" data-name="Rectángulo 424784" width="1.472" height="11.126" transform="matrix(0.707, -0.707, 0.707, 0.707, 154.777, 117.949)" fill="#50b8a7"/>
            <path id="Trazado_1067240" data-name="Trazado 1067240" d="M1456.69,1855.091l10.221,4.39-.581,1.352-10.222-4.389Z" transform="translate(-1296.877 -1720.302)" fill="#50b8a7"/>
            <rect id="Rectángulo_424785" data-name="Rectángulo 424785" width="11.125" height="1.472" transform="translate(166.554 130.82) rotate(-54.863)" fill="#50b8a7"/>
            <rect id="Rectángulo_424786" data-name="Rectángulo 424786" width="11.125" height="1.472" transform="translate(163.304 117.569) rotate(-14.296)" fill="#50b8a7"/>
            <rect id="Rectángulo_424787" data-name="Rectángulo 424787" width="11.126" height="1.472" transform="matrix(0.575, -0.818, 0.818, 0.575, 152.471, 136.385)" fill="#50b8a7"/>
            <rect id="Rectángulo_424788" data-name="Rectángulo 424788" width="1.472" height="11.126" transform="matrix(0.707, -0.707, 0.707, 0.707, 176.467, 117.949)" fill="#50b8a7"/>
            <path id="Trazado_1067241" data-name="Trazado 1067241" d="M1578.953,1855.091l10.222,4.39-.581,1.352-10.222-4.389Z" transform="translate(-1397.45 -1720.302)" fill="#50b8a7"/>
            <rect id="Rectángulo_424789" data-name="Rectángulo 424789" width="11.125" height="1.472" transform="translate(188.244 130.82) rotate(-54.862)" fill="#50b8a7"/>
            <rect id="Rectángulo_424790" data-name="Rectángulo 424790" width="11.125" height="1.472" transform="matrix(0.969, -0.247, 0.247, 0.969, 184.994, 117.569)" fill="#50b8a7"/>
            <rect id="Rectángulo_424791" data-name="Rectángulo 424791" width="11.126" height="1.472" transform="matrix(0.575, -0.818, 0.818, 0.575, 174.16, 136.385)" fill="#50b8a7"/>
            <rect id="Rectángulo_424792" data-name="Rectángulo 424792" width="1.472" height="11.125" transform="matrix(0.707, -0.707, 0.707, 0.707, 198.157, 117.949)" fill="#50b8a7"/>
            <rect id="Rectángulo_424793" data-name="Rectángulo 424793" width="11.125" height="1.472" transform="matrix(0.575, -0.818, 0.818, 0.575, 195.85, 136.385)" fill="#50b8a7"/>
            <rect id="Rectángulo_424794" data-name="Rectángulo 424794" width="11.125" height="1.472" transform="translate(12.037 146.013) rotate(-14.293)" fill="#50b8a7"/>
            <rect id="Rectángulo_424795" data-name="Rectángulo 424795" width="11.125" height="1.472" transform="translate(33.727 146.013) rotate(-14.294)" fill="#50b8a7"/>
            <rect id="Rectángulo_424796" data-name="Rectángulo 424796" width="11.125" height="1.472" transform="translate(55.415 146.013) rotate(-14.293)" fill="#50b8a7"/>
            <rect id="Rectángulo_424797" data-name="Rectángulo 424797" width="11.125" height="1.472" transform="translate(77.103 146.013) rotate(-14.293)" fill="#50b8a7"/>
            <rect id="Rectángulo_424798" data-name="Rectángulo 424798" width="11.125" height="1.472" transform="matrix(0.969, -0.247, 0.247, 0.969, 98.791, 146.013)" fill="#50b8a7"/>
            <rect id="Rectángulo_424799" data-name="Rectángulo 424799" width="11.125" height="1.472" transform="translate(120.479 146.013) rotate(-14.293)" fill="#50b8a7"/>
            <rect id="Rectángulo_424800" data-name="Rectángulo 424800" width="11.125" height="1.472" transform="translate(142.167 146.013) rotate(-14.293)" fill="#50b8a7"/>
            <rect id="Rectángulo_424801" data-name="Rectángulo 424801" width="11.125" height="1.472" transform="translate(163.304 146.013) rotate(-14.293)" fill="#50b8a7"/>
            <rect id="Rectángulo_424802" data-name="Rectángulo 424802" width="11.125" height="1.472" transform="matrix(0.969, -0.247, 0.247, 0.969, 184.994, 146.013)" fill="#50b8a7"/>
          </g>
        </g>
        <g id="Grupo_1230360" data-name="Grupo 1230360" transform="translate(0 -0.001)">
          <g id="Grupo_1230359" data-name="Grupo 1230359" clip-path="url(#clip-path-3)">
            <path id="Trazado_1067243" data-name="Trazado 1067243" d="M897.339,1292.334l.071.523c.042.341.113.842.187,1.48s.173,1.411.264,2.3.21,1.889.313,2.983.227,2.277.335,3.531.231,2.574.34,3.942.211,2.781.322,4.216.209,2.895.309,4.354q.068,1.095.135,2.187t.144,2.168q.072,1.077.13,2.135l.115,2.085c.064,1.37.152,2.691.221,3.946s.122,2.443.168,3.54.107,2.1.155,2.99.084,1.668.112,2.309.041,1.146.054,1.491.013.529.013.529l-.107-.516c-.065-.337-.17-.831-.285-1.463s-.264-1.4-.414-2.281l-.244-1.406c-.092-.495-.146-1.018-.225-1.563-.149-1.09-.309-2.271-.463-3.522s-.319-2.571-.442-3.939l-.2-2.083q-.1-1.056-.188-2.136c-.059-.719-.126-1.443-.179-2.171s-.1-1.459-.149-2.19c-.09-1.462-.183-2.924-.258-4.364q-.029-.54-.058-1.075l-.044-1.065-.081-2.09c-.05-1.372-.09-2.7-.119-3.958s-.034-2.45-.042-3.549-.009-2.107,0-3,.024-1.673.036-2.315.035-1.146.045-1.49l.023-.528" transform="translate(-738.056 -1063.07)" fill="#357a6f"/>
            <path id="Trazado_1067244" data-name="Trazado 1067244" d="M1499.022,1292.334s0,.184-.005.53-.01.853-.035,1.5-.042,1.427-.085,2.323-.083,1.908-.153,3.009-.132,2.3-.223,3.556-.2,2.589-.313,3.963q-.091,1.03-.184,2.091c-.064.707-.127,1.421-.2,2.141-.142,1.44-.3,2.9-.461,4.364s-.33,2.922-.521,4.358q-.135,1.077-.28,2.133l-.285,2.081c-.1.682-.186,1.355-.289,2.01s-.206,1.3-.306,1.922c-.2,1.249-.406,2.428-.6,3.515-.1.543-.18,1.066-.277,1.56l-.287,1.4c-.176.881-.346,1.646-.483,2.276s-.254,1.123-.33,1.46l-.123.515s.01-.184.029-.53.048-.852.1-1.494.1-1.423.183-2.315.162-1.9.25-3,.185-2.289.3-3.546.245-2.582.375-3.952q.1-1.028.206-2.087t.223-2.137l.472-4.357c.168-1.459.333-2.919.512-4.354s.346-2.848.525-4.214.359-2.686.533-3.937.35-2.433.515-3.524.323-2.09.465-2.975.276-1.657.385-2.292.2-1.133.265-1.473l.1-.521" transform="translate(-1228.618 -1063.07)" fill="#357a6f"/>
            <path id="Trazado_1067245" data-name="Trazado 1067245" d="M982.893,499.743c-3.239-19.111-6.479-34.658,3.563-39.841s53.121-35.63,59.923-5.182c10.689,7.126,19.11,14.9,9.393,45.023-18.139,8.1-50.53,12.956-72.879,0" transform="translate(-805.893 -363.07)" fill="#253332"/>
            <path id="Trazado_1067246" data-name="Trazado 1067246" d="M1290.668,526.959a13.882,13.882,0,0,1-3.363,6.42,14.582,14.582,0,0,1-6.556,3.726l-.013,0c.888-.609,1.826-1.146,2.721-1.745a22.1,22.1,0,0,0,3.122-2.488,20.8,20.8,0,0,0,2.448-3.115c.592-.908,1.076-1.878,1.641-2.8" transform="translate(-1053.529 -433.474)" fill="#3d4d4b"/>
            <path id="Trazado_1067247" data-name="Trazado 1067247" d="M1200.346,506.548a35.2,35.2,0,0,1-4.9,5.556,45.07,45.07,0,0,1-6.489,5.027c-.8.511-1.628.971-2.459,1.423-.41.223-.841.411-1.262.611s-.833.407-1.266.573c-.833.318-1.653.66-2.51.911-.549.161-1.1.321-1.651.466.906-.43,1.837-.8,2.73-1.26,1.188-.605,2.4-1.192,3.533-1.894,1.172-.723,2.332-1.455,3.473-2.226s2.242-1.61,3.319-2.465a79.28,79.28,0,0,0,7.483-6.721" transform="translate(-970.506 -416.684)" fill="#3d4d4b"/>
            <path id="Trazado_1067248" data-name="Trazado 1067248" d="M1147.471,512.3a35.09,35.09,0,0,1-4.63,5.875,38.114,38.114,0,0,1-5.285,4.671c-.8.571-1.6,1.123-2.427,1.647-.859.543-1.752,1.022-2.65,1.5-.418.222-.865.4-1.3.59s-.835.375-1.268.526c-.63.22-1.262.436-1.9.634.873-.466,1.773-.879,2.632-1.371,1.139-.653,2.313-1.283,3.386-2.045,1.13-.8,2.274-1.577,3.371-2.427.789-.611,1.559-1.254,2.315-1.905a76.209,76.209,0,0,0,7.754-7.693" transform="translate(-927.9 -421.412)" fill="#3d4d4b"/>
            <path id="Trazado_1067249" data-name="Trazado 1067249" d="M1050.375,615.8c0-5.182-.864-15.008-2.808-18.9s-10.381-6.781-14.468-12.74c-13.6,3.671-35.2,6.91-38.653,10.365s-5.4,14.9-5.4,22.674c-1.836-7.126-9.354-7.558-9.354-1.3s1.256,17.707,8.706,16.2c.81,5.4,5.086,15.289,13.077,21.935-.246,8.306-1.788,19.607-9.028,21.055,17.115,29.188,38.185,28.776,52.8.09-4.074-2.716-7.865-6.537-8.364-20.673,8.214-6.927,12.218-17.7,13.061-22.623,6.154,2.807,9.644-7.439,9.644-15.043,0-7.83-6.836-7.2-9.212-1.045" transform="translate(-805.894 -480.535)" fill="#e68a51"/>
            <path id="Trazado_1067250" data-name="Trazado 1067250" d="M1002.571,777.394c-1.242-3.131-3.563-7.36-5.129-5.2s1.89,12.218,4.913,8.6c-.648-1.457-1.321-2.149.216-3.4" transform="translate(-820.172 -634.718)" fill="#bd6a35"/>
            <path id="Trazado_1067251" data-name="Trazado 1067251" d="M1380.241,777.394c1.242-3.131,3.563-7.36,5.129-5.2s-1.89,12.218-4.913,8.6c.648-1.457,1.321-2.149-.216-3.4" transform="translate(-1135.383 -634.718)" fill="#bd6a35"/>
            <path id="Trazado_1067252" data-name="Trazado 1067252" d="M1179.53,766.687c-2.308.368-4.852.453-6.955-.738a3.843,3.843,0,0,1-2.07-2.882,3.383,3.383,0,0,1,1.759-3.128c.745-.448,1.6-.68,2.348-1.123a6.349,6.349,0,0,0,2.191-2.089c.988-1.586,1.046-3.543,1.195-5.351.232,2.266.236,4.652-1.2,6.548a7.731,7.731,0,0,1-2.969,2.216,3.731,3.731,0,0,0-2.374,2.026c-.618,1.867,1.337,3.353,2.9,3.839a16.859,16.859,0,0,0,5.18.683" transform="translate(-962.846 -618.079)" fill="#bd6a35"/>
            <path id="Trazado_1067253" data-name="Trazado 1067253" d="M1158.4,881.843c4,9.5,13.173,9.178,17.707,0a73.205,73.205,0,0,1-17.707,0" transform="translate(-952.898 -725.401)" fill="#fff"/>
            <path id="Trazado_1067254" data-name="Trazado 1067254" d="M1284.783,753.4a2.024,2.024,0,1,1-2.024-2.024,2.025,2.025,0,0,1,2.024,2.024" transform="translate(-1053.529 -618.078)" fill="#253332"/>
            <path id="Trazado_1067255" data-name="Trazado 1067255" d="M1274.8,739.394a4.453,4.453,0,0,1,3.008-1.008,4.848,4.848,0,0,1,3.011,1.008,19.41,19.41,0,0,0-3.015-.353,13.9,13.9,0,0,0-3,.353" transform="translate(-1048.646 -607.393)" fill="#bd6a35"/>
            <path id="Trazado_1067256" data-name="Trazado 1067256" d="M1258.151,710.279c-.578-2.31,4.373-2.267,5.992-2.267.89,0,5.466.769,5.466,2.632s-1.444.149-5.466.149c-2.141,0-5.507,1.43-5.992-.513" transform="translate(-1034.913 -582.408)" fill="#253332"/>
            <path id="Trazado_1067257" data-name="Trazado 1067257" d="M1116.6,753.4a2.024,2.024,0,1,0,2.025-2.024,2.024,2.024,0,0,0-2.025,2.024" transform="translate(-918.515 -618.078)" fill="#253332"/>
            <path id="Trazado_1067258" data-name="Trazado 1067258" d="M1117.448,739.394a13.215,13.215,0,0,0-2.925-.352,16.515,16.515,0,0,0-1.674.12c-.479.038-.945.177-1.421.232a4.92,4.92,0,0,1,2.935-1.008,4.423,4.423,0,0,1,3.085,1.008" transform="translate(-914.258 -607.393)" fill="#bd6a35"/>
            <path id="Trazado_1067259" data-name="Trazado 1067259" d="M1108.66,710.279c.578-2.31-4.373-2.267-5.992-2.267-.891,0-5.466.769-5.466,2.632s1.444.149,5.466.149c2.141,0,5.506,1.43,5.992-.513" transform="translate(-902.555 -582.408)" fill="#253332"/>
            <path id="Trazado_1067260" data-name="Trazado 1067260" d="M1102.482,978.044c7.9,14.367,24.9,14.853,35.671.248-10.122,8.288-23.889,9.191-35.671-.248" transform="translate(-906.899 -804.536)" fill="#bd6a35"/>
            <path id="Trazado_1067261" data-name="Trazado 1067261" d="M1498.187,1704.014c-6.165,20.191-18.464,39.527-28.187,48.271-10.99-4.274-21.471-27.309-21.471-27.309s28.492-24.828,49.658-20.962" transform="translate(-1191.555 -1401.38)" fill="#e68a51"/>
            <path id="Trazado_1067262" data-name="Trazado 1067262" d="M529.423,1010.551c-7.624,1.525-17.779-11.751-17.859-19.094-.283-26.057,2.4-65.136-.669-73.344s-12.548-18.2-10.845-23.541c1.188-3.726.4-4.819,2-7.775,1.365-2.528,1.35-4.92,4.59-6.131s2.305-5.168,9.594-2.927c0-9.071.232-23.338,3.256-23.338s1.728,16.846,3.024,22.893c7.559,3.239,12.527,9.179,11.015,13.552s-5.831,20.14-5.831,24.675,15.691,56.746,18.864,69.726-7.417,23.359-17.136,25.3" transform="translate(-411.173 -702.827)" fill="#e68a51"/>
            <path id="Trazado_1067263" data-name="Trazado 1067263" d="M577.617,1010.964a14.727,14.727,0,0,1-1.053-3.83,11.533,11.533,0,0,1,.266-4.066,16.3,16.3,0,0,1,4.044-6.834c.734-.8,1.505-1.568,2.271-2.338q-.022.194-.045.388c-.741-1.2-1.448-2.415-2.231-3.586a19.33,19.33,0,0,0-1.21-1.651,4.319,4.319,0,0,0-1.431-1.255,1.149,1.149,0,0,0-.841-.023l-.931.233c-.853.213-1.705.431-2.57.59-1.2.215-2.7.43-3.687-.472a2,2,0,0,1-.737-1.345,2.259,2.259,0,0,1,.785-1.588,10.015,10.015,0,0,1,3.361-2.008A16.291,16.291,0,0,1,577.6,982.1a3.6,3.6,0,0,1,2.177.171,3.423,3.423,0,0,0-1.991-.068,13.868,13.868,0,0,0-2.041.506,16.871,16.871,0,0,0-3.775,1.709,6.683,6.683,0,0,0-1.49,1.2c-.362.411-.715,1.02-.392,1.557.652,1.084,1.906,1.119,3.033.951a28.529,28.529,0,0,0,2.867-.648c.5-.128,1-.3,1.511-.387,1.2-.2,2.168.926,2.843,1.767a31.1,31.1,0,0,1,2.288,3.435c.34.564.677,1.131,1.021,1.693.1.156.142.159.012.288q-.311.307-.624.613a40.326,40.326,0,0,0-2.913,3.076,13.531,13.531,0,0,0-3.339,7.5,11.638,11.638,0,0,0,.123,2.787,18.9,18.9,0,0,0,.707,2.722c-.146-.372-.122-.38,0,0" transform="translate(-468.438 -807.8)" fill="#bd6a35"/>
            <path id="Trazado_1067264" data-name="Trazado 1067264" d="M609.353,1013.824c-.009.009.312.495.33.525.282.473.537.96.777,1.456a18.878,18.878,0,0,1,1.306,3.548,7.023,7.023,0,0,1,.133,3.771,2.094,2.094,0,0,1-1,1.259,2.366,2.366,0,0,1-1.34.2,2.55,2.55,0,0,0,1.231-.464,2.073,2.073,0,0,0,.688-1.4,9.706,9.706,0,0,0-.425-3.526c-.463-1.818-1.1-3.59-1.7-5.365" transform="translate(-501.252 -833.968)" fill="#bd6a35"/>
            <path id="Trazado_1067265" data-name="Trazado 1067265" d="M564.3,1013.824c0,.062.437.317.487.354q.643.482,1.258,1a37.039,37.039,0,0,1,2.964,2.772,21.148,21.148,0,0,1,2.595,3.218,8.325,8.325,0,0,1,.916,1.829,2.567,2.567,0,0,1,.029,1.92c-.423.893-1.538,1.012-2.407,1.014a4.2,4.2,0,0,0,1.487-.495,1.385,1.385,0,0,0,.628-1.463,5.159,5.159,0,0,0-.764-1.824,17.2,17.2,0,0,0-1.168-1.671c-1.637-2.1-3.507-4.008-5.34-5.933l-.685-.719" transform="translate(-464.191 -833.968)" fill="#bd6a35"/>
            <path id="Trazado_1067266" data-name="Trazado 1067266" d="M529.6,1032.144a3.725,3.725,0,0,0,.528.216c.472.2.938.411,1.4.631,1.224.581,2.419,1.22,3.587,1.906a33.387,33.387,0,0,1,3.471,2.316,11.388,11.388,0,0,1,2.785,2.793,1.881,1.881,0,0,1,.194,2.142,2.788,2.788,0,0,1-1.746.847,3.794,3.794,0,0,0,1.292-.723,1.283,1.283,0,0,0,.082-1.672,6.529,6.529,0,0,0-1.252-1.451c-.494-.459-1.024-.882-1.56-1.29-2.18-1.658-4.54-3.079-6.863-4.523l-1.918-1.192" transform="translate(-435.65 -849.038)" fill="#bd6a35"/>
            <path id="Trazado_1067267" data-name="Trazado 1067267" d="M526.559,1068.059c0,.02,1.033.183,1.094.2q.809.159,1.61.35a37.259,37.259,0,0,1,3.915,1.143,12.982,12.982,0,0,1,3.654,1.813,2.262,2.262,0,0,1,.992,1.454,1.409,1.409,0,0,1-.328.994,2.457,2.457,0,0,1-2.2.783c-.942-.048-1.869-.25-2.806-.344a10.792,10.792,0,0,0-2.821.053,9.849,9.849,0,0,0-2.249.686,8.139,8.139,0,0,1,1.981-.893,9.263,9.263,0,0,1,2.7-.339c.946.012,1.881.155,2.823.221a4.032,4.032,0,0,0,1.328-.071,1.468,1.468,0,0,0,.807-.582l-.008.01c.549-.91-.958-1.747-1.587-2.1a24.172,24.172,0,0,0-3.351-1.5c-1.828-.693-3.692-1.284-5.556-1.868" transform="translate(-433.146 -878.582)" fill="#bd6a35"/>
            <path id="Trazado_1067268" data-name="Trazado 1067268" d="M887.466,1576.48a1.954,1.954,0,0,1-1.832,1.832H754.567a2.03,2.03,0,0,1-1.832-1.832c-.139-.976-12.109-84.252-12.217-85.1a2.074,2.074,0,0,1,1.832-2.442h155.5c1.07,0,2.087.686,1.832,2.442-.158,1.084-12.11,84.219-12.217,85.1" transform="translate(-609.131 -1224.799)" fill="#212928"/>
            <path id="Trazado_1067269" data-name="Trazado 1067269" d="M1147.454,1706.323c0,4.109-5.147,7.441-11.5,7.441s-11.5-3.332-11.5-7.441,5.147-7.441,11.5-7.441,11.5,3.331,11.5,7.441" transform="translate(-924.978 -1397.495)" fill="#f2e1a5"/>
            <g id="Grupo_1230358" data-name="Grupo 1230358" transform="translate(142.176 270.692)" opacity="0.2">
              <g id="Grupo_1230357" data-name="Grupo 1230357">
                <g id="Grupo_1230356" data-name="Grupo 1230356" clip-path="url(#clip-path-7)">
                  <path id="Trazado_1067270" data-name="Trazado 1067270" d="M801.431,1596.9c.85,5.919,1.4,9.741,1.429,9.945a2.03,2.03,0,0,0,1.832,1.831H935.759a1.954,1.954,0,0,0,1.832-1.831c.094-.765,9.193-64.075,11.626-80.989Z" transform="translate(-801.431 -1525.859)"/>
                </g>
              </g>
            </g>
            <path id="Trazado_1067271" data-name="Trazado 1067271" d="M753.3,1504q6.09-.118,12.18-.2,7.475-.107,14.951-.182,7.805-.072,15.611-.123,8.045-.052,16.09-.077,8.181-.031,16.363-.033c5.458-.008,10.916.016,16.373.019,5.384,0,10.767.036,16.151.07q7.886.05,15.772.116c4.994.046,9.988.093,14.982.167,4.519.067,9.037.126,13.556.214l1.486.029q-6.09.119-12.18.2-7.476.108-14.951.182-7.805.072-15.611.123-8.044.051-16.089.083-8.182.026-16.363.025t-16.373-.021q-8.075-.031-16.151-.069-7.886-.051-15.772-.117-7.491-.068-14.982-.167c-4.519-.066-9.038-.126-13.556-.213L753.3,1504" transform="translate(-619.664 -1236.677)" fill="#33403f"/>
            <path id="Trazado_1067272" data-name="Trazado 1067272" d="M481.4,2501.077l-15.171.183-17.412.169-22.584.176-26.722.158-29.825.123-31.894.078-32.928.031-32.928-.034-16.141-.033-15.753-.048-29.825-.127-26.722-.162-22.584-.18-17.412-.172-15.171-.187a.086.086,0,0,1,0-.172l15.171-.187,17.412-.172,22.584-.179,26.722-.163,29.825-.127,15.753-.048,16.141-.034,32.928-.034,32.928.03,31.894.078,29.825.123,26.722.158,22.584.176,17.412.169,15.171.183a.112.112,0,0,1,0,.223" transform="translate(-105.491 -2056.44)" fill="#b3a36f"/>
            <path id="Trazado_1067273" data-name="Trazado 1067273" d="M137.945,326.847c.846,2.963.007,4.35-3.1,1.927-1.006-.784-20.129-15.506-20.129-15.506H3.663A3.663,3.663,0,0,1,0,309.6V238.173a3.663,3.663,0,0,1,3.663-3.663H125.786a3.663,3.663,0,0,1,3.663,3.663v57.918s8.051,29.2,8.5,30.756" transform="translate(0 -192.906)" fill="#e6d28f"/>
            <path id="Trazado_1067274" data-name="Trazado 1067274" d="M94.833,309.306H58.3a1.03,1.03,0,1,1,0-2.059h36.53a1.03,1.03,0,1,1,0,2.059" transform="translate(-47.113 -252.74)" fill="#fff"/>
            <path id="Trazado_1067275" data-name="Trazado 1067275" d="M189.962,357.526h-36.53a1.03,1.03,0,0,1,0-2.059h36.53a1.03,1.03,0,0,1,0,2.059" transform="translate(-125.365 -292.405)" fill="#fff"/>
            <path id="Trazado_1067276" data-name="Trazado 1067276" d="M410.152,357.526H391.069a1.03,1.03,0,0,1,0-2.059h19.083a1.03,1.03,0,0,1,0,2.059" transform="translate(-320.845 -292.405)" fill="#fff"/>
            <path id="Trazado_1067277" data-name="Trazado 1067277" d="M315.739,405.746H296.656a1.03,1.03,0,1,1,0-2.059h19.083a1.03,1.03,0,0,1,0,2.059" transform="translate(-243.181 -332.071)" fill="#fff"/>
            <path id="Trazado_1067278" data-name="Trazado 1067278" d="M410.152,502.186H391.069a1.03,1.03,0,0,1,0-2.059h19.083a1.03,1.03,0,0,1,0,2.059" transform="translate(-320.845 -411.402)" fill="#fff"/>
            <path id="Trazado_1067279" data-name="Trazado 1067279" d="M544.8,502.186H525.722a1.03,1.03,0,1,1,0-2.059H544.8a1.03,1.03,0,1,1,0,2.059" transform="translate(-431.61 -411.402)" fill="#fff"/>
            <path id="Trazado_1067280" data-name="Trazado 1067280" d="M94.833,405.746H58.3a1.03,1.03,0,1,1,0-2.059h36.53a1.03,1.03,0,1,1,0,2.059" transform="translate(-47.113 -332.071)" fill="#fff"/>
            <path id="Trazado_1067281" data-name="Trazado 1067281" d="M135.59,453.966H96.609a1.03,1.03,0,0,1,0-2.059h38.98a1.03,1.03,0,1,1,0,2.059" transform="translate(-78.624 -371.737)" fill="#fff"/>
            <path id="Trazado_1067282" data-name="Trazado 1067282" d="M189.962,502.186h-36.53a1.03,1.03,0,0,1,0-2.059h36.53a1.03,1.03,0,0,1,0,2.059" transform="translate(-125.365 -411.402)" fill="#fff"/>
            <path id="Trazado_1067283" data-name="Trazado 1067283" d="M173.085,550.406H153.431a1.03,1.03,0,0,1,0-2.059h19.654a1.03,1.03,0,0,1,0,2.059" transform="translate(-125.365 -451.068)" fill="#fff"/>
            <path id="Trazado_1067284" data-name="Trazado 1067284" d="M316.255,550.406H296.6a1.03,1.03,0,0,1,0-2.059h19.654a1.03,1.03,0,0,1,0,2.059" transform="translate(-243.136 -451.068)" fill="#fff"/>
            <path id="Trazado_1067285" data-name="Trazado 1067285" d="M454.392,550.406H434.738a1.03,1.03,0,0,1,0-2.059h19.654a1.03,1.03,0,0,1,0,2.059" transform="translate(-356.767 -451.068)" fill="#fff"/>
            <path id="Trazado_1067286" data-name="Trazado 1067286" d="M126.344,598.626H96.61a1.03,1.03,0,1,1,0-2.059h29.735a1.03,1.03,0,1,1,0,2.059" transform="translate(-78.624 -490.734)" fill="#fff"/>
            <path id="Trazado_1067287" data-name="Trazado 1067287" d="M1524.555,108.822c-.847,2.963-.007,4.35,3.1,1.927,1.006-.784,20.13-15.507,20.13-15.507h79.031a3.663,3.663,0,0,0,3.664-3.663V3.659A3.663,3.663,0,0,0,1626.819,0h-90.1a3.663,3.663,0,0,0-3.663,3.663V78.066s-8.051,29.2-8.5,30.756" transform="translate(-1253.84 0.004)" fill="#7eccbf"/>
            <path id="Trazado_1067288" data-name="Trazado 1067288" d="M1668.94,72.341h-36.53a1.03,1.03,0,1,1,0-2.059h36.53a1.03,1.03,0,1,1,0,2.059" transform="translate(-1341.969 -57.813)" fill="#fff"/>
            <path id="Trazado_1067289" data-name="Trazado 1067289" d="M1764.068,120.561h-36.53a1.03,1.03,0,0,1,0-2.059h36.53a1.03,1.03,0,0,1,0,2.059" transform="translate(-1420.221 -97.479)" fill="#fff"/>
            <path id="Trazado_1067290" data-name="Trazado 1067290" d="M1891.4,72.341h-19.083a1.03,1.03,0,1,1,0-2.059H1891.4a1.03,1.03,0,1,1,0,2.059" transform="translate(-1539.317 -57.813)" fill="#fff"/>
            <path id="Trazado_1067291" data-name="Trazado 1067291" d="M1889.846,168.781h-19.083a1.03,1.03,0,1,1,0-2.059h19.083a1.03,1.03,0,1,1,0,2.059" transform="translate(-1538.037 -137.144)" fill="#fff"/>
            <path id="Trazado_1067292" data-name="Trazado 1067292" d="M1668.94,168.781h-36.53a1.03,1.03,0,1,1,0-2.059h36.53a1.03,1.03,0,1,1,0,2.059" transform="translate(-1341.969 -137.144)" fill="#fff"/>
            <path id="Trazado_1067293" data-name="Trazado 1067293" d="M1709.7,217h-38.981a1.03,1.03,0,0,1,0-2.059H1709.7a1.03,1.03,0,0,1,0,2.059" transform="translate(-1373.48 -176.81)" fill="#fff"/>
            <path id="Trazado_1067294" data-name="Trazado 1067294" d="M1764.068,265.222h-36.53a1.03,1.03,0,0,1,0-2.059h36.53a1.03,1.03,0,0,1,0,2.059" transform="translate(-1420.221 -216.476)" fill="#fff"/>
            <path id="Trazado_1067295" data-name="Trazado 1067295" d="M1747.192,313.441h-19.654a1.03,1.03,0,0,1,0-2.059h19.654a1.03,1.03,0,1,1,0,2.059" transform="translate(-1420.221 -256.141)" fill="#fff"/>
            <path id="Trazado_1067296" data-name="Trazado 1067296" d="M1890.362,313.441h-19.654a1.03,1.03,0,1,1,0-2.059h19.654a1.03,1.03,0,1,1,0,2.059" transform="translate(-1537.992 -256.141)" fill="#fff"/>
            <path id="Trazado_1067297" data-name="Trazado 1067297" d="M1662.144,361.662H1632.41a1.03,1.03,0,1,1,0-2.059h29.734a1.03,1.03,0,1,1,0,2.059" transform="translate(-1341.969 -295.808)" fill="#fff"/>
            <path id="Trazado_1067298" data-name="Trazado 1067298" d="M1848.628,361.662H1833.76a1.03,1.03,0,1,1,0-2.059h14.867a1.03,1.03,0,1,1,0,2.059" transform="translate(-1507.6 -295.808)" fill="#fff"/>
            <path id="Trazado_1067299" data-name="Trazado 1067299" d="M1648.211,409.882h-15.8a1.03,1.03,0,1,1,0-2.059h15.8a1.03,1.03,0,1,1,0,2.059" transform="translate(-1341.969 -335.473)" fill="#fff"/>
            <path id="Trazado_1067300" data-name="Trazado 1067300" d="M1798.38,409.882h-39.492a1.03,1.03,0,1,1,0-2.059h39.492a1.03,1.03,0,1,1,0,2.059" transform="translate(-1446.01 -335.473)" fill="#fff"/>
            <path id="Trazado_1067301" data-name="Trazado 1067301" d="M1700.3,458.1h-21.506a1.03,1.03,0,1,1,0-2.059H1700.3a1.03,1.03,0,1,1,0,2.059" transform="translate(-1380.123 -375.138)" fill="#fff"/>
            <path id="Trazado_1067302" data-name="Trazado 1067302" d="M1848.628,458.1H1833.76a1.03,1.03,0,0,1,0-2.059h14.867a1.03,1.03,0,1,1,0,2.059" transform="translate(-1507.6 -375.138)" fill="#fff"/>
            <path id="Rectángulo_424804" data-name="Rectángulo 424804" d="M9.7,0H59a9.7,9.7,0,0,1,9.7,9.7V37.684a9.7,9.7,0,0,1-9.7,9.7H9.7a9.7,9.7,0,0,1-9.7-9.7V9.7A9.7,9.7,0,0,1,9.7,0Z" transform="translate(107.826 16.705)" fill="#7eccbf"/>
            <path id="Trazado_1067303" data-name="Trazado 1067303" d="M682.967,212.837l9.173,3.483V220.1l-13.014-5.8v-3l13.014-5.784v3.778Z" transform="translate(-558.648 -169.055)" fill="#fff"/>
            <path id="Trazado_1067304" data-name="Trazado 1067304" d="M767.985,199.07h-2.97l8.909-24.581h2.97Z" transform="translate(-629.3 -143.533)" fill="#fff"/>
            <path id="Trazado_1067305" data-name="Trazado 1067305" d="M856.657,212.759l-9.609-3.529v-3.716l13.433,5.784v3l-13.433,5.784v-3.716Z" transform="translate(-696.78 -169.054)" fill="#fff"/>
            <path id="Trazado_1067306" data-name="Trazado 1067306" d="M719.157,122.1a1.936,1.936,0,1,1-1.936-1.936,1.937,1.937,0,0,1,1.936,1.936" transform="translate(-588.391 -98.843)" fill="#fff"/>
            <path id="Trazado_1067307" data-name="Trazado 1067307" d="M682.774,122.1a1.936,1.936,0,1,1-1.936-1.936,1.936,1.936,0,0,1,1.936,1.936" transform="translate(-558.462 -98.843)" fill="#fff"/>
            <path id="Trazado_1067308" data-name="Trazado 1067308" d="M646.391,122.1a1.936,1.936,0,1,1-1.937-1.936,1.936,1.936,0,0,1,1.937,1.936" transform="translate(-528.534 -98.843)" fill="#fff"/>
          </g>
        </g>
      </g>
    </g>
  </g>
</svg>
