<svg xmlns="http://www.w3.org/2000/svg" xmlns:xlink="http://www.w3.org/1999/xlink" width="220.793" height="210.9" viewBox="0 0 220.793 210.9">
  <defs>
    <linearGradient id="linear-gradient" x1="0.5" x2="0.5" y2="1" gradientUnits="objectBoundingBox">
      <stop offset="0" stop-color="#903cdf"/>
      <stop offset="1" stop-color="#481e70"/>
    </linearGradient>
    <clipPath id="clip-path">
      <rect id="Rectángulo_425071" data-name="Rectángulo 425071" width="209.923" height="210.9" fill="none"/>
    </clipPath>
    <clipPath id="clip-path-3">
      <rect id="Rectángulo_425026" data-name="Rectángulo 425026" width="49.699" height="4.082" fill="none"/>
    </clipPath>
  </defs>
  <g id="Grupo_1230465" data-name="Grupo 1230465" transform="translate(-686.207 -1342.881)">
    <g id="Grupo_1229579" data-name="Grupo 1229579" transform="translate(0 -70)">
      <rect id="Rectángulo_423505" data-name="Rectángulo 423505" width="214" height="56" rx="9" transform="translate(693 1494)" fill="url(#linear-gradient)"/>
    </g>
    <g id="Grupo_1230464" data-name="Grupo 1230464" transform="translate(686.207 1342.881)">
      <g id="Grupo_1230463" data-name="Grupo 1230463" clip-path="url(#clip-path)">
        <g id="Grupo_1230462" data-name="Grupo 1230462">
          <g id="Grupo_1230461" data-name="Grupo 1230461" clip-path="url(#clip-path)">
            <path id="Trazado_1067755" data-name="Trazado 1067755" d="M196.728,266.451c0,1.658-40.659,3-90.813,3s-90.814-1.345-90.814-3,40.659-3,90.814-3,90.813,1.345,90.813,3" transform="translate(-3.356 -58.554)" fill="#450e23"/>
            <path id="Trazado_1067756" data-name="Trazado 1067756" d="M99.5,96.692a.871.871,0,0,1-.281-1.2L101.2,92.3a.869.869,0,0,1,1.477.915l-1.979,3.193a.871.871,0,0,1-1.2.281" transform="translate(-22.023 -20.424)" fill="#ffcda3"/>
            <path id="Trazado_1067757" data-name="Trazado 1067757" d="M24.862,46.845a8.019,8.019,0,0,0,2.057-3.674c.78-2.58-.086-4.642.5-6.792a9.259,9.259,0,0,1,5.863-5.849,14.922,14.922,0,0,1,1.85-.549,5.92,5.92,0,0,1,.877-.69.361.361,0,0,1,.028-.031,8.04,8.04,0,0,1,6.47-1.723,8.154,8.154,0,0,1,5.51,3.862,8.836,8.836,0,0,0,1.458,2.236c1.513,1.364,4.285.964,5.276,2.759.562,1.02.263,2.36.82,3.384.662,1.216,2.284,1.209,3.575,1.655,2.835.982,2.667,3.566,2,5.118a13.414,13.414,0,0,0-.538,4.226,9.539,9.539,0,0,0,.613,3.186c.692,1.609,2.1,2.754,3.257,4.055s2.139,3.053,1.678,4.745c-.824,3.028-5.227,3.271-6.938,5.884-.917,1.4-.88,3.2-1.149,4.862-1.113,6.85-8.784,11.725-15.328,9.8-5.515-1.622-9.17-7.7-8.725-13.456a11.986,11.986,0,0,1-4.459-7.345c-.27-1.66-.233-3.462-1.149-4.861-1.712-2.612-4.4-3.031-5.222-6.058-.461-1.692.52-3.444,1.678-4.745" transform="translate(-5.127 -6.094)" fill="#471c0c"/>
            <path id="Trazado_1067758" data-name="Trazado 1067758" d="M53.683,122.251c0,.023-.009.044-.014.066,0,0,.009-.042.016-.08l0,.014" transform="translate(-11.928 -27.168)" fill="#78524d"/>
            <path id="Trazado_1067759" data-name="Trazado 1067759" d="M56.315,102.189,62.8,95.821a43.772,43.772,0,0,0,8.23,6.654,3.2,3.2,0,0,0,2.71.3,119.025,119.025,0,0,0,15.7-6.9,2.666,2.666,0,0,1,3.332.669l.12.146c1.075,1.315,2.7,1.772,1.211,2.588-7.809,4.285-21.008,12.078-22.771,11.651-3.465-.6-5.635-.739-15.015-8.738" transform="translate(-12.517 -21.238)" fill="#ffcda3"/>
            <path id="Trazado_1067760" data-name="Trazado 1067760" d="M50.229,81c-3.864-4.766-11.458,2.283-7.573,7.077A81.4,81.4,0,0,0,53.04,98.6l6.485-6.368A120.353,120.353,0,0,1,50.229,81" transform="translate(-9.242 -17.65)" fill="#af4ea6"/>
            <path id="Trazado_1067761" data-name="Trazado 1067761" d="M51.616,43.872c0,6.913-5.076,12.516-11.337,12.516s-11.338-5.6-11.338-12.516,5.076-12.516,11.338-12.516,11.337,5.6,11.337,12.516" transform="translate(-6.432 -6.969)" fill="#471c0c"/>
            <path id="Trazado_1067762" data-name="Trazado 1067762" d="M50.614,80.066S46.8,77.415,45.143,77.1c0,0,.111,3.575,0,3.84s1.807.738,1.807.738Z" transform="translate(-10.032 -17.136)" fill="#af4ea6"/>
            <path id="Trazado_1067763" data-name="Trazado 1067763" d="M38.943,257.77c.023-.079.148-.173.329-.271a6.99,6.99,0,0,0,9.8,1.982l2.825,1c2.532.9,1.568,3.42-1.293,3.384l-10.888-.135c-.522-.006-.914-.323-.817-.66Z" transform="translate(-8.642 -57.232)" fill="#2b2222"/>
            <path id="Trazado_1067764" data-name="Trazado 1067764" d="M39.385,257.317a5.331,5.331,0,0,1,2.5-.609l7.3,2.591a6.99,6.99,0,0,1-9.8-1.982" transform="translate(-8.754 -57.05)" fill="#fcc195"/>
            <path id="Trazado_1067765" data-name="Trazado 1067765" d="M54.853,151.087a3.8,3.8,0,0,1,.221-.559c-.077.185-.147.373-.221.559,2.121-3.583,1.727-7.663-1.656-9.634-2.724-1.587-6.994-.78-8.456,2.208-5.8,11.863-7.254,25.772-8.563,38.726q-.317,3.146-.576,6.3l11.94.405c.181-1.711,3.6-28.672,7.311-38" transform="translate(-7.913 -31.262)" fill="#267067"/>
            <path id="Trazado_1067766" data-name="Trazado 1067766" d="M60.352,153.908c.074-.186.144-.374.221-.559a3.8,3.8,0,0,0-.221.559" transform="translate(-13.413 -34.083)" fill="#3f2f2f"/>
            <path id="Trazado_1067767" data-name="Trazado 1067767" d="M35.19,202.411c-1.159,13.964-1.517,28-1.431,42,.05,7.932,7.879,9.138,7.83,1.215-.086-13.862,2.616-28.447,5.541-42.815Z" transform="translate(-7.5 -44.988)" fill="#fcc195"/>
            <path id="Trazado_1067768" data-name="Trazado 1067768" d="M29.8,256.868a6.5,6.5,0,0,1,2.794-.61l10.073,3.272c-3.9,3.362-11.045,2.373-12.868-2.662" transform="translate(-6.623 -56.95)" fill="#ffcda3"/>
            <path id="Trazado_1067769" data-name="Trazado 1067769" d="M40.9,150c.008-.1.022-.2.026-.3l.1-3.186c.266-8.283-13.037-7.535-13.308.667q-.054,1.594-.106,3.186c-.006.177,0,.344.009.513-.287,12.294-.073,24.942.233,37.6l10.664.374c.891-13.115,1.88-26.232,2.377-38.847" transform="translate(-6.111 -31.262)" fill="#267067"/>
            <path id="Trazado_1067770" data-name="Trazado 1067770" d="M27.966,202.143c.342,14.176.8,28.358.8,42.059,0,6.464,6.122,7.074,6.122.973,0-13.474,2.382-28,3.744-42.657Z" transform="translate(-6.216 -44.928)" fill="#ffcda3"/>
            <path id="Trazado_1067771" data-name="Trazado 1067771" d="M27.287,150.149c-.584-7.406,12.018-7.26,12.6.094H27.294c0-.031,0-.063-.007-.094" transform="translate(-6.061 -32.152)" fill="#ffb288"/>
            <path id="Trazado_1067772" data-name="Trazado 1067772" d="M46.877,150.108c-.421-7.339,12.468-6.988,13.148.156H46.884c0-.052,0-.1-.007-.156" transform="translate(-10.417 -32.173)" fill="#ffb288"/>
            <path id="Trazado_1067773" data-name="Trazado 1067773" d="M48.174,152.078a9.4,9.4,0,0,1,.866-.493c.016.162.024.327.026.493Z" transform="translate(-10.707 -33.691)" fill="#ffb288"/>
            <path id="Trazado_1067774" data-name="Trazado 1067774" d="M52.525,90.443c.556,1.23,1.05,2.367,1.467,3.267a83,83,0,0,1,7.592,32.6,54.276,54.276,0,0,1-.132,5.67,53.071,53.071,0,0,1,.373,5.827,1.841,1.841,0,0,1-2.982,1.449l-1-.772a141.544,141.544,0,0,0-5.322-48.046" transform="translate(-11.674 -20.102)" fill="#af4ea6"/>
            <path id="Trazado_1067775" data-name="Trazado 1067775" d="M36.053,135.653h-7.77c-.17.474-.334.948-.5,1.422a28.18,28.18,0,0,1,.275-11.757c1.328-6.186,3.651-12.361,2.835-18.7-.638-4.958-3.131-9.362-4.522-14.131s-1.337-10.793,2.13-13.8a6.877,6.877,0,0,1,1.619-1.007,77.354,77.354,0,0,1,5.929,57.97" transform="translate(-5.673 -17.266)" fill="#af4ea6"/>
            <path id="Trazado_1067776" data-name="Trazado 1067776" d="M35.737,146.4A15.845,15.845,0,0,1,27.69,149.1a3.509,3.509,0,0,1-3.427-4.512l5.853-18.571Z" transform="translate(-5.357 -28.01)" fill="#af4ea6"/>
            <path id="Trazado_1067777" data-name="Trazado 1067777" d="M20.825,142.3l3.253-4.281a.79.79,0,0,1,1.085-.157l.372.268a.747.747,0,0,1,.161,1.059l-.045.059a3.031,3.031,0,0,1,.517-.275.472.472,0,0,1,.359-.171H31.8a.47.47,0,0,1,.474.463v.275a.469.469,0,0,1-.474.463H28.373a4.14,4.14,0,0,1,.152.425H32.3a.47.47,0,0,1,.474.463v.275a.47.47,0,0,1-.474.463H28.77c.031.2.052.4.072.606h2.766a.469.469,0,0,1,.474.462v.276a.469.469,0,0,1-.474.462H28.9c0,.067-.007.134-.016.2h1.475a.47.47,0,0,1,.474.463v.275a.47.47,0,0,1-.474.462H28.116c-.1.074-.2.143-.306.208a5.508,5.508,0,0,1-2.8.861,4.23,4.23,0,0,1-1.252-.151,2.392,2.392,0,0,1-.424-.176l-.032-.019a12.238,12.238,0,0,1-1.078-.685,3.48,3.48,0,0,1-1.2-1.231,2.173,2.173,0,0,1-.166-.426.734.734,0,0,1-.03-.916" transform="translate(-4.596 -30.609)" fill="#ffcda3"/>
            <path id="Trazado_1067778" data-name="Trazado 1067778" d="M7.892,99.757l7.434,5.228a43.8,43.8,0,0,0-5.058,9.3,3.2,3.2,0,0,0,.191,2.72,119.086,119.086,0,0,0,9.625,14.2,2.666,2.666,0,0,1-.056,3.4l-.122.144a2.754,2.754,0,0,1-4.212-.04C10.068,127.79,1.907,117.914,2.008,116.1c-.035-3.516-.291-5.677,5.884-16.346" transform="translate(-0.444 -22.172)" fill="#ffcda3"/>
            <path id="Trazado_1067779" data-name="Trazado 1067779" d="M26.385,89.875c3.991-4.66-4.314-10.858-8.327-6.171A81.337,81.337,0,0,0,9.577,95.817l7.434,5.229a120.441,120.441,0,0,1,9.375-11.171" transform="translate(-2.129 -18.233)" fill="#af4ea6"/>
            <path id="Trazado_1067780" data-name="Trazado 1067780" d="M53.706,96.5a24.749,24.749,0,0,0-2.666-4.841c-1.272-1.951-2.474-4.583-4.1-6.3-1.612-3.37-3.613-6.909-5.792-8.159-2.414-1.384-6.825-1.163-9.71.166a77.361,77.361,0,0,1,5.927,57.97c6.852,6.444,15.794,0,15.794,0a150.582,150.582,0,0,0-1.342-30.1,9.472,9.472,0,0,0,2.17-3.336,8.184,8.184,0,0,0-.282-5.4" transform="translate(-6.988 -16.95)" fill="#fff"/>
            <path id="Trazado_1067781" data-name="Trazado 1067781" d="M37.17,80.374a6.822,6.822,0,0,0,2.176.863,3.188,3.188,0,0,0,2.413-.311,2.825,2.825,0,0,0,1.2-2.561,1.5,1.5,0,0,0-.576-1.14,1.275,1.275,0,0,0-.711-.119c-1.709.053-3.869-1.062-5.559-.711-.457.095-.852,1.5-.564,2.32a3.638,3.638,0,0,0,1.622,1.659" transform="translate(-7.879 -16.964)" fill="#ffcda3"/>
            <path id="Trazado_1067782" data-name="Trazado 1067782" d="M29.147,77.684s-6.2,2.447-8.024,4.547l6.529,2.87Z" transform="translate(-4.695 -17.266)" fill="#af4ea6"/>
            <path id="Trazado_1067783" data-name="Trazado 1067783" d="M35.585,66.61l7.472.042-.133,8.969c-.357.624-6.255-.039-7.446-.424Z" transform="translate(-7.885 -14.805)" fill="#ffcda3"/>
            <path id="Trazado_1067784" data-name="Trazado 1067784" d="M42.278,58.4l-.044-1.044-6.579-.037-.039,7.224,6.629.038Z" transform="translate(-7.916 -12.74)" fill="#ffa780"/>
            <path id="Trazado_1067785" data-name="Trazado 1067785" d="M42.248,64.955a4.063,4.063,0,0,0-3.42-1.543,4.3,4.3,0,0,0-3.207,1.211l-.014,2.553A4.309,4.309,0,0,0,38.8,68.423c1.538.009,3.683-.552,4.256-1.447Z" transform="translate(-7.914 -14.094)" fill="#ffa780"/>
            <path id="Trazado_1067786" data-name="Trazado 1067786" d="M45.676,37.672l-3.636-.021a6.564,6.564,0,0,0-6.5,6.629l0,.283c0,.2.3,7.721.3,7.926-.021,3.918,4.348,8.344,8.417,8.366,3.959.022,7.609-6.665,7.54-8.624l.307-7.574,0-.283a6.57,6.57,0,0,0-6.429-6.7" transform="translate(-7.899 -8.368)" fill="#ffcda3"/>
            <path id="Trazado_1067787" data-name="Trazado 1067787" d="M32.7,51.1s-.151,3.13,2.155,2.962l0-.763.011-2.124,0-.826c-.09-.066-1.695-1.211-2.175.751" transform="translate(-7.267 -11.103)" fill="#ffa780"/>
            <path id="Trazado_1067788" data-name="Trazado 1067788" d="M41.415,46.9a.814.814,0,0,1,.4-.5,3.977,3.977,0,0,1,3.891.019.822.822,0,0,1,.4.506.65.65,0,0,0,.019-.24.765.765,0,0,0-.415-.81,3.975,3.975,0,0,0-3.891-.019.76.76,0,0,0-.422.8.632.632,0,0,0,.018.24" transform="translate(-9.198 -10.081)" fill="#714943"/>
            <path id="Trazado_1067789" data-name="Trazado 1067789" d="M51.1,46.952a.811.811,0,0,1,.4-.5,3.976,3.976,0,0,1,3.89.019.821.821,0,0,1,.4.506.668.668,0,0,0,.02-.24.765.765,0,0,0-.416-.81,3.972,3.972,0,0,0-3.889-.019.76.76,0,0,0-.423.8.6.6,0,0,0,.018.24" transform="translate(-11.351 -10.093)" fill="#471c0c"/>
            <path id="Trazado_1067790" data-name="Trazado 1067790" d="M50.64,55.351a.437.437,0,0,1-.334.532.457.457,0,0,1-.551-.322l-1.14-4.478a.437.437,0,0,1,.334-.532.457.457,0,0,1,.551.322Z" transform="translate(-10.802 -11.232)" fill="#ffa780"/>
            <path id="Trazado_1067791" data-name="Trazado 1067791" d="M50.367,56.961a.345.345,0,0,1-.33.359l-2.4-.014a.362.362,0,0,1,0-.72l2.4.013a.345.345,0,0,1,.326.362" transform="translate(-10.516 -12.577)" fill="#ffa780"/>
            <path id="Trazado_1067792" data-name="Trazado 1067792" d="M42.537,49.574s.231.321,1.366.151l-.711.44s-.436.044-.656-.591" transform="translate(-9.454 -11.018)" fill="#471c0c"/>
            <path id="Trazado_1067793" data-name="Trazado 1067793" d="M55.48,49.649s-.234.319-1.368.135l.707.448s.435.05.661-.583" transform="translate(-12.027 -11.035)" fill="#471c0c"/>
            <path id="Trazado_1067794" data-name="Trazado 1067794" d="M44.781,50.748a.866.866,0,1,1-.83-1.085.981.981,0,0,1,.83,1.085" transform="translate(-9.58 -11.038)" fill="#471c0c"/>
            <path id="Trazado_1067795" data-name="Trazado 1067795" d="M54.758,50.839a.866.866,0,1,1-.83-1.085.981.981,0,0,1,.83,1.085" transform="translate(-11.797 -11.058)" fill="#471c0c"/>
            <path id="Trazado_1067796" data-name="Trazado 1067796" d="M43.435,59.433c.11.779,1.142,1.4,2.42,1.411s2.322-.589,2.446-1.365Z" transform="translate(-9.654 -13.21)" fill="#fff"/>
            <path id="Trazado_1067797" data-name="Trazado 1067797" d="M51.768,40.035s-9.033,8.653-17.6,5.378c0,0,2.9-17.386,17.6-5.378" transform="translate(-7.594 -7.958)" fill="#471c0c"/>
            <path id="Trazado_1067798" data-name="Trazado 1067798" d="M37.872,47.186s1.921,3.753-2.9,9.447l-.724-8.815Z" transform="translate(-7.613 -10.488)" fill="#471c0c"/>
            <path id="Trazado_1067799" data-name="Trazado 1067799" d="M35.138,75.965c.831.5,1.764.995,2.595,1.492a7.8,7.8,0,0,1,2.1,1.618,4.039,4.039,0,0,1,.961,2.815,8.168,8.168,0,0,1-2.268-.264,8.533,8.533,0,0,1-2.2-.947c-.495-.3-1.59-.842-1.687-1.561a7.7,7.7,0,0,1,.5-3.152" transform="translate(-7.693 -16.884)" fill="#af4ea6"/>
            <path id="Trazado_1067800" data-name="Trazado 1067800" d="M43.058,79.859a3.565,3.565,0,0,0,1.53-2.8,2.759,2.759,0,0,1,.737,1.5,3,3,0,0,1-.847,2.63,12.393,12.393,0,0,1-1.839.9,4.329,4.329,0,0,1,.4-2.2c.006-.01.014-.019.021-.03" transform="translate(-9.477 -17.127)" fill="#af4ea6"/>
            <path id="Trazado_1067801" data-name="Trazado 1067801" d="M28.593,262.877l.054-5.521c.028-.088.194-.2.435-.3,1.874,5.034,9.219,6.024,13.227,2.661l1.5.474c2.963.936,1.836,3.56-1.513,3.522l-12.744-.144c-.611-.007-1.069-.337-.957-.688" transform="translate(-6.351 -57.133)" fill="#333"/>
            <path id="Trazado_1067802" data-name="Trazado 1067802" d="M106.716,98.654a3.18,3.18,0,0,0,1.5-1.343,4.078,4.078,0,0,0,.328-1.856.457.457,0,0,0-.068-.292.4.4,0,0,0-.356-.1c-.706.075-1.263.663-1.96.8a5.754,5.754,0,0,1-.963.036,3.715,3.715,0,0,0-3.005,1.769c-.091.148-.4.583-.345.754.065.19.625.344.793.406a5.3,5.3,0,0,0,1.9.327,5.175,5.175,0,0,0,2.173-.5" transform="translate(-22.635 -21.128)" fill="#ffcda3"/>
            <path id="Trazado_1067803" data-name="Trazado 1067803" d="M110.622,88.528,97.368,90.712a2.159,2.159,0,0,1-2.458-2.6l4.777-21.355a2.159,2.159,0,0,1,1.756-1.659L114.7,62.913a2.159,2.159,0,0,1,2.458,2.6l-4.777,21.355a2.159,2.159,0,0,1-1.756,1.659" transform="translate(-21.083 -13.976)" fill="#634892"/>
            <path id="Trazado_1067804" data-name="Trazado 1067804" d="M106.459,93.813a.572.572,0,0,0-.037.806l1.513,1.66a.57.57,0,1,0,.842-.768l-1.512-1.66a.573.573,0,0,0-.806-.037" transform="translate(-23.62 -20.818)" fill="#ffcda3"/>
            <path id="Trazado_1067805" data-name="Trazado 1067805" d="M104.868,94.622a.571.571,0,0,0-.038.806l1.512,1.66a.57.57,0,1,0,.843-.768l-1.512-1.66a.572.572,0,0,0-.8-.037" transform="translate(-23.267 -20.998)" fill="#ffcda3"/>
            <path id="Trazado_1067806" data-name="Trazado 1067806" d="M103.731,95.875a.572.572,0,0,0-.037.806l1.07,1.175a.57.57,0,1,0,.843-.768l-1.07-1.175a.573.573,0,0,0-.806-.037" transform="translate(-23.014 -21.276)" fill="#ffcda3"/>
            <path id="Trazado_1067807" data-name="Trazado 1067807" d="M109.772,92.82a.571.571,0,0,0-.037.8L110.8,94.8a.57.57,0,1,0,.843-.768l-1.07-1.175a.572.572,0,0,0-.806-.037" transform="translate(-24.357 -20.597)" fill="#ffcda3"/>
            <path id="Trazado_1067808" data-name="Trazado 1067808" d="M109.352,96.149a.631.631,0,0,1,.123-.88l1.251-.943a.628.628,0,1,1,.756,1l-1.251.943a.629.629,0,0,1-.88-.123" transform="translate(-24.277 -20.937)" fill="#ffcda3"/>
            <rect id="Rectángulo_424917" data-name="Rectángulo 424917" width="98.463" height="190.017" transform="translate(107.292 3.278)" fill="#4c4c4c"/>
            <rect id="Rectángulo_424918" data-name="Rectángulo 424918" width="105.5" height="11.075" transform="translate(104.24 2.112)" fill="#191919"/>
            <rect id="Rectángulo_424919" data-name="Rectángulo 424919" width="105.5" height="7.689" transform="translate(104.281 196.761)" fill="#333"/>
            <path id="Trazado_1067809" data-name="Trazado 1067809" d="M134.081,252h105.5l-4.026-3.466H137.093Z" transform="translate(-29.801 -55.24)" fill="#191919"/>
            <rect id="Rectángulo_424920" data-name="Rectángulo 424920" width="1.624" height="2.095" transform="translate(123.972 3.934)" fill="#4c4c4c"/>
            <rect id="Rectángulo_424921" data-name="Rectángulo 424921" width="1.624" height="5.798" transform="translate(123.973 6.029)" fill="#333"/>
            <rect id="Rectángulo_424922" data-name="Rectángulo 424922" width="1.506" height="2.091" transform="translate(121.485 3.934)" fill="#4c4c4c"/>
            <rect id="Rectángulo_424923" data-name="Rectángulo 424923" width="1.506" height="5.802" transform="translate(121.485 6.025)" fill="#333"/>
            <rect id="Rectángulo_424924" data-name="Rectángulo 424924" width="1.389" height="2.088" transform="translate(118.997 3.934)" fill="#4c4c4c"/>
            <rect id="Rectángulo_424925" data-name="Rectángulo 424925" width="1.389" height="5.804" transform="translate(118.997 6.022)" fill="#333"/>
            <rect id="Rectángulo_424926" data-name="Rectángulo 424926" width="1.272" height="2.084" transform="translate(116.509 3.934)" fill="#4c4c4c"/>
            <rect id="Rectángulo_424927" data-name="Rectángulo 424927" width="1.272" height="5.808" transform="translate(116.509 6.019)" fill="#333"/>
            <rect id="Rectángulo_424928" data-name="Rectángulo 424928" width="1.154" height="2.081" transform="translate(114.021 3.934)" fill="#4c4c4c"/>
            <rect id="Rectángulo_424929" data-name="Rectángulo 424929" width="1.154" height="5.811" transform="translate(114.021 6.015)" fill="#333"/>
            <rect id="Rectángulo_424930" data-name="Rectángulo 424930" width="1.038" height="2.077" transform="translate(111.533 3.934)" fill="#4c4c4c"/>
            <rect id="Rectángulo_424931" data-name="Rectángulo 424931" width="1.038" height="5.815" transform="translate(111.533 6.011)" fill="#333"/>
            <rect id="Rectángulo_424932" data-name="Rectángulo 424932" width="0.919" height="2.074" transform="translate(109.045 3.934)" fill="#4c4c4c"/>
            <rect id="Rectángulo_424933" data-name="Rectángulo 424933" width="0.919" height="5.819" transform="translate(109.045 6.008)" fill="#333"/>
            <rect id="Rectángulo_424934" data-name="Rectángulo 424934" width="1.624" height="2.095" transform="translate(190.45 3.494)" fill="#4c4c4c"/>
            <rect id="Rectángulo_424935" data-name="Rectángulo 424935" width="1.624" height="5.798" transform="translate(190.45 5.588)" fill="#333"/>
            <rect id="Rectángulo_424936" data-name="Rectángulo 424936" width="1.506" height="2.091" transform="translate(193.055 3.494)" fill="#4c4c4c"/>
            <rect id="Rectángulo_424937" data-name="Rectángulo 424937" width="1.506" height="5.802" transform="translate(193.055 5.585)" fill="#333"/>
            <rect id="Rectángulo_424938" data-name="Rectángulo 424938" width="1.389" height="2.088" transform="translate(195.661 3.494)" fill="#4c4c4c"/>
            <rect id="Rectángulo_424939" data-name="Rectángulo 424939" width="1.389" height="5.804" transform="translate(195.66 5.581)" fill="#333"/>
            <rect id="Rectángulo_424940" data-name="Rectángulo 424940" width="1.272" height="2.084" transform="translate(198.266 3.494)" fill="#4c4c4c"/>
            <rect id="Rectángulo_424941" data-name="Rectángulo 424941" width="1.272" height="5.808" transform="translate(198.266 5.578)" fill="#333"/>
            <rect id="Rectángulo_424942" data-name="Rectángulo 424942" width="1.154" height="2.08" transform="translate(200.871 3.494)" fill="#4c4c4c"/>
            <rect id="Rectángulo_424943" data-name="Rectángulo 424943" width="1.154" height="5.811" transform="translate(200.871 5.574)" fill="#333"/>
            <rect id="Rectángulo_424944" data-name="Rectángulo 424944" width="1.037" height="2.077" transform="translate(203.476 3.494)" fill="#4c4c4c"/>
            <rect id="Rectángulo_424945" data-name="Rectángulo 424945" width="1.037" height="5.815" transform="translate(203.476 5.571)" fill="#333"/>
            <rect id="Rectángulo_424946" data-name="Rectángulo 424946" width="0.919" height="2.074" transform="translate(206.082 3.494)" fill="#4c4c4c"/>
            <rect id="Rectángulo_424947" data-name="Rectángulo 424947" width="0.919" height="5.818" transform="translate(206.082 5.568)" fill="#333"/>
            <rect id="Rectángulo_424948" data-name="Rectángulo 424948" width="105.5" height="17.476" transform="translate(104.422 18.925)" fill="#191919"/>
            <path id="Trazado_1067810" data-name="Trazado 1067810" d="M134.264,23.782h105.5l-4.014-1.833H137.316Z" transform="translate(-29.842 -4.878)" fill="#333"/>
            <path id="Trazado_1067811" data-name="Trazado 1067811" d="M137.316,48.636h98.463l3.985-1.832h-105.5Z" transform="translate(-29.842 -10.403)" fill="#333"/>
            <path id="Trazado_1067812" data-name="Trazado 1067812" d="M179.582,41.026h0a1.735,1.735,0,0,1-1.618,1.832h-4.852a1.846,1.846,0,0,1,0-3.663h4.852a1.735,1.735,0,0,1,1.618,1.832" transform="translate(-38.116 -8.711)" fill="#4c4c4c"/>
            <path id="Trazado_1067813" data-name="Trazado 1067813" d="M168.1,43.284h.713a.235.235,0,0,0,.219-.247v-.808a.234.234,0,0,0-.219-.247H168.1a.234.234,0,0,0-.219.247v.808a.235.235,0,0,0,.219.247" transform="translate(-37.313 -9.331)" fill="#b3eaef"/>
            <path id="Trazado_1067814" data-name="Trazado 1067814" d="M165.891,43.284h.713a.235.235,0,0,0,.219-.247v-.808a.234.234,0,0,0-.219-.247h-.713a.234.234,0,0,0-.219.247v.808a.235.235,0,0,0,.219.247" transform="translate(-36.822 -9.331)" fill="#4c4c4c"/>
            <path id="Trazado_1067815" data-name="Trazado 1067815" d="M163.681,43.284h.713a.235.235,0,0,0,.219-.247v-.808a.234.234,0,0,0-.219-.247h-.713a.234.234,0,0,0-.219.247v.808a.235.235,0,0,0,.219.247" transform="translate(-36.331 -9.331)" fill="#b3eaef"/>
            <path id="Trazado_1067816" data-name="Trazado 1067816" d="M161.471,43.284h.713a.235.235,0,0,0,.219-.247v-.808a.234.234,0,0,0-.219-.247h-.713a.234.234,0,0,0-.219.247v.808a.235.235,0,0,0,.219.247" transform="translate(-35.84 -9.331)" fill="#4c4c4c"/>
            <path id="Trazado_1067817" data-name="Trazado 1067817" d="M168.117,40.584h.713a.234.234,0,0,0,.219-.247v-.807a.234.234,0,0,0-.219-.247h-.713a.234.234,0,0,0-.218.247v.807a.234.234,0,0,0,.218.247" transform="translate(-37.317 -8.731)" fill="#4c4c4c"/>
            <path id="Trazado_1067818" data-name="Trazado 1067818" d="M165.916,40.584h.713a.234.234,0,0,0,.219-.247v-.807a.234.234,0,0,0-.219-.247h-.713a.234.234,0,0,0-.218.247v.807a.234.234,0,0,0,.218.247" transform="translate(-36.828 -8.731)" fill="#b3eaef"/>
            <path id="Trazado_1067819" data-name="Trazado 1067819" d="M163.715,40.584h.713a.234.234,0,0,0,.219-.247v-.807a.234.234,0,0,0-.219-.247h-.713a.234.234,0,0,0-.219.247v.807a.234.234,0,0,0,.219.247" transform="translate(-36.339 -8.731)" fill="#b3eaef"/>
            <path id="Trazado_1067820" data-name="Trazado 1067820" d="M161.514,40.584h.713a.234.234,0,0,0,.219-.247v-.807a.234.234,0,0,0-.219-.247h-.713a.234.234,0,0,0-.219.247v.807a.234.234,0,0,0,.219.247" transform="translate(-35.85 -8.731)" fill="#4c4c4c"/>
            <path id="Trazado_1067821" data-name="Trazado 1067821" d="M158.241,42.809h.956a.428.428,0,0,0,.4-.45V39.731a.428.428,0,0,0-.4-.45h-.956a.428.428,0,0,0-.4.45v2.627a.427.427,0,0,0,.4.45" transform="translate(-35.083 -8.731)" fill="#b3eaef"/>
            <path id="Trazado_1067822" data-name="Trazado 1067822" d="M149.241,42.775h5.151a.621.621,0,0,0,.579-.656V39.788a.622.622,0,0,0-.579-.657h-5.151a.623.623,0,0,0-.58.657v2.331a.622.622,0,0,0,.58.656" transform="translate(-33.042 -8.697)" fill="#86b8d3"/>
            <path id="Trazado_1067823" data-name="Trazado 1067823" d="M149.707,42.965h4.63a.441.441,0,0,0,.411-.465V40.448a.441.441,0,0,0-.411-.465h-4.63a.441.441,0,0,0-.411.465V42.5a.441.441,0,0,0,.411.465" transform="translate(-33.183 -8.887)" fill="#b3eaef"/>
            <path id="Trazado_1067824" data-name="Trazado 1067824" d="M141.148,35.793h93.3a1.815,1.815,0,0,0,0-3.63h-93.3a1.815,1.815,0,1,0,0,3.63" transform="translate(-30.968 -7.149)" fill="#b3eaef"/>
            <path id="Trazado_1067825" data-name="Trazado 1067825" d="M255.907,28.392h4.177a.665.665,0,0,0,0-1.32h-4.177a.665.665,0,0,0,0,1.32" transform="translate(-56.749 -6.017)" fill="#4c4c4c"/>
            <path id="Trazado_1067826" data-name="Trazado 1067826" d="M244.4,28.392h4.177a.665.665,0,0,0,0-1.32H244.4a.665.665,0,0,0,0,1.32" transform="translate(-54.191 -6.017)" fill="#4c4c4c"/>
            <path id="Trazado_1067827" data-name="Trazado 1067827" d="M232.894,28.392h4.177a.665.665,0,0,0,0-1.32h-4.177a.665.665,0,0,0,0,1.32" transform="translate(-51.634 -6.017)" fill="#4c4c4c"/>
            <path id="Trazado_1067828" data-name="Trazado 1067828" d="M221.386,28.392h4.177a.665.665,0,0,0,0-1.32h-4.177a.665.665,0,0,0,0,1.32" transform="translate(-49.076 -6.017)" fill="#4c4c4c"/>
            <path id="Trazado_1067829" data-name="Trazado 1067829" d="M209.879,28.392h4.177a.665.665,0,0,0,0-1.32h-4.177a.665.665,0,0,0,0,1.32" transform="translate(-46.518 -6.017)" fill="#4c4c4c"/>
            <path id="Trazado_1067830" data-name="Trazado 1067830" d="M198.373,28.392h4.177a.665.665,0,0,0,0-1.32h-4.177a.665.665,0,0,0,0,1.32" transform="translate(-43.961 -6.017)" fill="#4c4c4c"/>
            <path id="Trazado_1067831" data-name="Trazado 1067831" d="M186.866,28.392h4.177a.665.665,0,0,0,0-1.32h-4.177a.665.665,0,0,0,0,1.32" transform="translate(-41.403 -6.017)" fill="#4c4c4c"/>
            <path id="Trazado_1067832" data-name="Trazado 1067832" d="M175.358,28.392h4.177a.665.665,0,0,0,0-1.32h-4.177a.665.665,0,0,0,0,1.32" transform="translate(-38.846 -6.017)" fill="#4c4c4c"/>
            <path id="Trazado_1067833" data-name="Trazado 1067833" d="M163.851,28.392h4.177a.665.665,0,0,0,0-1.32h-4.177a.665.665,0,0,0,0,1.32" transform="translate(-36.288 -6.017)" fill="#4c4c4c"/>
            <path id="Trazado_1067834" data-name="Trazado 1067834" d="M152.344,28.392h4.177a.665.665,0,0,0,0-1.32h-4.177a.665.665,0,0,0,0,1.32" transform="translate(-33.73 -6.017)" fill="#4c4c4c"/>
            <path id="Trazado_1067835" data-name="Trazado 1067835" d="M140.837,28.392h4.177a.665.665,0,0,0,0-1.32h-4.177a.665.665,0,0,0,0,1.32" transform="translate(-31.173 -6.017)" fill="#4c4c4c"/>
            <rect id="Rectángulo_424949" data-name="Rectángulo 424949" width="105.5" height="17.476" transform="translate(104.422 44.018)" fill="#191919"/>
            <path id="Trazado_1067836" data-name="Trazado 1067836" d="M134.264,56.048h105.5l-4.014-1.832H137.316Z" transform="translate(-29.842 -12.05)" fill="#333"/>
            <path id="Trazado_1067837" data-name="Trazado 1067837" d="M137.316,80.9h98.463l3.985-1.832h-105.5Z" transform="translate(-29.842 -17.574)" fill="#333"/>
            <path id="Trazado_1067838" data-name="Trazado 1067838" d="M179.582,73.291h0a1.735,1.735,0,0,1-1.618,1.832h-4.852a1.846,1.846,0,0,1,0-3.663h4.852a1.735,1.735,0,0,1,1.618,1.832" transform="translate(-38.116 -15.883)" fill="#4c4c4c"/>
            <path id="Trazado_1067839" data-name="Trazado 1067839" d="M168.1,75.549h.713a.234.234,0,0,0,.219-.247v-.808a.234.234,0,0,0-.219-.247H168.1a.234.234,0,0,0-.219.247V75.3a.234.234,0,0,0,.219.247" transform="translate(-37.313 -16.502)" fill="#b3eaef"/>
            <path id="Trazado_1067840" data-name="Trazado 1067840" d="M165.891,75.549h.713a.234.234,0,0,0,.219-.247v-.808a.234.234,0,0,0-.219-.247h-.713a.234.234,0,0,0-.219.247V75.3a.234.234,0,0,0,.219.247" transform="translate(-36.822 -16.502)" fill="#4c4c4c"/>
            <path id="Trazado_1067841" data-name="Trazado 1067841" d="M163.681,75.549h.713a.234.234,0,0,0,.219-.247v-.808a.234.234,0,0,0-.219-.247h-.713a.234.234,0,0,0-.219.247V75.3a.234.234,0,0,0,.219.247" transform="translate(-36.331 -16.502)" fill="#b3eaef"/>
            <path id="Trazado_1067842" data-name="Trazado 1067842" d="M161.471,75.549h.713a.234.234,0,0,0,.219-.247v-.808a.234.234,0,0,0-.219-.247h-.713a.234.234,0,0,0-.219.247V75.3a.234.234,0,0,0,.219.247" transform="translate(-35.84 -16.502)" fill="#4c4c4c"/>
            <path id="Trazado_1067843" data-name="Trazado 1067843" d="M168.117,72.849h.713a.234.234,0,0,0,.219-.247v-.808a.234.234,0,0,0-.219-.247h-.713a.233.233,0,0,0-.218.247V72.6a.234.234,0,0,0,.218.247" transform="translate(-37.317 -15.902)" fill="#4c4c4c"/>
            <path id="Trazado_1067844" data-name="Trazado 1067844" d="M165.916,72.849h.713a.234.234,0,0,0,.219-.247v-.808a.234.234,0,0,0-.219-.247h-.713a.233.233,0,0,0-.218.247V72.6a.234.234,0,0,0,.218.247" transform="translate(-36.828 -15.902)" fill="#b3eaef"/>
            <path id="Trazado_1067845" data-name="Trazado 1067845" d="M163.715,72.849h.713a.234.234,0,0,0,.219-.247v-.808a.234.234,0,0,0-.219-.247h-.713a.234.234,0,0,0-.219.247V72.6a.234.234,0,0,0,.219.247" transform="translate(-36.339 -15.902)" fill="#b3eaef"/>
            <path id="Trazado_1067846" data-name="Trazado 1067846" d="M161.514,72.849h.713a.234.234,0,0,0,.219-.247v-.808a.234.234,0,0,0-.219-.247h-.713a.234.234,0,0,0-.219.247V72.6a.234.234,0,0,0,.219.247" transform="translate(-35.85 -15.902)" fill="#4c4c4c"/>
            <path id="Trazado_1067847" data-name="Trazado 1067847" d="M158.241,75.075h.956a.429.429,0,0,0,.4-.451V72a.428.428,0,0,0-.4-.45h-.956a.428.428,0,0,0-.4.45v2.626a.428.428,0,0,0,.4.451" transform="translate(-35.083 -15.902)" fill="#b3eaef"/>
            <path id="Trazado_1067848" data-name="Trazado 1067848" d="M149.241,75.041h5.151a.622.622,0,0,0,.579-.657v-2.33a.622.622,0,0,0-.579-.657h-5.151a.622.622,0,0,0-.58.657v2.33a.622.622,0,0,0,.58.657" transform="translate(-33.042 -15.869)" fill="#86b8d3"/>
            <path id="Trazado_1067849" data-name="Trazado 1067849" d="M149.707,75.231h4.63a.441.441,0,0,0,.411-.465V72.714a.441.441,0,0,0-.411-.465h-4.63a.441.441,0,0,0-.411.465v2.052a.441.441,0,0,0,.411.465" transform="translate(-33.183 -16.058)" fill="#b3eaef"/>
            <path id="Trazado_1067850" data-name="Trazado 1067850" d="M140.937,68.059h93.728a1.829,1.829,0,0,0,0-3.63H140.937a1.829,1.829,0,0,0,0,3.63" transform="translate(-30.968 -14.32)" fill="#b3eaef"/>
            <path id="Trazado_1067851" data-name="Trazado 1067851" d="M255.907,60.657h4.177a.665.665,0,0,0,0-1.32h-4.177a.665.665,0,0,0,0,1.32" transform="translate(-56.749 -13.188)" fill="#4c4c4c"/>
            <path id="Trazado_1067852" data-name="Trazado 1067852" d="M244.4,60.657h4.177a.665.665,0,0,0,0-1.32H244.4a.665.665,0,0,0,0,1.32" transform="translate(-54.191 -13.188)" fill="#4c4c4c"/>
            <path id="Trazado_1067853" data-name="Trazado 1067853" d="M232.894,60.657h4.177a.665.665,0,0,0,0-1.32h-4.177a.665.665,0,0,0,0,1.32" transform="translate(-51.634 -13.188)" fill="#4c4c4c"/>
            <path id="Trazado_1067854" data-name="Trazado 1067854" d="M221.386,60.657h4.177a.665.665,0,0,0,0-1.32h-4.177a.665.665,0,0,0,0,1.32" transform="translate(-49.076 -13.188)" fill="#4c4c4c"/>
            <path id="Trazado_1067855" data-name="Trazado 1067855" d="M209.879,60.657h4.177a.665.665,0,0,0,0-1.32h-4.177a.665.665,0,0,0,0,1.32" transform="translate(-46.518 -13.188)" fill="#4c4c4c"/>
            <path id="Trazado_1067856" data-name="Trazado 1067856" d="M198.373,60.657h4.177a.665.665,0,0,0,0-1.32h-4.177a.665.665,0,0,0,0,1.32" transform="translate(-43.961 -13.188)" fill="#4c4c4c"/>
            <path id="Trazado_1067857" data-name="Trazado 1067857" d="M186.866,60.657h4.177a.665.665,0,0,0,0-1.32h-4.177a.665.665,0,0,0,0,1.32" transform="translate(-41.403 -13.188)" fill="#4c4c4c"/>
            <path id="Trazado_1067858" data-name="Trazado 1067858" d="M175.358,60.657h4.177a.665.665,0,0,0,0-1.32h-4.177a.665.665,0,0,0,0,1.32" transform="translate(-38.846 -13.188)" fill="#4c4c4c"/>
            <path id="Trazado_1067859" data-name="Trazado 1067859" d="M163.851,60.657h4.177a.665.665,0,0,0,0-1.32h-4.177a.665.665,0,0,0,0,1.32" transform="translate(-36.288 -13.188)" fill="#4c4c4c"/>
            <path id="Trazado_1067860" data-name="Trazado 1067860" d="M152.344,60.657h4.177a.665.665,0,0,0,0-1.32h-4.177a.665.665,0,0,0,0,1.32" transform="translate(-33.73 -13.188)" fill="#4c4c4c"/>
            <path id="Trazado_1067861" data-name="Trazado 1067861" d="M140.837,60.657h4.177a.665.665,0,0,0,0-1.32h-4.177a.665.665,0,0,0,0,1.32" transform="translate(-31.173 -13.188)" fill="#4c4c4c"/>
            <rect id="Rectángulo_424950" data-name="Rectángulo 424950" width="105.5" height="16.932" transform="translate(104.422 99.233)" fill="#191919"/>
            <path id="Trazado_1067862" data-name="Trazado 1067862" d="M239.764,127.058h-105.5l4.014-1.775h98.434Z" transform="translate(-29.842 -27.846)" fill="#333"/>
            <path id="Trazado_1067863" data-name="Trazado 1067863" d="M236.712,151.137H138.249l-3.985-1.776h105.5Z" transform="translate(-29.842 -33.197)" fill="#333"/>
            <path id="Trazado_1067864" data-name="Trazado 1067864" d="M222.285,143.765h0a1.7,1.7,0,0,0,1.618,1.775h4.852a1.782,1.782,0,0,0,0-3.55H223.9a1.7,1.7,0,0,0-1.618,1.775" transform="translate(-49.405 -31.559)" fill="#4c4c4c"/>
            <path id="Trazado_1067865" data-name="Trazado 1067865" d="M235.75,145.952h-.713a.23.23,0,0,1-.219-.24v-.782a.229.229,0,0,1,.219-.24h.713a.229.229,0,0,1,.219.24v.782a.23.23,0,0,1-.219.24" transform="translate(-52.191 -32.159)" fill="#b3eaef"/>
            <path id="Trazado_1067866" data-name="Trazado 1067866" d="M237.959,145.952h-.713a.23.23,0,0,1-.219-.24v-.782a.229.229,0,0,1,.219-.24h.713a.229.229,0,0,1,.219.24v.782a.23.23,0,0,1-.219.24" transform="translate(-52.682 -32.159)" fill="#4c4c4c"/>
            <path id="Trazado_1067867" data-name="Trazado 1067867" d="M240.168,145.952h-.713a.23.23,0,0,1-.219-.24v-.782a.229.229,0,0,1,.219-.24h.713a.229.229,0,0,1,.219.24v.782a.23.23,0,0,1-.219.24" transform="translate(-53.173 -32.159)" fill="#b3eaef"/>
            <path id="Trazado_1067868" data-name="Trazado 1067868" d="M242.378,145.952h-.713a.23.23,0,0,1-.219-.24v-.782a.229.229,0,0,1,.219-.24h.713a.229.229,0,0,1,.219.24v.782a.23.23,0,0,1-.219.24" transform="translate(-53.664 -32.159)" fill="#4c4c4c"/>
            <path id="Trazado_1067869" data-name="Trazado 1067869" d="M235.733,143.336h-.713a.23.23,0,0,1-.219-.24v-.782a.23.23,0,0,1,.219-.24h.713a.23.23,0,0,1,.219.24v.782a.23.23,0,0,1-.219.24" transform="translate(-52.187 -31.578)" fill="#4c4c4c"/>
            <path id="Trazado_1067870" data-name="Trazado 1067870" d="M237.934,143.336h-.713a.23.23,0,0,1-.219-.24v-.782a.23.23,0,0,1,.219-.24h.713a.229.229,0,0,1,.218.24v.782a.229.229,0,0,1-.218.24" transform="translate(-52.676 -31.578)" fill="#b3eaef"/>
            <path id="Trazado_1067871" data-name="Trazado 1067871" d="M240.134,143.336h-.713a.23.23,0,0,1-.219-.24v-.782a.23.23,0,0,1,.219-.24h.713a.229.229,0,0,1,.218.24v.782a.229.229,0,0,1-.218.24" transform="translate(-53.165 -31.578)" fill="#b3eaef"/>
            <path id="Trazado_1067872" data-name="Trazado 1067872" d="M242.335,143.336h-.713a.23.23,0,0,1-.219-.24v-.782a.23.23,0,0,1,.219-.24h.713a.23.23,0,0,1,.219.24v.782a.23.23,0,0,1-.219.24" transform="translate(-53.654 -31.578)" fill="#4c4c4c"/>
            <path id="Trazado_1067873" data-name="Trazado 1067873" d="M245.436,145.492h-.956a.42.42,0,0,1-.4-.436v-2.545a.421.421,0,0,1,.4-.437h.956a.421.421,0,0,1,.4.437v2.545a.42.42,0,0,1-.4.436" transform="translate(-54.25 -31.577)" fill="#b3eaef"/>
            <path id="Trazado_1067874" data-name="Trazado 1067874" d="M253.133,145.46h-5.151a.61.61,0,0,1-.58-.636v-2.258a.611.611,0,0,1,.58-.637h5.151a.611.611,0,0,1,.58.637v2.258a.61.61,0,0,1-.58.636" transform="translate(-54.988 -31.545)" fill="#86b8d3"/>
            <path id="Trazado_1067875" data-name="Trazado 1067875" d="M252.913,145.644h-4.629a.432.432,0,0,1-.411-.45v-1.988a.432.432,0,0,1,.411-.45h4.629a.432.432,0,0,1,.411.45v1.988a.432.432,0,0,1-.411.45" transform="translate(-55.092 -31.729)" fill="#b3eaef"/>
            <path id="Trazado_1067876" data-name="Trazado 1067876" d="M141.811,135.178a1.766,1.766,0,0,0,0,3.517h39.546l-.029-3.517Z" transform="translate(-31.163 -30.045)" fill="#b3eaef"/>
            <path id="Trazado_1067877" data-name="Trazado 1067877" d="M247.291,135.178H193.08l.028,3.517h54.183a1.766,1.766,0,0,0,0-3.517" transform="translate(-42.914 -30.045)" fill="#b3eaef"/>
            <path id="Trazado_1067878" data-name="Trazado 1067878" d="M146.744,131.523h-4.177a.642.642,0,0,1,0-1.279h4.177a.642.642,0,0,1,0,1.279" transform="translate(-31.557 -28.948)" fill="#4c4c4c"/>
            <path id="Trazado_1067879" data-name="Trazado 1067879" d="M158.251,131.523h-4.177a.642.642,0,0,1,0-1.279h4.177a.642.642,0,0,1,0,1.279" transform="translate(-34.115 -28.948)" fill="#4c4c4c"/>
            <path id="Trazado_1067880" data-name="Trazado 1067880" d="M169.758,131.523h-4.177a.642.642,0,0,1,0-1.279h4.177a.642.642,0,0,1,0,1.279" transform="translate(-36.673 -28.948)" fill="#4c4c4c"/>
            <path id="Trazado_1067881" data-name="Trazado 1067881" d="M181.265,131.523h-4.177a.642.642,0,0,1,0-1.279h4.177a.642.642,0,0,1,0,1.279" transform="translate(-39.23 -28.948)" fill="#4c4c4c"/>
            <path id="Trazado_1067882" data-name="Trazado 1067882" d="M192.772,131.523h-4.177a.642.642,0,0,1,0-1.279h4.177a.642.642,0,0,1,0,1.279" transform="translate(-41.788 -28.948)" fill="#4c4c4c"/>
            <path id="Trazado_1067883" data-name="Trazado 1067883" d="M204.279,131.523H200.1a.642.642,0,0,1,0-1.279h4.177a.642.642,0,0,1,0,1.279" transform="translate(-44.345 -28.948)" fill="#4c4c4c"/>
            <path id="Trazado_1067884" data-name="Trazado 1067884" d="M215.786,131.523h-4.177a.642.642,0,0,1,0-1.279h4.177a.642.642,0,0,1,0,1.279" transform="translate(-46.903 -28.948)" fill="#4c4c4c"/>
            <path id="Trazado_1067885" data-name="Trazado 1067885" d="M227.293,131.523h-4.177a.642.642,0,0,1,0-1.279h4.177a.642.642,0,0,1,0,1.279" transform="translate(-49.46 -28.948)" fill="#4c4c4c"/>
            <path id="Trazado_1067886" data-name="Trazado 1067886" d="M238.8,131.523h-4.177a.642.642,0,0,1,0-1.279H238.8a.642.642,0,0,1,0,1.279" transform="translate(-52.018 -28.948)" fill="#4c4c4c"/>
            <path id="Trazado_1067887" data-name="Trazado 1067887" d="M250.307,131.523h-4.177a.642.642,0,0,1,0-1.279h4.177a.642.642,0,0,1,0,1.279" transform="translate(-54.575 -28.948)" fill="#4c4c4c"/>
            <path id="Trazado_1067888" data-name="Trazado 1067888" d="M261.814,131.523h-4.177a.642.642,0,0,1,0-1.279h4.177a.642.642,0,0,1,0,1.279" transform="translate(-57.133 -28.948)" fill="#4c4c4c"/>
            <rect id="Rectángulo_424951" data-name="Rectángulo 424951" width="105.5" height="16.932" transform="translate(104.422 123.545)" fill="#191919"/>
            <path id="Trazado_1067889" data-name="Trazado 1067889" d="M134.264,158.319h105.5l-4.014-1.776H137.316Z" transform="translate(-29.842 -34.793)" fill="#333"/>
            <path id="Trazado_1067890" data-name="Trazado 1067890" d="M137.316,182.4h98.463l3.985-1.776h-105.5Z" transform="translate(-29.842 -40.145)" fill="#333"/>
            <path id="Trazado_1067891" data-name="Trazado 1067891" d="M179.582,175.026h0a1.7,1.7,0,0,1-1.618,1.775h-4.852a1.782,1.782,0,0,1,0-3.55h4.852a1.7,1.7,0,0,1,1.618,1.775" transform="translate(-38.116 -38.507)" fill="#4c4c4c"/>
            <path id="Trazado_1067892" data-name="Trazado 1067892" d="M168.1,177.214h.713a.23.23,0,0,0,.219-.24v-.782a.23.23,0,0,0-.219-.24H168.1a.23.23,0,0,0-.219.24v.782a.23.23,0,0,0,.219.24" transform="translate(-37.313 -39.107)" fill="#b3eaef"/>
            <path id="Trazado_1067893" data-name="Trazado 1067893" d="M165.891,177.214h.713a.23.23,0,0,0,.219-.24v-.782a.23.23,0,0,0-.219-.24h-.713a.23.23,0,0,0-.219.24v.782a.23.23,0,0,0,.219.24" transform="translate(-36.822 -39.107)" fill="#4c4c4c"/>
            <path id="Trazado_1067894" data-name="Trazado 1067894" d="M163.681,177.214h.713a.23.23,0,0,0,.219-.24v-.782a.23.23,0,0,0-.219-.24h-.713a.23.23,0,0,0-.219.24v.782a.23.23,0,0,0,.219.24" transform="translate(-36.331 -39.107)" fill="#b3eaef"/>
            <path id="Trazado_1067895" data-name="Trazado 1067895" d="M161.471,177.214h.713a.23.23,0,0,0,.219-.24v-.782a.23.23,0,0,0-.219-.24h-.713a.23.23,0,0,0-.219.24v.782a.23.23,0,0,0,.219.24" transform="translate(-35.84 -39.107)" fill="#4c4c4c"/>
            <path id="Trazado_1067896" data-name="Trazado 1067896" d="M168.117,174.6h.713a.23.23,0,0,0,.219-.24v-.782a.23.23,0,0,0-.219-.24h-.713a.229.229,0,0,0-.218.24v.782a.229.229,0,0,0,.218.24" transform="translate(-37.317 -38.526)" fill="#4c4c4c"/>
            <path id="Trazado_1067897" data-name="Trazado 1067897" d="M165.916,174.6h.713a.23.23,0,0,0,.219-.24v-.782a.23.23,0,0,0-.219-.24h-.713a.229.229,0,0,0-.218.24v.782a.229.229,0,0,0,.218.24" transform="translate(-36.828 -38.526)" fill="#b3eaef"/>
            <path id="Trazado_1067898" data-name="Trazado 1067898" d="M163.715,174.6h.713a.23.23,0,0,0,.219-.24v-.782a.23.23,0,0,0-.219-.24h-.713a.23.23,0,0,0-.219.24v.782a.23.23,0,0,0,.219.24" transform="translate(-36.339 -38.526)" fill="#b3eaef"/>
            <path id="Trazado_1067899" data-name="Trazado 1067899" d="M161.514,174.6h.713a.23.23,0,0,0,.219-.24v-.782a.23.23,0,0,0-.219-.24h-.713a.23.23,0,0,0-.219.24v.782a.23.23,0,0,0,.219.24" transform="translate(-35.85 -38.526)" fill="#4c4c4c"/>
            <path id="Trazado_1067900" data-name="Trazado 1067900" d="M158.241,176.753h.956a.42.42,0,0,0,.4-.436v-2.545a.421.421,0,0,0-.4-.437h-.956a.42.42,0,0,0-.4.437v2.545a.42.42,0,0,0,.4.436" transform="translate(-35.083 -38.526)" fill="#b3eaef"/>
            <path id="Trazado_1067901" data-name="Trazado 1067901" d="M149.241,176.721h5.151a.609.609,0,0,0,.579-.636v-2.258a.61.61,0,0,0-.579-.637h-5.151a.61.61,0,0,0-.58.637v2.258a.61.61,0,0,0,.58.636" transform="translate(-33.042 -38.493)" fill="#86b8d3"/>
            <path id="Trazado_1067902" data-name="Trazado 1067902" d="M149.707,176.9h4.63a.433.433,0,0,0,.411-.45v-1.988a.433.433,0,0,0-.411-.451h-4.63a.433.433,0,0,0-.411.451v1.988a.433.433,0,0,0,.411.45" transform="translate(-33.183 -38.677)" fill="#b3eaef"/>
            <path id="Trazado_1067903" data-name="Trazado 1067903" d="M140.937,169.956h93.728a1.766,1.766,0,0,0,0-3.517H140.937a1.766,1.766,0,0,0,0,3.517" transform="translate(-30.968 -36.993)" fill="#b3eaef"/>
            <path id="Trazado_1067904" data-name="Trazado 1067904" d="M255.907,162.785h4.177a.642.642,0,0,0,0-1.279h-4.177a.642.642,0,0,0,0,1.279" transform="translate(-56.749 -35.896)" fill="#4c4c4c"/>
            <path id="Trazado_1067905" data-name="Trazado 1067905" d="M244.4,162.785h4.177a.642.642,0,0,0,0-1.279H244.4a.642.642,0,0,0,0,1.279" transform="translate(-54.191 -35.896)" fill="#4c4c4c"/>
            <path id="Trazado_1067906" data-name="Trazado 1067906" d="M232.894,162.785h4.177a.642.642,0,0,0,0-1.279h-4.177a.642.642,0,0,0,0,1.279" transform="translate(-51.634 -35.896)" fill="#4c4c4c"/>
            <path id="Trazado_1067907" data-name="Trazado 1067907" d="M221.386,162.785h4.177a.642.642,0,0,0,0-1.279h-4.177a.642.642,0,0,0,0,1.279" transform="translate(-49.076 -35.896)" fill="#4c4c4c"/>
            <path id="Trazado_1067908" data-name="Trazado 1067908" d="M209.879,162.785h4.177a.642.642,0,0,0,0-1.279h-4.177a.642.642,0,0,0,0,1.279" transform="translate(-46.518 -35.896)" fill="#4c4c4c"/>
            <path id="Trazado_1067909" data-name="Trazado 1067909" d="M198.373,162.785h4.177a.642.642,0,0,0,0-1.279h-4.177a.642.642,0,0,0,0,1.279" transform="translate(-43.961 -35.896)" fill="#4c4c4c"/>
            <path id="Trazado_1067910" data-name="Trazado 1067910" d="M186.866,162.785h4.177a.642.642,0,0,0,0-1.279h-4.177a.642.642,0,0,0,0,1.279" transform="translate(-41.403 -35.896)" fill="#4c4c4c"/>
            <path id="Trazado_1067911" data-name="Trazado 1067911" d="M175.358,162.785h4.177a.642.642,0,0,0,0-1.279h-4.177a.642.642,0,0,0,0,1.279" transform="translate(-38.846 -35.896)" fill="#4c4c4c"/>
            <path id="Trazado_1067912" data-name="Trazado 1067912" d="M163.851,162.785h4.177a.642.642,0,0,0,0-1.279h-4.177a.642.642,0,0,0,0,1.279" transform="translate(-36.288 -35.896)" fill="#4c4c4c"/>
            <path id="Trazado_1067913" data-name="Trazado 1067913" d="M152.344,162.785h4.177a.642.642,0,0,0,0-1.279h-4.177a.642.642,0,0,0,0,1.279" transform="translate(-33.73 -35.896)" fill="#4c4c4c"/>
            <path id="Trazado_1067914" data-name="Trazado 1067914" d="M140.837,162.785h4.177a.642.642,0,0,0,0-1.279h-4.177a.642.642,0,0,0,0,1.279" transform="translate(-31.173 -35.896)" fill="#4c4c4c"/>
            <rect id="Rectángulo_424952" data-name="Rectángulo 424952" width="105.5" height="16.932" transform="translate(104.422 147.858)" fill="#191919"/>
            <path id="Trazado_1067915" data-name="Trazado 1067915" d="M134.264,189.58h105.5L235.75,187.8H137.316Z" transform="translate(-29.842 -41.741)" fill="#333"/>
            <path id="Trazado_1067916" data-name="Trazado 1067916" d="M137.316,213.659h98.463l3.985-1.776h-105.5Z" transform="translate(-29.842 -47.093)" fill="#333"/>
            <path id="Trazado_1067917" data-name="Trazado 1067917" d="M179.582,206.287h0a1.7,1.7,0,0,1-1.618,1.775h-4.852a1.782,1.782,0,0,1,0-3.55h4.852a1.7,1.7,0,0,1,1.618,1.775" transform="translate(-38.116 -45.455)" fill="#4c4c4c"/>
            <path id="Trazado_1067918" data-name="Trazado 1067918" d="M168.1,208.474h.713a.23.23,0,0,0,.219-.24v-.782a.23.23,0,0,0-.219-.24H168.1a.23.23,0,0,0-.219.24v.782a.23.23,0,0,0,.219.24" transform="translate(-37.313 -46.055)" fill="#b3eaef"/>
            <path id="Trazado_1067919" data-name="Trazado 1067919" d="M165.891,208.474h.713a.23.23,0,0,0,.219-.24v-.782a.23.23,0,0,0-.219-.24h-.713a.23.23,0,0,0-.219.24v.782a.23.23,0,0,0,.219.24" transform="translate(-36.822 -46.055)" fill="#4c4c4c"/>
            <path id="Trazado_1067920" data-name="Trazado 1067920" d="M163.681,208.474h.713a.23.23,0,0,0,.219-.24v-.782a.23.23,0,0,0-.219-.24h-.713a.23.23,0,0,0-.219.24v.782a.23.23,0,0,0,.219.24" transform="translate(-36.331 -46.055)" fill="#b3eaef"/>
            <path id="Trazado_1067921" data-name="Trazado 1067921" d="M161.471,208.474h.713a.23.23,0,0,0,.219-.24v-.782a.23.23,0,0,0-.219-.24h-.713a.23.23,0,0,0-.219.24v.782a.23.23,0,0,0,.219.24" transform="translate(-35.84 -46.055)" fill="#4c4c4c"/>
            <path id="Trazado_1067922" data-name="Trazado 1067922" d="M168.117,205.857h.713a.23.23,0,0,0,.219-.24v-.782a.23.23,0,0,0-.219-.24h-.713a.229.229,0,0,0-.218.24v.782a.229.229,0,0,0,.218.24" transform="translate(-37.317 -45.474)" fill="#4c4c4c"/>
            <path id="Trazado_1067923" data-name="Trazado 1067923" d="M165.916,205.857h.713a.23.23,0,0,0,.219-.24v-.782a.23.23,0,0,0-.219-.24h-.713a.229.229,0,0,0-.218.24v.782a.229.229,0,0,0,.218.24" transform="translate(-36.828 -45.474)" fill="#b3eaef"/>
            <path id="Trazado_1067924" data-name="Trazado 1067924" d="M163.715,205.857h.713a.23.23,0,0,0,.219-.24v-.782a.23.23,0,0,0-.219-.24h-.713a.23.23,0,0,0-.219.24v.782a.23.23,0,0,0,.219.24" transform="translate(-36.339 -45.474)" fill="#b3eaef"/>
            <path id="Trazado_1067925" data-name="Trazado 1067925" d="M161.514,205.857h.713a.23.23,0,0,0,.219-.24v-.782a.23.23,0,0,0-.219-.24h-.713a.23.23,0,0,0-.219.24v.782a.23.23,0,0,0,.219.24" transform="translate(-35.85 -45.474)" fill="#4c4c4c"/>
            <path id="Trazado_1067926" data-name="Trazado 1067926" d="M158.241,208.014h.956a.42.42,0,0,0,.4-.436v-2.545a.421.421,0,0,0-.4-.437h-.956a.42.42,0,0,0-.4.437v2.545a.419.419,0,0,0,.4.436" transform="translate(-35.083 -45.474)" fill="#b3eaef"/>
            <path id="Trazado_1067927" data-name="Trazado 1067927" d="M149.241,207.982h5.151a.609.609,0,0,0,.579-.636v-2.259a.61.61,0,0,0-.579-.636h-5.151a.611.611,0,0,0-.58.636v2.259a.61.61,0,0,0,.58.636" transform="translate(-33.042 -45.441)" fill="#86b8d3"/>
            <path id="Trazado_1067928" data-name="Trazado 1067928" d="M149.707,208.166h4.63a.432.432,0,0,0,.411-.45v-1.988a.432.432,0,0,0-.411-.45h-4.63a.432.432,0,0,0-.411.45v1.988a.432.432,0,0,0,.411.45" transform="translate(-33.183 -45.625)" fill="#b3eaef"/>
            <path id="Trazado_1067929" data-name="Trazado 1067929" d="M140.937,201.217h93.728a1.766,1.766,0,0,0,0-3.518H140.937a1.766,1.766,0,0,0,0,3.518" transform="translate(-30.968 -43.941)" fill="#b3eaef"/>
            <path id="Trazado_1067930" data-name="Trazado 1067930" d="M255.907,194.045h4.177a.642.642,0,0,0,0-1.279h-4.177a.642.642,0,0,0,0,1.279" transform="translate(-56.749 -42.844)" fill="#4c4c4c"/>
            <path id="Trazado_1067931" data-name="Trazado 1067931" d="M244.4,194.045h4.177a.642.642,0,0,0,0-1.279H244.4a.642.642,0,0,0,0,1.279" transform="translate(-54.191 -42.844)" fill="#4c4c4c"/>
            <path id="Trazado_1067932" data-name="Trazado 1067932" d="M232.894,194.045h4.177a.642.642,0,0,0,0-1.279h-4.177a.642.642,0,0,0,0,1.279" transform="translate(-51.634 -42.844)" fill="#4c4c4c"/>
            <path id="Trazado_1067933" data-name="Trazado 1067933" d="M221.386,194.045h4.177a.642.642,0,0,0,0-1.279h-4.177a.642.642,0,0,0,0,1.279" transform="translate(-49.076 -42.844)" fill="#4c4c4c"/>
            <path id="Trazado_1067934" data-name="Trazado 1067934" d="M209.879,194.045h4.177a.642.642,0,0,0,0-1.279h-4.177a.642.642,0,0,0,0,1.279" transform="translate(-46.518 -42.844)" fill="#4c4c4c"/>
            <path id="Trazado_1067935" data-name="Trazado 1067935" d="M198.373,194.045h4.177a.642.642,0,0,0,0-1.279h-4.177a.642.642,0,0,0,0,1.279" transform="translate(-43.961 -42.844)" fill="#4c4c4c"/>
            <path id="Trazado_1067936" data-name="Trazado 1067936" d="M186.866,194.045h4.177a.642.642,0,0,0,0-1.279h-4.177a.642.642,0,0,0,0,1.279" transform="translate(-41.403 -42.844)" fill="#4c4c4c"/>
            <path id="Trazado_1067937" data-name="Trazado 1067937" d="M175.358,194.045h4.177a.642.642,0,0,0,0-1.279h-4.177a.642.642,0,0,0,0,1.279" transform="translate(-38.846 -42.844)" fill="#4c4c4c"/>
            <path id="Trazado_1067938" data-name="Trazado 1067938" d="M163.851,194.045h4.177a.642.642,0,0,0,0-1.279h-4.177a.642.642,0,0,0,0,1.279" transform="translate(-36.288 -42.844)" fill="#4c4c4c"/>
            <path id="Trazado_1067939" data-name="Trazado 1067939" d="M152.344,194.045h4.177a.642.642,0,0,0,0-1.279h-4.177a.642.642,0,0,0,0,1.279" transform="translate(-33.73 -42.844)" fill="#4c4c4c"/>
            <path id="Trazado_1067940" data-name="Trazado 1067940" d="M140.837,194.045h4.177a.642.642,0,0,0,0-1.279h-4.177a.642.642,0,0,0,0,1.279" transform="translate(-31.173 -42.844)" fill="#4c4c4c"/>
            <rect id="Rectángulo_424953" data-name="Rectángulo 424953" width="105.5" height="16.931" transform="translate(104.422 172.171)" fill="#191919"/>
            <path id="Trazado_1067941" data-name="Trazado 1067941" d="M239.764,220.84h-105.5l4.014-1.776h98.434Z" transform="translate(-29.842 -48.689)" fill="#333"/>
            <path id="Trazado_1067942" data-name="Trazado 1067942" d="M236.712,244.92H138.249l-3.985-1.776h105.5Z" transform="translate(-29.842 -54.041)" fill="#333"/>
            <path id="Trazado_1067943" data-name="Trazado 1067943" d="M222.285,237.547h0a1.7,1.7,0,0,0,1.618,1.775h4.852a1.782,1.782,0,0,0,0-3.55H223.9a1.7,1.7,0,0,0-1.618,1.775" transform="translate(-49.405 -52.403)" fill="#4c4c4c"/>
            <path id="Trazado_1067944" data-name="Trazado 1067944" d="M235.75,239.734h-.713a.23.23,0,0,1-.219-.239v-.783a.23.23,0,0,1,.219-.24h.713a.23.23,0,0,1,.219.24v.783a.23.23,0,0,1-.219.239" transform="translate(-52.191 -53.003)" fill="#b3eaef"/>
            <path id="Trazado_1067945" data-name="Trazado 1067945" d="M237.959,239.734h-.713a.23.23,0,0,1-.219-.239v-.783a.23.23,0,0,1,.219-.24h.713a.23.23,0,0,1,.219.24v.783a.23.23,0,0,1-.219.239" transform="translate(-52.682 -53.003)" fill="#4c4c4c"/>
            <path id="Trazado_1067946" data-name="Trazado 1067946" d="M240.168,239.734h-.713a.23.23,0,0,1-.219-.239v-.783a.23.23,0,0,1,.219-.24h.713a.23.23,0,0,1,.219.24v.783a.23.23,0,0,1-.219.239" transform="translate(-53.173 -53.003)" fill="#b3eaef"/>
            <path id="Trazado_1067947" data-name="Trazado 1067947" d="M242.378,239.734h-.713a.23.23,0,0,1-.219-.239v-.783a.23.23,0,0,1,.219-.24h.713a.23.23,0,0,1,.219.24v.783a.23.23,0,0,1-.219.239" transform="translate(-53.664 -53.003)" fill="#4c4c4c"/>
            <path id="Trazado_1067948" data-name="Trazado 1067948" d="M235.733,237.118h-.713a.23.23,0,0,1-.219-.24V236.1a.23.23,0,0,1,.219-.24h.713a.23.23,0,0,1,.219.24v.782a.23.23,0,0,1-.219.24" transform="translate(-52.187 -52.422)" fill="#4c4c4c"/>
            <path id="Trazado_1067949" data-name="Trazado 1067949" d="M237.934,237.118h-.713a.23.23,0,0,1-.219-.24V236.1a.23.23,0,0,1,.219-.24h.713a.229.229,0,0,1,.218.24v.782a.229.229,0,0,1-.218.24" transform="translate(-52.676 -52.422)" fill="#b3eaef"/>
            <path id="Trazado_1067950" data-name="Trazado 1067950" d="M240.134,237.118h-.713a.23.23,0,0,1-.219-.24V236.1a.23.23,0,0,1,.219-.24h.713a.229.229,0,0,1,.218.24v.782a.229.229,0,0,1-.218.24" transform="translate(-53.165 -52.422)" fill="#b3eaef"/>
            <path id="Trazado_1067951" data-name="Trazado 1067951" d="M242.335,237.118h-.713a.23.23,0,0,1-.219-.24V236.1a.23.23,0,0,1,.219-.24h.713a.23.23,0,0,1,.219.24v.782a.23.23,0,0,1-.219.24" transform="translate(-53.654 -52.422)" fill="#4c4c4c"/>
            <path id="Trazado_1067952" data-name="Trazado 1067952" d="M245.436,239.274h-.956a.42.42,0,0,1-.4-.436v-2.546a.42.42,0,0,1,.4-.436h.956a.42.42,0,0,1,.4.436v2.546a.42.42,0,0,1-.4.436" transform="translate(-54.25 -52.422)" fill="#b3eaef"/>
            <path id="Trazado_1067953" data-name="Trazado 1067953" d="M253.133,239.242h-5.151a.61.61,0,0,1-.58-.636v-2.259a.611.611,0,0,1,.58-.636h5.151a.611.611,0,0,1,.58.636v2.259a.61.61,0,0,1-.58.636" transform="translate(-54.988 -52.389)" fill="#86b8d3"/>
            <path id="Trazado_1067954" data-name="Trazado 1067954" d="M252.913,239.426h-4.629a.432.432,0,0,1-.411-.45v-1.988a.432.432,0,0,1,.411-.45h4.629a.432.432,0,0,1,.411.45v1.988a.432.432,0,0,1-.411.45" transform="translate(-55.092 -52.573)" fill="#b3eaef"/>
            <path id="Trazado_1067955" data-name="Trazado 1067955" d="M235.384,232.478H141.967a1.758,1.758,0,0,1,0-3.517h93.417a1.758,1.758,0,1,1,0,3.517" transform="translate(-31.163 -50.889)" fill="#b3eaef"/>
            <path id="Trazado_1067956" data-name="Trazado 1067956" d="M146.744,225.305h-4.177a.642.642,0,0,1,0-1.279h4.177a.643.643,0,0,1,0,1.279" transform="translate(-31.557 -49.792)" fill="#4c4c4c"/>
            <path id="Trazado_1067957" data-name="Trazado 1067957" d="M158.251,225.305h-4.177a.642.642,0,0,1,0-1.279h4.177a.642.642,0,0,1,0,1.279" transform="translate(-34.115 -49.792)" fill="#4c4c4c"/>
            <path id="Trazado_1067958" data-name="Trazado 1067958" d="M169.758,225.305h-4.177a.643.643,0,0,1,0-1.279h4.177a.642.642,0,0,1,0,1.279" transform="translate(-36.673 -49.792)" fill="#4c4c4c"/>
            <path id="Trazado_1067959" data-name="Trazado 1067959" d="M181.265,225.305h-4.177a.643.643,0,0,1,0-1.279h4.177a.643.643,0,0,1,0,1.279" transform="translate(-39.23 -49.792)" fill="#4c4c4c"/>
            <path id="Trazado_1067960" data-name="Trazado 1067960" d="M192.772,225.305h-4.177a.642.642,0,0,1,0-1.279h4.177a.643.643,0,0,1,0,1.279" transform="translate(-41.788 -49.792)" fill="#4c4c4c"/>
            <path id="Trazado_1067961" data-name="Trazado 1067961" d="M204.279,225.305H200.1a.642.642,0,0,1,0-1.279h4.177a.643.643,0,0,1,0,1.279" transform="translate(-44.345 -49.792)" fill="#4c4c4c"/>
            <path id="Trazado_1067962" data-name="Trazado 1067962" d="M215.786,225.305h-4.177a.643.643,0,0,1,0-1.279h4.177a.642.642,0,0,1,0,1.279" transform="translate(-46.903 -49.792)" fill="#4c4c4c"/>
            <path id="Trazado_1067963" data-name="Trazado 1067963" d="M227.293,225.305h-4.177a.643.643,0,0,1,0-1.279h4.177a.642.642,0,0,1,0,1.279" transform="translate(-49.46 -49.792)" fill="#4c4c4c"/>
            <path id="Trazado_1067964" data-name="Trazado 1067964" d="M238.8,225.305h-4.177a.643.643,0,0,1,0-1.279H238.8a.643.643,0,0,1,0,1.279" transform="translate(-52.018 -49.792)" fill="#4c4c4c"/>
            <path id="Trazado_1067965" data-name="Trazado 1067965" d="M250.307,225.305h-4.177a.642.642,0,0,1,0-1.279h4.177a.643.643,0,0,1,0,1.279" transform="translate(-54.575 -49.792)" fill="#4c4c4c"/>
            <path id="Trazado_1067966" data-name="Trazado 1067966" d="M261.814,225.305h-4.177a.643.643,0,0,1,0-1.279h4.177a.642.642,0,0,1,0,1.279" transform="translate(-57.133 -49.792)" fill="#4c4c4c"/>
            <path id="Trazado_1067967" data-name="Trazado 1067967" d="M197.692,109.7h45.152a2.272,2.272,0,0,0,2.273-2.273V87.556a2.272,2.272,0,0,0-2.273-2.273H197.692a2.272,2.272,0,0,0-2.273,2.273v19.877a2.272,2.272,0,0,0,2.273,2.273" transform="translate(-43.434 -18.955)" fill="#629ab2"/>
            <path id="Trazado_1067968" data-name="Trazado 1067968" d="M198.2,110.31h45.5V90.39a1.934,1.934,0,0,0-1.934-1.933H200.138A1.933,1.933,0,0,0,198.2,90.39Z" transform="translate(-44.053 -19.661)" fill="#b3eaef"/>
            <path id="Trazado_1067969" data-name="Trazado 1067969" d="M222.751,93.263v15.009a1.1,1.1,0,0,0,1.1,1.1h22.1a1.1,1.1,0,0,0,1.1-1.1V93.263a1.1,1.1,0,0,0-1.1-1.1h-22.1a1.1,1.1,0,0,0-1.1,1.1m.591.94h23.1v14.351h-23.1Z" transform="translate(-49.509 -20.484)" fill="#86b8d3"/>
            <path id="Trazado_1067970" data-name="Trazado 1067970" d="M227.013,93.415a.39.39,0,1,0,.39-.39.389.389,0,0,0-.39.39" transform="translate(-50.456 -20.676)" fill="#b3eaef"/>
            <path id="Trazado_1067971" data-name="Trazado 1067971" d="M225.329,93.415a.39.39,0,1,0,.39-.39.39.39,0,0,0-.39.39" transform="translate(-50.082 -20.676)" fill="#b3eaef"/>
            <path id="Trazado_1067972" data-name="Trazado 1067972" d="M223.667,93.415a.39.39,0,1,0,.39-.39.39.39,0,0,0-.39.39" transform="translate(-49.712 -20.676)" fill="#b3eaef"/>
            <rect id="Rectángulo_424954" data-name="Rectángulo 424954" width="13.096" height="0.352" transform="translate(182.759 75.067)" fill="#86b8d3"/>
            <rect id="Rectángulo_424955" data-name="Rectángulo 424955" width="6.584" height="0.352" transform="translate(174.686 75.067)" fill="#86b8d3"/>
            <rect id="Rectángulo_424956" data-name="Rectángulo 424956" width="5.65" height="0.352" transform="translate(190.205 76.054)" fill="#86b8d3"/>
            <rect id="Rectángulo_424957" data-name="Rectángulo 424957" width="8.452" height="0.352" transform="translate(178.493 76.054)" fill="#86b8d3"/>
            <rect id="Rectángulo_424958" data-name="Rectángulo 424958" width="2.76" height="0.352" transform="translate(174.686 76.054)" fill="#86b8d3"/>
            <rect id="Rectángulo_424959" data-name="Rectángulo 424959" width="8.476" height="0.352" transform="translate(174.686 77.042)" fill="#86b8d3"/>
            <rect id="Rectángulo_424960" data-name="Rectángulo 424960" width="8.533" height="0.352" transform="translate(184.047 77.042)" fill="#86b8d3"/>
            <rect id="Rectángulo_424961" data-name="Rectángulo 424961" width="1.384" height="0.352" transform="translate(194.471 77.042)" fill="#86b8d3"/>
            <rect id="Rectángulo_424962" data-name="Rectángulo 424962" width="5.972" height="0.352" transform="translate(189.883 78.03)" fill="#86b8d3"/>
            <rect id="Rectángulo_424963" data-name="Rectángulo 424963" width="9.459" height="0.352" transform="translate(177.285 78.03)" fill="#86b8d3"/>
            <rect id="Rectángulo_424964" data-name="Rectángulo 424964" width="1.874" height="0.352" transform="translate(174.686 78.03)" fill="#86b8d3"/>
            <rect id="Rectángulo_424965" data-name="Rectángulo 424965" width="1.142" height="0.352" transform="translate(194.713 79.018)" fill="#86b8d3"/>
            <rect id="Rectángulo_424966" data-name="Rectángulo 424966" width="10.667" height="0.352" transform="translate(183.121 79.018)" fill="#86b8d3"/>
            <rect id="Rectángulo_424967" data-name="Rectángulo 424967" width="5.98" height="0.352" transform="translate(174.686 79.018)" fill="#86b8d3"/>
            <rect id="Rectángulo_424968" data-name="Rectángulo 424968" width="5.669" height="0.352" transform="translate(190.186 80.005)" fill="#86b8d3"/>
            <rect id="Rectángulo_424969" data-name="Rectángulo 424969" width="6.952" height="0.352" transform="translate(182.572 80.005)" fill="#86b8d3"/>
            <rect id="Rectángulo_424970" data-name="Rectángulo 424970" width="7.1" height="0.352" transform="translate(174.686 80.005)" fill="#86b8d3"/>
            <rect id="Rectángulo_424971" data-name="Rectángulo 424971" width="1.845" height="0.352" transform="translate(174.686 80.993)" fill="#86b8d3"/>
            <rect id="Rectángulo_424972" data-name="Rectángulo 424972" width="8.235" height="0.352" transform="translate(187.62 80.993)" fill="#86b8d3"/>
            <rect id="Rectángulo_424973" data-name="Rectángulo 424973" width="7.448" height="0.352" transform="translate(178.144 80.993)" fill="#86b8d3"/>
            <rect id="Rectángulo_424974" data-name="Rectángulo 424974" width="5.072" height="0.352" transform="translate(174.686 81.981)" fill="#86b8d3"/>
            <rect id="Rectángulo_424975" data-name="Rectángulo 424975" width="10.759" height="0.352" transform="translate(181.538 81.982)" fill="#86b8d3"/>
            <rect id="Rectángulo_424976" data-name="Rectángulo 424976" width="2.896" height="0.352" transform="translate(192.959 81.982)" fill="#86b8d3"/>
            <rect id="Rectángulo_424977" data-name="Rectángulo 424977" width="10.842" height="0.352" transform="translate(185.013 82.968)" fill="#86b8d3"/>
            <rect id="Rectángulo_424978" data-name="Rectángulo 424978" width="6.38" height="0.352" transform="translate(176.683 82.968)" fill="#86b8d3"/>
            <rect id="Rectángulo_424979" data-name="Rectángulo 424979" width="1.217" height="0.352" transform="translate(194.638 83.956)" fill="#86b8d3"/>
            <rect id="Rectángulo_424980" data-name="Rectángulo 424980" width="13.44" height="0.352" transform="translate(178.569 83.956)" fill="#86b8d3"/>
            <rect id="Rectángulo_424981" data-name="Rectángulo 424981" width="2.611" height="0.352" transform="translate(174.686 83.957)" fill="#86b8d3"/>
            <rect id="Rectángulo_424982" data-name="Rectángulo 424982" width="5.669" height="0.352" transform="translate(190.186 84.944)" fill="#86b8d3"/>
            <rect id="Rectángulo_424983" data-name="Rectángulo 424983" width="7.42" height="0.352" transform="translate(181.113 84.944)" fill="#86b8d3"/>
            <rect id="Rectángulo_424984" data-name="Rectángulo 424984" width="3.714" height="0.352" transform="translate(174.686 84.944)" fill="#86b8d3"/>
            <rect id="Rectángulo_424985" data-name="Rectángulo 424985" width="2.735" height="0.352" transform="translate(193.12 85.932)" fill="#86b8d3"/>
            <rect id="Rectángulo_424986" data-name="Rectángulo 424986" width="7.714" height="0.352" transform="translate(184.649 85.932)" fill="#86b8d3"/>
            <rect id="Rectángulo_424987" data-name="Rectángulo 424987" width="7.613" height="0.352" transform="translate(175.775 85.932)" fill="#86b8d3"/>
            <rect id="Rectángulo_424988" data-name="Rectángulo 424988" width="7.928" height="0.352" transform="translate(187.927 86.92)" fill="#86b8d3"/>
            <rect id="Rectángulo_424989" data-name="Rectángulo 424989" width="7.815" height="0.352" transform="translate(178.397 86.92)" fill="#86b8d3"/>
            <rect id="Rectángulo_424990" data-name="Rectángulo 424990" width="6.457" height="0.454" transform="translate(162.264 72.475)" fill="#86b8d3"/>
            <rect id="Rectángulo_424991" data-name="Rectángulo 424991" width="3.246" height="0.454" transform="translate(158.284 72.475)" fill="#86b8d3"/>
            <rect id="Rectángulo_424992" data-name="Rectángulo 424992" width="2.785" height="0.454" transform="translate(165.935 73.751)" fill="#86b8d3"/>
            <rect id="Rectángulo_424993" data-name="Rectángulo 424993" width="4.167" height="0.454" transform="translate(160.16 73.751)" fill="#86b8d3"/>
            <rect id="Rectángulo_424994" data-name="Rectángulo 424994" width="1.36" height="0.454" transform="translate(158.284 73.751)" fill="#86b8d3"/>
            <rect id="Rectángulo_424995" data-name="Rectángulo 424995" width="4.179" height="0.454" transform="translate(158.283 75.027)" fill="#86b8d3"/>
            <rect id="Rectángulo_424996" data-name="Rectángulo 424996" width="4.207" height="0.454" transform="translate(162.899 75.027)" fill="#86b8d3"/>
            <rect id="Rectángulo_424997" data-name="Rectángulo 424997" width="0.682" height="0.454" transform="translate(168.038 75.027)" fill="#86b8d3"/>
            <rect id="Rectángulo_424998" data-name="Rectángulo 424998" width="2.945" height="0.454" transform="translate(165.776 76.303)" fill="#86b8d3"/>
            <rect id="Rectángulo_424999" data-name="Rectángulo 424999" width="4.663" height="0.454" transform="translate(159.565 76.303)" fill="#86b8d3"/>
            <rect id="Rectángulo_425000" data-name="Rectángulo 425000" width="0.924" height="0.454" transform="translate(158.284 76.302)" fill="#86b8d3"/>
            <rect id="Rectángulo_425001" data-name="Rectángulo 425001" width="0.563" height="0.454" transform="translate(168.157 77.579)" fill="#86b8d3"/>
            <rect id="Rectángulo_425002" data-name="Rectángulo 425002" width="5.258" height="0.454" transform="translate(162.443 77.579)" fill="#86b8d3"/>
            <rect id="Rectángulo_425003" data-name="Rectángulo 425003" width="2.948" height="0.454" transform="translate(158.283 77.579)" fill="#86b8d3"/>
            <rect id="Rectángulo_425004" data-name="Rectángulo 425004" width="2.794" height="0.454" transform="translate(165.925 78.854)" fill="#86b8d3"/>
            <rect id="Rectángulo_425005" data-name="Rectángulo 425005" width="3.427" height="0.454" transform="translate(162.172 78.854)" fill="#86b8d3"/>
            <rect id="Rectángulo_425006" data-name="Rectángulo 425006" width="3.501" height="0.454" transform="translate(158.284 78.854)" fill="#86b8d3"/>
            <rect id="Rectángulo_425007" data-name="Rectángulo 425007" width="0.909" height="0.454" transform="translate(158.284 80.13)" fill="#86b8d3"/>
            <rect id="Rectángulo_425008" data-name="Rectángulo 425008" width="4.06" height="0.454" transform="translate(164.661 80.13)" fill="#86b8d3"/>
            <rect id="Rectángulo_425009" data-name="Rectángulo 425009" width="3.672" height="0.454" transform="translate(159.989 80.13)" fill="#86b8d3"/>
            <rect id="Rectángulo_425010" data-name="Rectángulo 425010" width="2.5" height="0.454" transform="translate(158.284 81.405)" fill="#86b8d3"/>
            <rect id="Rectángulo_425011" data-name="Rectángulo 425011" width="5.304" height="0.454" transform="translate(161.662 81.406)" fill="#86b8d3"/>
            <rect id="Rectángulo_425012" data-name="Rectángulo 425012" width="1.428" height="0.454" transform="translate(167.292 81.406)" fill="#86b8d3"/>
            <rect id="Rectángulo_425013" data-name="Rectángulo 425013" width="5.345" height="0.454" transform="translate(163.375 82.681)" fill="#86b8d3"/>
            <rect id="Rectángulo_425014" data-name="Rectángulo 425014" width="3.145" height="0.454" transform="translate(159.269 82.681)" fill="#86b8d3"/>
            <rect id="Rectángulo_425015" data-name="Rectángulo 425015" width="0.6" height="0.454" transform="translate(168.12 83.957)" fill="#86b8d3"/>
            <rect id="Rectángulo_425016" data-name="Rectángulo 425016" width="6.626" height="0.454" transform="translate(160.198 83.957)" fill="#86b8d3"/>
            <rect id="Rectángulo_425017" data-name="Rectángulo 425017" width="1.287" height="0.454" transform="translate(158.284 83.957)" fill="#86b8d3"/>
            <rect id="Rectángulo_425018" data-name="Rectángulo 425018" width="2.795" height="0.454" transform="translate(165.925 85.233)" fill="#86b8d3"/>
            <rect id="Rectángulo_425019" data-name="Rectángulo 425019" width="3.658" height="0.454" transform="translate(161.452 85.233)" fill="#86b8d3"/>
            <rect id="Rectángulo_425020" data-name="Rectángulo 425020" width="1.831" height="0.454" transform="translate(158.284 85.233)" fill="#86b8d3"/>
            <rect id="Rectángulo_425021" data-name="Rectángulo 425021" width="1.349" height="0.454" transform="translate(167.372 86.509)" fill="#86b8d3"/>
            <rect id="Rectángulo_425022" data-name="Rectángulo 425022" width="3.803" height="0.454" transform="translate(163.196 86.509)" fill="#86b8d3"/>
            <rect id="Rectángulo_425023" data-name="Rectángulo 425023" width="3.753" height="0.454" transform="translate(158.821 86.509)" fill="#86b8d3"/>
            <rect id="Rectángulo_425024" data-name="Rectángulo 425024" width="3.909" height="0.453" transform="translate(164.811 87.785)" fill="#86b8d3"/>
            <rect id="Rectángulo_425025" data-name="Rectángulo 425025" width="3.853" height="0.453" transform="translate(160.113 87.785)" fill="#86b8d3"/>
            <g id="Grupo_1230460" data-name="Grupo 1230460" transform="translate(151.985 66.328)" opacity="0.43">
              <g id="Grupo_1230459" data-name="Grupo 1230459">
                <g id="Grupo_1230458" data-name="Grupo 1230458" clip-path="url(#clip-path-3)">
                  <path id="Trazado_1067973" data-name="Trazado 1067973" d="M195.419,89.365V87.328a2.046,2.046,0,0,1,2.045-2.046h45.607a2.046,2.046,0,0,1,2.046,2.046v2.037Z" transform="translate(-195.419 -85.283)" fill="#333"/>
                </g>
              </g>
            </g>
            <path id="Trazado_1067974" data-name="Trazado 1067974" d="M146.315,112.4h29.807a4.331,4.331,0,0,0,4.331-4.331V88.205a4.332,4.332,0,0,0-4.331-4.332H146.315a4.332,4.332,0,0,0-4.331,4.332v19.86a4.331,4.331,0,0,0,4.331,4.331" transform="translate(-31.557 -18.642)" fill="#191919"/>
            <path id="Trazado_1067975" data-name="Trazado 1067975" d="M146.574,105.619h-1.991v-1.485a.448.448,0,0,1-.358-.421v-3.75a.446.446,0,0,1,.358-.42V88.415h1.991v.65h.419v-.217a.363.363,0,0,1,.38-.345h2.593a.363.363,0,0,1,.38.345v.217h.605v-.217a.364.364,0,0,1,.38-.345h2.593a.363.363,0,0,1,.38.345v.217h.605v-.217a.363.363,0,0,1,.38-.345h2.593a.364.364,0,0,1,.38.345v.217h.6v-.217a.363.363,0,0,1,.38-.345h2.594a.363.363,0,0,1,.38.345v.217h.605v-.217a.363.363,0,0,1,.38-.345H165.8a.363.363,0,0,1,.38.345v.217h.605v-.217a.363.363,0,0,1,.38-.345h2.594a.363.363,0,0,1,.38.345v.217h.605v-.217a.363.363,0,0,1,.38-.345h2.593a.363.363,0,0,1,.38.345v.217h.605v-.217a.364.364,0,0,1,.38-.345h2.592a.364.364,0,0,1,.38.345v.217h.9V88.5h2.2v17.109h-2.2v-.492h-.9v.146a.364.364,0,0,1-.38.345h-2.592a.364.364,0,0,1-.38-.345v-.146h-.605v.146a.364.364,0,0,1-.38.345h-2.593a.364.364,0,0,1-.38-.345v-.146h-.605v.146a.364.364,0,0,1-.38.345H167.16a.364.364,0,0,1-.38-.345v-.146h-.605v.146a.364.364,0,0,1-.38.345H163.2a.364.364,0,0,1-.38-.345v-.146h-.605v.146a.364.364,0,0,1-.38.345h-2.594a.364.364,0,0,1-.38-.345v-.146h-.6v.146a.364.364,0,0,1-.38.345h-2.593a.364.364,0,0,1-.38-.345v-.146H154.3v.146a.364.364,0,0,1-.38.345H151.33a.364.364,0,0,1-.38-.345v-.146h-.605v.146a.364.364,0,0,1-.38.345h-2.593a.364.364,0,0,1-.38-.345v-.146h-.419Z" transform="translate(-32.056 -19.651)" fill="#333"/>
            <rect id="Rectángulo_425027" data-name="Rectángulo 425027" width="0.661" height="2.435" transform="translate(113.201 66.955)" fill="#333"/>
            <rect id="Rectángulo_425028" data-name="Rectángulo 425028" width="2.548" height="1.052" transform="translate(110.48 76.314)" fill="#333"/>
            <rect id="Rectángulo_425029" data-name="Rectángulo 425029" width="2.455" height="0.39" transform="translate(110.48 82.406)" fill="#333"/>
            <rect id="Rectángulo_425030" data-name="Rectángulo 425030" width="0.288" height="3.857" transform="translate(138.956 66.955)" fill="#333"/>
            <rect id="Rectángulo_425031" data-name="Rectángulo 425031" width="0.268" height="3.857" transform="translate(139.418 66.955)" fill="#333"/>
            <rect id="Rectángulo_425032" data-name="Rectángulo 425032" width="0.247" height="3.857" transform="translate(139.88 66.955)" fill="#333"/>
            <rect id="Rectángulo_425033" data-name="Rectángulo 425033" width="0.226" height="3.857" transform="translate(140.342 66.955)" fill="#333"/>
            <rect id="Rectángulo_425034" data-name="Rectángulo 425034" width="0.205" height="3.857" transform="translate(140.804 66.955)" fill="#333"/>
            <rect id="Rectángulo_425035" data-name="Rectángulo 425035" width="0.184" height="3.857" transform="translate(141.265 66.955)" fill="#333"/>
            <rect id="Rectángulo_425036" data-name="Rectángulo 425036" width="0.163" height="3.857" transform="translate(141.728 66.955)" fill="#333"/>
            <rect id="Rectángulo_425037" data-name="Rectángulo 425037" width="0.71" height="1.928" transform="translate(118.704 85.343)" fill="#333"/>
            <rect id="Rectángulo_425038" data-name="Rectángulo 425038" width="0.659" height="1.928" transform="translate(119.843 85.343)" fill="#333"/>
            <rect id="Rectángulo_425039" data-name="Rectángulo 425039" width="0.607" height="1.928" transform="translate(120.982 85.343)" fill="#333"/>
            <rect id="Rectángulo_425040" data-name="Rectángulo 425040" width="0.556" height="1.928" transform="translate(122.12 85.343)" fill="#333"/>
            <rect id="Rectángulo_425041" data-name="Rectángulo 425041" width="0.505" height="1.928" transform="translate(123.258 85.343)" fill="#333"/>
            <rect id="Rectángulo_425042" data-name="Rectángulo 425042" width="0.453" height="1.928" transform="translate(124.397 85.343)" fill="#333"/>
            <rect id="Rectángulo_425043" data-name="Rectángulo 425043" width="0.402" height="1.928" transform="translate(125.536 85.343)" fill="#333"/>
            <path id="Trazado_1067976" data-name="Trazado 1067976" d="M142.038,93.129h20.1a1.984,1.984,0,0,0,1.981-1.982V89.021a1.984,1.984,0,0,0-1.981-1.982h-20.1v-.414h20.1a2.4,2.4,0,0,1,2.4,2.4v2.126a2.4,2.4,0,0,1-2.4,2.4h-20.1Z" transform="translate(-31.569 -19.254)" fill="#333"/>
            <path id="Trazado_1067977" data-name="Trazado 1067977" d="M185.44,103.3H165.863a2.051,2.051,0,0,0-2.047,2.051v2.126a2.051,2.051,0,0,0,2.047,2.051H185.44v.276H165.863a2.328,2.328,0,0,1-2.323-2.327v-2.126a2.328,2.328,0,0,1,2.323-2.327H185.44Z" transform="translate(-36.349 -22.898)" fill="#333"/>
            <rect id="Rectángulo_425044" data-name="Rectángulo 425044" width="6.084" height="1.723" transform="translate(136.87 65.231)" fill="#333"/>
            <path id="Trazado_1067978" data-name="Trazado 1067978" d="M149.089,103.8h19.068a1.965,1.965,0,0,0,1.965-1.965V94.128a1.965,1.965,0,0,0-1.965-1.965H149.089a1.965,1.965,0,0,0-1.965,1.965v7.713a1.965,1.965,0,0,0,1.965,1.965" transform="translate(-32.7 -20.484)" fill="#262626"/>
            <path id="Trazado_1067979" data-name="Trazado 1067979" d="M156.274,101.79h15.173V95.411H156.274a3.19,3.19,0,1,0,0,6.379" transform="translate(-34.025 -21.206)" fill="#ed701b"/>
            <rect id="Rectángulo_425045" data-name="Rectángulo 425045" width="4.635" height="1.117" transform="translate(114.424 75.893)" fill="#f7c628"/>
            <rect id="Rectángulo_425046" data-name="Rectángulo 425046" width="4.635" height="0.461" transform="translate(114.424 77.811)" fill="#f7c628"/>
            <rect id="Rectángulo_425047" data-name="Rectángulo 425047" width="4.635" height="0.292" transform="translate(114.424 78.71)" fill="#f7c628"/>
            <rect id="Rectángulo_425048" data-name="Rectángulo 425048" width="1.384" height="2.527" transform="translate(124.108 71.679)" fill="#ed701b"/>
            <rect id="Rectángulo_425049" data-name="Rectángulo 425049" width="0.683" height="28.524" transform="translate(145.963 65.231)" fill="#f7c628"/>
            <rect id="Rectángulo_425050" data-name="Rectángulo 425050" width="0.683" height="28.524" transform="translate(144.028 65.231)" fill="#f7c628"/>
            <rect id="Rectángulo_425051" data-name="Rectángulo 425051" width="0.683" height="28.524" transform="translate(142.093 65.231)" fill="#f7c628"/>
            <rect id="Rectángulo_425052" data-name="Rectángulo 425052" width="0.683" height="28.524" transform="translate(140.159 65.231)" fill="#f7c628"/>
            <rect id="Rectángulo_425053" data-name="Rectángulo 425053" width="0.683" height="28.524" transform="translate(138.224 65.231)" fill="#f7c628"/>
            <rect id="Rectángulo_425054" data-name="Rectángulo 425054" width="0.683" height="28.524" transform="translate(136.289 65.231)" fill="#f7c628"/>
            <rect id="Rectángulo_425055" data-name="Rectángulo 425055" width="0.683" height="28.524" transform="translate(134.354 65.231)" fill="#f7c628"/>
            <path id="Trazado_1067980" data-name="Trazado 1067980" d="M156.528,101.3h6.887a1.59,1.59,0,1,0,0-3.179h-6.887a1.59,1.59,0,0,0,0,3.179" transform="translate(-34.437 -21.809)" fill="#ed701b"/>
            <rect id="Rectángulo_425056" data-name="Rectángulo 425056" width="38.416" height="0.878" transform="translate(110.48 88.011)" fill="#f7665f"/>
            <path id="Trazado_1067981" data-name="Trazado 1067981" d="M141.932,102.8h7.634a8.375,8.375,0,0,0,8.365-8.366V83.841h1.749V94.435a10.126,10.126,0,0,1-10.115,10.115h-7.634Z" transform="translate(-31.546 -18.635)" fill="#6ac3d1"/>
            <path id="Trazado_1067982" data-name="Trazado 1067982" d="M141.932,99.546a5.282,5.282,0,0,0,2.983.919h5.7a5.319,5.319,0,0,0,5.313-5.314V83.841h1.111V95.152a6.43,6.43,0,0,1-6.423,6.424h-5.7a6.381,6.381,0,0,1-2.983-.74Z" transform="translate(-31.546 -18.635)" fill="#6ac3d1"/>
            <path id="Trazado_1067983" data-name="Trazado 1067983" d="M141.932,97.815a4.784,4.784,0,0,0,2.074.476h5.174A4.828,4.828,0,0,0,154,93.469V83.841h1.008v9.628a5.837,5.837,0,0,1-5.83,5.831h-5.174a5.782,5.782,0,0,1-2.074-.389Z" transform="translate(-31.546 -18.635)" fill="#6ac3d1"/>
            <rect id="Rectángulo_425057" data-name="Rectángulo 425057" width="38.469" height="1.281" transform="translate(110.427 89.469)" fill="#f7665f"/>
            <rect id="Rectángulo_425058" data-name="Rectángulo 425058" width="1.916" height="10.661" transform="translate(116.114 65.231)" fill="#ed701b"/>
            <rect id="Rectángulo_425059" data-name="Rectángulo 425059" width="0.605" height="9.058" transform="translate(131.718 65.231)" fill="#ed701b"/>
            <rect id="Rectángulo_425060" data-name="Rectángulo 425060" width="0.605" height="9.058" transform="translate(130.266 65.231)" fill="#ed701b"/>
            <rect id="Rectángulo_425061" data-name="Rectángulo 425061" width="1.143" height="7.501" transform="translate(127.706 80.511)" fill="#ed701b"/>
            <rect id="Rectángulo_425062" data-name="Rectángulo 425062" width="53.171" height="1.94" transform="translate(130.495 0)" fill="#4c4c4c"/>
            <rect id="Rectángulo_425063" data-name="Rectángulo 425063" width="6.74" height="80.145" transform="translate(58.854 126.807)" fill="#d6d8d6"/>
            <rect id="Rectángulo_425064" data-name="Rectángulo 425064" width="6.74" height="80.145" transform="translate(38.202 126.807)" fill="#9e9e9e"/>
            <rect id="Rectángulo_425065" data-name="Rectángulo 425065" width="68.936" height="11.903" transform="translate(0 124.319)" fill="#d6d8d6"/>
            <rect id="Rectángulo_425066" data-name="Rectángulo 425066" width="41.939" height="11.903" transform="translate(68.936 124.319)" fill="#9e9e9e"/>
            <rect id="Rectángulo_425067" data-name="Rectángulo 425067" width="6.74" height="80.146" transform="translate(2.084 126.59)" fill="#d6d8d6"/>
            <rect id="Rectángulo_425068" data-name="Rectángulo 425068" width="6.74" height="80.146" transform="translate(100.158 126.59)" fill="#9e9e9e"/>
            <path id="Trazado_1067984" data-name="Trazado 1067984" d="M113.43,148.177H82.574c-.7,0-1.012-.623-.688-1.391l9.65-22.883a2.289,2.289,0,0,1,1.86-1.391h30.857c.7,0,1.011.623.687,1.391l-9.65,22.883a2.288,2.288,0,0,1-1.86,1.391" transform="translate(-18.171 -27.23)" fill="#939598"/>
            <path id="Trazado_1067985" data-name="Trazado 1067985" d="M105.851,158.777H54.2a1.871,1.871,0,1,1,0-3.742h51.65a1.871,1.871,0,1,1,0,3.742" transform="translate(-11.631 -34.458)" fill="#6d6e71"/>
            <path id="Trazado_1067986" data-name="Trazado 1067986" d="M95.9,147.608c-1.054,0-1.66-.034-1.709-.038l.1-1.535c.443.031,43.292,2.367,54.824-36.458l1.475.439c-10.542,35.494-46.41,37.592-54.689,37.592" transform="translate(-20.935 -24.355)" fill="#f7c628"/>
            <path id="Trazado_1067987" data-name="Trazado 1067987" d="M94.5,158.317H92.868a1.171,1.171,0,0,1,0-2.341H94.5a1.171,1.171,0,0,1,0,2.341" transform="translate(-20.381 -34.667)" fill="#f7c628"/>
            <path id="Trazado_1067988" data-name="Trazado 1067988" d="M164.438,96.269c-6.429,6.675-8.319,13.008-8.749,14.84-2.868,12.214,5.989,22.51,12.877,25.623l.73.342-.13-.788a6.142,6.142,0,0,1,.288-1.041,4.815,4.815,0,0,0,.27-.995l0-.049-.008-.049a3.143,3.143,0,0,1-.051-.683,13.3,13.3,0,0,1,.227-1.7l.047-.283c.012-.079.023-.157.042-.25l.194-.341-.17-.086a.4.4,0,0,0-.275-.277.427.427,0,0,0-.224-.013,15.807,15.807,0,0,1-5.95-19.157,19.8,19.8,0,0,1,4.884-7.038c.693-.67,1.429-1.3,2.184-1.9-2.53-1.736-5.211-3.272-6.19-6.154" transform="translate(-34.48 -21.397)" fill="#ffb288"/>
            <path id="Trazado_1067989" data-name="Trazado 1067989" d="M194.535,80.154a5.114,5.114,0,0,0-5.282-1.02,53.589,53.589,0,0,0-21.46,12.538c-.243.24-.466.479-.7.719.978,2.882,3.659,4.419,6.188,6.154,6.659-5.314,15.343-8.064,19.039-9.053a5.109,5.109,0,0,0,3.872-3.73,5.919,5.919,0,0,0-1.662-5.607" transform="translate(-37.139 -17.518)" fill="#f7665f"/>
            <path id="Trazado_1067990" data-name="Trazado 1067990" d="M212.508,67.831a199.317,199.317,0,0,0-6.44,20.853c-.756,2.944-2.062,1.229-2.058,4.268a2.168,2.168,0,0,1-.257,1.263,1.457,1.457,0,0,1-1.989.155,4.067,4.067,0,0,1-1.207-1.835,58.244,58.244,0,0,1-2.864-35.173,10.788,10.788,0,0,0,.46-4.344c-.541-2.963-3.563-4.76-4.987-7.412-4.853-9.034,8.8-14.825,14.422-7.753,6.527,8.212,8.9,20.164,4.92,29.979" transform="translate(-42.705 -7.712)" fill="#8b2b16"/>
            <path id="Trazado_1067991" data-name="Trazado 1067991" d="M201.9,258.35l-4.775,0-7.049,7.313,11.817.011Z" transform="translate(-42.246 -57.42)" fill="#2b2222"/>
            <path id="Trazado_1067992" data-name="Trazado 1067992" d="M201.058,258.35l-4.863,0-9.9,5.4,11.466-.11Z" transform="translate(-41.405 -57.42)" fill="#ffb288"/>
            <path id="Trazado_1067993" data-name="Trazado 1067993" d="M186.279,265.258l-.042.012c0,.622,1.3,1.129,2.9,1.131l5.657-.116c1.594,0,2.894-.5,2.894-1.124h.051l.009-.013Z" transform="translate(-41.393 -58.932)" fill="#2b201f"/>
            <path id="Trazado_1067994" data-name="Trazado 1067994" d="M200.512,265.517a1.476,1.476,0,0,0-1-.366l-14.345.107a1.052,1.052,0,1,0,0,2.041l14.346-.108a1.483,1.483,0,0,0,1-.364Z" transform="translate(-40.864 -58.933)" fill="#2b2222"/>
            <path id="Trazado_1067995" data-name="Trazado 1067995" d="M209.124,258.411l4.775,0,7.049,7.313-11.817.011Z" transform="translate(-46.48 -57.434)" fill="#2b2222"/>
            <path id="Trazado_1067996" data-name="Trazado 1067996" d="M209.124,258.411l4.863,0,9.9,5.4-11.466-.11Z" transform="translate(-46.48 -57.434)" fill="#ffb288"/>
            <path id="Trazado_1067997" data-name="Trazado 1067997" d="M224.834,265.319l.042.012c0,.623-1.3,1.129-2.9,1.131l-5.657-.116c-1.594,0-2.894-.5-2.894-1.124h-.051l-.009-.013Z" transform="translate(-47.423 -58.946)" fill="#2b201f"/>
            <path id="Trazado_1067998" data-name="Trazado 1067998" d="M209.131,265.577a1.476,1.476,0,0,1,1-.366l14.345.107a1.052,1.052,0,1,1,0,2.041l-14.346-.109a1.476,1.476,0,0,1-1-.363Z" transform="translate(-46.482 -58.946)" fill="#2b2222"/>
            <path id="Trazado_1067999" data-name="Trazado 1067999" d="M219.862,105.93a19.883,19.883,0,0,0-11.019-15.056c-6.234-3.191-.663-12.064,5.58-8.869,8.825,4.517,13.011,12.274,13.622,21.061a8.821,8.821,0,0,1-8.183,2.864" transform="translate(-45.812 -18.075)" fill="#f7665f"/>
            <path id="Trazado_1068000" data-name="Trazado 1068000" d="M209.379,148.1c12.774,26.061,12.671,55.8,4.171,83.9-2.358,7.8-9.3,6.793-6.921-1.064,7.511-24.83,1.132-53.219-10.2-76.331-3.571-7.284,9.366-13.806,12.947-6.5" transform="translate(-43.522 -32.206)" fill="#ae4ea7"/>
            <path id="Trazado_1068001" data-name="Trazado 1068001" d="M187.735,149.851c.277,27.168,1.866,54,10.213,79.678,2.532,7.786-5.013,9.222-7.529,1.485-8.677-26.691-16.476-58.124-16.764-86.359-.083-8.217,12-3.763,12.081,4.46Z" transform="translate(-38.597 -31.18)" fill="#ae4ea7"/>
            <path id="Trazado_1068002" data-name="Trazado 1068002" d="M207.443,88.166c.075,4.274-1.893,8.368-2.851,12.567-1.8,7.9-.009,16.024.039,24.064.024,3.939-.4,7.965-2.3,11.575a15.34,15.34,0,0,1-10.069,7.8c-7.231,1.616-14.923-2.611-18.211-8.188s1.634-29.894,11.227-45.954c1.646-2.754,2.571-5.84,4.813-8.29,6.773-7.4,17.218-1.273,17.353,6.423" transform="translate(-38.458 -17.426)" fill="#f7665f"/>
            <path id="Trazado_1068003" data-name="Trazado 1068003" d="M180.111,99.042a16.491,16.491,0,0,0-2.417,8.493,9.777,9.777,0,0,0,2.192,5.813c1.387,1.625,3.664,2.493,5.253,1.169a6.607,6.607,0,0,0,1.786-3.823,37.874,37.874,0,0,0,.547-8.006c-.041-2.283.274-5.582-.37-7.735-1.65-5.517-5.955,2.192-6.99,4.089" transform="translate(-39.492 -20.67)" fill="#f7665f"/>
            <path id="Trazado_1068004" data-name="Trazado 1068004" d="M182.723,47.38A37.044,37.044,0,0,0,185.531,58.6,36.228,36.228,0,0,0,192.1,70.084c.5.548,1.231,1.116,1.909.815.537-.24.72-.9.827-1.482a44.629,44.629,0,0,0-2.007-23.4c-.96-2.6-3.21-7.926-6.7-7.822-3.676.11-3.553,6.608-3.4,9.18" transform="translate(-40.6 -8.49)" fill="#8b2b16"/>
            <path id="Trazado_1068005" data-name="Trazado 1068005" d="M205.2,48.513c-.251,3.32-3.91,5.75-8.17,5.426l-4.337-.33c-4.261-.325-7.51-3.281-7.259-6.6l.645-8.521c.25-3.318,3.907-5.747,8.169-5.423l4.337.331c4.26.324,7.512,3.281,7.261,6.6Z" transform="translate(-41.212 -7.342)" fill="#8b2b16"/>
            <path id="Trazado_1068006" data-name="Trazado 1068006" d="M184.839,43.851s-3.7-5.207,3.128-8.089Z" transform="translate(-40.86 -7.948)" fill="#8b2b16"/>
            <path id="Trazado_1068007" data-name="Trazado 1068007" d="M201.148,68.475l.093,9.236c-.295,1.091-2.317,2.568-4.106,2.41a8.782,8.782,0,0,1-1.234-.274l-.817-8.732a14.08,14.08,0,0,0,6.066-2.641" transform="translate(-43.359 -15.219)" fill="#ffb288"/>
            <path id="Trazado_1068008" data-name="Trazado 1068008" d="M194.165,64.727l6.976.614-.284,3.3a14.213,14.213,0,0,1-5.847,2.6l-.89-6Z" transform="translate(-43.145 -14.386)" fill="#f38c65"/>
            <path id="Trazado_1068009" data-name="Trazado 1068009" d="M185.534,39.728l16.814,1.28a15.15,15.15,0,0,1,0,2.238l-.659,8.716a13.549,13.549,0,0,1-3.111,7.638l-.03.41c-.33.227-1.013-.724-1.311-.53-1.328,2.238-5.506,3.459-5.541,3.455-6.416-.327-7.634-5.842-7.147-12.278l.659-8.716a15.367,15.367,0,0,1,.331-2.213" transform="translate(-40.995 -8.83)" fill="#ffb288"/>
            <path id="Trazado_1068010" data-name="Trazado 1068010" d="M194.121,39.566l-6.629-.5.109-1.443,6.083-4.233c8.436.417,11.519,5.5,11.519,5.5,4.858,2.362,2.1,7,2.1,7s1.5,8.177-7.705,12.892c-3.143-3.752,1.429-4.9,1.429-4.9,2.032-5.692-1.12-6.273-1.12-6.273a3.9,3.9,0,0,0-4.375,2.652l-.451-.035a14.816,14.816,0,0,0-1.435-4.316Z" transform="translate(-41.672 -7.42)" fill="#8b2b16"/>
            <path id="Trazado_1068011" data-name="Trazado 1068011" d="M198.6,52.31c.854-.068-.086,8.408,3.295,12.308l5.319-8.3-1.042-4.934-6.884-1.438Z" transform="translate(-44.142 -11.1)" fill="#8b2b16"/>
            <rect id="Rectángulo_425069" data-name="Rectángulo 425069" width="8.199" height="1.552" transform="translate(152.537 51.371) rotate(-85.632)" fill="#ffb288"/>
            <path id="Trazado_1068012" data-name="Trazado 1068012" d="M185.844,38.318s1.4-4.072,7.474-4.933l-6.8,6.094Z" transform="translate(-41.306 -7.42)" fill="#8b2b16"/>
            <path id="Trazado_1068013" data-name="Trazado 1068013" d="M186.281,40.8a2.156,2.156,0,0,0-1.075,1.938l-.439-2.132a2.927,2.927,0,0,1,.278-.814,1.38,1.38,0,0,1,.415-.4,1.835,1.835,0,0,1,.753-.047c.108.061.228.071.258.3a6.11,6.11,0,0,1-.19,1.149" transform="translate(-41.067 -8.739)" fill="#8b2b16"/>
            <path id="Trazado_1068014" data-name="Trazado 1068014" d="M199.318,52.334s-.121,3.436-2.444,3.06l.063-.836.176-2.325.068-.9c.1-.065,1.823-1.184,2.137,1" transform="translate(-43.757 -11.332)" fill="#f38c65"/>
            <path id="Trazado_1068015" data-name="Trazado 1068015" d="M185.032,46.559a3.755,3.755,0,0,1,3.488.461.858.858,0,0,1,.358.912.7.7,0,0,1-.04.262.877.877,0,0,0-.362-.576,3.749,3.749,0,0,0-3.488-.462Z" transform="translate(-41.115 -10.296)" fill="#8b2b16"/>
            <path id="Trazado_1068016" data-name="Trazado 1068016" d="M186.664,49.473s.21.368,1.373.262l-.755.432s-.445.018-.618-.694" transform="translate(-41.488 -10.996)" fill="#8b2b16"/>
            <path id="Trazado_1068017" data-name="Trazado 1068017" d="M188.165,49.693c.471.03.817.611.775,1.3a.374.374,0,0,1-.085.214l-1.57-.62c.128-.537.483-.916.88-.892" transform="translate(-41.626 -11.044)" fill="#8b2b16"/>
            <path id="Trazado_1068018" data-name="Trazado 1068018" d="M184.631,52.31l-1.174,4.654,2.339.288Z" transform="translate(-40.775 -11.626)" fill="#ffb288"/>
            <path id="Trazado_1068019" data-name="Trazado 1068019" d="M182.529,56.52a.484.484,0,0,0,.292.611.465.465,0,0,0,.588-.306l1.548-4.8a.482.482,0,0,0-.289-.611.463.463,0,0,0-.589.308Z" transform="translate(-40.563 -11.421)" fill="#f38c65"/>
            <path id="Trazado_1068020" data-name="Trazado 1068020" d="M182.489,58.255a.368.368,0,0,0,.3.418l2.427.185a.4.4,0,0,0,.06-.789l-2.427-.185a.369.369,0,0,0-.363.37" transform="translate(-40.56 -12.865)" fill="#f38c65"/>
            <path id="Trazado_1068021" data-name="Trazado 1068021" d="M188.482,60.6a2.319,2.319,0,0,0,1.306-.958,1.362,1.362,0,0,1,.362-.443.6.6,0,0,1,.695.089,1.053,1.053,0,0,1,.314.685,1.579,1.579,0,0,1-.8,1.522,1.441,1.441,0,0,1-1.643-.246c-.175-.171-.289-.506-.088-.643Z" transform="translate(-41.892 -13.141)" fill="#fff"/>
            <path id="Trazado_1068022" data-name="Trazado 1068022" d="M188.035,41.189a5.83,5.83,0,0,0,2.069,2.269,6.573,6.573,0,0,1,2.465,2.08,11.7,11.7,0,0,1,.6,2.2A4.378,4.378,0,0,0,196.8,50.84a1.651,1.651,0,0,0,.854-.094,1.828,1.828,0,0,0,.865-1.205c.545-1.834-.035-3.805-.718-5.581a15.472,15.472,0,0,0-3.453-5.791,6.259,6.259,0,0,0-6.087-1.723,1.624,1.624,0,0,0-1.12.924c-.17.529.464,1.112.562,1.576a8.36,8.36,0,0,0,.333,2.245" transform="translate(-41.588 -8.046)" fill="#8b2b16"/>
            <path id="Trazado_1068023" data-name="Trazado 1068023" d="M188,43.188a39.5,39.5,0,0,0,17.184,22.926c-.392-.241-.725-6.334-.954-7.217a31.95,31.95,0,0,0-12.943-18.324c-.738-.494-2.523-2.022-3.484-1.643-1.36.535-.093,3.207.2,4.258" transform="translate(-41.604 -8.639)" fill="#8b2b16"/>
            <path id="Trazado_1068024" data-name="Trazado 1068024" d="M208.077,79.17a20.82,20.82,0,0,1,7.863,2.94l-4.268.988Z" transform="translate(-46.247 -17.596)" fill="#f7665f"/>
            <path id="Trazado_1068025" data-name="Trazado 1068025" d="M191.125,83.308a3.5,3.5,0,0,0,.065,3,3.42,3.42,0,0,0,3.515,1.165,9.888,9.888,0,0,0,3.5-1.721l2.475-1.662a7.988,7.988,0,0,0,2.317-2.031,2.443,2.443,0,0,0,.1-2.807c-.861-1.112-2.633-1.045-4.095-.861-1.736.217-3.8.114-5.23,1.156a7.684,7.684,0,0,0-2.638,3.761" transform="translate(-42.412 -17.4)" fill="#ffb288"/>
            <path id="Trazado_1068026" data-name="Trazado 1068026" d="M207.6,137.265c0-.016,0-.031,0-.047,0-.042,0-.082,0-.124a4.657,4.657,0,0,0-.25-1.437,22.448,22.448,0,0,0,12.784-23.512,8.824,8.824,0,0,0,8.183-2.864,37.17,37.17,0,0,1-.675,9.8c-1.939,9.742-6.159,17.487-15.085,21.279-1.64.7-5-.745-4.966-2.527,0-.188.006-.377.008-.565" transform="translate(-46.086 -24.289)" fill="#ffb288"/>
            <path id="Trazado_1068027" data-name="Trazado 1068027" d="M164.77,136.544c0,.034-.01.066-.01.1a2.749,2.749,0,0,0,2.74,2.741h37.926a2.749,2.749,0,0,0,2.741-2.741c0-.034-.009-.066-.01-.1Z" transform="translate(-36.62 -30.348)" fill="#6d6e71"/>
            <path id="Trazado_1068028" data-name="Trazado 1068028" d="M152.173,127.685c.715,1.5,1.516,3.1,2.972,3.907a8.089,8.089,0,0,0,3.882.684l22.309.214c-4.964-8.078-6.8-15.018-11.767-23.1a9.518,9.518,0,0,0-2.9-3.377,9.99,9.99,0,0,0-5.893-1.463c-3.532.33-10.18.285-13.713.614-3.672.341-5.388.05-3.754,3.882,2.681,6.289,5.8,12.519,8.861,18.635" transform="translate(-31.715 -23.231)" fill="#939598"/>
            <path id="Trazado_1068029" data-name="Trazado 1068029" d="M166.1,125.278c-.009-.212-.023-.423-.042-.633-.795-8.6-7.95-1.195.042.633" transform="translate(-36.084 -26.798)" fill="#fff"/>
            <path id="Trazado_1068030" data-name="Trazado 1068030" d="M206.962,138.4h0a.929.929,0,0,0-.217,1.357l3.088,3.869a1.1,1.1,0,0,0,1.461.2.928.928,0,0,0,.217-1.356l-3.088-3.87a1.1,1.1,0,0,0-1.461-.2" transform="translate(-45.906 -30.719)" fill="#ffb288"/>
            <path id="Trazado_1068031" data-name="Trazado 1068031" d="M208.729,144a8.074,8.074,0,0,0-2.426-3.642,2.673,2.673,0,0,0-2.228-.817,2.185,2.185,0,0,0-1.4,1.754,10.163,10.163,0,0,0-.332,2.473,2.114,2.114,0,0,0,.157.961,2.368,2.368,0,0,0,.978.915,5.922,5.922,0,0,0,2.908.85c1.989.016,2.88-.783,2.346-2.495" transform="translate(-44.972 -31.006)" fill="#ffb288"/>
            <path id="Trazado_1068032" data-name="Trazado 1068032" d="M203.66,140.667h-5.182a.595.595,0,1,1,0-1.186h5.182a.595.595,0,1,1,0,1.186" transform="translate(-43.972 -31.001)" fill="#ffb288"/>
            <path id="Trazado_1068033" data-name="Trazado 1068033" d="M203,142.732h-5.182a.595.595,0,1,1,0-1.186H203a.595.595,0,1,1,0,1.186" transform="translate(-43.824 -31.46)" fill="#ffb288"/>
            <path id="Trazado_1068034" data-name="Trazado 1068034" d="M203.923,145.025h-5.182a.595.595,0,1,1,0-1.186h5.182a.595.595,0,1,1,0,1.186" transform="translate(-44.03 -31.97)" fill="#ffb288"/>
            <path id="Trazado_1068035" data-name="Trazado 1068035" d="M205.59,146.8h-5.182a.595.595,0,1,1,0-1.186h5.182a.595.595,0,1,1,0,1.186" transform="translate(-44.401 -32.365)" fill="#ffb288"/>
            <path id="Trazado_1068036" data-name="Trazado 1068036" d="M174.108,137.819h0a.982.982,0,0,1,.229,1.436l-3.266,4.093a1.166,1.166,0,0,1-1.546.214.983.983,0,0,1-.229-1.436l3.267-4.094a1.165,1.165,0,0,1,1.545-.213" transform="translate(-37.58 -30.587)" fill="#ffb288"/>
            <path id="Trazado_1068037" data-name="Trazado 1068037" d="M171.825,143.744a8.548,8.548,0,0,1,2.567-3.854,2.826,2.826,0,0,1,2.357-.863,2.311,2.311,0,0,1,1.483,1.855,10.761,10.761,0,0,1,.352,2.616,2.239,2.239,0,0,1-.166,1.017,2.509,2.509,0,0,1-1.034.968,6.273,6.273,0,0,1-3.077.9c-2.1.017-3.047-.828-2.482-2.64" transform="translate(-38.154 -30.89)" fill="#ffb288"/>
            <path id="Trazado_1068038" data-name="Trazado 1068038" d="M177.212,140.214h5.482a.629.629,0,1,0,0-1.255h-5.482a.629.629,0,1,0,0,1.255" transform="translate(-39.237 -30.885)" fill="#ffb288"/>
            <path id="Trazado_1068039" data-name="Trazado 1068039" d="M177.915,142.4H183.4a.629.629,0,1,0,0-1.254h-5.482a.629.629,0,1,0,0,1.254" transform="translate(-39.393 -31.371)" fill="#ffb288"/>
            <path id="Trazado_1068040" data-name="Trazado 1068040" d="M176.935,144.824h5.482a.629.629,0,1,0,0-1.254h-5.482a.629.629,0,1,0,0,1.254" transform="translate(-39.176 -31.91)" fill="#ffb288"/>
            <path id="Trazado_1068041" data-name="Trazado 1068041" d="M175.171,146.7h5.482a.629.629,0,1,0,0-1.255h-5.482a.629.629,0,1,0,0,1.255" transform="translate(-38.784 -32.328)" fill="#ffb288"/>
          </g>
        </g>
      </g>
    </g>
  </g>
</svg>
