<svg xmlns="http://www.w3.org/2000/svg" width="82.185" height="84.731" viewBox="0 0 82.185 84.731">
  <g id="postgresql" transform="translate(-0.297 -0.364)">
    <path id="Trazado_1068594" data-name="Trazado 1068594" d="M82.264,51.12A4.169,4.169,0,0,0,78.8,48.332a7.926,7.926,0,0,0-2.762.153,24.824,24.824,0,0,1-4.256.559,82.082,82.082,0,0,0,8.69-20.669c2.883-11.163,1.343-16.249-.458-18.549C75.252,3.738,68.3.467,59.913.367A35.626,35.626,0,0,0,49.462,1.831a38.91,38.91,0,0,0-6.111-.559A19.867,19.867,0,0,0,32.706,3.894a48.535,48.535,0,0,0-7.518-1.887C17.838.8,11.913,1.741,7.58,4.8,2.333,8.509-.1,14.949.35,23.943.493,26.8,2.09,35.487,4.605,43.728A68.328,68.328,0,0,0,9.187,55.419c2.261,4.285,4.681,6.808,7.4,7.714a7.271,7.271,0,0,0,7.2-1.561,6.3,6.3,0,0,0,1.514,1.3,10.071,10.071,0,0,0,2.856,1.2,15.338,15.338,0,0,0,9.985-.595c.018.519.032,1.014.043,1.442.019.694.039,1.375.064,2.011.173,4.3.466,7.65,1.333,9.992.048.129.112.325.179.533a12.029,12.029,0,0,0,3,5.281A8.943,8.943,0,0,0,49.08,85.1a14.216,14.216,0,0,0,2.957-.329c3.16-.677,6.749-1.709,9.346-5.406,2.455-3.495,3.648-8.759,3.864-17.052.028-.235.054-.459.079-.672l.051-.438.578.051.149.01A22.883,22.883,0,0,0,75.675,59.6c1.91-.886,8.03-4.117,6.589-8.48" transform="translate(0 0)"/>
    <path id="Trazado_1068595" data-name="Trazado 1068595" d="M84.256,59.465C74.686,61.439,74.027,58.2,74.027,58.2c10.1-14.994,14.329-34.026,10.684-38.684-9.945-12.706-27.16-6.7-27.447-6.541l-.092.017a34.133,34.133,0,0,0-6.385-.665,15.771,15.771,0,0,0-10.108,3.026S9.969,2.7,11.4,31.262c.3,6.076,8.709,45.977,18.735,33.925,3.664-4.407,7.205-8.133,7.205-8.133a9.294,9.294,0,0,0,6.071,1.55l.172-.145a6.688,6.688,0,0,0,.069,1.716c-2.583,2.886-1.824,3.392-6.987,4.455-5.225,1.077-2.155,2.993-.152,3.495,2.429.607,8.049,1.468,11.847-3.848l-.151.607c1.012.811,1.722,5.272,1.6,9.317s-.2,6.821.6,8.99,1.592,7.049,8.38,5.595c5.671-1.215,8.61-4.365,9.019-9.619.29-3.735.947-3.183.988-6.522l.527-1.581c.607-5.063.1-6.7,3.59-5.937l.85.075a19.354,19.354,0,0,0,7.913-1.332c4.254-1.974,6.777-5.27,2.582-4.4h0" transform="translate(-7.495 -7.497)" fill="#336791"/>
    <path id="Trazado_1068596" data-name="Trazado 1068596" d="M103.114,80.175a2.969,2.969,0,0,0-2.039.29.748.748,0,0,0-.31.5,1.453,1.453,0,0,0,.353.952,2.665,2.665,0,0,0,1.692,1.056,1.928,1.928,0,0,0,.271.019,2.194,2.194,0,0,0,2.078-1.413c.1-.752-.987-1.253-2.045-1.4m28.571.023c-.082-.589-1.131-.757-2.126-.619s-1.957.587-1.877,1.177A2.018,2.018,0,0,0,129.557,82a1.791,1.791,0,0,0,.251-.017,2.418,2.418,0,0,0,1.364-.747,1.5,1.5,0,0,0,.512-1.038" transform="translate(-68.133 -53.693)" fill="#fff"/>
    <path id="Trazado_1068597" data-name="Trazado 1068597" d="M84.8,56.493c-.365-1.1-1.54-1.458-3.491-1.056-5.794,1.2-7.869.368-8.55-.134A79.668,79.668,0,0,0,82.965,32.411a43.5,43.5,0,0,0,1.512-9.844c.047-3.045-.471-5.283-1.541-6.65-4.313-5.511-10.643-8.467-18.3-8.548A31.361,31.361,0,0,0,54.05,9.037,26.379,26.379,0,0,0,48.1,8.272a17.2,17.2,0,0,0-10.2,2.813A45.546,45.546,0,0,0,29.6,8.911c-6.717-1.081-12.054-.262-15.863,2.436C9.194,14.567,7.1,20.323,7.5,28.454c.137,2.736,1.7,11.151,4.155,19.211C14.9,58.273,18.416,64.279,22.119,65.514a4.686,4.686,0,0,0,1.484.246c1.351,0,3.007-.609,4.731-2.681q3.153-3.782,6.52-7.378a10.505,10.505,0,0,0,4.691,1.261c0,.043.007.086.011.128q-.422.5-.827,1.022C37.6,59.551,37.36,59.851,33.712,60.6c-1.038.214-3.794.782-3.835,2.714-.044,2.111,3.258,3,3.634,3.092a15.566,15.566,0,0,0,3.779.49,11,11,0,0,0,7.568-2.826c-.063,7.526.25,14.941,1.154,17.2.74,1.85,2.548,6.37,8.259,6.37a13.248,13.248,0,0,0,2.775-.315c5.96-1.278,8.548-3.912,9.55-9.719.536-3.1,1.455-10.515,1.888-14.491a11.679,11.679,0,0,0,3.358.415,19.986,19.986,0,0,0,7.623-1.453c2.154-1,6.04-3.454,5.335-5.587ZM70.605,29.629a24.112,24.112,0,0,1-.352,3.351,30.953,30.953,0,0,0-.423,3.934,29.833,29.833,0,0,0,.312,4.449c.357,2.967.722,6.022-.694,9.036a11.751,11.751,0,0,1-.628-1.29c-.176-.427-.558-1.112-1.088-2.061-2.059-3.693-6.881-12.341-4.413-15.87.735-1.05,2.6-2.13,7.286-1.549ZM64.927,9.746c6.865.152,12.3,2.72,16.141,7.633,2.949,3.769-.3,20.917-9.7,35.71q-.142-.18-.285-.359l-.119-.149c2.429-4.012,1.954-7.981,1.531-11.5a27.581,27.581,0,0,1-.3-4.09,28.968,28.968,0,0,1,.4-3.649,23.042,23.042,0,0,0,.371-4.517,1.872,1.872,0,0,0,.039-.637c-.153-1.624-2.006-6.482-5.784-10.88a26.056,26.056,0,0,0-9.2-6.913,31.006,31.006,0,0,1,6.9-.649ZM26.511,61.563c-1.9,2.283-3.21,1.845-3.641,1.7-2.809-.937-6.069-6.875-8.943-16.291A106.419,106.419,0,0,1,9.871,28.336c-.363-7.266,1.4-12.329,5.235-15.05,6.244-4.428,16.511-1.778,20.636-.433-.059.059-.121.113-.18.173-6.769,6.836-6.609,18.517-6.592,19.231,0,.275.023.665.054,1.2a48.324,48.324,0,0,1-.246,9.762,12.345,12.345,0,0,0,3.254,10.333q.4.418.842.794c-1.16,1.242-3.68,3.989-6.364,7.217Zm7.234-9.652a9.988,9.988,0,0,1-2.617-8.364,50.52,50.52,0,0,0,.265-10.23c-.017-.286-.032-.537-.041-.735.989-.877,5.572-3.332,8.84-2.583a3.6,3.6,0,0,1,2.778,3.1c1.955,9.044.259,12.813-1.1,15.842-.281.624-.546,1.214-.773,1.824l-.176.472A30.923,30.923,0,0,0,39.8,54.594a8.437,8.437,0,0,1-6.056-2.684Zm.343,12.2a5.243,5.243,0,0,1-1.582-.68,7.727,7.727,0,0,1,1.686-.5c4.292-.883,4.955-1.507,6.4-3.345.332-.422.708-.9,1.229-1.481h0c.776-.869,1.131-.721,1.774-.454a2.51,2.51,0,0,1,1.236,1.589,1.769,1.769,0,0,1-.151,1.487C41.658,64.953,37.252,64.9,34.087,64.107Zm22.462,20.9c-5.251,1.125-7.11-1.554-8.335-4.617-.791-1.977-1.179-10.893-.9-20.739a1.186,1.186,0,0,0-.051-.377,4.97,4.97,0,0,0-.147-.7A4.807,4.807,0,0,0,44.5,55.453a3.678,3.678,0,0,0-2.4-.291,29.007,29.007,0,0,1,1.034-3.094l.177-.475c.2-.535.449-1.09.712-1.677,1.427-3.169,3.38-7.51,1.26-17.316-.794-3.673-3.447-5.467-7.467-5.05A17.231,17.231,0,0,0,32.1,29.33c-.237.12-.453.236-.655.348.307-3.7,1.467-10.617,5.805-14.993a14.255,14.255,0,0,1,10.8-4.042A22.9,22.9,0,0,1,65.552,19a26.552,26.552,0,0,1,4.787,8.209c-4.426-.45-7.437.423-8.963,2.605-3.32,4.746,1.816,13.957,4.285,18.384.453.811.843,1.512.966,1.81a16.438,16.438,0,0,0,2.6,4.2c.233.291.459.573.631.82-1.341.386-3.749,1.279-3.529,5.743-.177,2.24-1.436,12.726-2.075,16.431-.844,4.895-2.645,6.718-7.709,7.8Zm21.916-25.08a17.293,17.293,0,0,1-5.844,1.216c-2.407.113-3.633-.27-3.921-.5-.135-2.782.9-3.072,2-3.38.172-.048.34-.1.5-.152a4.094,4.094,0,0,0,.332.243c1.935,1.277,5.385,1.415,10.257.409l.053-.011a13.116,13.116,0,0,1-3.376,2.179Z" transform="translate(-4.853 -4.749)" fill="#fff"/>
  </g>
</svg>
