<svg xmlns="http://www.w3.org/2000/svg" width="52.662" height="117.263" viewBox="0 0 52.662 117.263">
  <g id="mongodb-icon-2" transform="translate(-454.627 -185.573)">
    <path id="Trazado_1068599" data-name="Trazado 1068599" d="M1258.326,190.4l3.13,5.879a17.731,17.731,0,0,0,2.361,2.94,81.523,81.523,0,0,1,7.339,8.306,72.069,72.069,0,0,1,11.429,23.056,56.789,56.789,0,0,1,2.427,15.645,55.234,55.234,0,0,1-16.118,40.746,45.582,45.582,0,0,1-5.754,4.912c-1.085,0-1.6-.829-2.045-1.6a13.158,13.158,0,0,1-1.6-4.6,22.067,22.067,0,0,1-.513-5.807v-.894c-.085-.2-1.039-88.135-.658-88.589Z" transform="translate(-777.732 -4.51)" fill="#599636"/>
    <path id="Trazado_1068600" data-name="Trazado 1068600" d="M890.705,185.7c-.125-.256-.257-.066-.388.066a5.9,5.9,0,0,1-1.085,3.518,16.756,16.756,0,0,1-2.815,2.815,61.165,61.165,0,0,0-13.725,17.5,70.108,70.108,0,0,0-7.911,28.613c-.316,3.637,1.151,16.473,2.3,20.176,3.13,9.838,8.746,18.078,16.033,25.227a71.73,71.73,0,0,0,5.675,4.86c.579,0,.638-.513.769-.894a17.036,17.036,0,0,0,.579-2.486l1.282-9.575Z" transform="translate(-410.111 0)" fill="#6cac48"/>
    <path id="Trazado_1068601" data-name="Trazado 1068601" d="M1235.451,1543.252a8.674,8.674,0,0,1,1.6-3.893,4.03,4.03,0,0,1-1.789-1.657,11.73,11.73,0,0,1-.953-2.111,36.411,36.411,0,0,1-1.342-8.233V1525.7c-.316.256-.388,2.427-.388,2.749a63.409,63.409,0,0,1-1.151,8.621,7.624,7.624,0,0,1-1.026,3.321,1.221,1.221,0,0,0,.066.447,37.991,37.991,0,0,1,1.657,10.351v1.282c0,1.532-.066,1.21,1.21,1.723a5.6,5.6,0,0,1,1.6.638c.388,0,.447-.316.447-.579l-.191-2.111v-5.879A15.633,15.633,0,0,1,1235.451,1543.252Z" transform="translate(-751.726 -1251.998)" fill="#c2bfbf"/>
  </g>
</svg>
