<svg xmlns="http://www.w3.org/2000/svg" width="85" height="78" viewBox="0 0 85 78">
  <g id="Grupo_1230593" data-name="Grupo 1230593" transform="translate(-180 -1173)">
    <g id="Grupo_1230180" data-name="Grupo 1230180" transform="translate(0 -39.262)">
      <rect id="Rectángulo_423328" data-name="Rectángulo 423328" width="85" height="78" rx="15" transform="translate(180 1212.262)" fill="#eddbfd"/>
    </g>
    <g id="server_17180008" transform="translate(153.55 1188)">
      <path id="Trazado_1068574" data-name="Trazado 1068574" d="M86.967,0H51.358A1.91,1.91,0,0,0,49.45,1.908v9.928a1.91,1.91,0,0,0,1.908,1.908H86.967a1.91,1.91,0,0,0,1.908-1.908V1.908A1.91,1.91,0,0,0,86.967,0ZM55.57,8.78a1.908,1.908,0,1,1,1.908-1.908A1.908,1.908,0,0,1,55.57,8.78Zm6.861,0a1.908,1.908,0,1,1,1.908-1.908A1.908,1.908,0,0,1,62.431,8.78Z" fill="#aa52f9"/>
      <path id="Trazado_1068575" data-name="Trazado 1068575" d="M86.967,367.988H51.358A1.91,1.91,0,0,0,49.45,369.9v9.928a1.91,1.91,0,0,0,1.908,1.908H86.967a1.91,1.91,0,0,0,1.908-1.908V369.9a1.91,1.91,0,0,0-1.908-1.908Zm-31.4,8.6a1.908,1.908,0,1,1,1.908-1.908A1.908,1.908,0,0,1,55.57,376.593Zm6.861,0a1.908,1.908,0,1,1,1.908-1.908A1.908,1.908,0,0,1,62.431,376.593Z" transform="translate(0 -332.869)" fill="#aa52f9"/>
      <path id="Trazado_1068576" data-name="Trazado 1068576" d="M86.967,183.995H51.358A1.91,1.91,0,0,0,49.45,185.9v9.928a1.91,1.91,0,0,0,1.908,1.908H86.967a1.91,1.91,0,0,0,1.908-1.908V185.9a1.91,1.91,0,0,0-1.908-1.908Zm-31.4,8.48a1.908,1.908,0,1,1,1.908-1.908A1.908,1.908,0,0,1,55.57,192.475Zm6.861,0a1.908,1.908,0,1,1,1.908-1.908A1.908,1.908,0,0,1,62.431,192.475Z" transform="translate(0 -166.435)" fill="#aa52f9"/>
    </g>
  </g>
</svg>
