<svg xmlns="http://www.w3.org/2000/svg" width="95.855" height="94.754" viewBox="0 0 95.855 94.754">
  <g id="Grupo_1230192" data-name="Grupo 1230192" transform="translate(-1001.068 -2864.781)">
    <circle id="Elipse_12863" data-name="Elipse 12863" cx="27.545" cy="27.545" r="27.545" transform="translate(1001.068 2864.781)" fill="#c3b7ef"/>
    <g id="ICON" transform="translate(1009.895 2872.507)">
      <path id="Trazado_1068577" data-name="Trazado 1068577" d="M77.51,73.43H74.79V34a4.084,4.084,0,0,0-4.079-4.079H39.435a1.36,1.36,0,0,0,0,2.72H70.711A1.36,1.36,0,0,1,72.07,34V73.43H53.033a1.36,1.36,0,0,0-1.36,1.36.768.768,0,0,1-.2.458,3.341,3.341,0,0,1-.961.779,14.622,14.622,0,0,1-7,1.482,14.622,14.622,0,0,1-7-1.482,3.34,3.34,0,0,1-.961-.779.768.768,0,0,1-.2-.458A1.36,1.36,0,0,0,34,73.43H14.958V42.154a1.36,1.36,0,1,0-2.72,0V73.43H9.519v-34a1.36,1.36,0,0,0-2.72,0v34H4.079a4.008,4.008,0,0,0-2.879,1.2A4.008,4.008,0,0,0,0,77.51a9.526,9.526,0,0,0,9.519,9.519H77.51a9.532,9.532,0,0,0,9.519-9.519,4.091,4.091,0,0,0-4.079-4.079h-2.72V34a9.519,9.519,0,0,0-9.519-9.519H42.154a1.36,1.36,0,1,0,0,2.72H70.711a6.8,6.8,0,0,1,6.8,6.8Zm-4.089,2.72H54.083a5.258,5.258,0,0,1-2.2,2.225,17.372,17.372,0,0,1-8.37,1.855,17.372,17.372,0,0,1-8.37-1.855,5.258,5.258,0,0,1-2.2-2.225H4.079a1.307,1.307,0,0,0-.942.39l-.027.027a1.307,1.307,0,0,0-.39.942,6.805,6.805,0,0,0,6.8,6.8H77.51a6.73,6.73,0,0,0,4.8-1.991l.008-.008a6.73,6.73,0,0,0,1.991-4.8,1.364,1.364,0,0,0-1.36-1.36H73.44Zm-51.664-6.8h1.36a1.36,1.36,0,1,0,0-2.72h-1.36a1.36,1.36,0,1,0,0,2.72Zm23.117,0h1.36a1.36,1.36,0,1,0,0-2.72h-1.36a1.36,1.36,0,0,0,0,2.72Zm17.678,0h2.72a1.36,1.36,0,0,0,0-2.72h-2.72a1.36,1.36,0,0,0,0,2.72Zm-10.879,0H57.12a1.36,1.36,0,0,0-.008-2.72H51.673a1.36,1.36,0,0,0,0,2.72Zm-23.117,0H39.435a1.36,1.36,0,1,0,0-2.72H28.556a1.36,1.36,0,1,0,0,2.72Zm23.117-9.519h-1.36a1.36,1.36,0,1,0,0,2.72h1.36a1.36,1.36,0,0,0,0-2.72Zm-6.8,0h-2.72a1.36,1.36,0,0,0,0,2.72h2.72a1.36,1.36,0,0,0,0-2.72Zm-20.4,0h-2.72a1.36,1.36,0,0,0,0,2.72h2.72a1.36,1.36,0,1,0,0-2.72Zm12.238,0h-6.8a1.36,1.36,0,1,0,0,2.72h6.8a1.36,1.36,0,0,0,0-2.72Zm28.556,0H57.112a1.36,1.36,0,0,0,0,2.72h8.159a1.36,1.36,0,0,0,0-2.72Zm-2.72-20.4H24.477A4.077,4.077,0,0,0,20.4,43.514v8.159a4.077,4.077,0,0,0,4.079,4.079H62.552a4.077,4.077,0,0,0,4.079-4.079V43.514A4.077,4.077,0,0,0,62.552,39.435Zm0,2.72a1.359,1.359,0,0,1,1.36,1.36v8.159a1.359,1.359,0,0,1-1.36,1.36H24.477a1.359,1.359,0,0,1-1.36-1.36V43.514a1.359,1.359,0,0,1,1.36-1.36ZM45.671,47.594l-.4.4A1.36,1.36,0,0,0,47.2,49.915l.4-.4.4.4a1.36,1.36,0,0,0,1.923-1.923l-.4-.4.4-.4a1.36,1.36,0,0,0-1.923-1.923l-.4.4-.4-.4A1.36,1.36,0,0,0,45.272,47.2Zm-9.519,0-.4.4a1.36,1.36,0,0,0,1.923,1.923l.4-.4.4.4A1.36,1.36,0,0,0,40.4,47.992l-.4-.4.4-.4a1.36,1.36,0,0,0-1.923-1.923l-.4.4-.4-.4A1.36,1.36,0,1,0,35.754,47.2Zm19.037,0-.4.4a1.36,1.36,0,0,0,1.923,1.923l.4-.4.4.4a1.36,1.36,0,0,0,1.923-1.923l-.4-.4.4-.4a1.36,1.36,0,0,0-1.923-1.923l-.4.4-.4-.4A1.36,1.36,0,1,0,54.791,47.2Zm-28.556,0-.4.4a1.36,1.36,0,1,0,1.923,1.923l.4-.4.4.4a1.36,1.36,0,0,0,1.923-1.923l-.4-.4.4-.4a1.36,1.36,0,0,0-1.923-1.923l-.4.4-.4-.4A1.36,1.36,0,1,0,26.235,47.2ZM38.075,19.037A19.037,19.037,0,1,0,19.037,38.075,19.046,19.046,0,0,0,38.075,19.037Zm-2.72,0A16.318,16.318,0,1,1,19.037,2.72,16.326,16.326,0,0,1,35.355,19.037Zm-2.72,0a13.6,13.6,0,1,0-13.6,13.6A13.6,13.6,0,0,0,32.636,19.037Zm-2.72,0A10.879,10.879,0,1,1,19.037,8.159,10.884,10.884,0,0,1,29.916,19.037ZM12.637,20l4.079,4.079a1.358,1.358,0,0,0,1.923,0l6.8-6.8a1.36,1.36,0,0,0-1.923-1.923l-5.838,5.838L14.56,18.076A1.36,1.36,0,0,0,12.637,20Zm41.756.4h4.079a1.36,1.36,0,0,0,0-2.72H54.393a1.36,1.36,0,0,0,0,2.72Zm9.519,0h1.36a1.36,1.36,0,0,0,0-2.72h-1.36a1.36,1.36,0,1,0,0,2.72Zm-20.4,0h5.439a1.36,1.36,0,0,0,0-2.72H43.514a1.36,1.36,0,1,0,0,2.72Zm14.958-6.8h6.8a1.36,1.36,0,1,0,0-2.72h-6.8a1.36,1.36,0,1,0,0,2.72Zm-16.318,0H53.033a1.36,1.36,0,1,0,0-2.72H42.154a1.36,1.36,0,1,0,0,2.72Zm9.519-6.8h2.72a1.36,1.36,0,1,0,0-2.72h-2.72a1.36,1.36,0,1,0,0,2.72Zm-12.238,0h6.8a1.36,1.36,0,0,0,0-2.72h-6.8a1.36,1.36,0,0,0,0,2.72Zm20.4,0h2.72a1.36,1.36,0,0,0,0-2.72h-2.72a1.36,1.36,0,0,0,0,2.72Z" fill="#353535" fill-rule="evenodd"/>
    </g>
  </g>
</svg>
