<svg xmlns="http://www.w3.org/2000/svg" xmlns:xlink="http://www.w3.org/1999/xlink" width="400" height="432" viewBox="0 0 400 432">
  <defs>
    <clipPath id="clip-path">
      <rect id="Rectángulo_423999" data-name="Rectángulo 423999" width="400" height="432" transform="translate(1020 290)" fill="#5c2c88" opacity="0.52"/>
    </clipPath>
    <linearGradient id="linear-gradient" x1="0.5" x2="0.5" y2="1" gradientUnits="objectBoundingBox">
      <stop offset="0" stop-color="#903cdf"/>
      <stop offset="1" stop-color="#481e70"/>
    </linearGradient>
    <filter id="Elipse_13846" x="27" y="41" width="116" height="116" filterUnits="userSpaceOnUse">
      <feOffset dy="3" input="SourceAlpha"/>
      <feGaussianBlur stdDeviation="3" result="blur"/>
      <feFlood flood-opacity="0.161"/>
      <feComposite operator="in" in2="blur"/>
      <feComposite in="SourceGraphic"/>
    </filter>
    <filter id="Elipse_13847" x="251" y="249" width="158" height="158" filterUnits="userSpaceOnUse">
      <feOffset dy="3" input="SourceAlpha"/>
      <feGaussianBlur stdDeviation="3" result="blur-2"/>
      <feFlood flood-opacity="0.161"/>
      <feComposite operator="in" in2="blur-2"/>
      <feComposite in="SourceGraphic"/>
    </filter>
    <clipPath id="clip-path-2">
      <path id="Trazado_1068183" data-name="Trazado 1068183" d="M128.982,95.539a158.832,158.832,0,0,1-18.036,3.352A140.826,140.826,0,0,1,115,139.9c-.5,9.044-2.734,14.789-9.167,21.078a3.526,3.526,0,0,0-.732,2.419c-.084,2.224,2.6,2.672,4.2,3.467,4.662,2.314,9.188,4.9,13.758,7.375l7.168,3.479c14.12-35.022,8.53-58.978,2.567-82.654-1.269.164-2.539.317-3.809.472" transform="translate(-105.096 -95.067)" fill="none"/>
    </clipPath>
    <clipPath id="clip-path-3">
      <rect id="Rectángulo_425164" data-name="Rectángulo 425164" width="400" height="384.98" fill="none"/>
    </clipPath>
    <clipPath id="clip-path-4">
      <path id="Trazado_1068192" data-name="Trazado 1068192" d="M100.607,127.065c-3.061.987-7.176,3.337-7.942,6.694a12.5,12.5,0,0,0,.115,4.669q.441,2.871.944,5.733c.5,2.869,1.035,5.736,1.684,8.569a1.738,1.738,0,0,1-.358,1.716,2.125,2.125,0,0,1-1.444.332,11.875,11.875,0,0,0,6.17,4.657,11.546,11.546,0,0,0,7.717-.251,10.21,10.21,0,0,0,2.207-1.036,6,6,0,0,0,1.573-1.857.2.2,0,0,0,.034-.188.208.208,0,0,0-.15-.086,2.325,2.325,0,0,1-1.571-1.033,2.672,2.672,0,0,1-.236-1.047,15.117,15.117,0,0,1,0-2.216c.018-.253-.053-.707.247-.753a4.255,4.255,0,0,1,.782.116,4.82,4.82,0,0,0,2.708-.589,7.843,7.843,0,0,0,3.521-6.029c.547-4.936-1.907-13.287-6.133-16.384a10.023,10.023,0,0,0-5.834-1.618,13.419,13.419,0,0,0-4.032.6" transform="translate(-92.485 -126.462)" fill="none"/>
    </clipPath>
    <linearGradient id="linear-gradient-2" x1="0.682" y1="0.175" x2="0.278" y2="0.898" gradientUnits="objectBoundingBox">
      <stop offset="0" stop-color="#41873f"/>
      <stop offset="0.329" stop-color="#418b3d"/>
      <stop offset="0.635" stop-color="#419637"/>
      <stop offset="0.932" stop-color="#3fa92d"/>
      <stop offset="1" stop-color="#3fae2a"/>
    </linearGradient>
    <linearGradient id="linear-gradient-3" x1="0.433" y1="0.552" x2="1.592" y2="-0.183" gradientUnits="objectBoundingBox">
      <stop offset="0.138" stop-color="#41873f"/>
      <stop offset="0.403" stop-color="#54a044"/>
      <stop offset="0.714" stop-color="#66b848"/>
      <stop offset="0.908" stop-color="#6cc04a"/>
    </linearGradient>
    <linearGradient id="linear-gradient-4" x1="-44.138" y1="0.134" x2="53.279" y2="0.134" gradientUnits="objectBoundingBox">
      <stop offset="0.092" stop-color="#6cc04a"/>
      <stop offset="0.286" stop-color="#66b848"/>
      <stop offset="0.597" stop-color="#54a044"/>
      <stop offset="0.862" stop-color="#41873f"/>
    </linearGradient>
    <linearGradient id="linear-gradient-5" x1="-0.044" y1="0.5" x2="1.015" y2="0.5" xlink:href="#linear-gradient-4"/>
    <linearGradient id="linear-gradient-6" x1="-97.138" y1="0.362" x2="0.279" y2="0.362" xlink:href="#linear-gradient-4"/>
    <linearGradient id="linear-gradient-7" x1="-1.039" y1="0.503" x2="1.008" y2="0.503" xlink:href="#linear-gradient-4"/>
    <linearGradient id="linear-gradient-8" x1="1.306" y1="-2.111" x2="0.044" y2="2.016" xlink:href="#linear-gradient-2"/>
  </defs>
  <g id="Enmascarar_grupo_1211602" data-name="Enmascarar grupo 1211602" transform="translate(-1020 -290)" clip-path="url(#clip-path)">
    <rect id="Rectángulo_423507" data-name="Rectángulo 423507" width="278" height="432" rx="13" transform="translate(1081 290)" fill="url(#linear-gradient)"/>
    <g transform="matrix(1, 0, 0, 1, 1020, 290)" filter="url(#Elipse_13846)">
      <circle id="Elipse_13846-2" data-name="Elipse 13846" cx="49" cy="49" r="49" transform="translate(36 47)" fill="#f6ecfe"/>
    </g>
    <g transform="matrix(1, 0, 0, 1, 1020, 290)" filter="url(#Elipse_13847)">
      <circle id="Elipse_13847-2" data-name="Elipse 13847" cx="70" cy="70" r="70" transform="translate(260 255)" fill="#f6ecfe"/>
    </g>
    <g id="Grupo_1230506" data-name="Grupo 1230506" transform="translate(1020 320.371)">
      <g id="Grupo_1230508" data-name="Grupo 1230508">
        <g id="Grupo_1230496" data-name="Grupo 1230496">
          <g id="Grupo_1230509" data-name="Grupo 1230509">
            <path id="Trazado_1068148" data-name="Trazado 1068148" d="M300.3,355.236a81.716,81.716,0,0,0,22.939-15.571,76.1,76.1,0,0,0,3.63-105.415c-6.6-7.357-14.573-13.364-21.367-20.542-25.643-27.092-25.592-66.379-48.555-94.327-9.54-11.611-22.553-19.934-36.216-26.195-26.859-12.307-57.617-17.194-86.407-10.562-36.933,8.507-69.483,40.872-80.981,76.99-5.54,17.4-4.741,37.3,4.675,52.95,9.655,16.047,26.776,25.833,40.169,38.921,18.837,18.408,30,43.035,44.15,65.245,7.669,12.034,16.529,23.681,28.369,31.645,13.637,9.173,30.215,12.8,46.5,15.039,27.792,3.822,58.245,3.267,83.1-8.179" transform="translate(-3.647 -5.824)" fill="#e8e0ff"/>
            <ellipse id="Elipse_14152" data-name="Elipse 14152" cx="4.251" cy="6.346" rx="4.251" ry="6.346" transform="translate(240.336 209.991)" fill="none" stroke="#000" stroke-linecap="round" stroke-miterlimit="10" stroke-width="1"/>
            <path id="Trazado_1068149" data-name="Trazado 1068149" d="M403.778,73.841a14.134,14.134,0,0,1,.539,15.525" transform="translate(-29.525 -5.399)" fill="none" stroke="#000" stroke-linecap="round" stroke-miterlimit="10" stroke-width="1"/>
            <path id="Trazado_1068150" data-name="Trazado 1068150" d="M384.056,87.694c-6.443,0-11.667-5.7-11.667-5.7s5.224-5.7,11.667-5.7S395.722,82,395.722,82,390.5,87.694,384.056,87.694Z" transform="translate(-27.23 -5.579)" fill="none" stroke="#1c1c1b" stroke-miterlimit="10" stroke-width="1"/>
            <path id="Trazado_1068151" data-name="Trazado 1068151" d="M384.529,87.709c-2.81,0-5.089-2.554-5.089-5.7s2.279-5.7,5.089-5.7,5.089,2.554,5.089,5.7-2.279,5.7-5.089,5.7" transform="translate(-27.745 -5.579)"/>
            <line id="Línea_4805" data-name="Línea 4805" x1="3.567" y2="9.589" transform="translate(329.963 70.966)" fill="none" stroke="#000" stroke-linecap="round" stroke-miterlimit="10" stroke-width="1"/>
            <line id="Línea_4806" data-name="Línea 4806" x1="3.567" y2="9.589" transform="translate(334.499 70.966)" fill="none" stroke="#000" stroke-linecap="round" stroke-miterlimit="10" stroke-width="1"/>
            <path id="Trazado_1068152" data-name="Trazado 1068152" d="M23.36,237.484a.874.874,0,1,1-.874-.855.864.864,0,0,1,.874.855" transform="translate(-1.58 -17.303)"/>
            <path id="Trazado_1068153" data-name="Trazado 1068153" d="M23.36,237.484a.874.874,0,1,1-.874-.855A.864.864,0,0,1,23.36,237.484Z" transform="translate(-1.58 -17.303)" fill="none" stroke="#000" stroke-miterlimit="10" stroke-width="1"/>
            <path id="Trazado_1068154" data-name="Trazado 1068154" d="M23.36,242.092a.874.874,0,1,1-.874-.855.864.864,0,0,1,.874.855" transform="translate(-1.58 -17.64)"/>
            <path id="Trazado_1068155" data-name="Trazado 1068155" d="M23.36,242.092a.874.874,0,1,1-.874-.855A.864.864,0,0,1,23.36,242.092Z" transform="translate(-1.58 -17.64)" fill="none" stroke="#000" stroke-miterlimit="10" stroke-width="1"/>
            <path id="Trazado_1068156" data-name="Trazado 1068156" d="M37.488,239.417c0,3.066-1.76,5.552-3.932,5.552s-3.931-2.486-3.931-5.552,1.76-5.553,3.931-5.553S37.488,236.35,37.488,239.417Z" transform="translate(-2.166 -17.1)" fill="none" stroke="#000" stroke-linecap="round" stroke-miterlimit="10" stroke-width="1"/>
            <path id="Trazado_1068157" data-name="Trazado 1068157" d="M50.684,239.417c0,3.066-1.76,5.552-3.931,5.552s-3.932-2.486-3.932-5.552,1.76-5.553,3.932-5.553S50.684,236.35,50.684,239.417Z" transform="translate(-3.131 -17.1)" fill="none" stroke="#000" stroke-linecap="round" stroke-miterlimit="10" stroke-width="1"/>
            <path id="Trazado_1068158" data-name="Trazado 1068158" d="M200.856,393.322l-8.952,6.623,8.455,5.6" transform="translate(-14.032 -28.76)" fill="none" stroke="#000" stroke-linecap="round" stroke-miterlimit="10" stroke-width="1"/>
            <line id="Línea_4807" data-name="Línea 4807" x1="3.979" y2="11.207" transform="translate(209.702 365.071)" fill="none" stroke="#000" stroke-linecap="round" stroke-miterlimit="10" stroke-width="1"/>
            <line id="Línea_4808" data-name="Línea 4808" x1="3.979" y2="11.207" transform="translate(215.67 365.071)" fill="none" stroke="#000" stroke-linecap="round" stroke-miterlimit="10" stroke-width="1"/>
            <rect id="Rectángulo_425153" data-name="Rectángulo 425153" width="9.375" height="7.941" transform="translate(193.126 366.458)"/>
            <line id="Línea_4809" data-name="Línea 4809" x1="17.593" transform="translate(187.102 59.326)" fill="none" stroke="#000" stroke-linecap="round" stroke-miterlimit="10" stroke-width="1"/>
            <path id="Trazado_1068159" data-name="Trazado 1068159" d="M225.048,57.25l9.879,6.977-9.33,5.9" transform="translate(-16.456 -4.186)" fill="none" stroke="#000" stroke-linecap="round" stroke-miterlimit="10" stroke-width="1"/>
            <path id="Trazado_1068160" data-name="Trazado 1068160" d="M252.553,123.574H196.367A3.368,3.368,0,0,1,193,120.206V103.79a3.369,3.369,0,0,1,3.369-3.369h56.186a3.369,3.369,0,0,1,3.368,3.369v16.416a3.368,3.368,0,0,1-3.368,3.368" transform="translate(-14.112 -7.343)" fill="#b49eff"/>
            <line id="Línea_4810" data-name="Línea 4810" y1="12.497" x2="7.902" transform="translate(224.482 76.458)" fill="none" stroke="#000" stroke-linecap="round" stroke-linejoin="round" stroke-width="1"/>
            <line id="Línea_4811" data-name="Línea 4811" x2="7.083" y2="11.536" transform="translate(207.695 123.028)" fill="none" stroke="#000" stroke-linecap="round" stroke-linejoin="round" stroke-width="1"/>
            <line id="Línea_4812" data-name="Línea 4812" x2="19.764" y2="0.026" transform="translate(248.845 105.745)" fill="none" stroke="#000" stroke-linecap="round" stroke-linejoin="round" stroke-width="1"/>
            <line id="Línea_4813" data-name="Línea 4813" y1="12.497" x2="7.901" transform="translate(165.738 122.548)" fill="none" stroke="#000" stroke-linecap="round" stroke-linejoin="round" stroke-width="1"/>
            <line id="Línea_4814" data-name="Línea 4814" x2="18.244" y2="17.764" transform="translate(158.937 69.642)" fill="none" stroke="#000" stroke-linecap="round" stroke-linejoin="round" stroke-width="1"/>
            <line id="Línea_4815" data-name="Línea 4815" x1="0.48" y2="21.605" transform="translate(167.099 172.865)" fill="none" stroke="#000" stroke-linecap="round" stroke-linejoin="round" stroke-width="1"/>
            <line id="Línea_4816" data-name="Línea 4816" y1="12.497" x2="6.68" transform="translate(288.681 123.877)" fill="none" stroke="#000" stroke-linecap="round" stroke-linejoin="round" stroke-width="1"/>
            <path id="Trazado_1068161" data-name="Trazado 1068161" d="M268.053,175.632H211.867a3.369,3.369,0,0,1-3.369-3.369V155.848a3.37,3.37,0,0,1,3.369-3.369h56.186a3.369,3.369,0,0,1,3.368,3.369v16.415a3.368,3.368,0,0,1-3.368,3.369" transform="translate(-15.246 -11.149)" fill="#b49eff"/>
            <path id="Rectángulo_425154" data-name="Rectángulo 425154" d="M3.635,0H59.288a3.635,3.635,0,0,1,3.635,3.635V19.518a3.635,3.635,0,0,1-3.635,3.635H3.634A3.634,3.634,0,0,1,0,19.519V3.635A3.635,3.635,0,0,1,3.635,0Z" transform="translate(196.028 144.113)" fill="none" stroke="#000" stroke-linecap="round" stroke-linejoin="round" stroke-width="1"/>
            <path id="Rectángulo_425155" data-name="Rectángulo 425155" d="M3.634,0H59.288a3.635,3.635,0,0,1,3.635,3.635V19.518a3.635,3.635,0,0,1-3.635,3.635H3.634A3.634,3.634,0,0,1,0,19.519V3.634A3.634,3.634,0,0,1,3.634,0Z" transform="translate(181.661 95.862)" fill="none" stroke="#000" stroke-linecap="round" stroke-linejoin="round" stroke-width="1"/>
            <path id="Trazado_1068162" data-name="Trazado 1068162" d="M348.189,175.886H292a3.369,3.369,0,0,1-3.369-3.369V156.1A3.369,3.369,0,0,1,292,152.733h56.185a3.368,3.368,0,0,1,3.368,3.369v16.415a3.368,3.368,0,0,1-3.368,3.369" transform="translate(-21.105 -11.168)" fill="#b49eff"/>
            <path id="Rectángulo_425156" data-name="Rectángulo 425156" d="M3.635,0H59.288a3.635,3.635,0,0,1,3.635,3.635V19.518a3.635,3.635,0,0,1-3.635,3.635H3.634A3.634,3.634,0,0,1,0,19.519V3.635A3.635,3.635,0,0,1,3.635,0Z" transform="translate(271.24 144.349)" fill="none" stroke="#000" stroke-linecap="round" stroke-linejoin="round" stroke-width="1"/>
            <path id="Trazado_1068163" data-name="Trazado 1068163" d="M333.954,172.489l-8.538-11.643L314.67,172.489Z" transform="translate(-23.009 -11.761)" fill="#1d1d1b"/>
            <path id="Trazado_1068164" data-name="Trazado 1068164" d="M353.72,123.711H297.534a3.369,3.369,0,0,1-3.369-3.369V103.927a3.369,3.369,0,0,1,3.369-3.369H353.72a3.369,3.369,0,0,1,3.369,3.369v16.415a3.369,3.369,0,0,1-3.369,3.369" transform="translate(-21.51 -7.353)" fill="#ff6363"/>
            <rect id="Rectángulo_425157" data-name="Rectángulo 425157" width="62.924" height="23.153" rx="3.635" transform="translate(276.367 95.989)" fill="none" stroke="#000" stroke-linecap="round" stroke-linejoin="round" stroke-width="1"/>
            <path id="Trazado_1068165" data-name="Trazado 1068165" d="M338.232,118.438,329.695,106.8l-10.747,11.643Z" transform="translate(-23.322 -7.809)" fill="#1d1d1b"/>
            <path id="Trazado_1068166" data-name="Trazado 1068166" d="M234.806,114.2a6.306,6.306,0,1,1-6.306-6.306,6.306,6.306,0,0,1,6.306,6.306" transform="translate(-16.247 -7.889)" fill="#1d1d1b"/>
            <path id="Trazado_1068167" data-name="Trazado 1068167" d="M226.295,237.008H170.109a3.369,3.369,0,0,1-3.369-3.369V217.224a3.369,3.369,0,0,1,3.369-3.369h56.186a3.369,3.369,0,0,1,3.369,3.369v16.415a3.369,3.369,0,0,1-3.369,3.369" transform="translate(-12.192 -15.637)" fill="#b49eff"/>
            <path id="Rectángulo_425158" data-name="Rectángulo 425158" d="M3.635,0H59.288a3.635,3.635,0,0,1,3.635,3.635V19.518a3.635,3.635,0,0,1-3.635,3.635H3.634A3.634,3.634,0,0,1,0,19.519V3.635A3.635,3.635,0,0,1,3.635,0Z" transform="translate(158.26 201.002)" fill="none" stroke="#000" stroke-linecap="round" stroke-linejoin="round" stroke-width="1"/>
            <path id="Trazado_1068168" data-name="Trazado 1068168" d="M200.329,233.928a6.3,6.3,0,0,0,0-12.6Z" transform="translate(-14.648 -16.184)" fill="#1d1d1b"/>
            <path id="Trazado_1068169" data-name="Trazado 1068169" d="M322.3,73.825H257.291a3.368,3.368,0,0,1-3.368-3.368V50.793a3.368,3.368,0,0,1,3.368-3.369H322.3a3.369,3.369,0,0,1,3.369,3.369V70.457a3.369,3.369,0,0,1-3.369,3.368" transform="translate(-18.567 -3.468)" fill="#b49eff"/>
            <path id="Rectángulo_425159" data-name="Rectángulo 425159" d="M3.634,0H68.117a3.634,3.634,0,0,1,3.634,3.634V22.766A3.635,3.635,0,0,1,68.116,26.4H3.635A3.635,3.635,0,0,1,0,22.766V3.634A3.634,3.634,0,0,1,3.634,0Z" transform="translate(239.589 47.131)" fill="none" stroke="#000" stroke-linecap="round" stroke-linejoin="round" stroke-width="1"/>
            <path id="Trazado_1068170" data-name="Trazado 1068170" d="M300.555,63.22a7.191,7.191,0,1,1-7.191-7.191,7.19,7.19,0,0,1,7.191,7.191" transform="translate(-20.925 -4.097)" fill="#1d1d1b"/>
            <path id="Trazado_1068171" data-name="Trazado 1068171" d="M183.886,175.632H127.7a3.369,3.369,0,0,1-3.369-3.369V155.848a3.37,3.37,0,0,1,3.369-3.369h56.186a3.37,3.37,0,0,1,3.369,3.369v16.415a3.369,3.369,0,0,1-3.369,3.369" transform="translate(-9.091 -11.149)" fill="#b49eff"/>
            <path id="Rectángulo_425160" data-name="Rectángulo 425160" d="M3.635,0H59.288a3.635,3.635,0,0,1,3.635,3.635V19.518a3.635,3.635,0,0,1-3.635,3.635H3.634A3.634,3.634,0,0,1,0,19.519V3.635A3.635,3.635,0,0,1,3.635,0Z" transform="translate(118.015 144.113)" fill="none" stroke="#000" stroke-linecap="round" stroke-linejoin="round" stroke-width="1"/>
            <rect id="Rectángulo_425161" data-name="Rectángulo 425161" width="19.404" height="8.732" transform="translate(138.368 149.224)" fill="#1d1d1b"/>
            <path id="Trazado_1068172" data-name="Trazado 1068172" d="M58.435,375.381l-19.857-9.8a124.67,124.67,0,0,0-.211,17.176c.387,6.739-.335,18.11,4.842,18.485,3.622.262,10.369-.4,14.027-.4a68.669,68.669,0,0,1,.285-13.7c.376-3.549.654-7.658.913-11.765" transform="translate(-2.791 -26.732)" fill="#ff6363"/>
            <path id="Trazado_1068173" data-name="Trazado 1068173" d="M37.811,409.452c-.007-.059-.013-.119-.018-.177-.259-3.156-.613-6.072-.567-9.274.033-2.275-.085-4.957.762-7.093,6.266.362,12.641-.13,18.967.3,1.262.085,1.513,2.872,2.288,3.653,1.537,1.547,4.534,2.359,6.57,2.926,4.246,1.185,8.606,1.886,12.128,4.782,1.832,1.506,6.028,6.981,2.53,8.8-1.426.74-4.261.063-5.785-.006q-3.776-.174-7.548-.413-14.294-.909-28.506-2.779a1.033,1.033,0,0,1-.622-.228.821.821,0,0,1-.2-.488" transform="translate(-2.722 -28.73)" fill="#7a5ce0"/>
            <path id="Trazado_1068174" data-name="Trazado 1068174" d="M37.547,407.606q22.316,1.735,44.531,4.554" transform="translate(-2.745 -29.805)" fill="none" stroke="#000" stroke-linecap="round" stroke-linejoin="round" stroke-width="1"/>
            <path id="Trazado_1068175" data-name="Trazado 1068175" d="M71.907,403.81a5.71,5.71,0,0,0,2.607-2.162,1.087,1.087,0,0,0,.234-.726.826.826,0,0,0-.92-.594,2.41,2.41,0,0,0-1.083.509l-2.487,1.732a1.773,1.773,0,0,1-.771.367.605.605,0,0,1-.675-.4,1.552,1.552,0,0,1,.661-1.147,4.771,4.771,0,0,0,1-.924.961.961,0,0,0-.069-1.246,1,1,0,0,0-.825-.135c-1.391.284-2.137,1.96-3.513,2.313a.584.584,0,0,1-.407-.009.565.565,0,0,1-.186-.658c.245-.938,1.363-1.528,1.4-2.5a.717.717,0,0,0-.121-.465.832.832,0,0,0-.874-.183c-1.325.349-1.97,1.814-2.431,3.1" transform="translate(-4.64 -29.069)" fill="none" stroke="#000" stroke-linecap="round" stroke-linejoin="round" stroke-width="1"/>
            <path id="Trazado_1068176" data-name="Trazado 1068176" d="M43.157,403.414a2.283,2.283,0,0,0,2.792-3.437,1.543,1.543,0,0,0-.664-.535,2.168,2.168,0,0,0-1.127-.027,3.3,3.3,0,0,0-2,.887,1.832,1.832,0,0,0,1.036,3.011" transform="translate(-3.05 -29.201)" fill="none" stroke="#000" stroke-linecap="round" stroke-linejoin="round" stroke-width="1"/>
            <path id="Trazado_1068177" data-name="Trazado 1068177" d="M124.452,374.639l-19.857-9.8a124.522,124.522,0,0,0-.21,17.176c.387,6.739-.336,18.11,4.841,18.485,3.622.262,10.369-.4,14.027-.4a68.668,68.668,0,0,1,.285-13.7c.376-3.549.654-7.658.913-11.765" transform="translate(-7.618 -26.678)" fill="#ff6363"/>
            <path id="Trazado_1068178" data-name="Trazado 1068178" d="M103.828,408.71c-.007-.059-.013-.119-.018-.177-.259-3.156-.614-6.072-.567-9.274.033-2.275-.085-4.957.762-7.093,6.266.362,12.641-.13,18.967.3,1.262.085,1.513,2.872,2.288,3.653,1.537,1.547,4.534,2.358,6.57,2.926,4.246,1.185,8.606,1.886,12.128,4.782,1.831,1.506,6.028,6.981,2.529,8.8-1.425.74-4.26.063-5.784-.007q-3.776-.174-7.549-.414-14.294-.908-28.506-2.778a1.033,1.033,0,0,1-.622-.228.821.821,0,0,1-.2-.488" transform="translate(-7.549 -28.676)" fill="#7a5ce0"/>
            <path id="Trazado_1068179" data-name="Trazado 1068179" d="M109.467,56.875c.13.967.237,1.941.282,2.925.419,9.218,1.543,18.39,1.7,27.649.109,6.6.34,20.655,10.195,20.144a15.455,15.455,0,0,0,5.94-1.935c1.877-.931,3.851-2.041,4.736-3.941.907-1.947.442-4.226-.04-6.319q-2.149-9.337-4.3-18.674c-1.3-5.658-3.226-11.272-3.86-17.055-.163-1.487-.029-5.549-2-6a1.362,1.362,0,0,0-1.42.584,4.509,4.509,0,0,0-.384-1.483,1.529,1.529,0,0,0-1.186-.872c-.808-.05-1.393.729-1.819,1.418a5.525,5.525,0,0,0-.481-1.593,1.865,1.865,0,0,0-1.264-1,1.817,1.817,0,0,0-1.622.7,4.345,4.345,0,0,0-.769,1.665c-.248.894-.172,2.941-.781,3.564-.733-.807-.8-2.377-.749-3.429a17.732,17.732,0,0,1,.664-3.569,2.47,2.47,0,0,0-.1-2.149c-1.982-2.5-3.579,2.541-3.469,3.9.146,1.817.479,3.638.728,5.484" transform="translate(-7.951 -3.423)" fill="#ff6363"/>
            <path id="Trazado_1068180" data-name="Trazado 1068180" d="M128.983,95.539a158.946,158.946,0,0,1-18.036,3.352A140.791,140.791,0,0,1,115,139.9c-.5,9.044-2.733,14.789-9.167,21.077a3.534,3.534,0,0,0-.731,2.419c-.084,2.224,2.6,2.673,4.2,3.467,4.664,2.314,9.188,4.9,13.758,7.375l7.169,3.478c14.119-35.021,8.53-58.977,2.567-82.653-1.268.164-2.538.317-3.807.472" transform="translate(-7.685 -6.951)" fill="#7a5ce0"/>
            <path id="Trazado_1068181" data-name="Trazado 1068181" d="M150.026,62.814H66.243a3.368,3.368,0,0,1-3.368-3.368V37.972A3.368,3.368,0,0,1,66.243,34.6h83.782a3.369,3.369,0,0,1,3.369,3.369V59.446a3.369,3.369,0,0,1-3.369,3.368" transform="translate(-4.598 -2.53)" fill="#b49eff"/>
            <path id="Rectángulo_425162" data-name="Rectángulo 425162" d="M3.634,0H86.886A3.634,3.634,0,0,1,90.52,3.634V24.576a3.635,3.635,0,0,1-3.635,3.635H3.635A3.635,3.635,0,0,1,0,24.576V3.634A3.634,3.634,0,0,1,3.634,0Z" transform="translate(63.617 35.465)" fill="none" stroke="#000" stroke-linecap="round" stroke-linejoin="round" stroke-width="1"/>
          </g>
        </g>
        <g id="Grupo_1230498" data-name="Grupo 1230498" transform="translate(97.411 88.116)">
          <g id="Grupo_1230497" data-name="Grupo 1230497" clip-path="url(#clip-path-2)">
            <path id="Trazado_1068182" data-name="Trazado 1068182" d="M139.808,141.845c2.8.247,7.367-1.737,6.867-5.11a4.6,4.6,0,0,0-.621-1.517c-1.564-2.81-3.458-5.16-6.953-2.889a7.248,7.248,0,0,0-2.848,4.115,5.011,5.011,0,0,0-.193,2.371,4.144,4.144,0,0,0,3.72,3.027l.028,0" transform="translate(-107.355 -97.725)"/>
          </g>
        </g>
        <g id="Grupo_1230500" data-name="Grupo 1230500">
          <g id="Grupo_1230499" data-name="Grupo 1230499" clip-path="url(#clip-path-3)">
            <path id="Trazado_1068184" data-name="Trazado 1068184" d="M59.209,260.362l.27-.926c2.7-9.285,5.435-18.563,8.109-27.856,1.683-5.85.589-12.542,2.168-17.856,3.275-11.034,29.507-6.439,39.187-7.453,5.072-.531,13.73-3.105,18.011.939,3.832,3.619,3.96,12.663,4.849,17.617,4.215,23.481,2.744,47.565,1.258,71.374q-1.5,23.975-2.994,47.949c-.542,8.689-.418,17.7-2.1,26.184-12.5,2.405-27.062.88-39.645-.527L96,310c2.419-18.829,5.063-37.734,5.851-56.734-1.943,9.217-5.647,18.226-8.279,27.293-2.983,10.276-5.746,20.616-8.813,30.869-1.568,5.241-15.643,59.2-17.666,59.06l-39.1-2.9Q43.6,313.974,59.209,260.362" transform="translate(-2.047 -14.988)"/>
            <path id="Trazado_1068185" data-name="Trazado 1068185" d="M122.924,162.458a38.311,38.311,0,0,0-13.05-4.792c-5.316-.972-10.39-.913-16.368-.687-6.458.244-10.727,1.888-15.177,6.822-5.265,5.837-6.82,13.015-7.37,20.616q-1.007,13.91-2.014,27.818c21.846-.625,44.375.235,66.088-2.014,2.712-.282-4.5-34.857-5.093-37.77a16.318,16.318,0,0,0-1.8-5.416,13.514,13.514,0,0,0-4.309-4q-.456-.3-.911-.574" transform="translate(-5.041 -11.468)" fill="#7a5ce0"/>
            <path id="Trazado_1068186" data-name="Trazado 1068186" d="M116.241,131.568a13.734,13.734,0,0,1,.036,2.351,2.742,2.742,0,0,1-.574,1.722c-1.906,2.029-6.106-4.981-6.849-6.241-1.065-1.808-2.205-4.334-1.727-6.48a2.905,2.905,0,0,1,2.464-2.335c1.363-.064,2.794,1.566,3.465,2.584a18.93,18.93,0,0,1,3.185,8.4" transform="translate(-7.825 -8.817)"/>
            <path id="Trazado_1068187" data-name="Trazado 1068187" d="M100.5,126.589q-.615.293-1.2.62c-2.136,1.182-4.5,2.715-4.9,5.325a24.16,24.16,0,0,0-.258,3.686,61.957,61.957,0,0,0,.594,7.419q.388,3.214.777,6.428c.115.948.723,3.762-.345,4.366a1.291,1.291,0,0,1-.549.114,4.9,4.9,0,0,0-1.107.219c.044-.014,1.182,1.4,1.357,1.526.494.362.933.8,1.423,1.173a11.714,11.714,0,0,0,3.557,1.874,11.545,11.545,0,0,0,7.717-.25,10.214,10.214,0,0,0,2.207-1.037,5.119,5.119,0,0,0,1.427-1.606,1.08,1.08,0,0,0-.484-1.5,3.284,3.284,0,0,1-.6-.382,1.929,1.929,0,0,1-.736-1.255c-.075-.728-.222-2.168.437-2.6.693-.453,1.985-.461,2.79-.839,2.884-1.356,3.465-3.8,3.3-6.8a33.325,33.325,0,0,0-1.728-8.931c-.619-1.818-1.4-3.585-1.847-5.451a5.6,5.6,0,0,0-.763-2.1c-.65-.871-1.431-.8-2.376-.918-.9-.116-1.747-.457-2.685-.5a12.809,12.809,0,0,0-6.008,1.423" transform="translate(-6.838 -9.152)" fill="#ff6363"/>
            <path id="Trazado_1068188" data-name="Trazado 1068188" d="M73.042,150.9a28.624,28.624,0,0,0,3.619,5.314c1.469,1.73,2.738,1.31,4.764.484a21.158,21.158,0,0,1,10.646-1.386,4.211,4.211,0,0,0,1.437.035c1.36-.3,1.591-1.925,1.931-3.049.9-2.992.462-5.97.86-9.03a9.369,9.369,0,0,1,1.292-3.789c.659-1.042,1.69-1.535,2.442-2.442,1.743-2.1-.586-4.816.956-6.661a7.438,7.438,0,0,1,3.187-1.822c2.284-.769,5.46-.866,6.8-3.21a4.529,4.529,0,0,0-.834-5.115,8.366,8.366,0,0,0-4.907-2.347,15.01,15.01,0,0,0-11.743,3.152c-1.752,1.433-3.081,3.468-5.14,4.419-2.245,1.037-4.717,1.586-6.788,2.985a36.914,36.914,0,0,0-3.043,2.542c-2.738,2.309-6.342,4.872-7.587,8.384-1.1,3.1-.157,6.551,1.167,9.565.291.664.606,1.324.944,1.972" transform="translate(-5.151 -8.606)"/>
            <path id="Trazado_1068189" data-name="Trazado 1068189" d="M96.3,140.75c.567,2.162,4.2,3.763,4.962.952.438-1.619-.319-4.331-2.267-4.541-1.869-.2-3.126,1.94-2.694,3.589" transform="translate(-7.035 -10.028)" fill="#ff6363"/>
            <path id="Trazado_1068190" data-name="Trazado 1068190" d="M97.026,139.761a1.111,1.111,0,0,1,.649-.606,1.958,1.958,0,0,1,1.581.086,2.573,2.573,0,0,1,1.122,1.147" transform="translate(-7.095 -10.166)" fill="none" stroke="#000" stroke-linecap="round" stroke-linejoin="round" stroke-width="1"/>
          </g>
        </g>
        <g id="Grupo_1230502" data-name="Grupo 1230502" transform="translate(85.722 117.215)">
          <g id="Grupo_1230501" data-name="Grupo 1230501" clip-path="url(#clip-path-4)">
            <path id="Trazado_1068191" data-name="Trazado 1068191" d="M112.727,153.06a5.837,5.837,0,0,1-3.175-.662,4.15,4.15,0,0,0-1.559-.661.6.6,0,0,0-.555.2c-.183.274.075.638.362.8s.64.253.814.532c.164.262.115.611.259.885a1.435,1.435,0,0,0,1.04.57,11.655,11.655,0,0,1,2.634.823" transform="translate(-93.574 -128.31)"/>
          </g>
        </g>
        <g id="Grupo_1230504" data-name="Grupo 1230504">
          <g id="Grupo_1230503" data-name="Grupo 1230503" clip-path="url(#clip-path-3)">
            <path id="Trazado_1068193" data-name="Trazado 1068193" d="M70.4,57.415c-.347,1.221-.645,2.458-.973,3.684C66.831,70.8,63.7,80.393,60.835,90.04q-.613,2.062-1.228,4.124c-.94,3.153-1.882,6.537-.891,9.675,1.109,3.513,4.573,5.963,8.214,6.522a14.969,14.969,0,0,0,7.169-.8c2.8-.977,3.315-1.757,4.15-4.509,1.364-4.5.487-10.185.885-14.909a143.35,143.35,0,0,1,2.235-15.849c1.166-5.874,2.312-11.741,4.478-17.352a5.6,5.6,0,0,0,.434-1.523,1.794,1.794,0,0,0-.475-1.462,1.467,1.467,0,0,0-2.1.35,2.883,2.883,0,0,0,.578-1.353,2.2,2.2,0,0,0-.224-1.392c-.694-.9-2.2.272-2.776.731.5-.628,1.236-1.591,1.064-2.451a1.138,1.138,0,0,0-.826-.889,1.668,1.668,0,0,0-1.134.26,12.229,12.229,0,0,0-2.947,2.608,31.536,31.536,0,0,0-3.327,4.5,10.933,10.933,0,0,1,3.4-6.207c.533-.517,1.408-.866.989-1.786a1.28,1.28,0,0,0-1.4-.622,5.805,5.805,0,0,0-2.237,1.421,13.867,13.867,0,0,0-3.556,5.538c-.353.9-.645,1.816-.908,2.744" transform="translate(-4.263 -3.487)" fill="#ff6363"/>
            <path id="Trazado_1068194" data-name="Trazado 1068194" d="M81.157,133.932c-2.6-12.318-2.263-25.083-.614-37.581l-.206.034q-2.5.391-5,.76c-6.457-.377-11.328-2.1-17.237-1.043-5.272,24.9-1.029,56.355,12.406,77.98,3.772,6.074,8.574,12.021,15.3,14.438,5.913-6.748,10.383-12.186,14.628-20.09-10.174-8.738-16.5-21.378-19.278-34.5" transform="translate(-4.087 -7.002)" fill="#7a5ce0"/>
            <rect id="Rectángulo_425165" data-name="Rectángulo 425165" width="29.518" height="8.463" transform="translate(94.498 42.102)" fill="#1d1d1b"/>
            <path id="Trazado_1068195" data-name="Trazado 1068195" d="M85.792,54.487a20.035,20.035,0,0,0-3.308,6.384" transform="translate(-6.031 -3.984)" fill="none" stroke="#1c1c1b" stroke-linecap="round" stroke-linejoin="round" stroke-width="1"/>
            <path id="Trazado_1068196" data-name="Trazado 1068196" d="M82.986,52.382c-1.946,2.085-3.951,4.271-4.788,7" transform="translate(-5.718 -3.83)" fill="none" stroke="#1c1c1b" stroke-linecap="round" stroke-linejoin="round" stroke-width="1"/>
            <path id="Trazado_1068197" data-name="Trazado 1068197" d="M75.3,56.856a5.709,5.709,0,0,1-.437,1.35" transform="translate(-5.474 -4.157)" fill="none" stroke="#1c1c1b" stroke-linecap="round" stroke-linejoin="round" stroke-width="1"/>
            <path id="Trazado_1068198" data-name="Trazado 1068198" d="M69.745,53.957a2.157,2.157,0,0,1,.7-.736,1.247,1.247,0,0,1,1.615.207,2.01,2.01,0,0,1,.07,1.625,20.979,20.979,0,0,0-.438,4.522,32.064,32.064,0,0,1,.068,4.2,1.95,1.95,0,0,1-.664,1.428,1.319,1.319,0,0,1-1.4-.053A2.525,2.525,0,0,1,68.8,64a7.9,7.9,0,0,1-.462-3.679c.122-1.943.373-4.671,1.41-6.362" transform="translate(-4.994 -3.877)" fill="#ff6363"/>
            <path id="Trazado_1068199" data-name="Trazado 1068199" d="M72.49,54.439A23.07,23.07,0,0,0,70.73,60.2" transform="translate(-5.172 -3.981)" fill="none" stroke="#1c1c1b" stroke-linecap="round" stroke-linejoin="round" stroke-width="1"/>
            <path id="Trazado_1068200" data-name="Trazado 1068200" d="M110.817,144.52a4.143,4.143,0,0,0,4.152,1.089,1.63,1.63,0,0,0,.868-.544" transform="translate(-8.103 -10.568)" fill="none" stroke="#000" stroke-linecap="round" stroke-linejoin="round" stroke-width="1"/>
            <path id="Trazado_1068201" data-name="Trazado 1068201" d="M71.907,179.843q.669,2,1.337,3.991" transform="translate(-5.258 -13.15)" fill="none" stroke="#000" stroke-linecap="round" stroke-linejoin="round" stroke-width="1"/>
            <path id="Trazado_1068202" data-name="Trazado 1068202" d="M135.347,174.536a36.3,36.3,0,0,0-2.417,7.445" transform="translate(-9.72 -12.762)" fill="none" stroke="#000" stroke-linecap="round" stroke-linejoin="round" stroke-width="1"/>
            <path id="Trazado_1068203" data-name="Trazado 1068203" d="M60.842,134.153a3.7,3.7,0,0,1,2.694-2.667,3.5,3.5,0,0,1,3.443,1.808,6.4,6.4,0,0,1,.626,4.018c-.269,2.135-2.1,5.744-4.854,4.727-2.437-.9-2.517-5.894-1.908-7.887" transform="translate(-4.426 -9.612)"/>
            <path id="Trazado_1068204" data-name="Trazado 1068204" d="M103.563,406.865q22.316,1.735,44.531,4.554" transform="translate(-7.573 -29.751)" fill="none" stroke="#000" stroke-linecap="round" stroke-linejoin="round" stroke-width="1"/>
            <path id="Trazado_1068205" data-name="Trazado 1068205" d="M137.924,403.068a5.71,5.71,0,0,0,2.607-2.162,1.088,1.088,0,0,0,.234-.726.826.826,0,0,0-.92-.594,2.414,2.414,0,0,0-1.083.509l-2.487,1.732a1.773,1.773,0,0,1-.771.367.605.605,0,0,1-.675-.4,1.552,1.552,0,0,1,.661-1.147,4.748,4.748,0,0,0,1-.924.961.961,0,0,0-.069-1.246,1,1,0,0,0-.825-.135c-1.391.284-2.137,1.959-3.513,2.313a.584.584,0,0,1-.407-.009.567.567,0,0,1-.186-.658c.245-.938,1.363-1.528,1.4-2.5a.718.718,0,0,0-.121-.465.832.832,0,0,0-.874-.183c-1.325.349-1.969,1.814-2.431,3.1" transform="translate(-9.467 -29.014)" fill="none" stroke="#000" stroke-linecap="round" stroke-linejoin="round" stroke-width="1"/>
            <path id="Trazado_1068206" data-name="Trazado 1068206" d="M109.174,402.672a2.283,2.283,0,0,0,2.792-3.437,1.543,1.543,0,0,0-.664-.535,2.165,2.165,0,0,0-1.126-.027,3.3,3.3,0,0,0-2,.887,1.832,1.832,0,0,0,1.036,3.011" transform="translate(-7.877 -29.147)" fill="none" stroke="#000" stroke-linecap="round" stroke-linejoin="round" stroke-width="1"/>
            <path id="Trazado_1068207" data-name="Trazado 1068207" d="M107.233,259.05a150.108,150.108,0,0,0,3.4-22.5" transform="translate(-7.841 -17.297)" fill="none" stroke="#7a5ce0" stroke-linecap="round" stroke-linejoin="round" stroke-width="1"/>
            <path id="Trazado_1068208" data-name="Trazado 1068208" d="M111.5,157.427a6.248,6.248,0,0,1-3.234,3.88,12.263,12.263,0,0,1-9.109.468,9.219,9.219,0,0,1-1.712-.726,12.534,12.534,0,0,1-3.555-3.376" transform="translate(-6.865 -11.511)" fill="none" stroke="#000" stroke-linecap="round" stroke-linejoin="round" stroke-width="1"/>
            <path id="Trazado_1068209" data-name="Trazado 1068209" d="M205.208,270.366H172.2a3.659,3.659,0,1,0,0,7.316h33.005a3.659,3.659,0,1,0,0-7.316" transform="translate(-12.318 -19.77)" fill="#1d1d1b"/>
            <path id="Trazado_1068210" data-name="Trazado 1068210" d="M248.634,270.366h-24.5a3.822,3.822,0,0,0-3.884,3.3,3.691,3.691,0,0,0,3.723,4.017h24.661a3.659,3.659,0,1,0,0-7.316" transform="translate(-16.104 -19.77)" fill="#7a5ce0"/>
            <path id="Trazado_1068211" data-name="Trazado 1068211" d="M262.2,274.024h0a3.7,3.7,0,0,0,3.741,3.658h71.993a3.659,3.659,0,1,0,0-7.317H265.944a3.7,3.7,0,0,0-3.741,3.658" transform="translate(-19.173 -19.77)" fill="#1d1d1b"/>
            <path id="Trazado_1068212" data-name="Trazado 1068212" d="M383.866,270.366H360.858a3.659,3.659,0,1,0,0,7.316h23.008a3.659,3.659,0,1,0,0-7.316" transform="translate(-26.113 -19.77)" fill="#7a5ce0"/>
            <path id="Trazado_1068213" data-name="Trazado 1068213" d="M355.707,289.8h-65.5a3.659,3.659,0,1,0,0,7.316h65.5a3.659,3.659,0,1,0,0-7.316" transform="translate(-20.947 -21.19)" fill="#7a5ce0"/>
            <path id="Trazado_1068214" data-name="Trazado 1068214" d="M372.044,293.454h0a3.7,3.7,0,0,0,3.741,3.658H389.73a3.659,3.659,0,1,0,0-7.317H375.785a3.7,3.7,0,0,0-3.741,3.658" transform="translate(-27.204 -21.19)" fill="#7a5ce0"/>
            <path id="Trazado_1068215" data-name="Trazado 1068215" d="M274.188,289.8h-8.244a3.659,3.659,0,1,0,0,7.316h8.244a3.659,3.659,0,1,0,0-7.316" transform="translate(-19.173 -21.19)" fill="#1d1d1b"/>
            <path id="Trazado_1068216" data-name="Trazado 1068216" d="M248.289,308.961h-8.244a3.659,3.659,0,1,0,0,7.316h8.244a3.659,3.659,0,1,0,0-7.316" transform="translate(-17.279 -22.592)" fill="#ff6363"/>
            <path id="Trazado_1068217" data-name="Trazado 1068217" d="M150.757,293.454h0a3.658,3.658,0,0,0,3.658,3.658h71.9a3.658,3.658,0,0,0,0-7.317h-71.9a3.658,3.658,0,0,0-3.658,3.658" transform="translate(-11.024 -21.19)" fill="#1d1d1b"/>
            <path id="Trazado_1068218" data-name="Trazado 1068218" d="M133.218,289.8H132.2a3.659,3.659,0,1,0,0,7.316h1.015a3.659,3.659,0,1,0,0-7.316" transform="translate(-9.393 -21.19)" fill="#7a5ce0"/>
            <path id="Trazado_1068219" data-name="Trazado 1068219" d="M128.16,312.883h0c0,2.021,2,3.658,4.468,3.658h78.817c2.467,0,4.468-1.638,4.468-3.658s-2-3.658-4.468-3.658H132.628c-2.467,0-4.468,1.638-4.468,3.658" transform="translate(-9.371 -22.611)" fill="#ff6363"/>
            <path id="Trazado_1068220" data-name="Trazado 1068220" d="M266.912,312.883h0c0,2.021,1.2,3.658,2.681,3.658h77.746c1.481,0,2.681-1.638,2.681-3.658s-1.2-3.658-2.681-3.658H269.593c-1.481,0-2.681,1.638-2.681,3.658" transform="translate(-19.517 -22.611)" fill="#1d1d1b"/>
            <path id="Trazado_1068221" data-name="Trazado 1068221" d="M365.219,312.883h0a3.7,3.7,0,0,0,3.741,3.658h22.93a3.659,3.659,0,1,0,0-7.317H368.96a3.7,3.7,0,0,0-3.741,3.658" transform="translate(-26.705 -22.611)" fill="#1d1d1b"/>
            <path id="Trazado_1068222" data-name="Trazado 1068222" d="M292.942,332.313h0a3.7,3.7,0,0,0,3.741,3.658h81.491a3.659,3.659,0,1,0,0-7.317H296.683a3.7,3.7,0,0,0-3.741,3.658" transform="translate(-21.42 -24.032)" fill="#ff6363"/>
            <path id="Trazado_1068223" data-name="Trazado 1068223" d="M150.033,332.313h0a3.7,3.7,0,0,0,3.741,3.658h62.5a3.659,3.659,0,1,0,0-7.317h-62.5a3.7,3.7,0,0,0-3.741,3.658" transform="translate(-10.971 -24.032)" fill="#1d1d1b"/>
            <path id="Trazado_1068224" data-name="Trazado 1068224" d="M230.386,332.313h0a3.7,3.7,0,0,0,3.741,3.658h38a3.659,3.659,0,1,0,0-7.317h-38a3.7,3.7,0,0,0-3.741,3.658" transform="translate(-16.846 -24.032)" fill="#7a5ce0"/>
            <path id="Trazado_1068225" data-name="Trazado 1068225" d="M180.232,351.743h0a3.7,3.7,0,0,0,3.741,3.658h6.014a3.659,3.659,0,1,0,0-7.317h-6.014a3.7,3.7,0,0,0-3.741,3.658" transform="translate(-13.179 -25.452)" fill="#1d1d1b"/>
            <path id="Trazado_1068226" data-name="Trazado 1068226" d="M167.475,351.742a3.658,3.658,0,0,0-3.658-3.658H135.076a3.659,3.659,0,1,0,0,7.317h28.741a3.658,3.658,0,0,0,3.658-3.658" transform="translate(-9.603 -25.452)" fill="#7a5ce0"/>
            <path id="Trazado_1068227" data-name="Trazado 1068227" d="M200.186,351.743h0a3.7,3.7,0,0,0,3.741,3.658h5.014a3.659,3.659,0,1,0,0-7.317h-5.014a3.7,3.7,0,0,0-3.741,3.658" transform="translate(-14.638 -25.452)" fill="#1d1d1b"/>
            <path id="Trazado_1068228" data-name="Trazado 1068228" d="M219.061,351.743h0A3.7,3.7,0,0,0,222.8,355.4h49a3.659,3.659,0,1,0,0-7.317h-49a3.7,3.7,0,0,0-3.741,3.658" transform="translate(-16.018 -25.452)" fill="#ff6363"/>
            <path id="Trazado_1068229" data-name="Trazado 1068229" d="M288.628,351.743h0a3.7,3.7,0,0,0,3.741,3.658h18.01a3.659,3.659,0,1,0,0-7.317h-18.01a3.7,3.7,0,0,0-3.741,3.658" transform="translate(-21.105 -25.452)" fill="#7a5ce0"/>
            <path id="Trazado_1068230" data-name="Trazado 1068230" d="M327.995,351.743h0a3.7,3.7,0,0,0,3.741,3.658h18.51a3.659,3.659,0,1,0,0-7.317h-18.51a3.7,3.7,0,0,0-3.741,3.658" transform="translate(-23.983 -25.452)" fill="#1d1d1b"/>
            <path id="Trazado_1068231" data-name="Trazado 1068231" d="M370.059,351.743h0A3.7,3.7,0,0,0,373.8,355.4h10.013a3.659,3.659,0,1,0,0-7.317H373.8a3.7,3.7,0,0,0-3.741,3.658" transform="translate(-27.059 -25.452)" fill="#1d1d1b"/>
            <path id="Trazado_1068232" data-name="Trazado 1068232" d="M175.721,371.172h0a3.7,3.7,0,0,0,3.741,3.658h46.13a3.659,3.659,0,1,0,0-7.317h-46.13a3.7,3.7,0,0,0-3.741,3.658" transform="translate(-12.849 -26.873)" fill="#7a5ce0"/>
            <path id="Trazado_1068233" data-name="Trazado 1068233" d="M244.946,371.172h0a3.7,3.7,0,0,0,3.741,3.658H255.7a3.659,3.659,0,1,0,0-7.317h-7.014a3.7,3.7,0,0,0-3.741,3.658" transform="translate(-17.911 -26.873)" fill="#7a5ce0"/>
            <path id="Trazado_1068234" data-name="Trazado 1068234" d="M276.57,371.172h0a3.7,3.7,0,0,0,3.741,3.658h35.208a3.659,3.659,0,1,0,0-7.317H280.311a3.7,3.7,0,0,0-3.741,3.658" transform="translate(-20.223 -26.873)" fill="#1d1d1b"/>
            <path id="Trazado_1068235" data-name="Trazado 1068235" d="M330.812,371.172h0a3.7,3.7,0,0,0,3.741,3.658H362.06a3.659,3.659,0,1,0,0-7.317H334.553a3.7,3.7,0,0,0-3.741,3.658" transform="translate(-24.189 -26.873)" fill="#ff6363"/>
            <path id="Trazado_1068236" data-name="Trazado 1068236" d="M298.679,217.964h0a3.7,3.7,0,0,0,3.741,3.658h81.491a3.659,3.659,0,1,0,0-7.317H302.42a3.7,3.7,0,0,0-3.741,3.658" transform="translate(-21.84 -15.67)" fill="#1d1d1b"/>
            <path id="Trazado_1068237" data-name="Trazado 1068237" d="M329.727,197.519h-9.961a3.659,3.659,0,1,0,0,7.316h9.961a3.659,3.659,0,1,0,0-7.316" transform="translate(-23.108 -14.443)" fill="#ff6363"/>
            <path id="Trazado_1068238" data-name="Trazado 1068238" d="M300.77,197.519H266.939a3.659,3.659,0,1,0,0,7.316H300.77a3.659,3.659,0,1,0,0-7.316" transform="translate(-19.245 -14.443)" fill="#7a5ce0"/>
            <path id="Trazado_1068239" data-name="Trazado 1068239" d="M341.117,201.177h0a3.7,3.7,0,0,0,3.741,3.658h42.155a3.659,3.659,0,1,0,0-7.317H344.858a3.7,3.7,0,0,0-3.741,3.658" transform="translate(-24.943 -14.443)" fill="#7a5ce0"/>
            <path id="Trazado_1068240" data-name="Trazado 1068240" d="M294.364,237.394h0a3.7,3.7,0,0,0,3.741,3.658h18.01a3.659,3.659,0,1,0,0-7.317H298.1a3.7,3.7,0,0,0-3.741,3.658" transform="translate(-21.524 -17.091)" fill="#ff6363"/>
            <path id="Trazado_1068241" data-name="Trazado 1068241" d="M333.732,237.394h0a3.7,3.7,0,0,0,3.741,3.658h18.51a3.659,3.659,0,1,0,0-7.317h-18.51a3.7,3.7,0,0,0-3.741,3.658" transform="translate(-24.403 -17.091)" fill="#1d1d1b"/>
            <path id="Trazado_1068242" data-name="Trazado 1068242" d="M373.473,237.394h0a3.7,3.7,0,0,0,3.741,3.658h13.633a3.659,3.659,0,1,0,0-7.317H377.214a3.7,3.7,0,0,0-3.741,3.658" transform="translate(-27.309 -17.091)" fill="#ff6363"/>
            <path id="Trazado_1068243" data-name="Trazado 1068243" d="M312.865,256.823h0a3.7,3.7,0,0,0,3.741,3.658h21.01a3.659,3.659,0,1,0,0-7.317h-21.01a3.7,3.7,0,0,0-3.741,3.658" transform="translate(-22.877 -18.512)" fill="#ff6363"/>
            <path id="Trazado_1068244" data-name="Trazado 1068244" d="M250.683,256.823h0a3.7,3.7,0,0,0,3.741,3.658h7.014a3.659,3.659,0,1,0,0-7.317h-7.014a3.7,3.7,0,0,0-3.741,3.658" transform="translate(-18.33 -18.512)" fill="#7a5ce0"/>
            <path id="Trazado_1068245" data-name="Trazado 1068245" d="M273.872,256.823h0a3.7,3.7,0,0,0,3.741,3.658h15.511a3.659,3.659,0,1,0,0-7.317H277.613a3.7,3.7,0,0,0-3.741,3.658" transform="translate(-20.026 -18.512)" fill="#ff6363"/>
            <path id="Trazado_1068246" data-name="Trazado 1068246" d="M358.539,256.823h0a3.7,3.7,0,0,0,3.741,3.658h27.507a3.659,3.659,0,1,0,0-7.317H362.28a3.7,3.7,0,0,0-3.741,3.658" transform="translate(-26.217 -18.512)" fill="#7a5ce0"/>
            <path id="Trazado_1068247" data-name="Trazado 1068247" d="M248.209,209.079a1.786,1.786,0,0,1-1.2-.461l-8.908-8.05,8.839-8.9a1.8,1.8,0,0,1,2.506-.036,1.706,1.706,0,0,1,.038,2.451l-6.309,6.356,6.241,5.639a1.705,1.705,0,0,1,.1,2.449,1.786,1.786,0,0,1-1.3.557" transform="translate(-17.41 -13.976)" fill="#7a5ce0"/>
            <path id="Trazado_1068248" data-name="Trazado 1068248" d="M259.8,209.079a1.786,1.786,0,0,1-1.2-.461l-8.907-8.05,8.838-8.9a1.8,1.8,0,0,1,2.506-.036,1.706,1.706,0,0,1,.038,2.451l-6.309,6.356L261,206.073a1.705,1.705,0,0,1,.1,2.449,1.786,1.786,0,0,1-1.3.557" transform="translate(-18.258 -13.976)" fill="#7a5ce0"/>
            <path id="Trazado_1068249" data-name="Trazado 1068249" d="M386.08,380.259a1.786,1.786,0,0,1-1.3-.557,1.705,1.705,0,0,1,.1-2.449l6.241-5.639-6.31-6.357a1.706,1.706,0,0,1,.039-2.451,1.8,1.8,0,0,1,2.506.038l8.838,8.9-8.907,8.05a1.786,1.786,0,0,1-1.2.461" transform="translate(-28.101 -26.493)" fill="#7a5ce0"/>
            <path id="Trazado_1068250" data-name="Trazado 1068250" d="M374.49,380.259a1.786,1.786,0,0,1-1.3-.557,1.705,1.705,0,0,1,.1-2.449l6.241-5.639-6.31-6.357a1.706,1.706,0,0,1,.039-2.451,1.8,1.8,0,0,1,2.506.038l8.838,8.9-8.907,8.05a1.786,1.786,0,0,1-1.2.461" transform="translate(-27.254 -26.493)" fill="#7a5ce0"/>
          </g>
        </g>
      </g>
    </g>
    <g id="Grupo_1230514" data-name="Grupo 1230514">
      <rect id="Rectángulo_425167" data-name="Rectángulo 425167" width="105" height="59" rx="5" transform="translate(1178 298)" fill="#fff"/>
      <g id="nodejs-1" transform="translate(1188.441 301.793)">
        <path id="Trazado_1068257" data-name="Trazado 1068257" d="M206.455,207.949a1.665,1.665,0,0,1-.8-.209l-2.524-1.5c-.38-.209-.19-.285-.076-.323a4.6,4.6,0,0,0,1.139-.512.174.174,0,0,1,.19.019l1.936,1.158a.241.241,0,0,0,.228,0l7.573-4.384a.218.218,0,0,0,.114-.209V193.24a.218.218,0,0,0-.114-.209l-7.573-4.365a.24.24,0,0,0-.228,0l-7.573,4.365a.238.238,0,0,0-.114.209v8.749a.239.239,0,0,0,.114.209l2.069,1.2c1.12.569,1.822-.095,1.822-.759V194a.231.231,0,0,1,.228-.228h.968a.231.231,0,0,1,.228.228v8.635a2.105,2.105,0,0,1-2.24,2.372,3.255,3.255,0,0,1-1.746-.475l-1.993-1.139a1.6,1.6,0,0,1-.8-1.385v-8.749a1.6,1.6,0,0,1,.8-1.385l7.573-4.384a1.694,1.694,0,0,1,1.594,0l7.573,4.384a1.6,1.6,0,0,1,.8,1.385v8.749a1.6,1.6,0,0,1-.8,1.385l-7.573,4.384a1.941,1.941,0,0,1-.8.171Zm2.334-6.016c-3.321,0-4-1.518-4-2.809a.231.231,0,0,1,.228-.228H206a.2.2,0,0,1,.209.19c.152,1.006.588,1.5,2.6,1.5,1.594,0,2.278-.361,2.278-1.215,0-.493-.19-.854-2.676-1.1-2.069-.209-3.359-.664-3.359-2.315,0-1.537,1.291-2.448,3.454-2.448,2.429,0,3.625.835,3.777,2.657a.306.306,0,0,1-.057.171.235.235,0,0,1-.152.076h-.987a.222.222,0,0,1-.209-.171c-.228-1.044-.816-1.385-2.372-1.385-1.746,0-1.955.607-1.955,1.063,0,.55.247.721,2.6,1.025,2.334.3,3.435.74,3.435,2.372C212.566,200.984,211.2,201.933,208.789,201.933Z" transform="translate(-164.698 -156.535)" fill="#539e43"/>
        <path id="Trazado_1068258" data-name="Trazado 1068258" d="M18.261,17.195a.966.966,0,0,0-.493-.835L9.721,11.729a1.169,1.169,0,0,0-.436-.133H9.208a.9.9,0,0,0-.436.133L.724,16.36a.965.965,0,0,0-.493.835L.25,29.645a.472.472,0,0,0,.247.418.431.431,0,0,0,.475,0L5.754,27.33a.966.966,0,0,0,.493-.835V20.668a.965.965,0,0,1,.493-.835l2.031-1.177a.92.92,0,0,1,.493-.133.816.816,0,0,1,.475.133l2.031,1.177a.965.965,0,0,1,.493.835v5.827a.966.966,0,0,0,.493.835l4.783,2.733a.463.463,0,0,0,.493,0,.472.472,0,0,0,.247-.418l-.019-12.45ZM56.94.057a.522.522,0,0,0-.475,0,.5.5,0,0,0-.247.417V12.811a.342.342,0,0,1-.512.3l-2.012-1.158a.978.978,0,0,0-.968,0l-8.047,4.65a.966.966,0,0,0-.493.835v9.281a.966.966,0,0,0,.493.835l8.047,4.65a.978.978,0,0,0,.968,0l8.047-4.65a.966.966,0,0,0,.493-.835V3.587a.973.973,0,0,0-.493-.854L56.94.057Zm-.74,23.61a.218.218,0,0,1-.114.209L53.334,25.47a.281.281,0,0,1-.247,0l-2.752-1.594a.238.238,0,0,1-.114-.209V20.478a.218.218,0,0,1,.114-.209l2.752-1.594a.281.281,0,0,1,.247,0l2.752,1.594a.238.238,0,0,1,.114.209v3.189ZM83.72,20.4a.948.948,0,0,0,.475-.835V17.309a.989.989,0,0,0-.475-.835l-7.99-4.631a.978.978,0,0,0-.968,0l-8.047,4.65a.965.965,0,0,0-.493.835v9.281a.965.965,0,0,0,.493.835L74.7,32a.943.943,0,0,0,.949,0l4.84-2.695a.477.477,0,0,0,0-.835l-8.085-4.65a.494.494,0,0,1-.247-.417V20.5a.472.472,0,0,1,.247-.418l2.524-1.442a.463.463,0,0,1,.493,0L77.95,20.08a.5.5,0,0,1,.247.418v2.277a.472.472,0,0,0,.247.417.463.463,0,0,0,.493,0L83.72,20.4Z" transform="translate(0 0)" fill="#333"/>
        <path id="Trazado_1068259" data-name="Trazado 1068259" d="M447.985,121.441a.172.172,0,0,1,.19,0l1.537.892a.2.2,0,0,1,.095.171v1.784a.2.2,0,0,1-.095.171l-1.537.892a.172.172,0,0,1-.19,0l-1.537-.892a.2.2,0,0,1-.095-.171V122.5a.2.2,0,0,1,.095-.171Z" transform="translate(-372.863 -101.476)" fill="#539e43"/>
        <g id="Grupo_1230513" data-name="Grupo 1230513" transform="translate(22.209 10.192)">
          <path id="Trazado_1068260" data-name="Trazado 1068260" d="M9.895,1.2a.978.978,0,0,0-.968,0L.937,5.81a.948.948,0,0,0-.475.835v9.243a.989.989,0,0,0,.475.835l7.99,4.612a.978.978,0,0,0,.968,0l7.99-4.612a.948.948,0,0,0,.475-.835V6.645a.989.989,0,0,0-.475-.835Z" transform="translate(-0.386 0.491)" fill="url(#linear-gradient-2)"/>
          <g id="Grupo_1230511" data-name="Grupo 1230511" transform="translate(0 1.558)">
            <path id="Trazado_1068261" data-name="Trazado 1068261" d="M8.522,1.182.513,5.794A.984.984,0,0,0,0,6.629v9.243a.914.914,0,0,0,.247.607l9-15.411a1.084,1.084,0,0,0-.721.114ZM9.3,21.414a1.167,1.167,0,0,0,.228-.095l8.009-4.612a.965.965,0,0,0,.493-.835V6.629a.967.967,0,0,0-.285-.664L9.3,21.414Z" transform="translate(0 -1.051)" fill="none"/>
            <path id="Trazado_1068262" data-name="Trazado 1068262" d="M18.773,5.979,10.745,1.367a1.318,1.318,0,0,0-.247-.095l-9,15.411a1,1,0,0,0,.266.228L9.8,21.523a.925.925,0,0,0,.74.095L18.982,6.169a1,1,0,0,0-.209-.19Z" transform="translate(-1.255 -1.236)" fill="url(#linear-gradient-3)"/>
          </g>
          <g id="Grupo_1230512" data-name="Grupo 1230512" transform="translate(0 0)">
            <path id="Trazado_1068263" data-name="Trazado 1068263" d="M18.03,15.96V6.718a.984.984,0,0,0-.512-.835L9.489,1.271a.838.838,0,0,0-.3-.114l8.787,15.012a.383.383,0,0,0,.057-.209ZM.512,5.883A.985.985,0,0,0,0,6.718v9.243a1.026,1.026,0,0,0,.512.835l8.028,4.612a.894.894,0,0,0,.626.114L.569,5.864l-.057.019Z" transform="translate(0 0.418)" fill="none"/>
            <path id="Trazado_1068264" data-name="Trazado 1068264" d="M49.812.809,49.7.866h.152Z" transform="translate(-41.537 -0.809)" fill-rule="evenodd" fill="url(#linear-gradient-4)"/>
            <path id="Trazado_1068265" data-name="Trazado 1068265" d="M20.337,25.953a1.08,1.08,0,0,0,.475-.607L12.005,10.314a.964.964,0,0,0-.683.114L3.351,15.021l8.6,15.677a1.323,1.323,0,0,0,.361-.114l8.028-4.631Z" transform="translate(-2.801 -8.739)" fill-rule="evenodd" fill="url(#linear-gradient-5)"/>
            <path id="Trazado_1068266" data-name="Trazado 1068266" d="M111.01,104.229l-.057-.095v.133l.057-.038Z" transform="translate(-92.733 -87.167)" fill-rule="evenodd" fill="url(#linear-gradient-6)"/>
            <path id="Trazado_1068267" data-name="Trazado 1068267" d="M64.193,102.448l-8.009,4.612a1.145,1.145,0,0,1-.361.114l.152.285,8.882-5.143V102.2l-.228-.38A.882.882,0,0,1,64.193,102.448Z" transform="translate(-46.656 -85.234)" fill-rule="evenodd" fill="url(#linear-gradient-7)"/>
            <path id="Trazado_1068268" data-name="Trazado 1068268" d="M64.193,102.448l-8.009,4.612a1.145,1.145,0,0,1-.361.114l.152.285,8.882-5.143V102.2l-.228-.38A.882.882,0,0,1,64.193,102.448Z" transform="translate(-46.656 -85.234)" fill-rule="evenodd" fill="url(#linear-gradient-8)"/>
          </g>
        </g>
      </g>
    </g>
  </g>
</svg>
