<svg xmlns="http://www.w3.org/2000/svg" width="98.675" height="88.257" viewBox="0 0 98.675 88.257">
  <g id="Grupo_1230167" data-name="Grupo 1230167" transform="translate(-1001.068 -2864.781)">
    <circle id="Elipse_12863" data-name="Elipse 12863" cx="27.545" cy="27.545" r="27.545" transform="translate(1001.068 2864.781)" fill="#c3b7ef"/>
    <g id="download_7022634" transform="translate(513.421 2125.356)">
      <path id="Trazado_1068396" data-name="Trazado 1068396" d="M2272.645,1629.169h4.609a3.05,3.05,0,0,0,3.046-3.046v-16.755a1.523,1.523,0,0,0-3.046,0v16.755H2269.2a1.523,1.523,0,0,0-1.126,2.549l14.991,16.457a1.524,1.524,0,0,0,1.1.5h.029a1.524,1.524,0,0,0,1.086-.455l16.194-16.457a1.523,1.523,0,0,0-1.086-2.592h-8.658v-16.755a1.523,1.523,0,0,0-3.046,0v16.755a3.05,3.05,0,0,0,3.046,3.046h5.022l-12.515,12.718Z" transform="translate(-1719.871 -831.189)" fill="#353535"/>
      <path id="Trazado_1068397" data-name="Trazado 1068397" d="M1674.452,1387.26a1.523,1.523,0,0,0-1.523,1.523v16.978a5.331,5.331,0,1,0,3.047,0v-16.978A1.523,1.523,0,0,0,1674.452,1387.26Zm2.285,23.609a2.285,2.285,0,1,1-2.285-2.285A2.287,2.287,0,0,1,1676.737,1410.869Z" transform="translate(-1139.917 -617.459)" fill="#353535"/>
      <path id="Trazado_1068398" data-name="Trazado 1068398" d="M2152.178,2637.25h-6.854a1.523,1.523,0,0,0-1.523,1.523v6.093h-23.609v-6.093a1.523,1.523,0,0,0-1.523-1.523h-6.854a1.523,1.523,0,0,0-1.523,1.523V2654a1.523,1.523,0,0,0,1.523,1.523h40.364A1.523,1.523,0,0,0,2153.7,2654v-15.232A1.523,1.523,0,0,0,2152.178,2637.25Zm-1.523,15.232h-37.318V2640.3h3.808v6.093a1.523,1.523,0,0,0,1.523,1.523h26.655a1.523,1.523,0,0,0,1.523-1.523V2640.3h3.808v12.186Z" transform="translate(-1567.379 -1828.608)" fill="#353535"/>
      <path id="Trazado_1068399" data-name="Trazado 1068399" d="M639.567,2050.543a1.523,1.523,0,0,0-1.523-1.523H616.719a1.523,1.523,0,0,0,0,3.046h21.325A1.523,1.523,0,0,0,639.567,2050.543Z" transform="translate(-118.741 -1258.656)" fill="#353535"/>
      <path id="Trazado_1068400" data-name="Trazado 1068400" d="M520.826,1756.423a1.523,1.523,0,0,0-1.523-1.523H494.17a1.523,1.523,0,0,0,0,3.046H519.3A1.523,1.523,0,0,0,520.826,1756.423Z" transform="translate(0 -973.675)" fill="#353535"/>
      <path id="Trazado_1068401" data-name="Trazado 1068401" d="M782.056,2344.663a1.523,1.523,0,0,0-1.523-1.523H763.778a1.523,1.523,0,0,0,0,3.046h16.755A1.523,1.523,0,0,0,782.056,2344.663Z" transform="translate(-261.23 -1543.637)" fill="#353535"/>
      <path id="Trazado_1068402" data-name="Trazado 1068402" d="M906.272,2629.188c-.936.131-1.887.215-2.84.261l-.012-4.532a1.523,1.523,0,0,0-1.523-1.52h0a1.524,1.524,0,0,0-1.519,1.527l.012,4.524a31.284,31.284,0,0,1-25.727-15.935A1.523,1.523,0,0,0,872,2615a34.325,34.325,0,0,0,34.691,17.2,1.523,1.523,0,0,0-.421-3.017Z" transform="translate(-367.379 -1804.854)" fill="#353535"/>
      <path id="Trazado_1068403" data-name="Trazado 1068403" d="M910.834,765.232a1.517,1.517,0,0,0,.913-.3l1.828-1.371,2.682,3.576a34.474,34.474,0,0,0-5.3,5.555,1.523,1.523,0,1,0,2.425,1.843,30.979,30.979,0,0,1,23.349-12.306v3.007a1.523,1.523,0,1,0,3.046,0v-3.007a30.911,30.911,0,0,1,18.648,7.338l-4.493,4.493a1.523,1.523,0,1,0,2.154,2.154l4.563-4.563a31.966,31.966,0,0,1,2.477,2.884,1.523,1.523,0,0,0,2.426-1.843,34.57,34.57,0,0,0-11.815-9.861,33.852,33.852,0,0,0-9.389-3.152v-6.628h3.046a1.523,1.523,0,0,0,0-3.046H929.111a1.523,1.523,0,0,0,0,3.046h3.046v6.628a34.045,34.045,0,0,0-13.482,5.606l-2.664-3.552,1.828-1.371a1.523,1.523,0,0,0-1.828-2.437l-6.093,4.57a1.523,1.523,0,0,0,.915,2.742Zm24.37-12.185H941.3v6.224q-1.51-.131-3.046-.131t-3.046.131Z" transform="translate(-403.716)" fill="#353535"/>
    </g>
  </g>
</svg>
