<svg xmlns="http://www.w3.org/2000/svg" width="85" height="85" viewBox="0 0 85 85">
  <g id="Grupo_1230560" data-name="Grupo 1230560" transform="translate(-180 -4813.5)">
    <rect id="Rectángulo_423328" data-name="Rectángulo 423328" width="85" height="85" rx="15" transform="translate(180 4813.5)" fill="#eddbfd"/>
    <g id="Grupo_1230559" data-name="Grupo 1230559">
      <path id="Trazado_1068421" data-name="Trazado 1068421" d="M31.2,6.4a35.662,35.662,0,0,0-5.975.51c-5.292.935-6.252,2.892-6.252,6.5v4.766h12.5v1.589h-17.2A7.808,7.808,0,0,0,6.472,26.1a23.374,23.374,0,0,0,0,12.709c.889,3.7,3.012,6.34,6.646,6.34h4.3V39.439a7.947,7.947,0,0,1,7.812-7.768H37.72a6.3,6.3,0,0,0,6.252-6.355V13.408c0-3.389-2.859-5.935-6.252-6.5A39.009,39.009,0,0,0,31.2,6.4ZM24.442,10.23a2.383,2.383,0,1,1-2.346,2.39,2.373,2.373,0,0,1,2.346-2.39Z" transform="translate(190.986 4823.395)" fill="#aa52f9"/>
      <path id="Trazado_1068422" data-name="Trazado 1068422" d="M60.847,35.054v5.553a8.02,8.02,0,0,1-7.812,7.929H40.544a6.379,6.379,0,0,0-6.252,6.355V66.8c0,3.389,2.947,5.383,6.252,6.355a20.919,20.919,0,0,0,12.49,0c3.148-.911,6.252-2.746,6.252-6.355V62.032H46.8V60.443H65.54c3.635,0,4.989-2.535,6.252-6.34,1.306-3.917,1.25-7.684,0-12.709-.9-3.618-2.614-6.34-6.252-6.34ZM53.822,65.209a2.383,2.383,0,1,1-2.346,2.376A2.36,2.36,0,0,1,53.822,65.209Z" transform="translate(175.672 4808.103)" fill="#aa52f9"/>
    </g>
  </g>
</svg>
