<svg xmlns="http://www.w3.org/2000/svg" width="92.402" height="92.402" viewBox="0 0 92.402 92.402">
  <g id="Grupo_1230174" data-name="Grupo 1230174" transform="translate(-1001.068 -2864.781)">
    <circle id="Elipse_12863" data-name="Elipse 12863" cx="27.545" cy="27.545" r="27.545" transform="translate(1001.068 2864.781)" fill="#c3b7ef"/>
    <g id="api_6404390" transform="translate(1018.848 2882.56)">
      <path id="Trazado_1068453" data-name="Trazado 1068453" d="M69.648,0H4.975A4.975,4.975,0,0,0,0,4.975V60.942a4.975,4.975,0,0,0,4.975,4.975H16.268a24.3,24.3,0,0,0,1.825,1.673,2.861,2.861,0,0,0,3.015.433l3.98-1.7a24.472,24.472,0,0,0,5.633,2.333l1.617,4.03A2.926,2.926,0,0,0,34.756,74.5c.888.08,1.775.118,2.638.118a24.828,24.828,0,0,0,2.487-.118A2.928,2.928,0,0,0,42.3,72.68l1.6-4.027a24.472,24.472,0,0,0,5.632-2.338l3.98,1.7a2.861,2.861,0,0,0,3.015-.43c.663-.568,1.265-1.119,1.822-1.674h11.3a4.975,4.975,0,0,0,4.975-4.975V4.975A4.975,4.975,0,0,0,69.648,0ZM4.975,2.487H69.648a2.487,2.487,0,0,1,2.487,2.487V9.95H2.487V4.975A2.487,2.487,0,0,1,4.975,2.487ZM54.908,65.7a.4.4,0,0,1-.415.032L49.93,63.786a1.244,1.244,0,0,0-1.131.08,22.155,22.155,0,0,1-6.123,2.541,1.244,1.244,0,0,0-.856.746l-1.838,4.6a.429.429,0,0,1-.345.276,25.422,25.422,0,0,1-4.668,0,.425.425,0,0,1-.33-.271l-1.839-4.6a1.244,1.244,0,0,0-.856-.746,22.154,22.154,0,0,1-6.123-2.541,1.251,1.251,0,0,0-.643-.179,1.23,1.23,0,0,0-.488.1L20.128,65.74a.407.407,0,0,1-.433-.049,27.055,27.055,0,0,1-3.306-3.307.415.415,0,0,1-.034-.42L18.305,57.4a1.244,1.244,0,0,0-.08-1.131,22.147,22.147,0,0,1-2.541-6.125,1.244,1.244,0,0,0-.746-.856l-4.6-1.837a.432.432,0,0,1-.276-.333v-.014a23.506,23.506,0,0,1,0-4.668.428.428,0,0,1,.271-.331l4.6-1.839a1.244,1.244,0,0,0,.746-.856,22.147,22.147,0,0,1,2.541-6.125,1.244,1.244,0,0,0,.08-1.131l-1.949-4.563a.413.413,0,0,1,.047-.437,27.034,27.034,0,0,1,3.312-3.307.41.41,0,0,1,.415-.032l4.562,1.949a1.244,1.244,0,0,0,1.131-.08,22.154,22.154,0,0,1,6.123-2.541A1.244,1.244,0,0,0,32.8,22.4l1.838-4.6a.432.432,0,0,1,.345-.276,25.206,25.206,0,0,1,4.668,0,.428.428,0,0,1,.33.271l1.839,4.6a1.244,1.244,0,0,0,.856.746,22.154,22.154,0,0,1,6.123,2.541,1.244,1.244,0,0,0,1.131.08l4.564-1.949a.412.412,0,0,1,.433.049,26.966,26.966,0,0,1,3.306,3.307.415.415,0,0,1,.034.42l-1.949,4.563a1.244,1.244,0,0,0,.08,1.131,22.147,22.147,0,0,1,2.541,6.125,1.244,1.244,0,0,0,.746.856l4.6,1.837a.434.434,0,0,1,.277.347,23.506,23.506,0,0,1,0,4.668.428.428,0,0,1-.271.331l-4.6,1.839a1.244,1.244,0,0,0-.746.856A22.147,22.147,0,0,1,56.4,56.266a1.244,1.244,0,0,0-.08,1.131l1.949,4.563a.419.419,0,0,1-.047.437A27.124,27.124,0,0,1,54.908,65.7ZM69.648,63.43H60.483a2.883,2.883,0,0,0,.071-2.446L58.851,57a24.514,24.514,0,0,0,2.339-5.63l4.025-1.617a2.926,2.926,0,0,0,1.821-2.4,25.968,25.968,0,0,0,0-5.137,2.934,2.934,0,0,0-1.825-2.42l-4.021-1.609a24.513,24.513,0,0,0-2.338-5.634l1.7-3.987a2.869,2.869,0,0,0-.43-3.014,29.62,29.62,0,0,0-3.593-3.593,2.861,2.861,0,0,0-3.015-.433l-3.986,1.7A24.472,24.472,0,0,0,43.9,20.894l-1.617-4.03a2.926,2.926,0,0,0-2.413-1.816,27.742,27.742,0,0,0-5.124,0,2.926,2.926,0,0,0-2.413,1.82L30.72,20.894a24.472,24.472,0,0,0-5.632,2.338l-3.98-1.7a2.861,2.861,0,0,0-3.015.429,29.466,29.466,0,0,0-3.594,3.6,2.861,2.861,0,0,0-.432,3.014l1.7,3.987a24.514,24.514,0,0,0-2.338,5.625L9.407,39.8a2.926,2.926,0,0,0-1.821,2.4,25.934,25.934,0,0,0,0,5.143A2.931,2.931,0,0,0,9.41,49.756l4.022,1.609A24.513,24.513,0,0,0,15.77,57l-1.7,3.987a2.888,2.888,0,0,0,.072,2.443H4.975a2.487,2.487,0,0,1-2.487-2.487v-48.5H72.136v48.5A2.487,2.487,0,0,1,69.648,63.43Z" fill="#353535"/>
      <path id="Trazado_1068454" data-name="Trazado 1068454" d="M33.9,20A19.9,19.9,0,1,0,53.8,39.9,19.9,19.9,0,0,0,33.9,20Zm0,37.311A17.412,17.412,0,1,1,51.311,39.9,17.412,17.412,0,0,1,33.9,57.311Z" transform="translate(3.412 4.874)" fill="#353535"/>
      <path id="Trazado_1068455" data-name="Trazado 1068455" d="M5.244,6.487H6.487A1.244,1.244,0,0,0,6.487,4H5.244a1.244,1.244,0,1,0,0,2.487Z" transform="translate(0.975 0.975)" fill="#353535"/>
      <path id="Trazado_1068456" data-name="Trazado 1068456" d="M10.244,6.487h1.244a1.244,1.244,0,1,0,0-2.487H10.244a1.244,1.244,0,1,0,0,2.487Z" transform="translate(2.193 0.975)" fill="#353535"/>
      <path id="Trazado_1068457" data-name="Trazado 1068457" d="M15.244,6.487h1.244a1.244,1.244,0,1,0,0-2.487H15.244a1.244,1.244,0,0,0,0,2.487Z" transform="translate(3.412 0.975)" fill="#353535"/>
      <path id="Trazado_1068458" data-name="Trazado 1068458" d="M49.244,6.487h7.462a1.244,1.244,0,1,0,0-2.487H49.244a1.244,1.244,0,1,0,0,2.487Z" transform="translate(11.698 0.975)" fill="#353535"/>
      <path id="Trazado_1068459" data-name="Trazado 1068459" d="M22.731,31A3.731,3.731,0,0,0,19,34.731v7.462a1.244,1.244,0,0,0,2.487,0V39.706h2.487v2.487a1.244,1.244,0,0,0,2.487,0V34.731A3.731,3.731,0,0,0,22.731,31Zm-1.244,6.219V34.731a1.244,1.244,0,1,1,2.487,0v2.487Z" transform="translate(4.631 7.555)" fill="#353535"/>
      <path id="Trazado_1068460" data-name="Trazado 1068460" d="M30.731,31H28.244A1.244,1.244,0,0,0,27,32.244v9.95a1.244,1.244,0,0,0,2.487,0V38.462h1.244a3.731,3.731,0,0,0,0-7.462Zm0,4.975H29.487V33.487h1.244a1.244,1.244,0,0,1,0,2.487Z" transform="translate(6.58 7.555)" fill="#353535"/>
      <path id="Trazado_1068461" data-name="Trazado 1068461" d="M41.219,40.95H39.975V33.487h1.244a1.244,1.244,0,0,0,0-2.487H36.244a1.244,1.244,0,0,0,0,2.487h1.244V40.95H36.244a1.244,1.244,0,0,0,0,2.487h4.975a1.244,1.244,0,0,0,0-2.487Z" transform="translate(8.53 7.555)" fill="#353535"/>
    </g>
  </g>
</svg>
