<svg xmlns="http://www.w3.org/2000/svg" xmlns:xlink="http://www.w3.org/1999/xlink" width="276.559" height="286" viewBox="0 0 276.559 286">
  <defs>
    <linearGradient id="linear-gradient" x1="0.5" x2="0.5" y2="1" gradientUnits="objectBoundingBox">
      <stop offset="0" stop-color="#903cdf"/>
      <stop offset="1" stop-color="#481e70"/>
    </linearGradient>
    <clipPath id="clip-path">
      <rect id="Rectángulo_424504" data-name="Rectángulo 424504" width="276.559" height="269.881" fill="none"/>
    </clipPath>
    <clipPath id="clip-path-3">
      <rect id="Rectángulo_424471" data-name="Rectángulo 424471" width="28.408" height="18.894" fill="none"/>
    </clipPath>
    <clipPath id="clip-path-5">
      <rect id="Rectángulo_424470" data-name="Rectángulo 424470" width="18.435" height="6.131" fill="none"/>
    </clipPath>
    <clipPath id="clip-path-7">
      <path id="Trazado_1066295" data-name="Trazado 1066295" d="M56.462,31.3a1.16,1.16,0,1,0,0,2.32h26.69a1.16,1.16,0,0,0,0-2.32Z" transform="translate(-55.302 -31.297)" fill="none"/>
    </clipPath>
    <linearGradient id="linear-gradient-2" x1="-1.096" y1="108.566" x2="-1.076" y2="108.566" gradientUnits="objectBoundingBox">
      <stop offset="0" stop-color="#389ee9"/>
      <stop offset="0.003" stop-color="#389ee9"/>
      <stop offset="1" stop-color="#3864e9"/>
    </linearGradient>
    <clipPath id="clip-path-9">
      <rect id="Rectángulo_424474" data-name="Rectángulo 424474" width="40.618" height="27.015" fill="none"/>
    </clipPath>
    <clipPath id="clip-path-10">
      <path id="Rectángulo_424478" data-name="Rectángulo 424478" d="M3.167,0h0A3.168,3.168,0,0,1,6.334,3.168v0A3.167,3.167,0,0,1,3.168,6.334h0A3.167,3.167,0,0,1,0,3.168v0A3.167,3.167,0,0,1,3.167,0Z" fill="none"/>
    </clipPath>
    <linearGradient id="linear-gradient-3" x1="-31.043" y1="33.634" x2="-30.952" y2="33.634" xlink:href="#linear-gradient-2"/>
    <clipPath id="clip-path-12">
      <rect id="Rectángulo_424479" data-name="Rectángulo 424479" width="17.996" height="13.949" fill="none"/>
    </clipPath>
    <clipPath id="clip-path-13">
      <path id="Trazado_1066305" data-name="Trazado 1066305" d="M396.2,149.888c-1.767-1.34-4.288-1.793-7.008.567-2.884,2.5-3.9,6.732-3.878,10.033-2.1.319-4.267,2.132-4.142,6.945.1,3.828,1.914,5.3,3.911,5.485a9.419,9.419,0,0,0,.107,6.659c1.973,4.553,6.47,5.545,9.459,3.161a3.933,3.933,0,0,0,2.906,4.161c4.906,1.8,8.141-.428,9.532-3.471,2.045,2.359,5.157,3.391,9.075-.325,4.369-4.143,3.529-6.869,1.447-8.59,1.744-.108,3.286-1.354,3.69-5.122.366-3.415-2.386-4.553-4.985-4.706,2.157-1.781,3.563-5.115.081-9.011-1.906-2.132-4.2-1.922-6.152-.788.582-4.27-.561-9.038-6.179-9.46-.194-.015-.386-.022-.577-.022a8.647,8.647,0,0,0-7.286,4.484" transform="translate(-381.168 -145.404)" fill="none"/>
    </clipPath>
    <linearGradient id="linear-gradient-4" x1="-3.641" y1="3.397" x2="-3.631" y2="3.397" gradientUnits="objectBoundingBox">
      <stop offset="0" stop-color="#00192a"/>
      <stop offset="0.297" stop-color="#27233b"/>
      <stop offset="0.585" stop-color="#462b49"/>
      <stop offset="0.829" stop-color="#593051"/>
      <stop offset="1" stop-color="#603255"/>
    </linearGradient>
    <linearGradient id="linear-gradient-5" x1="-56.062" y1="40.872" x2="-55.92" y2="40.872" gradientUnits="objectBoundingBox">
      <stop offset="0" stop-color="#eaa653"/>
      <stop offset="0.997" stop-color="#eacd53"/>
      <stop offset="1" stop-color="#eacd53"/>
    </linearGradient>
    <clipPath id="clip-path-15">
      <rect id="Rectángulo_424482" data-name="Rectángulo 424482" width="2.24" height="2.459" fill="none"/>
    </clipPath>
    <linearGradient id="linear-gradient-6" x1="-60.936" y1="40.872" x2="-60.793" y2="40.872" xlink:href="#linear-gradient-5"/>
    <clipPath id="clip-path-17">
      <rect id="Rectángulo_424485" data-name="Rectángulo 424485" width="86.091" height="66.959" fill="none"/>
    </clipPath>
    <clipPath id="clip-path-18">
      <path id="Trazado_1066355" data-name="Trazado 1066355" d="M11.843,64.366c-13.615,16.443-7.726,38.287,2.863,45.39C21.637,114.406.046,127.35,0,138.587v.07c.014,3.525,2.161,6.88,7.989,9.755,20.523,9.827,28.967-2.258,28.967-2.258v-32.3l-.144-.171-.393-8.874a6.615,6.615,0,0,1-4.594,2.146c-.223.01-.443.007-.661,0h-.027c-.211-.013-.42-.036-.626-.067l-.044-.006c-.2-.033-.4-.075-.592-.125l-.058-.014c-.19-.05-.376-.11-.559-.177l-.065-.023c-.18-.067-.355-.144-.528-.227l-.069-.032c-.169-.083-.334-.175-.5-.272l-.07-.042q-.237-.147-.462-.315l-.067-.05c-.148-.113-.29-.232-.428-.356l-.063-.058q-.2-.189-.392-.394l-.056-.063c-.124-.139-.242-.283-.354-.433-.016-.021-.032-.043-.048-.064-.111-.152-.216-.308-.315-.47l-.038-.066c-.1-.164-.189-.332-.273-.506l-.028-.062q-.124-.266-.227-.543l-.018-.054c-.067-.19-.127-.384-.177-.58,0-.014-.006-.029-.01-.043-.05-.2-.091-.409-.122-.619,0-.007,0-.016,0-.024-.03-.216-.052-.435-.062-.658v0h0q-.008-.179-.006-.359c0-.056.007-.11.01-.165,0-.108.01-.215.018-.322s.02-.213.035-.319c.016-.122.035-.243.058-.363.015-.078.031-.155.049-.231.034-.152.074-.3.117-.449.011-.035.022-.07.034-.1A6.648,6.648,0,0,1,30,93.844l.056-.012c.183-.041.367-.079.556-.105.11-.016.222-.021.333-.031s.2-.024.3-.028h.022l.022,0c.113,0,.224,0,.336,0h.109c.07,0,.139,0,.207,0,.12.006.237.024.355.037.1.012.2.018.3.034.118.019.234.048.351.074.1.021.193.036.287.062.117.03.229.071.343.108.091.029.183.053.271.087.116.043.226.1.339.144.083.036.168.067.249.107.116.056.226.121.338.184.073.041.149.078.221.121.118.072.231.154.344.233.059.041.122.079.181.122q.254.19.488.4c11.525.766,11.109-11.568,11.265-14.646a16.21,16.21,0,0,1,.825-4.457,12.809,12.809,0,0,1,9-8.264,77.629,77.629,0,0,0,2.692,8.223c3.927-.762,10.7-9.692,4.691-16.594-3.555-4.082-9.688-4.035-13.887-2.22A50.4,50.4,0,0,0,34.557,54.7c-7.611,0-16.4,2.045-22.714,9.669" transform="translate(0 -54.697)" fill="none"/>
    </clipPath>
    <linearGradient id="linear-gradient-7" x1="0.052" y1="2.25" x2="0.06" y2="2.25" xlink:href="#linear-gradient-4"/>
    <clipPath id="clip-path-20">
      <path id="Trazado_1066362" data-name="Trazado 1066362" d="M74.511,178.541s-16.5,10.093-40.106,1.594c0,0-19.389,4.781-20.452,18.858s11.686,33.731,12.218,42.23S23.78,264.6,32.014,274.688c0,0,28.685,8.765,57.9-2.39,0,0,.081-.075.223-.221,1.261-1.3,7.45-8.393,6.543-21.564a42.248,42.248,0,0,0-.658-5.04c-3.452-18.061-5.312-31.872-5.046-41.965.252-9.569,3.6-25.107-13.478-25.109-.935,0-1.928.047-2.989.143" transform="translate(-13.891 -178.398)" fill="none"/>
    </clipPath>
    <linearGradient id="linear-gradient-8" x1="-0.083" y1="1.592" x2="-0.076" y2="1.592" xlink:href="#linear-gradient-2"/>
    <clipPath id="clip-path-22">
      <rect id="Rectángulo_424490" data-name="Rectángulo 424490" width="4.527" height="5.005" fill="none"/>
    </clipPath>
    <clipPath id="clip-path-23">
      <path id="Trazado_1066372" data-name="Trazado 1066372" d="M60.811,136.931a3.4,3.4,0,1,0,.152,0c-.051,0-.1,0-.152,0" transform="translate(-57.556 -136.928)" fill="none"/>
    </clipPath>
    <linearGradient id="linear-gradient-9" x1="-4.523" y1="26.602" x2="-4.444" y2="26.602" xlink:href="#linear-gradient-5"/>
    <clipPath id="clip-path-25">
      <rect id="Rectángulo_424502" data-name="Rectángulo 424502" width="139.188" height="117.277" fill="none"/>
    </clipPath>
    <clipPath id="clip-path-26">
      <path id="Trazado_1066389" data-name="Trazado 1066389" d="M297.86,65.641a1.695,1.695,0,1,1-1.7-1.7,1.7,1.7,0,0,1,1.7,1.7" transform="translate(-294.47 -63.946)" fill="none"/>
    </clipPath>
    <linearGradient id="linear-gradient-10" x1="-49.953" y1="68.76" x2="-49.783" y2="68.76" xlink:href="#linear-gradient-2"/>
    <clipPath id="clip-path-27">
      <path id="Trazado_1066395" data-name="Trazado 1066395" d="M171.219,84.922a2.467,2.467,0,1,1-2.467-2.467,2.467,2.467,0,0,1,2.467,2.467" transform="translate(-166.285 -82.455)" fill="none"/>
    </clipPath>
    <linearGradient id="linear-gradient-11" x1="-19.378" y1="45.088" x2="-19.262" y2="45.088" xlink:href="#linear-gradient-2"/>
    <clipPath id="clip-path-28">
      <path id="Trazado_1066396" data-name="Trazado 1066396" d="M184.09,84.922a2.467,2.467,0,1,1-2.467-2.467,2.467,2.467,0,0,1,2.467,2.467" transform="translate(-179.156 -82.455)" fill="none"/>
    </clipPath>
    <linearGradient id="linear-gradient-12" x1="-20.878" y1="45.088" x2="-20.762" y2="45.088" xlink:href="#linear-gradient-2"/>
    <clipPath id="clip-path-29">
      <path id="Trazado_1066397" data-name="Trazado 1066397" d="M196.96,84.922a2.467,2.467,0,1,1-2.467-2.467,2.467,2.467,0,0,1,2.467,2.467" transform="translate(-192.027 -82.455)" fill="none"/>
    </clipPath>
    <linearGradient id="linear-gradient-13" x1="-22.381" y1="45.088" x2="-22.264" y2="45.088" xlink:href="#linear-gradient-2"/>
    <clipPath id="clip-path-30">
      <path id="Trazado_1066398" data-name="Trazado 1066398" d="M209.832,84.922a2.467,2.467,0,1,1-2.467-2.467,2.467,2.467,0,0,1,2.467,2.467" transform="translate(-204.898 -82.455)" fill="none"/>
    </clipPath>
    <linearGradient id="linear-gradient-14" x1="-23.881" y1="45.088" x2="-23.764" y2="45.088" xlink:href="#linear-gradient-2"/>
    <clipPath id="clip-path-31">
      <path id="Trazado_1066399" data-name="Trazado 1066399" d="M222.7,84.922a2.467,2.467,0,1,1-2.467-2.467,2.467,2.467,0,0,1,2.467,2.467" transform="translate(-217.769 -82.455)" fill="none"/>
    </clipPath>
    <linearGradient id="linear-gradient-15" x1="-25.381" y1="45.088" x2="-25.264" y2="45.088" xlink:href="#linear-gradient-2"/>
    <clipPath id="clip-path-32">
      <path id="Trazado_1066400" data-name="Trazado 1066400" d="M235.573,84.922a2.467,2.467,0,1,1-2.467-2.467,2.467,2.467,0,0,1,2.467,2.467" transform="translate(-230.639 -82.455)" fill="none"/>
    </clipPath>
    <linearGradient id="linear-gradient-16" x1="-26.878" y1="45.088" x2="-26.761" y2="45.088" xlink:href="#linear-gradient-2"/>
    <clipPath id="clip-path-33">
      <rect id="Rectángulo_424501" data-name="Rectángulo 424501" width="138.613" height="1.026" fill="none"/>
    </clipPath>
  </defs>
  <g id="Grupo_1230157" data-name="Grupo 1230157" transform="translate(-1007.04 -3130.225)">
    <rect id="Rectángulo_423677" data-name="Rectángulo 423677" width="155" height="286" rx="13" transform="translate(1073.774 3130.225)" fill="url(#linear-gradient)"/>
    <g id="Grupo_1229897" data-name="Grupo 1229897" transform="translate(974.156 3146.921)">
      <g id="Grupo_1229898" data-name="Grupo 1229898" transform="translate(32.884 -0.578)">
        <g id="Grupo_1229973" data-name="Grupo 1229973" clip-path="url(#clip-path)">
          <g id="Grupo_1229910" data-name="Grupo 1229910">
            <g id="Grupo_1229909" data-name="Grupo 1229909" clip-path="url(#clip-path)">
              <g id="Grupo_1229908" data-name="Grupo 1229908" transform="translate(126.606)" opacity="0.5">
                <g id="Grupo_1229907" data-name="Grupo 1229907">
                  <g id="Grupo_1229906" data-name="Grupo 1229906" clip-path="url(#clip-path-3)">
                    <g id="Grupo_1229899" data-name="Grupo 1229899" opacity="0.5">
                      <g id="Grupo_1229898-2" data-name="Grupo 1229898">
                        <g id="Grupo_1229897-2" data-name="Grupo 1229897" clip-path="url(#clip-path-3)">
                          <path id="Trazado_1066294" data-name="Trazado 1066294" d="M246.021,18.894H222.756a2.571,2.571,0,0,1-2.571-2.571V2.571A2.571,2.571,0,0,1,222.756,0h23.265a2.571,2.571,0,0,1,2.571,2.571V16.323a2.571,2.571,0,0,1-2.571,2.571" transform="translate(-220.185)" fill="#fff"/>
                        </g>
                      </g>
                    </g>
                    <g id="Grupo_1229905" data-name="Grupo 1229905" transform="translate(4.986 9.447)" opacity="0.5">
                      <g id="Grupo_1229904" data-name="Grupo 1229904">
                        <g id="Grupo_1229903" data-name="Grupo 1229903" clip-path="url(#clip-path-5)">
                          <g id="Grupo_1229902" data-name="Grupo 1229902" style="mix-blend-mode: multiply;isolation: isolate">
                            <g id="Grupo_1229901" data-name="Grupo 1229901">
                              <g id="Grupo_1229900" data-name="Grupo 1229900" clip-path="url(#clip-path-5)">
                                <rect id="Rectángulo_424468" data-name="Rectángulo 424468" width="18.435" height="6.131" fill="#fff"/>
                              </g>
                            </g>
                          </g>
                        </g>
                      </g>
                    </g>
                  </g>
                </g>
              </g>
            </g>
          </g>
          <g id="Grupo_1229912" data-name="Grupo 1229912" transform="translate(31.799 17.996)">
            <g id="Grupo_1229911" data-name="Grupo 1229911" clip-path="url(#clip-path-7)">
              <rect id="Rectángulo_424473" data-name="Rectángulo 424473" width="29.01" height="2.32" transform="translate(0 0)" fill="url(#linear-gradient-2)"/>
            </g>
          </g>
          <g id="Grupo_1229917" data-name="Grupo 1229917">
            <g id="Grupo_1229916" data-name="Grupo 1229916" clip-path="url(#clip-path)">
              <path id="Trazado_1066296" data-name="Trazado 1066296" d="M301.91,334.951H275.22a1.16,1.16,0,1,1,0-2.321h26.69a1.16,1.16,0,1,1,0,2.321" transform="translate(-116.476 -141.368)" fill="#ff6e5f"/>
              <g id="Grupo_1229915" data-name="Grupo 1229915" transform="translate(151.781 199.355)" opacity="0.5">
                <g id="Grupo_1229914" data-name="Grupo 1229914">
                  <g id="Grupo_1229913" data-name="Grupo 1229913" clip-path="url(#clip-path-9)">
                    <path id="Trazado_1066297" data-name="Trazado 1066297" d="M300.907,373.719H267.643a3.677,3.677,0,0,1-3.677-3.677V350.381a3.676,3.676,0,0,1,3.677-3.677h33.265a3.676,3.676,0,0,1,3.677,3.677v19.662a3.677,3.677,0,0,1-3.677,3.677" transform="translate(-263.967 -346.704)" fill="#fff"/>
                  </g>
                </g>
              </g>
              <rect id="Rectángulo_424475" data-name="Rectángulo 424475" width="17.873" height="11.887" transform="translate(163.153 206.919)" fill="none" stroke="#0d1333" stroke-linecap="round" stroke-linejoin="round" stroke-width="1"/>
              <line id="Línea_4666" data-name="Línea 4666" x2="17.873" y2="11.887" transform="translate(163.153 206.919)" fill="none" stroke="#0d1333" stroke-linecap="round" stroke-linejoin="round" stroke-width="1"/>
              <line id="Línea_4667" data-name="Línea 4667" x1="17.905" y2="11.837" transform="translate(163.137 206.943)" fill="none" stroke="#0d1333" stroke-linecap="round" stroke-linejoin="round" stroke-width="1"/>
            </g>
          </g>
          <g id="Grupo_1229919" data-name="Grupo 1229919" transform="translate(196.631 56.836)">
            <g id="Grupo_1229918" data-name="Grupo 1229918" clip-path="url(#clip-path-10)">
              <rect id="Rectángulo_424477" data-name="Rectángulo 424477" width="6.334" height="6.334" transform="translate(0)" fill="url(#linear-gradient-3)"/>
            </g>
          </g>
          <g id="Grupo_1229924" data-name="Grupo 1229924">
            <g id="Grupo_1229923" data-name="Grupo 1229923" clip-path="url(#clip-path)">
              <path id="Trazado_1066298" data-name="Trazado 1066298" d="M186.43,291.11h-2.069a2.139,2.139,0,0,1-2.133-2.132v-2.069a2.139,2.139,0,0,1,2.133-2.133h2.069a2.139,2.139,0,0,1,2.132,2.133v2.069a2.139,2.139,0,0,1-2.132,2.132" transform="translate(-77.447 -121.03)" fill="#ff6e5f"/>
              <g id="Grupo_1229922" data-name="Grupo 1229922" transform="translate(218.934 59.282)" opacity="0.5">
                <g id="Grupo_1229921" data-name="Grupo 1229921">
                  <g id="Grupo_1229920" data-name="Grupo 1229920" clip-path="url(#clip-path-12)">
                    <path id="Trazado_1066299" data-name="Trazado 1066299" d="M408.358,106.568h-.252a.271.271,0,0,0-.087.017,1.753,1.753,0,0,0-.2-.492.257.257,0,0,0,.074-.049l.178-.178a.27.27,0,0,0,0-.381l-.237-.237a.27.27,0,0,0-.381,0l-.178.178a.252.252,0,0,0-.048.073,1.742,1.742,0,0,0-.493-.205.264.264,0,0,0,.017-.085v-.252a.27.27,0,0,0-.269-.27h-.336a.27.27,0,0,0-.27.27v.252a.276.276,0,0,0,.017.085,1.735,1.735,0,0,0-.492.205.263.263,0,0,0-.048-.073l-.179-.178a.27.27,0,0,0-.381,0l-.237.237a.27.27,0,0,0,0,.381l.178.178a.26.26,0,0,0,.074.049,1.76,1.76,0,0,0-.2.492.272.272,0,0,0-.087-.017h-.252a.27.27,0,0,0-.269.27v.335a.27.27,0,0,0,.269.27h.252a.251.251,0,0,0,.089-.018,1.753,1.753,0,0,0,.205.492.257.257,0,0,0-.076.051l-.179.178a.27.27,0,0,0,0,.381l.237.237a.27.27,0,0,0,.381,0l.179-.178a.275.275,0,0,0,.051-.078,1.746,1.746,0,0,0,.49.2.263.263,0,0,0-.018.09v.252a.27.27,0,0,0,.27.27h.336a.27.27,0,0,0,.269-.27V108.8a.26.26,0,0,0-.018-.09,1.759,1.759,0,0,0,.49-.2.263.263,0,0,0,.052.077l.178.178a.27.27,0,0,0,.381,0l.237-.237a.269.269,0,0,0,0-.381l-.178-.178a.257.257,0,0,0-.077-.051,1.73,1.73,0,0,0,.205-.491.267.267,0,0,0,.089.018h.252a.27.27,0,0,0,.27-.27v-.335a.27.27,0,0,0-.27-.27m-2.048,1.318a.884.884,0,1,1,.884-.884.884.884,0,0,1-.884.884" transform="translate(-390.631 -103.774)" fill="#fff"/>
                    <path id="Trazado_1066300" data-name="Trazado 1066300" d="M393.9,108.759h-.759a.807.807,0,0,0-.254.044,5.273,5.273,0,0,0-.608-1.474.806.806,0,0,0,.209-.147l.536-.536a.81.81,0,0,0,0-1.147l-.714-.714a.81.81,0,0,0-1.147,0l-.536.536a.826.826,0,0,0-.145.206,5.271,5.271,0,0,0-1.474-.612.805.805,0,0,0,.043-.248v-.758a.811.811,0,0,0-.811-.811h-1.01a.811.811,0,0,0-.811.811v.758a.805.805,0,0,0,.043.248,5.271,5.271,0,0,0-1.474.612.8.8,0,0,0-.145-.206l-.536-.536a.81.81,0,0,0-1.147,0l-.714.714a.81.81,0,0,0,0,1.147l.536.536a.818.818,0,0,0,.209.147,5.281,5.281,0,0,0-.608,1.474.8.8,0,0,0-.254-.044h-.758a.811.811,0,0,0-.811.811v1.009a.81.81,0,0,0,.811.811h.758a.8.8,0,0,0,.258-.045,5.257,5.257,0,0,0,.612,1.471.792.792,0,0,0-.217.151l-.536.536a.812.812,0,0,0,0,1.147l.714.714a.811.811,0,0,0,1.147,0l.536-.536a.808.808,0,0,0,.153-.22,5.267,5.267,0,0,0,1.471.609.8.8,0,0,0-.048.264v.758a.811.811,0,0,0,.811.811h1.01a.811.811,0,0,0,.811-.811v-.758a.806.806,0,0,0-.048-.264,5.288,5.288,0,0,0,1.472-.609.805.805,0,0,0,.152.22l.536.536a.811.811,0,0,0,1.147,0l.714-.714a.811.811,0,0,0,0-1.147l-.536-.536a.8.8,0,0,0-.217-.151,5.277,5.277,0,0,0,.613-1.471.8.8,0,0,0,.258.045h.759a.811.811,0,0,0,.81-.811V109.57a.811.811,0,0,0-.81-.811m-6.165,3.967a2.661,2.661,0,1,1,2.661-2.661,2.661,2.661,0,0,1-2.661,2.661" transform="translate(-380.756 -103.1)" fill="#fff"/>
                  </g>
                </g>
              </g>
              <path id="Trazado_1066301" data-name="Trazado 1066301" d="M462.749,367.559s-3.1.266-4.241-.619a15.3,15.3,0,0,1,2.692,7.9c.013,3.167.413,4.58.035,6.5,0,0,.3,1.3,1.077-.01s.777-6.879.777-6.879a33.3,33.3,0,0,1-.018,8.32s.487,1.54,1.385.194a15.524,15.524,0,0,0,1.216-2.069s.653.438,1.444-1.454c.5-1.2.692-4.572.766-6.887a6.784,6.784,0,0,0-1.417-2.116c-.749-.547-3.715-1.969-3.715-2.88" transform="translate(-194.866 -155.95)" fill="#89403d"/>
              <path id="Trazado_1066302" data-name="Trazado 1066302" d="M454.165,258.848H442.237s1.448,13.262,3.487,26.472c2.065,13.377,4.72,26.709,4.583,27.483-.5,2.862.145,7.313,1.285,8.2s4.241.619,4.241.619c0,.91,2.966,2.333,3.715,2.88a6.784,6.784,0,0,1,1.417,2.116c.372.716.777,1.541,1.236,2.389,1.1,2.041,2.309,1.357,2.309,1.357s-2.861-9.071-3.219-9.281-4.425-6.135-5.016-8.41c-.255-.984.471-14.9,0-28.224-.459-13.085-2.114-25.6-2.114-25.6" transform="translate(-187.951 -110.011)" fill="#a54e47"/>
              <path id="Trazado_1066303" data-name="Trazado 1066303" d="M456.616,295.776a6.185,6.185,0,0,0-3.938.48" transform="translate(-192.389 -125.65)" fill="none" stroke="#0d1333" stroke-linecap="round" stroke-linejoin="round" stroke-width="1"/>
              <path id="Trazado_1066304" data-name="Trazado 1066304" d="M454.165,258.848H442.237s.658,6.022,1.711,13.989l11.162-5.491c-.5-5.1-.944-8.5-.944-8.5" transform="translate(-187.951 -110.011)" fill="#89403d"/>
            </g>
          </g>
          <g id="Grupo_1229926" data-name="Grupo 1229926" transform="translate(219.171 83.607)">
            <g id="Grupo_1229925" data-name="Grupo 1229925" clip-path="url(#clip-path-13)">
              <rect id="Rectángulo_424481" data-name="Rectángulo 424481" width="57.808" height="56.826" transform="matrix(0.5, -0.866, 0.866, 0.5, -18.869, 32.475)" fill="url(#linear-gradient-4)"/>
            </g>
          </g>
          <g id="Grupo_1229937" data-name="Grupo 1229937">
            <g id="Grupo_1229936" data-name="Grupo 1229936" clip-path="url(#clip-path)">
              <path id="Trazado_1066306" data-name="Trazado 1066306" d="M419.655,393.637h-14.52l-2.378-76.66h-2.123l-2.29,76.66H383.824s-.375-82.169.751-89.8a32.111,32.111,0,0,1,4.632-12.643c10.045,5.945,25.066,0,25.066,0a32.122,32.122,0,0,1,4.632,12.643c1.126,7.636.751,89.8.751,89.8" transform="translate(-163.1 -123.756)" fill="#444343"/>
              <line id="Línea_4668" data-name="Línea 4668" x1="14.619" transform="translate(231.33 193.215)" fill="none" stroke="#fff" stroke-linecap="round" stroke-linejoin="round" stroke-width="1"/>
              <path id="Trazado_1066307" data-name="Trazado 1066307" d="M356.594,242.793a25.6,25.6,0,0,1-11.51-1.241l-3.862,11.912-18.532-14.227.564-9.751a1.507,1.507,0,0,0-2.152.946l-.478,1.681-3.19-6.838s-.814-.917-1.443-.539-.721.727-.591,1.238,1.776,4.841,1.776,4.841-1.68-2.183-2.963-1.385.243,3.092.243,3.092-1.567-1.885-2.561-1.088.361,2.845.361,2.845-1.333-.965-1.935-.341.169,1.661,1.711,3.589c.52.651,3.48,4.843,4.888,5.246,0,0,16.245,17.2,21.993,22.6,1.7,1.6,5.886,5.046,9.339-.152,1.607-2.419,8.582-22.9,8.344-22.424" transform="translate(-131.799 -95.474)" fill="#a54e47"/>
              <path id="Trazado_1066308" data-name="Trazado 1066308" d="M380.039,255.289a25.612,25.612,0,0,1-11.51-1.241l-3.25,10.024,9.9,5.137c2.394-6.505,5-14.215,4.855-13.92" transform="translate(-155.244 -107.971)" fill="#89403d"/>
              <path id="Trazado_1066309" data-name="Trazado 1066309" d="M320.226,235.374s1.879,2.826.753,3.672-3.473-1.965-3.473-1.965,2.452,2.893,1.47,3.638c-.735.558-1.676-.2-1.676-.2" transform="translate(-134.853 -100.034)" fill="none" stroke="#0d1333" stroke-linecap="round" stroke-linejoin="round" stroke-width="1"/>
              <path id="Trazado_1066310" data-name="Trazado 1066310" d="M319.908,246.164s3.122-2,5,1.192" transform="translate(-135.961 -104.356)" fill="none" stroke="#0d1333" stroke-linecap="round" stroke-linejoin="round" stroke-width="1"/>
              <path id="Trazado_1066311" data-name="Trazado 1066311" d="M313.712,243.919s1.359.923,2.156.068-2.073-2.59-2.073-2.59" transform="translate(-133.328 -102.593)" fill="none" stroke="#0d1333" stroke-linecap="round" stroke-linejoin="round" stroke-width="1"/>
              <path id="Trazado_1066312" data-name="Trazado 1066312" d="M368.164,295.984s1.791.2,2.3-.947" transform="translate(-156.47 -125.391)" fill="none" stroke="#0d1333" stroke-linecap="round" stroke-linejoin="round" stroke-width="1"/>
              <path id="Trazado_1066313" data-name="Trazado 1066313" d="M397.965,178.378a3.01,3.01,0,1,1-3.01-3.01,3.01,3.01,0,0,1,3.01,3.01" transform="translate(-166.577 -74.532)" fill="#a54e47"/>
              <path id="Trazado_1066314" data-name="Trazado 1066314" d="M396.37,177.768a1.991,1.991,0,0,0,.118,2.766" transform="translate(-168.235 -75.552)" fill="none" stroke="#0d1333" stroke-linecap="round" stroke-linejoin="round" stroke-width="1"/>
              <path id="Trazado_1066315" data-name="Trazado 1066315" d="M395.853,180.207s1.1-1.258,3.8.136" transform="translate(-168.238 -76.367)" fill="none" stroke="#0d1333" stroke-linecap="round" stroke-linejoin="round" stroke-width="1"/>
              <path id="Trazado_1066316" data-name="Trazado 1066316" d="M397.707,184.375a2.019,2.019,0,1,1-.96-1.719l-.6.979a.869.869,0,1,0,.413.74Z" transform="translate(-167.31 -77.501)" fill="url(#linear-gradient-5)"/>
              <path id="Trazado_1066317" data-name="Trazado 1066317" d="M417.31,170.213h0a14.315,14.315,0,0,1-11.843-9c-2.9,5.99-5.912,7.744-7.692,8.235a13.677,13.677,0,0,0-.107,1.694,12.125,12.125,0,0,0,4.565,9.751c0-.03,0-.031,0,0a8.759,8.759,0,0,0,5.273,1.8,8.649,8.649,0,0,0,4.551-1.312h0c.128-.076.248-.159.37-.24a12.031,12.031,0,0,0,4.915-10c0-.312-.014-.62-.035-.926" transform="translate(-169.009 -68.515)" fill="#a54e47"/>
              <path id="Trazado_1066318" data-name="Trazado 1066318" d="M412.779,179.215l-.85-.171a1.412,1.412,0,0,1-1.018-1.948l.99-2.274a5.766,5.766,0,0,0,.429-3.062" transform="translate(-174.588 -72.998)" fill="none" stroke="#0d1333" stroke-linecap="round" stroke-linejoin="round" stroke-width="1"/>
              <g id="Grupo_1229929" data-name="Grupo 1229929" transform="translate(231.499 104.2)" opacity="0.5">
                <g id="Grupo_1229928" data-name="Grupo 1229928">
                  <g id="Grupo_1229927" data-name="Grupo 1229927" clip-path="url(#clip-path-15)">
                    <path id="Trazado_1066319" data-name="Trazado 1066319" d="M404.565,181.228c-.673-.124-.761.91-.761.91s-.526-.895-1.08-.493,1.033,2.117,1.428,2.027,1.087-2.321.413-2.445" transform="translate(-402.607 -181.218)" fill="#eb2730"/>
                  </g>
                </g>
              </g>
              <path id="Trazado_1066320" data-name="Trazado 1066320" d="M405.32,168.833a4.607,4.607,0,0,0-1.647.846" transform="translate(-171.561 -71.754)" fill="none" stroke="#0d1333" stroke-linecap="round" stroke-linejoin="round" stroke-width="1"/>
              <path id="Trazado_1066321" data-name="Trazado 1066321" d="M413.36,188.143s-.577-.727-1.023-.176,1.04,2.611,1.675,2.421c.6-.179.841-2.574.164-2.854-.638-.264-.816.608-.816.608" transform="translate(-175.208 -79.681)" fill="#eb2730"/>
              <path id="Trazado_1066322" data-name="Trazado 1066322" d="M412.031,189.592a2.638,2.638,0,0,0,2.644-.863" transform="translate(-175.113 -80.21)" fill="none" stroke="#0d1333" stroke-linecap="round" stroke-linejoin="round" stroke-width="1"/>
              <g id="Grupo_1229932" data-name="Grupo 1229932" transform="translate(241.201 104.2)" opacity="0.5">
                <g id="Grupo_1229931" data-name="Grupo 1229931">
                  <g id="Grupo_1229930" data-name="Grupo 1229930" clip-path="url(#clip-path-15)">
                    <path id="Trazado_1066323" data-name="Trazado 1066323" d="M419.762,181.228c.673-.124.761.91.761.91s.526-.895,1.08-.493-1.033,2.117-1.428,2.027-1.087-2.321-.413-2.445" transform="translate(-419.48 -181.218)" fill="#eb2730"/>
                  </g>
                </g>
              </g>
              <path id="Trazado_1066324" data-name="Trazado 1066324" d="M420.37,168.833a4.607,4.607,0,0,1,1.647.846" transform="translate(-178.658 -71.754)" fill="none" stroke="#0d1333" stroke-linecap="round" stroke-linejoin="round" stroke-width="1"/>
              <path id="Trazado_1066325" data-name="Trazado 1066325" d="M419.356,174.482a.6.6,0,1,0,.6-.6.6.6,0,0,0-.6.6" transform="translate(-178.227 -73.902)" fill="#0d1333"/>
              <path id="Trazado_1066326" data-name="Trazado 1066326" d="M406.727,174.482a.6.6,0,1,1-.6-.6.6.6,0,0,1,.6.6" transform="translate(-172.353 -73.902)" fill="#0d1333"/>
              <path id="Trazado_1066327" data-name="Trazado 1066327" d="M424.657,196.137v0" transform="translate(-180.48 -83.358)" fill="#f4dfb5"/>
              <path id="Trazado_1066328" data-name="Trazado 1066328" d="M424.67,194.889c0,.228-.009.47-.013.718,0-.248.009-.489.013-.718" transform="translate(-180.48 -82.828)" fill="#ddc497"/>
              <path id="Trazado_1066329" data-name="Trazado 1066329" d="M405.607,195.437h0c.017.925.03,2,.026,2.988,0-.99-.009-2.064-.026-2.988" transform="translate(-172.383 -83.061)" fill="#ddc497"/>
              <path id="Trazado_1066330" data-name="Trazado 1066330" d="M424.623,198.515h0c0-.783.007-1.606.02-2.359-.012.753-.021,1.577-.02,2.359" transform="translate(-180.465 -83.366)" fill="#ddc497"/>
              <path id="Trazado_1066331" data-name="Trazado 1066331" d="M405.6,195.273l0,.094,0-.094" transform="translate(-172.382 -82.991)" fill="#f4897d"/>
              <path id="Trazado_1066332" data-name="Trazado 1066332" d="M423.068,195.87c-.122.081-.242.164-.37.24q.187-.116.37-.24" transform="translate(-179.647 -83.245)" fill="#f4897d"/>
              <path id="Trazado_1066333" data-name="Trazado 1066333" d="M429.617,178.47a3.01,3.01,0,1,0,3.01-3.01,3.01,3.01,0,0,0-3.01,3.01" transform="translate(-182.588 -74.571)" fill="#a54e47"/>
              <path id="Trazado_1066334" data-name="Trazado 1066334" d="M435.188,177.86a1.991,1.991,0,0,1-.118,2.766" transform="translate(-184.905 -75.591)" fill="none" stroke="#0d1333" stroke-linecap="round" stroke-linejoin="round" stroke-width="1"/>
              <path id="Trazado_1066335" data-name="Trazado 1066335" d="M433.37,180.3s-1.1-1.258-3.8.136" transform="translate(-182.567 -76.406)" fill="none" stroke="#0d1333" stroke-linecap="round" stroke-linejoin="round" stroke-width="1"/>
              <path id="Trazado_1066336" data-name="Trazado 1066336" d="M431.929,184.375a2.019,2.019,0,1,1-.96-1.719l-.6.979a.869.869,0,1,0,.413.74Z" transform="translate(-181.854 -77.501)" fill="url(#linear-gradient-6)"/>
              <path id="Trazado_1066337" data-name="Trazado 1066337" d="M376.525,262.374l-2.042-20.419-12.726-2.535A54.221,54.221,0,0,1,367.7,223.5c6.418-10.939,19.107-13.929,19.107-13.929h11.158s12.69,2.99,19.107,13.929a54.235,54.235,0,0,1,5.943,15.916l-12.726,2.535-2.042,20.419s-5.9,3.865-15.861,3.865-15.862-3.865-15.862-3.865" transform="translate(-153.747 -89.07)" fill="#ffb1a5"/>
              <path id="Trazado_1066338" data-name="Trazado 1066338" d="M416.583,206.058c-.061-.619-.083-4.7-.085-5.8a8.69,8.69,0,0,1-5.634,1.982v0h-.048v0a8.142,8.142,0,0,1-5.223-1.766c0,1.014-.027,5-.083,5.583,0,0,1.084,1.622,5.33,1.622s5.746-1.622,5.746-1.622" transform="translate(-172.341 -85.11)" fill="#a54e47"/>
              <path id="Trazado_1066339" data-name="Trazado 1066339" d="M410.857,199.96h.049v0a8.689,8.689,0,0,0,5.634-1.982c0-.782.008-1.606.02-2.359v-.011c0-.248.009-.489.013-.717a8.8,8.8,0,0,1-.77.564c-.121.083-.245.163-.37.24l0,0a8.651,8.651,0,0,1-4.551,1.312,8.765,8.765,0,0,1-5.273-1.8c.017.924.03,2,.026,2.988a8.14,8.14,0,0,0,5.223,1.766v0" transform="translate(-172.383 -82.828)" fill="#89403d"/>
              <g id="Grupo_1229935" data-name="Grupo 1229935" transform="translate(123.273 109.52)" opacity="0.5">
                <g id="Grupo_1229934" data-name="Grupo 1229934">
                  <g id="Grupo_1229933" data-name="Grupo 1229933" clip-path="url(#clip-path-17)">
                    <rect id="Rectángulo_424484" data-name="Rectángulo 424484" width="86.09" height="66.959" transform="translate(0.001 -0.001)" fill="#fff"/>
                    <path id="Trazado_1066340" data-name="Trazado 1066340" d="M269.841,288.343V283.56a1.594,1.594,0,1,1,3.188,0v4.783a1.594,1.594,0,1,1-3.188,0" transform="translate(-237.956 -229.356)" fill="#8995c7"/>
                    <path id="Trazado_1066341" data-name="Trazado 1066341" d="M258.75,283.63v-11.16a1.594,1.594,0,1,1,3.188,0v11.16a1.594,1.594,0,1,1-3.188,0" transform="translate(-233.242 -224.643)" fill="#efc459"/>
                    <path id="Trazado_1066342" data-name="Trazado 1066342" d="M247.66,285.987v-7.971a1.594,1.594,0,1,1,3.188,0v7.971a1.594,1.594,0,1,1-3.188,0" transform="translate(-228.529 -226.999)" fill="#f76c5e"/>
                    <path id="Trazado_1066343" data-name="Trazado 1066343" d="M236.57,277.738V258.607a1.594,1.594,0,0,1,3.188,0v19.131a1.594,1.594,0,1,1-3.188,0" transform="translate(-223.815 -218.751)" fill="#55cdf2"/>
                    <path id="Trazado_1066344" data-name="Trazado 1066344" d="M225.479,282.452V269.7a1.594,1.594,0,1,1,3.188,0v12.754a1.594,1.594,0,1,1-3.188,0" transform="translate(-219.102 -223.464)" fill="#55cdf2"/>
                    <path id="Trazado_1066345" data-name="Trazado 1066345" d="M314.2,278.016a1.592,1.592,0,0,1,1.594-1.594H331.74a1.594,1.594,0,1,1,0,3.188H315.8a1.593,1.593,0,0,1-1.594-1.594" transform="translate(-256.809 -227)" fill="#c0c1bf"/>
                    <path id="Trazado_1066346" data-name="Trazado 1066346" d="M300.34,289.106a1.592,1.592,0,0,1,1.594-1.594h23.914a1.594,1.594,0,1,1,0,3.188H301.934a1.593,1.593,0,0,1-1.594-1.595" transform="translate(-250.918 -231.713)" fill="#c0c1bf"/>
                    <path id="Trazado_1066347" data-name="Trazado 1066347" d="M239.342,219.79a1.593,1.593,0,0,1,1.594-1.594h12.754a1.594,1.594,0,0,1,0,3.189H240.936a1.593,1.593,0,0,1-1.594-1.594" transform="translate(-224.993 -202.254)" fill="#c0c1bf"/>
                    <path id="Trazado_1066348" data-name="Trazado 1066348" d="M225.941,220.937a1.617,1.617,0,1,1,1.132.462,1.677,1.677,0,0,1-1.132-.462" transform="translate(-219.102 -202.268)" fill="#c0c1bf"/>
                    <path id="Trazado_1066349" data-name="Trazado 1066349" d="M225.479,205.927a1.593,1.593,0,0,1,1.594-1.594h4.783a1.594,1.594,0,0,1,0,3.189h-4.783a1.593,1.593,0,0,1-1.594-1.6" transform="translate(-219.102 -196.362)" fill="#c0c1bf"/>
                    <path id="Trazado_1066350" data-name="Trazado 1066350" d="M255.978,205.927a1.593,1.593,0,0,1,1.594-1.594h3.188a1.594,1.594,0,1,1,0,3.189h-3.188a1.593,1.593,0,0,1-1.594-1.6" transform="translate(-232.064 -196.362)" fill="#c0c1bf"/>
                    <path id="Trazado_1066351" data-name="Trazado 1066351" d="M245.349,207.074a1.677,1.677,0,0,1-.462-1.132,1.64,1.64,0,0,1,.462-1.132,1.594,1.594,0,1,1,0,2.264" transform="translate(-227.35 -196.376)" fill="#c0c1bf"/>
                    <path id="Trazado_1066352" data-name="Trazado 1066352" d="M322.729,221.072a16.74,16.74,0,1,1-16.74-16.74,16.74,16.74,0,0,1,16.74,16.74" transform="translate(-246.204 -196.361)" fill="#55cdf2"/>
                    <path id="Trazado_1066353" data-name="Trazado 1066353" d="M294.715,211.928h.029l12.016,13.137c-.011.013-.014.032-.033.032H289.289l-.022-.021a16.7,16.7,0,0,1,5.448-13.148" transform="translate(-246.204 -199.59)" fill="#efc459"/>
                    <path id="Trazado_1066354" data-name="Trazado 1066354" d="M298.755,208.7h0c.154-.139.312-.274.47-.409.051-.043.1-.087.153-.131.143-.118.29-.231.437-.345.071-.055.14-.11.212-.164.14-.1.283-.2.426-.3.083-.058.164-.117.248-.173.139-.093.28-.182.421-.271.093-.058.185-.117.278-.174.138-.084.278-.163.419-.243.1-.057.2-.114.3-.169.137-.074.277-.144.416-.215q.164-.082.33-.162.205-.1.414-.189.176-.078.354-.151c.137-.057.275-.112.414-.165.124-.047.248-.093.373-.137s.275-.1.413-.141.263-.083.4-.123.272-.08.409-.117.279-.072.42-.106.269-.067.4-.1.294-.059.443-.087c.132-.025.263-.051.4-.072.156-.026.315-.046.473-.067.128-.017.254-.036.382-.051.168-.018.337-.031.507-.045.121-.01.241-.023.363-.029.189-.011.381-.016.572-.02.1,0,.205-.009.309-.01.3,0,.593,0,.892.017l.022.022v17.438c0,.014-.018.016-.026.026L298.784,208.7Z" transform="translate(-250.244 -196.362)" fill="#f76c5e"/>
                  </g>
                </g>
              </g>
            </g>
          </g>
          <g id="Grupo_1229939" data-name="Grupo 1229939" transform="translate(0 31.451)">
            <g id="Grupo_1229938" data-name="Grupo 1229938" clip-path="url(#clip-path-18)">
              <rect id="Rectángulo_424487" data-name="Rectángulo 424487" width="76.764" height="106.635" transform="translate(-6.345 0.202) rotate(-2.533)" fill="url(#linear-gradient-7)"/>
            </g>
          </g>
          <g id="Grupo_1229941" data-name="Grupo 1229941">
            <g id="Grupo_1229940" data-name="Grupo 1229940" clip-path="url(#clip-path)">
              <path id="Trazado_1066356" data-name="Trazado 1066356" d="M77.886,157.34c-7-.313-15.736-2.1-18.972-7.911L58.9,149.4a6.669,6.669,0,0,1-1.015,1.56c0-.029,0-.058,0-.087.213,4.661.4,9.762.324,11.185-.124,2.353-1.7,4.532-8.639,5.75,23.607,8.5,40.106-1.593,40.106-1.593-.7-.068-1.349-.149-2.1-.213-7.02-.6-8.259-2.529-8.59-4.862-.085-.6-.173-2.023-.257-3.832,0,.019,0,.04,0,.059-.279-.008-.561-.018-.846-.03" transform="translate(-21.066 -63.497)" fill="#e07769"/>
              <path id="Trazado_1066357" data-name="Trazado 1066357" d="M54.91,114.541a6.662,6.662,0,0,0,1.036-1.574l.013-.025.012.024c3.236,5.814,11.971,7.6,18.972,7.911.3.013.59.023.88.032a44.077,44.077,0,0,0,7.64-.381A3.834,3.834,0,0,0,86.041,119c1.874-2.535,1.2-7.641.674-12.077a36.285,36.285,0,0,0-.946-4.993l1.258-1.1a2.724,2.724,0,0,0-.17-4.236l-3.838-2.851a11.111,11.111,0,0,1-3.658-4.71c-.347-.848-.752-1.845-1.186-2.937a77.764,77.764,0,0,1-2.691-8.222,12.807,12.807,0,0,0-9,8.264A16.2,16.2,0,0,0,65.66,90.6c-.156,3.079.259,15.412-11.265,14.646a6.626,6.626,0,0,0-4.721-1.726,6.649,6.649,0,1,0,.542,13.287,6.611,6.611,0,0,0,4.595-2.146c.034-.038.065-.078.1-.117" transform="translate(-18.391 -33.097)" fill="#e07769"/>
              <path id="Trazado_1066358" data-name="Trazado 1066358" d="M54.521,128.065s-3.716,1.9-2.039,5.649" transform="translate(-22.12 -54.428)" fill="none" stroke="#0d1333" stroke-linecap="round" stroke-linejoin="round" stroke-width="1"/>
              <path id="Trazado_1066359" data-name="Trazado 1066359" d="M52.21,132.8s3.241-1.62,7.519,3.4" transform="translate(-22.189 -56.336)" fill="none" stroke="#0d1333" stroke-linecap="round" stroke-linejoin="round" stroke-width="1"/>
              <path id="Trazado_1066360" data-name="Trazado 1066360" d="M207.919,398.671s-4.869,3.453-7.614,3.1c2.391.8,9.031,5.223,12.13,10.447s5.135,7.171,6.374,10.713c0,0,1.771,1.859,1.771-1.063s-5.4-12.129-5.4-12.129,5.755,7.452,8.056,13.775c0,0,2.3,2.073,2.479-1.026a29.775,29.775,0,0,0,0-4.6s1.505.089.974-3.807c-.336-2.467-3.3-8.233-5.427-12.133a12.993,12.993,0,0,0-4.4-2.121c-1.77-.177-8.056.354-8.942-1.151" transform="translate(-85.13 -169.435)" fill="#c66960"/>
              <path id="Trazado_1066361" data-name="Trazado 1066361" d="M193.549,352.16c-.8,0-13.28-5.843-16.467-9.03-2.733-2.733-19.36-31.245-24.042-39.314.906,13.171-5.283,20.265-6.544,21.564,6.624,6.69,19.413,19.92,20.848,23.77,1.948,5.223,7.348,11.952,10.092,12.306s7.614-3.1,7.614-3.1c.885,1.5,7.171.974,8.942,1.151a13,13,0,0,1,4.4,2.122c1.311.822,2.784,1.791,4.365,2.748,3.807,2.3,5.135,0,5.135,0s-13.545-12.218-14.342-12.218" transform="translate(-62.26 -129.122)" fill="#e07769"/>
            </g>
          </g>
          <g id="Grupo_1229943" data-name="Grupo 1229943" transform="translate(7.987 102.579)">
            <g id="Grupo_1229942" data-name="Grupo 1229942" clip-path="url(#clip-path-20)">
              <rect id="Rectángulo_424489" data-name="Rectángulo 424489" width="84.697" height="105.055" transform="translate(-0.999 0)" fill="url(#linear-gradient-8)"/>
            </g>
          </g>
          <g id="Grupo_1229948" data-name="Grupo 1229948">
            <g id="Grupo_1229947" data-name="Grupo 1229947" clip-path="url(#clip-path)">
              <path id="Trazado_1066363" data-name="Trazado 1066363" d="M100.232,162.045c0,.11.01.22.014.328,0-.108-.01-.217-.014-.328" transform="translate(-42.599 -68.869)" fill="#ffc0bb"/>
              <path id="Trazado_1066364" data-name="Trazado 1066364" d="M100.272,162.926c0-.1-.01-.206-.014-.311,0,.1.01.209.014.311" transform="translate(-42.61 -69.112)" fill="#edaeab"/>
              <path id="Trazado_1066365" data-name="Trazado 1066365" d="M84.625,152.209c0-.1-.009-.208-.014-.315s-.009-.224-.014-.338q-.014-.326-.027-.661l-.01-.262q-.009-.205-.016-.413c0-.091-.007-.182-.011-.274l-.016-.411c0-.1-.007-.2-.011-.3-.018-.508-.037-1.021-.055-1.536l-.005-.157-.017-.5c0-.065,0-.129-.006-.194-.29-.009-.583-.018-.88-.032-7-.313-15.736-2.1-18.972-7.911h-.025a6.661,6.661,0,0,1-1.036,1.574v.014q.016.288.033.6c0,.04,0,.078.006.118.006.11.012.223.018.336,0,.055.006.11.009.165.006.122.013.247.02.373,0,.049.005.1.007.149.006.121.013.242.019.366.006.108.011.219.017.329q.012.239.024.484c.005.094.01.187.014.282.007.139.014.281.021.422,0,.056.006.112.008.169.007.136.013.272.02.409,0,.075.007.151.011.227.006.133.013.267.019.4l.007.154q.022.465.044.938c0,.029,0,.058,0,.087a6.669,6.669,0,0,0,1.015-1.56l.012.024c3.236,5.813,11.971,7.6,18.972,7.911.286.013.567.022.846.03,0-.02,0-.04,0-.059,0-.1-.009-.207-.014-.311s-.01-.217-.014-.328" transform="translate(-26.992 -59.033)" fill="#c66960"/>
              <g id="Grupo_1229946" data-name="Grupo 1229946" transform="translate(55.769 66.694)" opacity="0.5">
                <g id="Grupo_1229945" data-name="Grupo 1229945">
                  <g id="Grupo_1229944" data-name="Grupo 1229944" clip-path="url(#clip-path-22)">
                    <path id="Trazado_1066366" data-name="Trazado 1066366" d="M100.891,116c-1.374-.19-1.459,1.91-1.459,1.91s-1.144-1.764-2.229-.9,2.28,4.189,3.07,3.973,1.992-4.793.618-4.983" transform="translate(-96.99 -115.989)" fill="#eb2730"/>
                  </g>
                </g>
              </g>
              <path id="Trazado_1066367" data-name="Trazado 1066367" d="M112.442,110.181l1.258-1.1a2.724,2.724,0,0,0-.17-4.236l-3.838-2.851a11.117,11.117,0,0,1-3.658-4.71" transform="translate(-45.065 -41.345)" fill="none" stroke="#0d1333" stroke-linecap="round" stroke-linejoin="round" stroke-width="1"/>
              <path id="Trazado_1066368" data-name="Trazado 1066368" d="M97,91.582a9.325,9.325,0,0,0-3.257,1.858" transform="translate(-39.839 -38.922)" fill="none" stroke="#0d1333" stroke-linecap="round" stroke-linejoin="round" stroke-width="1"/>
              <path id="Trazado_1066369" data-name="Trazado 1066369" d="M100.218,102.959a1.206,1.206,0,1,1-1.258-1.152,1.206,1.206,0,0,1,1.258,1.152" transform="translate(-41.568 -43.268)" fill="#0d1333"/>
              <path id="Trazado_1066370" data-name="Trazado 1066370" d="M110.289,126.8s1.1-1.521,2.053-.447-1.869,5.375-3.172,5.049c-1.234-.309-1.93-5.132-.587-5.759,1.268-.592,1.706,1.158,1.706,1.158" transform="translate(-45.838 -53.348)" fill="#eb2730"/>
              <path id="Trazado_1066371" data-name="Trazado 1066371" d="M112.567,129.68a5.34,5.34,0,0,1-5.426-1.508" transform="translate(-45.535 -54.473)" fill="none" stroke="#0d1333" stroke-linecap="round" stroke-linejoin="round" stroke-width="1"/>
            </g>
          </g>
          <g id="Grupo_1229950" data-name="Grupo 1229950" transform="translate(33.095 78.733)">
            <g id="Grupo_1229949" data-name="Grupo 1229949" clip-path="url(#clip-path-23)">
              <rect id="Rectángulo_424492" data-name="Rectángulo 424492" width="7.267" height="7.191" transform="translate(-0.384 0.013) rotate(-2.533)" fill="url(#linear-gradient-9)"/>
            </g>
          </g>
          <g id="Grupo_1229972" data-name="Grupo 1229972">
            <g id="Grupo_1229971" data-name="Grupo 1229971" clip-path="url(#clip-path)">
              <path id="Trazado_1066373" data-name="Trazado 1066373" d="M168.065,162.217c-.531-.133-7.7,0-9.96.93s-11.819,7.835-18.326,13.412-43.691,32.935-43.691,32.935l-7.27-5.625-2.013-1.558c-2.279,1.273-5.993,4.79-9.689,9.344a65.354,65.354,0,0,0-4.644,6.438c1.1.844,2.452,1.881,3.947,3.01,4.906,3.706,11.258,8.366,14.489,10.17,5.71,3.187,8.5.664,11.023-1.062s35.192-36.387,37.715-39.309,2.656-.93,5.18-1.594,7.3-5.577,9.3-7.038,1.195-6.109,1.593-7.968-1.46-2.789-1.063-2.8,5.18-5.966,5.18-5.966c8.5-.133,8.765-3.187,8.233-3.32" transform="translate(-30.801 -68.924)" fill="#e07769"/>
              <path id="Trazado_1066374" data-name="Trazado 1066374" d="M28.781,221.735l22.311,17.884.118-.139c-.4-1.73,2.641-7.187,7.337-12.972,5.173-6.372,10.379-10.717,11.643-9.719L46.178,197.123" transform="translate(-12.232 -83.777)" fill="none" stroke="#0d1333" stroke-linecap="round" stroke-linejoin="round" stroke-width="1"/>
              <path id="Trazado_1066375" data-name="Trazado 1066375" d="M101.005,231.5l-.193-.158a.635.635,0,0,1,.152.206Z" transform="translate(-42.845 -98.318)" fill="none" stroke="#0d1333" stroke-linecap="round" stroke-linejoin="round" stroke-width="1"/>
              <path id="Trazado_1066376" data-name="Trazado 1066376" d="M100.8,231.329l-.006,0,.009.007Z" transform="translate(-42.839 -98.313)" fill="none" stroke="#0d1333" stroke-linecap="round" stroke-linejoin="round" stroke-width="1"/>
              <path id="Trazado_1066377" data-name="Trazado 1066377" d="M67.762,265.958a.747.747,0,0,0,.225.426c.818.664,3.329-.963,6.415-3.95-1.494-1.129-2.85-2.165-3.947-3.01-1.9,3.045-2.938,5.481-2.693,6.533" transform="translate(-28.784 -110.256)" fill="#182f54"/>
              <path id="Trazado_1066378" data-name="Trazado 1066378" d="M99.514,231.433a.637.637,0,0,0-.152-.206l-.009-.007c-.361-.285-1.043-.133-1.953.375l2.013,1.558a2.533,2.533,0,0,0,.1-1.72" transform="translate(-41.395 -98.208)" fill="#182f54"/>
              <path id="Trazado_1066379" data-name="Trazado 1066379" d="M87.852,341.318c-.142.146-.223.221-.223.221-29.216,11.155-57.9,2.39-57.9,2.39L8.512,414.942H55.58l7.791-21.257v21.257h40.017s8.591-39.715-15.536-73.624" transform="translate(-3.618 -145.06)" fill="#efefef"/>
              <path id="Trazado_1066380" data-name="Trazado 1066380" d="M41.972,354.9s31.968,10.735,63.936-3.344" transform="translate(-17.838 -149.41)" fill="none" stroke="#0d1333" stroke-linecap="round" stroke-linejoin="round" stroke-width="2"/>
              <path id="Trazado_1066381" data-name="Trazado 1066381" d="M54.265,363.263s-7.412,13.011-24.633,20.36" transform="translate(-12.594 -154.387)" fill="none" stroke="#0d1333" stroke-linecap="round" stroke-linejoin="round" stroke-width="2"/>
              <path id="Trazado_1066382" data-name="Trazado 1066382" d="M142.515,355.735s4.935,15.12,16.249,22.427" transform="translate(-60.569 -151.188)" fill="none" stroke="#0d1333" stroke-linecap="round" stroke-linejoin="round" stroke-width="2"/>
              <path id="Trazado_1066383" data-name="Trazado 1066383" d="M103.919,432.391l8.322,21.257h-8.322Z" transform="translate(-44.166 -183.766)" fill="#c1bfbf"/>
              <path id="Trazado_1066384" data-name="Trazado 1066384" d="M106.431,363.263l1.649,27.4-4.161,1.013v11.333" transform="translate(-44.166 -154.387)" fill="none" stroke="#0d1333" stroke-linecap="round" stroke-linejoin="round" stroke-width="2"/>
              <circle id="Elipse_14071" data-name="Elipse 14071" cx="1.04" cy="1.04" r="1.04" transform="translate(57.673 211.706)" fill="none" stroke="#0d1333" stroke-linecap="round" stroke-linejoin="round" stroke-width="2"/>
              <g id="Grupo_1229970" data-name="Grupo 1229970" transform="translate(46.017 34.057)" opacity="0.5">
                <g id="Grupo_1229969" data-name="Grupo 1229969">
                  <g id="Grupo_1229968" data-name="Grupo 1229968" clip-path="url(#clip-path-25)">
                    <path id="Trazado_1066385" data-name="Trazado 1066385" d="M250.244,77.666H155.418V184.322h91.3a4.266,4.266,0,0,0,4.253-4.254V77.617a5.941,5.941,0,0,1-.726.049" transform="translate(-112.069 -67.045)" fill="#fff"/>
                    <path id="Trazado_1066386" data-name="Trazado 1066386" d="M81.255,77.666a5.94,5.94,0,0,1-.726-.049V180.068a4.266,4.266,0,0,0,4.253,4.254H123.59V77.666Z" transform="translate(-80.241 -67.045)" fill="#fff"/>
                    <path id="Trazado_1066387" data-name="Trazado 1066387" d="M214.889,59.23H84.782a4.266,4.266,0,0,0-4.253,4.253V69.8a5.939,5.939,0,0,0,.726.049H218.416a5.939,5.939,0,0,0,.726-.049V63.483a4.266,4.266,0,0,0-4.253-4.253" transform="translate(-80.241 -59.23)" fill="#fff"/>
                    <path id="Trazado_1066388" data-name="Trazado 1066388" d="M286.069,65.641a1.695,1.695,0,1,1-1.7-1.7,1.7,1.7,0,0,1,1.7,1.7" transform="translate(-166.155 -61.234)" fill="#ff6e5f"/>
                    <g id="Grupo_1229952" data-name="Grupo 1229952" transform="translate(123.303 2.712)">
                      <g id="Grupo_1229951" data-name="Grupo 1229951" clip-path="url(#clip-path-26)">
                        <rect id="Rectángulo_424493" data-name="Rectángulo 424493" width="3.39" height="3.39" transform="translate(0 0)" fill="url(#linear-gradient-10)"/>
                      </g>
                    </g>
                    <path id="Trazado_1066390" data-name="Trazado 1066390" d="M309.65,65.641a1.695,1.695,0,1,1-1.7-1.7,1.7,1.7,0,0,1,1.7,1.7" transform="translate(-176.177 -61.234)" fill="#efc459"/>
                    <line id="Línea_4669" data-name="Línea 4669" x2="138.613" transform="translate(0.287 22.297)" fill="none" stroke="#0d1333" stroke-linecap="round" stroke-linejoin="round" stroke-width="1"/>
                    <path id="Trazado_1066391" data-name="Trazado 1066391" d="M247.274,135.947l-11.533.608,2.077,2.792-8.93,6.642-4.712-6.335L177.051,174.7l3.18,4.276,42.85-31.867,4.712,6.335L241,143.623l2.375,3.194Z" transform="translate(-121.263 -91.835)" fill="#55cdf2"/>
                    <path id="Trazado_1066392" data-name="Trazado 1066392" d="M247.274,135.947l-11.533.608,2.077,2.792-8.93,6.642-4.712-6.335L177.051,174.7l3.18,4.276,42.85-31.867,4.712,6.335L241,143.623l2.375,3.194Z" transform="translate(-121.263 -91.835)" fill="#55cdf2"/>
                    <path id="Trazado_1066393" data-name="Trazado 1066393" d="M288.595,131.591l-15.185,1.4,2.077,2.792" transform="translate(-162.216 -89.984)" fill="none" stroke="#f76c5e" stroke-miterlimit="10" stroke-width="4"/>
                    <path id="Trazado_1066394" data-name="Trazado 1066394" d="M233,168.018l13.679-10.172,4.711,6.335,13.207-9.821" transform="translate(-145.044 -99.66)" fill="none" stroke="#efc459" stroke-miterlimit="10" stroke-width="4"/>
                    <g id="Grupo_1229954" data-name="Grupo 1229954" transform="translate(49.597 13.354)">
                      <g id="Grupo_1229953" data-name="Grupo 1229953" clip-path="url(#clip-path-27)">
                        <rect id="Rectángulo_424494" data-name="Rectángulo 424494" width="4.934" height="4.934" transform="translate(0 0)" fill="url(#linear-gradient-11)"/>
                      </g>
                    </g>
                    <g id="Grupo_1229956" data-name="Grupo 1229956" transform="translate(56.998 13.354)">
                      <g id="Grupo_1229955" data-name="Grupo 1229955" clip-path="url(#clip-path-28)">
                        <rect id="Rectángulo_424495" data-name="Rectángulo 424495" width="4.934" height="4.934" transform="translate(0 0)" fill="url(#linear-gradient-12)"/>
                      </g>
                    </g>
                    <g id="Grupo_1229958" data-name="Grupo 1229958" transform="translate(64.399 13.354)">
                      <g id="Grupo_1229957" data-name="Grupo 1229957" clip-path="url(#clip-path-29)">
                        <rect id="Rectángulo_424496" data-name="Rectángulo 424496" width="4.933" height="4.934" transform="translate(0 0)" fill="url(#linear-gradient-13)"/>
                      </g>
                    </g>
                    <g id="Grupo_1229960" data-name="Grupo 1229960" transform="translate(71.8 13.354)">
                      <g id="Grupo_1229959" data-name="Grupo 1229959" transform="translate(0)" clip-path="url(#clip-path-30)">
                        <rect id="Rectángulo_424497" data-name="Rectángulo 424497" width="4.933" height="4.934" transform="translate(0 0)" fill="url(#linear-gradient-14)"/>
                      </g>
                    </g>
                    <g id="Grupo_1229962" data-name="Grupo 1229962" transform="translate(79.2 13.354)">
                      <g id="Grupo_1229961" data-name="Grupo 1229961" transform="translate(0)" clip-path="url(#clip-path-31)">
                        <rect id="Rectángulo_424498" data-name="Rectángulo 424498" width="4.933" height="4.934" transform="translate(0 0)" fill="url(#linear-gradient-15)"/>
                      </g>
                    </g>
                    <g id="Grupo_1229964" data-name="Grupo 1229964" transform="translate(86.601 13.354)">
                      <g id="Grupo_1229963" data-name="Grupo 1229963" transform="translate(0)" clip-path="url(#clip-path-32)">
                        <rect id="Rectángulo_424499" data-name="Rectángulo 424499" width="4.934" height="4.934" transform="translate(0 0)" fill="url(#linear-gradient-16)"/>
                      </g>
                    </g>
                    <g id="Grupo_1229967" data-name="Grupo 1229967" transform="translate(0.287 10.572)" style="mix-blend-mode: multiply;isolation: isolate">
                      <g id="Grupo_1229966" data-name="Grupo 1229966">
                        <g id="Grupo_1229965" data-name="Grupo 1229965" clip-path="url(#clip-path-33)">
                          <rect id="Rectángulo_424500" data-name="Rectángulo 424500" width="138.613" height="1.026" transform="translate(0 0.001)" fill="#a6a6a6"/>
                        </g>
                      </g>
                    </g>
                    <line id="Línea_4670" data-name="Línea 4670" x2="138.613" transform="translate(0.287 10.572)" fill="none" stroke="#0d1333" stroke-linecap="round" stroke-linejoin="round" stroke-width="1"/>
                    <path id="Trazado_1066401" data-name="Trazado 1066401" d="M127.961,111.954H113.185a1.013,1.013,0,0,1,0-2.027h14.776a1.013,1.013,0,1,1,0,2.027" transform="translate(-93.69 -80.776)" fill="#a6a6a6"/>
                    <path id="Trazado_1066402" data-name="Trazado 1066402" d="M106.605,110.94a1.014,1.014,0,1,1-1.014-1.014,1.014,1.014,0,0,1,1.014,1.014" transform="translate(-90.462 -80.776)" fill="#a6a6a6"/>
                    <path id="Trazado_1066403" data-name="Trazado 1066403" d="M127.961,125.427H113.185a1.013,1.013,0,0,1,0-2.027h14.776a1.013,1.013,0,1,1,0,2.027" transform="translate(-93.69 -86.502)" fill="#a6a6a6"/>
                    <path id="Trazado_1066404" data-name="Trazado 1066404" d="M106.605,124.414a1.014,1.014,0,1,1-1.014-1.014,1.014,1.014,0,0,1,1.014,1.014" transform="translate(-90.462 -86.502)" fill="#a6a6a6"/>
                    <path id="Trazado_1066405" data-name="Trazado 1066405" d="M127.961,138.9H113.185a1.013,1.013,0,0,1,0-2.027h14.776a1.013,1.013,0,1,1,0,2.027" transform="translate(-93.69 -92.228)" fill="#a6a6a6"/>
                    <path id="Trazado_1066406" data-name="Trazado 1066406" d="M106.605,137.887a1.014,1.014,0,1,1-1.014-1.014,1.014,1.014,0,0,1,1.014,1.014" transform="translate(-90.462 -92.228)" fill="#a6a6a6"/>
                    <path id="Trazado_1066407" data-name="Trazado 1066407" d="M127.961,152.374H113.185a1.013,1.013,0,0,1,0-2.027h14.776a1.013,1.013,0,1,1,0,2.027" transform="translate(-93.69 -97.955)" fill="#a6a6a6"/>
                    <path id="Trazado_1066408" data-name="Trazado 1066408" d="M106.605,151.36a1.014,1.014,0,1,1-1.014-1.014,1.014,1.014,0,0,1,1.014,1.014" transform="translate(-90.462 -97.954)" fill="#a6a6a6"/>
                    <path id="Trazado_1066409" data-name="Trazado 1066409" d="M127.961,165.847H113.185a1.013,1.013,0,0,1,0-2.027h14.776a1.013,1.013,0,1,1,0,2.027" transform="translate(-93.69 -103.681)" fill="#a6a6a6"/>
                    <path id="Trazado_1066410" data-name="Trazado 1066410" d="M106.605,164.833a1.014,1.014,0,1,1-1.014-1.014,1.014,1.014,0,0,1,1.014,1.014" transform="translate(-90.462 -103.68)" fill="#a6a6a6"/>
                    <path id="Trazado_1066411" data-name="Trazado 1066411" d="M127.961,179.32H113.185a1.013,1.013,0,0,1,0-2.027h14.776a1.013,1.013,0,1,1,0,2.027" transform="translate(-93.69 -109.407)" fill="#a6a6a6"/>
                    <path id="Trazado_1066412" data-name="Trazado 1066412" d="M106.605,178.306a1.014,1.014,0,1,1-1.014-1.014,1.014,1.014,0,0,1,1.014,1.014" transform="translate(-90.462 -109.406)" fill="#a6a6a6"/>
                    <path id="Trazado_1066413" data-name="Trazado 1066413" d="M127.961,192.793H113.185a1.013,1.013,0,0,1,0-2.027h14.776a1.013,1.013,0,1,1,0,2.027" transform="translate(-93.69 -115.133)" fill="#a6a6a6"/>
                    <path id="Trazado_1066414" data-name="Trazado 1066414" d="M106.605,191.779a1.014,1.014,0,1,1-1.014-1.014,1.014,1.014,0,0,1,1.014,1.014" transform="translate(-90.462 -115.132)" fill="#a6a6a6"/>
                    <path id="Trazado_1066415" data-name="Trazado 1066415" d="M127.961,206.266H113.185a1.013,1.013,0,0,1,0-2.027h14.776a1.013,1.013,0,1,1,0,2.027" transform="translate(-93.69 -120.859)" fill="#a6a6a6"/>
                    <path id="Trazado_1066416" data-name="Trazado 1066416" d="M106.605,205.252a1.014,1.014,0,1,1-1.014-1.013,1.014,1.014,0,0,1,1.014,1.013" transform="translate(-90.462 -120.859)" fill="#a6a6a6"/>
                  </g>
                </g>
              </g>
            </g>
          </g>
        </g>
      </g>
    </g>
  </g>
</svg>
