<svg xmlns="http://www.w3.org/2000/svg" width="97.607" height="84.751" viewBox="0 0 97.607 84.751">
  <g id="Grupo_1230342" data-name="Grupo 1230342" transform="translate(-1001.068 -2864.781)">
    <circle id="Elipse_12863" data-name="Elipse 12863" cx="27.545" cy="27.545" r="27.545" transform="translate(1001.068 2864.781)" fill="#c3b7ef"/>
    <g id="statistics_17824286" transform="translate(1005.563 2869.95)">
      <g id="Layer_6" transform="translate(3.25 9.615)">
        <path id="Trazado_1069193" data-name="Trazado 1069193" d="M91.549,68.892H88.017V20.148A10.548,10.548,0,0,0,77.483,9.615H18.878A10.548,10.548,0,0,0,8.345,20.148V68.892H4.813A1.567,1.567,0,0,0,3.25,70.455c0,4.141,3.5,9.127,7.861,9.127h74.14c4.36,0,7.861-4.985,7.861-9.127A1.567,1.567,0,0,0,91.549,68.892ZM11.47,20.148a7.423,7.423,0,0,1,7.408-7.408H77.483a7.423,7.423,0,0,1,7.408,7.408V68.892H56.432a1.567,1.567,0,0,0-1.563,1.563V72.1H41.492V70.455a1.567,1.567,0,0,0-1.563-1.563H11.47Zm73.78,56.308H11.111c-1.969,0-3.845-2.2-4.5-4.438H38.366v1.641a1.567,1.567,0,0,0,1.563,1.563h16.5A1.567,1.567,0,0,0,58,73.659V72.018H89.752C89.1,74.253,87.22,76.456,85.251,76.456Z" transform="translate(-3.25 -9.615)" fill="#353535"/>
        <path id="Trazado_1069194" data-name="Trazado 1069194" d="M70.225,62.221a1.563,1.563,0,0,0,1.094,2.672,1.522,1.522,0,0,0,1.094-.438l3.813-3.735a1.581,1.581,0,0,0,.047-2.188l-3.782-4.063a1.559,1.559,0,1,0-2.282,2.125l1.328,1.438H63.786V25.807a1.567,1.567,0,0,0-1.563-1.563H54.331a1.567,1.567,0,0,0-1.563,1.563V58.032H49.721V33.621a1.567,1.567,0,0,0-1.563-1.563H40.266A1.567,1.567,0,0,0,38.7,33.621V58.032H35.656v-16.6a1.567,1.567,0,0,0-1.563-1.563H26.2a1.567,1.567,0,0,0-1.563,1.563v16.6H17.512V43h2.344a1.563,1.563,0,1,0,0-3.126H17.512V35.184h2.344a1.563,1.563,0,1,0,0-3.126H17.512V27.37h2.344a1.563,1.563,0,1,0,0-3.126H17.512v-4.2l1.219,1.235a1.569,1.569,0,0,0,2.235-2.2l-3.735-3.8a1.566,1.566,0,0,0-2.188-.047l-4.063,3.766a1.565,1.565,0,0,0,2.125,2.3L14.386,20.1V59.6a1.567,1.567,0,0,0,1.563,1.563H71.3ZM32.53,58.032H27.764V43H32.53Zm14.065,0H41.829V35.184H46.6Zm14.065,0H55.894V27.37h4.767Z" transform="translate(0.82 -6.694)" fill="#353535"/>
      </g>
    </g>
  </g>
</svg>
