<svg xmlns="http://www.w3.org/2000/svg" xmlns:xlink="http://www.w3.org/1999/xlink" width="108" height="108" viewBox="0 0 108 108">
  <defs>
    <filter id="Trazado_904820" x="0" y="0" width="108" height="108" filterUnits="userSpaceOnUse">
      <feOffset dy="3" input="SourceAlpha"/>
      <feGaussianBlur stdDeviation="3" result="blur"/>
      <feFlood flood-opacity="0.161"/>
      <feComposite operator="in" in2="blur"/>
      <feComposite in="SourceGraphic"/>
    </filter>
  </defs>
  <g id="Grupo_1230629" data-name="Grupo 1230629" transform="translate(-200 -472)">
    <g id="Grupo_1230207" data-name="Grupo 1230207" transform="translate(209 478)">
      <g id="Grupo_1173585" data-name="Grupo 1173585" transform="translate(0 0)">
        <g id="Grupo_1173428" data-name="Grupo 1173428">
          <g id="Grupo_1171958" data-name="Grupo 1171958">
            <g id="Grupo_1167341" data-name="Grupo 1167341">
              <g id="Grupo_1166792" data-name="Grupo 1166792">
                <g transform="matrix(1, 0, 0, 1, -9, -6)" filter="url(#Trazado_904820)">
                  <g id="Trazado_904820-2" data-name="Trazado 904820" transform="translate(9 6)" fill="#fef9e5">
                    <path d="M 44.99999618530273 88.50001525878906 C 39.12687301635742 88.50001525878906 33.43022155761719 87.35009002685547 28.06829643249512 85.08217620849609 C 22.88852119445801 82.89132690429688 18.23629570007324 79.75460052490234 14.24084663391113 75.75914764404297 C 10.24540901184082 71.76370239257812 7.108683586120605 67.11147308349609 4.917821407318115 61.93171310424805 C 2.649921178817749 56.56977462768555 1.499996185302734 50.87313461303711 1.499996185302734 45.0000114440918 C 1.499996185302734 39.12688827514648 2.649921178817749 33.43023681640625 4.917821407318115 28.06831169128418 C 7.108683586120605 22.88853645324707 10.24540901184082 18.2363109588623 14.24084663391113 14.2408618927002 C 18.23629570007324 10.24542427062988 22.88852119445801 7.108698844909668 28.06829643249512 4.917836666107178 C 33.43022155761719 2.649936437606812 39.12687301635742 1.500011444091797 44.99999618530273 1.500011444091797 C 50.87311935424805 1.500011444091797 56.56977081298828 2.649936437606812 61.93169784545898 4.917836666107178 C 67.11147308349609 7.108698844909668 71.76369476318359 10.24542427062988 75.75914764404297 14.2408618927002 C 79.75458526611328 18.2363109588623 82.89131164550781 22.88853645324707 85.08216857910156 28.06831169128418 C 87.35007476806641 33.43023681640625 88.5 39.12688827514648 88.5 45.0000114440918 C 88.5 50.87313461303711 87.35007476806641 56.56977462768555 85.08216857910156 61.93171310424805 C 82.89131164550781 67.11147308349609 79.75458526611328 71.76370239257812 75.75914764404297 75.75914764404297 C 71.76369476318359 79.75460052490234 67.11147308349609 82.89132690429688 61.93169784545898 85.08217620849609 C 56.56977081298828 87.35009002685547 50.87311935424805 88.50001525878906 44.99999618530273 88.50001525878906 Z" stroke="none"/>
                    <path d="M 44.99999618530273 3.000007629394531 C 39.32870864868164 3.000007629394531 33.82865142822266 4.110069274902344 28.65262603759766 6.299354553222656 C 23.65165710449219 8.414581298828125 19.15968322753906 11.44335174560547 15.301513671875 15.30152893066406 C 11.44333648681641 19.15969848632812 8.414566040039062 23.65167236328125 6.299339294433594 28.65264129638672 C 4.110054016113281 33.82866668701172 2.999992370605469 39.3287239074707 2.999992370605469 45.0000114440918 C 2.999992370605469 50.67129898071289 4.110054016113281 56.17134094238281 6.299339294433594 61.34738159179688 C 8.414566040039062 66.34835815429688 11.44333648681641 70.84030914306641 15.301513671875 74.69849395751953 C 19.15968322753906 78.55667114257812 23.65165710449219 81.58544158935547 28.65262603759766 83.70066833496094 C 33.82865142822266 85.88995361328125 39.32870864868164 87.00001525878906 44.99999618530273 87.00001525878906 C 50.67128372192383 87.00001525878906 56.17134094238281 85.88995361328125 61.34736633300781 83.70066833496094 C 66.34834289550781 81.58544158935547 70.84030914306641 78.55667114257812 74.69847869873047 74.69849395751953 C 78.55665588378906 70.84030914306641 81.58542633056641 66.34835815429688 83.70065307617188 61.34738159179688 C 85.88993835449219 56.17134094238281 87 50.67129898071289 87 45.0000114440918 C 87 39.3287239074707 85.88993835449219 33.82866668701172 83.70065307617188 28.65264129638672 C 81.58542633056641 23.65167236328125 78.55665588378906 19.15969848632812 74.69847869873047 15.30152893066406 C 70.84030914306641 11.44335174560547 66.34834289550781 8.414581298828125 61.34736633300781 6.299354553222656 C 56.17134094238281 4.110069274902344 50.67128372192383 3.000007629394531 44.99999618530273 3.000007629394531 M 44.99999618530273 7.62939453125e-06 C 69.85281372070312 7.62939453125e-06 90 20.14719390869141 90 45.0000114440918 C 90 69.85281372070312 69.85281372070312 90.00001525878906 44.99999618530273 90.00001525878906 C 20.14717864990234 90.00001525878906 -7.62939453125e-06 69.85281372070312 -7.62939453125e-06 45.0000114440918 C -7.62939453125e-06 20.14719390869141 20.14717864990234 7.62939453125e-06 44.99999618530273 7.62939453125e-06 Z" stroke="none" fill="#f6c810"/>
                  </g>
                </g>
              </g>
            </g>
          </g>
        </g>
      </g>
    </g>
    <g id="database_10520424" transform="translate(227.051 479.8)">
      <g id="Grupo_1230628" data-name="Grupo 1230628" transform="translate(0.839 17.918)">
        <g id="Grupo_1230627" data-name="Grupo 1230627" transform="translate(0 0)">
          <path id="Trazado_1068789" data-name="Trazado 1068789" d="M44.317,25.064l-34.259,0A2.04,2.04,0,0,0,8.022,27.1l0,12.777a2.043,2.043,0,0,0,2.035,2.038l34.259,0a2.042,2.042,0,0,0,2.035-2.038V27.1a2.039,2.039,0,0,0-2.034-2.035Z" transform="translate(-8.017 -25.06)" fill="#0593fc" fill-rule="evenodd"/>
          <path id="Trazado_1068790" data-name="Trazado 1068790" d="M44.3,178.984l-34.259,0A2.042,2.042,0,0,0,8,181.015l0,12.779a2.042,2.042,0,0,0,2.035,2.035l34.259,0A2.042,2.042,0,0,0,46.33,193.8v-12.78A2.041,2.041,0,0,0,44.3,178.984Z" transform="translate(-7.999 -162.13)" fill="#0593fc" fill-rule="evenodd"/>
          <path id="Trazado_1068791" data-name="Trazado 1068791" d="M44.286,332.9l-34.259,0a2.043,2.043,0,0,0-2.035,2.037v12.777a2.042,2.042,0,0,0,2.035,2.035l34.259,0a2.042,2.042,0,0,0,2.035-2.035V334.942A2.043,2.043,0,0,0,44.286,332.9Z" transform="translate(-7.99 -299.2)" fill="#0593fc" fill-rule="evenodd"/>
        </g>
        <path id="Trazado_1068792" data-name="Trazado 1068792" d="M63.7,90.588a1.6,1.6,0,1,0-1.6-1.606A1.607,1.607,0,0,0,63.7,90.588Z" transform="translate(-56.176 -80.558)" fill="#f5f8f9" fill-rule="evenodd"/>
        <path id="Trazado_1068793" data-name="Trazado 1068793" d="M63.692,244.5a1.6,1.6,0,1,0-1.6-1.606A1.607,1.607,0,0,0,63.692,244.5Z" transform="translate(-56.168 -217.619)" fill="#fff" fill-rule="evenodd"/>
        <path id="Trazado_1068794" data-name="Trazado 1068794" d="M63.672,398.409a1.6,1.6,0,1,0-1.6-1.6A1.606,1.606,0,0,0,63.672,398.409Z" transform="translate(-56.15 -354.68)" fill="#fff" fill-rule="evenodd"/>
        <path id="Trazado_1068795" data-name="Trazado 1068795" d="M12.9,25.06H10.057A2.042,2.042,0,0,0,8.022,27.1l0,12.777a2.043,2.043,0,0,0,2.035,2.038H12.9a2.043,2.043,0,0,1-2.035-2.038V27.1A2.044,2.044,0,0,1,12.9,25.06Z" transform="translate(-8.017 -25.06)" fill="#0584e3" fill-rule="evenodd"/>
        <path id="Trazado_1068796" data-name="Trazado 1068796" d="M12.885,178.98H10.037A2.042,2.042,0,0,0,8,181.015l0,12.779a2.042,2.042,0,0,0,2.035,2.035h2.847a2.042,2.042,0,0,1-2.035-2.035v-12.78A2.043,2.043,0,0,1,12.885,178.98Z" transform="translate(-7.999 -162.13)" fill="#0584e3" fill-rule="evenodd"/>
        <path id="Trazado_1068797" data-name="Trazado 1068797" d="M12.874,332.9H10.026a2.043,2.043,0,0,0-2.035,2.037v12.777a2.042,2.042,0,0,0,2.035,2.035h2.847a2.042,2.042,0,0,1-2.035-2.035V334.937a2.042,2.042,0,0,1,2.035-2.037Z" transform="translate(-7.99 -299.2)" fill="#0584e3" fill-rule="evenodd"/>
        <path id="Trazado_1068798" data-name="Trazado 1068798" d="M262.328,252.594c0,3.917-6.65,7.094-14.854,7.093s-14.853-3.179-14.853-7.1l0-20.839,29.708,0Z" transform="translate(-208.029 -209.123)" fill="#fea832" fill-rule="evenodd"/>
        <path id="Trazado_1068799" data-name="Trazado 1068799" d="M235.993,257.1c-2.107-1.224-3.373-2.793-3.373-4.5l0-20.839H236Z" transform="translate(-208.029 -209.132)" fill="#e5972d" fill-rule="evenodd"/>
        <path id="Trazado_1068800" data-name="Trazado 1068800" d="M262.338,242.219c0,3.917-6.65,7.094-14.854,7.093s-14.853-3.179-14.853-7.1V231.75l29.708,0Z" transform="translate(-208.038 -209.123)" fill="#ffd75c" fill-rule="evenodd"/>
        <path id="Trazado_1068801" data-name="Trazado 1068801" d="M236,246.725c-2.107-1.224-3.373-2.79-3.373-4.5V231.76H236Z" transform="translate(-208.038 -209.132)" fill="#e6c253" fill-rule="evenodd"/>
        <path id="Trazado_1068802" data-name="Trazado 1068802" d="M247.493,181.159c8.183,0,14.854-3.185,14.854-7.093s-6.67-7.1-14.853-7.1-14.854,3.185-14.854,7.093S239.313,181.158,247.493,181.159Z" transform="translate(-208.047 -151.435)" fill="#fea832" fill-rule="evenodd"/>
        <path id="Trazado_1068803" data-name="Trazado 1068803" d="M247.5,166.97c.466,0,.923.012,1.377.031-7.558.333-13.474,3.368-13.475,7.063s5.916,6.731,13.473,7.066c-.454.018-.911.03-1.377.03-8.2,0-14.853-3.179-14.853-7.1S239.294,166.969,247.5,166.97Z" transform="translate(-208.047 -151.435)" fill="#e5972d" fill-rule="evenodd"/>
      </g>
      <path id="Trazado_1068804" data-name="Trazado 1068804" d="M12.656,26.345a.877.877,0,0,1,.877-.877h19.72a.877.877,0,1,1,0,1.754H13.531a.877.877,0,0,1-.876-.877Zm-6.777,0a2.481,2.481,0,1,1,2.481,2.481,2.483,2.483,0,0,1-2.481-2.481Zm1.753,0a.728.728,0,1,0,.728-.728A.728.728,0,0,0,7.631,26.345ZM10.839,43.2a2.481,2.481,0,1,1-2.481-2.481A2.482,2.482,0,0,1,10.839,43.2Zm-1.753,0a.728.728,0,1,0-.728.725A.728.728,0,0,0,9.087,43.2Zm1.753,16.85a2.481,2.481,0,1,1-2.481-2.477A2.483,2.483,0,0,1,10.839,60.048Zm-1.753,0a.728.728,0,1,0-.728.728A.727.727,0,0,0,9.087,60.048Zm46.932-19.5V61.39c0,4.47-6.91,7.971-15.731,7.971-.934,0-1.846-.039-2.73-.115a.875.875,0,0,1-.423.108H2.875A2.918,2.918,0,0,1-.04,66.438V53.659a2.9,2.9,0,0,1,.834-2.036A2.905,2.905,0,0,1-.04,49.584V36.809A2.905,2.905,0,0,1,.794,34.77,2.9,2.9,0,0,1-.04,32.734V19.955A2.919,2.919,0,0,1,2.875,17.04H37.134a2.919,2.919,0,0,1,2.915,2.915v12.62h.238C49.109,32.574,56.019,36.077,56.019,40.548Zm-15.731-6.22a24.1,24.1,0,0,0-10.119,2c-2.453,1.172-3.86,2.712-3.86,4.223s1.407,3.05,3.86,4.221a24.1,24.1,0,0,0,10.119,2,24.1,24.1,0,0,0,10.119-2c2.453-1.171,3.86-2.711,3.86-4.221s-1.407-3.052-3.86-4.223A24.088,24.088,0,0,0,40.287,34.328ZM2.875,50.747h21.68V44.075H13.531a.877.877,0,1,1,0-1.754H24.555V40.548c0-1.863,1.2-3.558,3.239-4.9H2.875A1.164,1.164,0,0,0,1.713,36.81V49.585a1.165,1.165,0,0,0,1.163,1.162Zm23.434.265c0,1.517,1.4,3.058,3.852,4.227a24.12,24.12,0,0,0,10.126,1.993,24.12,24.12,0,0,0,10.126-1.993c2.448-1.169,3.852-2.711,3.852-4.227v-6.75c-2.595,2.551-7.821,4.256-13.979,4.256S28.9,46.811,26.309,44.261ZM1.714,32.734a1.162,1.162,0,0,0,1.163,1.159H31.51A26.636,26.636,0,0,1,38.3,32.635V19.955a1.164,1.164,0,0,0-1.163-1.163H2.875a1.164,1.164,0,0,0-1.163,1.163V32.734ZM30.321,67.6c-3.538-1.449-5.765-3.674-5.765-6.211v-.464H13.532a.877.877,0,0,1,0-1.754H24.556V52.5H2.875a1.163,1.163,0,0,0-1.163,1.159V66.436A1.164,1.164,0,0,0,2.875,67.6H30.321Zm23.944-6.211V54.727c-2.595,2.552-7.821,4.258-13.979,4.258S28.9,57.279,26.308,54.727v6.661c0,3,5.617,6.217,13.979,6.217S54.265,64.391,54.265,61.388Z"/>
    </g>
  </g>
</svg>
