<svg xmlns="http://www.w3.org/2000/svg" width="85" height="78" viewBox="0 0 85 78">
  <g id="Grupo_1230798" data-name="Grupo 1230798" transform="translate(-180 -8519.204)">
    <g id="Grupo_1230147" data-name="Grupo 1230147" transform="translate(0 -441)">
      <rect id="Rectángulo_423766" data-name="Rectángulo 423766" width="85" height="78" rx="15" transform="translate(180 8960.204)" fill="#fceeb5"/>
    </g>
    <g id="Layer_2_00000080166433473314232090000017545046947477254035_" transform="translate(197.168 8491.069)">
      <g id="exclamation" transform="translate(0 46.4)">
        <path id="Trazado_1069176" data-name="Trazado 1069176" d="M44.787,46.4H5.867A5.867,5.867,0,0,0,0,52.267v24.2a5.858,5.858,0,0,0,5.867,5.857H18.52l4.65,4.65a3.063,3.063,0,0,0,4.333,0l4.65-4.65H44.8a5.865,5.865,0,0,0,5.867-5.857v-24.2A5.882,5.882,0,0,0,44.787,46.4Z" transform="translate(0 -46.4)" fill="#f6c810"/>
        <g id="Grupo_1230797" data-name="Grupo 1230797" transform="translate(22.03 6.589)">
          <path id="Trazado_1069177" data-name="Trazado 1069177" d="M225.976,128.532a2.911,2.911,0,0,1-2.909-2.8l-.386-9.705a2.911,2.911,0,0,1,2.8-3.027h.89a2.918,2.918,0,0,1,2.918,2.919v.119l-.386,9.705A2.941,2.941,0,0,1,225.976,128.532Z" transform="translate(-222.679 -113)" fill="#fceeb5"/>
          <path id="Trazado_1069178" data-name="Trazado 1069178" d="M229.509,284a2.909,2.909,0,1,1-2.909,2.909A2.907,2.907,0,0,1,229.509,284Z" transform="translate(-226.212 -267.083)" fill="#fceeb5"/>
        </g>
      </g>
    </g>
  </g>
</svg>
