<svg xmlns="http://www.w3.org/2000/svg" xmlns:xlink="http://www.w3.org/1999/xlink" width="108" height="108" viewBox="0 0 108 108">
  <defs>
    <filter id="Trazado_904820" x="0" y="0" width="108" height="108" filterUnits="userSpaceOnUse">
      <feOffset dy="3" input="SourceAlpha"/>
      <feGaussianBlur stdDeviation="3" result="blur"/>
      <feFlood flood-opacity="0.161"/>
      <feComposite operator="in" in2="blur"/>
      <feComposite in="SourceGraphic"/>
    </filter>
  </defs>
  <g id="Grupo_1230148" data-name="Grupo 1230148" transform="translate(9 6)">
    <g id="Grupo_1173585" data-name="Grupo 1173585">
      <g id="Grupo_1173428" data-name="Grupo 1173428">
        <g id="Grupo_1171958" data-name="Grupo 1171958">
          <g id="Grupo_1167341" data-name="Grupo 1167341">
            <g id="Grupo_1166792" data-name="Grupo 1166792">
              <g transform="matrix(1, 0, 0, 1, -9, -6)" filter="url(#Trazado_904820)">
                <g id="Trazado_904820-2" data-name="Trazado 904820" transform="translate(9 6)" fill="#e5ebfb">
                  <path d="M 44.99996948242188 88.50004577636719 C 39.12684631347656 88.50004577636719 33.43020629882812 87.35012054443359 28.06828117370605 85.08220672607422 C 22.88851928710938 82.891357421875 18.23629379272461 79.75463104248047 14.2408447265625 75.75917816162109 C 10.24540710449219 71.76373291015625 7.108694553375244 67.11149597167969 4.917831897735596 61.93173217773438 C 2.649931907653809 56.56979370117188 1.500007033348083 50.87314224243164 1.500007033348083 45.00001907348633 C 1.500007033348083 39.12689590454102 2.649931907653809 33.43024444580078 4.917831897735596 28.06830596923828 C 7.108694553375244 22.88853073120117 10.24540710449219 18.23630714416504 14.2408447265625 14.24086952209473 C 18.23629379272461 10.2454195022583 22.88850784301758 7.108694076538086 28.06828117370605 4.917831420898438 C 33.43020629882812 2.649931669235229 39.12684631347656 1.500006556510925 44.99996948242188 1.500006556510925 C 50.87309265136719 1.500006556510925 56.56973266601562 2.649931669235229 61.93165588378906 4.917831420898438 C 67.11143493652344 7.108694076538086 71.76364135742188 10.2454195022583 75.75909423828125 14.24086952209473 C 79.75454711914062 18.23630714416504 82.89125823974609 22.88853073120117 85.08212280273438 28.06830596923828 C 87.35002136230469 33.43024444580078 88.49994659423828 39.12689590454102 88.49994659423828 45.00001907348633 C 88.49994659423828 50.87314224243164 87.35002136230469 56.56979370117188 85.08212280273438 61.93173217773438 C 82.89125823974609 67.11149597167969 79.75454711914062 71.76371765136719 75.75909423828125 75.75917816162109 C 71.76364135742188 79.75463104248047 67.11143493652344 82.891357421875 61.93165588378906 85.08220672607422 C 56.56973266601562 87.35012054443359 50.87309265136719 88.50004577636719 44.99996948242188 88.50004577636719 Z" stroke="none"/>
                  <path d="M 44.99996948242188 3.000007629394531 C 39.32868194580078 3.000007629394531 33.82863998413086 4.110061645507812 28.65261077880859 6.299346923828125 C 23.65164184570312 8.414573669433594 19.15968322753906 11.44334411621094 15.30149841308594 15.30152130126953 C 11.44332885742188 19.15969085693359 8.414566040039062 23.65166473388672 6.299324035644531 28.65263366699219 C 4.110054016113281 33.82867431640625 3 39.32873153686523 3 45.00001907348633 C 3 50.67130661010742 4.110054016113281 56.17136383056641 6.299324035644531 61.34738922119141 C 8.414566040039062 66.34837341308594 11.44332885742188 70.84033203125 15.301513671875 74.69851684570312 C 19.15968322753906 78.55668640136719 23.65164184570312 81.58546447753906 28.65261077880859 83.70069122314453 C 33.82863998413086 85.88997650146484 39.32868194580078 87.00003051757812 44.99996948242188 87.00003051757812 C 50.67125701904297 87.00003051757812 56.17129898071289 85.88997650146484 61.34732818603516 83.70069122314453 C 66.34829711914062 81.58546447753906 70.84025573730469 78.55668640136719 74.69842529296875 74.69851684570312 C 78.55661010742188 70.84033203125 81.58537292480469 66.34837341308594 83.70061492919922 61.34738922119141 C 85.88988494873047 56.17136383056641 86.99993896484375 50.67130661010742 86.99993896484375 45.00001907348633 C 86.99993896484375 39.32873153686523 85.88988494873047 33.82867431640625 83.70061492919922 28.65263366699219 C 81.58537292480469 23.65166473388672 78.55661010742188 19.15969085693359 74.69844055175781 15.30152130126953 C 70.84025573730469 11.44334411621094 66.34829711914062 8.414573669433594 61.34732818603516 6.299346923828125 C 56.17129898071289 4.110061645507812 50.67125701904297 3.000007629394531 44.99996948242188 3.000007629394531 M 44.99996948242188 7.62939453125e-06 C 69.85276794433594 7.62939453125e-06 89.99993896484375 20.14719390869141 89.99993896484375 45.00001907348633 C 89.99993896484375 69.85282897949219 69.85276794433594 90.00003051757812 44.99996948242188 90.00003051757812 C 20.14717102050781 90.00003051757812 0 69.85282897949219 0 45.00001907348633 C 0 20.14719390869141 20.14717102050781 7.62939453125e-06 44.99996948242188 7.62939453125e-06 Z" stroke="none" fill="#0b47db"/>
                </g>
              </g>
            </g>
          </g>
        </g>
      </g>
    </g>
    <g id="Layer_32" data-name="Layer 32" transform="translate(18 10.654)">
      <path id="Trazado_1069179" data-name="Trazado 1069179" d="M35,22h1a2.963,2.963,0,0,1,.95.168l1.4-4.907A10.435,10.435,0,0,0,35.192,6.543,18.361,18.361,0,0,0,23.1,2h-.2A18.362,18.362,0,0,0,10.807,6.544,10.435,10.435,0,0,0,7.646,17.261l1.4,4.907A2.957,2.957,0,0,1,10,22h1V18h8.615A7.954,7.954,0,0,0,27,13a7.954,7.954,0,0,0,7.385,5H35Z" fill="#5b5b5d"/>
      <path id="Trazado_1069180" data-name="Trazado 1069180" d="M35,18v7A12,12,0,0,1,23,37h0A12,12,0,0,1,11,25V18h8.615A7.954,7.954,0,0,0,27,13h0a7.954,7.954,0,0,0,7.385,5Z" fill="#f7e2cd"/>
      <path id="Trazado_1069181" data-name="Trazado 1069181" d="M11,25V22H10a3,3,0,0,0,0,6h1.393A12.017,12.017,0,0,1,11,25Z" fill="#f7e2cd"/>
      <path id="Trazado_1069182" data-name="Trazado 1069182" d="M39.088,42.465,28,39h0a6.831,6.831,0,0,1-4.828,2h-.344A6.83,6.83,0,0,1,18,39L6.912,42.465A7,7,0,0,0,2,49.146V62H44V49.146a7,7,0,0,0-4.912-6.681Z" fill="#f2b149"/>
      <rect id="Rectángulo_425456" data-name="Rectángulo 425456" width="9" height="6" transform="translate(2 56)" fill="#f7e2cd"/>
      <rect id="Rectángulo_425457" data-name="Rectángulo 425457" width="9" height="6" transform="translate(35 56)" fill="#f7e2cd"/>
      <path id="Trazado_1069183" data-name="Trazado 1069183" d="M36,62l2-16H8l2,16Z" fill="#646465"/>
      <path id="Trazado_1069184" data-name="Trazado 1069184" d="M49,29A12.994,12.994,0,0,0,38.307,49.385L36,54l5.823-1.165A13,13,0,1,0,49,29Z" fill="#4179b3"/>
      <path id="Trazado_1069185" data-name="Trazado 1069185" d="M49,29A12.994,12.994,0,0,0,38.307,49.385L38,50H53a4,4,0,0,0,4-4V31.767A12.931,12.931,0,0,0,49,29Z" fill="#6598c5"/>
      <path id="Trazado_1069186" data-name="Trazado 1069186" d="M23,37a11.923,11.923,0,0,1-5-1.1L18,39a6.831,6.831,0,0,0,4.828,2h.344A6.83,6.83,0,0,0,28,39h0V35.9A11.926,11.926,0,0,1,23,37Z" fill="#f7e2cd"/>
      <path id="Trazado_1069187" data-name="Trazado 1069187" d="M36,22H35v3a12.017,12.017,0,0,1-.393,3H36a3,3,0,1,0,0-6Z" fill="#f7e2cd"/>
      <circle id="Elipse_14162" data-name="Elipse 14162" cx="3" cy="3" r="3" transform="translate(20 51)" fill="#5b5b5d"/>
      <circle id="Elipse_14163" data-name="Elipse 14163" cx="3" cy="3" r="3" transform="translate(15 21)" fill="#ccc"/>
      <circle id="Elipse_14164" data-name="Elipse 14164" cx="3" cy="3" r="3" transform="translate(25 21)" fill="#ccc"/>
      <path id="Trazado_1069188" data-name="Trazado 1069188" d="M23,50a4,4,0,1,0,4,4A4,4,0,0,0,23,50Zm0,6a2,2,0,1,1,2-2A2,2,0,0,1,23,56Z"/>
      <path id="Trazado_1069189" data-name="Trazado 1069189" d="M27,30H25a2,2,0,0,1-4,0H19a4,4,0,0,0,8,0Z"/>
      <path id="Trazado_1069190" data-name="Trazado 1069190" d="M43.293,37.293l-4,4a1,1,0,0,0,0,1.414l4,4,1.414-1.414L41.414,42l3.293-3.293Z"/>
      <path id="Trazado_1069191" data-name="Trazado 1069191" d="M58.707,41.293l-4-4-1.414,1.414L56.586,42l-3.293,3.293,1.414,1.414,4-4A1,1,0,0,0,58.707,41.293Z"/>
      <rect id="Rectángulo_425458" data-name="Rectángulo 425458" width="10.198" height="2" transform="matrix(0.196, -0.981, 0.981, 0.196, 47.018, 46.804)"/>
      <path id="Trazado_1069192" data-name="Trazado 1069192" d="M49,28A14.011,14.011,0,0,0,35.132,40.181L29,38.265V36.521A13.058,13.058,0,0,0,35.364,29H36a3.993,3.993,0,0,0,2.145-7.365l1.17-4.1A11.432,11.432,0,0,0,35.851,5.79,19.359,19.359,0,0,0,23.1,1h-.2A19.36,19.36,0,0,0,10.149,5.791,11.431,11.431,0,0,0,6.685,17.536l1.17,4.1A3.993,3.993,0,0,0,10,29h.636A13.058,13.058,0,0,0,17,36.521v1.744L6.614,41.511A7.964,7.964,0,0,0,1,49.146V62a1,1,0,0,0,1,1H44a1,1,0,0,0,1-1V55.413A14,14,0,1,0,49,28ZM36,27h-.17A13.056,13.056,0,0,0,36,25V23a2,2,0,0,1,0,4Zm-4.289-4.474A3.985,3.985,0,0,0,24.142,23H21.858a3.985,3.985,0,0,0-7.569-.474L12,21.382V19h7.615A8.908,8.908,0,0,0,27,15.115a8.9,8.9,0,0,0,7,3.877v2.39ZM30,24a2,2,0,1,1-2-2A2,2,0,0,1,30,24ZM20,24a2,2,0,1,1-2-2A2,2,0,0,1,20,24ZM8.608,16.987A9.432,9.432,0,0,1,11.466,7.3,17.355,17.355,0,0,1,22.9,3h.2A17.354,17.354,0,0,1,34.533,7.3a9.433,9.433,0,0,1,2.859,9.692l-1.154,4.037A2.088,2.088,0,0,0,36,21V18a1,1,0,0,0-1-1h-.615a6.92,6.92,0,0,1-6.456-4.371,1,1,0,0,0-1.858,0A6.92,6.92,0,0,1,19.615,17H11a1,1,0,0,0-1,1v3c-.082,0-.158.019-.238.024ZM10,27a2,2,0,0,1,0-4v2a13.056,13.056,0,0,0,.17,2Zm2-2V23.618l2.066,1.033A3.983,3.983,0,0,0,21.858,25h2.284a3.983,3.983,0,0,0,7.792-.349L34,23.618V25a11,11,0,1,1-22,0ZM23,38a12.94,12.94,0,0,0,4-.636v1.194A5.867,5.867,0,0,1,23.172,40h-.344A5.867,5.867,0,0,1,19,38.558V37.364A12.94,12.94,0,0,0,23,38ZM7.21,43.419l10.544-3.295A7.882,7.882,0,0,0,22.828,42h.344a7.882,7.882,0,0,0,5.074-1.876l6.762,2.113A13.986,13.986,0,0,0,35.326,45H8a1,1,0,0,0-.992,1.124L8.117,55H3V49.146a5.975,5.975,0,0,1,4.21-5.727ZM3,57H8.367l.5,4H3Zm7.883,4L9.133,47h26.8a13.986,13.986,0,0,0,1.226,2.454l-2.05,4.1a.994.994,0,0,0,.764,1.434L35.117,61ZM43,55H37.883l.045-.366,3.7-.739A14.08,14.08,0,0,0,43,54.639Zm-5.867,6,.5-4H43v4ZM49,54a11.926,11.926,0,0,1-6.623-2,1.009,1.009,0,0,0-.554-.167,1.084,1.084,0,0,0-.2.019l-3.818.764,1.4-2.784a1,1,0,0,0-.072-1.017A12,12,0,1,1,49,54Z"/>
    </g>
  </g>
</svg>
