<svg xmlns="http://www.w3.org/2000/svg" xmlns:xlink="http://www.w3.org/1999/xlink" width="113" height="113" viewBox="0 0 113 113">
  <defs>
    <filter id="Trazado_982547" x="0" y="0" width="113" height="113" filterUnits="userSpaceOnUse">
      <feOffset dy="3" input="SourceAlpha"/>
      <feGaussianBlur stdDeviation="3" result="blur"/>
      <feFlood flood-opacity="0.161"/>
      <feComposite operator="in" in2="blur"/>
      <feComposite in="SourceGraphic"/>
    </filter>
  </defs>
  <g id="Grupo_1230630" data-name="Grupo 1230630" transform="translate(-271.328 -1864.898)">
    <g id="Grupo_1230208" data-name="Grupo 1230208" transform="translate(280.328 1870.898)">
      <g id="Grupo_1226970" data-name="Grupo 1226970">
        <g id="Grupo_1226448" data-name="Grupo 1226448">
          <g id="Grupo_1225528" data-name="Grupo 1225528">
            <g id="Grupo_1225173" data-name="Grupo 1225173">
              <g id="Grupo_1224643" data-name="Grupo 1224643">
                <g id="Grupo_1224291" data-name="Grupo 1224291">
                  <g id="Grupo_1224091" data-name="Grupo 1224091">
                    <g id="Grupo_1223183" data-name="Grupo 1223183">
                      <g id="Grupo_1211217" data-name="Grupo 1211217">
                        <g id="Grupo_1210736" data-name="Grupo 1210736">
                          <g id="Grupo_1210537" data-name="Grupo 1210537">
                            <g id="Grupo_1164202" data-name="Grupo 1164202">
                              <g id="Grupo_1158168" data-name="Grupo 1158168">
                                <g id="Grupo_1152576" data-name="Grupo 1152576">
                                  <g id="Grupo_1148633" data-name="Grupo 1148633">
                                    <g id="Grupo_1148525" data-name="Grupo 1148525">
                                      <g transform="matrix(1, 0, 0, 1, -9, -6)" filter="url(#Trazado_982547)">
                                        <g id="Trazado_982547-2" data-name="Trazado 982547" transform="translate(9 6)" fill="#fdf6e4">
                                          <path d="M 47.49999618530273 93.5 C 41.28936767578125 93.5 35.26533126831055 92.28396606445312 29.59518241882324 89.88570404052734 C 24.11771583557129 87.56893157958984 19.19812965393066 84.251953125 14.97308921813965 80.02690124511719 C 10.74803638458252 75.80186462402344 7.431062698364258 70.88227844238281 5.114289283752441 65.40480804443359 C 2.716022968292236 59.73466110229492 1.499996185302734 53.71062469482422 1.499996185302734 47.49999618530273 C 1.499996185302734 41.28936767578125 2.716022968292236 35.26533126831055 5.114289283752441 29.59518241882324 C 7.431062698364258 24.11771583557129 10.74803638458252 19.19812965393066 14.97308921813965 14.97308921813965 C 19.19812965393066 10.74803638458252 24.11771583557129 7.431062698364258 29.59518241882324 5.114289283752441 C 35.26533126831055 2.716022968292236 41.28936767578125 1.499996185302734 47.49999618530273 1.499996185302734 C 53.71062469482422 1.499996185302734 59.73466110229492 2.716022968292236 65.40480804443359 5.114289283752441 C 70.88227844238281 7.431062698364258 75.80186462402344 10.74803638458252 80.02690124511719 14.97308921813965 C 84.251953125 19.19812965393066 87.56893157958984 24.11771583557129 89.88570404052734 29.59518241882324 C 92.28396606445312 35.26533126831055 93.5 41.28936767578125 93.5 47.49999618530273 C 93.5 53.71062469482422 92.28396606445312 59.73466110229492 89.88570404052734 65.40480804443359 C 87.56893157958984 70.88227844238281 84.251953125 75.80186462402344 80.02690124511719 80.02690124511719 C 75.80186462402344 84.251953125 70.88227844238281 87.56893157958984 65.40480804443359 89.88570404052734 C 59.73466110229492 92.28396606445312 53.71062469482422 93.5 47.49999618530273 93.5 Z" stroke="none"/>
                                          <path d="M 47.49999618530273 2.999992370605469 C 41.4912109375 2.999992370605469 35.66376495361328 4.1761474609375 30.17950439453125 6.495796203613281 C 24.88084411621094 8.736953735351562 20.12152099609375 11.94598388671875 16.03375244140625 16.03375244140625 C 11.94598388671875 20.12152099609375 8.736953735351562 24.88084411621094 6.495796203613281 30.17950439453125 C 4.1761474609375 35.66376495361328 2.999992370605469 41.4912109375 2.999992370605469 47.49999618530273 C 2.999992370605469 53.50878143310547 4.1761474609375 59.33622741699219 6.495796203613281 64.82048797607422 C 8.736953735351562 70.11914825439453 11.94598388671875 74.87847137451172 16.03375244140625 78.96623992919922 C 20.12152099609375 83.05400848388672 24.88084411621094 86.26304626464844 30.17950439453125 88.50419616699219 C 35.66376495361328 90.82384490966797 41.4912109375 92 47.49999618530273 92 C 53.50878143310547 92 59.33622741699219 90.82384490966797 64.82048797607422 88.50419616699219 C 70.11914825439453 86.26304626464844 74.87847137451172 83.05400848388672 78.96623992919922 78.96623992919922 C 83.05400848388672 74.87847137451172 86.26304626464844 70.11914825439453 88.50419616699219 64.82048797607422 C 90.82384490966797 59.33622741699219 92 53.50878143310547 92 47.49999618530273 C 92 41.4912109375 90.82384490966797 35.66376495361328 88.50419616699219 30.17950439453125 C 86.26304626464844 24.88084411621094 83.05400848388672 20.12152099609375 78.96623992919922 16.03375244140625 C 74.87847137451172 11.94598388671875 70.11914825439453 8.736953735351562 64.82048797607422 6.495796203613281 C 59.33622741699219 4.1761474609375 53.50878143310547 2.999992370605469 47.49999618530273 2.999992370605469 M 47.49999618530273 -7.62939453125e-06 C 73.7335205078125 -7.62939453125e-06 95 21.26647186279297 95 47.49999618530273 C 95 73.7335205078125 73.7335205078125 95 47.49999618530273 95 C 21.26647186279297 95 -7.62939453125e-06 73.7335205078125 -7.62939453125e-06 47.49999618530273 C -7.62939453125e-06 21.26647186279297 21.26647186279297 -7.62939453125e-06 47.49999618530273 -7.62939453125e-06 Z" stroke="none" fill="#f5b104"/>
                                        </g>
                                      </g>
                                    </g>
                                  </g>
                                </g>
                              </g>
                            </g>
                          </g>
                        </g>
                      </g>
                    </g>
                  </g>
                </g>
              </g>
            </g>
          </g>
        </g>
      </g>
    </g>
    <g id="Layer_x0020_1" transform="translate(295.523 1701.283)">
      <path id="Trazado_1068805" data-name="Trazado 1068805" d="M51.21,226.073,49.836,224.7l-.243,1.657ZM3.516,200.2l-1.9-.808V211.6c0,.243,1.091,1.374,6.427,2.344,7.073,1.293,18.512,1.576,26.676.93v-2.021a2.027,2.027,0,0,1,2.021-2.021h11.6V199.4a23.719,23.719,0,0,1-7.437,2.1c-.162,0-.323.04-.485.04a108.494,108.494,0,0,1-20.492.93l-1.738-.081c-.04,0-.566-.04-.566-.04l-1.415-.081h-.283c-.283-.04-.525-.04-.808-.081l-3.88-.4-.485-.04-.243-.04c-.162-.04-.323-.04-.485-.081-.243-.04-.485-.081-.687-.121l-.485-.04A40.855,40.855,0,0,1,3.516,200.2ZM0,197.254C.2,192.4,21.179,192,24.979,192c3.759,0,24.938.4,24.979,5.295v13.54H60.3l3.112-3.072a2.732,2.732,0,0,1,3.84,0c.808.808,1.7,1.576,1.7,2.829,0,1.455-1.172,2.344-2.1,3.274l-3.274,3.274V230.6a2.027,2.027,0,0,1-2.021,2.021H51.17l-1.213.808v6.75c-.121,4.891-21.179,5.254-24.979,5.254-3.678,0-24.979-.4-24.979-5.254V197.254Zm24.979-3.638a96.539,96.539,0,0,0-16.935,1.334c-5.335.97-6.507,2.1-6.427,2.385.445,1.132,4.891,2.021,5.942,2.223,7.558,1.455,17.825,1.617,25.544,1.132,2.466-.162,13.783-1.172,15.2-3.274C48.866,196.527,42.278,193.617,24.979,193.617Zm0,23.241c-6.548,0-18.714-.566-23.362-3.153v12.166c0,.243,1.091,1.374,6.427,2.385,7.073,1.293,18.512,1.576,26.676.889v-5.093H24.979a.809.809,0,0,1,0-1.617h9.741v-5.941C31.648,216.736,28.374,216.857,24.979,216.857ZM36.336,215.6v15a.382.382,0,0,0,.4.4H42.48a.811.811,0,0,1,.808.808v4.042l7.194-4.729a.815.815,0,0,1,.445-.121h10.63a.405.405,0,0,0,.4-.4V218.757L53.474,227.2c-.445.445-3.88.768-4.729.889a.789.789,0,0,1-.93-.889l.525-3.4H38.6a.81.81,0,0,1,0-1.617H48.947l3.84-3.84H38.6a.81.81,0,0,1,0-1.617H54.4l4.284-4.284H36.74a.405.405,0,0,0-.4.4ZM24.979,231.165c-6.548,0-18.714-.566-23.362-3.193v12.206c0,.243,1.091,1.374,6.427,2.344,9.094,1.7,24.776,1.7,33.911,0,5.295-.97,6.386-2.1,6.386-2.344v-5.7l-5.416,3.557a.808.808,0,0,1-1.253-.647V232.62H36.74a2,2,0,0,1-2.021-1.859C31.648,231.044,28.374,231.165,24.979,231.165Zm13.378-21.381H24.979a.809.809,0,0,1,0-1.617H38.357A.809.809,0,0,1,38.357,209.784Zm-22.271,2.668H12.53a1.708,1.708,0,0,1-1.7-1.7V207.2a1.717,1.717,0,0,1,1.7-1.738h3.557a1.717,1.717,0,0,1,1.7,1.738v3.557A1.708,1.708,0,0,1,16.087,212.452Zm-3.557-5.376c-.04,0-.081.04-.081.121v3.557a.087.087,0,0,0,.081.081h3.557a.087.087,0,0,0,.081-.081V207.2c0-.081-.04-.121-.081-.121Zm3.557,19.684H12.53a1.717,1.717,0,0,1-1.7-1.738v-3.557a1.708,1.708,0,0,1,1.7-1.7h3.557a1.708,1.708,0,0,1,1.7,1.7v3.557A1.717,1.717,0,0,1,16.087,226.76Zm-3.557-5.376a.087.087,0,0,0-.081.081v3.557c0,.04.04.121.081.121h3.557c.04,0,.081-.081.081-.121v-3.557a.087.087,0,0,0-.081-.081ZM38.357,238.36H24.979a.809.809,0,0,1,0-1.617H38.357A.809.809,0,0,1,38.357,238.36Zm-22.271,2.668H12.53a1.708,1.708,0,0,1-1.7-1.7v-3.557a1.717,1.717,0,0,1,1.7-1.738h3.557a1.717,1.717,0,0,1,1.7,1.738v3.557A1.708,1.708,0,0,1,16.087,241.027Zm-3.557-5.376c-.04,0-.081.04-.081.121v3.557a.087.087,0,0,0,.081.081h3.557a.087.087,0,0,0,.081-.081v-3.557c0-.081-.04-.121-.081-.121ZM50.442,223l2.466,2.506L65.114,213.3l-2.466-2.506ZM63.78,209.663l2.466,2.506c.606-.606,1.657-1.455.808-2.344C65.4,208.208,65.316,208.127,63.78,209.663Z" fill-rule="evenodd"/>
      <path id="Trazado_1068806" data-name="Trazado 1068806" d="M76.74,1092.388H63.362a.809.809,0,0,1,0-1.617H76.74A.809.809,0,0,1,76.74,1092.388Zm3.314-5.739H75.124a2,2,0,0,1-2.021-1.859c-3.072.283-6.346.4-9.741.4-6.548,0-18.714-.566-23.362-3.193v12.206c0,.243,1.091,1.374,6.427,2.344,9.094,1.7,24.776,1.7,33.911,0,5.295-.97,6.386-2.1,6.386-2.344v-5.7l-5.416,3.557a.808.808,0,0,1-1.253-.647Zm-23.887,6.709a1.708,1.708,0,0,1-1.7,1.7H50.913a1.708,1.708,0,0,1-1.7-1.7V1089.8a1.717,1.717,0,0,1,1.7-1.738H54.47a1.717,1.717,0,0,1,1.7,1.738Z" transform="translate(-38.383 -854.028)" fill="#35718a" fill-rule="evenodd"/>
      <path id="Trazado_1068807" data-name="Trazado 1068807" d="M311.719,1275.678v-3.557c0-.081-.04-.121-.081-.121h-3.557c-.04,0-.081.041-.081.121v3.557a.087.087,0,0,0,.081.081h3.557A.087.087,0,0,0,311.719,1275.678Z" transform="translate(-295.551 -1036.348)" fill="#5498c8" fill-rule="evenodd"/>
      <path id="Trazado_1068808" data-name="Trazado 1068808" d="M46.427,743.551c7.073,1.293,18.512,1.576,26.676.889v-5.093H63.362a.809.809,0,0,1,0-1.617H73.1v-5.941c-3.072.242-6.346.364-9.741.364-6.548,0-18.714-.566-23.362-3.153v12.166C40,741.408,41.091,742.54,46.427,743.551Zm9.741-3.233a1.717,1.717,0,0,1-1.7,1.738H50.913a1.717,1.717,0,0,1-1.7-1.738V736.76a1.708,1.708,0,0,1,1.7-1.7H54.47a1.708,1.708,0,0,1,1.7,1.7Z" transform="translate(-38.383 -515.295)" fill="#4184a9" fill-rule="evenodd"/>
      <path id="Trazado_1068809" data-name="Trazado 1068809" d="M308.081,922.759h3.557c.04,0,.081-.081.081-.121v-3.557a.087.087,0,0,0-.081-.081h-3.557a.087.087,0,0,0-.081.081v3.557C308,922.678,308.04,922.759,308.081,922.759Z" transform="translate(-295.551 -697.616)" fill="#5498c8" fill-rule="evenodd"/>
      <path id="Trazado_1068810" data-name="Trazado 1068810" d="M46.427,389.551c7.073,1.293,18.512,1.576,26.676.93v-2.021a2.027,2.027,0,0,1,2.021-2.021h11.6V375a23.717,23.717,0,0,1-7.437,2.1l-.485.04a108.494,108.494,0,0,1-20.492.93l-1.738-.081-.566-.04-1.415-.081h-.283l-.808-.081-3.88-.4-.485-.04-.243-.04-.485-.081-.687-.121-.485-.04a40.857,40.857,0,0,1-5.335-1.253L40,375v12.206C40,387.449,41.091,388.581,46.427,389.551Zm16.935-5.78H76.74a.809.809,0,0,1,0,1.617H63.362A.809.809,0,0,1,63.362,383.771Zm-7.194-.97v3.557a1.708,1.708,0,0,1-1.7,1.7H50.913a1.708,1.708,0,0,1-1.7-1.7V382.8a1.717,1.717,0,0,1,1.7-1.738H54.47A1.717,1.717,0,0,1,56.167,382.8Z" transform="translate(-38.383 -175.603)" fill="#35718a" fill-rule="evenodd"/>
      <path id="Trazado_1068811" data-name="Trazado 1068811" d="M308.081,568.759h3.557a.087.087,0,0,0,.081-.081v-3.557c0-.081-.04-.121-.081-.121h-3.557c-.04,0-.081.04-.081.121v3.557A.087.087,0,0,0,308.081,568.759Z" transform="translate(-295.551 -357.924)" fill="#5498c8" fill-rule="evenodd"/>
      <path id="Trazado_1068812" data-name="Trazado 1068812" d="M45.851,237.941c7.558,1.455,17.825,1.617,25.544,1.132,2.466-.162,13.783-1.172,15.2-3.274.566-.889-6.022-3.8-23.321-3.8a96.541,96.541,0,0,0-16.935,1.334c-5.335.97-6.507,2.1-6.427,2.385C40.354,236.85,44.8,237.739,45.851,237.941Z" transform="translate(-38.293 -38.383)" fill="#5498c8" fill-rule="evenodd"/>
      <path id="Trazado_1068813" data-name="Trazado 1068813" d="M899,701.153v15a.382.382,0,0,0,.4.4h5.739a.811.811,0,0,1,.808.808V721.4l7.194-4.729a.814.814,0,0,1,.445-.121h10.63a.4.4,0,0,0,.4-.4V704.305l-8.488,8.447c-.445.445-3.88.768-4.729.889a.788.788,0,0,1-.93-.889l.525-3.4h-9.741a.81.81,0,0,1,0-1.617h10.347l3.84-3.84H901.263a.81.81,0,0,1,0-1.617h15.8L921.351,698H899.4a.405.405,0,0,0-.4.4Z" transform="translate(-862.664 -485.548)" fill="#27d389" fill-rule="evenodd"/>
      <path id="Trazado_1068814" data-name="Trazado 1068814" d="M1227.243,1001l-.243,1.657,1.617-.283Z" transform="translate(-1177.407 -776.302)" fill="#ffcd00" fill-rule="evenodd"/>
      <path id="Trazado_1068815" data-name="Trazado 1068815" d="M1248,669.206l2.466,2.506,12.206-12.206L1260.206,657Z" transform="translate(-1197.558 -446.205)" fill="#ffcd00" fill-rule="evenodd"/>
      <path id="Trazado_1068816" data-name="Trazado 1068816" d="M1578,602.81l2.466,2.506c.606-.606,1.657-1.455.808-2.344C1579.617,601.355,1579.536,601.274,1578,602.81Z" transform="translate(-1514.22 -393.147)" fill="#ff4646" fill-rule="evenodd"/>
    </g>
  </g>
</svg>
