<svg xmlns="http://www.w3.org/2000/svg" xmlns:xlink="http://www.w3.org/1999/xlink" width="113" height="113" viewBox="0 0 113 113">
  <defs>
    <filter id="Trazado_982547" x="0" y="0" width="113" height="113" filterUnits="userSpaceOnUse">
      <feOffset dy="3" input="SourceAlpha"/>
      <feGaussianBlur stdDeviation="3" result="blur"/>
      <feFlood flood-opacity="0.161"/>
      <feComposite operator="in" in2="blur"/>
      <feComposite in="SourceGraphic"/>
    </filter>
  </defs>
  <g id="Grupo_1230640" data-name="Grupo 1230640" transform="translate(-586.328 -1864.898)">
    <g id="Grupo_1230209" data-name="Grupo 1230209" transform="translate(595.328 1870.898)">
      <g id="Grupo_1226970" data-name="Grupo 1226970">
        <g id="Grupo_1226448" data-name="Grupo 1226448">
          <g id="Grupo_1225528" data-name="Grupo 1225528">
            <g id="Grupo_1225173" data-name="Grupo 1225173">
              <g id="Grupo_1224643" data-name="Grupo 1224643">
                <g id="Grupo_1224291" data-name="Grupo 1224291">
                  <g id="Grupo_1224091" data-name="Grupo 1224091">
                    <g id="Grupo_1223183" data-name="Grupo 1223183">
                      <g id="Grupo_1211217" data-name="Grupo 1211217">
                        <g id="Grupo_1210736" data-name="Grupo 1210736">
                          <g id="Grupo_1210537" data-name="Grupo 1210537">
                            <g id="Grupo_1164202" data-name="Grupo 1164202">
                              <g id="Grupo_1158168" data-name="Grupo 1158168">
                                <g id="Grupo_1152576" data-name="Grupo 1152576">
                                  <g id="Grupo_1148633" data-name="Grupo 1148633">
                                    <g id="Grupo_1148525" data-name="Grupo 1148525">
                                      <g transform="matrix(1, 0, 0, 1, -9, -6)" filter="url(#Trazado_982547)">
                                        <g id="Trazado_982547-2" data-name="Trazado 982547" transform="translate(9 6)" fill="#fdf6e4">
                                          <path d="M 47.49999618530273 93.5 C 41.28936767578125 93.5 35.26533126831055 92.28396606445312 29.59518241882324 89.88570404052734 C 24.11771583557129 87.56893157958984 19.19812965393066 84.251953125 14.97308921813965 80.02690124511719 C 10.74803638458252 75.80186462402344 7.431062698364258 70.88227844238281 5.114289283752441 65.40480804443359 C 2.716022968292236 59.73466110229492 1.499996185302734 53.71062469482422 1.499996185302734 47.49999618530273 C 1.499996185302734 41.28936767578125 2.716022968292236 35.26533126831055 5.114289283752441 29.59518241882324 C 7.431062698364258 24.11771583557129 10.74803638458252 19.19812965393066 14.97308921813965 14.97308921813965 C 19.19812965393066 10.74803638458252 24.11771583557129 7.431062698364258 29.59518241882324 5.114289283752441 C 35.26533126831055 2.716022968292236 41.28936767578125 1.499996185302734 47.49999618530273 1.499996185302734 C 53.71062469482422 1.499996185302734 59.73466110229492 2.716022968292236 65.40480804443359 5.114289283752441 C 70.88227844238281 7.431062698364258 75.80186462402344 10.74803638458252 80.02690124511719 14.97308921813965 C 84.251953125 19.19812965393066 87.56893157958984 24.11771583557129 89.88570404052734 29.59518241882324 C 92.28396606445312 35.26533126831055 93.5 41.28936767578125 93.5 47.49999618530273 C 93.5 53.71062469482422 92.28396606445312 59.73466110229492 89.88570404052734 65.40480804443359 C 87.56893157958984 70.88227844238281 84.251953125 75.80186462402344 80.02690124511719 80.02690124511719 C 75.80186462402344 84.251953125 70.88227844238281 87.56893157958984 65.40480804443359 89.88570404052734 C 59.73466110229492 92.28396606445312 53.71062469482422 93.5 47.49999618530273 93.5 Z" stroke="none"/>
                                          <path d="M 47.49999618530273 2.999992370605469 C 41.4912109375 2.999992370605469 35.66376495361328 4.1761474609375 30.17950439453125 6.495796203613281 C 24.88084411621094 8.736953735351562 20.12152099609375 11.94598388671875 16.03375244140625 16.03375244140625 C 11.94598388671875 20.12152099609375 8.736953735351562 24.88084411621094 6.495796203613281 30.17950439453125 C 4.1761474609375 35.66376495361328 2.999992370605469 41.4912109375 2.999992370605469 47.49999618530273 C 2.999992370605469 53.50878143310547 4.1761474609375 59.33622741699219 6.495796203613281 64.82048797607422 C 8.736953735351562 70.11914825439453 11.94598388671875 74.87847137451172 16.03375244140625 78.96623992919922 C 20.12152099609375 83.05400848388672 24.88084411621094 86.26304626464844 30.17950439453125 88.50419616699219 C 35.66376495361328 90.82384490966797 41.4912109375 92 47.49999618530273 92 C 53.50878143310547 92 59.33622741699219 90.82384490966797 64.82048797607422 88.50419616699219 C 70.11914825439453 86.26304626464844 74.87847137451172 83.05400848388672 78.96623992919922 78.96623992919922 C 83.05400848388672 74.87847137451172 86.26304626464844 70.11914825439453 88.50419616699219 64.82048797607422 C 90.82384490966797 59.33622741699219 92 53.50878143310547 92 47.49999618530273 C 92 41.4912109375 90.82384490966797 35.66376495361328 88.50419616699219 30.17950439453125 C 86.26304626464844 24.88084411621094 83.05400848388672 20.12152099609375 78.96623992919922 16.03375244140625 C 74.87847137451172 11.94598388671875 70.11914825439453 8.736953735351562 64.82048797607422 6.495796203613281 C 59.33622741699219 4.1761474609375 53.50878143310547 2.999992370605469 47.49999618530273 2.999992370605469 M 47.49999618530273 -7.62939453125e-06 C 73.7335205078125 -7.62939453125e-06 95 21.26647186279297 95 47.49999618530273 C 95 73.7335205078125 73.7335205078125 95 47.49999618530273 95 C 21.26647186279297 95 -7.62939453125e-06 73.7335205078125 -7.62939453125e-06 47.49999618530273 C -7.62939453125e-06 21.26647186279297 21.26647186279297 -7.62939453125e-06 47.49999618530273 -7.62939453125e-06 Z" stroke="none" fill="#f5b104"/>
                                        </g>
                                      </g>
                                    </g>
                                  </g>
                                </g>
                              </g>
                            </g>
                          </g>
                        </g>
                      </g>
                    </g>
                  </g>
                </g>
              </g>
            </g>
          </g>
        </g>
      </g>
    </g>
    <g id="natural-language-processing_10148848" transform="translate(605.654 1884.73)">
      <g id="Grupo_1230632" data-name="Grupo 1230632" transform="translate(7.37 8.406)">
        <path id="Trazado_1068817" data-name="Trazado 1068817" d="M53.715,110.01H11.055A3.555,3.555,0,0,1,7.5,106.455V76H57.27v30.455A3.555,3.555,0,0,1,53.715,110.01Z" transform="translate(-7.337 -68.348)" fill="#fff"/>
        <rect id="Rectángulo_425358" data-name="Rectángulo 425358" width="50" height="8" transform="translate(-0.025 -0.136)" fill="#cdd9dd"/>
        <rect id="Rectángulo_425359" data-name="Rectángulo 425359" width="3" height="8" transform="translate(-0.025 -0.136)" fill="#a9baca"/>
        <path id="Trazado_1068818" data-name="Trazado 1068818" d="M10.463,106.455V76H7.5v30.455a3.555,3.555,0,0,0,3.555,3.555h2.963A3.555,3.555,0,0,1,10.463,106.455Z" transform="translate(-7.337 -68.348)" fill="#e3e9ee"/>
        <g id="Grupo_1230631" data-name="Grupo 1230631" transform="translate(29.196 28.508)">
          <path id="Trazado_1068819" data-name="Trazado 1068819" d="M279.607,265.186l2.519-2.274-1.58-3.815-3.389.173-2.3-2.3.173-3.389L271.213,252l-2.274,2.519h-3.253L263.412,252l-3.815,1.58.173,3.389-2.3,2.3-3.389-.173-1.58,3.815,2.519,2.274v3.253l-2.519,2.274,1.58,3.815,3.389-.173,2.3,2.3-.173,3.389,3.815,1.58,2.274-2.519h3.253l2.274,2.519,3.815-1.58-.173-3.389,2.3-2.3,3.389.173,1.58-3.815-2.519-2.274Zm-12.294,7.9a6.274,6.274,0,1,1,6.274-6.274A6.274,6.274,0,0,1,267.313,273.087Z" transform="translate(-252.5 -252)" fill="#a8e1f8"/>
          <path id="Trazado_1068820" data-name="Trazado 1068820" d="M260.913,277.3a9.72,9.72,0,0,1,1.742-15.133V256.07l-2.589,1.073.173,3.4-2.3,2.3-3.4-.173-1.583,3.823,2.523,2.278v3.26l-2.523,2.278,1.583,3.823,3.4-.173,2.3,2.3-.173,3.4,2.589,1.073v-6.053A9.768,9.768,0,0,1,260.913,277.3Z" transform="translate(-252.902 -255.588)" fill="#75d2f5"/>
        </g>
        <path id="Trazado_1068821" data-name="Trazado 1068821" d="M50.055,115a3.555,3.555,0,0,0-3.555,3.555v14.22a3.555,3.555,0,0,0,3.555,3.555h16a3.555,3.555,0,0,0,3.555-3.555V129.22h4.74l-4.74-5.925v-4.74A3.555,3.555,0,0,0,66.053,115Z" transform="translate(-41.716 -102.726)" fill="#ff9d87"/>
        <path id="Trazado_1068822" data-name="Trazado 1068822" d="M49.463,132.775v-14.22A3.555,3.555,0,0,1,53.018,115H50.055a3.555,3.555,0,0,0-3.555,3.555v14.22a3.555,3.555,0,0,0,3.555,3.555h2.963A3.555,3.555,0,0,1,49.463,132.775Z" transform="translate(-41.716 -102.726)" fill="#ff6a47"/>
      </g>
      <g id="Grupo_1230638" data-name="Grupo 1230638" transform="translate(7.37 8)">
        <path id="Trazado_1068823" data-name="Trazado 1068823" d="M268.939,254.519,271.213,252l3.815,1.58-.173,3.389,2.3,2.3,3.389-.173,1.58,3.815-2.519,2.274v3.253l2.519,2.274-1.58,3.815-3.389-.173-2.3,2.3.173,3.389-3.815,1.58-2.274-2.519h-3.253l-2.274,2.519-3.815-1.58.173-3.389-2.3-2.3-3.389.173-1.58-3.815,2.519-2.274v-3.253l-2.519-2.274,1.58-3.815,3.389.173,2.3-2.3-.173-3.389,3.815-1.58,2.274,2.519Z" transform="translate(-223.304 -223.086)" fill="none" stroke="#000" stroke-miterlimit="10" stroke-width="1.2"/>
        <g id="Grupo_1230633" data-name="Grupo 1230633" transform="translate(37.734 34.35)">
          <path id="Trazado_1068824" data-name="Trazado 1068824" d="M324.693,365.78a6.274,6.274,0,0,0,10.318,5.988" transform="translate(-324.555 -357.733)" fill="none" stroke="#000" stroke-miterlimit="10" stroke-width="1.2"/>
          <path id="Trazado_1068825" data-name="Trazado 1068825" d="M341.56,325.559a6.274,6.274,0,0,1,10.37,6.032" transform="translate(-339.545 -320.807)" fill="none" stroke="#000" stroke-miterlimit="10" stroke-width="1.2"/>
          <path id="Trazado_1068826" data-name="Trazado 1068826" d="M345.706,303.387l-4.74-.776.776-4.74" transform="translate(-339.021 -297.871)" fill="none" stroke="#000" stroke-miterlimit="10" stroke-width="1.2"/>
          <path id="Trazado_1068827" data-name="Trazado 1068827" d="M377.028,399.248l4.37,2.047-2.047,4.37" transform="translate(-370.81 -387.235)" fill="none" stroke="#000" stroke-miterlimit="10" stroke-width="1.2"/>
        </g>
        <g id="Grupo_1230636" data-name="Grupo 1230636" transform="translate(8.991 17.837)">
          <g id="Grupo_1230635" data-name="Grupo 1230635" transform="translate(0 0)">
            <line id="Línea_4857" data-name="Línea 4857" y2="11.016" transform="translate(7.11)" fill="none" stroke="#000" stroke-miterlimit="10" stroke-width="1.2"/>
            <line id="Línea_4858" data-name="Línea 4858" y2="6.399" transform="translate(10.665 2.308)" fill="none" stroke="#000" stroke-miterlimit="10" stroke-width="1.2"/>
            <line id="Línea_4859" data-name="Línea 4859" y2="3.555" transform="translate(14.22 3.73)" fill="none" stroke="#000" stroke-miterlimit="10" stroke-width="1.2"/>
            <g id="Grupo_1230634" data-name="Grupo 1230634" transform="translate(0 2.308)">
              <line id="Línea_4860" data-name="Línea 4860" y2="6.399" transform="translate(3.555)" fill="none" stroke="#000" stroke-miterlimit="10" stroke-width="1.2"/>
              <line id="Línea_4861" data-name="Línea 4861" y2="3.555" transform="translate(0 1.422)" fill="none" stroke="#000" stroke-miterlimit="10" stroke-width="1.2"/>
            </g>
          </g>
        </g>
        <path id="Trazado_1068828" data-name="Trazado 1068828" d="M50.055,115a3.555,3.555,0,0,0-3.555,3.555v14.22a3.555,3.555,0,0,0,3.555,3.555h16a3.555,3.555,0,0,0,3.555-3.555V129.22h4.74l-4.74-5.925v-4.74A3.555,3.555,0,0,0,66.053,115Z" transform="translate(-41.716 -102.32)" fill="none" stroke="#000" stroke-miterlimit="10" stroke-width="1.2"/>
        <g id="Grupo_1230637" data-name="Grupo 1230637" transform="translate(0 0)">
          <path id="Trazado_1068829" data-name="Trazado 1068829" d="M373.288,37.744V8H366" transform="translate(-323.355 -8)" fill="none" stroke="#000" stroke-miterlimit="10" stroke-width="1.2"/>
          <line id="Línea_4862" data-name="Línea 4862" x1="23.522" transform="translate(8.28 42.068)" fill="none" stroke="#000" stroke-miterlimit="10" stroke-width="1.2"/>
          <path id="Trazado_1068830" data-name="Trazado 1068830" d="M13.84,50.068H11.055A3.555,3.555,0,0,1,7.5,46.513V8H48.205" transform="translate(-7.337 -8)" fill="none" stroke="#000" stroke-miterlimit="10" stroke-width="1.2"/>
          <line id="Línea_4863" data-name="Línea 4863" x1="50" transform="translate(-0.025 8.27)" fill="none" stroke="#000" stroke-miterlimit="10" stroke-width="1.2"/>
        </g>
      </g>
      <g id="Grupo_1230639" data-name="Grupo 1230639" transform="translate(13.607 11.14)">
        <line id="Línea_4864" data-name="Línea 4864" y2="1.778" transform="translate(0 0)" fill="none" stroke="#fff" stroke-miterlimit="10" stroke-width="1.2"/>
        <line id="Línea_4865" data-name="Línea 4865" y2="1.778" transform="translate(3.555 0)" fill="none" stroke="#fff" stroke-miterlimit="10" stroke-width="1.2"/>
      </g>
    </g>
  </g>
</svg>
