<svg xmlns="http://www.w3.org/2000/svg" xmlns:xlink="http://www.w3.org/1999/xlink" width="113" height="113" viewBox="0 0 113 113">
  <defs>
    <filter id="Trazado_982547" x="0" y="0" width="113" height="113" filterUnits="userSpaceOnUse">
      <feOffset dy="3" input="SourceAlpha"/>
      <feGaussianBlur stdDeviation="3" result="blur"/>
      <feFlood flood-opacity="0.161"/>
      <feComposite operator="in" in2="blur"/>
      <feComposite in="SourceGraphic"/>
    </filter>
  </defs>
  <g id="Grupo_1230655" data-name="Grupo 1230655" transform="translate(-1216.328 -1864.898)">
    <g id="Grupo_1230211" data-name="Grupo 1230211" transform="translate(1225.328 1870.898)">
      <g id="Grupo_1226970" data-name="Grupo 1226970">
        <g id="Grupo_1226448" data-name="Grupo 1226448">
          <g id="Grupo_1225528" data-name="Grupo 1225528">
            <g id="Grupo_1225173" data-name="Grupo 1225173">
              <g id="Grupo_1224643" data-name="Grupo 1224643">
                <g id="Grupo_1224291" data-name="Grupo 1224291">
                  <g id="Grupo_1224091" data-name="Grupo 1224091">
                    <g id="Grupo_1223183" data-name="Grupo 1223183">
                      <g id="Grupo_1211217" data-name="Grupo 1211217">
                        <g id="Grupo_1210736" data-name="Grupo 1210736">
                          <g id="Grupo_1210537" data-name="Grupo 1210537">
                            <g id="Grupo_1164202" data-name="Grupo 1164202">
                              <g id="Grupo_1158168" data-name="Grupo 1158168">
                                <g id="Grupo_1152576" data-name="Grupo 1152576">
                                  <g id="Grupo_1148633" data-name="Grupo 1148633">
                                    <g id="Grupo_1148525" data-name="Grupo 1148525">
                                      <g transform="matrix(1, 0, 0, 1, -9, -6)" filter="url(#Trazado_982547)">
                                        <g id="Trazado_982547-2" data-name="Trazado 982547" transform="translate(9 6)" fill="#fdf6e4">
                                          <path d="M 47.49999618530273 93.5 C 41.28936767578125 93.5 35.26533126831055 92.28396606445312 29.59518241882324 89.88570404052734 C 24.11771583557129 87.56893157958984 19.19812965393066 84.251953125 14.97308921813965 80.02690124511719 C 10.74803638458252 75.80186462402344 7.431062698364258 70.88227844238281 5.114289283752441 65.40480804443359 C 2.716022968292236 59.73466110229492 1.499996185302734 53.71062469482422 1.499996185302734 47.49999618530273 C 1.499996185302734 41.28936767578125 2.716022968292236 35.26533126831055 5.114289283752441 29.59518241882324 C 7.431062698364258 24.11771583557129 10.74803638458252 19.19812965393066 14.97308921813965 14.97308921813965 C 19.19812965393066 10.74803638458252 24.11771583557129 7.431062698364258 29.59518241882324 5.114289283752441 C 35.26533126831055 2.716022968292236 41.28936767578125 1.499996185302734 47.49999618530273 1.499996185302734 C 53.71062469482422 1.499996185302734 59.73466110229492 2.716022968292236 65.40480804443359 5.114289283752441 C 70.88227844238281 7.431062698364258 75.80186462402344 10.74803638458252 80.02690124511719 14.97308921813965 C 84.251953125 19.19812965393066 87.56893157958984 24.11771583557129 89.88570404052734 29.59518241882324 C 92.28396606445312 35.26533126831055 93.5 41.28936767578125 93.5 47.49999618530273 C 93.5 53.71062469482422 92.28396606445312 59.73466110229492 89.88570404052734 65.40480804443359 C 87.56893157958984 70.88227844238281 84.251953125 75.80186462402344 80.02690124511719 80.02690124511719 C 75.80186462402344 84.251953125 70.88227844238281 87.56893157958984 65.40480804443359 89.88570404052734 C 59.73466110229492 92.28396606445312 53.71062469482422 93.5 47.49999618530273 93.5 Z" stroke="none"/>
                                          <path d="M 47.49999618530273 2.999992370605469 C 41.4912109375 2.999992370605469 35.66376495361328 4.1761474609375 30.17950439453125 6.495796203613281 C 24.88084411621094 8.736953735351562 20.12152099609375 11.94598388671875 16.03375244140625 16.03375244140625 C 11.94598388671875 20.12152099609375 8.736953735351562 24.88084411621094 6.495796203613281 30.17950439453125 C 4.1761474609375 35.66376495361328 2.999992370605469 41.4912109375 2.999992370605469 47.49999618530273 C 2.999992370605469 53.50878143310547 4.1761474609375 59.33622741699219 6.495796203613281 64.82048797607422 C 8.736953735351562 70.11914825439453 11.94598388671875 74.87847137451172 16.03375244140625 78.96623992919922 C 20.12152099609375 83.05400848388672 24.88084411621094 86.26304626464844 30.17950439453125 88.50419616699219 C 35.66376495361328 90.82384490966797 41.4912109375 92 47.49999618530273 92 C 53.50878143310547 92 59.33622741699219 90.82384490966797 64.82048797607422 88.50419616699219 C 70.11914825439453 86.26304626464844 74.87847137451172 83.05400848388672 78.96623992919922 78.96623992919922 C 83.05400848388672 74.87847137451172 86.26304626464844 70.11914825439453 88.50419616699219 64.82048797607422 C 90.82384490966797 59.33622741699219 92 53.50878143310547 92 47.49999618530273 C 92 41.4912109375 90.82384490966797 35.66376495361328 88.50419616699219 30.17950439453125 C 86.26304626464844 24.88084411621094 83.05400848388672 20.12152099609375 78.96623992919922 16.03375244140625 C 74.87847137451172 11.94598388671875 70.11914825439453 8.736953735351562 64.82048797607422 6.495796203613281 C 59.33622741699219 4.1761474609375 53.50878143310547 2.999992370605469 47.49999618530273 2.999992370605469 M 47.49999618530273 -7.62939453125e-06 C 73.7335205078125 -7.62939453125e-06 95 21.26647186279297 95 47.49999618530273 C 95 73.7335205078125 73.7335205078125 95 47.49999618530273 95 C 21.26647186279297 95 -7.62939453125e-06 73.7335205078125 -7.62939453125e-06 47.49999618530273 C -7.62939453125e-06 21.26647186279297 21.26647186279297 -7.62939453125e-06 47.49999618530273 -7.62939453125e-06 Z" stroke="none" fill="#f5b104"/>
                                        </g>
                                      </g>
                                    </g>
                                  </g>
                                </g>
                              </g>
                            </g>
                          </g>
                        </g>
                      </g>
                    </g>
                  </g>
                </g>
              </g>
            </g>
          </g>
        </g>
      </g>
    </g>
    <g id="password_7415309" transform="translate(1240.352 1887.001)">
      <g id="Grupo_1230653" data-name="Grupo 1230653" transform="translate(1.08 1.08)">
        <g id="Grupo_1230647" data-name="Grupo 1230647" transform="translate(28.502)">
          <path id="Trazado_1068844" data-name="Trazado 1068844" d="M244.642,19.879V24.2l-2.544.848a11.77,11.77,0,0,1-1.241,2.991l1.2,2.4L239,33.492l-2.4-1.2a11.77,11.77,0,0,1-2.991,1.241l-.848,2.544h-3.24V29.6h1.08a7.559,7.559,0,1,0-7.332-9.4h0a22.877,22.877,0,0,1-4.07-1.5h0a11.734,11.734,0,0,1,1.147-2.658l-1.2-2.4,3.053-3.053,2.4,1.2a11.771,11.771,0,0,1,2.991-1.241L228.444,8h4.32l.848,2.544a11.771,11.771,0,0,1,2.991,1.241l2.4-1.2,3.053,3.053-1.2,2.4a11.77,11.77,0,0,1,1.241,2.991Z" transform="translate(-219.15 -8)" fill="#fcd770"/>
        </g>
        <g id="Grupo_1230648" data-name="Grupo 1230648" transform="translate(0 4.32)">
          <path id="Trazado_1068845" data-name="Trazado 1068845" d="M46.876,63.758V75.636H38.237V50.8H23.118l-6.479,6.479V85.355H34.054a4.321,4.321,0,0,0,4.183,3.24h3.52a13.648,13.648,0,0,1-3.9,2.2,13.713,13.713,0,0,0-5.008,3.19L29.282,97.55a2.607,2.607,0,0,1-3.688,0l-3.565-3.565a13.712,13.712,0,0,0-5.008-3.19A13.7,13.7,0,0,1,8,77.916V48.639h.4a22.91,22.91,0,0,0,17.247-7.826,2.38,2.38,0,0,1,3.583,0,22.916,22.916,0,0,0,17.247,7.826h.4V63.758Z" transform="translate(-8 -40)" fill="#aab2bd"/>
        </g>
        <g id="Grupo_1230649" data-name="Grupo 1230649" transform="translate(8.639 15.118)">
          <path id="Trazado_1068846" data-name="Trazado 1068846" d="M90.74,145.917a4.313,4.313,0,0,0-1.462,3.24v4.32a4.32,4.32,0,0,0,.136,1.08H72V126.479h6.479V120H93.6v24.837a4.3,4.3,0,0,0-2.856,1.08Z" transform="translate(-72 -120)" fill="#f0d0b4"/>
        </g>
        <g id="Grupo_1230650" data-name="Grupo 1230650" transform="translate(8.639 15.118)">
          <path id="Trazado_1068847" data-name="Trazado 1068847" d="M78.479,120v6.479H72Z" transform="translate(-72 -120)" fill="#ecc19c"/>
        </g>
        <g id="Grupo_1230651" data-name="Grupo 1230651" transform="translate(25.917 39.956)">
          <path id="Trazado_1068848" data-name="Trazado 1068848" d="M238.876,308.32v4.32a4.32,4.32,0,0,1-4.32,4.32H204.32a4.316,4.316,0,0,1-4.32-4.32v-4.32a4.313,4.313,0,0,1,1.462-3.24h0A4.3,4.3,0,0,1,204.32,304h30.237A4.32,4.32,0,0,1,238.876,308.32Z" transform="translate(-200 -304)" fill="#5cd6b3"/>
        </g>
        <g id="Grupo_1230652" data-name="Grupo 1230652" transform="translate(19.438 19.438)">
          <path id="Trazado_1068849" data-name="Trazado 1068849" d="M152,152h6.479v4.32H152Z" transform="translate(-152 -152)" fill="#e6e9ed"/>
        </g>
      </g>
      <g id="Grupo_1230654" data-name="Grupo 1230654" transform="translate(0 0)">
        <path id="Trazado_1068850" data-name="Trazado 1068850" d="M224,344h2.16v2.16H224Z" transform="translate(-193.763 -297.565)"/>
        <path id="Trazado_1068851" data-name="Trazado 1068851" d="M240,328h2.16v2.16H240Z" transform="translate(-207.603 -283.725)"/>
        <path id="Trazado_1068852" data-name="Trazado 1068852" d="M256,344h2.16v2.16H256Z" transform="translate(-221.444 -297.565)"/>
        <path id="Trazado_1068853" data-name="Trazado 1068853" d="M240,360h2.16v2.16H240Z" transform="translate(-207.603 -311.405)"/>
        <path id="Trazado_1068854" data-name="Trazado 1068854" d="M288,344h2.16v2.16H288Z" transform="translate(-249.124 -297.565)"/>
        <path id="Trazado_1068855" data-name="Trazado 1068855" d="M304,328h2.16v2.16H304Z" transform="translate(-262.964 -283.725)"/>
        <path id="Trazado_1068856" data-name="Trazado 1068856" d="M320,344h2.16v2.16H320Z" transform="translate(-276.804 -297.565)"/>
        <path id="Trazado_1068857" data-name="Trazado 1068857" d="M304,360h2.16v2.16H304Z" transform="translate(-262.964 -311.405)"/>
        <path id="Trazado_1068858" data-name="Trazado 1068858" d="M352,344h2.16v2.16H352Z" transform="translate(-304.485 -297.565)"/>
        <path id="Trazado_1068859" data-name="Trazado 1068859" d="M368,328h2.16v2.16H368Z" transform="translate(-318.325 -283.725)"/>
        <path id="Trazado_1068860" data-name="Trazado 1068860" d="M384,344h2.16v2.16H384Z" transform="translate(-332.165 -297.565)"/>
        <path id="Trazado_1068861" data-name="Trazado 1068861" d="M368,360h2.16v2.16H368Z" transform="translate(-318.325 -311.405)"/>
        <path id="Trazado_1068862" data-name="Trazado 1068862" d="M416,344h2.16v2.16H416Z" transform="translate(-359.846 -297.565)"/>
        <path id="Trazado_1068863" data-name="Trazado 1068863" d="M432,328h2.16v2.16H432Z" transform="translate(-373.686 -283.725)"/>
        <path id="Trazado_1068864" data-name="Trazado 1068864" d="M448,344h2.16v2.16H448Z" transform="translate(-387.526 -297.565)"/>
        <path id="Trazado_1068865" data-name="Trazado 1068865" d="M432,360h2.16v2.16H432Z" transform="translate(-373.686 -311.405)"/>
        <path id="Trazado_1068866" data-name="Trazado 1068866" d="M61.554,39.956H41.036V30.237h2.938l.914-2.743a12.89,12.89,0,0,0,2.173-.9l2.587,1.294L53.8,23.731,52.51,21.144a12.886,12.886,0,0,0,.9-2.173l2.743-.914V12.18l-2.743-.914a12.89,12.89,0,0,0-.9-2.173L53.8,6.506,49.649,2.351,47.061,3.644a12.886,12.886,0,0,0-2.173-.9L43.974,0H38.1l-.914,2.743a12.89,12.89,0,0,0-2.173.9L32.423,2.351,28.268,6.506l1.294,2.587q-.3.565-.537,1.158a21.83,21.83,0,0,1-5.9-4.749,3.46,3.46,0,0,0-5.207,0A21.838,21.838,0,0,1,1.479,12.959H0V43.315A14.83,14.83,0,0,0,9.732,57.21a12.71,12.71,0,0,1,4.613,2.938l3.566,3.566a3.687,3.687,0,0,0,5.214,0l3.566-3.566A12.71,12.71,0,0,1,31.3,57.21a14.747,14.747,0,0,0,3.9-2.136H61.554a5.406,5.406,0,0,0,5.4-5.4v-4.32a5.406,5.406,0,0,0-5.4-5.4Zm-22-27a21.833,21.833,0,0,1-4.449-.46,6.48,6.48,0,1,1,5.929,9.1V12.959ZM30.9,6.932,32.85,4.978l2.228,1.114.505-.3A10.724,10.724,0,0,1,38.3,4.669l.567-.148.787-2.361h2.763L43.2,4.521l.567.148A10.719,10.719,0,0,1,46.489,5.8l.505.3,2.228-1.114,1.954,1.954L50.062,9.16l.3.505a10.723,10.723,0,0,1,1.127,2.718l.148.567,2.361.787V16.5l-2.362.787-.148.567a10.719,10.719,0,0,1-1.127,2.718l-.3.505L51.176,23.3l-1.954,1.954-2.228-1.114-.505.3a10.724,10.724,0,0,1-2.718,1.127l-.567.148-.787,2.361H41.036v-4.32A8.639,8.639,0,1,0,33,11.949q-1.031-.325-2.025-.749a10.733,10.733,0,0,1,.742-1.534l.3-.505Zm7.98,8.177V39.956H32.4V15.118H21.6V7.036A24,24,0,0,0,38.876,15.109Zm-10.8,25.927H12.959V43.2H26.37a5.367,5.367,0,0,0-.452,2.16H12.959v2.16H25.917v2.16H10.8V23.758h6.479V17.278H30.237V40.065A5.378,5.378,0,0,0,28.081,41.036ZM12.326,21.6l2.792-2.792V21.6ZM15.872,58.62a14.885,14.885,0,0,0-5.4-3.44A12.664,12.664,0,0,1,2.16,43.315V15.109A24,24,0,0,0,19.438,7.036v8.082H15.751L8.639,22.23v29.6h10.8V62.186Zm9.291,0L21.6,62.186V51.835H26.37a5.409,5.409,0,0,0,4.517,3.221c-.107.042-.213.085-.322.124A14.886,14.886,0,0,0,25.164,58.62Zm39.63-8.946a3.243,3.243,0,0,1-3.24,3.24H31.317a3.243,3.243,0,0,1-3.24-3.24v-4.32a3.243,3.243,0,0,1,3.24-3.24H61.554a3.243,3.243,0,0,1,3.24,3.24Z" transform="translate(0 0)"/>
        <path id="Trazado_1068867" data-name="Trazado 1068867" d="M144,144v6.479h8.639V144Zm6.479,4.32h-4.32v-2.16h4.32Z" transform="translate(-124.562 -124.562)"/>
        <path id="Trazado_1068868" data-name="Trazado 1068868" d="M96,208h15.118v2.16H96Z" transform="translate(-83.041 -179.923)"/>
        <path id="Trazado_1068869" data-name="Trazado 1068869" d="M96,272h15.118v2.16H96Z" transform="translate(-83.041 -235.284)"/>
        <path id="Trazado_1068870" data-name="Trazado 1068870" d="M96,240h15.118v2.16H96Z" transform="translate(-83.041 -207.603)"/>
      </g>
    </g>
  </g>
</svg>
