<svg xmlns="http://www.w3.org/2000/svg" width="85" height="78" viewBox="0 0 85 78">
  <g id="Grupo_1230796" data-name="Grupo 1230796" transform="translate(-180 -2227.515)">
    <g id="Grupo_1230212" data-name="Grupo 1230212" transform="translate(0 -423.485)">
      <rect id="Rectángulo_423244" data-name="Rectángulo 423244" width="85" height="78" rx="15" transform="translate(180 2651)" fill="#dcb9fc"/>
    </g>
    <g id="backend_11743680" transform="translate(196.501 2240.516)">
      <path id="Trazado_1069173" data-name="Trazado 1069173" d="M25.092,7.25A17.842,17.842,0,1,0,42.935,25.092,17.872,17.872,0,0,0,25.092,7.25ZM22.468,29.628a1.737,1.737,0,0,1,0,2.44,1.723,1.723,0,0,1-2.44,0l-5.756-5.756a1.737,1.737,0,0,1,0-2.44l5.756-5.756a1.726,1.726,0,0,1,2.44,2.44l-4.535,4.535ZM35.89,26.313l-5.756,5.756a1.723,1.723,0,0,1-2.44,0,1.737,1.737,0,0,1,0-2.44l4.535-4.535-4.535-4.535a1.726,1.726,0,1,1,2.44-2.44l5.756,5.756a1.737,1.737,0,0,1,0,2.44Z" transform="translate(7.813 7.813)" fill="#aa52f9"/>
      <g id="Grupo_1230795" data-name="Grupo 1230795" transform="translate(1.25 1.25)">
        <path id="Trazado_1069174" data-name="Trazado 1069174" d="M18.379,10.4a21.4,21.4,0,0,0-5.687,8.933C5.877,18.739,1.964,17.4,1.25,16.575V6.56C5.693,9.576,13.36,10.313,18.379,10.4Z" transform="translate(-1.25 5.665)" fill="#aa52f9"/>
        <path id="Trazado_1069175" data-name="Trazado 1069175" d="M13.268,26.344C7.259,25.654,1.25,23.973,1.25,20.428V12.6c2.809,1.22,6.907,1.865,10.613,2.233a22.16,22.16,0,0,0-.253,3.292,21.3,21.3,0,0,0,1.658,8.219Z" transform="translate(-1.25 13.53)" fill="#aa52f9"/>
        <ellipse id="Elipse_14161" data-name="Elipse 14161" cx="18.993" cy="6.331" rx="18.993" ry="6.331" transform="translate(0)" fill="#aa52f9"/>
      </g>
    </g>
  </g>
</svg>
