<svg xmlns="http://www.w3.org/2000/svg" xmlns:xlink="http://www.w3.org/1999/xlink" width="398.387" height="445" viewBox="0 0 398.387 445">
  <defs>
    <linearGradient id="linear-gradient" x1="0.5" x2="0.5" y2="1" gradientUnits="objectBoundingBox">
      <stop offset="0" stop-color="#903cdf"/>
      <stop offset="1" stop-color="#481e70"/>
    </linearGradient>
    <filter id="Elipse_13846" x="16.387" y="41" width="116" height="116" filterUnits="userSpaceOnUse">
      <feOffset dy="3" input="SourceAlpha"/>
      <feGaussianBlur stdDeviation="3" result="blur"/>
      <feFlood flood-opacity="0.161"/>
      <feComposite operator="in" in2="blur"/>
      <feComposite in="SourceGraphic"/>
    </filter>
    <filter id="Elipse_13847" x="240.387" y="249" width="158" height="158" filterUnits="userSpaceOnUse">
      <feOffset dy="3" input="SourceAlpha"/>
      <feGaussianBlur stdDeviation="3" result="blur-2"/>
      <feFlood flood-opacity="0.161"/>
      <feComposite operator="in" in2="blur-2"/>
      <feComposite in="SourceGraphic"/>
    </filter>
    <clipPath id="clip-path">
      <rect id="Rectángulo_424856" data-name="Rectángulo 424856" width="389.387" height="422.565" fill="none"/>
    </clipPath>
  </defs>
  <g id="Grupo_1230379" data-name="Grupo 1230379" transform="translate(-1030.613 -290)">
    <rect id="Rectángulo_423507" data-name="Rectángulo 423507" width="278" height="443" rx="13" transform="translate(1081 290)" fill="url(#linear-gradient)"/>
    <g transform="matrix(1, 0, 0, 1, 1030.61, 290)" filter="url(#Elipse_13846)">
      <circle id="Elipse_13846-2" data-name="Elipse 13846" cx="49" cy="49" r="49" transform="translate(25.39 47)" fill="#f6ecfe"/>
    </g>
    <g transform="matrix(1, 0, 0, 1, 1030.61, 290)" filter="url(#Elipse_13847)">
      <circle id="Elipse_13847-2" data-name="Elipse 13847" cx="70" cy="70" r="70" transform="translate(249.39 255)" fill="#f6ecfe"/>
    </g>
    <g id="Grupo_1230377" data-name="Grupo 1230377" transform="translate(1030.613 312.435)">
      <g id="Grupo_1230376" data-name="Grupo 1230376" clip-path="url(#clip-path)">
        <path id="Trazado_1067521" data-name="Trazado 1067521" d="M418.675,134.962H254.91A10.865,10.865,0,0,1,244.045,124.1V12.113A10.865,10.865,0,0,1,254.91,1.248H418.675a10.865,10.865,0,0,1,10.864,10.865V124.1a10.865,10.865,0,0,1-10.864,10.865" transform="translate(-84.099 -0.43)" fill="#faf5fa"/>
        <path id="Trazado_1067522" data-name="Trazado 1067522" d="M418.245,135.349H254.479A11.7,11.7,0,0,1,242.8,123.667V11.682A11.7,11.7,0,0,1,254.479,0H418.245a11.7,11.7,0,0,1,11.682,11.682V123.667a11.7,11.7,0,0,1-11.682,11.682M254.479,1.636a10.058,10.058,0,0,0-10.047,10.047V123.667a10.058,10.058,0,0,0,10.047,10.047H418.245a10.058,10.058,0,0,0,10.047-10.047V11.682A10.058,10.058,0,0,0,418.245,1.636Z" transform="translate(-83.669)" fill="#45334d"/>
        <path id="Trazado_1067523" data-name="Trazado 1067523" d="M407.632,93.461a45.456,45.456,0,1,1-45.456-45.456,45.456,45.456,0,0,1,45.456,45.456" transform="translate(-109.143 -16.543)" fill="#eac346"/>
        <path id="Trazado_1067524" data-name="Trazado 1067524" d="M361.745,139.306A46.274,46.274,0,1,1,408.02,93.032a46.326,46.326,0,0,1-46.274,46.274m0-90.913a44.639,44.639,0,1,0,44.638,44.639,44.69,44.69,0,0,0-44.638-44.639" transform="translate(-108.712 -16.113)" fill="#faf5fa"/>
        <path id="Trazado_1067525" data-name="Trazado 1067525" d="M369.84,139.306c-17.027,0-30.88-20.758-30.88-46.274s13.852-46.274,30.88-46.274,30.879,20.758,30.879,46.274-13.852,46.274-30.879,46.274m0-90.913c-16.125,0-29.244,20.025-29.244,44.639s13.118,44.638,29.244,44.638,29.243-20.025,29.243-44.638S385.965,48.393,369.84,48.393" transform="translate(-116.807 -16.113)" fill="#faf5fa"/>
        <path id="Trazado_1067526" data-name="Trazado 1067526" d="M407.2,117.749H316.289a.818.818,0,1,1,0-1.635H407.2a.818.818,0,1,1,0,1.635" transform="translate(-108.712 -40.013)" fill="#faf5fa"/>
        <path id="Trazado_1067527" data-name="Trazado 1067527" d="M385.646,139.306a.818.818,0,0,1-.818-.818V47.575a.818.818,0,0,1,1.635,0v90.913a.818.818,0,0,1-.817.818" transform="translate(-132.613 -16.113)" fill="#faf5fa"/>
        <path id="Trazado_1067528" data-name="Trazado 1067528" d="M431.171,175.569l28.006,28.006L442.642,220.11,414.636,192.1l-11.088,11.087-3.4-22.755-3.4-22.755,22.755,3.4,22.755,3.4Z" transform="translate(-136.721 -54.337)" fill="#7673c0"/>
        <path id="Trazado_1067529" data-name="Trazado 1067529" d="M264.812,11.692A3.415,3.415,0,1,1,261.4,8.277a3.415,3.415,0,0,1,3.415,3.415" transform="translate(-88.902 -2.852)" fill="#eac346"/>
        <path id="Trazado_1067530" data-name="Trazado 1067530" d="M303.336,11.692a3.415,3.415,0,1,1-3.415-3.415,3.415,3.415,0,0,1,3.415,3.415" transform="translate(-102.177 -2.852)" fill="#ede56d"/>
        <path id="Trazado_1067531" data-name="Trazado 1067531" d="M284.074,11.692a3.415,3.415,0,1,1-3.415-3.415,3.415,3.415,0,0,1,3.415,3.415" transform="translate(-95.539 -2.852)" fill="#7673c0"/>
        <path id="Trazado_1067532" data-name="Trazado 1067532" d="M429.109,27.83H243.614a.818.818,0,0,1,0-1.635H429.109a.818.818,0,1,1,0,1.635" transform="translate(-83.669 -9.027)" fill="#45334d"/>
        <path id="Trazado_1067533" data-name="Trazado 1067533" d="M302.739,166.21c.853-4.132-5.35-4.046-5.35-4.046.409-4.634-4.088-4.906-4.088-4.906-.545-4.246-4.454-5.425-6.306-4.219.686-9.912,1.783-17.011-2.462-17.359-6.239-.512-8.5,23.935-8.5,23.935-6.636,12.85,1.52,21.668,1.52,21.668l-2.017,15.363,25.941,3.816.444-14.569Z" transform="translate(-94.226 -46.753)" fill="#ffd5ae"/>
        <path id="Trazado_1067534" data-name="Trazado 1067534" d="M427.471,585.639s33.031-2.761,40.694,1.045-48.082,36.386-48.082,36.386l-14.59-18.521Z" transform="translate(-139.734 -201.48)" fill="#45334d"/>
        <path id="Trazado_1067535" data-name="Trazado 1067535" d="M423.9,621.383a.818.818,0,0,1-.428-1.515c18.021-11.013,46.885-29.971,47.617-33.955a.817.817,0,1,1,1.608.3c-.2,1.09-.731,3.985-24.748,19.973C436.2,614,424.438,621.192,424.321,621.263a.815.815,0,0,1-.425.12" transform="translate(-145.793 -201.677)" fill="#fff"/>
        <path id="Trazado_1067536" data-name="Trazado 1067536" d="M441.835,594.87a.82.82,0,0,1-.818-.83l.131-9.185a.818.818,0,0,1,1.635.024l-.13,9.185a.818.818,0,0,1-.818.806" transform="translate(-151.976 -201.265)" fill="#fff"/>
        <path id="Trazado_1067537" data-name="Trazado 1067537" d="M453.3,593.92a.818.818,0,0,1-.818-.8l-.179-8.313a.818.818,0,0,1,1.636-.035l.179,8.313a.819.819,0,0,1-.8.835H453.3" transform="translate(-155.865 -201.239)" fill="#fff"/>
        <path id="Trazado_1067538" data-name="Trazado 1067538" d="M137.857,376.735l56.254-24.028,22.453,13.348L352.444,489.982l-43.693,48.7s-110.778-93.171-147.68-125.817c-13.9-12.3-20.878-24.71-23.214-36.128" transform="translate(-47.506 -121.544)" fill="#eac346"/>
        <rect id="Rectángulo_424855" data-name="Rectángulo 424855" width="132.859" height="132.859" transform="translate(13.746 287.153)" fill="#7673c0"/>
        <path id="Trazado_1067539" data-name="Trazado 1067539" d="M275.87,601.4s28.408,17.076,32.4,24.644-60.281,1.4-60.281,1.4l-1.005-23.556Z" transform="translate(-85.111 -207.243)" fill="#45334d"/>
        <path id="Trazado_1067540" data-name="Trazado 1067540" d="M290.008,638.053c-3.847,0-8.567-.091-14.373-.307-14.1-.526-27.846-1.568-27.983-1.578a.818.818,0,1,1,.125-1.63c21.059,1.6,55.557,3.1,58.48.3a.818.818,0,1,1,1.133,1.18c-.639.613-2.124,2.036-17.382,2.036" transform="translate(-85.081 -218.663)" fill="#fff"/>
        <path id="Trazado_1067541" data-name="Trazado 1067541" d="M285.557,610.477a.819.819,0,0,1-.656-1.306l5.478-7.375a.818.818,0,1,1,1.313.975l-5.478,7.375a.815.815,0,0,1-.657.33" transform="translate(-98.122 -207.267)" fill="#fff"/>
        <path id="Trazado_1067542" data-name="Trazado 1067542" d="M295.756,616.369a.818.818,0,0,1-.673-1.281l4.716-6.848a.818.818,0,1,1,1.347.927l-4.716,6.848a.815.815,0,0,1-.674.354" transform="translate(-101.637 -209.479)" fill="#fff"/>
        <path id="Trazado_1067543" data-name="Trazado 1067543" d="M83.7,360.562c2.8-14.435,6.363-27.748,6.363-27.748l80.326-5.09,4.845,16.373c2.438.54,15.684,1.939,29.459,5.1.207.047.419.1.636.151a42.26,42.26,0,0,1,31.953,38.988c.155,3.081.314,6.025.471,8.586,1.148,18.712,3.074,114.007,3.074,114.007l-66.489,1.324-4.947-112.275-63.528.124C87.523,402.25,80.908,375,83.7,360.562" transform="translate(-28.633 -112.935)" fill="#eac346"/>
        <path id="Trazado_1067544" data-name="Trazado 1067544" d="M321.628,546.069a.818.818,0,0,1-.817-.8c-.019-.952-1.938-95.492-3.072-113.973-.06-.981-.12-2.019-.182-3.1a.818.818,0,0,1,1.633-.092c.06,1.078.121,2.113.181,3.092,1.135,18.514,3.056,113.087,3.075,114.04a.818.818,0,0,1-.8.834h-.017" transform="translate(-109.431 -147.26)" fill="#45334d"/>
        <path id="Trazado_1067545" data-name="Trazado 1067545" d="M214.344,431.7a.818.818,0,0,1-.569-1.405l13.061-12.657a.818.818,0,1,1,1.138,1.174l-13.062,12.657a.814.814,0,0,1-.569.231" transform="translate(-73.582 -143.839)" fill="#45334d"/>
        <path id="Trazado_1067546" data-name="Trazado 1067546" d="M214.99,210.01,182.2,208.446c-4.752-5.242-18.643-27.965-46.462-26.833l-38.526,1.246c-32.821-.046-37.836,5.72-58.372,38.764-15.721,25.3-34.429,55.091-21.929,75.612,18.294,30.03,70.524,2,70.524,2l85.122-1.023-2.055-10.621c4.694,11.831,23.643,12.019,30.671,10.666,22.351-4.3,13.813-88.248,13.813-88.248" transform="translate(-4.42 -62.57)" fill="#45334d"/>
        <path id="Trazado_1067547" data-name="Trazado 1067547" d="M215.3,351.76a.876.876,0,0,1-.136-.011l-15.132-2.538a.818.818,0,1,1,.27-1.613l15.132,2.538a.818.818,0,0,1-.134,1.624" transform="translate(-68.698 -119.78)" fill="#fff"/>
        <path id="Trazado_1067548" data-name="Trazado 1067548" d="M55.537,184.485a.979.979,0,0,1,1.362,1.406.979.979,0,1,1-1.362-1.406" transform="translate(-19.034 -63.484)" fill="#45334d"/>
        <path id="Trazado_1067549" data-name="Trazado 1067549" d="M13.177,146.762a.96.96,0,0,1,.726-.129,1.018,1.018,0,0,1,.339.146.984.984,0,0,1,.277.267.969.969,0,0,1-.254,1.344.982.982,0,0,1-1.365-.271,1.008,1.008,0,0,1-.153-.36.92.92,0,0,1,.005-.381.953.953,0,0,1,.426-.615" transform="translate(-4.386 -50.523)" fill="#45334d"/>
        <path id="Trazado_1067550" data-name="Trazado 1067550" d="M48.954,106.639a1,1,0,0,1,1.279.521.971.971,0,1,1-1.789.756.953.953,0,0,1,.51-1.277" transform="translate(-16.666 -36.724)" fill="#45334d"/>
        <path id="Trazado_1067551" data-name="Trazado 1067551" d="M.76,116.552a.979.979,0,0,1,.425,1.91.979.979,0,0,1-.425-1.91" transform="translate(0 -40.158)" fill="#45334d"/>
        <path id="Trazado_1067552" data-name="Trazado 1067552" d="M96.093,94.023a.982.982,0,0,1,1,.946,1,1,0,0,1-.945,1.01.954.954,0,0,1-1-.946.967.967,0,0,1,.943-1.011" transform="translate(-32.789 -32.401)" fill="#45334d"/>
        <path id="Trazado_1067553" data-name="Trazado 1067553" d="M34.336,144.284a1.88,1.88,0,0,1,1.347-.441,1.928,1.928,0,0,1,1.269.589,1.848,1.848,0,0,1,.483,1.315,1.876,1.876,0,0,1-.545,1.307,1.82,1.82,0,0,1-1.336.534,1.92,1.92,0,0,1-1.336-.631,1.859,1.859,0,0,1-.52-1.387,1.8,1.8,0,0,1,.637-1.286" transform="translate(-11.611 -49.567)" fill="#45334d"/>
        <path id="Trazado_1067554" data-name="Trazado 1067554" d="M37,95.258a1.935,1.935,0,0,1,1.42.141,1.819,1.819,0,0,1,.916,1.057,1.932,1.932,0,0,1-.081,1.393,1.91,1.91,0,0,1-1.039.974,1.791,1.791,0,0,1-1.429-.057,1.85,1.85,0,0,1-.977-1.115,1.971,1.971,0,0,1,.091-1.478,1.769,1.769,0,0,1,1.1-.914" transform="translate(-12.306 -32.8)" fill="#45334d"/>
        <path id="Trazado_1067555" data-name="Trazado 1067555" d="M469.525,405a.979.979,0,0,1,1.247-1.509A.979.979,0,1,1,469.525,405" transform="translate(-161.683 -138.971)" fill="#45334d"/>
        <path id="Trazado_1067556" data-name="Trazado 1067556" d="M436.706,451.254a.955.955,0,0,1-.208-.707,1.007,1.007,0,0,1,.107-.352.964.964,0,0,1,1.6-.2.993.993,0,0,1-.46,1.578.918.918,0,0,1-.379.037.954.954,0,0,1-.659-.355" transform="translate(-150.417 -154.953)" fill="#45334d"/>
        <path id="Trazado_1067557" data-name="Trazado 1067557" d="M392.881,420.123a1,1,0,0,1,.377-1.328.971.971,0,1,1,.949,1.694.952.952,0,0,1-1.326-.366" transform="translate(-135.348 -144.275)" fill="#45334d"/>
        <path id="Trazado_1067558" data-name="Trazado 1067558" d="M408.049,466.935a.979.979,0,0,1,1.852-.634.979.979,0,0,1-1.852.634" transform="translate(-140.599 -160.464)" fill="#45334d"/>
        <path id="Trazado_1067559" data-name="Trazado 1067559" d="M375.143,374.669a.982.982,0,0,1,.83-1.1,1,1,0,0,1,1.108.828.954.954,0,0,1-.83,1.094.968.968,0,0,1-1.108-.826" transform="translate(-129.273 -128.732)" fill="#45334d"/>
        <path id="Trazado_1067560" data-name="Trazado 1067560" d="M431.854,429.509a1.88,1.88,0,0,1-.587-1.291,1.923,1.923,0,0,1,.446-1.326,1.846,1.846,0,0,1,1.253-.625,1.876,1.876,0,0,1,1.36.4,1.822,1.822,0,0,1,.678,1.269,1.916,1.916,0,0,1-.48,1.4,1.852,1.852,0,0,1-1.321.67,1.8,1.8,0,0,1-1.348-.491" transform="translate(-148.616 -146.89)" fill="#45334d"/>
        <path id="Trazado_1067561" data-name="Trazado 1067561" d="M382.837,432.281a1.935,1.935,0,0,1-.016-1.427,1.818,1.818,0,0,1,.948-1.028,1.934,1.934,0,0,1,1.394-.073,1.91,1.91,0,0,1,1.083.925,1.789,1.789,0,0,1,.1,1.427,1.852,1.852,0,0,1-1,1.093,1.971,1.971,0,0,1-1.479.073,1.766,1.766,0,0,1-1.03-.99" transform="translate(-131.877 -148.061)" fill="#45334d"/>
        <path id="Trazado_1067562" data-name="Trazado 1067562" d="M405.061,287.625a6.091,6.091,0,1,0,6.091-6.091,6.091,6.091,0,0,0-6.091,6.091" transform="translate(-139.586 -97.018)" fill="#eac346"/>
        <path id="Trazado_1067563" data-name="Trazado 1067563" d="M523.968,482.088A6.091,6.091,0,1,0,530.059,476a6.091,6.091,0,0,0-6.091,6.091" transform="translate(-180.561 -164.03)" fill="#ede56d"/>
        <path id="Trazado_1067564" data-name="Trazado 1067564" d="M112.543,39.9a6.091,6.091,0,1,0,6.091-6.091,6.091,6.091,0,0,0-6.091,6.091" transform="translate(-38.783 -11.649)" fill="#7673c0"/>
        <path id="Trazado_1067565" data-name="Trazado 1067565" d="M552.463,348.054h-54.5a5.732,5.732,0,0,1-5.732-5.731V305.267a5.732,5.732,0,0,1,5.732-5.731h54.5a5.732,5.732,0,0,1,5.732,5.731v37.055a5.732,5.732,0,0,1-5.732,5.731" transform="translate(-169.626 -103.221)" fill="#faf5fa"/>
        <path id="Trazado_1067566" data-name="Trazado 1067566" d="M552.033,348.442h-54.5a6.557,6.557,0,0,1-6.549-6.549V304.838a6.557,6.557,0,0,1,6.549-6.549h54.5a6.557,6.557,0,0,1,6.55,6.549v37.054a6.557,6.557,0,0,1-6.55,6.549m-54.5-48.518a4.919,4.919,0,0,0-4.913,4.914v37.054a4.919,4.919,0,0,0,4.913,4.914h54.5a4.919,4.919,0,0,0,4.914-4.914V304.838a4.92,4.92,0,0,0-4.914-4.914Z" transform="translate(-169.196 -102.791)" fill="#45334d"/>
        <path id="Trazado_1067567" data-name="Trazado 1067567" d="M515.158,342.62a.815.815,0,0,1-.578-.24l-7.472-7.472a.818.818,0,0,1,0-1.157l7.924-7.924a.818.818,0,0,1,1.157,1.156l-7.347,7.346,6.894,6.894a.818.818,0,0,1-.578,1.4" transform="translate(-174.669 -112.199)" fill="#45334d"/>
        <path id="Trazado_1067568" data-name="Trazado 1067568" d="M565.123,342.62a.818.818,0,0,1-.578-1.4l7.346-7.346L565,326.983a.818.818,0,0,1,1.157-1.156l7.472,7.472a.816.816,0,0,1,0,1.156L565.7,342.38a.814.814,0,0,1-.578.24" transform="translate(-194.462 -112.199)" fill="#45334d"/>
        <path id="Trazado_1067569" data-name="Trazado 1067569" d="M534.1,343a.818.818,0,0,1-.751-1.14l10.944-25.573a.818.818,0,1,1,1.5.644l-10.945,25.574a.819.819,0,0,1-.752.5" transform="translate(-183.771 -108.823)" fill="#45334d"/>
        <path id="Trazado_1067570" data-name="Trazado 1067570" d="M121.936,110.991a23.872,23.872,0,1,0,25.933-21.614,23.871,23.871,0,0,0-25.933,21.614" transform="translate(-41.985 -30.765)" fill="#45334d"/>
        <path id="Trazado_1067571" data-name="Trazado 1067571" d="M146.155,138.861c12.3-3.467,9.922-17.08,9.922-17.08s4.37-4.835.533-18.543l7.629-5.033s10.021,1.363,11.8,8.13c.517,1.962,2.3,7.384,2.518,8.1,0,0,4.027-.615,5.038,1.791,1.136,2.7-2.5,6.678-2.5,6.678l.259,1.34c1.71,7.667,1.323,14.77-8.08,17.731l-.638,14.309-27.45,1.636Z" transform="translate(-50.034 -33.841)" fill="#ffd5ae"/>
        <path id="Trazado_1067572" data-name="Trazado 1067572" d="M182.122,118.371a.816.816,0,0,1-.718-1.2c.691-1.277,2.974-3.279,6.65-1.724a.818.818,0,1,1-.636,1.506c-3.15-1.331-4.442.76-4.579,1a.82.82,0,0,1-.716.419" transform="translate(-62.479 -39.587)" fill="#45334d"/>
        <path id="Trazado_1067573" data-name="Trazado 1067573" d="M186.938,123.522c-.109-.425-.244-.851-.311-1.286a.693.693,0,0,1,.686-.892.5.5,0,0,1,.581.247,2.435,2.435,0,0,1,.127.238c.161.407.258.844.378,1.266a1.494,1.494,0,0,1,.02,1.27.662.662,0,0,1-.864.252c-.44-.256-.5-.634-.618-1.1" transform="translate(-64.302 -41.811)" fill="#45334d"/>
        <path id="Trazado_1067574" data-name="Trazado 1067574" d="M169.527,93.147a9.617,9.617,0,1,0,9.617-9.617,9.617,9.617,0,0,0-9.617,9.617" transform="translate(-58.42 -28.785)" fill="#45334d"/>
        <path id="Trazado_1067575" data-name="Trazado 1067575" d="M154.977,102.5a7.334,7.334,0,1,0,7.333-7.334,7.334,7.334,0,0,0-7.333,7.334" transform="translate(-53.406 -32.794)" fill="#45334d"/>
        <path id="Trazado_1067576" data-name="Trazado 1067576" d="M152.576,84.025a8.42,8.42,0,1,0,8.42-8.42,8.42,8.42,0,0,0-8.42,8.42" transform="translate(-52.578 -26.054)" fill="#45334d"/>
        <path id="Trazado_1067577" data-name="Trazado 1067577" d="M174.4,175.272l-5.5-9.8-7.405,13.946-19.32-16.532L133.9,176.419l18.731,23.331,9.276-15.427,12.8,12.612Z" transform="translate(-46.141 -56.131)" fill="#ede56d" fill-rule="evenodd"/>
        <path id="Trazado_1067578" data-name="Trazado 1067578" d="M163.214,135.246c-1.658,1.678-4.828,1.467-7.08-.472s-2.733-4.872-1.074-6.55,4.828-1.467,7.08.472,2.733,4.872,1.074,6.55" transform="translate(-53.094 -43.796)" fill="#ffd5ae"/>
        <path id="Trazado_1067579" data-name="Trazado 1067579" d="M163.436,134.931a.816.816,0,0,1-.792-.62c-.923-3.7-5.293-3.352-5.481-3.336a.818.818,0,0,1-.153-1.629c2.058-.2,6.209.507,7.22,4.569a.818.818,0,0,1-.794,1.015" transform="translate(-53.851 -44.563)" fill="#45334d"/>
        <path id="Trazado_1067580" data-name="Trazado 1067580" d="M161.73,118.281s3.229,19.635,4.556,28.756a4.238,4.238,0,0,0,4.635,3.607c2.471-.259,5.7-.592,8.668-.878,11.188-1.082,15.584-4.275,15-10.052s-7.787-14.222-7.787-14.222a16.293,16.293,0,0,0-8.772.488,70.2,70.2,0,0,0-6.449,3.247l-5.56-23.512Z" transform="translate(-55.733 -36.429)" fill="#45334d"/>
        <path id="Trazado_1067581" data-name="Trazado 1067581" d="M193.685,140.962a4.434,4.434,0,0,1-2.234-.559,4.236,4.236,0,0,1-1.912-2.435.818.818,0,0,1,1.583-.41,2.611,2.611,0,0,0,1.158,1.435,3.833,3.833,0,0,0,2.969.083.817.817,0,1,1,.459,1.569,7.2,7.2,0,0,1-2.023.317" transform="translate(-65.307 -47.193)" fill="#ffd5ae"/>
        <path id="Trazado_1067582" data-name="Trazado 1067582" d="M175.982,193.4a.817.817,0,0,1-.814-.75l-.409-4.906a.818.818,0,1,1,1.63-.136l.409,4.906a.818.818,0,0,1-.746.883c-.024,0-.047,0-.069,0" transform="translate(-60.222 -64.393)" fill="#45334d"/>
        <path id="Trazado_1067583" data-name="Trazado 1067583" d="M93.08,278.058a.818.818,0,0,1-.817-.818V234.1a.818.818,0,0,1,1.635,0V277.24a.818.818,0,0,1-.818.818" transform="translate(-31.794 -80.389)" fill="#fff"/>
        <path id="Trazado_1067584" data-name="Trazado 1067584" d="M239.476,278.058a.818.818,0,0,1-.818-.818V234.1a.818.818,0,0,1,1.636,0V277.24a.818.818,0,0,1-.818.818" transform="translate(-82.242 -80.389)" fill="#fff"/>
        <path id="Trazado_1067585" data-name="Trazado 1067585" d="M265.679,258.879a.832.832,0,0,1-.815-.894l3.377-35.916a.818.818,0,0,1,1.629.153l-3.378,35.916a.818.818,0,0,1-.813.741" transform="translate(-91.272 -76.271)" fill="#fff"/>
        <path id="Trazado_1067586" data-name="Trazado 1067586" d="M158.3,273.462c-5.631-1.1-12.177,1.188-14.212,3.173s-13.2,10.914-13.2,10.914l-9.415,3.259,6.842,26.841,12.519-11.8c5.155.034,9.219-5.1,9.219-5.1s7.34,7.336,10.066,5.429.818-5.429.818-5.429,4.088,5.974,7.47,2c2.724-3.2-2.787-8.918-5.031-11.018,2.608,2.292,10.184,8.512,12.271,5.412,2.534-3.764-9.627-10.943-9.627-10.943s14.453,5.62,15.465,1.35-17.549-12.993-23.18-14.09" transform="translate(-41.858 -94.138)" fill="#ffd5ae"/>
        <path id="Trazado_1067587" data-name="Trazado 1067587" d="M98.531,334.6a.818.818,0,0,1-.789-.6L87.3,295.383,27.56,309.706a.818.818,0,1,1-.381-1.59L87.69,293.607a.818.818,0,0,1,.98.582l10.65,39.378a.817.817,0,0,1-.576,1,.8.8,0,0,1-.214.029" transform="translate(-9.15 -101.17)" fill="#fff"/>
        <path id="Trazado_1067588" data-name="Trazado 1067588" d="M293.919,188.408a.818.818,0,0,1-.816-.775c-.189-3.645-1.334-6.4-3.4-8.191a10.614,10.614,0,0,0-7.175-2.3.817.817,0,0,1-.648-1.4c3.769-3.71,6.642-10.313,6.12-12.725-.1-.457-.279-.522-.346-.547-1.386-.508-6.337,2.932-10.127,6.41a.818.818,0,0,1-1.106-1.2c1.438-1.32,8.761-7.848,11.8-6.741a2.191,2.191,0,0,1,1.382,1.737c.613,2.829-1.96,8.854-5.322,12.877a11.669,11.669,0,0,1,6.5,2.658c2.418,2.093,3.752,5.237,3.965,9.343a.818.818,0,0,1-.774.859h-.043" transform="translate(-95.164 -55.415)" fill="#45334d"/>
        <path id="Trazado_1067589" data-name="Trazado 1067589" d="M294.33,180.63a.818.818,0,0,1-.406-1.528c3.059-1.743,5-8.59,5.493-11.08a.818.818,0,0,1,1.6.315c-.077.4-1.953,9.715-6.287,12.186a.817.817,0,0,1-.4.107" transform="translate(-101.145 -57.673)" fill="#45334d"/>
        <path id="Trazado_1067590" data-name="Trazado 1067590" d="M300.469,187.159a.818.818,0,0,1-.015-1.635c3.134-.062,4.816-7.4,5.159-9.968a.818.818,0,1,1,1.621.216c-.154,1.155-1.652,11.287-6.749,11.387Z" transform="translate(-103.261 -60.252)" fill="#45334d"/>
        <path id="Trazado_1067591" data-name="Trazado 1067591" d="M304.986,194.356a4.1,4.1,0,0,1-3.3-1.936.818.818,0,0,1,1.311-.979,2.456,2.456,0,0,0,2.156,1.272c1.752-.168,3.651-2.843,4.5-4.6a32.083,32.083,0,0,0,1.966-6.429.818.818,0,0,1,1.607.307,33.129,33.129,0,0,1-2.1,6.834c-.257.532-2.6,5.207-5.815,5.516-.1.01-.208.015-.319.015" transform="translate(-103.905 -62.38)" fill="#45334d"/>
        <path id="Trazado_1067592" data-name="Trazado 1067592" d="M175.579,310.659a.814.814,0,0,1-.539-.2L160.761,297.93a.818.818,0,0,1,1.079-1.23l14.279,12.526a.818.818,0,0,1-.54,1.433" transform="translate(-55.303 -102.174)" fill="#45334d"/>
        <path id="Trazado_1067593" data-name="Trazado 1067593" d="M184.779,302.023a.817.817,0,0,1-.672-.351C181.4,297.78,169.641,288.7,169.522,288.6a.818.818,0,1,1,1-1.3c.492.379,12.08,9.332,14.93,13.429a.818.818,0,0,1-.671,1.285" transform="translate(-58.308 -98.949)" fill="#45334d"/>
        <path id="Trazado_1067594" data-name="Trazado 1067594" d="M189.364,291.347a.817.817,0,0,1-.543-.206l-11.857-10.531a.818.818,0,0,1,1.086-1.223l11.857,10.531a.818.818,0,0,1-.543,1.429" transform="translate(-60.888 -96.207)" fill="#45334d"/>
        <path id="Trazado_1067595" data-name="Trazado 1067595" d="M271.23,258.962H180.676a6.226,6.226,0,0,0-6.144,5.221L165.338,320.4H131.031a4.525,4.525,0,0,0,0,9.05H261.738a6.227,6.227,0,0,0,6.145-5.222l9.491-58.037a6.226,6.226,0,0,0-6.145-7.231" transform="translate(-43.594 -89.239)" fill="#faf5fa"/>
        <path id="Trazado_1067596" data-name="Trazado 1067596" d="M261.308,329.839H130.6a5.342,5.342,0,1,1,0-10.685h33.612l9.082-55.532a7.018,7.018,0,0,1,6.951-5.907H270.8a7.044,7.044,0,0,1,6.952,8.181l-9.491,58.037a7.017,7.017,0,0,1-6.952,5.907M130.6,320.79a3.707,3.707,0,1,0,0,7.415H261.308a5.388,5.388,0,0,0,5.338-4.536l9.491-58.037a5.408,5.408,0,0,0-5.338-6.281H180.246a5.388,5.388,0,0,0-5.337,4.535L165.715,320.1a.818.818,0,0,1-.807.686Z" transform="translate(-43.164 -88.81)" fill="#45334d"/>
        <path id="Trazado_1067597" data-name="Trazado 1067597" d="M270.371,316.759a8.478,8.478,0,1,1,8.478-8.478,8.487,8.487,0,0,1-8.478,8.478m0-15.32a6.842,6.842,0,1,0,6.843,6.842,6.85,6.85,0,0,0-6.843-6.842" transform="translate(-90.249 -103.313)" fill="#45334d"/>
        <path id="Trazado_1067598" data-name="Trazado 1067598" d="M288.5,353.094H185.325a.818.818,0,1,1,0-1.635H288.5a.818.818,0,0,1,0,1.635" transform="translate(-63.582 -121.114)" fill="#45334d"/>
        <path id="Trazado_1067599" data-name="Trazado 1067599" d="M162.486,313.344a.814.814,0,0,1-.594-.257l-4.109-4.355a.818.818,0,1,1,1.19-1.123l4.109,4.356a.818.818,0,0,1-.594,1.379" transform="translate(-54.295 -105.915)" fill="#45334d"/>
      </g>
    </g>
  </g>
</svg>
