<svg xmlns="http://www.w3.org/2000/svg" width="85" height="78" viewBox="0 0 85 78">
  <g id="Grupo_1230596" data-name="Grupo 1230596" transform="translate(-180 -4524)">
    <g id="Grupo_1230595" data-name="Grupo 1230595">
      <g id="Grupo_1230198" data-name="Grupo 1230198" transform="translate(0 3311.738)">
        <rect id="Rectángulo_423328" data-name="Rectángulo 423328" width="85" height="78" rx="15" transform="translate(180 1212.262)" fill="#eddbfd"/>
      </g>
      <g id="mysql_18968841" transform="translate(198.362 4538)">
        <path id="Trazado_1068578" data-name="Trazado 1068578" d="M9.289,2.5A2.289,2.289,0,0,0,7,4.789V20.815a4.093,4.093,0,0,0,1.49,3.05,8.582,8.582,0,0,0,2.677,1.522,21.386,21.386,0,0,0,7.279,1.152,21.387,21.387,0,0,0,7.279-1.152A8.584,8.584,0,0,0,28.4,23.865a4.093,4.093,0,0,0,1.49-3.05V4.789A2.289,2.289,0,0,0,27.6,2.5Z" transform="translate(6.447 1.934)" fill="#f5eefd"/>
        <path id="Trazado_1068579" data-name="Trazado 1068579" d="M18.579,24.579H14V20h4.579Z" transform="translate(15.472 24.498)" fill="#f5eefd" fill-rule="evenodd"/>
        <path id="Trazado_1068580" data-name="Trazado 1068580" d="M9.289,2A2.289,2.289,0,0,0,7,4.289v9.157A4.094,4.094,0,0,0,8.49,16.5a8.583,8.583,0,0,0,2.677,1.522,21.385,21.385,0,0,0,7.279,1.152,21.386,21.386,0,0,0,7.279-1.152A8.585,8.585,0,0,0,28.4,16.5a4.094,4.094,0,0,0,1.49-3.05V4.289A2.289,2.289,0,0,0,27.6,2Z" transform="translate(6.447 1.289)" fill="#f5eefd"/>
        <path id="Trazado_1068582" data-name="Trazado 1068582" d="M18.447,1a21.385,21.385,0,0,0-7.279,1.152A8.583,8.583,0,0,0,8.49,3.674,4.094,4.094,0,0,0,7,6.723a4.094,4.094,0,0,0,1.49,3.05A8.583,8.583,0,0,0,11.168,11.3a21.385,21.385,0,0,0,7.279,1.152A21.386,21.386,0,0,0,25.726,11.3,8.585,8.585,0,0,0,28.4,9.773a4.094,4.094,0,0,0,1.49-3.05,4.094,4.094,0,0,0-1.49-3.05,8.585,8.585,0,0,0-2.677-1.522A21.386,21.386,0,0,0,18.447,1Z" transform="translate(6.447 0)" fill="#f5eefd"/>
        <g id="Grupo_1230594" data-name="Grupo 1230594" transform="translate(2 1)">
          <path id="Trazado_1068583" data-name="Trazado 1068583" d="M9,16.289A2.289,2.289,0,0,1,11.289,14h9.157a2.289,2.289,0,0,1,2.289,2.289V30.026a2.289,2.289,0,0,1-2.289,2.289H11.289A2.289,2.289,0,0,1,9,30.026Zm4.579,2.289v9.157h4.579V18.579Z" transform="translate(7.026 15.762)" fill="#9545ed" fill-rule="evenodd"/>
          <path id="Trazado_1068584" data-name="Trazado 1068584" d="M2,16.289A2.289,2.289,0,0,1,4.289,14h9.157v4.579H6.579v2.289h6.868a2.289,2.289,0,0,1,2.289,2.289v6.868a2.289,2.289,0,0,1-2.289,2.289H4.289V27.736h6.868V25.447H4.289A2.289,2.289,0,0,1,2,23.157Z" transform="translate(-2 15.762)" fill="#9545ed" fill-rule="evenodd"/>
          <path id="Trazado_1068585" data-name="Trazado 1068585" d="M18.579,24.579H14V20h4.579Z" transform="translate(13.472 23.498)" fill="#9545ed" fill-rule="evenodd"/>
          <path id="Trazado_1068586" data-name="Trazado 1068586" d="M17,30.026V14h4.579V27.736h4.579v4.579H19.289A2.289,2.289,0,0,1,17,30.026Z" transform="translate(17.34 15.762)" fill="#9545ed" fill-rule="evenodd"/>
          <path id="Trazado_1068587" data-name="Trazado 1068587" d="M11.458,7.168l0,0Zm.66-.445a6.566,6.566,0,0,1,.657-.285,16.9,16.9,0,0,1,5.671-.86,16.9,16.9,0,0,1,5.671.86,6.575,6.575,0,0,1,.657.285,6.575,6.575,0,0,1-.657.285,16.9,16.9,0,0,1-5.671.86,16.9,16.9,0,0,1-5.671-.86A6.566,6.566,0,0,1,12.119,6.723Zm13.317.445,0,0Zm0-.886,0,0Zm-13.97,0,0,0Zm-.294-4.131A21.385,21.385,0,0,1,18.447,1a21.386,21.386,0,0,1,7.279,1.152A8.585,8.585,0,0,1,28.4,3.674a4.094,4.094,0,0,1,1.49,3.05,4.094,4.094,0,0,1-1.49,3.05A8.585,8.585,0,0,1,25.726,11.3a21.386,21.386,0,0,1-7.279,1.152A21.385,21.385,0,0,1,11.168,11.3,8.583,8.583,0,0,1,8.49,9.773,4.094,4.094,0,0,1,7,6.723a4.094,4.094,0,0,1,1.49-3.05,8.583,8.583,0,0,1,2.677-1.522Z" transform="translate(4.447 -1)" fill="#9545ed" fill-rule="evenodd"/>
          <path id="Trazado_1068588" data-name="Trazado 1068588" d="M12.775,7.535a16.9,16.9,0,0,0,5.671.86,16.9,16.9,0,0,0,5.671-.86,4.188,4.188,0,0,0,1.248-.661.74.74,0,0,0,.066-.064.752.752,0,0,0-.117.441h4.579A4.094,4.094,0,0,1,28.4,10.3a8.584,8.584,0,0,1-2.677,1.522,21.386,21.386,0,0,1-7.279,1.152,21.385,21.385,0,0,1-7.279-1.152A8.582,8.582,0,0,1,8.49,10.3,4.093,4.093,0,0,1,7,7.251h4.579a.752.752,0,0,0-.117-.441.736.736,0,0,0,.066.064,4.186,4.186,0,0,0,1.248.661Zm-1.317-.73,0,0Zm13.977,0,0,0Z" transform="translate(4.447 6.486)" fill="#9545ed" fill-rule="evenodd"/>
          <path id="Trazado_1068589" data-name="Trazado 1068589" d="M11.579,19.192V3.5H7V19.526a4.093,4.093,0,0,0,1.49,3.05A8.582,8.582,0,0,0,11.168,24.1a21.386,21.386,0,0,0,7.279,1.152A21.387,21.387,0,0,0,25.726,24.1,8.584,8.584,0,0,0,28.4,22.575a4.093,4.093,0,0,0,1.49-3.05V3.5H25.315V19.192a4.489,4.489,0,0,1-1.2.618,16.9,16.9,0,0,1-5.671.86,16.9,16.9,0,0,1-5.671-.86A4.489,4.489,0,0,1,11.579,19.192Zm13.857-.111,0,0Zm-13.974,0,0,0Z" transform="translate(4.447 2.223)" fill="#9545ed" fill-rule="evenodd"/>
        </g>
      </g>
    </g>
  </g>
</svg>
