<svg xmlns="http://www.w3.org/2000/svg" xmlns:xlink="http://www.w3.org/1999/xlink" width="259.896" height="314.241" viewBox="0 0 259.896 314.241">
  <defs>
    <linearGradient id="linear-gradient" x1="0.5" x2="0.5" y2="1" gradientUnits="objectBoundingBox">
      <stop offset="0" stop-color="#903cdf"/>
      <stop offset="1" stop-color="#481e70"/>
    </linearGradient>
    <clipPath id="clip-path">
      <rect id="Rectángulo_425455" data-name="Rectángulo 425455" width="259.895" height="303.04" fill="none"/>
    </clipPath>
    <clipPath id="clip-path-3">
      <rect id="Rectángulo_425410" data-name="Rectángulo 425410" width="84.198" height="84.198" fill="none"/>
    </clipPath>
    <clipPath id="clip-path-4">
      <rect id="Rectángulo_425412" data-name="Rectángulo 425412" width="72.703" height="72.703" fill="none"/>
    </clipPath>
    <clipPath id="clip-path-5">
      <rect id="Rectángulo_425413" data-name="Rectángulo 425413" width="44.105" height="27.876" fill="none"/>
    </clipPath>
    <clipPath id="clip-path-6">
      <rect id="Rectángulo_425414" data-name="Rectángulo 425414" width="26.39" height="34.755" fill="none"/>
    </clipPath>
    <clipPath id="clip-path-7">
      <rect id="Rectángulo_425421" data-name="Rectángulo 425421" width="61.58" height="61.581" fill="none"/>
    </clipPath>
    <clipPath id="clip-path-8">
      <rect id="Rectángulo_425423" data-name="Rectángulo 425423" width="53.174" height="53.175" fill="none"/>
    </clipPath>
    <clipPath id="clip-path-9">
      <rect id="Rectángulo_425424" data-name="Rectángulo 425424" width="119.162" height="119.165" fill="none"/>
    </clipPath>
    <clipPath id="clip-path-10">
      <rect id="Rectángulo_425425" data-name="Rectángulo 425425" width="35.605" height="10.074" fill="none"/>
    </clipPath>
    <clipPath id="clip-path-11">
      <rect id="Rectángulo_425427" data-name="Rectángulo 425427" width="16.861" height="13.066" fill="none"/>
    </clipPath>
    <clipPath id="clip-path-12">
      <rect id="Rectángulo_425428" data-name="Rectángulo 425428" width="9.023" height="11.063" fill="none"/>
    </clipPath>
    <clipPath id="clip-path-13">
      <rect id="Rectángulo_425430" data-name="Rectángulo 425430" width="16.39" height="13.066" fill="none"/>
    </clipPath>
    <clipPath id="clip-path-14">
      <rect id="Rectángulo_425431" data-name="Rectángulo 425431" width="8.758" height="10.797" fill="none"/>
    </clipPath>
    <clipPath id="clip-path-15">
      <rect id="Rectángulo_425432" data-name="Rectángulo 425432" width="108.064" height="108.061" fill="none"/>
    </clipPath>
    <clipPath id="clip-path-16">
      <rect id="Rectángulo_425433" data-name="Rectángulo 425433" width="32.289" height="9.14" fill="none"/>
    </clipPath>
    <clipPath id="clip-path-17">
      <rect id="Rectángulo_425435" data-name="Rectángulo 425435" width="15.291" height="11.849" fill="none"/>
    </clipPath>
    <clipPath id="clip-path-18">
      <rect id="Rectángulo_425436" data-name="Rectángulo 425436" width="8.181" height="10.034" fill="none"/>
    </clipPath>
    <clipPath id="clip-path-19">
      <rect id="Rectángulo_425438" data-name="Rectángulo 425438" width="14.863" height="11.849" fill="none"/>
    </clipPath>
    <clipPath id="clip-path-20">
      <rect id="Rectángulo_425439" data-name="Rectángulo 425439" width="7.941" height="9.791" fill="none"/>
    </clipPath>
    <clipPath id="clip-path-21">
      <rect id="Rectángulo_425440" data-name="Rectángulo 425440" width="25.799" height="43.925" fill="none"/>
    </clipPath>
    <clipPath id="clip-path-22">
      <rect id="Rectángulo_425441" data-name="Rectángulo 425441" width="22.23" height="40.079" fill="none"/>
    </clipPath>
    <clipPath id="clip-path-23">
      <rect id="Rectángulo_425442" data-name="Rectángulo 425442" width="33.353" height="31.595" fill="none"/>
    </clipPath>
    <clipPath id="clip-path-24">
      <rect id="Rectángulo_425443" data-name="Rectángulo 425443" width="96.607" height="96.606" fill="none"/>
    </clipPath>
    <clipPath id="clip-path-25">
      <rect id="Rectángulo_425444" data-name="Rectángulo 425444" width="28.862" height="22.797" fill="none"/>
    </clipPath>
    <clipPath id="clip-path-26">
      <rect id="Rectángulo_425447" data-name="Rectángulo 425447" width="13.668" height="10.59" fill="none"/>
    </clipPath>
    <clipPath id="clip-path-27">
      <rect id="Rectángulo_425448" data-name="Rectángulo 425448" width="7.315" height="8.966" fill="none"/>
    </clipPath>
    <clipPath id="clip-path-28">
      <rect id="Rectángulo_425451" data-name="Rectángulo 425451" width="13.289" height="10.59" fill="none"/>
    </clipPath>
    <clipPath id="clip-path-29">
      <rect id="Rectángulo_425452" data-name="Rectángulo 425452" width="7.1" height="8.751" fill="none"/>
    </clipPath>
    <clipPath id="clip-path-30">
      <rect id="Rectángulo_425453" data-name="Rectángulo 425453" width="42.056" height="30.504" fill="none"/>
    </clipPath>
  </defs>
  <g id="Grupo_1230794" data-name="Grupo 1230794" transform="translate(-10635 -2477.225)">
    <rect id="Rectángulo_423677" data-name="Rectángulo 423677" width="155" height="286" rx="13" transform="translate(10702.774 2477.225)" fill="url(#linear-gradient)"/>
    <g id="Grupo_1230793" data-name="Grupo 1230793" transform="translate(10635 2488.426)">
      <g id="Grupo_1230792" data-name="Grupo 1230792" clip-path="url(#clip-path)">
        <g id="Grupo_1230791" data-name="Grupo 1230791">
          <g id="Grupo_1230790" data-name="Grupo 1230790" clip-path="url(#clip-path)">
            <path id="Trazado_1069077" data-name="Trazado 1069077" d="M129.473,90.515A52.762,52.762,0,1,0,76.71,143.279a52.763,52.763,0,0,0,52.763-52.764" transform="translate(-4.145 -6.534)" fill="#292426"/>
            <rect id="Rectángulo_425380" data-name="Rectángulo 425380" width="8.47" height="2.855" transform="translate(44.471 58.329)" fill="#8f9522"/>
            <rect id="Rectángulo_425381" data-name="Rectángulo 425381" width="6.661" height="2.855" transform="translate(53.71 58.329)" fill="#8f9522"/>
            <rect id="Rectángulo_425382" data-name="Rectángulo 425382" width="14.981" height="2.855" transform="translate(61.394 58.329)" fill="#8f9522"/>
            <rect id="Rectángulo_425383" data-name="Rectángulo 425383" width="5.714" height="2.856" transform="translate(44.471 54.384)" fill="#e2371a"/>
            <rect id="Rectángulo_425384" data-name="Rectángulo 425384" width="3.71" height="2.856" transform="translate(53.758 62.851)" fill="#91d1e1"/>
            <rect id="Rectángulo_425385" data-name="Rectángulo 425385" width="38.421" height="2.856" transform="translate(58.661 62.851)" fill="#91d1e1"/>
            <rect id="Rectángulo_425386" data-name="Rectángulo 425386" width="8.606" height="2.856" transform="translate(98.364 62.851)" fill="#91d1e1"/>
            <rect id="Rectángulo_425387" data-name="Rectángulo 425387" width="31.917" height="2.856" transform="translate(61.409 67.373)" fill="#91d1e1"/>
            <rect id="Rectángulo_425388" data-name="Rectángulo 425388" width="7.856" height="2.856" transform="translate(94.351 67.373)" fill="#91d1e1"/>
            <rect id="Rectángulo_425389" data-name="Rectángulo 425389" width="2" height="2.857" transform="translate(53.758 71.896)" fill="#91d1e1"/>
            <rect id="Rectángulo_425390" data-name="Rectángulo 425390" width="46.959" height="2.857" transform="translate(57.296 71.896)" fill="#91d1e1"/>
            <rect id="Rectángulo_425391" data-name="Rectángulo 425391" width="1.604" height="2.857" transform="translate(105.366 71.896)" fill="#91d1e1"/>
            <rect id="Rectángulo_425392" data-name="Rectángulo 425392" width="4.798" height="2.858" transform="translate(44.472 76.42)" fill="#8f9522"/>
            <rect id="Rectángulo_425393" data-name="Rectángulo 425393" width="5.805" height="2.858" transform="translate(50.466 76.42)" fill="#8f9522"/>
            <rect id="Rectángulo_425394" data-name="Rectángulo 425394" width="2.445" height="2.858" transform="translate(57.978 76.42)" fill="#91d1e1"/>
            <path id="Trazado_1069078" data-name="Trazado 1069078" d="M97.918,97.884H75.463v2.84H73.926v-2.84H65.009v2.858H97.918Z" transform="translate(-11.251 -16.941)" fill="#91d1e1"/>
            <rect id="Rectángulo_425395" data-name="Rectángulo 425395" width="2.94" height="2.858" transform="translate(87.007 80.943)" fill="#91d1e1"/>
            <rect id="Rectángulo_425396" data-name="Rectángulo 425396" width="1.507" height="2.857" transform="translate(58.264 85.466)" fill="#91d1e1"/>
            <rect id="Rectángulo_425397" data-name="Rectángulo 425397" width="5.892" height="2.857" transform="translate(60.882 85.466)" fill="#91d1e1"/>
            <rect id="Rectángulo_425398" data-name="Rectángulo 425398" width="29.711" height="2.857" transform="translate(67.627 85.466)" fill="#91d1e1"/>
            <rect id="Rectángulo_425399" data-name="Rectángulo 425399" width="5.885" height="2.857" transform="translate(98.707 85.466)" fill="#91d1e1"/>
            <rect id="Rectángulo_425400" data-name="Rectángulo 425400" width="6.288" height="2.855" transform="translate(58.264 89.989)" fill="#91d1e1"/>
            <rect id="Rectángulo_425401" data-name="Rectángulo 425401" width="26.553" height="2.855" transform="translate(65.665 89.989)" fill="#91d1e1"/>
            <rect id="Rectángulo_425402" data-name="Rectángulo 425402" width="12.192" height="2.855" transform="translate(94.779 89.989)" fill="#91d1e1"/>
            <rect id="Rectángulo_425403" data-name="Rectángulo 425403" width="27.064" height="2.856" transform="translate(69.506 94.512)" fill="#91d1e1"/>
            <rect id="Rectángulo_425404" data-name="Rectángulo 425404" width="9.62" height="2.856" transform="translate(58.264 94.512)" fill="#91d1e1"/>
            <rect id="Rectángulo_425405" data-name="Rectángulo 425405" width="26.19" height="2.857" transform="translate(53.758 99.033)" fill="#91d1e1"/>
            <rect id="Rectángulo_425406" data-name="Rectángulo 425406" width="3.176" height="2.855" transform="translate(44.472 103.558)" fill="#8f9522"/>
            <rect id="Rectángulo_425407" data-name="Rectángulo 425407" width="44.437" height="2.855" transform="translate(48.842 103.558)" fill="#91d1e1"/>
            <rect id="Rectángulo_425408" data-name="Rectángulo 425408" width="5.714" height="2.856" transform="translate(44.471 108.083)" fill="#e2371a"/>
            <g id="Grupo_1230708" data-name="Grupo 1230708" transform="translate(25.122 33.569)" style="mix-blend-mode: soft-light;isolation: isolate">
              <g id="Grupo_1230707" data-name="Grupo 1230707">
                <g id="Grupo_1230706" data-name="Grupo 1230706" clip-path="url(#clip-path-3)">
                  <rect id="Rectángulo_425409" data-name="Rectángulo 425409" width="95.382" height="23.691" transform="matrix(0.707, -0.707, 0.707, 0.707, 0, 67.445)" fill="#fff"/>
                </g>
              </g>
            </g>
            <g id="Grupo_1230711" data-name="Grupo 1230711" transform="translate(44.297 52.282)" style="mix-blend-mode: soft-light;isolation: isolate">
              <g id="Grupo_1230710" data-name="Grupo 1230710">
                <g id="Grupo_1230709" data-name="Grupo 1230709" clip-path="url(#clip-path-4)">
                  <rect id="Rectángulo_425411" data-name="Rectángulo 425411" width="95.381" height="7.437" transform="translate(0 67.445) rotate(-45)" fill="#fff"/>
                </g>
              </g>
            </g>
            <g id="Grupo_1230714" data-name="Grupo 1230714" transform="translate(22.419 235.169)" style="mix-blend-mode: multiply;isolation: isolate">
              <g id="Grupo_1230713" data-name="Grupo 1230713">
                <g id="Grupo_1230712" data-name="Grupo 1230712" clip-path="url(#clip-path-5)">
                  <path id="Trazado_1069079" data-name="Trazado 1069079" d="M71.216,309.17a1.489,1.489,0,0,0-1.488-1.489H68.572a1.3,1.3,0,0,0,.042-.313V285.7a1.314,1.314,0,0,0-1.314-1.313H31.027a1.313,1.313,0,0,0-1.313,1.313v21.666a1.3,1.3,0,0,0,.041.313H28.6a1.489,1.489,0,0,0-1.488,1.489v.792h.355v1.232a1.069,1.069,0,0,0,1.069,1.07H69.791a1.07,1.07,0,0,0,1.07-1.07v-1.232h.355ZM30.644,285.7a.384.384,0,0,1,.383-.383H67.3a.384.384,0,0,1,.384.383v20.572a.384.384,0,0,1-.384.383H31.027a.384.384,0,0,1-.383-.383Z" transform="translate(-27.112 -284.389)" fill="#bababa"/>
                </g>
              </g>
            </g>
            <g id="Grupo_1230717" data-name="Grupo 1230717" transform="translate(202.747 267.416)" style="mix-blend-mode: multiply;isolation: isolate">
              <g id="Grupo_1230716" data-name="Grupo 1230716">
                <g id="Grupo_1230715" data-name="Grupo 1230715" clip-path="url(#clip-path-6)">
                  <path id="Trazado_1069080" data-name="Trazado 1069080" d="M270.115,323.386H246.637a1.455,1.455,0,0,0-1.455,1.457v31.841a1.456,1.456,0,0,0,1.455,1.458h23.477a1.458,1.458,0,0,0,1.457-1.458V324.843a1.457,1.457,0,0,0-1.457-1.457m-11.738,34.456a1.113,1.113,0,1,1,1.113-1.113,1.113,1.113,0,0,1-1.113,1.113m12.163-2.887a.425.425,0,0,1-.425.424H246.637a.425.425,0,0,1-.424-.424V325.54a.425.425,0,0,1,.424-.424h23.477a.425.425,0,0,1,.425.424Z" transform="translate(-245.181 -323.386)" fill="#bababa"/>
                </g>
              </g>
            </g>
            <path id="Trazado_1069081" data-name="Trazado 1069081" d="M132.726,86.161c0-1.869-.1-3.715-.265-5.54l12.672-6.592a73,73,0,0,0-1.906-8.4l-14.269-.45a59.846,59.846,0,0,0-4.822-10l8.539-11.44a74.144,74.144,0,0,0-5.387-6.742l-13.059,5.792a60.278,60.278,0,0,0-8.659-6.915l2.75-14.016a73.584,73.584,0,0,0-7.752-3.74L91.319,29A59.822,59.822,0,0,0,80.5,26.54l-3.62-13.817c-1.429-.083-2.869-.129-4.317-.129s-2.89.046-4.32.129L64.628,26.54A59.867,59.867,0,0,0,53.814,29L44.563,18.116a73.584,73.584,0,0,0-7.752,3.74l2.75,14.016A60.553,60.553,0,0,0,30.9,42.787L17.845,37a73.849,73.849,0,0,0-5.387,6.742L21,55.177a59.933,59.933,0,0,0-4.822,10.006L1.9,65.63A73.654,73.654,0,0,0,0,74.03l12.671,6.591c-.166,1.825-.263,3.671-.263,5.54s.1,3.715.264,5.542L0,98.294a73.48,73.48,0,0,0,1.9,8.4l14.27.448a59.894,59.894,0,0,0,4.822,10l-8.536,11.44a73.579,73.579,0,0,0,5.387,6.743L30.9,129.535a60.38,60.38,0,0,0,8.659,6.915l-2.75,14.016a73.267,73.267,0,0,0,7.752,3.74l9.251-10.882a59.911,59.911,0,0,0,10.813,2.458L68.247,159.6c1.43.082,2.869.129,4.32.129s2.888-.047,4.317-.129L80.5,145.783a59.884,59.884,0,0,0,10.815-2.458l9.249,10.882a73.111,73.111,0,0,0,7.752-3.74l-2.751-14.016a60.288,60.288,0,0,0,8.659-6.915l13.059,5.793a73.952,73.952,0,0,0,5.387-6.743l-8.539-11.44a59.789,59.789,0,0,0,4.822-10l14.27-.449a73.342,73.342,0,0,0,1.9-8.4L132.46,91.7c.167-1.827.265-3.672.265-5.542M72.567,129.506a43.345,43.345,0,1,1,43.345-43.346,43.345,43.345,0,0,1-43.345,43.346" transform="translate(0 -2.18)" fill="#d2cfce"/>
            <path id="Trazado_1069082" data-name="Trazado 1069082" d="M77.621,48.079A43.345,43.345,0,1,1,34.275,91.424,43.345,43.345,0,0,1,77.621,48.079m0-5.073A48.419,48.419,0,1,0,126.04,91.424,48.474,48.474,0,0,0,77.621,43.006" transform="translate(-5.054 -7.443)" fill="#bababa"/>
            <path id="Trazado_1069083" data-name="Trazado 1069083" d="M278.024,222.081a38.59,38.59,0,1,0-38.589,38.591,38.59,38.59,0,0,0,38.589-38.591" transform="translate(-34.761 -31.758)" fill="#292426"/>
            <rect id="Rectángulo_425415" data-name="Rectángulo 425415" width="25.102" height="8.113" transform="translate(190.84 168.655)" fill="#8f9522"/>
            <rect id="Rectángulo_425416" data-name="Rectángulo 425416" width="15.213" height="8.113" transform="translate(177.813 196.483)" fill="#8f9522"/>
            <rect id="Rectángulo_425417" data-name="Rectángulo 425417" width="15.215" height="8.113" transform="translate(213.755 196.483)" fill="#8f9522"/>
            <rect id="Rectángulo_425418" data-name="Rectángulo 425418" width="1.521" height="24.47" transform="translate(202.63 176.768)" fill="#8f9522"/>
            <path id="Trazado_1069084" data-name="Trazado 1069084" d="M260.771,235.219H259.25v-9.89H224.83v9.89h-1.522v-11.41h37.463Z" transform="translate(-38.649 -38.736)" fill="#8f9522"/>
            <rect id="Rectángulo_425419" data-name="Rectángulo 425419" width="8.875" height="8.875" transform="matrix(0.707, -0.707, 0.707, 0.707, 197.115, 185.834)" fill="#8f9522"/>
            <path id="Trazado_1069085" data-name="Trazado 1069085" d="M250.922,242.044a6.276,6.276,0,1,0-6.276,6.275,6.275,6.275,0,0,0,6.276-6.275" transform="translate(-41.256 -40.805)" fill="#8f9522"/>
            <g id="Grupo_1230720" data-name="Grupo 1230720" transform="translate(169.974 153.453)" style="mix-blend-mode: soft-light;isolation: isolate">
              <g id="Grupo_1230719" data-name="Grupo 1230719">
                <g id="Grupo_1230718" data-name="Grupo 1230718" clip-path="url(#clip-path-7)">
                  <rect id="Rectángulo_425420" data-name="Rectángulo 425420" width="69.76" height="17.327" transform="translate(0 49.327) rotate(-44.998)" fill="#fff"/>
                </g>
              </g>
            </g>
            <g id="Grupo_1230723" data-name="Grupo 1230723" transform="translate(183.998 167.139)" style="mix-blend-mode: soft-light;isolation: isolate">
              <g id="Grupo_1230722" data-name="Grupo 1230722">
                <g id="Grupo_1230721" data-name="Grupo 1230721" clip-path="url(#clip-path-8)">
                  <rect id="Rectángulo_425422" data-name="Rectángulo 425422" width="69.761" height="5.44" transform="translate(-0.003 49.325) rotate(-44.994)" fill="#fff"/>
                </g>
              </g>
            </g>
            <path id="Trazado_1069086" data-name="Trazado 1069086" d="M280.4,218.9c0-1.366-.072-2.716-.193-4.051l9.268-4.822a53.55,53.55,0,0,0-1.4-6.142l-10.436-.329a43.682,43.682,0,0,0-3.526-7.315l6.245-8.368a54.344,54.344,0,0,0-3.941-4.933l-9.55,4.237a44.075,44.075,0,0,0-6.333-5.057l2.011-10.251a53.725,53.725,0,0,0-5.669-2.735l-6.765,7.959a43.613,43.613,0,0,0-7.909-1.8l-2.648-10.108c-1.044-.06-2.1-.093-3.158-.093s-2.113.033-3.159.093L230.6,175.293a43.648,43.648,0,0,0-7.91,1.8l-6.765-7.959a53.814,53.814,0,0,0-5.67,2.735l2.013,10.251a44.094,44.094,0,0,0-6.333,5.057l-9.552-4.236a53.922,53.922,0,0,0-3.94,4.931l6.245,8.368a43.7,43.7,0,0,0-3.527,7.317l-10.437.327a53.958,53.958,0,0,0-1.393,6.144l9.268,4.82c-.122,1.335-.193,2.685-.193,4.051s.071,2.718.193,4.054l-9.268,4.821a53.875,53.875,0,0,0,1.393,6.142l10.437.328a43.739,43.739,0,0,0,3.527,7.317l-6.244,8.368a54.016,54.016,0,0,0,3.94,4.933l9.551-4.238a44.093,44.093,0,0,0,6.333,5.057l-2.013,10.251a53.5,53.5,0,0,0,5.67,2.735l6.766-7.957a43.974,43.974,0,0,0,7.91,1.8l2.647,10.106c1.046.06,2.1.094,3.159.094s2.114-.034,3.158-.094l2.647-10.106a43.816,43.816,0,0,0,7.91-1.8l6.765,7.957a53.432,53.432,0,0,0,5.671-2.735l-2.013-10.251a44.144,44.144,0,0,0,6.333-5.057l9.55,4.236a53.8,53.8,0,0,0,3.941-4.933l-6.245-8.366a43.733,43.733,0,0,0,3.526-7.317l10.437-.328a53.842,53.842,0,0,0,1.394-6.142l-9.268-4.82c.121-1.336.193-2.686.193-4.054m-44,31.7a31.7,31.7,0,1,1,31.7-31.7,31.7,31.7,0,0,1-31.7,31.7" transform="translate(-31.729 -28.573)" fill="#d2cfce"/>
            <path id="Trazado_1069087" data-name="Trazado 1069087" d="M240.1,191.045a31.7,31.7,0,1,1-31.7,31.7,31.7,31.7,0,0,1,31.7-31.7m0-3.71a35.413,35.413,0,1,0,35.413,35.411A35.452,35.452,0,0,0,240.1,187.335" transform="translate(-35.426 -32.423)" fill="#bababa"/>
            <path id="Trazado_1069088" data-name="Trazado 1069088" d="M250.8,119.858a64.927,64.927,0,1,0-64.928,64.924A64.927,64.927,0,0,0,250.8,119.858" transform="translate(-20.932 -9.507)" fill="#292426"/>
            <path id="Trazado_1069089" data-name="Trazado 1069089" d="M188.3,175.622a53.338,53.338,0,1,1,53.337-53.338A53.337,53.337,0,0,1,188.3,175.622" transform="translate(-23.358 -11.933)" fill="#c0bdc1"/>
            <g id="Grupo_1230726" data-name="Grupo 1230726" transform="translate(105.358 50.767)" style="mix-blend-mode: multiply;isolation: isolate">
              <g id="Grupo_1230725" data-name="Grupo 1230725">
                <g id="Grupo_1230724" data-name="Grupo 1230724" clip-path="url(#clip-path-9)">
                  <path id="Trazado_1069090" data-name="Trazado 1069090" d="M186.99,67.638a53.338,53.338,0,1,1-53.339,53.338A53.337,53.337,0,0,1,186.99,67.638m0-6.246a59.582,59.582,0,1,0,59.581,59.584A59.652,59.652,0,0,0,186.99,61.392" transform="translate(-127.409 -61.392)" fill="#bababa"/>
                </g>
              </g>
            </g>
            <path id="Trazado_1069091" data-name="Trazado 1069091" d="M239.293,146.4a53.351,53.351,0,0,1-100.75,0c.871-14.316,2.086-27.529,3.807-30.031,5.956-8.7,21.111-8.056,30.132-8.375s16.431-1.134,16.431-1.134,7.418.806,16.44,1.134,24.169-.327,30.132,8.375c1.714,2.5,2.936,15.715,3.807,30.031" transform="translate(-23.978 -18.495)" fill="#2e3820"/>
            <g id="Grupo_1230729" data-name="Grupo 1230729" transform="translate(147.056 88.373)" style="mix-blend-mode: multiply;isolation: isolate">
              <g id="Grupo_1230728" data-name="Grupo 1230728">
                <g id="Grupo_1230727" data-name="Grupo 1230727" clip-path="url(#clip-path-10)">
                  <path id="Trazado_1069092" data-name="Trazado 1069092" d="M178.954,108.007c-.859.411-1.6,1.039-.727,2.363A11.9,11.9,0,0,0,184,114.631a33.889,33.889,0,0,0,13.43,2.288,27.387,27.387,0,0,0,13.505-4.036c.909-.57,2.587-1.56,2.5-2.867a3.54,3.54,0,0,0-1.2-2.017l-.081,0c-9.023-.322-16.434-1.127-16.434-1.127s-7.41.805-16.435,1.127l-.328.011" transform="translate(-177.835 -106.869)" fill="#a3a3a3"/>
                </g>
              </g>
            </g>
            <path id="Trazado_1069093" data-name="Trazado 1069093" d="M207.042,92.5h-20.3l-2.126,14.984a27,27,0,0,0,24.553,0Z" transform="translate(-31.952 -16.009)" fill="#d18569"/>
            <path id="Trazado_1069094" data-name="Trazado 1069094" d="M193.845,17.384c-18.154,0-26.828,16.245-26.828,29.49,0,22.009,8.751,31.535,10.876,33.395s8.943,6.722,15.952,6.722,13.825-4.863,15.952-6.722,10.876-11.386,10.876-33.395c0-13.245-8.674-29.49-26.828-29.49" transform="translate(-28.906 -3.009)" fill="#f8b69f"/>
            <path id="Trazado_1069095" data-name="Trazado 1069095" d="M168.479,59.074c-1.248-3.553-3.412-4.822-5.554-3.553-2.315,1.371-1.144,7.9.486,11.734s2.164,7.666,5.708,5.394-.64-13.575-.64-13.575" transform="translate(-27.973 -9.526)" fill="#f8b69f"/>
            <path id="Rectángulo_425426" data-name="Rectángulo 425426" d="M6.1,0h9.7a6.1,6.1,0,0,1,6.1,6.1V9.524a6.1,6.1,0,0,1-6.1,6.1H6.1A6.1,6.1,0,0,1,0,9.525V6.1A6.1,6.1,0,0,1,6.1,0Z" transform="translate(139.933 41.367)" fill="#91d1e1"/>
            <path id="Trazado_1069096" data-name="Trazado 1069096" d="M185.8,51.036a3.763,3.763,0,0,1,3.762,3.764v5.538A3.765,3.765,0,0,1,185.8,64.1H174a3.765,3.765,0,0,1-3.763-3.764V54.8A3.763,3.763,0,0,1,174,51.036Zm0-2.559H174a6.33,6.33,0,0,0-6.324,6.323v5.538A6.33,6.33,0,0,0,174,66.659H185.8a6.329,6.329,0,0,0,6.323-6.322V54.8a6.329,6.329,0,0,0-6.323-6.323" transform="translate(-29.02 -8.39)" fill="#292426"/>
            <path id="Trazado_1069097" data-name="Trazado 1069097" d="M173.278,22.1a67.65,67.65,0,0,1-1.934-6.645c-.139-.517-.307-1.02-.489-1.513-1.488,1.044-3.018,2.026-4.515,3.055a21.32,21.32,0,0,0-3.046,3.322c-.074.236-.155.471-.234.694-.362,1.047-.841,2.047-1.121,3.12a31.237,31.237,0,0,0-.782,4.425,37.729,37.729,0,0,0,.078,9.47,12.649,12.649,0,0,0,1.144,4.172c.695,1.288,1.979,2.419,2.086,3.953a.4.4,0,0,0,.115.255c.041.729.075,1.458.092,2.192a57.234,57.234,0,0,0,1.312,12.631.352.352,0,0,0,.674,0c.684-2.058-.059-4.017-.26-6.084-.193-2.018-.333-4.057-.4-6.087.044-1.084.145-2.165.269-3.242.659-3.936,1.788-13.2,8.395-13.2V26.123c-.422-1.348-.877-2.688-1.382-4.023" transform="translate(-27.847 -2.413)" fill="#c18209"/>
            <g id="Grupo_1230732" data-name="Grupo 1230732" transform="translate(142.283 42.645)" style="mix-blend-mode: soft-light;isolation: isolate">
              <g id="Grupo_1230731" data-name="Grupo 1230731">
                <g id="Grupo_1230730" data-name="Grupo 1230730" clip-path="url(#clip-path-11)">
                  <path id="Trazado_1069098" data-name="Trazado 1069098" d="M188.924,52.4a3.755,3.755,0,0,0-2.358-.834h-5.3s-7.062,9.622-9.2,11.928a3.748,3.748,0,0,0,2.692,1.139h4.859s7.94-10.451,9.309-12.233" transform="translate(-172.063 -51.571)" fill="#fff"/>
                </g>
              </g>
            </g>
            <g id="Grupo_1230735" data-name="Grupo 1230735" transform="translate(151.524 44.648)" style="mix-blend-mode: soft-light;isolation: isolate">
              <g id="Grupo_1230734" data-name="Grupo 1230734">
                <g id="Grupo_1230733" data-name="Grupo 1230733" clip-path="url(#clip-path-12)">
                  <path id="Trazado_1069099" data-name="Trazado 1069099" d="M191.535,58.485c.236-.39.48-.778.726-1.16V55.753a3.752,3.752,0,0,0-.437-1.761c-1.3,1.7-8.586,11.063-8.586,11.063H186.6s3.953-5.214,4.94-6.571" transform="translate(-183.238 -53.993)" fill="#fff"/>
                </g>
              </g>
            </g>
            <path id="Trazado_1069100" data-name="Trazado 1069100" d="M228.577,59.074c1.247-3.553,3.409-4.822,5.554-3.553,2.315,1.371,1.144,7.9-.485,11.734s-2.166,7.666-5.709,5.394.641-13.575.641-13.575" transform="translate(-39.203 -9.526)" fill="#f8b69f"/>
            <path id="Rectángulo_425429" data-name="Rectángulo 425429" d="M6.1,0h9.7a6.1,6.1,0,0,1,6.1,6.1V9.525a6.1,6.1,0,0,1-6.1,6.1H6.1A6.1,6.1,0,0,1,0,9.525V6.1A6.1,6.1,0,0,1,6.1,0Z" transform="translate(168.05 41.367)" fill="#91d1e1"/>
            <path id="Trazado_1069101" data-name="Trazado 1069101" d="M219.807,51.036a3.763,3.763,0,0,1,3.762,3.764v5.538a3.765,3.765,0,0,1-3.762,3.764H208a3.765,3.765,0,0,1-3.763-3.764V54.8A3.763,3.763,0,0,1,208,51.036Zm0-2.559H208a6.329,6.329,0,0,0-6.323,6.323v5.538A6.33,6.33,0,0,0,208,66.659h11.811a6.33,6.33,0,0,0,6.323-6.322V54.8a6.329,6.329,0,0,0-6.323-6.323" transform="translate(-34.904 -8.39)" fill="#292426"/>
            <g id="Grupo_1230738" data-name="Grupo 1230738" transform="translate(170.729 42.645)" style="mix-blend-mode: soft-light;isolation: isolate">
              <g id="Grupo_1230737" data-name="Grupo 1230737">
                <g id="Grupo_1230736" data-name="Grupo 1230736" clip-path="url(#clip-path-13)">
                  <path id="Trazado_1069102" data-name="Trazado 1069102" d="M222.853,52.3a3.732,3.732,0,0,0-2.216-.729h-4.26c-.252.31-8.131,10.284-9.914,12.229a3.751,3.751,0,0,0,2.363.838h4.756c.073-.091,7.541-10.064,9.271-12.338" transform="translate(-206.462 -51.571)" fill="#fff"/>
                </g>
              </g>
            </g>
            <g id="Grupo_1230741" data-name="Grupo 1230741" transform="translate(179.908 44.914)" style="mix-blend-mode: soft-light;isolation: isolate">
              <g id="Grupo_1230740" data-name="Grupo 1230740">
                <g id="Grupo_1230739" data-name="Grupo 1230739" clip-path="url(#clip-path-14)">
                  <path id="Trazado_1069103" data-name="Trazado 1069103" d="M226.32,58.25V55.81a3.763,3.763,0,0,0-.31-1.5c-1.642,2.409-7.3,9.567-8.438,10.786a.033.033,0,0,0-.009.012h4.018Z" transform="translate(-217.562 -54.315)" fill="#fff"/>
                </g>
              </g>
            </g>
            <path id="Trazado_1069104" data-name="Trazado 1069104" d="M201.653,52.507h-6.181a1.206,1.206,0,0,0-1.206,1.206V55.49a1.206,1.206,0,0,0,1.206,1.208h6.181a1.207,1.207,0,0,0,1.206-1.208V53.713a1.207,1.207,0,0,0-1.206-1.206" transform="translate(-33.622 -9.088)" fill="#292426"/>
            <path id="Trazado_1069105" data-name="Trazado 1069105" d="M222.761,22.1a68.119,68.119,0,0,0,1.937-6.645c.138-.517.306-1.02.49-1.513,1.486,1.044,3.017,2.026,4.514,3.055a21.4,21.4,0,0,1,3.045,3.322c.074.236.155.471.233.694.364,1.047.843,2.047,1.121,3.12a30.882,30.882,0,0,1,.781,4.425,37.65,37.65,0,0,1-.075,9.47,12.708,12.708,0,0,1-1.144,4.172c-.7,1.288-1.98,2.419-2.085,3.953a.4.4,0,0,1-.117.255c-.041.729-.074,1.458-.093,2.192a57.331,57.331,0,0,1-1.31,12.631.353.353,0,0,1-.676,0c-.681-2.058.059-4.017.26-6.084.194-2.018.333-4.057.405-6.087-.045-1.084-.146-2.165-.27-3.242a34.963,34.963,0,0,0-4.221-11.187c-1.783.452-1.517-3.464-4.173-3.464V26.123c.423-1.348.877-2.688,1.38-4.023" transform="translate(-38.315 -2.413)" fill="#c18209"/>
            <path id="Trazado_1069106" data-name="Trazado 1069106" d="M218.564,13.471a8.666,8.666,0,0,0-1.947-4.644c-1.533-1.75-4.091-2.215-6.246-2.678-6-1.292-12.332-1.209-18.431-1.083-3.342.068-6.686.183-10.029.263-.442.009-.885.022-1.325.026a5.663,5.663,0,0,1-3.027.882c-1.878-.05-4.535-1.049-5.64-2.689-.62,1.389-1.519,4.34-3.148,2.766-1.45-1.4-1.554-4.336-1.336-6.2A.3.3,0,0,0,167.429,0a16.915,16.915,0,0,0-1.816,2.26,16.108,16.108,0,0,0-2.559,7.051c-.154,1.928-2.926,9.474,5.241,17.426,4.374,4.259,10.457,5.746,16.12,5.239,1.8-.163,3.581-.466,5.382-.6,1.943-.145,13.169-1.665,16.883-2,2.167-.192,4.625.3,6.711-.435,1.84-.648,2.711-2.64,3.387-4.312a22.662,22.662,0,0,0,1.785-11.16" transform="translate(-28.121)" fill="#c18209"/>
            <path id="Trazado_1069107" data-name="Trazado 1069107" d="M168.651,52.507h-3.089a1.206,1.206,0,0,0-1.206,1.206V55.49a1.206,1.206,0,0,0,1.206,1.208h3.089Z" transform="translate(-28.446 -9.088)" fill="#292426"/>
            <path id="Trazado_1069108" data-name="Trazado 1069108" d="M229.371,52.507h3.09a1.207,1.207,0,0,1,1.206,1.206V55.49a1.207,1.207,0,0,1-1.206,1.208h-3.09Z" transform="translate(-39.698 -9.088)" fill="#292426"/>
            <path id="Trazado_1069109" data-name="Trazado 1069109" d="M181.761,160.876a2.147,2.147,0,0,1,1.071,1.1,1.866,1.866,0,0,1-.033,1.622,1.676,1.676,0,0,1-1.168.939,2.034,2.034,0,0,1-1.557-.162l-16.407-8.755-.064-.065a2.034,2.034,0,0,1,0-2.854l16.471-8.818a2.127,2.127,0,0,1,1.493-.228,1.76,1.76,0,0,1,1.166.747,1.894,1.894,0,0,1,.26,1.523,1.769,1.769,0,0,1-.908,1.2l-14.136,7Z" transform="translate(-28.214 -24.855)" fill="#edeced"/>
            <path id="Trazado_1069110" data-name="Trazado 1069110" d="M226.587,154.131l-14.138-7a1.77,1.77,0,0,1-.907-1.2,1.9,1.9,0,0,1,.259-1.523,1.768,1.768,0,0,1,1.166-.748,2.132,2.132,0,0,1,1.493.228l16.471,8.818a2.036,2.036,0,0,1,0,2.855l-.064.064-16.407,8.756a2.037,2.037,0,0,1-1.557.161,1.677,1.677,0,0,1-1.166-.939,1.863,1.863,0,0,1-.034-1.622,2.139,2.139,0,0,1,1.07-1.1Z" transform="translate(-36.602 -24.855)" fill="#edeced"/>
            <path id="Trazado_1069111" data-name="Trazado 1069111" d="M201.555,131.751a1.982,1.982,0,0,1,1.006-1.168,1.893,1.893,0,0,1,1.526-.13,2.3,2.3,0,0,1,1.166,1.039,1.8,1.8,0,0,1,.128,1.492l-12.45,38.91a2.292,2.292,0,0,1-1.036,1.166,1.79,1.79,0,0,1-1.492.129,1.97,1.97,0,0,1-1.234-1,1.709,1.709,0,0,1-.064-1.523Z" transform="translate(-32.703 -22.56)" fill="#edeced"/>
            <path id="Trazado_1069112" data-name="Trazado 1069112" d="M154.187,202.028a58.878,58.878,0,1,0-58.878,58.879,58.877,58.877,0,0,0,58.878-58.879" transform="translate(-6.305 -24.776)" fill="#292426"/>
            <path id="Trazado_1069113" data-name="Trazado 1069113" d="M97.51,252.6a48.368,48.368,0,1,1,48.368-48.368A48.367,48.367,0,0,1,97.51,252.6" transform="translate(-8.505 -26.975)" fill="#c0bdc1"/>
            <g id="Grupo_1230744" data-name="Grupo 1230744" transform="translate(34.973 123.222)" style="mix-blend-mode: multiply;isolation: isolate">
              <g id="Grupo_1230743" data-name="Grupo 1230743">
                <g id="Grupo_1230742" data-name="Grupo 1230742" clip-path="url(#clip-path-15)">
                  <path id="Trazado_1069114" data-name="Trazado 1069114" d="M96.325,154.674a48.368,48.368,0,1,1-48.37,48.369,48.369,48.369,0,0,1,48.37-48.369m0-5.662a54.031,54.031,0,1,0,54.031,54.031,54.093,54.093,0,0,0-54.031-54.031" transform="translate(-42.293 -149.012)" fill="#bababa"/>
                </g>
              </g>
            </g>
            <path id="Trazado_1069115" data-name="Trazado 1069115" d="M127.337,179.372c-1.225-5.06-3.98-9.463-4.924-14.632-1.7-9.324-14.1-9.134-21.381-9.6a75.45,75.45,0,0,0-9.773.193,21.6,21.6,0,0,0-6.2.987c-.567.2-3.886,1.321-4.849,2.523a.36.36,0,0,0-.359.345,103.869,103.869,0,0,1-1.488,11.337c-.7,3.319-2.041,6.553-2.413,9.931-.608,5.53,4.47,9.145,9.347,10,2.936.515,5.972.289,8.933.463,4.1.239,8.175.59,12.28.686,5.316.123,11.346.613,16.338-1.541,4.459-1.928,5.54-6.343,4.49-10.689" transform="translate(-13.136 -26.835)" fill="#681413"/>
            <path id="Trazado_1069116" data-name="Trazado 1069116" d="M143.753,226.1a48.379,48.379,0,0,1-91.363,0c.789-12.982,1.891-15.973,3.453-18.243,5.4-7.892,19.143-16.294,27.324-16.587s14.9-1.024,14.9-1.024,6.725.729,14.908,1.024,21.918,8.7,27.325,16.587c1.555,2.27,2.663,5.261,3.451,18.243" transform="translate(-9.067 -32.927)" fill="#329836"/>
            <g id="Grupo_1230747" data-name="Grupo 1230747" transform="translate(72.788 157.321)" style="mix-blend-mode: multiply;isolation: isolate">
              <g id="Grupo_1230746" data-name="Grupo 1230746">
                <g id="Grupo_1230745" data-name="Grupo 1230745" clip-path="url(#clip-path-16)">
                  <path id="Trazado_1069117" data-name="Trazado 1069117" d="M89.038,191.282c-.781.371-1.452.944-.659,2.143a10.817,10.817,0,0,0,5.239,3.864,30.76,30.76,0,0,0,12.177,2.076,24.868,24.868,0,0,0,12.25-3.661c.821-.518,2.344-1.414,2.264-2.6a3.213,3.213,0,0,0-1.092-1.826.32.32,0,0,0-.073-.006c-8.183-.289-14.9-1.023-14.9-1.023s-6.72.733-14.9,1.023c-.1.006-.2.008-.3.012" transform="translate(-88.022 -190.248)" fill="#a3a3a3"/>
                </g>
              </g>
            </g>
            <path id="Trazado_1069118" data-name="Trazado 1069118" d="M114.51,177.218H96.1L94.17,190.807a24.493,24.493,0,0,0,22.267,0Z" transform="translate(-16.298 -30.672)" fill="#d18569"/>
            <path id="Trazado_1069119" data-name="Trazado 1069119" d="M102.542,109.1c-16.462,0-24.328,14.732-24.328,26.743,0,27.6,21.529,36.382,24.328,36.382s24.329-7.428,24.329-36.382c0-12.011-7.867-26.743-24.329-26.743" transform="translate(-13.537 -18.883)" fill="#f8b69f"/>
            <path id="Trazado_1069120" data-name="Trazado 1069120" d="M79.537,146.906c-1.131-3.222-3.092-4.374-5.037-3.222-2.1,1.243-1.038,7.164.442,10.643s1.962,6.949,5.177,4.89-.581-12.312-.581-12.312" transform="translate(-12.69 -24.793)" fill="#f8b69f"/>
            <path id="Rectángulo_425434" data-name="Rectángulo 425434" d="M5.532,0h8.792a5.533,5.533,0,0,1,5.533,5.533V8.638a5.531,5.531,0,0,1-5.531,5.531h-8.8A5.529,5.529,0,0,1,0,8.64V5.532A5.532,5.532,0,0,1,5.532,0Z" transform="translate(66.327 114.695)" fill="#91d1e1"/>
            <path id="Trazado_1069121" data-name="Trazado 1069121" d="M95.251,139.619a3.412,3.412,0,0,1,3.412,3.414v5.022a3.412,3.412,0,0,1-3.412,3.413H84.542a3.411,3.411,0,0,1-3.411-3.413v-5.022a3.411,3.411,0,0,1,3.411-3.414Zm0-2.32H84.542a5.739,5.739,0,0,0-5.734,5.734v5.022a5.74,5.74,0,0,0,5.734,5.733H95.251a5.739,5.739,0,0,0,5.733-5.733v-5.022a5.738,5.738,0,0,0-5.733-5.734" transform="translate(-13.64 -23.763)" fill="#292426"/>
            <path id="Trazado_1069122" data-name="Trazado 1069122" d="M106.818,140.951h-2.8a1.1,1.1,0,0,0-1.092,1.095v1.613a1.1,1.1,0,0,0,1.092,1.1h2.8Z" transform="translate(-17.813 -24.395)" fill="#292426"/>
            <path id="Trazado_1069123" data-name="Trazado 1069123" d="M83.891,113.379a61.61,61.61,0,0,1-1.756-6.025c-.126-.469-.276-.924-.443-1.374-1.349.947-2.735,1.836-4.095,2.772a19.51,19.51,0,0,0-2.762,3.012c-.066.213-.14.426-.21.629-.331.95-.764,1.853-1.016,2.827a28.015,28.015,0,0,0-.71,4.012,34.239,34.239,0,0,0,.068,8.589,11.519,11.519,0,0,0,1.039,3.783c.63,1.167,1.8,2.192,1.891,3.583a.373.373,0,0,0,.106.233c.036.66.068,1.321.084,1.987a51.789,51.789,0,0,0,1.189,11.455.318.318,0,0,0,.609,0c.621-1.861-.053-3.645-.233-5.52-.174-1.827-.3-3.677-.368-5.516.04-.984.134-1.964.246-2.941.6-3.569,1.622-11.969,7.612-11.969v-5.891c-.381-1.221-.795-2.437-1.251-3.648" transform="translate(-12.576 -18.342)" fill="#681413"/>
            <g id="Grupo_1230750" data-name="Grupo 1230750" transform="translate(68.46 115.856)" style="mix-blend-mode: soft-light;isolation: isolate">
              <g id="Grupo_1230749" data-name="Grupo 1230749">
                <g id="Grupo_1230748" data-name="Grupo 1230748" clip-path="url(#clip-path-17)">
                  <path id="Trazado_1069124" data-name="Trazado 1069124" d="M98.079,140.863a3.383,3.383,0,0,0-2.139-.759H91.132s-6.4,8.726-8.344,10.816a3.4,3.4,0,0,0,2.442,1.033h4.408s7.2-9.477,8.441-11.09" transform="translate(-82.788 -140.104)" fill="#fff"/>
                </g>
              </g>
            </g>
            <g id="Grupo_1230753" data-name="Grupo 1230753" transform="translate(76.842 117.671)" style="mix-blend-mode: soft-light;isolation: isolate">
              <g id="Grupo_1230752" data-name="Grupo 1230752">
                <g id="Grupo_1230751" data-name="Grupo 1230751" clip-path="url(#clip-path-18)">
                  <path id="Trazado_1069125" data-name="Trazado 1069125" d="M100.447,146.377c.215-.354.436-.709.658-1.057V143.9a3.432,3.432,0,0,0-.4-1.6c-1.183,1.541-7.785,10.034-7.785,10.034h3.043s3.584-4.728,4.479-5.956" transform="translate(-92.925 -142.299)" fill="#fff"/>
                </g>
              </g>
            </g>
            <path id="Trazado_1069126" data-name="Trazado 1069126" d="M134.034,146.906c1.132-3.222,3.1-4.374,5.038-3.222,2.1,1.243,1.039,7.164-.439,10.643s-1.964,6.949-5.178,4.89.58-12.312.58-12.312" transform="translate(-22.874 -24.793)" fill="#f8b69f"/>
            <path id="Rectángulo_425437" data-name="Rectángulo 425437" d="M5.531,0h8.795a5.531,5.531,0,0,1,5.531,5.531V8.639a5.53,5.53,0,0,1-5.53,5.53h-8.8A5.529,5.529,0,0,1,0,8.64V5.531A5.531,5.531,0,0,1,5.531,0Z" transform="translate(91.824 114.695)" fill="#91d1e1"/>
            <path id="Trazado_1069127" data-name="Trazado 1069127" d="M126.085,139.619a3.412,3.412,0,0,1,3.411,3.414v5.022a3.413,3.413,0,0,1-3.411,3.413h-10.71a3.412,3.412,0,0,1-3.41-3.413v-5.022a3.412,3.412,0,0,1,3.41-3.414Zm0-2.32h-10.71a5.738,5.738,0,0,0-5.732,5.734v5.022a5.739,5.739,0,0,0,5.732,5.733h10.71a5.74,5.74,0,0,0,5.733-5.733v-5.022a5.739,5.739,0,0,0-5.733-5.734" transform="translate(-18.976 -23.763)" fill="#292426"/>
            <g id="Grupo_1230756" data-name="Grupo 1230756" transform="translate(94.255 115.856)" style="mix-blend-mode: soft-light;isolation: isolate">
              <g id="Grupo_1230755" data-name="Grupo 1230755">
                <g id="Grupo_1230754" data-name="Grupo 1230754" clip-path="url(#clip-path-19)">
                  <path id="Trazado_1069128" data-name="Trazado 1069128" d="M128.845,140.764a3.388,3.388,0,0,0-2.01-.66h-3.862c-.229.281-7.374,9.326-8.99,11.09a3.4,3.4,0,0,0,2.143.759h4.312c.065-.085,6.836-9.127,8.407-11.189" transform="translate(-113.982 -140.104)" fill="#fff"/>
                </g>
              </g>
            </g>
            <g id="Grupo_1230759" data-name="Grupo 1230759" transform="translate(102.578 117.914)" style="mix-blend-mode: soft-light;isolation: isolate">
              <g id="Grupo_1230758" data-name="Grupo 1230758">
                <g id="Grupo_1230757" data-name="Grupo 1230757" clip-path="url(#clip-path-20)">
                  <path id="Trazado_1069129" data-name="Trazado 1069129" d="M131.989,146.161v-2.211a3.379,3.379,0,0,0-.279-1.355c-1.49,2.182-6.62,8.674-7.652,9.78l-.009.01h3.645Z" transform="translate(-124.048 -142.593)" fill="#fff"/>
                </g>
              </g>
            </g>
            <path id="Trazado_1069130" data-name="Trazado 1069130" d="M107.634,140.951h2.8a1.1,1.1,0,0,1,1.093,1.095v1.613a1.1,1.1,0,0,1-1.093,1.1h-2.8Z" transform="translate(-18.629 -24.395)" fill="#292426"/>
            <path id="Trazado_1069131" data-name="Trazado 1069131" d="M128.765,113.379a61.824,61.824,0,0,0,1.754-6.025c.125-.469.279-.924.445-1.374,1.349.947,2.736,1.836,4.091,2.772a19.321,19.321,0,0,1,2.764,3.012c.067.213.14.426.211.629.329.95.762,1.853,1.018,2.827a28.006,28.006,0,0,1,.707,4.012,34.122,34.122,0,0,1-.069,8.589,11.438,11.438,0,0,1-1.039,3.783c-.628,1.167-1.794,2.192-1.89,3.583a.357.357,0,0,1-.107.233c-.035.66-.065,1.321-.082,1.987a51.789,51.789,0,0,1-1.19,11.455.319.319,0,0,1-.611,0c-.619-1.861.054-3.645.237-5.52.175-1.827.3-3.677.365-5.516-.04-.984-.133-1.964-.245-2.941a31.668,31.668,0,0,0-3.829-10.144c-1.617.409-1.374-3.144-3.786-3.144v-4.572c.386-1.221.8-2.437,1.255-3.648" transform="translate(-22.069 -18.342)" fill="#681413"/>
            <path id="Trazado_1069132" data-name="Trazado 1069132" d="M79.694,140.951h-2.8a1.1,1.1,0,0,0-1.095,1.095v1.613a1.1,1.1,0,0,0,1.095,1.1h2.8Z" transform="translate(-13.118 -24.395)" fill="#292426"/>
            <path id="Trazado_1069133" data-name="Trazado 1069133" d="M134.756,140.951h2.8a1.1,1.1,0,0,1,1.095,1.095v1.613a1.1,1.1,0,0,1-1.095,1.1h-2.8Z" transform="translate(-23.323 -24.395)" fill="#292426"/>
            <path id="Trazado_1069134" data-name="Trazado 1069134" d="M119.257,99.146c-5.669-5.287-15.821-5.748-23.128-5.562-8.074.2-16.52,3.186-19.243,11.513-1.96,5.988-.694,15.531,6.941,16.279a.577.577,0,0,0,.476-.16c5.033,1.163,9.986,1.736,15.216.377A13.019,13.019,0,0,0,103.2,119.9c.359-.225-.41,2.947-.542,3.376-.978,3.231-6.082,7.734-5.836,7.748,5.148.266,7.091-4.16,9.328-8.008.258-.443.537-.868.829-1.286.456-.662.7-1.446.941-.605a15.868,15.868,0,0,1,.387,4.513c-.04,3.256-3.076,10.346-2.783,10.172,3.506-2.093,5.468-5.435,6.873-9.174.2-.525,1.854-5.7,1.376-5.7.251,0,5.076,6.448,5.089,6.061a38.026,38.026,0,0,1,.757-8.644c.8-3,2.676-5.576,3.377-8.639.88-3.837-.97-7.984-3.74-10.57" transform="translate(-13.165 -16.191)" fill="#681413"/>
            <path id="Trazado_1069135" data-name="Trazado 1069135" d="M91.584,239.227a1.933,1.933,0,0,1,.97,1,1.691,1.691,0,0,1-.031,1.475,1.519,1.519,0,0,1-1.058.851,1.826,1.826,0,0,1-1.41-.148l-14.881-7.938-.06-.06a1.844,1.844,0,0,1,0-2.586l14.94-8a1.933,1.933,0,0,1,1.35-.208,1.6,1.6,0,0,1,1.058.679,1.72,1.72,0,0,1,.236,1.38,1.6,1.6,0,0,1-.824,1.087l-12.821,6.355Z" transform="translate(-12.909 -38.694)" fill="#edeced"/>
            <path id="Trazado_1069136" data-name="Trazado 1069136" d="M132.233,233.111l-12.821-6.355a1.6,1.6,0,0,1-.823-1.086,1.714,1.714,0,0,1,.235-1.381,1.606,1.606,0,0,1,1.058-.678,1.933,1.933,0,0,1,1.354.208l14.937,8a1.844,1.844,0,0,1,0,2.586l-.058.06L121.237,242.4a1.837,1.837,0,0,1-1.414.148,1.522,1.522,0,0,1-1.057-.85,1.706,1.706,0,0,1-.031-1.475,1.947,1.947,0,0,1,.972-1Z" transform="translate(-20.515 -38.694)" fill="#edeced"/>
            <path id="Trazado_1069137" data-name="Trazado 1069137" d="M109.532,212.815a1.8,1.8,0,0,1,.911-1.06,1.712,1.712,0,0,1,1.385-.114,2.073,2.073,0,0,1,1.058.938,1.634,1.634,0,0,1,.116,1.353l-11.293,35.286a2.081,2.081,0,0,1-.938,1.059,1.641,1.641,0,0,1-1.353.116,1.791,1.791,0,0,1-1.118-.907,1.559,1.559,0,0,1-.06-1.384Z" transform="translate(-16.98 -36.613)" fill="#edeced"/>
            <g id="Grupo_1230762" data-name="Grupo 1230762" transform="translate(234.096 98.398)" style="mix-blend-mode: multiply;isolation: isolate">
              <g id="Grupo_1230761" data-name="Grupo 1230761">
                <g id="Grupo_1230760" data-name="Grupo 1230760" clip-path="url(#clip-path-21)">
                  <path id="Trazado_1069138" data-name="Trazado 1069138" d="M307.072,121.837l-3.012,7.971-4.586.75-2.945-3.6,3.012-7.97a8.044,8.044,0,0,0-4.248,13.76l-6.447,17.062a6.625,6.625,0,0,0-4.259,10.759l2.482-6.563,3.776-.618,2.424,2.962-2.48,6.563a6.623,6.623,0,0,0,3.922-10.886l6.448-17.063a8.046,8.046,0,0,0,5.913-13.132m-7.945,12.728-5.842,15.461a1.091,1.091,0,1,1-2.041-.771l5.842-15.461a1.091,1.091,0,1,1,2.041.771" transform="translate(-283.092 -118.992)" fill="#bababa"/>
                </g>
              </g>
            </g>
            <g id="Grupo_1230765" data-name="Grupo 1230765" transform="translate(5.745 149.891)" style="mix-blend-mode: multiply;isolation: isolate">
              <g id="Grupo_1230764" data-name="Grupo 1230764">
                <g id="Grupo_1230763" data-name="Grupo 1230763" clip-path="url(#clip-path-22)">
                  <path id="Trazado_1069139" data-name="Trazado 1069139" d="M18.064,182.106a10.271,10.271,0,0,1,8.45,16.11l-.014.021-.012.022c-.119.193-2.9,4.806-2.9,8.185v2.366l-1.116,1.312H13.656l-1.116-1.312v-2.366c0-3.379-2.783-7.991-2.9-8.185l-.012-.022-.013-.021a10.269,10.269,0,0,1,8.45-16.11m0-.843A11.114,11.114,0,0,0,8.919,198.7s2.778,4.566,2.778,7.748v2.676l1.567,1.845H22.86l1.569-1.845v-2.676c0-3.182,2.776-7.748,2.776-7.748a11.111,11.111,0,0,0-9.141-17.433" transform="translate(-6.948 -181.263)" fill="#bababa"/>
                  <path id="Trazado_1069140" data-name="Trazado 1069140" d="M23.416,226.655c0-1.2-1.713-2.167-3.828-2.167s-3.828.971-3.828,2.167,2.443,2.168,3.828,2.168,3.828-.972,3.828-2.168" transform="translate(-8.473 -188.744)" fill="#bababa"/>
                  <path id="Trazado_1069141" data-name="Trazado 1069141" d="M25.6,216.707a1.2,1.2,0,0,1-1.2,1.2H13.612a1.2,1.2,0,0,1,0-2.4H24.4a1.2,1.2,0,0,1,1.2,1.2" transform="translate(-7.894 -187.19)" fill="#bababa"/>
                  <path id="Trazado_1069142" data-name="Trazado 1069142" d="M25.6,219.607a1.2,1.2,0,0,1-1.2,1.2H13.612a1.2,1.2,0,0,1,0-2.4H24.4a1.2,1.2,0,0,1,1.2,1.2" transform="translate(-7.894 -187.692)" fill="#bababa"/>
                  <path id="Trazado_1069143" data-name="Trazado 1069143" d="M25.6,222.508a1.2,1.2,0,0,1-1.2,1.2H13.612a1.2,1.2,0,0,1,0-2.4H24.4a1.2,1.2,0,0,1,1.2,1.2" transform="translate(-7.894 -188.194)" fill="#bababa"/>
                  <path id="Trazado_1069144" data-name="Trazado 1069144" d="M25.6,225.408a1.2,1.2,0,0,1-1.2,1.2H13.612a1.2,1.2,0,0,1,0-2.4H24.4a1.2,1.2,0,0,1,1.2,1.2" transform="translate(-7.894 -188.696)" fill="#bababa"/>
                  <path id="Trazado_1069145" data-name="Trazado 1069145" d="M20.338,211.692a34.733,34.733,0,0,1,.461-7.314,20.812,20.812,0,0,1,3.385-6.779,1.721,1.721,0,0,0-.088-2.165,1.073,1.073,0,0,0-1.264-.244,2.934,2.934,0,0,1,.438,1.4.916.916,0,0,1-.652.936,1.508,1.508,0,0,1-1.771-.682c-.137-.289-.3-1.016.773-1.884a1.729,1.729,0,0,0-.658-.471,4.632,4.632,0,0,0-1.836-.262l-.053.006-.055-.007a4.648,4.648,0,0,0-1.832.263,1.736,1.736,0,0,0-.661.471c1.077.867.91,1.594.775,1.884a1.51,1.51,0,0,1-1.772.682.92.92,0,0,1-.652-.936,2.938,2.938,0,0,1,.44-1.4,1.073,1.073,0,0,0-1.265.244,1.72,1.72,0,0,0-.088,2.165,20.8,20.8,0,0,1,3.385,6.779,34.908,34.908,0,0,1,.463,7.314l-.843-.031a34.751,34.751,0,0,0-.437-7.08,19.9,19.9,0,0,0-3.242-6.477,2.585,2.585,0,0,1,.151-3.25,1.95,1.95,0,0,1,2.375-.364,2.665,2.665,0,0,1,1.1-.8,5.571,5.571,0,0,1,2.156-.307,5.561,5.561,0,0,1,2.154.307,2.666,2.666,0,0,1,1.107.8,1.946,1.946,0,0,1,2.372.364,2.582,2.582,0,0,1,.151,3.25,19.935,19.935,0,0,0-3.242,6.477,34.921,34.921,0,0,0-.438,7.08Zm-4.311-16.053a2.035,2.035,0,0,0-.309.935c0,.13.033.139.046.143a.7.7,0,0,0,.772-.232c.078-.165-.06-.475-.509-.846m6.09,0c-.447.37-.585.681-.508.846a.7.7,0,0,0,.771.232c.013,0,.045-.013.045-.143a2.032,2.032,0,0,0-.308-.935" transform="translate(-7.958 -183.359)" fill="#bababa"/>
                </g>
              </g>
            </g>
            <g id="Grupo_1230768" data-name="Grupo 1230768" transform="translate(83.49 271.445)" style="mix-blend-mode: multiply;isolation: isolate">
              <g id="Grupo_1230767" data-name="Grupo 1230767">
                <g id="Grupo_1230766" data-name="Grupo 1230766" clip-path="url(#clip-path-23)">
                  <path id="Trazado_1069146" data-name="Trazado 1069146" d="M132.264,351.579c-2.454-2.224-4.79-1.34-7.245-3.563-1.585-1.437-1.984-1.8-2.067-1.875l-1.015-.186-.183.2L119.6,344.2a10.2,10.2,0,1,0-1.893,2.089l2.159,1.956-.181.2.282.992,2.07,1.875c2.454,2.224,1.8,4.635,4.256,6.86s4.967,2.2,6.81.168,1.62-4.533-.834-6.76m-26.692-6.941a8.335,8.335,0,1,1,11.773-.579,8.336,8.336,0,0,1-11.773.579" transform="translate(-100.964 -328.258)" fill="#bababa"/>
                </g>
              </g>
            </g>
            <path id="Trazado_1069147" data-name="Trazado 1069147" d="M226.4,284.205a52.635,52.635,0,1,0-52.635,52.635A52.636,52.636,0,0,0,226.4,284.205" transform="translate(-20.965 -40.078)" fill="#292426"/>
            <path id="Trazado_1069148" data-name="Trazado 1069148" d="M175.734,329.413a43.242,43.242,0,1,1,43.241-43.242,43.243,43.243,0,0,1-43.241,43.242" transform="translate(-22.931 -42.045)" fill="#c0bdc1"/>
            <g id="Grupo_1230771" data-name="Grupo 1230771" transform="translate(104.5 195.824)" style="mix-blend-mode: multiply;isolation: isolate">
              <g id="Grupo_1230770" data-name="Grupo 1230770">
                <g id="Grupo_1230769" data-name="Grupo 1230769" clip-path="url(#clip-path-24)">
                  <path id="Trazado_1069149" data-name="Trazado 1069149" d="M174.675,241.871a43.242,43.242,0,1,1-43.242,43.242,43.242,43.242,0,0,1,43.242-43.242m0-5.062a48.3,48.3,0,1,0,48.3,48.3,48.359,48.359,0,0,0-48.3-48.3" transform="translate(-126.372 -236.809)" fill="#bababa"/>
                </g>
              </g>
            </g>
            <path id="Trazado_1069150" data-name="Trazado 1069150" d="M217.076,305.726a43.25,43.25,0,0,1-81.676,0c.705-11.605,1.691-22.315,3.085-24.345,4.831-7.055,17.115-6.532,24.428-6.791s13.321-.919,13.321-.919,6.013.654,13.327.919,19.594-.265,24.427,6.791c1.391,2.029,2.382,12.74,3.088,24.345" transform="translate(-23.434 -47.366)" fill="#546423"/>
            <g id="Grupo_1230774" data-name="Grupo 1230774" transform="translate(138.306 226.309)" style="mix-blend-mode: multiply;isolation: isolate">
              <g id="Grupo_1230773" data-name="Grupo 1230773">
                <g id="Grupo_1230772" data-name="Grupo 1230772" clip-path="url(#clip-path-25)">
                  <path id="Trazado_1069151" data-name="Trazado 1069151" d="M168.16,274.6c-.7.332-1.3.842-.59,1.914,1.094,1.656,14.114,19.96,14.114,19.96s14.505-19.187,14.43-20.246a2.849,2.849,0,0,0-.976-1.634.434.434,0,0,0-.065,0c-7.315-.26-13.323-.914-13.323-.914s-6.008.654-13.324.914c-.086,0-.177,0-.265.01" transform="translate(-167.253 -273.675)" fill="#a3a3a3"/>
                </g>
              </g>
            </g>
            <path id="Trazado_1069152" data-name="Trazado 1069152" d="M190.93,262.026H174.472l-1.724,12.148a21.9,21.9,0,0,0,19.907,0Z" transform="translate(-29.898 -45.35)" fill="#d18569"/>
            <path id="Trazado_1069153" data-name="Trazado 1069153" d="M180.232,201.128c-14.716,0-21.749,13.17-21.749,23.907,0,17.844,7.093,25.568,8.818,27.074s7.249,5.45,12.931,5.45,11.207-3.941,12.932-5.45,8.818-9.23,8.818-27.074c0-10.737-7.034-23.907-21.751-23.907" transform="translate(-27.429 -34.81)" fill="#f8b69f"/>
            <path id="Trazado_1069154" data-name="Trazado 1069154" d="M159.669,234.929c-1.012-2.881-2.766-3.91-4.505-2.881-1.875,1.111-.926,6.4.394,9.513s1.756,6.214,4.628,4.373-.518-11-.518-11" transform="translate(-26.673 -40.094)" fill="#f8b69f"/>
            <path id="Rectángulo_425445" data-name="Rectángulo 425445" d="M4.943,0h7.863a4.943,4.943,0,0,1,4.943,4.943V7.726a4.942,4.942,0,0,1-4.942,4.942H4.944A4.944,4.944,0,0,1,0,7.724V4.943A4.943,4.943,0,0,1,4.943,0Z" transform="translate(132.531 188.2)" fill="#91d1e1"/>
            <path id="Rectángulo_425446" data-name="Rectángulo 425446" d="M4.943,0h7.863a4.943,4.943,0,0,1,4.943,4.943V7.726a4.942,4.942,0,0,1-4.942,4.942H4.944A4.944,4.944,0,0,1,0,7.724V4.943A4.943,4.943,0,0,1,4.943,0Z" transform="translate(132.531 188.2)" fill="none" stroke="#292426" stroke-miterlimit="10" stroke-width="1"/>
            <path id="Trazado_1069155" data-name="Trazado 1069155" d="M173.715,228.412a3.05,3.05,0,0,1,3.05,3.048v4.492a3.051,3.051,0,0,1-3.05,3.05H164.14a3.051,3.051,0,0,1-3.051-3.05V231.46a3.049,3.049,0,0,1,3.051-3.048Zm0-2.075H164.14a5.13,5.13,0,0,0-5.126,5.123v4.492a5.131,5.131,0,0,0,5.126,5.125h9.575a5.13,5.13,0,0,0,5.124-5.125V231.46a5.129,5.129,0,0,0-5.124-5.123" transform="translate(-27.521 -39.173)" fill="#372724"/>
            <path id="Trazado_1069156" data-name="Trazado 1069156" d="M163.559,204.953a54.687,54.687,0,0,1-1.57-5.388c-.113-.418-.249-.825-.4-1.225-1.2.846-2.447,1.643-3.662,2.477a17.588,17.588,0,0,0-2.468,2.692c-.06.193-.127.383-.189.565-.294.845-.681,1.656-.91,2.527a25.192,25.192,0,0,0-.633,3.586,30.553,30.553,0,0,0,.062,7.679,10.347,10.347,0,0,0,.927,3.382c.563,1.044,1.606,1.962,1.692,3.206a.324.324,0,0,0,.094.205c.033.591.061,1.182.074,1.778a46.456,46.456,0,0,0,1.063,10.239.284.284,0,0,0,.545,0c.556-1.667-.047-3.256-.209-4.933-.156-1.634-.27-3.286-.327-4.932.037-.878.119-1.755.219-2.63.533-3.19,1.45-10.7,6.8-10.7v-5.265c-.343-1.093-.711-2.179-1.118-3.261" transform="translate(-26.57 -34.327)" fill="#5f2214"/>
            <g id="Grupo_1230777" data-name="Grupo 1230777" transform="translate(134.437 189.239)" style="mix-blend-mode: soft-light;isolation: isolate">
              <g id="Grupo_1230776" data-name="Grupo 1230776">
                <g id="Grupo_1230775" data-name="Grupo 1230775" clip-path="url(#clip-path-26)">
                  <path id="Trazado_1069157" data-name="Trazado 1069157" d="M176.242,229.523a3.037,3.037,0,0,0-1.911-.676h-4.3s-5.726,7.8-7.459,9.669a3.042,3.042,0,0,0,2.181.92h3.94s6.438-8.472,7.547-9.914" transform="translate(-162.574 -228.846)" fill="#fff"/>
                </g>
              </g>
            </g>
            <g id="Grupo_1230780" data-name="Grupo 1230780" transform="translate(141.929 190.863)" style="mix-blend-mode: soft-light;isolation: isolate">
              <g id="Grupo_1230779" data-name="Grupo 1230779">
                <g id="Grupo_1230778" data-name="Grupo 1230778" clip-path="url(#clip-path-27)">
                  <path id="Trazado_1069158" data-name="Trazado 1069158" d="M178.359,234.452c.194-.317.39-.633.59-.944v-1.274a3.038,3.038,0,0,0-.356-1.424c-1.055,1.375-6.959,8.966-6.959,8.966h2.721s3.205-4.225,4-5.324" transform="translate(-171.634 -230.81)" fill="#fff"/>
                </g>
              </g>
            </g>
            <path id="Trazado_1069159" data-name="Trazado 1069159" d="M208.388,234.929c1.011-2.881,2.764-3.91,4.5-2.881,1.875,1.111.928,6.4-.394,9.513s-1.756,6.214-4.626,4.373.516-11,.516-11" transform="translate(-35.777 -40.094)" fill="#f8b69f"/>
            <path id="Rectángulo_425449" data-name="Rectángulo 425449" d="M4.941,0h7.864a4.943,4.943,0,0,1,4.943,4.943V7.725a4.943,4.943,0,0,1-4.943,4.943H4.941A4.941,4.941,0,0,1,0,7.727V4.941A4.941,4.941,0,0,1,4.941,0Z" transform="translate(155.326 188.2)" fill="#91d1e1"/>
            <path id="Rectángulo_425450" data-name="Rectángulo 425450" d="M4.941,0h7.864a4.943,4.943,0,0,1,4.943,4.943V7.725a4.943,4.943,0,0,1-4.943,4.943H4.941A4.941,4.941,0,0,1,0,7.727V4.941A4.941,4.941,0,0,1,4.941,0Z" transform="translate(155.326 188.2)" fill="none" stroke="#292426" stroke-miterlimit="10" stroke-width="1"/>
            <path id="Trazado_1069160" data-name="Trazado 1069160" d="M201.28,228.412a3.049,3.049,0,0,1,3.05,3.048v4.492a3.051,3.051,0,0,1-3.05,3.05H191.7a3.052,3.052,0,0,1-3.051-3.05V231.46a3.05,3.05,0,0,1,3.051-3.048Zm0-2.075H191.7a5.128,5.128,0,0,0-5.124,5.123v4.492a5.129,5.129,0,0,0,5.124,5.125h9.577a5.13,5.13,0,0,0,5.124-5.125V231.46a5.129,5.129,0,0,0-5.124-5.123" transform="translate(-32.292 -39.173)" fill="#372724"/>
            <g id="Grupo_1230783" data-name="Grupo 1230783" transform="translate(157.496 189.239)" style="mix-blend-mode: soft-light;isolation: isolate">
              <g id="Grupo_1230782" data-name="Grupo 1230782">
                <g id="Grupo_1230781" data-name="Grupo 1230781" clip-path="url(#clip-path-28)">
                  <path id="Trazado_1069161" data-name="Trazado 1069161" d="M203.749,229.435a3.032,3.032,0,0,0-1.8-.589H198.5c-.2.251-6.591,8.335-8.038,9.914a3.044,3.044,0,0,0,1.916.676h3.856c.06-.074,6.113-8.156,7.517-10" transform="translate(-190.46 -228.846)" fill="#fff"/>
                </g>
              </g>
            </g>
            <g id="Grupo_1230786" data-name="Grupo 1230786" transform="translate(164.938 191.078)" style="mix-blend-mode: soft-light;isolation: isolate">
              <g id="Grupo_1230785" data-name="Grupo 1230785">
                <g id="Grupo_1230784" data-name="Grupo 1230784" clip-path="url(#clip-path-29)">
                  <path id="Trazado_1069162" data-name="Trazado 1069162" d="M206.559,234.259v-1.98a3.058,3.058,0,0,0-.251-1.209c-1.332,1.953-5.918,7.754-6.842,8.743l-.007.008h3.258Z" transform="translate(-199.459 -231.07)" fill="#fff"/>
                </g>
              </g>
            </g>
            <path id="Trazado_1069163" data-name="Trazado 1069163" d="M186.561,229.6h-5.013a.978.978,0,0,0-.977.978v1.441a.978.978,0,0,0,.977.98h5.013a.978.978,0,0,0,.977-.98v-1.441a.978.978,0,0,0-.977-.978" transform="translate(-31.252 -39.738)" fill="#372724"/>
            <path id="Trazado_1069164" data-name="Trazado 1069164" d="M203.675,204.953a54.691,54.691,0,0,0,1.57-5.388c.112-.418.25-.825.4-1.225,1.206.846,2.445,1.643,3.661,2.477a17.513,17.513,0,0,1,2.469,2.692c.06.193.125.383.189.565.294.845.681,1.656.91,2.527a25.422,25.422,0,0,1,.632,3.586,30.632,30.632,0,0,1-.06,7.679,10.33,10.33,0,0,1-.929,3.382c-.562,1.044-1.606,1.962-1.691,3.206a.316.316,0,0,1-.094.205c-.032.591-.06,1.182-.074,1.778a46.4,46.4,0,0,1-1.063,10.239.285.285,0,0,1-.546,0c-.555-1.667.048-3.256.208-4.933.159-1.634.275-3.286.33-4.932-.036-.878-.118-1.755-.218-2.63a28.4,28.4,0,0,0-3.422-9.069c-1.448.367-1.232-2.809-3.385-2.809v-4.088c.345-1.093.714-2.179,1.12-3.261" transform="translate(-35.057 -34.327)" fill="#5f2214"/>
            <path id="Trazado_1069165" data-name="Trazado 1069165" d="M159.808,229.6H157.3a.978.978,0,0,0-.977.978v1.441a.979.979,0,0,0,.977.98h2.506Z" transform="translate(-27.056 -39.738)" fill="#372724"/>
            <path id="Trazado_1069166" data-name="Trazado 1069166" d="M209.033,229.6h2.5a.978.978,0,0,1,.98.978v1.441a.979.979,0,0,1-.98.98h-2.5Z" transform="translate(-36.178 -39.738)" fill="#372724"/>
            <path id="Trazado_1069167" data-name="Trazado 1069167" d="M196.752,182.812a7.757,7.757,0,0,1-.326,2.882,6.489,6.489,0,0,1-6.354,4.279q-.347.093-.7.165c-4.378.91-8.543-1.007-12.577-2.452-4.624-1.66-9.31-2.406-13.6.53-.222.154-.428.325-.638.49a20.944,20.944,0,0,0-3.966,4.3,39.794,39.794,0,0,0-2.933,4.946,15.539,15.539,0,0,0,.686,6.275c.73,2.052,2.381,3.52,3.28,5.464a1.194,1.194,0,0,0-.105.228c-.082.238.3.4.409.172.559-1.153,3.689.3,4.47.6,1.489.571,2.924,1.315,4.433,1.83a41.981,41.981,0,0,0,18.957,1.563,24.129,24.129,0,0,0,7.711-2.48c1.9-.941,3.784-2.157,4.627-4.143a12.315,12.315,0,0,0,3.382-6.865c1.035-6.349-1.622-13.841-6.765-17.782" transform="translate(-26.933 -31.64)" fill="#5f2214"/>
            <path id="Trazado_1069168" data-name="Trazado 1069168" d="M173.385,323.823a1.375,1.375,0,0,1,.688.709,1.19,1.19,0,0,1-.021,1.044,1.072,1.072,0,0,1-.748.6,1.3,1.3,0,0,1-1-.1l-10.552-5.63-.041-.043a1.308,1.308,0,0,1,0-1.834L172.3,312.9a1.358,1.358,0,0,1,.96-.147,1.128,1.128,0,0,1,.749.479,1.229,1.229,0,0,1,.169.981,1.15,1.15,0,0,1-.585.771l-9.091,4.5Z" transform="translate(-27.923 -54.124)" fill="#edeced"/>
            <path id="Trazado_1069169" data-name="Trazado 1069169" d="M202.215,319.486l-9.094-4.5a1.144,1.144,0,0,1-.584-.771,1.233,1.233,0,0,1,.167-.98,1.133,1.133,0,0,1,.752-.48,1.358,1.358,0,0,1,.96.147l10.591,5.672a1.3,1.3,0,0,1,0,1.833l-.039.043-10.552,5.63a1.3,1.3,0,0,1-1,.1,1.073,1.073,0,0,1-.75-.6,1.2,1.2,0,0,1-.02-1.044,1.38,1.38,0,0,1,.686-.71Z" transform="translate(-33.317 -54.124)" fill="#edeced"/>
            <path id="Trazado_1069170" data-name="Trazado 1069170" d="M186.115,305.093a1.271,1.271,0,0,1,.647-.752,1.221,1.221,0,0,1,.98-.083,1.475,1.475,0,0,1,.75.669,1.152,1.152,0,0,1,.083.959l-8.007,25.024a1.475,1.475,0,0,1-.668.751,1.157,1.157,0,0,1-.958.083,1.278,1.278,0,0,1-.792-.646,1.092,1.092,0,0,1-.04-.979Z" transform="translate(-30.809 -52.648)" fill="#edeced"/>
            <path id="Trazado_1069171" data-name="Trazado 1069171" d="M199.822,252.158c.215-.964.785-2.6.409-3.242-.021-.037-.281.893-.294.932-3.17,8.98-9.906,11.789-17.184,12.014a30.124,30.124,0,0,1-9.79-1.478c-3.176-.981-8.558-3.213-9.751-6.567l0,0c-.552-1.521-1.082-3.047-1.662-4.526-.059-.151-.387-.408-.346-.242,1.035,4.222,1.815,8.682,4.006,12.5,2.622,4.582,9.525,7.375,15.669,7.375s12.727-3.671,14.869-7.043a31.918,31.918,0,0,0,4.077-9.723" transform="translate(-27.899 -43.081)" fill="#5f2214"/>
            <g id="Grupo_1230789" data-name="Grupo 1230789" transform="translate(210.527 33.926)" style="mix-blend-mode: multiply;isolation: isolate">
              <g id="Grupo_1230788" data-name="Grupo 1230788">
                <g id="Grupo_1230787" data-name="Grupo 1230787" clip-path="url(#clip-path-30)">
                  <path id="Trazado_1069172" data-name="Trazado 1069172" d="M295.226,41.027H256.01a1.382,1.382,0,0,0-1.42,1.34V64.48a1.382,1.382,0,0,0,1.42,1.34h14.652v3.629H266.7a.63.63,0,0,0-.647.61v1.472h19.138V70.059a.629.629,0,0,0-.646-.61h-3.968V65.82h14.654a1.382,1.382,0,0,0,1.42-1.34V42.367a1.382,1.382,0,0,0-1.42-1.34m.413,22.335a.4.4,0,0,1-.413.391H256.01a.4.4,0,0,1-.413-.391V42.367a.4.4,0,0,1,.413-.39h39.216a.4.4,0,0,1,.413.39Z" transform="translate(-254.59 -41.027)" fill="#bababa"/>
                </g>
              </g>
            </g>
          </g>
        </g>
      </g>
    </g>
  </g>
</svg>
