<svg xmlns="http://www.w3.org/2000/svg" width="88.867" height="86.365" viewBox="0 0 88.867 86.365">
  <g id="Grupo_1230169" data-name="Grupo 1230169" transform="translate(-1001.068 -2864.781)">
    <circle id="Elipse_12863" data-name="Elipse 12863" cx="27.545" cy="27.545" r="27.545" transform="translate(1001.068 2864.781)" fill="#c3b7ef"/>
    <g id="content_3732352" transform="translate(1012.895 2874.106)">
      <path id="Trazado_1068404" data-name="Trazado 1068404" d="M70.908,10.812a3.677,3.677,0,0,0-3.053,1.629L65.1,10.24A8.616,8.616,0,0,0,59.87,8.37V5.906A4.911,4.911,0,0,0,54.964,1H47.605A4.911,4.911,0,0,0,42.7,5.906V8.359H4.679A3.684,3.684,0,0,0,1,12.038V66a3.684,3.684,0,0,0,3.679,3.679h31.8a3.721,3.721,0,0,0,.554.733l2.475,2.475a3.714,3.714,0,0,0,4.542.551,1.288,1.288,0,0,1,1.888.806,3.7,3.7,0,0,0,3.592,2.794h3.5a3.714,3.714,0,0,0,3.6-2.822,1.29,1.29,0,0,1,1.9-.764,3.7,3.7,0,0,0,4.516-.565l2.475-2.475a3.714,3.714,0,0,0,.551-4.542,1.29,1.29,0,0,1,.807-1.888,3.7,3.7,0,0,0,2.793-3.591v-3.5a3.712,3.712,0,0,0-2.822-3.6,1.289,1.289,0,0,1-.764-1.9,3.705,3.705,0,0,0-.564-4.517L63.056,44.4a3.687,3.687,0,0,0-3.186-1.029V35.327A8.623,8.623,0,0,0,65.1,33.458l2.751-2.2a3.676,3.676,0,0,0,3.053,1.63H77.04V10.812ZM45.152,5.906a2.455,2.455,0,0,1,2.453-2.453h7.359a2.455,2.455,0,0,1,2.453,2.453V8.359H50.058a2.455,2.455,0,0,0-2.453,2.453,4.911,4.911,0,0,0,4.906,4.906H49.833a3.674,3.674,0,0,0-3.454-2.453H45.152ZM56.739,51.285,51.9,61.927a.706.706,0,0,1-1.234,0L45.831,51.285Zm-6.681-2.453V23.076h2.453V48.832Zm4.906,0V23.076h2.453V48.832Zm-9.812,0V35.341h1.226a3.638,3.638,0,0,0,1.226-.226V48.832Zm-3.679-23.3h4.906a1.226,1.226,0,1,1,0,2.453H41.473a1.226,1.226,0,0,1,0-2.453ZM40.247,21.85a1.228,1.228,0,0,1,1.226-1.226h4.906a1.226,1.226,0,1,1,0,2.453H41.473A1.228,1.228,0,0,1,40.247,21.85Zm1.226,8.585h4.906a1.226,1.226,0,1,1,0,2.453H41.473a1.226,1.226,0,0,1,0-2.453Zm6.961,32.5a3.131,3.131,0,0,0,5.7,0l4.186-9.208a8.473,8.473,0,0,1,1.549,4.911,8.585,8.585,0,1,1-17.17,0,8.473,8.473,0,0,1,1.549-4.911Zm8.983-42.316H49.833A3.645,3.645,0,0,0,49.1,19.4a3.665,3.665,0,0,0,.731-1.226h7.584ZM46.379,15.717a1.226,1.226,0,1,1,0,2.453H41.473a1.226,1.226,0,0,1,0-2.453ZM3.453,12.038a1.228,1.228,0,0,1,1.226-1.226H42.7v2.453H41.473A3.664,3.664,0,0,0,38.75,19.4a3.566,3.566,0,0,0-.731,3.679H3.453ZM36.474,65.9a3.687,3.687,0,0,0-.469,1.331H4.679A1.228,1.228,0,0,1,3.453,66V25.529H38.019a3.566,3.566,0,0,0,.731,3.679,3.664,3.664,0,0,0,2.723,6.132H42.7v8.023A3.7,3.7,0,0,0,39.513,44.4l-2.475,2.475a3.714,3.714,0,0,0-.551,4.542,1.287,1.287,0,0,1-.806,1.886,3.7,3.7,0,0,0-2.794,3.594v3.5a3.715,3.715,0,0,0,2.822,3.6,1.288,1.288,0,0,1,.764,1.9ZM61.322,46.132,63.8,48.607a1.263,1.263,0,0,1,.177,1.553,3.742,3.742,0,0,0,2.311,5.519,1.249,1.249,0,0,1,.944,1.214v3.5a1.265,1.265,0,0,1-.973,1.224,3.738,3.738,0,0,0-2.269,5.533A1.256,1.256,0,0,1,63.8,68.68l-2.475,2.475a1.263,1.263,0,0,1-1.553.178,3.739,3.739,0,0,0-5.518,2.311,1.253,1.253,0,0,1-1.215.944h-3.5a1.265,1.265,0,0,1-1.224-.973,3.74,3.74,0,0,0-5.534-2.269,1.253,1.253,0,0,1-1.529-.191L38.772,68.68a1.263,1.263,0,0,1-.177-1.553,3.74,3.74,0,0,0-2.309-5.518,1.253,1.253,0,0,1-.946-1.215v-3.5a1.263,1.263,0,0,1,.973-1.224,3.738,3.738,0,0,0,2.269-5.533,1.256,1.256,0,0,1,.191-1.529l2.475-2.475a1.247,1.247,0,0,1,1.452-.217v4.409l.418.92a10.9,10.9,0,0,0-2.872,7.4,11.038,11.038,0,0,0,22.076,0,10.9,10.9,0,0,0-2.871-7.4l.418-.92V45.91a1.25,1.25,0,0,1,1.452.222Zm5.907-17.514-3.656,2.925a6.153,6.153,0,0,1-3.7,1.333V18.833a8.559,8.559,0,0,0,3.048.564h1.858V16.944H62.918a6.094,6.094,0,0,1-4.337-1.8L56.7,13.265H52.511a2.455,2.455,0,0,1-2.453-2.453h9.684a6.158,6.158,0,0,1,3.831,1.344l3.655,2.925Zm7.359,1.816H70.908a1.228,1.228,0,0,1-1.226-1.226V14.491a1.228,1.228,0,0,1,1.226-1.226h3.679Z" fill="#353535"/>
      <path id="Trazado_1068405" data-name="Trazado 1068405" d="M5,18.359h7.359V11H5Zm2.453-4.906H9.906v2.453H7.453Z" transform="translate(0.906 2.265)" fill="#353535"/>
      <path id="Trazado_1068406" data-name="Trazado 1068406" d="M13,18.359h7.359V11H13Zm2.453-4.906h2.453v2.453H15.453Z" transform="translate(2.717 2.265)" fill="#353535"/>
      <path id="Trazado_1068407" data-name="Trazado 1068407" d="M21,18.359h7.359V11H21Zm2.453-4.906h2.453v2.453H23.453Z" transform="translate(4.529 2.265)" fill="#353535"/>
      <path id="Trazado_1068408" data-name="Trazado 1068408" d="M34.435,23H5V40.17H34.435ZM31.982,37.717H7.453V25.453H31.982Z" transform="translate(0.906 4.982)" fill="#353535"/>
      <path id="Trazado_1068409" data-name="Trazado 1068409" d="M5,54.359H29.529V47H5Zm2.453-4.906H27.076v2.453H7.453Z" transform="translate(0.906 10.417)" fill="#353535"/>
      <path id="Trazado_1068410" data-name="Trazado 1068410" d="M5,39H7.453v2.453H5Z" transform="translate(0.906 8.605)" fill="#353535"/>
      <path id="Trazado_1068411" data-name="Trazado 1068411" d="M9,39H28.623v2.453H9Z" transform="translate(1.812 8.605)" fill="#353535"/>
      <path id="Trazado_1068412" data-name="Trazado 1068412" d="M5,43H29.529v2.453H5Z" transform="translate(0.906 9.511)" fill="#353535"/>
    </g>
  </g>
</svg>
