<svg xmlns="http://www.w3.org/2000/svg" width="175.748" height="91.277" viewBox="0 0 175.748 91.277">
  <g id="Grupo_1230597" data-name="Grupo 1230597" transform="translate(-5429.504 -4780.054)">
    <path id="Trazado_1068591" data-name="Trazado 1068591" d="M8.5,128.227h5.845V105.2l9.013,20.078c1.07,2.408,2.5,3.256,5.354,3.256s4.284-.848,5.354-3.256L43.083,105.2v23.023h5.8V105.248c0-2.23-.893-3.3-2.722-3.883-4.417-1.383-7.407-.178-8.745,2.812l-8.834,19.766-8.566-19.766c-1.294-2.99-4.328-4.195-8.745-2.812-1.874.58-2.766,1.652-2.766,3.883v22.979h0Zm45.242-18.741h5.8v12.672c-.044.713.223,2.32,3.436,2.365,1.606.043,12.537,0,12.626,0V109.441h5.845c.044,0,0,20.568,0,20.658.044,5.086-6.291,6.156-9.191,6.246H53.88v-3.926s18.338.045,18.382,0c3.748-.357,3.3-2.23,3.3-2.855v-1.518H63.205c-5.756-.088-9.415-2.588-9.459-5.488,0-.267.134-12.937,0-13.072ZM179.076,94.9a20.077,20.077,0,0,0-8.656,1.249c-.668.268-1.7.268-1.828,1.116a6.047,6.047,0,0,1,.713,1.428,11.552,11.552,0,0,0,2.365,2.721,32.443,32.443,0,0,0,2.811,2.053c1.785,1.07,3.748,1.65,5.4,2.723,1.027.623,2.008,1.428,2.99,2.141a5.577,5.577,0,0,0,1.383,1.115v-.088a14.015,14.015,0,0,1-.67-1.43l-1.338-1.338a22.173,22.173,0,0,0-4.686-4.461c-1.383-.982-4.506-2.365-5.086-3.971-.045-.045-.09-.045-.09-.09a29.955,29.955,0,0,0,3.035-.715c1.518-.4,2.9-.312,4.461-.713.715-.224,1.428-.4,2.143-.625v-.4a31.645,31.645,0,0,0-2.23-2.632,62.561,62.561,0,0,0-7.318-5.488,45.353,45.353,0,0,0-4.684-2.275c-.492-.223-1.385-.357-1.74-.8a20.87,20.87,0,0,1-1.83-3.436q-1.963-3.817-3.658-7.764a47.758,47.758,0,0,0-2.23-5.087c-4.641-7.585-9.594-12.18-17.312-16.687a21.429,21.429,0,0,0-5.711-1.829c-1.115-.09-2.23-.134-3.346-.224a20.164,20.164,0,0,1-2.053-1.517c-2.543-1.606-9.1-5.131-10.977-.491-1.205,2.9,1.785,5.756,2.855,7.229a20.843,20.843,0,0,1,2.232,3.346c.355.758.4,1.517.713,2.32a60.053,60.053,0,0,0,2.32,6.023,21.447,21.447,0,0,0,1.65,2.767c.357.491,1.027.714,1.115,1.517-.625.892-.668,2.231-1.025,3.346-1.562,5.042-.982,11.244,1.338,14.991.715,1.115,2.365,3.569,4.686,2.633,2.008-.848,1.561-3.347,2.141-5.622.135-.491.045-.848.312-1.205v.089c.58,1.249,1.205,2.454,1.83,3.658a23.958,23.958,0,0,0,5.8,6.023c1.025.8,1.873,2.187,3.256,2.632v-.09h-.133c-.268-.4-.67-.579-.982-.892a26.847,26.847,0,0,1-2.365-2.677,67.127,67.127,0,0,1-5-8.121c-.715-1.383-1.34-2.9-1.918-4.283-.225-.535-.225-1.338-.715-1.651a22.31,22.31,0,0,0-2.143,3.079,25.158,25.158,0,0,0-1.2,6.693c-.18.089-.135.044-.225.134-1.426-.357-1.918-1.83-2.453-3.079a19.639,19.639,0,0,1-.4-11.913c.312-.937,1.7-3.882,1.117-4.774-.27-.848-1.117-1.383-1.607-2.052a15.917,15.917,0,0,1-1.65-2.811c-1.07-2.5-1.562-5.265-2.723-7.763a22.633,22.633,0,0,0-2.23-3.436,21.972,21.972,0,0,1-2.453-3.48c-.223-.491-.535-1.294-.223-1.83a.884.884,0,0,1,.623-.625c.58-.446,2.232.179,2.855.4a26.945,26.945,0,0,1,4.373,2.276c.67.446,1.34,1.293,2.143,1.517h.893c1.428.312,3.033.089,4.371.491a25.134,25.134,0,0,1,6.426,3.079A39.69,39.69,0,0,1,156.5,70.575c.535,1.026.758,1.963,1.205,3.034.938,2.187,2.141,4.417,3.078,6.514a28.473,28.473,0,0,0,3.123,6.023c.715.937,3.391,1.428,4.6,1.918a25.461,25.461,0,0,1,3.035,1.25c1.561.892,3.033,2.008,4.506,3.034.712.5,2.942,1.611,3.032,2.548Z" transform="translate(5421 4734.986)" fill="#00678c" fill-rule="evenodd"/>
    <path id="Trazado_1068592" data-name="Trazado 1068592" d="M133.566,56.124a7.59,7.59,0,0,0-1.828.224v.089h.133a14.319,14.319,0,0,0,1.428,1.829c.312.714.67,1.428.982,2.142l.133-.134a2.4,2.4,0,0,0,.893-2.23c-.223-.268-.268-.58-.49-.893a6.918,6.918,0,0,0-1.251-1.027Z" transform="translate(5421 4734.986)" fill="#00678c" fill-rule="evenodd"/>
    <path id="Trazado_1068593" data-name="Trazado 1068593" d="M85.96,128.227h16.731a12.941,12.941,0,0,0,5.4-1.117c2.5-1.158,3.748-2.721,3.748-4.773v-4.283c0-1.65-1.428-3.256-4.148-4.283a14,14,0,0,0-5-.848H95.642c-2.365,0-3.48-.715-3.748-2.275a2.151,2.151,0,0,1-.045-.535V107.48a1.809,1.809,0,0,1,.045-.49c.268-1.205.892-1.562,2.945-1.74.178,0,.4-.045.58-.045h16.642v-3.881H95.687a16.262,16.262,0,0,0-4.685.49c-3.48,1.115-5,2.811-5,5.8v3.391c0,2.633,2.989,4.863,7.942,5.4.58,0,1.115.045,1.695.045h6.024a2.7,2.7,0,0,1,.623.045c1.875.178,2.633.49,3.213,1.158a1.527,1.527,0,0,1,.447,1.072v3.391a1.906,1.906,0,0,1-.848,1.383,4.181,4.181,0,0,1-2.455.8c-.223,0-.4.045-.625.045H85.96Zm62.2-6.784c0,4.016,2.945,6.246,8.969,6.693.535.045,1.115.09,1.65.09h15.17v-3.883h-15.26c-3.436,0-4.729-.848-4.729-2.9V101.322h-5.8v20.121h0Zm-32.615.223v-13.83c0-3.525,2.453-5.666,7.361-6.336a9.11,9.11,0,0,1,1.562-.09h11.064a9.9,9.9,0,0,1,1.607.09c4.863.67,7.361,6.336,7.361,6.336v13.83c0,2.857-1.07,4.373-3.48,5.355l5.756,5.176h-6.781l-4.641-4.15-4.686.268h-6.2a12.273,12.273,0,0,1-3.436-.49c-3.7-.983-5.486-2.946-5.486-6.159Zm6.291-.355a3.011,3.011,0,0,0,.09.625c.357,1.605,1.873,2.5,4.148,2.5h5.311l-4.863-4.373H133.3l4.238,3.793a2.742,2.742,0,0,0,1.473-1.83,2.714,2.714,0,0,0,.045-.58V108.149a2,2,0,0,0-.045-.492c-.357-1.516-1.873-2.363-4.1-2.363h-8.834c-2.588,0-4.238,1.115-4.238,2.855v13.162h0Zm54.791,6.916h.848v-3.213h1.16v-.67h-3.168v.67h1.16v3.213Zm6.514,0h.758v-3.883h-1.16l-1.025,2.678-1.025-2.678H179.48v3.883h.8v-2.945l1.115,2.945h.58l1.115-2.945h.045v2.945Z" transform="translate(5421 4734.986)" fill="#ce8b2c" fill-rule="evenodd"/>
  </g>
</svg>
