<svg xmlns="http://www.w3.org/2000/svg" width="94.806" height="99.468" viewBox="0 0 94.806 99.468">
  <g id="Grupo_1230206" data-name="Grupo 1230206" transform="translate(-1001.068 -2864.781)">
    <circle id="Elipse_12863" data-name="Elipse 12863" cx="27.545" cy="27.545" r="27.545" transform="translate(1001.068 2864.781)" fill="#c3b7ef"/>
    <g id="server_12392263" transform="translate(1003.138 2864.047)">
      <path id="Trazado_1068640" data-name="Trazado 1068640" d="M76.8,207.348q21.174-.814,42.628.466a7.62,7.62,0,0,1,7.148,7.613v8.224a7.628,7.628,0,0,1-7.628,7.628H67.834a7.628,7.628,0,0,1-7.628-7.628v-8.223a7.635,7.635,0,0,1,7.187-7.616q2.148-.129,4.3-.238" transform="translate(-43.772 -156.328)" fill="none" stroke="#353535" stroke-linecap="round" stroke-linejoin="round" stroke-miterlimit="10" stroke-width="2"/>
      <path id="Trazado_1068641" data-name="Trazado 1068641" d="M118.946,350.088H67.834a7.628,7.628,0,0,0-7.628,7.628v8.223a7.635,7.635,0,0,0,7.187,7.616,432.02,432.02,0,0,0,52.033,0,7.62,7.62,0,0,0,7.148-7.613v-8.224A7.628,7.628,0,0,0,118.946,350.088Z" transform="translate(-43.772 -275.137)" fill="none" stroke="#353535" stroke-linecap="round" stroke-linejoin="round" stroke-miterlimit="10" stroke-width="2"/>
      <path id="Trazado_1068644" data-name="Trazado 1068644" d="M115.465,397.946a2.553,2.553,0,0,1-2.553-2.553v-5.105a2.553,2.553,0,1,1,5.105,0v5.105A2.553,2.553,0,0,1,115.465,397.946Z" transform="translate(-87.544 -306.402)" fill="none" stroke="#353535" stroke-linecap="round" stroke-linejoin="round" stroke-miterlimit="10" stroke-width="2"/>
      <path id="Trazado_1068645" data-name="Trazado 1068645" d="M175.7,397.946a2.553,2.553,0,0,1-2.553-2.553v-5.105a2.553,2.553,0,1,1,5.105,0v5.105A2.553,2.553,0,0,1,175.7,397.946Z" transform="translate(-137.568 -306.402)" fill="none" stroke="#353535" stroke-linecap="round" stroke-linejoin="round" stroke-miterlimit="10" stroke-width="2"/>
      <path id="Trazado_1068646" data-name="Trazado 1068646" d="M235.935,397.946a2.553,2.553,0,0,1-2.553-2.553v-5.105a2.553,2.553,0,1,1,5.105,0v5.105A2.553,2.553,0,0,1,235.935,397.946Z" transform="translate(-187.593 -306.402)" fill="none" stroke="#353535" stroke-linecap="round" stroke-linejoin="round" stroke-miterlimit="10" stroke-width="2"/>
      <path id="Trazado_1068647" data-name="Trazado 1068647" d="M318.05,402.923h-5.983a3.39,3.39,0,0,1-3.39-3.39v-.877a3.39,3.39,0,0,1,3.39-3.39h5.983a3.39,3.39,0,0,1,3.39,3.39v.877A3.39,3.39,0,0,1,318.05,402.923Z" transform="translate(-250.125 -312.656)" fill="none" stroke="#353535" stroke-linecap="round" stroke-linejoin="round" stroke-miterlimit="10" stroke-width="2"/>
      <path id="Trazado_1068648" data-name="Trazado 1068648" d="M58.059,41.768H42.7a5.085,5.085,0,0,1-5.085-5.085v-12.8A5.085,5.085,0,0,1,42.7,18.794H58.059a5.085,5.085,0,0,1,5.085,5.085v12.8A5.085,5.085,0,0,1,58.059,41.768Z" transform="translate(-25.013)" fill="none" stroke="#353535" stroke-linecap="round" stroke-linejoin="round" stroke-miterlimit="10" stroke-width="2"/>
      <line id="Línea_4854" data-name="Línea 4854" x2="25.526" transform="translate(12.605 25.176)" fill="none" stroke="#353535" stroke-linecap="round" stroke-linejoin="round" stroke-miterlimit="10" stroke-width="2"/>
      <path id="Trazado_1068649" data-name="Trazado 1068649" d="M328.82,41.768h15.356a5.085,5.085,0,0,0,5.085-5.085v-12.8a5.085,5.085,0,0,0-5.085-5.085H328.82a5.085,5.085,0,0,0-5.085,5.085v12.8A5.085,5.085,0,0,0,328.82,41.768Z" transform="translate(-262.63)" fill="none" stroke="#353535" stroke-linecap="round" stroke-linejoin="round" stroke-miterlimit="10" stroke-width="2"/>
      <line id="Línea_4855" data-name="Línea 4855" x1="17.868" transform="translate(61.105 25.176)" fill="none" stroke="#353535" stroke-linecap="round" stroke-linejoin="round" stroke-miterlimit="10" stroke-width="2"/>
      <line id="Línea_4856" data-name="Línea 4856" x1="2.553" transform="translate(84.078 25.176)" fill="none" stroke="#353535" stroke-linecap="round" stroke-linejoin="round" stroke-miterlimit="10" stroke-width="2"/>
      <path id="Trazado_1068650" data-name="Trazado 1068650" d="M270.971,131.951V121.7a5.091,5.091,0,0,1,5.085-5.085h3.859" transform="translate(-218.81 -81.242)" fill="none" stroke="#353535" stroke-linecap="round" stroke-linejoin="round" stroke-miterlimit="10" stroke-width="2"/>
      <path id="Trazado_1068651" data-name="Trazado 1068651" d="M211.179,86.618H207.32a10.147,10.147,0,0,0-7.628,3.454,10.147,10.147,0,0,0-7.628-3.454H188.2" transform="translate(-150.074 -56.327)" fill="none" stroke="#353535" stroke-linecap="round" stroke-linejoin="round" stroke-miterlimit="10" stroke-width="2"/>
      <path id="Trazado_1068652" data-name="Trazado 1068652" d="M188.206,116.618h3.859a5.091,5.091,0,0,1,5.085,5.085v10.248" transform="translate(-150.075 -81.242)" fill="none" stroke="#353535" stroke-linecap="round" stroke-linejoin="round" stroke-miterlimit="10" stroke-width="2"/>
      <path id="Trazado_1068653" data-name="Trazado 1068653" d="M451.735,267.265h5.743a3.191,3.191,0,0,1,0,6.382h-5.743" transform="translate(-368.933 -206.353)" fill="none" stroke="#353535" stroke-linecap="round" stroke-linejoin="round" stroke-miterlimit="10" stroke-width="2"/>
      <path id="Trazado_1068654" data-name="Trazado 1068654" d="M16.434,267.265H10.691a3.191,3.191,0,0,0,0,6.382h5.743" transform="translate(0 -206.353)" fill="none" stroke="#353535" stroke-linecap="round" stroke-linejoin="round" stroke-miterlimit="10" stroke-width="2"/>
      <path id="Trazado_1068655" data-name="Trazado 1068655" d="M451.735,401.646h5.743a3.191,3.191,0,0,0,0-6.382h-5.743" transform="translate(-368.933 -312.655)" fill="none" stroke="#353535" stroke-linecap="round" stroke-linejoin="round" stroke-miterlimit="10" stroke-width="2"/>
      <path id="Trazado_1068656" data-name="Trazado 1068656" d="M16.434,401.646H10.691a3.191,3.191,0,0,1,0-6.382h5.743" transform="translate(0 -312.655)" fill="none" stroke="#353535" stroke-linecap="round" stroke-linejoin="round" stroke-miterlimit="10" stroke-width="2"/>
    </g>
  </g>
</svg>
