<svg xmlns="http://www.w3.org/2000/svg" width="96.131" height="97.847" viewBox="0 0 96.131 97.847">
  <g id="Grupo_1230179" data-name="Grupo 1230179" transform="translate(-1001.068 -2864.781)">
    <circle id="Elipse_12863" data-name="Elipse 12863" cx="27.545" cy="27.545" r="27.545" transform="translate(1001.068 2864.781)" fill="#c3b7ef"/>
    <g id="developer_16522307" transform="translate(1017.485 2883.16)">
      <path id="Trazado_1068423" data-name="Trazado 1068423" d="M19.57,35.2a3.709,3.709,0,1,1-.154-7.417" transform="translate(10.025 18.031)" fill="none" stroke="#353535" stroke-linecap="round" stroke-miterlimit="10" stroke-width="3"/>
      <path id="Trazado_1068424" data-name="Trazado 1068424" d="M21.981,43.874a9.894,9.894,0,1,1,0-19.787" transform="translate(7.537 15.542)" fill="none" stroke="#353535" stroke-linecap="round" stroke-miterlimit="10" stroke-width="3"/>
      <g id="Grupo_1230568" data-name="Grupo 1230568" transform="translate(1.073 21.078)">
        <path id="Trazado_1068425" data-name="Trazado 1068425" d="M56.216,29.732H77.967V53.157H31.118V29.732H49.523L52.324,24,46.98,18.659l-5.953,2.83-5.5-2.278L34.579,13H24.4l-.946,6.21-5.5,2.278L12,18.659,6.659,24l2.83,5.953c-.91,2.2-2.278,5.3-2.278,5.3L1,36.934V45.42l6.21,2.012,2.278,5.5-2.83,5.953L12,64.23l5.953-2.83,5.5,2.278.946,6.211H34.58l.946-6.21,5.5-2.278,5.953,2.83,5.344-5.344-2.662-5.171" transform="translate(-1 -13)" fill="none" stroke="#353535" stroke-linecap="round" stroke-miterlimit="10" stroke-width="3"/>
        <g id="Grupo_1230561" data-name="Grupo 1230561" transform="translate(35.137 33.464)">
          <path id="Trazado_1068426" data-name="Trazado 1068426" d="M22,33h3.346" transform="translate(-22 -33)" fill="none" stroke="#353535" stroke-miterlimit="10" stroke-width="3"/>
          <path id="Trazado_1068427" data-name="Trazado 1068427" d="M26,33h3.346" transform="translate(-19.307 -33)" fill="none" stroke="#353535" stroke-miterlimit="10" stroke-width="3"/>
        </g>
        <path id="Trazado_1068428" data-name="Trazado 1068428" d="M30,33H40.039" transform="translate(18.523 0.464)" fill="none" stroke="#353535" stroke-miterlimit="10" stroke-width="3"/>
        <g id="Grupo_1230562" data-name="Grupo 1230562" transform="translate(61.908 33.464)">
          <path id="Trazado_1068429" data-name="Trazado 1068429" d="M38,33h3.346" transform="translate(-38 -33)" fill="none" stroke="#353535" stroke-miterlimit="10" stroke-width="3"/>
          <path id="Trazado_1068430" data-name="Trazado 1068430" d="M42,33h3.346" transform="translate(-35.307 -33)" fill="none" stroke="#353535" stroke-miterlimit="10" stroke-width="3"/>
        </g>
        <g id="Grupo_1230563" data-name="Grupo 1230563" transform="translate(35.137 23.425)">
          <path id="Trazado_1068431" data-name="Trazado 1068431" d="M22,27h3.346" transform="translate(-22 -27)" fill="none" stroke="#353535" stroke-miterlimit="10" stroke-width="3"/>
          <path id="Trazado_1068432" data-name="Trazado 1068432" d="M26,27h3.346" transform="translate(-19.307 -27)" fill="none" stroke="#353535" stroke-miterlimit="10" stroke-width="3"/>
        </g>
        <g id="Grupo_1230564" data-name="Grupo 1230564" transform="translate(48.523 23.425)">
          <path id="Trazado_1068433" data-name="Trazado 1068433" d="M30,27h3.346" transform="translate(-30 -27)" fill="none" stroke="#353535" stroke-miterlimit="10" stroke-width="3"/>
          <path id="Trazado_1068434" data-name="Trazado 1068434" d="M34,27h3.346" transform="translate(-27.307 -27)" fill="none" stroke="#353535" stroke-miterlimit="10" stroke-width="3"/>
        </g>
        <g id="Grupo_1230565" data-name="Grupo 1230565" transform="translate(61.908 23.425)">
          <path id="Trazado_1068435" data-name="Trazado 1068435" d="M38,27h3.346" transform="translate(-38 -27)" fill="none" stroke="#353535" stroke-miterlimit="10" stroke-width="3"/>
          <path id="Trazado_1068436" data-name="Trazado 1068436" d="M42,27h3.346" transform="translate(-35.307 -27)" fill="none" stroke="#353535" stroke-miterlimit="10" stroke-width="3"/>
        </g>
        <g id="Grupo_1230566" data-name="Grupo 1230566" transform="translate(35.137 28.444)">
          <path id="Trazado_1068437" data-name="Trazado 1068437" d="M22,30h6.693" transform="translate(-22 -30)" fill="none" stroke="#353535" stroke-miterlimit="10" stroke-width="3"/>
          <path id="Trazado_1068438" data-name="Trazado 1068438" d="M28,30h3.346" transform="translate(-17.961 -30)" fill="none" stroke="#353535" stroke-miterlimit="10" stroke-width="3"/>
        </g>
        <path id="Trazado_1068439" data-name="Trazado 1068439" d="M32,30h3.346" transform="translate(19.869 -1.556)" fill="none" stroke="#353535" stroke-miterlimit="10" stroke-width="3"/>
        <g id="Grupo_1230567" data-name="Grupo 1230567" transform="translate(58.562 28.444)">
          <path id="Trazado_1068440" data-name="Trazado 1068440" d="M36,30h3.346" transform="translate(-36 -30)" fill="none" stroke="#353535" stroke-miterlimit="10" stroke-width="3"/>
          <path id="Trazado_1068441" data-name="Trazado 1068441" d="M40,30h6.693" transform="translate(-33.307 -30)" fill="none" stroke="#353535" stroke-miterlimit="10" stroke-width="3"/>
        </g>
      </g>
      <g id="Grupo_1230570" data-name="Grupo 1230570" transform="translate(0.891 1)">
        <g id="Grupo_1230569" data-name="Grupo 1230569">
          <path id="Trazado_1068442" data-name="Trazado 1068442" d="M36.137,1H1V39.484" transform="translate(-0.818 -1)" fill="none" stroke="#353535" stroke-miterlimit="10" stroke-width="3"/>
          <path id="Trazado_1068443" data-name="Trazado 1068443" d="M36.211,5H.891" transform="translate(-0.891 1.693)" fill="none" stroke="#353535" stroke-miterlimit="10" stroke-width="3"/>
          <path id="Trazado_1068444" data-name="Trazado 1068444" d="M49.346,11H46" transform="translate(29.476 5.732)" fill="none" stroke="#353535" stroke-miterlimit="10" stroke-width="3"/>
        </g>
        <path id="Trazado_1068445" data-name="Trazado 1068445" d="M47,14V24.039" transform="translate(30.15 7.752)" fill="none" stroke="#353535" stroke-miterlimit="10" stroke-width="3"/>
      </g>
      <path id="Trazado_1068446" data-name="Trazado 1068446" d="M25,1H61.81V21.078H25Z" transform="translate(16.23)" fill="none" stroke="#353535" stroke-miterlimit="10" stroke-width="3"/>
      <g id="Grupo_1230571" data-name="Grupo 1230571" transform="translate(49.178 6.856)">
        <path id="Trazado_1068447" data-name="Trazado 1068447" d="M33.933,4.5,29.75,8.683l4.183,4.183" transform="translate(-29.75 -4.5)" fill="none" stroke="#353535" stroke-miterlimit="10" stroke-width="3"/>
        <path id="Trazado_1068448" data-name="Trazado 1068448" d="M39.75,4.5l4.183,4.183L39.75,12.866" transform="translate(-23.018 -4.5)" fill="none" stroke="#353535" stroke-miterlimit="10" stroke-width="3"/>
        <path id="Trazado_1068449" data-name="Trazado 1068449" d="M34.333,12.866,39.911,4.5" transform="translate(-26.665 -4.5)" fill="none" stroke="#353535" stroke-miterlimit="10" stroke-width="3"/>
      </g>
      <path id="Trazado_1068450" data-name="Trazado 1068450" d="M38,41h3.346" transform="translate(24.982 26.928)" fill="none" stroke="#353535" stroke-miterlimit="10" stroke-width="3"/>
      <path id="Trazado_1068451" data-name="Trazado 1068451" d="M42,41h3.346" transform="translate(27.675 26.928)" fill="none" stroke="#353535" stroke-miterlimit="10" stroke-width="3"/>
      <path id="Trazado_1068452" data-name="Trazado 1068452" d="M46,41h3.346" transform="translate(30.367 26.928)" fill="none" stroke="#353535" stroke-miterlimit="10" stroke-width="3"/>
    </g>
  </g>
</svg>
