<svg xmlns="http://www.w3.org/2000/svg" xmlns:xlink="http://www.w3.org/1999/xlink" width="108" height="108" viewBox="0 0 108 108">
  <defs>
    <filter id="Trazado_904820" x="0" y="0" width="108" height="108" filterUnits="userSpaceOnUse">
      <feOffset dy="3" input="SourceAlpha"/>
      <feGaussianBlur stdDeviation="3" result="blur"/>
      <feFlood flood-opacity="0.161"/>
      <feComposite operator="in" in2="blur"/>
      <feComposite in="SourceGraphic"/>
    </filter>
  </defs>
  <g id="Grupo_1230365" data-name="Grupo 1230365" transform="translate(-620 -334)">
    <g id="Grupo_1229419" data-name="Grupo 1229419" transform="translate(629 340)">
      <g id="Grupo_1211546" data-name="Grupo 1211546" transform="translate(0 0)">
        <g id="Grupo_1173585" data-name="Grupo 1173585">
          <g id="Grupo_1173428" data-name="Grupo 1173428">
            <g id="Grupo_1171958" data-name="Grupo 1171958">
              <g id="Grupo_1167341" data-name="Grupo 1167341">
                <g id="Grupo_1166792" data-name="Grupo 1166792">
                  <g transform="matrix(1, 0, 0, 1, -9, -6)" filter="url(#Trazado_904820)">
                    <g id="Trazado_904820-2" data-name="Trazado 904820" transform="translate(9 6)" fill="#fef9e5">
                      <path d="M 44.99999618530273 88.50003051757812 C 39.12687301635742 88.50003051757812 33.43022155761719 87.35010528564453 28.06829643249512 85.08219146728516 C 22.88852119445801 82.89134216308594 18.23629570007324 79.75461578369141 14.24084663391113 75.75916290283203 C 10.24540901184082 71.76371765136719 7.108683586120605 67.11148834228516 4.917821407318115 61.93172836303711 C 2.649921178817749 56.56978988647461 1.499996185302734 50.87314987182617 1.499996185302734 45.00002670288086 C 1.499996185302734 39.12690353393555 2.649921178817749 33.43025207519531 4.917821407318115 28.06832695007324 C 7.108683586120605 22.88855171203613 10.24540901184082 18.23632621765137 14.24084663391113 14.24087715148926 C 18.23629570007324 10.24543952941895 22.88852119445801 7.10871410369873 28.06829643249512 4.91785192489624 C 33.43022155761719 2.649951696395874 39.12687301635742 1.500026702880859 44.99999618530273 1.500026702880859 C 50.87311935424805 1.500026702880859 56.56977081298828 2.649951696395874 61.93169784545898 4.91785192489624 C 67.11147308349609 7.10871410369873 71.76369476318359 10.24543952941895 75.75914764404297 14.24087715148926 C 79.75458526611328 18.23632621765137 82.89131164550781 22.88855171203613 85.08216857910156 28.06832695007324 C 87.35007476806641 33.43025207519531 88.5 39.12690353393555 88.5 45.00002670288086 C 88.5 50.87314987182617 87.35007476806641 56.56978988647461 85.08216857910156 61.93172836303711 C 82.89131164550781 67.11148834228516 79.75458526611328 71.76371765136719 75.75914764404297 75.75916290283203 C 71.76369476318359 79.75461578369141 67.11147308349609 82.89134216308594 61.93169784545898 85.08219146728516 C 56.56977081298828 87.35010528564453 50.87311935424805 88.50003051757812 44.99999618530273 88.50003051757812 Z" stroke="none"/>
                      <path d="M 44.99999618530273 3.000022888183594 C 39.32870864868164 3.000022888183594 33.82865142822266 4.110084533691406 28.65262603759766 6.299369812011719 C 23.65165710449219 8.414596557617188 19.15968322753906 11.44336700439453 15.301513671875 15.30154418945312 C 11.44333648681641 19.15971374511719 8.414566040039062 23.65168762207031 6.299339294433594 28.65265655517578 C 4.110054016113281 33.82868194580078 2.999992370605469 39.32873916625977 2.999992370605469 45.00002670288086 C 2.999992370605469 50.67131423950195 4.110054016113281 56.17135620117188 6.299339294433594 61.34739685058594 C 8.414566040039062 66.34837341308594 11.44333648681641 70.84032440185547 15.301513671875 74.69850921630859 C 19.15968322753906 78.55668640136719 23.65165710449219 81.58545684814453 28.65262603759766 83.70068359375 C 33.82865142822266 85.88996887207031 39.32870864868164 87.00003051757812 44.99999618530273 87.00003051757812 C 50.67128372192383 87.00003051757812 56.17134094238281 85.88996887207031 61.34736633300781 83.70068359375 C 66.34834289550781 81.58545684814453 70.84030914306641 78.55668640136719 74.69847869873047 74.69850921630859 C 78.55665588378906 70.84032440185547 81.58542633056641 66.34837341308594 83.70065307617188 61.34739685058594 C 85.88993835449219 56.17135620117188 87 50.67131423950195 87 45.00002670288086 C 87 39.32873916625977 85.88993835449219 33.82868194580078 83.70065307617188 28.65265655517578 C 81.58542633056641 23.65168762207031 78.55665588378906 19.15971374511719 74.69847869873047 15.30154418945312 C 70.84030914306641 11.44336700439453 66.34834289550781 8.414596557617188 61.34736633300781 6.299369812011719 C 56.17134094238281 4.110084533691406 50.67128372192383 3.000022888183594 44.99999618530273 3.000022888183594 M 44.99999618530273 2.288818359375e-05 C 69.85281372070312 2.288818359375e-05 90 20.14720916748047 90 45.00002670288086 C 90 69.85282897949219 69.85281372070312 90.00003051757812 44.99999618530273 90.00003051757812 C 20.14717864990234 90.00003051757812 -7.62939453125e-06 69.85282897949219 -7.62939453125e-06 45.00002670288086 C -7.62939453125e-06 20.14720916748047 20.14717864990234 2.288818359375e-05 44.99999618530273 2.288818359375e-05 Z" stroke="none" fill="#f6c810"/>
                    </g>
                  </g>
                </g>
              </g>
            </g>
          </g>
        </g>
      </g>
    </g>
    <g id="web-programming_9722601" transform="translate(644.732 355.732)">
      <path id="Trazado_1067309" data-name="Trazado 1067309" d="M33.721,57.471A13.137,13.137,0,0,1,35.855,52H27.32a13.137,13.137,0,0,1,2.134,5.471l2.134.912Z" transform="translate(-2.319 -4.494)" fill="#4e3d4d"/>
      <path id="Trazado_1067310" data-name="Trazado 1067310" d="M38.59,61.648A3.647,3.647,0,0,0,34.943,58h-7.3A3.647,3.647,0,0,0,24,61.648Z" transform="translate(-2.027 -5.023)" fill="#615260"/>
      <path id="Trazado_1067311" data-name="Trazado 1067311" d="M4.015,16H54.7a2.016,2.016,0,0,1,2.015,2.015v28.8A2.016,2.016,0,0,1,54.7,48.828H4.015A2.016,2.016,0,0,1,2,46.812v-28.8A2.016,2.016,0,0,1,4.015,16Z" transform="translate(-0.088 -1.322)" fill="#7ad7ee"/>
      <path id="Trazado_1067312" data-name="Trazado 1067312" d="M2,46.812C29.6,43.9,47.714,34.032,54.7,16a2.016,2.016,0,0,1,2.015,2.015v28.8A2.016,2.016,0,0,1,54.7,48.828H4.015A2.016,2.016,0,0,1,2,46.812Z" transform="translate(-0.088 -1.322)" fill="#4bc3ef"/>
      <path id="Trazado_1067313" data-name="Trazado 1067313" d="M56.713,45.912A.912.912,0,0,0,55.8,45H2.912A.912.912,0,0,0,2,45.912v2.544a2.928,2.928,0,0,0,2.927,2.927H53.786a2.928,2.928,0,0,0,2.927-2.927Z" transform="translate(-0.088 -3.877)" fill="#615260" fill-rule="evenodd"/>
      <path id="Trazado_1067314" data-name="Trazado 1067314" d="M46.515,31.18H13.961A1.958,1.958,0,0,1,12,29.22V3.961A1.958,1.958,0,0,1,13.961,2H46.515a1.958,1.958,0,0,1,1.961,1.961V29.22A1.958,1.958,0,0,1,46.515,31.18Z" transform="translate(-0.969 -0.088)" fill="#eceaec"/>
      <path id="Trazado_1067315" data-name="Trazado 1067315" d="M46.515,31.18H13.961A1.958,1.958,0,0,1,12,29.22C30.056,27.821,41.491,18.666,46.515,2a1.958,1.958,0,0,1,1.961,1.961V29.22A1.958,1.958,0,0,1,46.515,31.18Z" transform="translate(-0.969 -0.088)" fill="#dbd8db"/>
      <path id="Trazado_1067316" data-name="Trazado 1067316" d="M12,9.3V3.961A1.958,1.958,0,0,1,13.961,2H46.515a1.958,1.958,0,0,1,1.961,1.961V9.3Z" transform="translate(-0.969 -0.088)" fill="#ffe077"/>
      <g id="Grupo_1230363" data-name="Grupo 1230363" transform="translate(42.704 1.912)">
        <path id="Trazado_1067317" data-name="Trazado 1067317" d="M45.126,11.592a47.6,47.6,0,0,0,2.841-7.3,1.958,1.958,0,0,1,1.961,1.961v5.334Z" transform="translate(-45.126 -4.297)" fill="#ffc244"/>
      </g>
      <g id="Grupo_1230364" data-name="Grupo 1230364" transform="translate(1 1)">
        <path id="Trazado_1067318" data-name="Trazado 1067318" d="M5.559,47.828H3.918a1.054,1.054,0,0,1-1.094-1.094V43.268h53.8a.912.912,0,0,0,0-1.824H2.824V17.918a1.054,1.054,0,0,1,1.094-1.094H7.383a.912.912,0,1,0,0-1.824H3.918A2.881,2.881,0,0,0,1,17.918V46.733a2.881,2.881,0,0,0,2.918,2.918H5.559a.912.912,0,0,0,0-1.824Z" transform="translate(-1 -2.234)"/>
        <path id="Trazado_1067319" data-name="Trazado 1067319" d="M10.212,51a.912.912,0,0,0,0,1.824h1.55a.912.912,0,0,0,0-1.824Z" transform="translate(-1.731 -5.406)"/>
        <path id="Trazado_1067320" data-name="Trazado 1067320" d="M57.153,30.9a.862.862,0,0,0-.912.912V48.135a1.054,1.054,0,0,1-1.094,1.094H15.025a.912.912,0,1,0,0,1.824H25.055A11.271,11.271,0,0,1,26.514,54.7s-4.012-.182-4.833,3.648H7.912a.912.912,0,1,0,0,1.824H42.563a.912.912,0,0,0,0-1.824H37.913A4.9,4.9,0,0,0,33.08,54.7a11.271,11.271,0,0,1,1.459-3.648H55.147a2.881,2.881,0,0,0,2.918-2.918V31.812a.914.914,0,0,0-.912-.912ZM32.441,51.053A14.331,14.331,0,0,0,31.165,54.7H28.429a14.331,14.331,0,0,0-1.277-3.648Zm1,5.471A2.656,2.656,0,0,1,36,58.348H23.6a2.656,2.656,0,0,1,2.553-1.824Z" transform="translate(-1.529 -3.635)"/>
        <path id="Trazado_1067321" data-name="Trazado 1067321" d="M59.377,15H55.912a.912.912,0,1,0,0,1.824h3.465a1.054,1.054,0,0,1,1.094,1.094v8.936a.912.912,0,0,0,1.824,0V17.918A2.881,2.881,0,0,0,59.377,15Z" transform="translate(-5.759 -2.234)"/>
        <path id="Trazado_1067322" data-name="Trazado 1067322" d="M60.854,61H49.912a.912.912,0,1,0,0,1.824H60.854a.912.912,0,1,0,0-1.824Z" transform="translate(-5.23 -6.287)"/>
        <path id="Trazado_1067323" data-name="Trazado 1067323" d="M3.736,61H1.912a.912.912,0,1,0,0,1.824H3.736a.912.912,0,1,0,0-1.824Z" transform="translate(-1 -6.287)"/>
        <path id="Trazado_1067324" data-name="Trazado 1067324" d="M13.827,32h1.733a.912.912,0,1,0,0-1.824H13.827a1.012,1.012,0,0,1-1-1V10.119H47.475V29.177a1.035,1.035,0,0,1-1.094,1H19.207a.912.912,0,0,0,0,1.824H46.381A2.921,2.921,0,0,0,49.3,29.177V3.827A2.862,2.862,0,0,0,46.381,1H44.74a.862.862,0,0,0-.912.912.862.862,0,0,0,.912.912h1.641a1.035,1.035,0,0,1,1.094,1V8.3H12.824V3.827a1.012,1.012,0,0,1,1-1H41.183a.862.862,0,0,0,.912-.912A.862.862,0,0,0,41.183,1H13.827A2.841,2.841,0,0,0,11,3.827V29.086A2.862,2.862,0,0,0,13.827,32Z" transform="translate(-1.881 -1)"/>
        <path id="Trazado_1067325" data-name="Trazado 1067325" d="M27,5.912a.862.862,0,0,0,.912.912H46.149a.862.862,0,0,0,.912-.912A.862.862,0,0,0,46.149,5H27.912A.862.862,0,0,0,27,5.912Z" transform="translate(-3.291 -1.352)"/>
        <path id="Trazado_1067326" data-name="Trazado 1067326" d="M24.021,15.274a.881.881,0,0,0-1.277,0l-5.471,5.471a.881.881,0,0,0,0,1.277l5.471,5.471a.926.926,0,0,0,1.277,0,.88.88,0,0,0,0-1.277l-4.833-4.833,4.833-4.833a.881.881,0,0,0,0-1.277Z" transform="translate(-2.41 -2.234)"/>
        <path id="Trazado_1067327" data-name="Trazado 1067327" d="M39.274,27.493c.365.456,1.094.182,1.277,0l5.471-5.471a.881.881,0,0,0,0-1.277L40.55,15.274a.9.9,0,0,0-1.277,1.277l4.833,4.833-4.833,4.833A.881.881,0,0,0,39.274,27.493Z" transform="translate(-4.349 -2.234)"/>
        <path id="Trazado_1067328" data-name="Trazado 1067328" d="M28.635,27.4l7.3-10.943a.923.923,0,0,0-1.55-1L27.085,26.4a.9.9,0,0,0,.274,1.277c.456.365,1.094-.091,1.277-.274Z" transform="translate(-3.285 -2.236)"/>
      </g>
      <ellipse id="Elipse_14149" data-name="Elipse 14149" cx="1" cy="0.5" rx="1" ry="0.5" transform="translate(17.268 5.268)"/>
      <circle id="Elipse_14150" data-name="Elipse 14150" cx="0.5" cy="0.5" r="0.5" transform="translate(21.268 5.268)"/>
      <ellipse id="Elipse_14151" data-name="Elipse 14151" cx="1" cy="0.5" rx="1" ry="0.5" transform="translate(14.268 5.268)"/>
    </g>
  </g>
</svg>
