<svg xmlns="http://www.w3.org/2000/svg" xmlns:xlink="http://www.w3.org/1999/xlink" width="282.034" height="205.257" viewBox="0 0 282.034 205.257">
  <defs>
    <linearGradient id="linear-gradient" x1="0.5" x2="0.5" y2="1" gradientUnits="objectBoundingBox">
      <stop offset="0" stop-color="#903cdf"/>
      <stop offset="1" stop-color="#481e70"/>
    </linearGradient>
    <clipPath id="clip-path">
      <rect id="Rectángulo_424870" data-name="Rectángulo 424870" width="282.034" height="205.257" transform="translate(0 0)" fill="none"/>
    </clipPath>
  </defs>
  <g id="Grupo_1230381" data-name="Grupo 1230381" transform="translate(-244.951 -1345.497)">
    <g id="Grupo_1229454" data-name="Grupo 1229454" transform="translate(5 -70)">
      <rect id="Rectángulo_423504" data-name="Rectángulo 423504" width="214" height="56" rx="9" transform="translate(268 1494)" fill="url(#linear-gradient)"/>
    </g>
    <g id="Grupo_1230380" data-name="Grupo 1230380" transform="translate(244.951 1345.5)">
      <g id="Grupo_1230380-2" data-name="Grupo 1230380" transform="translate(0 -0.003)" clip-path="url(#clip-path)">
        <path id="Trazado_1067600" data-name="Trazado 1067600" d="M2164.867,992.978a2.858,2.858,0,0,1,1.016-1.259,4.058,4.058,0,0,1,1.577-.622,11.513,11.513,0,0,1,2.062-.167h1.334v2.881h-1.395a1.382,1.382,0,0,0-1.35.607,3.168,3.168,0,0,0-.318,1.486v4.792a5.246,5.246,0,0,1-.349,2,2.3,2.3,0,0,1-1.5,1.244,2.352,2.352,0,0,1,1.44,1.107,3.671,3.671,0,0,1,.409,1.744v5.186a3.169,3.169,0,0,0,.318,1.486,1.381,1.381,0,0,0,1.35.607h1.395v2.881h-1.334a11.514,11.514,0,0,1-2.062-.167,4.06,4.06,0,0,1-1.577-.622,2.857,2.857,0,0,1-1.016-1.259,5.262,5.262,0,0,1-.349-2.077v-5.065a2.972,2.972,0,0,0-.44-1.759,1.768,1.768,0,0,0-1.532-.607h-.182v-2.911h.182a1.8,1.8,0,0,0,1.517-.591,2.548,2.548,0,0,0,.455-1.592v-5.247a5.262,5.262,0,0,1,.349-2.077" transform="translate(-1904.381 -872.706)" fill="#ff5183"/>
        <path id="Trazado_1067601" data-name="Trazado 1067601" d="M2299.57,1001.894a1.8,1.8,0,0,0,1.516.591h.182v2.911h-.182a1.766,1.766,0,0,0-1.531.606,2.971,2.971,0,0,0-.44,1.759v5.065a5.256,5.256,0,0,1-.349,2.077,2.855,2.855,0,0,1-1.016,1.259,4.069,4.069,0,0,1-1.592.622,11.583,11.583,0,0,1-2.047.167h-1.334v-2.881h1.395a1.38,1.38,0,0,0,1.35-.606,3.169,3.169,0,0,0,.319-1.486v-5.186a3.665,3.665,0,0,1,.409-1.744,2.351,2.351,0,0,1,1.44-1.107,2.3,2.3,0,0,1-1.5-1.243,5.246,5.246,0,0,1-.349-2V995.9a3.167,3.167,0,0,0-.319-1.486,1.38,1.38,0,0,0-1.35-.607h-1.395V990.93h1.334a11.582,11.582,0,0,1,2.047.167,4.068,4.068,0,0,1,1.592.622,2.855,2.855,0,0,1,1.016,1.259,5.258,5.258,0,0,1,.349,2.077v5.247a2.547,2.547,0,0,0,.455,1.592" transform="translate(-2019.234 -872.705)" fill="#ff5183"/>
        <path id="Trazado_1067602" data-name="Trazado 1067602" d="M283.9,978.16c-8.437-6.2-20.393-9.619-31.047-7.984v-.336c-3.783-42.868-86.387-67.13-154.445,13.1,8.625.107,17.682,2.9,26.385,8.268l.185.115-.572.927-.185-.114c-9.162-5.646-18.708-8.386-27.684-8.079-.343.012-.686.023-1.025.044-.4.024-.794.059-1.189.1-.412.039-.823.079-1.228.13-.338.042-.675.092-1.011.143-.444.068-.884.141-1.319.224q-.46.087-.916.187-.667.145-1.32.311-.446.114-.89.24c-20.129,5.706-29.431,27.3-13.345,38.436l22.513,0v0h35.767v0l120.282-.005H276a30.085,30.085,0,0,0,17.784-28.044c-.214-7.293-4.12-13.426-9.886-17.665" transform="translate(-58.221 -819.162)" fill="#ff5183"/>
        <path id="Trazado_1067603" data-name="Trazado 1067603" d="M1266.1,989.657a14.512,14.512,0,0,0-2.674,4.769,1.647,1.647,0,0,0,1.141,2.01,1.672,1.672,0,0,0,2.01-1.141q.153-.463.341-.912l-.165.39a12.514,12.514,0,0,1,1.608-2.757l-.255.331q.149-.192.306-.379a1.751,1.751,0,0,0,.479-1.155,1.662,1.662,0,0,0-.479-1.155,1.643,1.643,0,0,0-1.155-.479,1.6,1.6,0,0,0-1.156.479" transform="translate(-1112.635 -871.162)" fill="#fefefe"/>
        <path id="Trazado_1067604" data-name="Trazado 1067604" d="M1383.44,1096.913a4.211,4.211,0,0,1,.542.361l-.331-.255a10.632,10.632,0,0,1,1.787,1.889l-.255-.331a18.265,18.265,0,0,1,1.109,1.589,1.706,1.706,0,0,0,.976.751,1.635,1.635,0,0,0,1.846-2.4c-.228-.371-.477-.731-.732-1.083a16.489,16.489,0,0,0-1.9-2.271,6.865,6.865,0,0,0-1.394-1.071,1.709,1.709,0,0,0-1.259-.165,1.667,1.667,0,0,0-.976.751,1.649,1.649,0,0,0-.165,1.259,1.675,1.675,0,0,0,.751.976" transform="translate(-1217.671 -963.365)" fill="#fefefe"/>
        <path id="Trazado_1067605" data-name="Trazado 1067605" d="M1330.611,1247.237l-2.431,3.012a1.82,1.82,0,0,0-.479,1.156,1.661,1.661,0,0,0,.479,1.155,1.644,1.644,0,0,0,1.155.479,1.589,1.589,0,0,0,1.156-.479l2.43-3.012a1.818,1.818,0,0,0,.479-1.155,1.663,1.663,0,0,0-.479-1.155,1.645,1.645,0,0,0-1.155-.479,1.587,1.587,0,0,0-1.155.479" transform="translate(-1169.298 -1098.011)" fill="#fefefe"/>
        <path id="Trazado_1067606" data-name="Trazado 1067606" d="M928.1,1157.5l-1.391-3.255a1.632,1.632,0,0,0-.977-.751,1.672,1.672,0,0,0-1.259.165,1.651,1.651,0,0,0-.751.977l-.058.434a1.627,1.627,0,0,0,.223.825l1.391,3.255a1.631,1.631,0,0,0,.977.751,1.669,1.669,0,0,0,1.259-.165,1.649,1.649,0,0,0,.751-.977l.058-.434a1.628,1.628,0,0,0-.223-.825" transform="translate(-813.461 -1015.827)" fill="#fefefe"/>
        <path id="Trazado_1067607" data-name="Trazado 1067607" d="M710.813,1083.636l-2,3.487a1.7,1.7,0,0,0-.165,1.259,1.634,1.634,0,0,0,2.987.39l2-3.487a1.7,1.7,0,0,0,.165-1.259,1.634,1.634,0,0,0-2.987-.39" transform="translate(-624.053 -953.653)" fill="#fefefe"/>
        <path id="Trazado_1067608" data-name="Trazado 1067608" d="M882.006,1022.068l3.268-.021a1.69,1.69,0,0,0,1.155-.479,1.634,1.634,0,0,0,0-2.311,1.689,1.689,0,0,0-1.155-.478l-3.268.021a1.69,1.69,0,0,0-1.155.479,1.634,1.634,0,0,0,0,2.311,1.689,1.689,0,0,0,1.155.479" transform="translate(-775.337 -897.232)" fill="#fefefe"/>
        <path id="Trazado_1067609" data-name="Trazado 1067609" d="M1611.722,1302.33a9.291,9.291,0,0,1,1.068.707l-.331-.255a9.175,9.175,0,0,1,1.634,1.634l-.255-.33q.15.2.29.4a1.748,1.748,0,0,0,.977.751,1.671,1.671,0,0,0,1.259-.165,1.649,1.649,0,0,0,.751-.977,1.623,1.623,0,0,0-.165-1.259,10.881,10.881,0,0,0-3.578-3.327,1.7,1.7,0,0,0-1.259-.165,1.635,1.635,0,0,0-1.141,2.01,1.688,1.688,0,0,0,.751.977" transform="translate(-1418.717 -1144.275)" fill="#fefefe"/>
        <path id="Trazado_1067610" data-name="Trazado 1067610" d="M1785.4,1334.155l-2.453,1.631a1.735,1.735,0,0,0-.751.977,1.24,1.24,0,0,0-.029.652,1.214,1.214,0,0,0,.194.608,1.634,1.634,0,0,0,2.235.586l2.453-1.631a1.731,1.731,0,0,0,.751-.977,1.238,1.238,0,0,0,.029-.651,1.215,1.215,0,0,0-.194-.607,1.634,1.634,0,0,0-2.236-.586" transform="translate(-1569.513 -1174.789)" fill="#fefefe"/>
        <path id="Trazado_1067611" data-name="Trazado 1067611" d="M1850.847,1483.626l3.077,1.765a1.7,1.7,0,0,0,1.259.165,1.634,1.634,0,0,0,1.141-2.01,1.7,1.7,0,0,0-.751-.976l-3.077-1.766a1.7,1.7,0,0,0-1.259-.165,1.668,1.668,0,0,0-.977.751,1.651,1.651,0,0,0-.165,1.259,1.7,1.7,0,0,0,.751.977" transform="translate(-1629.313 -1303.941)" fill="#fefefe"/>
        <path id="Trazado_1067612" data-name="Trazado 1067612" d="M177.628,1425.611l-3.053,4.042a1.641,1.641,0,0,0-.165,1.259,1.665,1.665,0,0,0,.751.976,1.649,1.649,0,0,0,1.259.165l.39-.165a1.639,1.639,0,0,0,.586-.586l3.053-4.042a1.64,1.64,0,0,0,.165-1.259,1.635,1.635,0,0,0-2.01-1.141l-.39.165a1.639,1.639,0,0,0-.586.586" transform="translate(-153.554 -1254.81)" fill="#fefefe"/>
        <path id="Trazado_1067613" data-name="Trazado 1067613" d="M394.682,1406.487a8.6,8.6,0,0,1,.817,1.5l-.165-.39a8.616,8.616,0,0,1,.474,1.527,1.634,1.634,0,0,0,2.986.391,1.79,1.79,0,0,0,.165-1.259,9.679,9.679,0,0,0-1.456-3.415,1.742,1.742,0,0,0-.977-.751,1.669,1.669,0,0,0-1.259.165,1.649,1.649,0,0,0-.751.977,1.627,1.627,0,0,0,.165,1.259" transform="translate(-347.401 -1236.521)" fill="#fefefe"/>
        <path id="Trazado_1067614" data-name="Trazado 1067614" d="M277.438,1491.421c-3.973-.337-120.939.6-136.912,3-17.777,2.672-35.614,5.349-53.587,5.726-6.47.136-13.943-.521-17.691-5.8a17.04,17.04,0,0,1-2.334-5.427c-2.126,7.111-.169,14.641,7.379,19.867l22.513,0v0h35.766l120.282-.005H276a30.085,30.085,0,0,0,17.784-28.044c-2.352,7.693-8.706,11.325-16.35,10.677" transform="translate(-58.222 -1304.081)" fill="#ff2e69"/>
        <path id="Trazado_1067615" data-name="Trazado 1067615" d="M966.423,850.625s.787,8.576,1.388,12.744,6.4,6.891,13.3,6.619,13.049-4.762,12.14-9.672-3.38-15.112-3.38-15.112" transform="translate(-851.123 -744.365)" fill="#ffa298"/>
        <path id="Trazado_1067616" data-name="Trazado 1067616" d="M1051.6,860.317c-.909-4.91-3.38-15.112-3.38-15.112l-15.549,3.594c4.893.969,12.284,4.727,15.086,18.589,2.709-1.814,4.342-4.377,3.843-7.071" transform="translate(-909.465 -744.366)" fill="#ff786e"/>
        <path id="Trazado_1067617" data-name="Trazado 1067617" d="M1161.434,856.971c-1.08-5.159-2.857-12.51-2.875-12.583l1.059-.256c.017.074,1.8,7.441,2.882,12.616Z" transform="translate(-1020.336 -743.42)" fill="#ff786e"/>
        <path id="Trazado_1067618" data-name="Trazado 1067618" d="M836.276,448.5v18.617a22.874,22.874,0,1,0,45.749,0V448.5l-28.833-14.161Z" transform="translate(-736.503 -382.517)" fill="#ffa298"/>
        <path id="Trazado_1067619" data-name="Trazado 1067619" d="M949.667,437.855h0s10.66,15.29,24.051,17.68v15.386c0,6.167-8.155,18.515-22.013,18.537A22.837,22.837,0,0,0,981.888,467.8V449.181l-28.645-14.069Z" transform="translate(-836.366 -383.2)" fill="#ff786e"/>
        <path id="Trazado_1067620" data-name="Trazado 1067620" d="M1089.33,720.854a4.99,4.99,0,1,1-4.99-4.99,4.99,4.99,0,0,1,4.99,4.99" transform="translate(-950.577 -630.456)" fill="#ff786e"/>
        <path id="Trazado_1067621" data-name="Trazado 1067621" d="M856.524,720.854a4.99,4.99,0,1,1-4.99-4.99,4.99,4.99,0,0,1,4.99,4.99" transform="translate(-745.546 -630.456)" fill="#ff786e"/>
        <path id="Trazado_1067622" data-name="Trazado 1067622" d="M855.13,485.771a23.445,23.445,0,0,1-23.419-23.419V443.48l17.383-14.552L878.549,443.4v18.956a23.446,23.446,0,0,1-23.42,23.419M832.8,443.989v18.363a22.33,22.33,0,1,0,44.66,0V444.074l-28.211-13.855Z" transform="translate(-732.482 -377.754)" fill="#ff786e"/>
        <path id="Trazado_1067623" data-name="Trazado 1067623" d="M1054.221,657.4c0,1.329-.762,2.406-1.7,2.406s-1.7-1.077-1.7-2.406.762-2.406,1.7-2.406,1.7,1.077,1.7,2.406" transform="translate(-925.448 -576.848)" fill="#00066e"/>
        <path id="Trazado_1067624" data-name="Trazado 1067624" d="M883.4,657.4c0,1.329-.762,2.406-1.7,2.406s-1.7-1.077-1.7-2.406.762-2.406,1.7-2.406,1.7,1.077,1.7,2.406" transform="translate(-775.009 -576.848)" fill="#00066e"/>
        <path id="Trazado_1067625" data-name="Trazado 1067625" d="M949.783,672.533c-1.994,0-3.671-.445-4.341-1.24a1.34,1.34,0,0,1-.251-1.383c.534-1.424,2.677-8.007,2.7-8.074a.545.545,0,0,1,1.036.337c-.088.272-2.171,6.672-2.715,8.12a.26.26,0,0,0,.065.3c.536.636,2.935,1.2,6.042.609a.545.545,0,1,1,.2,1.07,14.763,14.763,0,0,1-2.737.263" transform="translate(-832.342 -582.543)" fill="#00066e"/>
        <path id="Trazado_1067626" data-name="Trazado 1067626" d="M976.275,783.9c-.444,0-.866-.016-1.263-.033-.343-.013-.668-.027-.972-.027a.545.545,0,0,1,0-1.089c.318,0,.658.013,1.016.028,2.13.086,4.781.189,7.269-2.444a.544.544,0,1,1,.791.748,8.709,8.709,0,0,1-6.841,2.817" transform="translate(-857.351 -687.082)" fill="#00066e"/>
        <path id="Trazado_1067627" data-name="Trazado 1067627" d="M1012.347,585.371a10.462,10.462,0,1,1,10.461-10.462,10.474,10.474,0,0,1-10.461,10.462m0-19.834a9.372,9.372,0,1,0,9.372,9.372,9.383,9.383,0,0,0-9.372-9.372" transform="translate(-882.354 -497.105)" fill="#00066e"/>
        <path id="Trazado_1067628" data-name="Trazado 1067628" d="M784.045,585.371a10.462,10.462,0,1,1,10.462-10.462,10.474,10.474,0,0,1-10.462,10.462m0-19.834a9.372,9.372,0,1,0,9.372,9.372,9.383,9.383,0,0,0-9.372-9.372" transform="translate(-681.291 -497.105)" fill="#00066e"/>
        <path id="Trazado_1067629" data-name="Trazado 1067629" d="M948.828,638.65a.543.543,0,0,1-.321-.1c-1.51-1.1-5.313-.814-6.433,0a.545.545,0,0,1-.64-.881c1.558-1.136,5.893-1.33,7.716,0a.544.544,0,0,1-.321.984" transform="translate(-828.917 -560.772)" fill="#00066e"/>
        <path id="Trazado_1067630" data-name="Trazado 1067630" d="M1020.789,537.6a.545.545,0,0,1-.385-.93,6.066,6.066,0,0,1,7.6-.8.545.545,0,0,1-.6.913,4.976,4.976,0,0,0-6.233.653.543.543,0,0,1-.385.16" transform="translate(-898.523 -471.073)" fill="#00066e"/>
        <path id="Trazado_1067631" data-name="Trazado 1067631" d="M866.023,537.6a.545.545,0,0,1-.385-.93,6.066,6.066,0,0,1,7.6-.8.545.545,0,0,1-.6.913,4.975,4.975,0,0,0-6.233.653.543.543,0,0,1-.385.16" transform="translate(-762.222 -471.073)" fill="#00066e"/>
        <path id="Trazado_1067632" data-name="Trazado 1067632" d="M885.409,129.86A33.54,33.54,0,0,0,851.9,161.972c-10.487,1.942-15.624,6.925-15.624,16.2v3.45c2.629-.272,12.865-2.9,16.915-10.349,3.506,2.542,17.3,9.985,28.833,10.984v2.821l-.01.012a6.589,6.589,0,0,1,8.975,8.963c-.013.023-.943,1.31-1.949,2.7a33.543,33.543,0,0,0-3.634-66.888" transform="translate(-736.504 -114.366)" fill="#00066e"/>
        <path id="Trazado_1067633" data-name="Trazado 1067633" d="M885.021,193.272a.545.545,0,0,1-.441-.864c.972-1.341,1.872-2.586,1.937-2.681a6.049,6.049,0,0,0-8.255-8.186.544.544,0,0,1-.8-.577v-2.236c-11.207-1.137-24.051-7.952-28.111-10.692-4.409,7.363-14.51,9.841-17.037,10.1a.545.545,0,0,1-.6-.542v-3.449c0-9.264,4.974-14.564,15.646-16.652a34.086,34.086,0,1,1,37.723,35.773.541.541,0,0,1-.058,0m-3.806-13.589a7.129,7.129,0,0,1,6.231,10.612c-.016.028-.032.056-1.247,1.734a33,33,0,1,0-37.774-34.056.545.545,0,0,1-.446.513c-10.5,1.944-15.178,6.774-15.178,15.661v2.822c3.121-.536,12.208-3.212,15.892-9.981a.546.546,0,0,1,.359-.271.553.553,0,0,1,.44.09c3.876,2.81,17.6,9.933,28.56,10.883a.544.544,0,0,1,.5.543V180.2a7.164,7.164,0,0,1,2.665-.515M847.88,157.951h0Z" transform="translate(-732.482 -110.346)" fill="#00066e"/>
        <path id="Trazado_1067634" data-name="Trazado 1067634" d="M982.3,400.839c-.2-9.1-2.633-15.44-7.443-19.39-5.64-4.631-14.578-5.793-27.33-3.55-.9.159-1.768.345-2.592.549l-.262-1.057c.846-.21,1.741-.4,2.663-.564,13.082-2.3,22.311-1.064,28.212,3.781,5.07,4.163,7.635,10.773,7.841,20.208Z" transform="translate(-831.97 -330.882)" fill="#fefefe"/>
        <path id="Trazado_1067635" data-name="Trazado 1067635" d="M1158.978,581.186a.544.544,0,0,1-.27-1.018l6.759-3.858a.545.545,0,1,1,.54.946l-6.76,3.858a.538.538,0,0,1-.27.072" transform="translate(-1020.225 -507.489)" fill="#00066e"/>
        <path id="Trazado_1067636" data-name="Trazado 1067636" d="M1218.077,603.464a4.561,4.561,0,0,0,4.6-1.639c.038-.048.163-.2.239-.308.7-.969,4.3-5.933,4.325-5.979a6.592,6.592,0,0,0-8.975-8.963" transform="translate(-1072.753 -515.855)" fill="#ffa298"/>
        <path id="Trazado_1067637" data-name="Trazado 1067637" d="M1215.07,600.1a5.154,5.154,0,0,1-1.133-.126.545.545,0,0,1,.24-1.063,4.073,4.073,0,0,0,4.051-1.444c.069-.087.165-.207.228-.293.843-1.163,4.189-5.784,4.312-5.96a6.049,6.049,0,0,0-8.256-8.185.544.544,0,1,1-.532-.95,7.133,7.133,0,0,1,9.716,9.7c-.015.025-.049.087-4.359,6.032-.072.1-.18.234-.234.3a5.105,5.105,0,0,1-4.033,1.981" transform="translate(-1068.733 -511.833)" fill="#00066e"/>
        <path id="Trazado_1067638" data-name="Trazado 1067638" d="M1235.467,623.363a.566.566,0,0,1-.112-.011.544.544,0,0,1-.422-.644l1.433-6.9a.544.544,0,1,1,1.066.221l-1.433,6.9a.544.544,0,0,1-.532.434" transform="translate(-1087.587 -541.954)" fill="#ff786e"/>
        <path id="Trazado_1067639" data-name="Trazado 1067639" d="M1240.039,634.676a.545.545,0,0,1-.311-.991l3.427-2.387a.545.545,0,0,1,.623.894l-3.426,2.387a.548.548,0,0,1-.312.1" transform="translate(-1091.614 -555.894)" fill="#ff786e"/>
        <path id="Trazado_1067640" data-name="Trazado 1067640" d="M1267.992,252.8c-.834,0-1.679-.034-2.51-.1a.544.544,0,0,1-.5-.587.551.551,0,0,1,.586-.5c.8.065,1.617.1,2.422.1a29.767,29.767,0,0,0,0-59.535.545.545,0,0,1,0-1.089,30.857,30.857,0,0,1,0,61.714" transform="translate(-1114.061 -168.284)" fill="#00066e"/>
        <path id="Trazado_1067641" data-name="Trazado 1067641" d="M1261.995,679.751a32.228,32.228,0,0,1-7.194-.811.545.545,0,1,1,.242-1.062,31.1,31.1,0,0,0,24.36-4.556.545.545,0,1,1,.613.9,31.947,31.947,0,0,1-17.735,5.526h-.286" transform="translate(-1104.722 -592.909)" fill="#00066e"/>
        <path id="Trazado_1067642" data-name="Trazado 1067642" d="M226.8,1472.495c-9.112-1.225-18.322-2.431-27.523-1.72-5.835.451-13.5,2.075-17.329,7.219-5.047,6.778.426,16.9,7.065,19.778,6.957,3.014,16.265,2.01,23.588,1.355a109.456,109.456,0,0,0,25.777-5.494" transform="translate(-158.501 -1295.115)" fill="#ffa298"/>
        <path id="Trazado_1067643" data-name="Trazado 1067643" d="M245.943,1638.57c-10.911,2.753-35.8,2.662-49.6.44a15.748,15.748,0,0,0,7.083,6.724c6.957,3.015,16.266,2.01,23.588,1.355a109.457,109.457,0,0,0,25.777-5.494" transform="translate(-172.921 -1443.078)" fill="#ff786e"/>
        <path id="Trazado_1067644" data-name="Trazado 1067644" d="M1213.974,1469.7c11.665-.354,23.352.327,34.966-.033,9.81-.3,25.806-.994,32.592,7.954,5.216,6.877,1.485,16.949-6.167,19.662-10.342,3.667-22.365.209-32.754-1.466a177.572,177.572,0,0,1-34.163-9.078" transform="translate(-1064.273 -1294.197)" fill="#ffa298"/>
        <path id="Trazado_1067645" data-name="Trazado 1067645" d="M1213.584,1592.688c15.272,7.752,66.17,10.361,70.358.063a13.314,13.314,0,0,1-8.576,13.008c-10.342,3.667-22.365.209-32.754-1.466a177.559,177.559,0,0,1-34.163-9.078" transform="translate(-1064.273 -1402.67)" fill="#ff786e"/>
        <line id="Línea_4793" data-name="Línea 4793" x1="230.09" transform="translate(0 204.713)" fill="#fefefe"/>
        <rect id="Rectángulo_424857" data-name="Rectángulo 424857" width="230.09" height="1.089" transform="translate(0 204.168)" fill="#00066e"/>
        <path id="Trazado_1067646" data-name="Trazado 1067646" d="M1449.907,1269.913l-.978-.478a31.9,31.9,0,0,1,2.355-4.056,27.659,27.659,0,0,1,18.733-11.574,36.306,36.306,0,0,1,6.035-.49v1.089a35.211,35.211,0,0,0-5.854.476A26.594,26.594,0,0,0,1452.182,1266a30.967,30.967,0,0,0-2.275,3.917" transform="translate(-1276.063 -1103.786)" fill="#fefefe"/>
        <path id="Trazado_1067647" data-name="Trazado 1067647" d="M1463.464,1201.784l-1.017-.393a15.355,15.355,0,0,1,9.186-9.006c4.956-1.865,10.215-1.351,11.765-.539l-.5.965c-1.36-.71-6.289-1.131-10.876.594a14.1,14.1,0,0,0-8.553,8.38" transform="translate(-1287.968 -1049.004)" fill="#fefefe"/>
        <path id="Trazado_1067648" data-name="Trazado 1067648" d="M720.3,986.3c-20.59,0-41.733-7.646-50.316-14.245l.664-.864c10,7.693,37.362,16.825,60.664,13.209,13.953-2.164,24.6-8.4,31.648-18.535l.894.622c-7.223,10.389-18.116,16.779-32.375,18.99a73.124,73.124,0,0,1-11.179.823" transform="translate(-590.049 -850.634)" fill="#fefefe"/>
        <path id="Trazado_1067649" data-name="Trazado 1067649" d="M657.958,1647.247H565.076a2.278,2.278,0,0,1-2.278-2.278v-6.4h95.16a2.278,2.278,0,0,1,2.278,2.278v4.121a2.278,2.278,0,0,1-2.278,2.278" transform="translate(-495.653 -1443.078)" fill="#00066e"/>
        <path id="Trazado_1067650" data-name="Trazado 1067650" d="M610.9,1276.246H528.762a4.532,4.532,0,0,1-4.518-4.17l-3.631-45.331a4.532,4.532,0,0,1,4.518-4.894H607.27a4.532,4.532,0,0,1,4.518,4.17l3.631,45.33a4.532,4.532,0,0,1-4.518,4.894" transform="translate(-458.488 -1076.076)" fill="#00066e"/>
        <path id="Trazado_1067651" data-name="Trazado 1067651" d="M874.354,1399.281a6.846,6.846,0,1,0-6.846,6.846,6.846,6.846,0,0,0,6.846-6.846" transform="translate(-757.98 -1226.308)" fill="#4694ff"/>
        <path id="Trazado_1067652" data-name="Trazado 1067652" d="M1876.222,30.984a14.737,14.737,0,0,0,4.15-7.35c1.377-6.479-2.759-11.732-9.238-11.732a13.125,13.125,0,0,0-4.542.839c.525-7.2-4.48-12.744-11.958-12.744-8.18,0-16.221,6.631-17.959,14.812a15.208,15.208,0,0,0-.305,2.2,8.121,8.121,0,0,0-3.259-.652,11.966,11.966,0,0,0-11.132,9.181,8.017,8.017,0,0,0,.633,5.446Z" transform="translate(-1604.423 0.003)" fill="#2030e0"/>
        <path id="Trazado_1067653" data-name="Trazado 1067653" d="M1324.3,1408.507a.743.743,0,0,1-.218-.022,1.343,1.343,0,0,1-.2-.055,1.78,1.78,0,0,1-.2-.108,1.8,1.8,0,0,1-.163-.131,1.014,1.014,0,0,1-.229-.359,1.092,1.092,0,0,1-.088-.414,1.089,1.089,0,1,1,2.179,0,1.092,1.092,0,0,1-.087.414,1.016,1.016,0,0,1-.229.359,1.1,1.1,0,0,1-.773.316" transform="translate(-1165.345 -1238.56)" fill="#2030e0"/>
        <path id="Trazado_1067654" data-name="Trazado 1067654" d="M1454.273,1407.287a1.089,1.089,0,1,1,1.089,1.089,1.092,1.092,0,0,1-1.089-1.089m-6.765,0a1.089,1.089,0,1,1,1.089,1.089,1.092,1.092,0,0,1-1.089-1.089m-6.754,0a1.09,1.09,0,1,1,1.09,1.089,1.086,1.086,0,0,1-1.09-1.089m-6.765,0a1.089,1.089,0,1,1,1.089,1.089,1.092,1.092,0,0,1-1.089-1.089m-6.754,0a1.089,1.089,0,1,1,1.09,1.089,1.086,1.086,0,0,1-1.09-1.089m-6.765,0a1.089,1.089,0,1,1,1.089,1.089,1.092,1.092,0,0,1-1.089-1.089m-6.765,0a1.089,1.089,0,1,1,1.089,1.089,1.093,1.093,0,0,1-1.089-1.089m-6.753,0a1.089,1.089,0,1,1,1.089,1.089,1.092,1.092,0,0,1-1.089-1.089m-6.766,0a1.089,1.089,0,1,1,1.089,1.089,1.093,1.093,0,0,1-1.089-1.089m-6.753,0a1.089,1.089,0,1,1,1.089,1.089,1.085,1.085,0,0,1-1.089-1.089m-6.765,0a1.089,1.089,0,1,1,1.089,1.089,1.092,1.092,0,0,1-1.089-1.089m-6.754,0a1.089,1.089,0,1,1,1.089,1.089,1.085,1.085,0,0,1-1.089-1.089" transform="translate(-1215.282 -1238.429)" fill="#2030e0"/>
        <path id="Trazado_1067655" data-name="Trazado 1067655" d="M2060.869,1408.478a1.086,1.086,0,0,1-.763-1.863,1.126,1.126,0,0,1,1.536,0,1.1,1.1,0,0,1,.316.773,1.08,1.08,0,0,1-.316.773,1.125,1.125,0,0,1-.773.316" transform="translate(-1814.034 -1238.53)" fill="#2030e0"/>
        <path id="Trazado_1067656" data-name="Trazado 1067656" d="M2059.78,571.469a1.09,1.09,0,1,1,2.179,0,1.09,1.09,0,0,1-2.179,0m0-6.612a1.089,1.089,0,1,1,1.089,1.089,1.093,1.093,0,0,1-1.089-1.089m0-6.613a1.089,1.089,0,1,1,1.089,1.089,1.093,1.093,0,0,1-1.089-1.089m0-6.6a1.089,1.089,0,1,1,1.089,1.089,1.086,1.086,0,0,1-1.089-1.089m0-6.612a1.089,1.089,0,1,1,1.089,1.089,1.093,1.093,0,0,1-1.089-1.089m0-6.612a1.089,1.089,0,1,1,2.179,0,1.089,1.089,0,0,1-2.179,0m0-6.6a1.089,1.089,0,1,1,1.089,1.089,1.086,1.086,0,0,1-1.089-1.089m0-6.613a1.089,1.089,0,1,1,1.089,1.089,1.093,1.093,0,0,1-1.089-1.089m0-6.612a1.09,1.09,0,1,1,1.089,1.1,1.1,1.1,0,0,1-1.089-1.1m0-6.6a1.089,1.089,0,1,1,1.089,1.089,1.093,1.093,0,0,1-1.089-1.089m0-6.612a1.089,1.089,0,0,1,2.179,0,1.089,1.089,0,0,1-2.179,0m0-6.6a1.089,1.089,0,1,1,1.089,1.089,1.086,1.086,0,0,1-1.089-1.089m0-6.612a1.089,1.089,0,1,1,1.089,1.089,1.093,1.093,0,0,1-1.089-1.089m0-6.6a1.09,1.09,0,1,1,2.179,0,1.09,1.09,0,0,1-2.179,0m0-6.613a1.089,1.089,0,1,1,1.089,1.089,1.093,1.093,0,0,1-1.089-1.089m0-6.612a1.089,1.089,0,1,1,1.089,1.089,1.093,1.093,0,0,1-1.089-1.089m0-6.6a1.09,1.09,0,1,1,1.089,1.079,1.086,1.086,0,0,1-1.089-1.079" transform="translate(-1814.035 -409.212)" fill="#2030e0"/>
        <path id="Trazado_1067657" data-name="Trazado 1067657" d="M2060.869,411.429a1.1,1.1,0,0,1-1.09-1.089,1.087,1.087,0,0,1,.087-.414.986.986,0,0,1,.24-.36,1.108,1.108,0,0,1,.98-.294.735.735,0,0,1,.207.065.748.748,0,0,1,.185.1l.164.131a1.143,1.143,0,0,1,.24.36,1.086,1.086,0,0,1,.077.414,1.1,1.1,0,0,1-.316.773l-.164.131a.741.741,0,0,1-.185.1.77.77,0,0,1-.207.065,1.375,1.375,0,0,1-.218.022" transform="translate(-1814.034 -360.427)" fill="#2030e0"/>
        <path id="Trazado_1067658" data-name="Trazado 1067658" d="M2033.772,285.345h-11.022l5.511-5.511Z" transform="translate(-1781.422 -246.448)" fill="#2030e0"/>
        <rect id="Rectángulo_424858" data-name="Rectángulo 424858" width="2.753" height="9.065" transform="translate(245.462 37.308)" fill="#2030e0"/>
        <path id="Trazado_1067659" data-name="Trazado 1067659" d="M1554.931,823.9h-55.912a2.451,2.451,0,0,1-2.451-2.45l-.011-38.932a2.45,2.45,0,0,1,2.45-2.451h55.912a2.451,2.451,0,0,1,2.451,2.451l.011,38.932a2.45,2.45,0,0,1-2.45,2.45" transform="translate(-1318.008 -687.003)" fill="#dbe2e3"/>
        <path id="Trazado_1067660" data-name="Trazado 1067660" d="M1496.557,784.595v-2.073a2.45,2.45,0,0,1,2.45-2.45h55.912a2.451,2.451,0,0,1,2.451,2.45v2.073Z" transform="translate(-1318.008 -687.003)" fill="#00066e"/>
        <path id="Trazado_1067661" data-name="Trazado 1067661" d="M1519.1,791.743a.987.987,0,1,1-.987-.987.987.987,0,0,1,.987.987" transform="translate(-1336.125 -696.413)" fill="#fefefe"/>
        <path id="Trazado_1067662" data-name="Trazado 1067662" d="M1545.631,791.743a.987.987,0,1,1-.987-.987.986.986,0,0,1,.987.987" transform="translate(-1359.489 -696.413)" fill="#fefefe"/>
        <path id="Trazado_1067663" data-name="Trazado 1067663" d="M1572.161,791.743a.987.987,0,1,1-.987-.987.987.987,0,0,1,.987.987" transform="translate(-1382.854 -696.413)" fill="#fefefe"/>
        <rect id="Rectángulo_424859" data-name="Rectángulo 424859" width="40.656" height="2.305" transform="translate(181.992 102.212)" fill="#00066e"/>
        <rect id="Rectángulo_424860" data-name="Rectángulo 424860" width="32.255" height="2.305" transform="translate(182.006 125.47)" fill="#2030e0"/>
        <rect id="Rectángulo_424861" data-name="Rectángulo 424861" width="22.974" height="2.305" transform="translate(186.644 120.819)" fill="#ff5183"/>
        <rect id="Rectángulo_424862" data-name="Rectángulo 424862" width="22.974" height="2.305" transform="translate(186.636 106.864)" fill="#ff5183"/>
        <rect id="Rectángulo_424863" data-name="Rectángulo 424863" width="34.752" height="2.305" transform="translate(191.403 111.515)" fill="#2030e0"/>
        <rect id="Rectángulo_424864" data-name="Rectángulo 424864" width="40.617" height="2.305" transform="translate(191.406 116.167)" fill="#00066e"/>
        <rect id="Rectángulo_424865" data-name="Rectángulo 424865" width="22.09" height="2.305" transform="translate(182.008 130.122)" fill="#00066e"/>
        <path id="Trazado_1067664" data-name="Trazado 1067664" d="M633.239,222.181,644.2,217.7l-.717,3.376-6.882,2.5,5.818,2.5-.722,3.4-9.056-4.485Z" transform="translate(-557.164 -191.723)" fill="#2030e0"/>
        <path id="Trazado_1067665" data-name="Trazado 1067665" d="M716.055,200.75h-3.423L724,180.5h3.423Z" transform="translate(-627.61 -158.961)" fill="#2030e0"/>
        <path id="Trazado_1067666" data-name="Trazado 1067666" d="M829.914,224.991l-10.963,4.485.723-3.4,6.882-2.5-5.818-2.5.718-3.376,9.056,4.485Z" transform="translate(-721.245 -191.724)" fill="#2030e0"/>
        <path id="Trazado_1067667" data-name="Trazado 1067667" d="M401.283,718.863H379.115a2.5,2.5,0,0,1-2.5-2.5V694.19a2.5,2.5,0,0,1,2.5-2.5h22.169a2.5,2.5,0,0,1,2.5,2.5v22.169a2.5,2.5,0,0,1-2.5,2.5" transform="translate(-331.678 -609.162)" fill="#ffc842"/>
        <path id="Trazado_1067668" data-name="Trazado 1067668" d="M438.759,747.52a6.991,6.991,0,0,0,.021-3.149l-2-.189a6.062,6.062,0,0,0-.472-1.159l1.292-1.549a6.92,6.92,0,0,0-2.212-2.227l-1.558,1.282a6.072,6.072,0,0,0-1.156-.48l-.176-2a6.985,6.985,0,0,0-3.149,0l-.2,2a6.162,6.162,0,0,0-1.162.48l-1.541-1.282a7.061,7.061,0,0,0-2.242,2.227l1.271,1.549a6.176,6.176,0,0,0-.488,1.159l-2,.189a6.985,6.985,0,0,0-.021,3.149l2,.189a6.087,6.087,0,0,0,.472,1.159l-1.292,1.549a6.921,6.921,0,0,0,2.212,2.227l1.558-1.281a6.076,6.076,0,0,0,1.156.48l.176,2a6.984,6.984,0,0,0,3.149,0l.2-2a6.16,6.16,0,0,0,1.162-.48l1.541,1.281a7.063,7.063,0,0,0,2.242-2.227l-1.271-1.549a6.182,6.182,0,0,0,.488-1.159Zm-7.911,1.674a3.222,3.222,0,0,1-3.227-3.248,3.275,3.275,0,0,1,3.271-3.248,3.222,3.222,0,0,1,3.226,3.248,3.275,3.275,0,0,1-3.27,3.248" transform="translate(-372.349 -649.833)" fill="#fefefe"/>
        <path id="Trazado_1067669" data-name="Trazado 1067669" d="M1759.82,488.844h-10.8a2.027,2.027,0,0,0-2.025,2.025v8.1a2.027,2.027,0,0,0,2.025,2.025h10.8a2.027,2.027,0,0,0,2.024-2.025v-8.1a2.027,2.027,0,0,0-2.024-2.025m-10.8,1.35h10.8a.67.67,0,0,1,.6.377l-6,4.2-6-4.2a.671.671,0,0,1,.6-.377m10.8,9.449h-10.8a.675.675,0,0,1-.675-.675v-6.8l5.687,3.981a.675.675,0,0,0,.774,0l5.687-3.981v6.8a.675.675,0,0,1-.675.675" transform="translate(-1538.568 -430.521)" fill="#2030e0"/>
        <path id="Trazado_1067670" data-name="Trazado 1067670" d="M1691.557,436.782a15.94,15.94,0,1,1,15.94-15.94,15.959,15.959,0,0,1-15.94,15.94m0-30.791a14.851,14.851,0,1,0,14.851,14.851,14.867,14.867,0,0,0-14.851-14.851" transform="translate(-1475.705 -356.594)" fill="#ff5183"/>
        <path id="Trazado_1067671" data-name="Trazado 1067671" d="M1845.537,391.608a5.143,5.143,0,1,0-5.143,5.143,5.143,5.143,0,0,0,5.143-5.143" transform="translate(-1616.294 -340.357)" fill="#ff5183"/>
        <path id="Trazado_1067672" data-name="Trazado 1067672" d="M1836.374,393.272a5.687,5.687,0,1,1,5.687-5.687,5.693,5.693,0,0,1-5.687,5.687m0-10.285a4.6,4.6,0,1,0,4.6,4.6,4.6,4.6,0,0,0-4.6-4.6" transform="translate(-1612.274 -336.334)" fill="#fefefe"/>
        <path id="Trazado_1067673" data-name="Trazado 1067673" d="M1866.856,409.961a1.2,1.2,0,0,0-.621-.158.794.794,0,0,0-.889.747,1.266,1.266,0,0,1,.75-.2c.8,0,1.4.535,1.387,1.612a1.65,1.65,0,0,1-1.693,1.721c-1.364,0-1.734-.9-1.713-2.222.021-1.371.475-2.756,2.094-2.756a2.145,2.145,0,0,1,1.147.3Zm-1.6,1.673c-.008.494.02.953.554.953.343,0,.511-.233.517-.583s-.176-.61-.525-.61a.812.812,0,0,0-.546.24" transform="translate(-1641.679 -359.944)" fill="#fefefe"/>
        <rect id="Rectángulo_424866" data-name="Rectángulo 424866" width="1.09" height="3.924" transform="translate(221.316 41.035) rotate(-11.541)" fill="#ff5183"/>
        <rect id="Rectángulo_424867" data-name="Rectángulo 424867" width="5.162" height="1.089" transform="translate(224.698 44.711) rotate(-83.72)" fill="#ff5183"/>
        <rect id="Rectángulo_424868" data-name="Rectángulo 424868" width="5.524" height="1.089" transform="translate(227.877 45.681) rotate(-48.762)" fill="#ff5183"/>
        <rect id="Rectángulo_424869" data-name="Rectángulo 424869" width="3.58" height="1.089" transform="translate(229.686 48.44) rotate(-14.48)" fill="#ff5183"/>
        <path id="Trazado_1067674" data-name="Trazado 1067674" d="M1973.912,157.894l-.576,1.289h-2.866l3.665-7.927h3.762l3.75,7.927H1978.6l-.586-1.289Zm.842-1.854h2.43l-1.225-2.706Z" transform="translate(-1735.381 -133.21)" fill="#fefefe"/>
        <path id="Trazado_1067675" data-name="Trazado 1067675" d="M2067.751,157.894l-.576,1.289h-2.866l3.665-7.927h3.762l3.75,7.927h-3.047l-.586-1.289Zm.841-1.854h2.429l-1.225-2.706Z" transform="translate(-1818.024 -133.21)" fill="#fefefe"/>
        <path id="Trazado_1067676" data-name="Trazado 1067676" d="M2169.779,151.255c4.314,0,5.285,1.949,5.285,3.74v.32c0,1.811-.874,3.868-5.285,3.868h-4.667v-7.927Zm-.341,5.881c2.365,0,2.621-1.108,2.621-1.907v-.064c0-.767-.278-1.875-2.621-1.875h-1.449v3.846Z" transform="translate(-1906.801 -133.209)" fill="#fefefe"/>
      </g>
    </g>
  </g>
</svg>
