<svg xmlns="http://www.w3.org/2000/svg" width="85" height="78" viewBox="0 0 85 78">
  <g id="Grupo_1230516" data-name="Grupo 1230516" transform="translate(-180 -1277.262)">
    <g id="Grupo_1230125" data-name="Grupo 1230125" transform="translate(0 65)">
      <rect id="Rectángulo_423328" data-name="Rectángulo 423328" width="85" height="78" rx="15" transform="translate(180 1212.262)" fill="#eddbfd"/>
    </g>
    <g id="Grupo_1230515" data-name="Grupo 1230515" transform="translate(195.214 1298.422)">
      <path id="Trazado_1068271" data-name="Trazado 1068271" d="M175.854,214.435c0,1.617-.048,3-.143,4.126a8.467,8.467,0,0,1-.594,2.669,2.734,2.734,0,0,1-1.228,1.385,4.833,4.833,0,0,1-2.231.438,9.326,9.326,0,0,1-1.873-.185,13.944,13.944,0,0,1-1.615-.421,8.828,8.828,0,0,1-1.153-.461,6.259,6.259,0,0,1-.583-.312l-.434-.292-2.165,8.4.213.147a13.157,13.157,0,0,0,7.611,2.18,18.738,18.738,0,0,0,7.578-1.282,9.845,9.845,0,0,0,4.365-3.646,13.762,13.762,0,0,0,1.929-5.6,53.74,53.74,0,0,0,.436-7.139v-17.72H175.855v17.72h0Z" transform="translate(-163.835 -196.427)" fill="#aa52f9"/>
      <path id="Trazado_1068272" data-name="Trazado 1068272" d="M279.222,215.86a8.274,8.274,0,0,0-2.163-2.992,13.652,13.652,0,0,0-3.334-2.1,35.534,35.534,0,0,0-4.293-1.6c-1-.321-1.9-.6-2.679-.821a15.265,15.265,0,0,1-1.947-.679,3.751,3.751,0,0,1-1.137-.716,1.132,1.132,0,0,1-.324-.844.979.979,0,0,1,.545-.969,4.041,4.041,0,0,1,1.825-.343,10.187,10.187,0,0,1,3.038.487,27.094,27.094,0,0,1,2.87,1.067,25.986,25.986,0,0,1,2.938,1.516l.336.2,4.393-8.419-.336-.168c-.769-.385-1.648-.8-2.609-1.232a33.519,33.519,0,0,0-3.135-1.215,29.719,29.719,0,0,0-3.48-.924,18.8,18.8,0,0,0-3.726-.368,15.915,15.915,0,0,0-4.944.763,13,13,0,0,0-4.179,2.251,10.673,10.673,0,0,0-2.912,3.733,11.884,11.884,0,0,0-1.07,5.158,10.434,10.434,0,0,0,.526,3.438,7.6,7.6,0,0,0,1.641,2.7,10.947,10.947,0,0,0,2.785,2.091,25.456,25.456,0,0,0,3.95,1.683c1.024.352,2.009.662,2.928.919.9.254,1.711.51,2.4.761a5.19,5.19,0,0,1,1.547.824,1.186,1.186,0,0,1,.469.943.884.884,0,0,1-.439.776,3.589,3.589,0,0,1-1.931.345,13.579,13.579,0,0,1-3.86-.562,24.683,24.683,0,0,1-3.439-1.281,27.832,27.832,0,0,1-3.462-1.85l-.348-.218-4.368,8.893.294.174a24.4,24.4,0,0,0,3.391,1.66,34.715,34.715,0,0,0,3.789,1.263,33.658,33.658,0,0,0,3.96.826,27.071,27.071,0,0,0,3.9.293,20.76,20.76,0,0,0,4.771-.563,12.99,12.99,0,0,0,4.3-1.856,9.675,9.675,0,0,0,3.1-3.471,11.181,11.181,0,0,0,1.174-5.342A10.788,10.788,0,0,0,279.222,215.86Z" transform="translate(-225.403 -195.739)" fill="#aa52f9"/>
    </g>
  </g>
</svg>
