<svg xmlns="http://www.w3.org/2000/svg" xmlns:xlink="http://www.w3.org/1999/xlink" width="113" height="113" viewBox="0 0 113 113">
  <defs>
    <filter id="Trazado_982547" x="0" y="0" width="113" height="113" filterUnits="userSpaceOnUse">
      <feOffset dy="3" input="SourceAlpha"/>
      <feGaussianBlur stdDeviation="3" result="blur"/>
      <feFlood flood-opacity="0.161"/>
      <feComposite operator="in" in2="blur"/>
      <feComposite in="SourceGraphic"/>
    </filter>
  </defs>
  <g id="Grupo_1230646" data-name="Grupo 1230646" transform="translate(-901.328 -1864.898)">
    <g id="Grupo_1230210" data-name="Grupo 1230210" transform="translate(910.328 1870.898)">
      <g id="Grupo_1226970" data-name="Grupo 1226970">
        <g id="Grupo_1226448" data-name="Grupo 1226448">
          <g id="Grupo_1225528" data-name="Grupo 1225528">
            <g id="Grupo_1225173" data-name="Grupo 1225173">
              <g id="Grupo_1224643" data-name="Grupo 1224643">
                <g id="Grupo_1224291" data-name="Grupo 1224291">
                  <g id="Grupo_1224091" data-name="Grupo 1224091">
                    <g id="Grupo_1223183" data-name="Grupo 1223183">
                      <g id="Grupo_1211217" data-name="Grupo 1211217">
                        <g id="Grupo_1210736" data-name="Grupo 1210736">
                          <g id="Grupo_1210537" data-name="Grupo 1210537">
                            <g id="Grupo_1164202" data-name="Grupo 1164202">
                              <g id="Grupo_1158168" data-name="Grupo 1158168">
                                <g id="Grupo_1152576" data-name="Grupo 1152576">
                                  <g id="Grupo_1148633" data-name="Grupo 1148633">
                                    <g id="Grupo_1148525" data-name="Grupo 1148525">
                                      <g transform="matrix(1, 0, 0, 1, -9, -6)" filter="url(#Trazado_982547)">
                                        <g id="Trazado_982547-2" data-name="Trazado 982547" transform="translate(9 6)" fill="#fdf6e4">
                                          <path d="M 47.49999618530273 93.5 C 41.28936767578125 93.5 35.26533126831055 92.28396606445312 29.59518241882324 89.88570404052734 C 24.11771583557129 87.56893157958984 19.19812965393066 84.251953125 14.97308921813965 80.02690124511719 C 10.74803638458252 75.80186462402344 7.431062698364258 70.88227844238281 5.114289283752441 65.40480804443359 C 2.716022968292236 59.73466110229492 1.499996185302734 53.71062469482422 1.499996185302734 47.49999618530273 C 1.499996185302734 41.28936767578125 2.716022968292236 35.26533126831055 5.114289283752441 29.59518241882324 C 7.431062698364258 24.11771583557129 10.74803638458252 19.19812965393066 14.97308921813965 14.97308921813965 C 19.19812965393066 10.74803638458252 24.11771583557129 7.431062698364258 29.59518241882324 5.114289283752441 C 35.26533126831055 2.716022968292236 41.28936767578125 1.499996185302734 47.49999618530273 1.499996185302734 C 53.71062469482422 1.499996185302734 59.73466110229492 2.716022968292236 65.40480804443359 5.114289283752441 C 70.88227844238281 7.431062698364258 75.80186462402344 10.74803638458252 80.02690124511719 14.97308921813965 C 84.251953125 19.19812965393066 87.56893157958984 24.11771583557129 89.88570404052734 29.59518241882324 C 92.28396606445312 35.26533126831055 93.5 41.28936767578125 93.5 47.49999618530273 C 93.5 53.71062469482422 92.28396606445312 59.73466110229492 89.88570404052734 65.40480804443359 C 87.56893157958984 70.88227844238281 84.251953125 75.80186462402344 80.02690124511719 80.02690124511719 C 75.80186462402344 84.251953125 70.88227844238281 87.56893157958984 65.40480804443359 89.88570404052734 C 59.73466110229492 92.28396606445312 53.71062469482422 93.5 47.49999618530273 93.5 Z" stroke="none"/>
                                          <path d="M 47.49999618530273 2.999992370605469 C 41.4912109375 2.999992370605469 35.66376495361328 4.1761474609375 30.17950439453125 6.495796203613281 C 24.88084411621094 8.736953735351562 20.12152099609375 11.94598388671875 16.03375244140625 16.03375244140625 C 11.94598388671875 20.12152099609375 8.736953735351562 24.88084411621094 6.495796203613281 30.17950439453125 C 4.1761474609375 35.66376495361328 2.999992370605469 41.4912109375 2.999992370605469 47.49999618530273 C 2.999992370605469 53.50878143310547 4.1761474609375 59.33622741699219 6.495796203613281 64.82048797607422 C 8.736953735351562 70.11914825439453 11.94598388671875 74.87847137451172 16.03375244140625 78.96623992919922 C 20.12152099609375 83.05400848388672 24.88084411621094 86.26304626464844 30.17950439453125 88.50419616699219 C 35.66376495361328 90.82384490966797 41.4912109375 92 47.49999618530273 92 C 53.50878143310547 92 59.33622741699219 90.82384490966797 64.82048797607422 88.50419616699219 C 70.11914825439453 86.26304626464844 74.87847137451172 83.05400848388672 78.96623992919922 78.96623992919922 C 83.05400848388672 74.87847137451172 86.26304626464844 70.11914825439453 88.50419616699219 64.82048797607422 C 90.82384490966797 59.33622741699219 92 53.50878143310547 92 47.49999618530273 C 92 41.4912109375 90.82384490966797 35.66376495361328 88.50419616699219 30.17950439453125 C 86.26304626464844 24.88084411621094 83.05400848388672 20.12152099609375 78.96623992919922 16.03375244140625 C 74.87847137451172 11.94598388671875 70.11914825439453 8.736953735351562 64.82048797607422 6.495796203613281 C 59.33622741699219 4.1761474609375 53.50878143310547 2.999992370605469 47.49999618530273 2.999992370605469 M 47.49999618530273 -7.62939453125e-06 C 73.7335205078125 -7.62939453125e-06 95 21.26647186279297 95 47.49999618530273 C 95 73.7335205078125 73.7335205078125 95 47.49999618530273 95 C 21.26647186279297 95 -7.62939453125e-06 73.7335205078125 -7.62939453125e-06 47.49999618530273 C -7.62939453125e-06 21.26647186279297 21.26647186279297 -7.62939453125e-06 47.49999618530273 -7.62939453125e-06 Z" stroke="none" fill="#f5b104"/>
                                        </g>
                                      </g>
                                    </g>
                                  </g>
                                </g>
                              </g>
                            </g>
                          </g>
                        </g>
                      </g>
                    </g>
                  </g>
                </g>
              </g>
            </g>
          </g>
        </g>
      </g>
    </g>
    <g id="programming-language_17358985" transform="translate(929.855 1890.253)">
      <g id="Grupo_1230645" data-name="Grupo 1230645" transform="translate(1.852 1.852)">
        <g id="Grupo_1230641" data-name="Grupo 1230641" transform="translate(0)">
          <path id="Trazado_1068831" data-name="Trazado 1068831" d="M12.541,9h45.5a3.552,3.552,0,0,1,3.542,3.542v45.5a3.552,3.552,0,0,1-3.542,3.542h-45.5A3.552,3.552,0,0,1,9,58.043v-45.5A3.552,3.552,0,0,1,12.541,9Z" transform="translate(-9 -9)" fill="#64b5f6" fill-rule="evenodd"/>
          <path id="Trazado_1068832" data-name="Trazado 1068832" d="M450.221,9H447.9a3.552,3.552,0,0,1,3.542,3.542v45.5a3.552,3.552,0,0,1-3.542,3.541h2.324a3.552,3.552,0,0,0,3.542-3.541v-45.5A3.552,3.552,0,0,0,450.221,9Z" transform="translate(-401.178 -9)" fill="#42a5f5" fill-rule="evenodd"/>
          <path id="Trazado_1068833" data-name="Trazado 1068833" d="M43.858,128.861H88.506a.29.29,0,0,1,.289.289v35.569a.29.29,0,0,1-.289.289H43.858a.29.29,0,0,1-.289-.289V129.15A.29.29,0,0,1,43.858,128.861Z" transform="translate(-39.889 -116.102)" fill="#e6f8ff" fill-rule="evenodd"/>
          <path id="Trazado_1068834" data-name="Trazado 1068834" d="M43.858,128.861h2.323a.29.29,0,0,0-.289.289v35.569a.29.29,0,0,0,.289.289H43.858a.29.29,0,0,1-.289-.289V129.15A.29.29,0,0,1,43.858,128.861Z" transform="translate(-39.889 -116.102)" fill="#d0f1ff" fill-rule="evenodd"/>
          <path id="Trazado_1068835" data-name="Trazado 1068835" d="M9,12.542v5.538H61.585V12.542A3.552,3.552,0,0,0,58.044,9h-45.5A3.552,3.552,0,0,0,9,12.542Z" transform="translate(-9 -9)" fill="#004960" fill-rule="evenodd"/>
          <path id="Trazado_1068836" data-name="Trazado 1068836" d="M453.763,12.542v5.538h-2.324V12.542A3.552,3.552,0,0,0,447.9,9h2.324A3.552,3.552,0,0,1,453.763,12.542Z" transform="translate(-401.178 -9)" fill="#003748" fill-rule="evenodd"/>
          <circle id="Elipse_14158" data-name="Elipse 14158" cx="1.171" cy="1.171" r="1.171" transform="translate(3.23 5.174) rotate(-67.486)" fill="#fc685b"/>
          <circle id="Elipse_14159" data-name="Elipse 14159" cx="1.171" cy="1.171" r="1.171" transform="translate(8.087 5.173) rotate(-67.486)" fill="#ffda2d"/>
          <circle id="Elipse_14160" data-name="Elipse 14160" cx="1.171" cy="1.171" r="1.171" transform="translate(13.297 3.369)" fill="#72d561"/>
        </g>
        <g id="Grupo_1230642" data-name="Grupo 1230642" transform="translate(6.557 15.636)">
          <path id="Trazado_1068837" data-name="Trazado 1068837" d="M90.052,155.89H71.981a1.386,1.386,0,0,0-1.383,1.383V168.6a1.386,1.386,0,0,0,1.383,1.383H82.258l5.856,4.2v-4.2h1.939a1.386,1.386,0,0,0,1.383-1.383V157.273A1.386,1.386,0,0,0,90.052,155.89Z" transform="translate(-70.598 -155.89)" fill="#72d561" fill-rule="evenodd"/>
          <path id="Trazado_1068838" data-name="Trazado 1068838" d="M71.693,156.175a1.387,1.387,0,0,0-1.095,1.353v11.324a1.386,1.386,0,0,0,1.383,1.383H82.258l5.856,4.2V172.61l-4.791-3.44H73.046a1.386,1.386,0,0,1-1.383-1.383V156.463A1.385,1.385,0,0,1,71.693,156.175Zm17.485,14.06h.874a1.387,1.387,0,0,0,1.353-1.095,1.384,1.384,0,0,1-.288.03H89.178Z" transform="translate(-70.598 -156.145)" fill="#42c345" fill-rule="evenodd"/>
        </g>
        <g id="Grupo_1230643" data-name="Grupo 1230643" transform="translate(6.791 32.375)">
          <path id="Trazado_1068839" data-name="Trazado 1068839" d="M73.825,326.77H87.288a1.032,1.032,0,0,0,1.03-1.03V317.3a1.032,1.032,0,0,0-1.03-1.03H79.632l-4.363-3.132v3.132H73.825a1.032,1.032,0,0,0-1.03,1.03v8.436A1.032,1.032,0,0,0,73.825,326.77Z" transform="translate(-72.795 -313.141)" fill="#ffda2d" fill-rule="evenodd"/>
          <path id="Trazado_1068840" data-name="Trazado 1068840" d="M73.825,326.77h.034v-8.4a1.032,1.032,0,0,1,1.03-1.03h1.444v-3.132l4.363,3.132h7.622V317.3a1.032,1.032,0,0,0-1.03-1.03H79.632l-4.363-3.132v3.132H73.825a1.032,1.032,0,0,0-1.03,1.03v8.436A1.032,1.032,0,0,0,73.825,326.77Z" transform="translate(-72.795 -313.141)" fill="#ffc700" fill-rule="evenodd"/>
        </g>
        <g id="Grupo_1230644" data-name="Grupo 1230644" transform="translate(29.729 29.312)">
          <path id="Trazado_1068841" data-name="Trazado 1068841" d="M289.419,284.364H304.2a1.133,1.133,0,0,1,1.131,1.131v9.262a1.133,1.133,0,0,1-1.131,1.131h-8.406L291,299.328v-3.439h-1.586a1.133,1.133,0,0,1-1.131-1.131V285.5A1.133,1.133,0,0,1,289.419,284.364Z" transform="translate(-288.288 -284.364)" fill="#64b5f6" fill-rule="evenodd"/>
          <path id="Trazado_1068842" data-name="Trazado 1068842" d="M305.33,294.838A1.134,1.134,0,0,1,304.2,295.9h-8.406L291,299.344V295.9h-1.586a1.134,1.134,0,0,1-1.131-1.131v-9.262a1.134,1.134,0,0,1,1.066-1.129c0,.021,0,.043,0,.065v9.262a1.133,1.133,0,0,0,1.131,1.131h1.586v3.439l4.79-3.439h8.406Z" transform="translate(-288.288 -284.38)" fill="#42a5f5" fill-rule="evenodd"/>
        </g>
      </g>
      <path id="Trazado_1068843" data-name="Trazado 1068843" d="M17.83,40.58l-1.205,4.5a.852.852,0,0,1-.822.631.884.884,0,0,1-.221-.029.852.852,0,0,1-.6-1.043l1.205-4.5a.852.852,0,1,1,1.645.44Zm3.391,1.431a.85.85,0,0,1,0,1.2L19.6,44.845a.852.852,0,1,1-1.212-1.2l1.026-1.04-1.026-1.04a.851.851,0,1,1,1.212-1.2Zm-6.8,1.637a.852.852,0,0,1-1.212,1.2l-1.617-1.638a.85.85,0,0,1,0-1.2L13.2,40.373a.851.851,0,1,1,1.212,1.2l-1.026,1.04Zm8.9,3.179V38.391a.182.182,0,0,0-.179-.179H15.479a.855.855,0,0,1-.5-.16l-3.014-2.165V37.36a.851.851,0,0,1-.852.851H9.673a.181.181,0,0,0-.179.179v8.436a.181.181,0,0,0,.179.179H23.136A.181.181,0,0,0,23.315,46.827Zm-.179-10.318H15.754l-4.14-2.973a.851.851,0,0,0-1.348.692v2.281H9.673a1.884,1.884,0,0,0-1.882,1.882v8.436a1.884,1.884,0,0,0,1.882,1.882H23.136a1.884,1.884,0,0,0,1.882-1.882V38.391a1.884,1.884,0,0,0-1.882-1.882Zm17.873,4.035a.906.906,0,1,1-.906-.906A.907.907,0,0,1,41.009,40.544Zm-3.872-4.809a2.966,2.966,0,1,1,3.818,2.843.852.852,0,0,1-1.7,0v-.53a1.054,1.054,0,0,1,.966-1.055,1.263,1.263,0,1,0-1.377-1.258.852.852,0,0,1-1.7,0Zm-4.7-3.44v9.262a.283.283,0,0,0,.28.28H34.3a.851.851,0,0,1,.852.851v1.78L38.591,42a.855.855,0,0,1,.5-.16h8.406a.283.283,0,0,0,.28-.28V32.3a.284.284,0,0,0-.28-.28H32.712a.284.284,0,0,0-.28.28Zm.28,11.245h.734v2.588a.852.852,0,0,0,1.348.692l4.567-3.279h8.132a1.985,1.985,0,0,0,1.983-1.983V32.3a1.985,1.985,0,0,0-1.983-1.983H32.712A1.985,1.985,0,0,0,30.73,32.3v9.262A1.986,1.986,0,0,0,32.712,43.541Zm-17.2-22.117a.852.852,0,0,1,.852-.852h4.923a.852.852,0,0,1,0,1.7H16.366A.851.851,0,0,1,15.514,21.423Zm0,6.221a.851.851,0,0,1,.852-.851h4.923a.851.851,0,0,1,0,1.7H16.366A.851.851,0,0,1,15.514,27.644Zm0-3.11a.852.852,0,0,1,.852-.852h4.923a.852.852,0,0,1,0,1.7H16.366A.851.851,0,0,1,15.514,24.534Zm-4.741.556a.851.851,0,0,1,0-1.112l1.2-1.394V20.307a1.5,1.5,0,0,1,1.5-1.5H14.1a.851.851,0,1,1,0,1.7H13.68v2.148a1.48,1.48,0,0,1-.364.979l-.772.9.772.9a1.481,1.481,0,0,1,.364.98v2.148H14.1a.852.852,0,0,1,0,1.7h-.622a1.5,1.5,0,0,1-1.5-1.5V26.484Zm13.565.339.772-.9-.772-.9a1.481,1.481,0,0,1-.364-.979V20.51h-.419a.851.851,0,0,1,0-1.7h.623a1.5,1.5,0,0,1,1.5,1.5v2.276l1.2,1.394a.851.851,0,0,1,0,1.112l-1.2,1.394V28.76a1.5,1.5,0,0,1-1.5,1.5h-.623a.852.852,0,0,1,0-1.7h.419V26.408a1.479,1.479,0,0,1,.364-.979ZM9.26,18.872a.532.532,0,0,1,.531-.532H27.863a.532.532,0,0,1,.532.532V30.2a.532.532,0,0,1-.532.532H25.925a.851.851,0,0,0-.852.851v2.545l-4.508-3.236a.852.852,0,0,0-.5-.16H9.792A.532.532,0,0,1,9.26,30.2Zm.531,13.559A2.238,2.238,0,0,1,7.557,30.2V18.872a2.237,2.237,0,0,1,2.235-2.235H27.863A2.237,2.237,0,0,1,30.1,18.872V30.2a2.238,2.238,0,0,1-2.235,2.235H26.776v3.353a.85.85,0,0,1-.463.757.84.84,0,0,1-.389.095.854.854,0,0,1-.5-.16l-5.633-4.045Zm40.43,17.792V15.147H6.067V50.222Zm.851-36.779H5.215a.852.852,0,0,0-.852.852V51.074a.851.851,0,0,0,.852.851H51.073a.852.852,0,0,0,.852-.851V14.3a.852.852,0,0,0-.852-.852ZM16.155,5.963a.428.428,0,1,1-.428.429A.429.429,0,0,1,16.155,5.963Zm0,2.56a2.132,2.132,0,1,0-2.131-2.131A2.134,2.134,0,0,0,16.155,8.524ZM32.979,6.392a.851.851,0,0,1,.852-.851H49.245a.852.852,0,0,1,0,1.7H33.831A.852.852,0,0,1,32.979,6.392ZM11.465,5.963a.428.428,0,1,1-.428.429A.429.429,0,0,1,11.465,5.963Zm0,2.56A2.132,2.132,0,1,0,9.333,6.392,2.134,2.134,0,0,0,11.465,8.524Zm-4.69-2.56a.428.428,0,1,1-.428.429A.429.429,0,0,1,6.775,5.963Zm0,2.56A2.132,2.132,0,1,0,4.644,6.392,2.134,2.134,0,0,0,6.775,8.524ZM50.9,53.586a2.693,2.693,0,0,0,2.69-2.69V11.783H2.7V50.9a2.693,2.693,0,0,0,2.69,2.69ZM5.393,2.7A2.693,2.693,0,0,0,2.7,5.394V10.08H53.585V5.394A2.693,2.693,0,0,0,50.9,2.7ZM50.9,1H5.393A4.4,4.4,0,0,0,1,5.394V50.9a4.4,4.4,0,0,0,4.393,4.393H50.9A4.4,4.4,0,0,0,55.288,50.9V5.394A4.4,4.4,0,0,0,50.9,1Z" fill-rule="evenodd"/>
    </g>
  </g>
</svg>
