<svg xmlns="http://www.w3.org/2000/svg" xmlns:xlink="http://www.w3.org/1999/xlink" width="434.604" height="286" viewBox="0 0 434.604 286">
  <defs>
    <linearGradient id="linear-gradient" x1="0.5" x2="0.5" y2="1" gradientUnits="objectBoundingBox">
      <stop offset="0" stop-color="#903cdf"/>
      <stop offset="1" stop-color="#481e70"/>
    </linearGradient>
    <clipPath id="clip-path">
      <rect id="Rectángulo_425379" data-name="Rectángulo 425379" width="434.604" height="242.413" fill="none"/>
    </clipPath>
    <clipPath id="clip-path-3">
      <rect id="Rectángulo_425367" data-name="Rectángulo 425367" width="49.501" height="51.63" fill="none"/>
    </clipPath>
    <clipPath id="clip-path-4">
      <rect id="Rectángulo_425361" data-name="Rectángulo 425361" width="49.501" height="3.063" fill="none"/>
    </clipPath>
    <clipPath id="clip-path-10">
      <rect id="Rectángulo_425370" data-name="Rectángulo 425370" width="19.582" height="2.801" fill="none"/>
    </clipPath>
    <clipPath id="clip-path-12">
      <rect id="Rectángulo_425376" data-name="Rectángulo 425376" width="27.717" height="19.683" fill="none"/>
    </clipPath>
    <clipPath id="clip-path-13">
      <rect id="Rectángulo_425372" data-name="Rectángulo 425372" width="27.639" height="2.8" fill="none"/>
    </clipPath>
    <clipPath id="clip-path-14">
      <rect id="Rectángulo_425373" data-name="Rectángulo 425373" width="27.639" height="2.801" fill="none"/>
    </clipPath>
    <clipPath id="clip-path-17">
      <rect id="Rectángulo_425377" data-name="Rectángulo 425377" width="95.213" height="5.96" fill="none"/>
    </clipPath>
  </defs>
  <g id="Grupo_1230705" data-name="Grupo 1230705" transform="translate(-943 -2477.225)">
    <rect id="Rectángulo_423677" data-name="Rectángulo 423677" width="155" height="286" rx="13" transform="translate(1073.774 2477.225)" fill="url(#linear-gradient)"/>
    <g id="Grupo_1230704" data-name="Grupo 1230704" transform="translate(943 2493.812)">
      <g id="Grupo_1230703" data-name="Grupo 1230703" clip-path="url(#clip-path)">
        <g id="Grupo_1230702" data-name="Grupo 1230702">
          <g id="Grupo_1230701" data-name="Grupo 1230701" clip-path="url(#clip-path)">
            <path id="Trazado_1068871" data-name="Trazado 1068871" d="M304.539,177.01c-.62,0-1.243,0-1.853-.014a.483.483,0,0,1,.007-.966h.008c1.212.018,2.465.019,3.7,0h.008a.484.484,0,0,1,.007.967c-.624.01-1.256.014-1.878.014m-5.4-.118h-.021c-1.236-.053-2.489-.127-3.724-.216a.483.483,0,1,1,.07-.964c1.225.09,2.469.162,3.7.215a.483.483,0,0,1-.021.966m10.822,0a.483.483,0,0,1-.021-.966c1.233-.056,2.476-.131,3.693-.225a.483.483,0,1,1,.074.964c-1.228.094-2.481.171-3.724.227h-.022m-18.073-.519a.422.422,0,0,1-.049,0c-1.225-.123-2.473-.265-3.706-.424a.484.484,0,0,1,.124-.959c1.224.158,2.462.3,3.679.421a.483.483,0,0,1-.048.964m25.321-.034a.484.484,0,0,1-.052-.964c1.226-.132,2.462-.286,3.672-.457a.483.483,0,1,1,.135.957c-1.221.173-2.467.328-3.7.461a.474.474,0,0,1-.052,0m-32.533-.889a.5.5,0,0,1-.075-.006c-1.219-.189-2.456-.4-3.677-.622a.483.483,0,1,1,.174-.951c1.212.222,2.44.43,3.652.618a.483.483,0,0,1-.073.961m39.731-.124a.484.484,0,0,1-.082-.96c1.212-.211,2.435-.446,3.633-.7a.483.483,0,1,1,.2.946c-1.21.254-2.443.49-3.666.7a.455.455,0,0,1-.084.008m-46.884-1.179a.523.523,0,0,1-.1-.01c-1.209-.253-2.433-.525-3.64-.81a.484.484,0,0,1,.222-.941c1.2.283,2.415.553,3.615.8a.483.483,0,0,1-.1.957m54-.311a.483.483,0,0,1-.115-.953c1.2-.294,2.4-.611,3.577-.944a.483.483,0,0,1,.263.93c-1.187.336-2.4.657-3.61.953a.512.512,0,0,1-.116.014m-61.077-1.354a.478.478,0,0,1-.122-.016c-1.19-.311-2.4-.643-3.6-.987a.483.483,0,0,1,.267-.929c1.188.341,2.39.671,3.572.981a.484.484,0,0,1-.122.952m68.073-.624a.483.483,0,0,1-.148-.944c1.173-.377,2.35-.78,3.5-1.2a.483.483,0,0,1,.33.908c-1.16.422-2.349.828-3.534,1.209a.471.471,0,0,1-.148.023m-75.061-1.381a.489.489,0,0,1-.144-.023c-1.18-.369-2.373-.757-3.545-1.153a.484.484,0,0,1,.31-.916c1.165.394,2.35.78,3.523,1.147a.484.484,0,0,1-.144.945m81.9-1.1a.483.483,0,0,1-.182-.932c1.14-.462,2.284-.952,3.4-1.455a.483.483,0,0,1,.4.881c-1.126.508-2.281,1-3.433,1.47a.49.49,0,0,1-.182.035m-88.785-1.228a.492.492,0,0,1-.162-.028c-1.166-.414-2.344-.827-3.5-1.226a.483.483,0,0,1,.315-.914c1.162.4,2.343.814,3.512,1.229a.484.484,0,0,1-.162.939m95.413-1.759a.483.483,0,0,1-.216-.916c1.1-.55,2.2-1.127,3.273-1.717a.483.483,0,0,1,.466.847c-1.08.6-2.194,1.18-3.308,1.736a.48.48,0,0,1-.216.051M249.7,165.781a.49.49,0,0,1-.153-.025c-1.182-.395-2.368-.785-3.525-1.159a.483.483,0,1,1,.3-.92c1.161.375,2.35.766,3.535,1.162a.483.483,0,0,1-.153.942m-6.917-2.236a.487.487,0,0,1-.144-.022c-1.179-.367-2.373-.732-3.548-1.085a.484.484,0,0,1,.278-.926c1.179.354,2.377.72,3.559,1.088a.484.484,0,0,1-.144.945m115.571-.657a.483.483,0,0,1-.251-.9c1.053-.638,2.1-1.3,3.118-1.982a.484.484,0,1,1,.537.8c-1.028.685-2.089,1.36-3.154,2a.477.477,0,0,1-.25.07m-266.155-.866h-.014c-1.241-.036-2.5-.113-3.733-.227a.483.483,0,1,1,.09-.962c1.215.113,2.451.188,3.671.224a.483.483,0,0,1-.014.966m3.554-.007a.483.483,0,0,1-.015-.966c1.221-.04,2.458-.12,3.677-.238a.484.484,0,1,1,.093.962c-1.24.12-2.5.2-3.738.242h-.016m140.066-.558a.484.484,0,0,1-.134-.019c-1.2-.344-2.4-.682-3.572-1a.483.483,0,1,1,.256-.932c1.178.323,2.383.662,3.583,1.008a.483.483,0,0,1-.133.948m-150.84-.1a.492.492,0,0,1-.075-.006c-1.224-.189-2.462-.421-3.676-.688a.483.483,0,1,1,.207-.944c1.2.263,2.412.491,3.617.677a.483.483,0,0,1-.073.961m18.007-.037a.483.483,0,0,1-.075-.961c1.207-.192,2.424-.425,3.619-.693a.483.483,0,1,1,.212.943c-1.215.273-2.453.51-3.679.7a.519.519,0,0,1-.077.006m7.117-1.482a.484.484,0,0,1-.105-.955c1.242-.277,2.464-.546,3.632-.8a.483.483,0,1,1,.2.944c-1.166.253-2.386.522-3.626.8a.5.5,0,0,1-.106.012m-32.214-.03a.491.491,0,0,1-.132-.018c-1.192-.338-2.393-.719-3.568-1.132a.483.483,0,0,1,.32-.912c1.157.407,2.339.781,3.512,1.114a.483.483,0,0,1-.131.948m150.919-.281a.477.477,0,0,1-.122-.016c-1.2-.313-2.406-.62-3.595-.915a.484.484,0,0,1,.233-.939c1.193.3,2.407.6,3.607.918a.484.484,0,0,1-.122.952m135.6-.673a.483.483,0,0,1-.285-.874c1-.728,1.981-1.484,2.93-2.248a.483.483,0,1,1,.606.752c-.96.774-1.958,1.54-2.965,2.277a.485.485,0,0,1-.285.093M117.2,158.3a.484.484,0,0,1-.1-.957c1.223-.257,2.449-.51,3.643-.751a.483.483,0,1,1,.191.948c-1.191.241-2.415.493-3.635.749a.489.489,0,0,1-.1.011m104.544-.518a.463.463,0,0,1-.11-.013c-1.211-.283-2.427-.558-3.617-.818a.483.483,0,0,1,.206-.944c1.194.262,2.416.537,3.631.821a.483.483,0,0,1-.11.954m-150.72-.368a.474.474,0,0,1-.186-.038c-1.144-.478-2.292-1-3.411-1.548a.483.483,0,1,1,.426-.868c1.1.541,2.231,1.053,3.357,1.524a.484.484,0,0,1-.186.93m53.305-.554a.483.483,0,0,1-.091-.958c1.242-.24,2.473-.472,3.658-.689a.483.483,0,1,1,.174.951c-1.182.216-2.409.448-3.648.687a.455.455,0,0,1-.092.009m90.313-.632a.5.5,0,0,1-.1-.01c-1.218-.248-2.442-.488-3.639-.713a.483.483,0,1,1,.178-.95c1.2.225,2.431.466,3.654.716a.484.484,0,0,1-.1.957m-83.159-.678a.483.483,0,0,1-.081-.96c1.228-.212,2.463-.418,3.672-.612a.483.483,0,1,1,.153.954c-1.2.194-2.436.4-3.661.611a.518.518,0,0,1-.083.007m76.015-.666a.45.45,0,0,1-.082-.007c-1.214-.209-2.446-.411-3.659-.6a.483.483,0,0,1,.149-.955c1.219.189,2.455.392,3.675.6a.483.483,0,0,1-.082.96m-68.834-.488a.484.484,0,0,1-.071-.962c1.23-.182,2.471-.358,3.686-.522a.484.484,0,0,1,.129.959c-1.212.163-2.447.338-3.673.52a.553.553,0,0,1-.072.005m231.4-.093a.483.483,0,0,1-.321-.845c.923-.818,1.832-1.664,2.7-2.516a.483.483,0,1,1,.676.691c-.881.863-1.8,1.721-2.737,2.549a.482.482,0,0,1-.32.121M64.5,154.222a.485.485,0,0,1-.237-.062c-1.08-.608-2.161-1.258-3.21-1.932a.484.484,0,1,1,.523-.814c1.033.664,2.1,1.3,3.161,1.9a.484.484,0,0,1-.237.905m135.822-.457a.6.6,0,0,1-.067,0c-1.225-.171-2.462-.332-3.676-.479a.483.483,0,1,1,.117-.96c1.22.148,2.462.31,3.693.481a.484.484,0,0,1-.066.962m-54.445-.341a.483.483,0,0,1-.057-.963c1.232-.149,2.476-.289,3.7-.419a.484.484,0,0,1,.1.962c-1.218.128-2.458.269-3.686.417a.447.447,0,0,1-.059,0m47.229-.537a.459.459,0,0,1-.051,0c-1.229-.128-2.471-.247-3.69-.352a.483.483,0,1,1,.083-.963c1.225.106,2.472.224,3.708.353a.484.484,0,0,1-.05.964m-40-.226a.483.483,0,0,1-.043-.964c1.23-.111,2.479-.213,3.711-.3a.484.484,0,1,1,.071.964c-1.227.09-2.47.192-3.7.3l-.044,0m32.756-.4h-.034c-1.232-.084-2.477-.158-3.7-.22a.483.483,0,0,1,.048-.966c1.23.062,2.48.136,3.718.22a.483.483,0,0,1-.032.966m-25.507-.133a.484.484,0,0,1-.027-.966c1.24-.07,2.492-.131,3.719-.179a.484.484,0,1,1,.038.966c-1.221.048-2.467.108-3.7.178h-.028m18.246-.233h-.015c-1.232-.04-2.479-.069-3.706-.086a.483.483,0,0,1,.006-.966h.007c1.232.017,2.485.046,3.724.086a.483.483,0,0,1-.015.966m-10.984-.055a.483.483,0,0,1-.01-.966c1.234-.028,2.486-.044,3.722-.049h0a.483.483,0,0,1,0,.967c-1.23,0-2.477.021-3.705.048h-.011M58.37,150.3a.483.483,0,0,1-.283-.092c-1.006-.728-2.007-1.5-2.973-2.282a.484.484,0,0,1,.61-.751c.952.775,1.938,1.531,2.929,2.249a.484.484,0,0,1-.283.876m316.888-1.08a.484.484,0,0,1-.356-.812l.15-.162c.836-.913,1.671-1.839,2.48-2.752a.484.484,0,1,1,.723.642c-.813.917-1.651,1.847-2.491,2.764l-.152.165a.481.481,0,0,1-.355.156M52.721,145.713a.483.483,0,0,1-.325-.126c-.921-.836-1.831-1.71-2.7-2.6a.484.484,0,1,1,.689-.679c.861.874,1.757,1.736,2.665,2.56a.483.483,0,0,1-.325.841m327.508-2.093a.483.483,0,0,1-.367-.8c.805-.939,1.609-1.893,2.386-2.835a.483.483,0,0,1,.745.616c-.781.946-1.588,1.905-2.4,2.849a.483.483,0,0,1-.367.169M47.606,140.533a.482.482,0,0,1-.362-.163c-.825-.932-1.635-1.9-2.408-2.875a.483.483,0,0,1,.758-.6c.761.962,1.56,1.915,2.373,2.833a.484.484,0,0,1-.361.8m337.253-2.515a.483.483,0,0,1-.378-.785c.772-.97,1.539-1.954,2.279-2.923a.484.484,0,0,1,.769.587c-.744.974-1.515,1.962-2.292,2.938a.483.483,0,0,1-.379.182M43.082,134.836a.482.482,0,0,1-.394-.2c-.719-1.011-1.42-2.057-2.083-3.108a.483.483,0,1,1,.818-.516c.655,1.036,1.346,2.067,2.054,3.064a.483.483,0,0,1-.394.763m346.193-2.595a.483.483,0,0,1-.389-.769c.735-1,1.462-2.017,2.159-3.013a.483.483,0,1,1,.792.555c-.7,1-1.432,2.022-2.172,3.03a.483.483,0,0,1-.39.2M39.193,128.7a.483.483,0,0,1-.422-.246c-.607-1.082-1.194-2.195-1.744-3.31a.483.483,0,0,1,.867-.428c.542,1.1,1.121,2.2,1.72,3.264a.483.483,0,0,1-.421.72m354.256-2.413a.483.483,0,0,1-.4-.752c.689-1.031,1.37-2.076,2.024-3.106a.483.483,0,1,1,.816.517c-.658,1.037-1.343,2.089-2.036,3.126a.484.484,0,0,1-.4.215m-357.477-4.1a.484.484,0,0,1-.445-.292c-.491-1.14-.959-2.308-1.388-3.474a.483.483,0,1,1,.906-.335c.425,1.149.885,2.3,1.37,3.426a.484.484,0,0,1-.253.635.475.475,0,0,1-.191.039m361.377-2.042a.483.483,0,0,1-.414-.732c.638-1.061,1.267-2.138,1.868-3.2a.483.483,0,0,1,.841.476c-.606,1.071-1.238,2.156-1.881,3.224a.484.484,0,0,1-.415.234m-363.9-4.771a.483.483,0,0,1-.461-.34c-.37-1.182-.714-2.393-1.023-3.6a.484.484,0,1,1,.937-.24c.3,1.189.644,2.382,1.009,3.549a.484.484,0,0,1-.317.606.492.492,0,0,1-.144.023m367.488-1.562a.477.477,0,0,1-.226-.057.483.483,0,0,1-.2-.653c.582-1.1,1.151-2.2,1.691-3.3a.483.483,0,1,1,.866.428c-.544,1.1-1.118,2.219-1.7,3.323a.483.483,0,0,1-.428.256m-369.3-5.475a.484.484,0,0,1-.474-.387c-.247-1.213-.466-2.452-.652-3.682a.483.483,0,1,1,.956-.144c.183,1.214.4,2.437.644,3.633a.483.483,0,0,1-.378.57.5.5,0,0,1-.1.01m372.527-1.048a.483.483,0,0,1-.439-.685c.515-1.125,1.016-2.266,1.488-3.392a.483.483,0,1,1,.892.374c-.476,1.136-.981,2.286-1.5,3.421a.483.483,0,0,1-.44.282M30.543,101.151a.483.483,0,0,1-.481-.435c-.125-1.23-.22-2.485-.283-3.728a.483.483,0,0,1,.966-.049c.062,1.227.156,2.465.279,3.68a.483.483,0,0,1-.432.53.423.423,0,0,1-.049,0m376.437-.574a.476.476,0,0,1-.172-.032.484.484,0,0,1-.28-.624c.441-1.156.865-2.327,1.259-3.481a.483.483,0,1,1,.915.312c-.4,1.165-.825,2.348-1.27,3.514a.485.485,0,0,1-.452.311M30.166,93.895a.483.483,0,0,1-.483-.481V93.15c0-1.149.026-2.319.079-3.475a.483.483,0,0,1,.966.044c-.052,1.142-.077,2.3-.077,3.431v.26a.483.483,0,0,1-.482.485Zm379.167-.2a.477.477,0,0,1-.139-.021.483.483,0,0,1-.323-.6c.358-1.185.694-2.384,1-3.561a.484.484,0,1,1,.936.243c-.309,1.19-.648,2.4-1.009,3.6a.484.484,0,0,1-.463.344m1.831-7.038a.473.473,0,0,1-.1-.011.484.484,0,0,1-.37-.575c.263-1.2.5-2.424.711-3.626a.484.484,0,1,1,.953.166c-.211,1.216-.453,2.449-.718,3.667a.483.483,0,0,1-.472.38M30.485,86.632l-.044,0A.484.484,0,0,1,30,86.1c.111-1.23.254-2.481.425-3.716a.483.483,0,1,1,.957.132c-.168,1.22-.309,2.456-.419,3.672a.484.484,0,0,1-.481.44M412.412,79.5a.528.528,0,0,1-.063,0,.484.484,0,0,1-.417-.542c.159-1.22.292-2.455.395-3.67a.483.483,0,1,1,.963.081c-.1,1.23-.238,2.479-.4,3.714a.483.483,0,0,1-.479.421M31.47,79.428a.5.5,0,0,1-.087-.008.484.484,0,0,1-.389-.562c.222-1.214.474-2.446.752-3.661a.483.483,0,1,1,.943.216c-.274,1.2-.524,2.419-.743,3.619a.484.484,0,0,1-.475.4m1.61-7.089a.483.483,0,0,1-.467-.61c.324-1.191.679-2.4,1.055-3.584a.483.483,0,1,1,.921.292c-.372,1.175-.723,2.368-1.044,3.546a.483.483,0,0,1-.466.356m379.949-.078h-.019a.483.483,0,0,1-.465-.5c.041-1.014.061-2.039.061-3.047,0-.215,0-.43,0-.645a.484.484,0,0,1,.479-.488h0a.484.484,0,0,1,.484.48c0,.218,0,.435,0,.653,0,1.021-.021,2.059-.061,3.085a.483.483,0,0,1-.483.464M35.268,65.408a.483.483,0,0,1-.455-.647c.417-1.159.865-2.333,1.333-3.489a.483.483,0,0,1,.9.363c-.463,1.145-.906,2.307-1.319,3.454a.483.483,0,0,1-.455.32m377.706-.414a.483.483,0,0,1-.482-.457c-.041-.744-.094-1.5-.157-2.24q-.048-.568-.1-1.138c-.009-.1-.019-.2-.03-.305a.484.484,0,1,1,.962-.1c.01.1.021.209.03.312q.053.574.1,1.145c.064.752.118,1.516.159,2.27a.483.483,0,0,1-.456.509h-.027M37.985,58.666a.474.474,0,0,1-.2-.043.483.483,0,0,1-.244-.638c.512-1.147,1.048-2.283,1.593-3.378a.483.483,0,1,1,.865.43c-.539,1.084-1.069,2.208-1.576,3.342a.484.484,0,0,1-.442.287m374.178-.89a.484.484,0,0,1-.474-.391c-.23-1.178-.521-2.379-.864-3.568a.483.483,0,1,1,.929-.268c.351,1.216.649,2.445.884,3.651a.483.483,0,0,1-.382.567.5.5,0,0,1-.093.009M41.219,52.159a.484.484,0,0,1-.423-.718c.607-1.1,1.241-2.185,1.884-3.227a.483.483,0,1,1,.823.508c-.635,1.029-1.261,2.1-1.86,3.187a.483.483,0,0,1-.424.25M410.17,50.795a.485.485,0,0,1-.453-.314c-.423-1.127-.9-2.269-1.421-3.393a.483.483,0,1,1,.877-.407c.531,1.146,1.019,2.31,1.45,3.46a.484.484,0,0,1-.283.622.477.477,0,0,1-.17.031M45.029,45.974a.483.483,0,0,1-.4-.757c.711-1.034,1.451-2.051,2.2-3.023a.483.483,0,0,1,.765.59c-.74.959-1.47,1.962-2.17,2.981a.483.483,0,0,1-.4.209m362.1-1.777a.484.484,0,0,1-.425-.252c-.58-1.061-1.209-2.129-1.872-3.174a.483.483,0,0,1,.817-.517c.673,1.062,1.314,2.148,1.9,3.227a.484.484,0,0,1-.424.716M217.791,41.707c-.8,0-1.631-.015-2.456-.046a.484.484,0,0,1,.037-.966c1.248.047,2.493.058,3.687.033a.484.484,0,0,1,.02.967c-.423.008-.856.013-1.288.013m4.822-.193a.483.483,0,0,1-.039-.965c1.229-.1,2.456-.244,3.648-.426a.484.484,0,0,1,.146.956c-1.213.184-2.462.33-3.714.433l-.04,0m-10.806-.075-.043,0c-1.21-.106-2.46-.244-3.715-.412a.484.484,0,0,1,.128-.959c1.241.166,2.476.3,3.671.407a.483.483,0,0,1-.041.965m-7.206-.95a.463.463,0,0,1-.083-.007c-1.194-.207-2.428-.445-3.666-.7a.484.484,0,1,1,.2-.946c1.227.258,2.449.493,3.632.7a.483.483,0,0,1-.082.959m25.178-.059a.483.483,0,0,1-.105-.955c1.187-.266,2.381-.581,3.549-.935a.483.483,0,0,1,.281.925c-1.191.361-2.409.682-3.619.953a.5.5,0,0,1-.106.012M49.462,40.221a.484.484,0,0,1-.366-.8c.818-.947,1.67-1.874,2.532-2.756a.483.483,0,0,1,.692.675c-.848.868-1.687,1.781-2.492,2.713a.483.483,0,0,1-.366.168M197.485,39a.468.468,0,0,1-.115-.014c-1.179-.285-2.394-.6-3.612-.93a.483.483,0,1,1,.254-.933c1.209.329,2.415.64,3.585.924a.483.483,0,0,1-.113.953m39.234-.66a.484.484,0,0,1-.171-.935c1.12-.425,2.261-.9,3.393-1.418a.483.483,0,1,1,.4.879c-1.151.525-2.312,1.01-3.451,1.442a.488.488,0,0,1-.172.032m166.538-.29a.484.484,0,0,1-.394-.2c-.707-.984-1.459-1.971-2.237-2.933a.484.484,0,0,1,.753-.608c.789.976,1.552,1.977,2.27,2.976a.483.483,0,0,1-.392.765M190.469,37.1a.485.485,0,0,1-.134-.019l-3.567-1.032a.484.484,0,0,1,.269-.929l3.566,1.032a.484.484,0,0,1-.134.948m52.853-1.754a.484.484,0,0,1-.225-.912c1.053-.551,2.109-1.136,3.228-1.789a.483.483,0,0,1,.487.835c-1.131.66-2.2,1.252-3.266,1.811a.482.482,0,0,1-.224.055m-59.831-.267a.463.463,0,0,1-.135-.019l-3.568-1.031a.483.483,0,0,1,.267-.929l3.57,1.031a.483.483,0,0,1-.134.948M54.531,35.022a.483.483,0,0,1-.325-.841c.924-.838,1.884-1.653,2.854-2.424a.483.483,0,0,1,.6.757c-.953.758-1.9,1.559-2.806,2.383a.483.483,0,0,1-.325.125m121.974-1.951a.476.476,0,0,1-.133-.019q-1.786-.511-3.574-1.019a.484.484,0,0,1,.264-.93q1.789.507,3.576,1.019a.483.483,0,0,1-.133.948m222.191-.68a.482.482,0,0,1-.359-.16c-.812-.9-1.665-1.806-2.536-2.683a.483.483,0,1,1,.685-.682c.883.887,1.748,1.8,2.57,2.718a.483.483,0,0,1-.359.807M249.6,31.708a.483.483,0,0,1-.257-.893c.961-.6,1.978-1.261,3.11-2.007a.484.484,0,0,1,.533.807c-1.138.751-2.161,1.411-3.129,2.019a.481.481,0,0,1-.257.074m-80.1-.62a.485.485,0,0,1-.131-.018q-1.79-.5-3.581-.994a.483.483,0,1,1,.256-.932q1.793.494,3.585,1a.483.483,0,0,1-.13.949M60.211,30.5a.484.484,0,0,1-.277-.88c1.019-.709,2.076-1.4,3.142-2.038a.484.484,0,0,1,.5.828c-1.048.632-2.087,1.306-3.088,2a.481.481,0,0,1-.276.086m102.282-1.339a.508.508,0,0,1-.126-.017c-1.217-.329-2.426-.651-3.592-.958a.484.484,0,0,1,.247-.935c1.168.308,2.378.631,3.6.96a.484.484,0,0,1-.126.95m93.184-1.438a.484.484,0,0,1-.271-.885l1.8-1.217,1.276-.865a.484.484,0,0,1,.542.8l-1.276.864-1.8,1.218a.482.482,0,0,1-.271.083M155.454,27.3a.487.487,0,0,1-.12-.015c-1.218-.312-2.431-.618-3.605-.909a.484.484,0,0,1,.233-.939c1.176.292,2.392.6,3.612.911a.484.484,0,0,1-.119.952m238.123-.073a.481.481,0,0,1-.326-.127c-.9-.821-1.835-1.638-2.784-2.426a.484.484,0,0,1,.618-.744c.961.8,1.91,1.625,2.819,2.457a.483.483,0,0,1-.327.84M66.42,26.739a.483.483,0,0,1-.224-.912c1.1-.571,2.23-1.118,3.372-1.625a.484.484,0,0,1,.392.884c-1.123.5-2.239,1.037-3.317,1.6a.481.481,0,0,1-.224.055m81.965-1.187a.482.482,0,0,1-.113-.014c-1.225-.292-2.443-.577-3.621-.847a.483.483,0,1,1,.215-.943c1.181.27,2.4.555,3.63.848a.484.484,0,0,1-.111.954m-7.1-1.621a.478.478,0,0,1-.1-.012c-1.226-.266-2.448-.524-3.631-.766a.483.483,0,1,1,.194-.947c1.187.242,2.412.5,3.643.769a.484.484,0,0,1-.1.956M73.054,23.78a.484.484,0,0,1-.171-.936c1.153-.434,2.344-.843,3.542-1.217a.484.484,0,1,1,.288.923c-1.18.369-2.354.772-3.489,1.2a.492.492,0,0,1-.17.031M261.7,23.657a.484.484,0,0,1-.269-.886c1.124-.747,2.143-1.413,3.114-2.037a.483.483,0,1,1,.522.814c-.967.62-1.982,1.284-3.1,2.029a.48.48,0,0,1-.267.081m126.291-1.078a.482.482,0,0,1-.292-.1c-.972-.738-1.978-1.468-2.991-2.168a.483.483,0,1,1,.55-.795c1.024.709,2.042,1.447,3.026,2.194a.484.484,0,0,1-.293.868m-253.827-.106a.493.493,0,0,1-.091-.008c-1.226-.235-2.454-.46-3.649-.67a.483.483,0,0,1,.167-.952c1.2.211,2.433.437,3.663.673a.483.483,0,0,1-.09.958M79.986,21.6a.483.483,0,0,1-.119-.952c1.187-.3,2.413-.585,3.645-.835a.483.483,0,1,1,.192.947c-1.216.247-2.426.524-3.6.824a.483.483,0,0,1-.12.015M127,21.212a.521.521,0,0,1-.077-.006c-1.234-.2-2.467-.384-3.666-.553a.483.483,0,1,1,.135-.957c1.2.171,2.444.358,3.684.556a.483.483,0,0,1-.075.961m-7.2-1.02a.463.463,0,0,1-.059,0c-1.243-.153-2.482-.291-3.683-.412a.483.483,0,1,1,.1-.962c1.209.122,2.455.262,3.7.414a.483.483,0,0,1-.058.963m-32.7-.046a.484.484,0,0,1-.074-.961c1.209-.189,2.455-.356,3.7-.5a.484.484,0,0,1,.108.961c-1.234.139-2.466.3-3.661.492a.51.51,0,0,1-.076.006m180.711-.41a.483.483,0,0,1-.253-.9c1.084-.663,2.162-1.3,3.205-1.9a.483.483,0,0,1,.481.838c-1.035.595-2.106,1.23-3.182,1.888a.479.479,0,0,1-.252.071m-155.248-.274h-.038c-1.245-.1-2.489-.178-3.7-.242a.483.483,0,0,1,.051-.965c1.216.064,2.468.146,3.721.244a.483.483,0,0,1-.037.965m-18.242-.139a.484.484,0,0,1-.035-.966c1.218-.09,2.472-.16,3.728-.207a.484.484,0,0,1,.036.966c-1.245.046-2.487.115-3.693.2l-.036,0m10.98-.242H105.3c-1.247-.032-2.489-.044-3.7-.038h0a.484.484,0,0,1,0-.967c1.223-.006,2.474.006,3.731.039a.484.484,0,0,1-.012.967m276.711-.644a.484.484,0,0,1-.258-.075c-1.032-.653-2.1-1.3-3.165-1.91a.483.483,0,0,1,.482-.838c1.08.621,2.156,1.27,3.2,1.93a.484.484,0,0,1-.259.892m-107.9-2.317a.483.483,0,0,1-.229-.91c1.1-.589,2.219-1.162,3.318-1.7a.483.483,0,0,1,.426.868c-1.089.535-2.2,1.1-3.288,1.686a.484.484,0,0,1-.227.057M375.722,14.8a.474.474,0,0,1-.224-.055c-1.084-.568-2.2-1.123-3.308-1.65a.483.483,0,0,1,.414-.874c1.123.532,2.247,1.093,3.342,1.667a.483.483,0,0,1-.225.912m-95.089-1.888a.483.483,0,0,1-.2-.924c1.131-.507,2.285-1,3.432-1.462a.484.484,0,1,1,.362.9c-1.135.459-2.279.946-3.4,1.448a.475.475,0,0,1-.2.043m88.524-1.232a.474.474,0,0,1-.19-.039c-1.124-.482-2.277-.95-3.425-1.391a.483.483,0,1,1,.347-.9c1.16.445,2.324.918,3.46,1.405a.484.484,0,0,1-.191.928m-81.794-1.495a.484.484,0,0,1-.166-.938c1.159-.421,2.346-.828,3.528-1.209a.484.484,0,0,1,.3.921c-1.171.378-2.347.78-3.494,1.2a.494.494,0,0,1-.165.029m75.011-1.117a.475.475,0,0,1-.157-.026c-1.158-.4-2.342-.778-3.519-1.134a.483.483,0,0,1,.279-.926c1.189.359,2.385.744,3.554,1.145a.483.483,0,0,1-.157.941m-68.1-1.118a.483.483,0,0,1-.133-.948c1.182-.337,2.395-.66,3.6-.961a.484.484,0,0,1,.233.939c-1.2.3-2.4.618-3.57.952a.475.475,0,0,1-.133.019m61.147-.99a.48.48,0,0,1-.124-.016c-1.183-.312-2.392-.609-3.592-.88a.483.483,0,0,1,.213-.943c1.211.274,2.431.573,3.626.888a.483.483,0,0,1-.123.951m-54.1-.767a.483.483,0,0,1-.1-.956c1.2-.258,2.427-.5,3.655-.727a.483.483,0,0,1,.174.951c-1.219.223-2.439.465-3.626.721a.5.5,0,0,1-.1.011m47.014-.841a.494.494,0,0,1-.091-.009c-1.2-.229-2.429-.441-3.644-.63a.483.483,0,0,1,.148-.955c1.227.191,2.464.4,3.678.636a.484.484,0,0,1-.09.959M308.46,4.885a.484.484,0,0,1-.073-.962l.62-.093c1.022-.152,2.057-.294,3.074-.421a.483.483,0,1,1,.12.959c-1.01.126-2.037.267-3.052.417l-.615.093a.484.484,0,0,1-.074.006m32.689-.649a.448.448,0,0,1-.059,0c-1.214-.148-2.452-.278-3.679-.386a.483.483,0,0,1,.084-.963c1.238.109,2.487.24,3.711.389a.483.483,0,0,1-.058.963m-25.476-.254a.484.484,0,0,1-.046-.965c1.237-.119,2.487-.221,3.718-.3a.484.484,0,0,1,.064.965c-1.22.081-2.462.182-3.689.3l-.047,0m18.236-.388h-.028c-1.222-.069-2.466-.119-3.7-.148a.484.484,0,0,1,.023-.967c1.241.03,2.5.08,3.728.149a.484.484,0,0,1-.027.966m-10.982-.1a.483.483,0,0,1-.018-.966c1.243-.046,2.5-.074,3.73-.082a.484.484,0,0,1,.006.967c-1.223.008-2.468.035-3.7.081h-.019" transform="translate(-10.56 -0.871)" fill="#cdbfbc"/>
            <path id="Trazado_1068872" data-name="Trazado 1068872" d="M640.549,217.593a2.649,2.649,0,0,1-2.635,2.638h-56.4a2.634,2.634,0,0,1-1.859-4.5,2.608,2.608,0,0,1,1.859-.776h2.666a6.876,6.876,0,0,1,11.189-2.13,9.551,9.551,0,0,1,11-4.3,10.916,10.916,0,0,1,20.163,2.2,6.876,6.876,0,0,1,9.68,4.227h1.7a2.645,2.645,0,0,1,2.635,2.638" transform="translate(-205.945 -72.122)" fill="#e3d7d5"/>
            <path id="Trazado_1068873" data-name="Trazado 1068873" d="M61.669,146.682a2.648,2.648,0,0,1-2.635,2.638H2.636a2.633,2.633,0,0,1-1.859-4.5,2.606,2.606,0,0,1,1.859-.776H5.3a6.875,6.875,0,0,1,11.189-2.13,9.551,9.551,0,0,1,11-4.3,10.916,10.916,0,0,1,20.163,2.2,6.876,6.876,0,0,1,9.68,4.227h1.7a2.645,2.645,0,0,1,2.635,2.638" transform="translate(0 -46.895)" fill="#e3d7d5"/>
            <path id="Trazado_1068874" data-name="Trazado 1068874" d="M308.871,14.869a2.648,2.648,0,0,1-2.635,2.638h-56.4a2.634,2.634,0,0,1-1.859-4.5,2.608,2.608,0,0,1,1.859-.776H252.5a6.875,6.875,0,0,1,11.189-2.13,9.548,9.548,0,0,1,11-4.3A10.916,10.916,0,0,1,294.859,8a6.876,6.876,0,0,1,9.68,4.226h1.7a2.645,2.645,0,0,1,2.635,2.639" transform="translate(-87.946 0)" fill="#e3d7d5"/>
            <path id="Trazado_1068875" data-name="Trazado 1068875" d="M420.121,63.4l1.267-6.455-6.048-1.187a14.769,14.769,0,0,0-.8-4.725l4.983-3.347-3.668-5.461-4.77,3.2a14.716,14.716,0,0,0-4.9-3.294l1.189-6.049-6.455-1.266L399.7,41.052a14.62,14.62,0,0,0-3.928.765l-3.347-4.984L386.962,40.5l3.2,4.769a14.739,14.739,0,0,0-3.294,4.9l-5.287-1.039-1.267,6.455,5.473,1.074a14.669,14.669,0,0,0,1.162,4.981l-4.771,3.2,3.668,5.461,4.984-3.348a14.708,14.708,0,0,0,4.809,2.794l-1.2,6.085L400.9,77.1l1.295-6.6a14.643,14.643,0,0,0,4.179-1.1l3.2,4.771,5.46-3.668-3.347-4.983a14.707,14.707,0,0,0,2.193-3.348Zm-16.212-2.585a6.029,6.029,0,1,1,1.642-8.367,6.035,6.035,0,0,1-1.642,8.367" transform="translate(-135.304 -12.387)" fill="#e3d7d5"/>
            <path id="Trazado_1068876" data-name="Trazado 1068876" d="M382.326,15.292,383,11.838l-3.236-.635a7.894,7.894,0,0,0-.428-2.528l2.667-1.792-1.963-2.921L377.49,5.677a7.873,7.873,0,0,0-2.619-1.763l.635-3.236L372.053,0,371.4,3.336a7.865,7.865,0,0,0-2.1.409l-1.791-2.666-2.922,1.963L366.3,5.593a7.876,7.876,0,0,0-1.763,2.62l-2.829-.556-.678,3.454,2.929.575a7.864,7.864,0,0,0,.622,2.665l-2.552,1.714,1.963,2.922,2.667-1.791a7.88,7.88,0,0,0,2.572,1.495l-.64,3.255,3.454.678.693-3.53a7.809,7.809,0,0,0,2.235-.589l1.714,2.552,2.922-1.963-1.792-2.666a7.88,7.88,0,0,0,1.174-1.791Zm-8.674-1.383a3.226,3.226,0,1,1,.879-4.477,3.229,3.229,0,0,1-.879,4.477" transform="translate(-128.441 0)" fill="#e3d7d5"/>
            <path id="Trazado_1068877" data-name="Trazado 1068877" d="M60.845,63.079l.9-4.573-4.284-.841a10.477,10.477,0,0,0-.567-3.347l3.53-2.372-2.6-3.868-3.379,2.27a10.431,10.431,0,0,0-3.469-2.334l.842-4.285-4.573-.9-.866,4.416a10.39,10.39,0,0,0-2.782.542l-2.372-3.531-3.868,2.6,2.27,3.379a10.439,10.439,0,0,0-2.333,3.469l-3.746-.736-.9,4.573,3.878.761a10.4,10.4,0,0,0,.823,3.528l-3.38,2.27,2.6,3.868L40.1,65.6A10.437,10.437,0,0,0,43.5,67.578l-.847,4.311,4.573.9.917-4.673a10.344,10.344,0,0,0,2.96-.781l2.27,3.38,3.868-2.6-2.371-3.53a10.388,10.388,0,0,0,1.553-2.371ZM49.359,61.247a4.271,4.271,0,1,1,1.163-5.928,4.276,4.276,0,0,1-1.163,5.928" transform="translate(-11.614 -15.238)" fill="#e3d7d5"/>
            <path id="Trazado_1068878" data-name="Trazado 1068878" d="M654.941,166.381l.9-4.573-4.284-.841a10.476,10.476,0,0,0-.567-3.347l3.53-2.372-2.6-3.868-3.379,2.27a10.431,10.431,0,0,0-3.469-2.334l.842-4.285-4.573-.9-.867,4.416a10.392,10.392,0,0,0-2.782.542l-2.372-3.531-3.869,2.6,2.27,3.379a10.439,10.439,0,0,0-2.333,3.469l-3.746-.736-.9,4.573,3.878.761a10.4,10.4,0,0,0,.823,3.528l-3.38,2.27,2.6,3.868,3.531-2.371a10.437,10.437,0,0,0,3.407,1.979l-.847,4.311,4.573.9.917-4.673a10.349,10.349,0,0,0,2.96-.781l2.27,3.38,3.868-2.6-2.371-3.53a10.379,10.379,0,0,0,1.553-2.371Zm-11.485-1.832a4.271,4.271,0,1,1,1.163-5.928,4.276,4.276,0,0,1-1.163,5.928" transform="translate(-222.972 -51.989)" fill="#e3d7d5"/>
            <path id="Trazado_1068879" data-name="Trazado 1068879" d="M128.594,367.022c0,2.339-15.281,4.234-34.131,4.234s-34.131-1.9-34.131-4.234,15.281-4.234,34.131-4.234,34.131,1.9,34.131,4.234" transform="translate(-21.464 -129.067)" fill="#e3d7d5"/>
            <path id="Trazado_1068880" data-name="Trazado 1068880" d="M174.03,89.365a64,64,0,0,1-8.276,9.111,56.626,56.626,0,0,1-10.223,7.332,4.67,4.67,0,0,1-4.685-.068l-.526-.32L130.355,93.409a6.649,6.649,0,0,1,6.857-11.395,7.3,7.3,0,0,1,.693.481l16.068,12.691a47.054,47.054,0,0,0,6.151-3.684,55.7,55.7,0,0,0,8.09-7.05l.016-.016a3.813,3.813,0,0,1,5.8,4.929" transform="translate(-45.229 -28.839)" fill="#354adb"/>
            <path id="Trazado_1068881" data-name="Trazado 1068881" d="M199.607,82.123h0c-.05.014-.1.026-.155.039,0,0-.064.117-.183.306-.573.908-2.432,3.473-4.647,2.614-.173-.068-.339-.141-.5-.22-.177-.09-.345-.185-.506-.288a7.354,7.354,0,0,1-2.707-3.22s-.531-4.523,1.3-5.606c1.058-.627,1.674-.455,2-.2a1.086,1.086,0,0,1,.33.417s.1-.125.269-.338c.966-1.207,4.253-5.241,5.062-5.325.952-.1-2.417,5.627-2.417,5.627s.8-.241,2.451,1.406c1.616,1.615,2.245,4.119-.3,4.785" transform="translate(-67.893 -25.012)" fill="#fdbb92"/>
            <path id="Trazado_1068882" data-name="Trazado 1068882" d="M200.083,83.96a.235.235,0,0,1-.039-.466c.019,0,.676-.149,1.347-1.306a.234.234,0,1,1,.405.235c-.8,1.383-1.642,1.528-1.678,1.534a.226.226,0,0,1-.036,0" transform="translate(-71.099 -29.198)" fill="#fd967d"/>
            <path id="Trazado_1068883" data-name="Trazado 1068883" d="M201.68,86.281a.234.234,0,0,1-.063-.46,2.781,2.781,0,0,0,1.633-1.406.234.234,0,1,1,.429.189,3.209,3.209,0,0,1-1.936,1.669.24.24,0,0,1-.063.008" transform="translate(-71.667 -29.982)" fill="#fd967d"/>
            <path id="Trazado_1068884" data-name="Trazado 1068884" d="M196.276,81.232a1.266,1.266,0,0,1-1.005.33,10.161,10.161,0,0,1-2.933-.666.234.234,0,1,1,.163-.439c1.178.437,3.078.892,3.409.48.114-.141.017-.477-.267-.924l-.952-1.565a1.087,1.087,0,0,1,.33.417s.1-.125.269-.338l.752,1.238c.153.239.626.982.235,1.466" transform="translate(-68.373 -27.909)" fill="#fd967d"/>
            <path id="Trazado_1068885" data-name="Trazado 1068885" d="M202.629,85.669c-.05.014-.1.026-.155.039,0,0-.064.117-.183.306-3.872-2.261-2.834-5.547-2.821-5.582a.234.234,0,0,1,.444.147c-.043.13-.938,3.026,2.715,5.089" transform="translate(-70.916 -28.558)" fill="#fd967d"/>
            <path id="Trazado_1068886" data-name="Trazado 1068886" d="M114.271,215.864l-5.142,77.642,8.441-.521,18.236-96.85-19.861.673Z" transform="translate(-38.824 -69.778)" fill="#002029"/>
            <path id="Trazado_1068887" data-name="Trazado 1068887" d="M109.723,346.118l-.594,7.387a10.131,10.131,0,0,0,6.446.783l1.223-8.731Z" transform="translate(-38.824 -122.936)" fill="#fdbb92"/>
            <path id="Trazado_1068888" data-name="Trazado 1068888" d="M118.032,343.813a7.352,7.352,0,0,1-.34,4.526l-10.116-.476a11.651,11.651,0,0,1-.086-4.445Z" transform="translate(-38.18 -122.176)" fill="#173953"/>
            <path id="Trazado_1068889" data-name="Trazado 1068889" d="M132.665,364.595c-.548,1.168-24.6-.086-24.6-.086s-.763-7.141-.01-9.339,4.258.271,6.663-.282c0,0,1.44-1.994,2.608-1.926a18.935,18.935,0,0,1,3.836,2.245c.306.2.624.411.949.624q.337.224.685.451c.376.248.759.5,1.142.745l.434.279h0c.351.227.7.449,1.053.667a19.865,19.865,0,0,0,5.259,2.629c3.092.548,2.527,2.825,1.978,3.994" transform="translate(-38.324 -125.57)" fill="#354adb"/>
            <path id="Trazado_1068890" data-name="Trazado 1068890" d="M130.694,358.861a2.222,2.222,0,0,0-1.317.258,5.868,5.868,0,0,0-1.859,2.026.421.421,0,0,1-.248.2.43.43,0,0,1-.508-.618,6.611,6.611,0,0,1,2.215-2.376,3.526,3.526,0,0,1,.575-.238c.631.054,1.158.195,1.142.746" transform="translate(-45.078 -127.405)" fill="#fff"/>
            <path id="Trazado_1068891" data-name="Trazado 1068891" d="M128.145,357.071a2.338,2.338,0,0,0-.794.256,5.858,5.858,0,0,0-1.859,2.027.431.431,0,1,1-.755-.417,6.612,6.612,0,0,1,2.214-2.376,2.675,2.675,0,0,1,.245-.114c.4.033.857.008.949.623" transform="translate(-44.358 -126.811)" fill="#fff"/>
            <path id="Trazado_1068892" data-name="Trazado 1068892" d="M133.153,360.364a2.287,2.287,0,0,0-1.047.274,5.859,5.859,0,0,0-1.857,2.026.432.432,0,1,1-.757-.416,6.648,6.648,0,0,1,2.215-2.375,3.507,3.507,0,0,1,.392-.176h0c.685-.066,1.093.108,1.053.667" transform="translate(-46.049 -127.963)" fill="#fff"/>
            <path id="Trazado_1068893" data-name="Trazado 1068893" d="M79.544,293.8l7.509.343,19.256-45.491,3.946-49.242-17.627-2.681-.977-.148-2.943-.448c1.283,10.526,3.12,47.746,3.12,47.746a163.929,163.929,0,0,0-5.8,16.842c-2.577,9.153-6.484,33.08-6.484,33.08" transform="translate(-28.299 -69.778)" fill="#173953"/>
            <path id="Trazado_1068894" data-name="Trazado 1068894" d="M81.923,293.556a.4.4,0,0,0,.087.008.482.482,0,0,0,.475-.4c.045-.251,4.589-25.213,7.284-33.139,1.773-5.217,6.235-15.645,6.28-15.75a.481.481,0,0,0,.039-.217l-2.755-47.083-.977-.148L95.115,244c-.475,1.115-4.573,10.748-6.262,15.713-2.719,8-7.274,33.027-7.32,33.279a.482.482,0,0,0,.39.56" transform="translate(-29.004 -70.025)" fill="#002029"/>
            <path id="Trazado_1068895" data-name="Trazado 1068895" d="M80,345.951l-2.179,7.512a10.139,10.139,0,0,0,6.446.783l2.17-8.807Z" transform="translate(-27.688 -122.895)" fill="#fdbb92"/>
            <path id="Trazado_1068896" data-name="Trazado 1068896" d="M87.853,344.6c.371,1.8.265,3.141-1.107,4.239l-10.57-.614a7.276,7.276,0,0,1,.369-4.307Z" transform="translate(-27.04 -122.354)" fill="#2a5b74"/>
            <path id="Trazado_1068897" data-name="Trazado 1068897" d="M100.638,364.595c-.548,1.168-24.6-.086-24.6-.086s-.763-7.141-.01-9.339,4.258.271,6.663-.282c0,0,1.44-1.994,2.608-1.926a18.934,18.934,0,0,1,3.836,2.245l.948.624q.338.224.686.451c.376.248.759.5,1.142.745l.434.279h0c.351.227.7.449,1.053.667A19.865,19.865,0,0,0,98.66,360.6c3.092.548,2.527,2.825,1.978,3.994" transform="translate(-26.93 -125.57)" fill="#3263ff"/>
            <path id="Trazado_1068898" data-name="Trazado 1068898" d="M98.667,358.861a2.222,2.222,0,0,0-1.317.258,5.868,5.868,0,0,0-1.859,2.026.421.421,0,0,1-.248.2.43.43,0,0,1-.508-.618,6.611,6.611,0,0,1,2.215-2.376,3.526,3.526,0,0,1,.575-.238c.631.054,1.158.195,1.142.746" transform="translate(-33.684 -127.405)" fill="#fff"/>
            <path id="Trazado_1068899" data-name="Trazado 1068899" d="M96.118,357.071a2.338,2.338,0,0,0-.794.256,5.858,5.858,0,0,0-1.859,2.027.431.431,0,1,1-.755-.417,6.612,6.612,0,0,1,2.214-2.376,2.675,2.675,0,0,1,.245-.114c.4.033.857.008.949.623" transform="translate(-32.964 -126.811)" fill="#fff"/>
            <path id="Trazado_1068900" data-name="Trazado 1068900" d="M101.126,360.364a2.287,2.287,0,0,0-1.047.274,5.859,5.859,0,0,0-1.857,2.026.432.432,0,1,1-.757-.416,6.648,6.648,0,0,1,2.215-2.375,3.508,3.508,0,0,1,.392-.176h0c.685-.066,1.093.108,1.053.667" transform="translate(-34.655 -127.963)" fill="#fff"/>
            <path id="Trazado_1068901" data-name="Trazado 1068901" d="M128.184,155.244c-3.737,1.96-28.426,1.585-33.951-1.569-1.708-.975-2.493-7.264-2.731-15.688q-.017-.571-.028-1.157c-.035-1.544-.052-3.152-.053-4.809v-.506q0-1.1.008-2.219.008-.916.019-1.846c.012-.754.026-1.517.039-2.28,0-.142.005-.282.008-.424q.012-.532.024-1.065c.008-.3.013-.6.023-.908l.019-.792c.008-.248.015-.5.021-.745q.06-2,.133-4.006c.015-.395.029-.785.044-1.178.081-2.025.172-4.035.271-6.006.008-.168.016-.335.026-.5.024-.474.047-.943.073-1.412.011-.2.023-.4.032-.6.013-.22.024-.439.035-.657q.024-.423.048-.839c.013-.219.026-.437.037-.655s.024-.408.035-.609q.046-.766.092-1.517c.008-.169.021-.337.03-.5.546-8.749,1.173-15.69,1.52-17.7C95.086,78.5,110.9,71.985,110.9,71.985l7.165,2.324q.63.2,1.228.464c.253.11.5.225.743.348a13.71,13.71,0,0,1,7.436,13.653c-.24,2.316-.338,4.875-.351,7.521-.005.438-.005.88,0,1.323.006,1.265.029,2.542.061,3.816.012.436.024.87.035,1.305,0,.016,0,.034,0,.053.006.219.015.437.021.656.006.2.014.4.019.608.008.219.017.438.024.657q.039,1.045.081,2.066c.008.208.018.414.026.62.023.56.047,1.116.068,1.661.008.207.017.416.026.62.039.962.077,1.9.108,2.8q.014.4.026.785c.006.242.013.482.019.719s.015.494.019.734c.028,1.281.035,2.462.013,3.5,0,.108-.006.215-.01.32-.011.329-.016.665-.019,1.01-.013,1.377.035,2.887.124,4.489.011.213.023.429.037.643.012.2.024.394.035.593s.029.425.044.64c.035.514.072,1.036.114,1.563.021.258.044.517.063.778,0,.028,0,.058.008.086s0,.024,0,.035c.016.2.031.4.05.593,0,.026.005.052.006.077.029.371.064.745.1,1.12q.019.256.043.507c.045.514.093,1.03.142,1.547.089.933.177,1.871.267,2.8.93,9.688,1.824,19.008-.486,20.22" transform="translate(-32.525 -25.61)" fill="#3263ff"/>
            <path id="Trazado_1068902" data-name="Trazado 1068902" d="M125.44,177.653a27.793,27.793,0,0,1-12.821-3.421,32.938,32.938,0,0,1-6.866-4.782.4.4,0,0,1,.559-.58,32.8,32.8,0,0,0,6.705,4.661c3.756,1.99,9.588,4.127,16.043,3.007a.4.4,0,1,1,.137.794,21.946,21.946,0,0,1-3.758.321" transform="translate(-37.579 -60.038)" fill="#354adb"/>
            <path id="Trazado_1068903" data-name="Trazado 1068903" d="M124.876,94.26a.4.4,0,0,1-.106-.792,16.486,16.486,0,0,0,9.263-7.527.4.4,0,0,1,.712.377,17,17,0,0,1-9.763,7.928.405.405,0,0,1-.106.014" transform="translate(-44.283 -30.498)" fill="#354adb"/>
            <path id="Trazado_1068904" data-name="Trazado 1068904" d="M108.952,126.281a.4.4,0,0,1-.37-.242c-3.912-9.011,1.453-25.565,1.683-26.265a.4.4,0,1,1,.765.252c-.055.168-5.5,16.964-1.709,25.693a.4.4,0,0,1-.369.563" transform="translate(-38.123 -35.397)" fill="#354adb"/>
            <path id="Trazado_1068905" data-name="Trazado 1068905" d="M111.014,103.871a.4.4,0,0,1-.218-.742l3.01-1.925a.4.4,0,1,1,.434.678l-3.009,1.925a.4.4,0,0,1-.216.064" transform="translate(-39.351 -35.982)" fill="#354adb"/>
            <path id="Trazado_1068906" data-name="Trazado 1068906" d="M91.573,151.289c1.1,2.172,2.237,4.1,3.1,4.743.192.144.589.439,3.132.673,2.366.217,6.589.381,14.234.317,4.827-.041,12.822-.267,16.132-.366,0-.024,0-.052-.006-.076-.019-.2-.035-.4-.05-.593-12.118.361-31.551.48-32.975-.582-.9-.673-2.257-3.149-3.526-5.816Z" transform="translate(-32.578 -53.219)" fill="#354adb"/>
            <path id="Trazado_1068907" data-name="Trazado 1068907" d="M92.67,87.662l-.161.384-.131.324L92.132,89c-.158.413-.309.82-.454,1.227-.292.813-.564,1.624-.822,2.438q-.772,2.441-1.372,4.928a64.393,64.393,0,0,0-1.639,10.22,47.073,47.073,0,0,0,.36,10.748,36.928,36.928,0,0,0,1.279,5.472c.288.907.622,1.808.989,2.7s.791,1.77,1.245,2.634h0l.307.533a5.392,5.392,0,0,0,4.675,2.7c3.09-.006,6.145-.03,9.216-.06s6.135-.073,9.2-.126c6.138-.111,14.666-1.342,20.831-1.62.926-.142,1.076-.662.988-2.616a3.541,3.541,0,0,0-3.2-3.365h-.015c-6.022-.582-12.062-1.29-18.1-2.038q-4.527-.563-9.053-1.162c-3.012-.4-6.04-.805-9.031-1.225l4.982,3.233a21.956,21.956,0,0,1-2.226-6.948,34.909,34.909,0,0,1-.249-7.946,52.3,52.3,0,0,1,1.333-8.267c.332-1.377.714-2.748,1.141-4.1.215-.675.439-1.345.675-2,.118-.328.238-.653.359-.97l.182-.466.153-.375.079-.19a6.119,6.119,0,0,0-11.3-4.691" transform="translate(-31.199 -29.853)" fill="#3263ff"/>
            <path id="Trazado_1068908" data-name="Trazado 1068908" d="M101.339,143.531a.4.4,0,0,0,.266-.1c.035-.03,3.512-3.048,6.851-2.383a.4.4,0,1,0,.157-.79c-3.733-.742-7.387,2.433-7.54,2.569a.4.4,0,0,0,.266.7" transform="translate(-35.909 -49.859)" fill="#354adb"/>
            <path id="Trazado_1068909" data-name="Trazado 1068909" d="M105.417,140.877a.4.4,0,0,0,.238-.728,9.577,9.577,0,0,0-4.025-1.192.4.4,0,0,0-.062.8,8.955,8.955,0,0,1,3.612,1.04.4.4,0,0,0,.237.077" transform="translate(-36.002 -49.435)" fill="#354adb"/>
            <path id="Trazado_1068910" data-name="Trazado 1068910" d="M138.013,44.5s2.46-.157,3.722-4.567c1.489-5.2-4.24-1.228-8.576-1.739s-10.725-.121-12.9,3.531a9.683,9.683,0,0,0-.644,7.705Z" transform="translate(-42.369 -13.243)" fill="#002029"/>
            <path id="Trazado_1068911" data-name="Trazado 1068911" d="M121.609,69.725s-1.167-1.082-1.712-1.658c1.263-1.591,3.772-5.16,4.046-8.7l8.952,6.53s-.23.427-.629,1.115c-.022.039-.045.077-.068.117a.279.279,0,0,0-.014.024c-.286.486-.649,1.086-1.069,1.748-.152.24-.311.49-.479.745-.151.229-.307.464-.468.7a34.9,34.9,0,0,1-2.648,3.464,39.264,39.264,0,0,1-5.913-4.08" transform="translate(-42.655 -21.119)" fill="#fdbb92"/>
            <path id="Trazado_1068912" data-name="Trazado 1068912" d="M137.354,70.282c-.022.039-.045.077-.068.117,0,.008-.01.015-.014.025-.287.485-.649,1.086-1.069,1.748-.152.24-.311.49-.479.745-.151.229-.307.464-.468.7a16.792,16.792,0,0,1-1.061-5.049Z" transform="translate(-47.742 -24.394)" fill="#fd967d"/>
            <path id="Trazado_1068913" data-name="Trazado 1068913" d="M120.951,53.4a28.361,28.361,0,0,0,3.427,3.132c4.223,3.368,9.979,6.816,11.645,7.1,1.23.206,2.12-.484,2.677-2.628.084-.329.167-.675.243-1.035l.381-2.187c.038-.257.072-.519.1-.78.614-.087,1.92-.319,1.734-.694-.232-.477-1.437-2.82-1.486-2.915V53.38a22.955,22.955,0,0,0-.349-4.734,4.438,4.438,0,0,0-.512-1.369,4.629,4.629,0,0,0-2.3-1.992c-2.969-1.192-8.568-3.194-11.634-2.726-4.309.66-7.432,6.9-3.932,10.836" transform="translate(-42.494 -15.116)" fill="#fdbb92"/>
            <path id="Trazado_1068914" data-name="Trazado 1068914" d="M140.8,61.905c-.026.526.787,1,1.817,1.048s1.888-.332,1.914-.858-.787-1-1.817-1.048-1.888.332-1.914.858" transform="translate(-50.092 -21.717)" fill="#fd967d"/>
            <path id="Trazado_1068915" data-name="Trazado 1068915" d="M145.22,61.582s-2.945-1.31-4.912-.3-2.307-.932-1.957-2.112a13.068,13.068,0,0,0,0-3.788l-.838.047s.223,3.784-1.084,4.7-.742,6,1.163,7.385,4.571,2.55,6.187,1.376,1.437-7.314,1.437-7.314" transform="translate(-48.286 -19.704)" fill="#002029"/>
            <path id="Trazado_1068916" data-name="Trazado 1068916" d="M147.2,67.991q.067,0,.135,0a.233.233,0,1,0-.009-.465,1.8,1.8,0,0,1-1.541-1.007.232.232,0,0,0-.42.2,2.288,2.288,0,0,0,1.835,1.272" transform="translate(-51.706 -23.618)" fill="#2a5b74"/>
            <path id="Trazado_1068917" data-name="Trazado 1068917" d="M148.36,57.741c.028.43-.142.789-.379.8s-.451-.321-.479-.749.142-.789.379-.8.451.321.479.749" transform="translate(-52.475 -20.275)" fill="#002029"/>
            <path id="Trazado_1068918" data-name="Trazado 1068918" d="M145,55.83a.372.372,0,0,1-.287-.563,2.591,2.591,0,0,1,2.973-1.174.373.373,0,0,1-.228.709,1.857,1.857,0,0,0-2.106.848.374.374,0,0,1-.352.18" transform="translate(-51.466 -19.2)" fill="#002029"/>
            <path id="Trazado_1068919" data-name="Trazado 1068919" d="M135.01,58.508a.259.259,0,0,1-.233-.231,4.323,4.323,0,0,0-1.433-2.747.259.259,0,0,1,.319-.408,4.765,4.765,0,0,1,1.63,3.1.259.259,0,0,1-.231.284.23.23,0,0,1-.052,0" transform="translate(-47.404 -19.591)" fill="#fd967d"/>
            <path id="Trazado_1068920" data-name="Trazado 1068920" d="M132.917,57.814a.259.259,0,0,1-.079-.5,2.893,2.893,0,0,1,1.575-.211.259.259,0,0,1-.131.5,2.339,2.339,0,0,0-1.238.186.261.261,0,0,1-.128.02" transform="translate(-47.204 -20.3)" fill="#fd967d"/>
            <path id="Trazado_1068921" data-name="Trazado 1068921" d="M124.884,42.559c3.066-.469,8.664,1.533,11.634,2.726a4.651,4.651,0,0,1,1.621,1.092,15.666,15.666,0,0,1-2.753-.675,3.621,3.621,0,0,1-2.541,1.723c-.052,1.147-.227,2.2-.282,3.373a4.253,4.253,0,0,1-.838.047s-1.845-3.3-4.546-1.4c-1.537,1.084-1.173,3.14-.054,4.617-.616,1.627-1.787,2.522-2.747,2.461a28.412,28.412,0,0,1-3.427-3.131c-3.5-3.936-.376-10.176,3.932-10.836" transform="translate(-42.494 -15.116)" fill="#002029"/>
            <path id="Trazado_1068922" data-name="Trazado 1068922" d="M148,52.689c-.834-.093-1.651,1.3-1.858,3.162s.285,3.4,1.119,3.491c.809.09,1.6-1.211,1.838-2.987.006-.057.015-.114.021-.173s.012-.1.014-.152c.166-1.8-.321-3.25-1.134-3.341m-.7,6.335c-.553-.061-1.034-1.366-.838-3.138s.952-2.94,1.506-2.878,1.023,1.3.844,3.061c0,.025,0,.051-.006.078-.012.106-.025.209-.041.312-.245,1.618-.932,2.626-1.465,2.566" transform="translate(-51.977 -18.743)" fill="#fff"/>
            <path id="Trazado_1068923" data-name="Trazado 1068923" d="M150.9,58.338a.159.159,0,0,1-.222-.042.3.3,0,0,0-.1-.1.124.124,0,0,0-.051-.017.287.287,0,0,0-.191.077.153.153,0,0,1-.1.043c.016-.1.028-.206.041-.312,0-.027.006-.052.007-.077a.523.523,0,0,1,.272-.049c.015,0,.033,0,.053.01a.537.537,0,0,1,.331.246.158.158,0,0,1-.042.222" transform="translate(-53.45 -20.584)" fill="#fff"/>
            <path id="Trazado_1068924" data-name="Trazado 1068924" d="M144.152,56.539l-4.287-.6c.018.11.034.22.048.329l4.195.584h0a.16.16,0,0,0,.039-.317" transform="translate(-49.759 -19.902)" fill="#fff"/>
            <rect id="Rectángulo_425360" data-name="Rectángulo 425360" width="33.292" height="2.97" transform="translate(93.271 94.094)" fill="#173953"/>
            <path id="Trazado_1068925" data-name="Trazado 1068925" d="M203.435,104.753l-11.049,28.565,2.625,1.013,11.4-29.579Z" transform="translate(-68.444 -37.267)" fill="#173953"/>
            <path id="Trazado_1068926" data-name="Trazado 1068926" d="M166.634,150.14a8.3,8.3,0,0,1-1.15.834,11.872,11.872,0,0,1-8.729,1.763,10.029,10.029,0,0,1-5.539-3.609s.378-2.266,1.762-2.77c1.183-.432.336,1.426.672,2.014s4.6.808,7.134.546a29.2,29.2,0,0,1,4.057-.1q.27.01.519.022.469.025.855.053a.688.688,0,0,1,.37.135.715.715,0,0,1,.049,1.113" transform="translate(-53.797 -52.046)" fill="#fdbb92"/>
            <path id="Trazado_1068927" data-name="Trazado 1068927" d="M173.2,150.8a9.142,9.142,0,0,1-3.784,2.112.171.171,0,0,1-.05.008.166.166,0,0,1-.16-.118.168.168,0,0,1,.108-.211,8.741,8.741,0,0,0,3.668-2.053.708.708,0,0,1,.218.262" transform="translate(-60.195 -53.556)" fill="#fd967d"/>
            <path id="Trazado_1068928" data-name="Trazado 1068928" d="M171.158,150.233a9.876,9.876,0,0,1-3.428,1.783.171.171,0,0,1-.05.008.168.168,0,0,1-.05-.327,10.1,10.1,0,0,0,3.01-1.486q.27.01.519.022" transform="translate(-59.595 -53.44)" fill="#fd967d"/>
            <path id="Trazado_1068929" data-name="Trazado 1068929" d="M493.157,31.2V166.633a4.611,4.611,0,0,1-4.611,4.611H428.057a4.611,4.611,0,0,1-4.611-4.611V31.2a3.438,3.438,0,0,1,3.438-3.439h62.834a3.439,3.439,0,0,1,3.439,3.439" transform="translate(-150.647 -9.875)" fill="#fff"/>
            <g id="Grupo_1230676" data-name="Grupo 1230676" transform="translate(284.102 96.072)">
              <g id="Grupo_1230675" data-name="Grupo 1230675">
                <g id="Grupo_1230674" data-name="Grupo 1230674" clip-path="url(#clip-path-3)">
                  <g id="Grupo_1230658" data-name="Grupo 1230658" opacity="0.3">
                    <g id="Grupo_1230657" data-name="Grupo 1230657">
                      <g id="Grupo_1230656" data-name="Grupo 1230656" clip-path="url(#clip-path-4)">
                        <path id="Trazado_1068930" data-name="Trazado 1068930" d="M488.96,152.189H442.522a1.532,1.532,0,1,1,0-3.063H488.96a1.532,1.532,0,0,1,0,3.063" transform="translate(-440.99 -149.126)" fill="#5a95ff"/>
                      </g>
                    </g>
                  </g>
                  <g id="Grupo_1230661" data-name="Grupo 1230661" transform="translate(0 9.714)" opacity="0.3">
                    <g id="Grupo_1230660" data-name="Grupo 1230660">
                      <g id="Grupo_1230659" data-name="Grupo 1230659" clip-path="url(#clip-path-4)">
                        <path id="Trazado_1068931" data-name="Trazado 1068931" d="M488.96,167.266H442.522a1.532,1.532,0,1,1,0-3.063H488.96a1.532,1.532,0,0,1,0,3.063" transform="translate(-440.99 -164.204)" fill="#5a95ff"/>
                      </g>
                    </g>
                  </g>
                  <g id="Grupo_1230664" data-name="Grupo 1230664" transform="translate(0 19.427)" opacity="0.3">
                    <g id="Grupo_1230663" data-name="Grupo 1230663">
                      <g id="Grupo_1230662" data-name="Grupo 1230662" clip-path="url(#clip-path-4)">
                        <path id="Trazado_1068932" data-name="Trazado 1068932" d="M488.96,182.343H442.522a1.532,1.532,0,1,1,0-3.063H488.96a1.532,1.532,0,0,1,0,3.063" transform="translate(-440.99 -179.281)" fill="#5a95ff"/>
                      </g>
                    </g>
                  </g>
                  <g id="Grupo_1230667" data-name="Grupo 1230667" transform="translate(0 29.14)" opacity="0.3">
                    <g id="Grupo_1230666" data-name="Grupo 1230666">
                      <g id="Grupo_1230665" data-name="Grupo 1230665" clip-path="url(#clip-path-4)">
                        <path id="Trazado_1068933" data-name="Trazado 1068933" d="M488.96,197.421H442.522a1.532,1.532,0,1,1,0-3.063H488.96a1.532,1.532,0,0,1,0,3.063" transform="translate(-440.99 -194.358)" fill="#5a95ff"/>
                      </g>
                    </g>
                  </g>
                  <g id="Grupo_1230670" data-name="Grupo 1230670" transform="translate(0 38.853)" opacity="0.3">
                    <g id="Grupo_1230669" data-name="Grupo 1230669">
                      <g id="Grupo_1230668" data-name="Grupo 1230668" clip-path="url(#clip-path-4)">
                        <path id="Trazado_1068934" data-name="Trazado 1068934" d="M488.96,212.5H442.522a1.532,1.532,0,1,1,0-3.063H488.96a1.532,1.532,0,0,1,0,3.063" transform="translate(-440.99 -209.435)" fill="#5a95ff"/>
                      </g>
                    </g>
                  </g>
                  <g id="Grupo_1230673" data-name="Grupo 1230673" transform="translate(0 48.566)" opacity="0.3">
                    <g id="Grupo_1230672" data-name="Grupo 1230672">
                      <g id="Grupo_1230671" data-name="Grupo 1230671" clip-path="url(#clip-path-4)">
                        <path id="Trazado_1068935" data-name="Trazado 1068935" d="M488.96,227.575H442.522a1.532,1.532,0,1,1,0-3.063H488.96a1.532,1.532,0,0,1,0,3.063" transform="translate(-440.99 -224.512)" fill="#5a95ff"/>
                      </g>
                    </g>
                  </g>
                </g>
              </g>
            </g>
            <path id="Trazado_1068936" data-name="Trazado 1068936" d="M493.157,31.2v9.535H423.446V31.2a3.438,3.438,0,0,1,3.438-3.439h62.834a3.439,3.439,0,0,1,3.439,3.439" transform="translate(-150.647 -9.875)" fill="#5a95ff"/>
            <path id="Trazado_1068937" data-name="Trazado 1068937" d="M502.947,35.6a2.266,2.266,0,1,1-2.266-2.266,2.266,2.266,0,0,1,2.266,2.266" transform="translate(-177.318 -11.86)" fill="#3263ff"/>
            <path id="Trazado_1068938" data-name="Trazado 1068938" d="M514.35,35.6a2.266,2.266,0,1,1-2.266-2.266A2.266,2.266,0,0,1,514.35,35.6" transform="translate(-181.375 -11.86)" fill="#354adb"/>
            <path id="Trazado_1068939" data-name="Trazado 1068939" d="M525.268,35.6A2.266,2.266,0,1,1,523,33.338a2.266,2.266,0,0,1,2.266,2.266" transform="translate(-185.259 -11.86)" fill="#002029"/>
            <path id="Trazado_1068940" data-name="Trazado 1068940" d="M485.047,72.048a22.931,22.931,0,0,0-17.514-8.122c-.141,0-.28,0-.419.005-.093,0-.183,0-.275.006-.383.012-.766.032-1.146.063-.075,0-.15.01-.225.019-.113.009-.227.02-.34.033-.081.008-.162.017-.244.026-.1.012-.2.023-.3.037s-.194.025-.291.039q-.176.025-.351.053l-.236.038c-.073.012-.147.024-.219.039s-.136.023-.2.037c-.091.017-.183.035-.273.053-.113.022-.224.045-.336.069l-.311.07c-.336.077-.671.162-1,.254-.077.022-.155.044-.233.068-.3.089-.606.182-.906.284s-.6.208-.891.32-.584.232-.874.357l-.287.126-.285.129-.283.135c-.083.039-.164.08-.247.12a.552.552,0,0,0-.055.028q-.27.133-.535.275l-.213.114c-.113.061-.224.123-.334.187l-.271.156c-.089.052-.178.105-.267.16q-.274.164-.542.338c-.512.33-1.013.68-1.5,1.049a.1.1,0,0,0-.014.011q-.617.472-1.2.982c-.078.067-.156.136-.233.2-.153.139-.3.278-.455.42-.075.07-.15.142-.224.214l-.22.218c-.146.147-.291.3-.432.444-.071.075-.142.151-.213.227-.14.151-.278.306-.414.461-.067.079-.136.157-.2.234s-.134.158-.2.238-.149.18-.22.271q-.159.2-.314.4a22.966,22.966,0,0,0,17.453,36.931c.259.009.521.014.781.014a22.966,22.966,0,0,0,17.514-37.835m-16.6,31.087c-.3.019-.608.026-.914.026A16.249,16.249,0,0,1,453.372,78.93a15.777,15.777,0,0,1,.869-1.372c.188-.265.381-.525.584-.778a16.253,16.253,0,1,1,13.622,26.356" transform="translate(-158.157 -22.743)" fill="#354adb"/>
            <path id="Trazado_1068941" data-name="Trazado 1068941" d="M468.447,107.742l-1.7,6.734A22.966,22.966,0,0,1,449.3,77.544q.26-.339.535-.669l4.408,5.289a16.246,16.246,0,0,0,13.292,25.6c.306,0,.611-.008.914-.026" transform="translate(-158.157 -27.349)" fill="#5a95ff"/>
            <path id="Trazado_1068942" data-name="Trazado 1068942" d="M487.666,72.048l-3.657,6.364a16.24,16.24,0,0,0-26.564-1.633c-.2.253-.4.513-.584.778a15.784,15.784,0,0,0-.869,1.372l-4.073-5.993q.155-.2.314-.4c.072-.091.145-.182.22-.271s.133-.159.2-.238.135-.156.2-.235c.137-.155.274-.309.414-.461.071-.075.141-.152.213-.227.141-.149.286-.3.432-.444l.22-.217c.073-.072.149-.144.224-.215.15-.142.3-.282.455-.42.077-.069.155-.138.233-.2q.582-.514,1.2-.982l.014-.011c.484-.368.985-.719,1.5-1.049q.268-.173.542-.338.134-.082.267-.159c.091-.053.18-.105.271-.157.111-.064.222-.127.334-.187l.213-.114c.177-.1.355-.186.535-.275.017-.011.036-.019.055-.028l.247-.12c.094-.045.187-.09.283-.134s.189-.088.285-.13l.287-.126q.432-.187.874-.356c.294-.113.591-.221.891-.321s.6-.2.907-.284c.078-.024.156-.046.233-.068.331-.092.666-.178,1-.254l.311-.07c.113-.024.224-.047.336-.069.09-.019.183-.036.273-.053.068-.014.136-.027.2-.038s.145-.026.218-.039l.236-.038c.117-.019.234-.035.352-.053.1-.014.193-.026.291-.039s.2-.025.3-.037c.081-.01.162-.019.243-.026.113-.013.227-.024.34-.033.075-.008.15-.014.225-.019.38-.032.763-.052,1.146-.062.092,0,.183-.006.275-.006.139,0,.278,0,.419,0a22.931,22.931,0,0,1,17.514,8.121" transform="translate(-160.776 -22.743)" fill="#3263ff"/>
            <path id="Trazado_1068943" data-name="Trazado 1068943" d="M601.03,367.37c0,2.339-21.452,4.234-47.916,4.234s-47.916-1.9-47.916-4.234,21.453-4.234,47.916-4.234,47.916,1.9,47.916,4.234" transform="translate(-179.732 -129.191)" fill="#e3d7d5"/>
            <path id="Trazado_1068944" data-name="Trazado 1068944" d="M552.2,96.592c-2.414-.834-.119-10.838.751-12.321,2.475-4.217-.654-10.29-.654-10.29,1.9-.562,6.857,2.422,7.941,8.548a27.758,27.758,0,0,1-.5,9.085c-2.668-.685-4.834,5.5-7.538,4.979" transform="translate(-196.07 -26.296)" fill="#002029"/>
            <path id="Trazado_1068945" data-name="Trazado 1068945" d="M551.858,93.012a6.036,6.036,0,0,0-6.139,5.932c0,.007-.007.041-.011.065l-.015.082-.033.172-.07.354-.148.72c-.1.483-.207.968-.316,1.452q-.33,1.454-.7,2.9c-.494,1.923-1.04,3.823-1.654,5.656a42.049,42.049,0,0,1-2.065,5.16,16.846,16.846,0,0,1-1.172,2.045,7.691,7.691,0,0,1-.519.68c-.142.167-.244.256-.216.269l0,.006.014,0a.076.076,0,0,1,.03,0c.005,0,0,0-.005,0l-.015.006-.03.013-.058.03a1.839,1.839,0,0,1-.325.133,7.434,7.434,0,0,1-.991.249,20.183,20.183,0,0,1-2.567.277c-.918.05-1.879.055-2.853.035-.117,0-.236-.006-.354-.009v8.569c1.035.117,2.087.211,3.176.26a29.1,29.1,0,0,0,3.708-.042,17.184,17.184,0,0,0,2.1-.3,11.176,11.176,0,0,0,1.183-.309l.312-.1.156-.052.077-.026c.025-.008.052-.017.086-.032.129-.052.259-.107.387-.163l.193-.085.177-.088a11.182,11.182,0,0,0,2.322-1.573,15.9,15.9,0,0,0,1.611-1.629,25.7,25.7,0,0,0,2.31-3.183,51.549,51.549,0,0,0,3.245-6.228c.923-2.069,1.737-4.136,2.492-6.216q.564-1.559,1.082-3.13.26-.787.509-1.582l.247-.8.122-.408.128-.444.285-.986a6.042,6.042,0,0,0-5.707-7.677" transform="translate(-189.143 -33.09)" fill="#354adb"/>
            <path id="Trazado_1068946" data-name="Trazado 1068946" d="M595.295,197.877l3.577,46.283s5.715,6.373,9.205,19.971c1.9,7.413,7.623,23.567,7.623,23.567l-7.005,2.745s-19.422-35.565-21.679-43.86-12.246-43.22-12.246-43.22Z" transform="translate(-204.483 -70.398)" fill="#002029"/>
            <path id="Trazado_1068947" data-name="Trazado 1068947" d="M632.958,335.1,636,341.63a11.02,11.02,0,0,1-5.479,3.644l-3.263-7.853Z" transform="translate(-223.157 -119.217)" fill="#fdbb92"/>
            <path id="Trazado_1068948" data-name="Trazado 1068948" d="M623.966,335.336a7.074,7.074,0,0,0,1.962,3.9l8.822-4.133a11.2,11.2,0,0,0-1.553-3.985Z" transform="translate(-221.985 -117.8)" fill="#173953"/>
            <path id="Trazado_1068949" data-name="Trazado 1068949" d="M617.882,361.549l10.7-.031c.2-.051.441-.273.961-.81l8.371-8.642a1.152,1.152,0,0,0,.183-1.356c-.961-1.748-3.372-6.035-4.441-7.041-1.351-1.271-2.261-.346-2.261-.346s-2.3,2.956-3.46,2.454c-1.372-.593-2.6-1.082-2.842,1.859a20.278,20.278,0,0,1-1.78,6.25,9.772,9.772,0,0,1-3.385,3.4c-3.46,1.7-2.047,4.268-2.047,4.268" transform="translate(-219.719 -122.026)" fill="#3263ff"/>
            <path id="Trazado_1068950" data-name="Trazado 1068950" d="M627.314,356.051a2.141,2.141,0,0,1,1.077-.713,5.649,5.649,0,0,1,2.642.135.4.4,0,0,0,.307-.028.414.414,0,0,0-.07-.767,6.355,6.355,0,0,0-3.121-.134,3.351,3.351,0,0,0-.555.225c-.4.463-.663.915-.28,1.282" transform="translate(-223.11 -126.08)" fill="#fff"/>
            <path id="Trazado_1068951" data-name="Trazado 1068951" d="M628.024,353.056a2.236,2.236,0,0,1,.717-.36,5.621,5.621,0,0,1,2.643.136.415.415,0,1,0,.236-.8,6.37,6.37,0,0,0-3.121-.134,2.557,2.557,0,0,0-.245.087c-.254.3-.581.584-.229,1.068" transform="translate(-223.374 -125.14)" fill="#fff"/>
            <path id="Trazado_1068952" data-name="Trazado 1068952" d="M626.7,358.723a2.2,2.2,0,0,1,.9-.519,5.631,5.631,0,0,1,2.641.135.415.415,0,1,0,.238-.8,6.4,6.4,0,0,0-3.122-.134,3.484,3.484,0,0,0-.387.144h0c-.514.417-.676.811-.272,1.168" transform="translate(-222.876 -127.1)" fill="#fff"/>
            <path id="Trazado_1068953" data-name="Trazado 1068953" d="M574.865,199.614c0,2.777-19.189,41.231-18.054,46.348.366,11.413-8.015,50.039-9.171,49.44l-6.094-.006.765-52.727,8.9-42.42s13.894-4.211,23.657-.633" transform="translate(-192.663 -70.503)" fill="#173953"/>
            <path id="Trazado_1068954" data-name="Trazado 1068954" d="M548.166,295.17a.465.465,0,0,0,.458-.387c.045-.268,4.559-26.856,5.935-32.969,1.354-6.013,1.547-17.325,1.562-18.361,1.905-6.831,18.18-43.208,18.345-43.575a.465.465,0,0,0-.849-.38c-.675,1.508-16.561,37.014-18.408,43.766a.478.478,0,0,0-.017.117c0,.12-.173,12.152-1.54,18.229-1.381,6.136-5.9,32.75-5.944,33.018a.464.464,0,0,0,.459.542" transform="translate(-194.852 -70.877)" fill="#002029"/>
            <path id="Trazado_1068955" data-name="Trazado 1068955" d="M546.522,347.92l-.213,7.2a11.019,11.019,0,0,1-6.532.793l.614-8.481Z" transform="translate(-192.033 -123.605)" fill="#fdbb92"/>
            <path id="Trazado_1068956" data-name="Trazado 1068956" d="M538.059,345.023a7.075,7.075,0,0,0,0,4.367l9.739.272a11.212,11.212,0,0,0,.4-4.258Z" transform="translate(-191.298 -122.747)" fill="#2a5b74"/>
            <path id="Trazado_1068957" data-name="Trazado 1068957" d="M515.5,365.39c.527,1.124,23.665-.082,23.665-.082s.734-6.87.009-8.985-4.1.26-6.41-.271c0,0-1.385-1.918-2.509-1.853a18.212,18.212,0,0,0-3.691,2.159c-.294.194-.6.4-.912.6-.217.144-.437.288-.66.434-.361.238-.73.479-1.1.717l-.417.268h0c-.338.218-.677.432-1.013.642a19.074,19.074,0,0,1-5.059,2.529c-2.974.527-2.431,2.718-1.9,3.843" transform="translate(-183.248 -126.01)" fill="#3263ff"/>
            <path id="Trazado_1068958" data-name="Trazado 1068958" d="M528.755,359.873a2.142,2.142,0,0,1,1.267.248,5.64,5.64,0,0,1,1.788,1.949.407.407,0,0,0,.238.2.414.414,0,0,0,.488-.6,6.349,6.349,0,0,0-2.13-2.286,3.328,3.328,0,0,0-.553-.229c-.607.052-1.114.186-1.1.717" transform="translate(-188.112 -127.775)" fill="#fff"/>
            <path id="Trazado_1068959" data-name="Trazado 1068959" d="M531.485,358.151a2.249,2.249,0,0,1,.764.246,5.629,5.629,0,0,1,1.788,1.951.415.415,0,1,0,.727-.4,6.36,6.36,0,0,0-2.13-2.286,2.474,2.474,0,0,0-.235-.11c-.388.032-.825.008-.913.6" transform="translate(-189.083 -127.204)" fill="#fff"/>
            <path id="Trazado_1068960" data-name="Trazado 1068960" d="M526.532,361.32a2.194,2.194,0,0,1,1.007.263,5.633,5.633,0,0,1,1.786,1.949.415.415,0,1,0,.729-.4,6.4,6.4,0,0,0-2.13-2.286,3.463,3.463,0,0,0-.377-.169h0c-.659-.064-1.051.1-1.013.642" transform="translate(-187.32 -128.312)" fill="#fff"/>
            <path id="Trazado_1068961" data-name="Trazado 1068961" d="M550.893,161.588c.925,2.372,5.475,3.179,13.106.7s20.055-1.406,22.689-4.5c1.556-1.832,2.346-6.976.382-14.927q-.223-.908-.452-1.825c-.2-.8-.395-1.594-.59-2.389q-.226-.918-.446-1.825c-.2-.817-.389-1.624-.572-2.419q-.216-.93-.412-1.833c-.421-1.921-.775-3.736-1.01-5.355a55.443,55.443,0,0,1-.2-11.252v0c.289-4.727.779-9.332.457-13.294h0a16.533,16.533,0,0,0-1.346-5.685c-1.989-4.25-6.513-7.7-9.935-9.843a12.851,12.851,0,0,0-8.932-1.776c-4.249.711-9.16,7.058-9.932,9.514-.528,1.687-.817,3.042-.894,7.2a90.9,90.9,0,0,0,.64,15.822v0c.026.177.053.35.079.524.587,3.778.107,10.258-.626,17.09-.023.231-.05.464-.074.7-.006.056-.013.11-.019.166-.062.568-.126,1.139-.191,1.709-.095.827-.191,1.656-.287,2.482-.073.624-.148,1.25-.222,1.872-.1.825-.2,1.644-.291,2.451q-.112.946-.218,1.869c-.825,7.073-1.411,13.028-.707,14.836" transform="translate(-195.876 -30.304)" fill="#3263ff"/>
            <path id="Trazado_1068962" data-name="Trazado 1068962" d="M557.058,180.523a.4.4,0,0,1-.081-.8c.1-.021,9.975-2.173,14.857-11.467a.4.4,0,1,1,.713.374,23.511,23.511,0,0,1-9.617,9.6,23.114,23.114,0,0,1-5.79,2.284.4.4,0,0,1-.082.008" transform="translate(-198.038 -59.783)" fill="#354adb"/>
            <path id="Trazado_1068963" data-name="Trazado 1068963" d="M564.223,99.373a1.725,1.725,0,0,1-1.636-1.248c-1.022-2.567.5-8.308,2.764-10.411l.329.354c-2.108,1.96-3.591,7.5-2.644,9.879a1.249,1.249,0,0,0,1.187.943h.013c4.972-.043,8.913-11.209,8.952-11.322l.457.159c-.165.474-4.1,11.6-9.405,11.646h-.017" transform="translate(-200.033 -31.154)" fill="#fff"/>
            <path id="Trazado_1068964" data-name="Trazado 1068964" d="M554.04,150.693a34.756,34.756,0,0,0,5.017,2.866,2.941,2.941,0,0,0,1.087.191,7.677,7.677,0,0,0,3.321-1.007c6.537-3.557,11.317-10,14.176-14.774a49.811,49.811,0,0,0,5.426-12.061.387.387,0,0,0-.759-.155,48.964,48.964,0,0,1-5.332,11.818c-2.809,4.693-7.5,11.018-13.88,14.491-.566.308-2.507,1.274-3.753.778a36.766,36.766,0,0,1-5.211-3.007c-.023.231-.05.463-.074.7-.006.055-.012.11-.019.166" transform="translate(-197.108 -44.628)" fill="#354adb"/>
            <path id="Trazado_1068965" data-name="Trazado 1068965" d="M567.692,134.662a.387.387,0,0,0,.315-.152c4.468-5.847,7.162-14.636,7.189-14.724a.387.387,0,0,0-.741-.225c-.026.087-2.681,8.745-7.063,14.479a.387.387,0,0,0,.3.622" transform="translate(-201.829 -42.438)" fill="#354adb"/>
            <path id="Trazado_1068966" data-name="Trazado 1068966" d="M559.615,77.7s.208.434.571,1.131c.02.039.041.078.062.119,0,.008.008.015.012.025.262.493.593,1.1.979,1.777.139.244.285.5.44.758.138.233.282.473.431.713a28.124,28.124,0,0,0,3.668,4.9c3.785-1.424,6.374-3.3,7.27-5.807,0,0-4.135-4.953-4.284-9.676Z" transform="translate(-199.091 -25.49)" fill="#fdbb92"/>
            <path id="Trazado_1068967" data-name="Trazado 1068967" d="M560.5,81.945c.02.039.041.078.062.119,0,.008.008.015.012.025.261.493.593,1.1.979,1.777.139.244.285.5.44.758.138.233.282.473.431.713a16.648,16.648,0,0,0,1.278-4.946Z" transform="translate(-199.407 -28.6)" fill="#fd967d"/>
            <path id="Trazado_1068968" data-name="Trazado 1068968" d="M548.944,71.5c.059.359.125.7.194,1.035.455,2.145,1.3,2.87,2.529,2.721,2.2-.269,11.732-5.7,15.371-9.44s.831-10.049-3.4-10.9c-3.012-.6-8.64,1.125-11.632,2.171a4.546,4.546,0,0,0-2.93,3.2,22.762,22.762,0,0,0-.559,4.668v0h0c-.053.091-1.35,2.355-1.6,2.817-.2.363,1.081.652,1.685.765.019.26.042.521.068.777Z" transform="translate(-194.565 -19.493)" fill="#fdbb92"/>
            <path id="Trazado_1068969" data-name="Trazado 1068969" d="M551.075,79.036a2.341,2.341,0,0,0,1.786-.977.232.232,0,1,0-.383-.263,1.8,1.8,0,0,1-1.683.75.232.232,0,0,0-.083.457,2.032,2.032,0,0,0,.361.033" transform="translate(-195.856 -27.641)" fill="#fd967d"/>
            <path id="Trazado_1068970" data-name="Trazado 1068970" d="M553.938,74.437c.119.514,1.03.742,2.035.509s1.724-.836,1.605-1.35-1.03-.741-2.035-.508-1.724.836-1.605,1.35" transform="translate(-197.067 -25.97)" fill="#fd967d"/>
            <path id="Trazado_1068971" data-name="Trazado 1068971" d="M551.456,69.034c-.046.423.105.787.339.813s.461-.3.508-.72-.106-.787-.339-.813-.461.3-.508.72" transform="translate(-196.186 -24.303)" fill="#002029"/>
            <path id="Trazado_1068972" data-name="Trazado 1068972" d="M553.549,67.246a.369.369,0,0,0,.309-.544,2.566,2.566,0,0,0-2.888-1.3.369.369,0,0,0,.193.712,1.838,1.838,0,0,1,2.045.934.369.369,0,0,0,.34.193" transform="translate(-195.919 -23.237)" fill="#002029"/>
            <path id="Trazado_1068973" data-name="Trazado 1068973" d="M563.922,70.4a.257.257,0,0,0,.24-.218,4.276,4.276,0,0,1,1.542-2.652.256.256,0,0,0-.3-.418,4.716,4.716,0,0,0-1.752,3,.256.256,0,0,0,.215.291.279.279,0,0,0,.052,0" transform="translate(-200.527 -23.858)" fill="#fd967d"/>
            <path id="Trazado_1068974" data-name="Trazado 1068974" d="M566.164,69.778a.256.256,0,0,0,.1-.486,2.859,2.859,0,0,0-1.549-.28.257.257,0,0,0,.108.5,2.324,2.324,0,0,1,1.216.239.252.252,0,0,0,.125.026" transform="translate(-200.833 -24.541)" fill="#fd967d"/>
            <path id="Trazado_1068975" data-name="Trazado 1068975" d="M550.467,57.073c1.451,1.433,4.529,3.3,7.15,3.3,0,0,1.975-3.183,4.561-1.177s-.765,6.716-3.537,6.089a6.78,6.78,0,0,0,1.509,6.05c6.544,3.405,14.592-.375,14.592-.375a34,34,0,0,0-.434-10.4v-.008c-.692-6.359-2.932-15.261-15.379-11.839-6.2,1.705-8.031,3.713-8.574,5.407-.467,1.459-.37,2.482.114,2.959" transform="translate(-195.688 -17.058)" fill="#002029"/>
            <path id="Trazado_1068976" data-name="Trazado 1068976" d="M563.173,68.892s-1.648,4.937,1.875,7.554,6.162,3.859,5.4,8.723c-1.187,7.617,9.6,15.431,16.371,8.672,5.755-5.743-4.534-9.521-4.559-17.477s-4.717-18.272-4.717-18.272-3.77,10.743-14.374,10.8" transform="translate(-200.22 -20.667)" fill="#002029"/>
            <path id="Trazado_1068977" data-name="Trazado 1068977" d="M563.065,74.128a.82.82,0,1,0,.82-.82.82.82,0,0,0-.82.82" transform="translate(-200.318 -26.08)" fill="#fff"/>
            <path id="Trazado_1068978" data-name="Trazado 1068978" d="M511.736,124.888a3.4,3.4,0,0,1,4.557-1.562l.012.006c5.228,2.558,10.535,5.022,15.857,7.45q4,1.82,8,3.612,2.038.91,4.086,1.815c.042.021.084.039.126.056.137.062.271.121.408.181.136-.113.273-.229.407-.347.1-.09.2-.18.3-.271a23.455,23.455,0,0,0,2.357-2.509,34.941,34.941,0,0,0,4.209-6.741,54.141,54.141,0,0,0,3.042-7.822q.43-1.406.8-2.837c2.444,2.162,5.749,3.183,9.314,1.2a7.028,7.028,0,0,0,2.27-1.852h.645q-.211,1.037-.45,2.06-.576,2.46-1.317,4.876a66,66,0,0,1-3.716,9.528,46.6,46.6,0,0,1-5.665,9.019c-.582.71-1.189,1.408-1.833,2.085s-1.32,1.336-2.03,1.969-1.461,1.237-2.241,1.813-1.6,1.11-2.446,1.612l-.516.282a5.178,5.178,0,0,1-5.2-.144c-2.529-1.562-5.022-3.121-7.523-4.693s-4.991-3.152-7.478-4.742c-4.974-3.184-9.928-6.4-14.839-9.736a3.408,3.408,0,0,1-1.147-4.315" transform="translate(-181.934 -41.01)" fill="#3263ff"/>
            <path id="Trazado_1068979" data-name="Trazado 1068979" d="M507.548,128.38c1.1-.2,4.021-2.966,2.913-6.465-1.027-3.241-.666-4.188-1.73-6.443-.921-1.952-1.167-.106-1.365,1.631s.142,2.471-1.328,1.934-6.226-5.124-7.932-5.442,4.333,5.525,4.333,5.525-5.889-4.066-6.74-3.547c-1.019.622,5.025,5.323,5.025,5.323s-5.5-2.737-5.755-2.343c-.5.765,4.541,4.351,4.541,4.351s-3.878-1.69-3.887-.93,6.689,5.761,11.925,6.406" transform="translate(-176.08 -40.409)" fill="#fdbb92"/>
            <path id="Trazado_1068980" data-name="Trazado 1068980" d="M562.4,147.712c.066.072.131.142.2.215a.334.334,0,0,0,.023.026,11.589,11.589,0,0,1,2.058,3.691.387.387,0,0,0,.37.274.347.347,0,0,0,.113-.017.386.386,0,0,0,.257-.483,12.328,12.328,0,0,0-1.67-3.293c-.127-.177-.262-.352-.406-.524-.135.118-.271.234-.408.347-.136-.061-.271-.119-.407-.181q-.063-.026-.126-.056" transform="translate(-200.083 -52.512)" fill="#354adb"/>
            <path id="Trazado_1068981" data-name="Trazado 1068981" d="M562.6,147.618a.389.389,0,0,0,.069.16c.008.009.015.019.023.026a.389.389,0,0,0,.318.127,3.475,3.475,0,0,1,.81.045,10.675,10.675,0,0,1,2.673.922.387.387,0,1,0,.355-.688,10.87,10.87,0,0,0-3.132-1.029c-.1.091-.2.181-.3.271-.135.118-.271.234-.406.347-.137-.06-.272-.119-.408-.181" transform="translate(-200.153 -52.362)" fill="#354adb"/>
            <path id="Trazado_1068982" data-name="Trazado 1068982" d="M374.981,367.37c0,2.339-51.67,4.234-115.408,4.234s-115.407-1.9-115.407-4.234,51.67-4.234,115.407-4.234,115.408,1.9,115.408,4.234" transform="translate(-51.289 -129.191)" fill="#e3d7d5"/>
            <path id="Trazado_1068983" data-name="Trazado 1068983" d="M397.225,268.59h-15a1.048,1.048,0,1,1,0-2.1h13.957V174.913h-11.1a1.048,1.048,0,0,1,0-2.1h12.143a1.048,1.048,0,0,1,1.048,1.048v93.677a1.048,1.048,0,0,1-1.048,1.048" transform="translate(-135.608 -61.482)" fill="#354adb"/>
            <path id="Trazado_1068984" data-name="Trazado 1068984" d="M392.486,175.649h3.209a2.171,2.171,0,0,0,2.171-2.171V172.44a2.171,2.171,0,0,0-2.171-2.171h-3.209Z" transform="translate(-139.632 -60.576)" fill="#5a95ff"/>
            <path id="Trazado_1068985" data-name="Trazado 1068985" d="M390.649,321.057h3.209a2.171,2.171,0,0,0,2.171-2.171v-1.038a2.171,2.171,0,0,0-2.171-2.171h-3.209Z" transform="translate(-138.979 -112.307)" fill="#5a95ff"/>
            <path id="Trazado_1068986" data-name="Trazado 1068986" d="M226.172,227.467H214.46a1.048,1.048,0,0,1-1.048-1.048V132.743a1.048,1.048,0,0,1,1.048-1.048h9.478a1.048,1.048,0,1,1,0,2.1h-8.431v91.582h10.665a1.048,1.048,0,0,1,0,2.1" transform="translate(-75.924 -46.852)" fill="#354adb"/>
            <path id="Trazado_1068987" data-name="Trazado 1068987" d="M226.779,134.229H223.57a2.171,2.171,0,0,1-2.171-2.171V131.02a2.171,2.171,0,0,1,2.171-2.171h3.209Z" transform="translate(-78.766 -45.84)" fill="#5a95ff"/>
            <path id="Trazado_1068988" data-name="Trazado 1068988" d="M230.247,279.934h-3.209a2.171,2.171,0,0,1-2.171-2.171v-1.038a2.171,2.171,0,0,1,2.171-2.171h3.209Z" transform="translate(-80 -97.676)" fill="#5a95ff"/>
            <path id="Trazado_1068989" data-name="Trazado 1068989" d="M292.506,190.637l-4.534,16.541H317.8l-4.532-16.541Z" transform="translate(-102.45 -67.822)" fill="#002029"/>
            <path id="Trazado_1068990" data-name="Trazado 1068990" d="M329.057,223.1H253.47v-1.31a5.482,5.482,0,0,1,5.482-5.482h64.623a5.482,5.482,0,0,1,5.482,5.482Z" transform="translate(-90.176 -76.956)" fill="#173953"/>
            <path id="Trazado_1068991" data-name="Trazado 1068991" d="M331.219,147.963h-98.1a3.371,3.371,0,0,1-3.371-3.371V74.058a3.371,3.371,0,0,1,3.371-3.371h98.1a3.371,3.371,0,0,1,3.371,3.371v70.534a3.371,3.371,0,0,1-3.371,3.371" transform="translate(-81.737 -25.148)" fill="#173953"/>
            <path id="Trazado_1068992" data-name="Trazado 1068992" d="M332.435,79.123v56.434a1.549,1.549,0,0,1-1.547,1.549H238.77a1.55,1.55,0,0,1-1.549-1.549V79.123a1.92,1.92,0,0,1,1.92-1.919h91.375a1.919,1.919,0,0,1,1.919,1.919" transform="translate(-84.395 -27.466)" fill="#fff"/>
            <rect id="Rectángulo_425368" data-name="Rectángulo 425368" width="4.974" height="4.974" transform="translate(211.045 62.006)" fill="#5a95ff"/>
            <rect id="Rectángulo_425369" data-name="Rectángulo 425369" width="4.974" height="4.974" transform="translate(211.045 70.868)" fill="#3263ff"/>
            <g id="Grupo_1230679" data-name="Grupo 1230679" transform="translate(219.321 71.954)" opacity="0.3">
              <g id="Grupo_1230678" data-name="Grupo 1230678">
                <g id="Grupo_1230677" data-name="Grupo 1230677" clip-path="url(#clip-path-10)">
                  <path id="Trazado_1068993" data-name="Trazado 1068993" d="M358.48,111.689H341.972a1.407,1.407,0,1,0,0,2.8H358.48a1.407,1.407,0,1,0,0-2.8" transform="translate(-340.436 -111.689)" fill="#5a95ff"/>
                </g>
              </g>
            </g>
            <g id="Grupo_1230682" data-name="Grupo 1230682" transform="translate(219.321 63.093)" opacity="0.3">
              <g id="Grupo_1230681" data-name="Grupo 1230681">
                <g id="Grupo_1230680" data-name="Grupo 1230680" clip-path="url(#clip-path-10)">
                  <path id="Trazado_1068994" data-name="Trazado 1068994" d="M358.48,97.934H341.972a1.407,1.407,0,1,0,0,2.8H358.48a1.407,1.407,0,1,0,0-2.8" transform="translate(-340.436 -97.934)" fill="#5a95ff"/>
                </g>
              </g>
            </g>
            <g id="Grupo_1230697" data-name="Grupo 1230697" transform="translate(211.045 82.558)">
              <g id="Grupo_1230696" data-name="Grupo 1230696">
                <g id="Grupo_1230695" data-name="Grupo 1230695" clip-path="url(#clip-path-12)">
                  <g id="Grupo_1230685" data-name="Grupo 1230685" transform="translate(0.078 16.883)" opacity="0.3">
                    <g id="Grupo_1230684" data-name="Grupo 1230684">
                      <g id="Grupo_1230683" data-name="Grupo 1230683" clip-path="url(#clip-path-13)">
                        <path id="Trazado_1068995" data-name="Trazado 1068995" d="M327.711,155.754h0a1.4,1.4,0,0,0,1.4,1.4h24.838a1.4,1.4,0,1,0,0-2.8H329.112a1.4,1.4,0,0,0-1.4,1.4" transform="translate(-327.711 -154.354)" fill="#5a95ff"/>
                      </g>
                    </g>
                  </g>
                  <g id="Grupo_1230688" data-name="Grupo 1230688" transform="translate(0.052 11.255)" opacity="0.3">
                    <g id="Grupo_1230687" data-name="Grupo 1230687">
                      <g id="Grupo_1230686" data-name="Grupo 1230686" clip-path="url(#clip-path-14)">
                        <path id="Trazado_1068996" data-name="Trazado 1068996" d="M327.671,147.019h0a1.4,1.4,0,0,0,1.4,1.4h24.838a1.4,1.4,0,1,0,0-2.8H329.072a1.4,1.4,0,0,0-1.4,1.4" transform="translate(-327.671 -145.618)" fill="#5a95ff"/>
                      </g>
                    </g>
                  </g>
                  <g id="Grupo_1230691" data-name="Grupo 1230691" transform="translate(0.026 5.627)" opacity="0.3">
                    <g id="Grupo_1230690" data-name="Grupo 1230690">
                      <g id="Grupo_1230689" data-name="Grupo 1230689" clip-path="url(#clip-path-14)">
                        <path id="Trazado_1068997" data-name="Trazado 1068997" d="M327.63,138.284h0a1.4,1.4,0,0,0,1.4,1.4h24.838a1.4,1.4,0,0,0,0-2.8H329.031a1.4,1.4,0,0,0-1.4,1.4" transform="translate(-327.63 -136.883)" fill="#5a95ff"/>
                      </g>
                    </g>
                  </g>
                  <g id="Grupo_1230694" data-name="Grupo 1230694" opacity="0.3">
                    <g id="Grupo_1230693" data-name="Grupo 1230693">
                      <g id="Grupo_1230692" data-name="Grupo 1230692" clip-path="url(#clip-path-14)">
                        <path id="Trazado_1068998" data-name="Trazado 1068998" d="M327.59,129.549h0a1.4,1.4,0,0,0,1.4,1.4h24.838a1.4,1.4,0,1,0,0-2.8H328.991a1.4,1.4,0,0,0-1.4,1.4" transform="translate(-327.59 -128.148)" fill="#5a95ff"/>
                      </g>
                    </g>
                  </g>
                </g>
              </g>
            </g>
            <path id="Trazado_1068999" data-name="Trazado 1068999" d="M290.875,119.732a18.519,18.519,0,1,1-35.6-7.157l17.086,7.157-.877-18.495c.287-.018.582-.023.877-.023a18.518,18.518,0,0,1,18.517,18.518" transform="translate(-90.306 -36.008)" fill="#3263ff"/>
            <path id="Trazado_1069000" data-name="Trazado 1069000" d="M269.675,96.718a18.54,18.54,0,0,0-16.206,11.339l17.085,7.157Z" transform="translate(-90.175 -34.409)" fill="#5a95ff"/>
            <g id="Grupo_1230700" data-name="Grupo 1230700" transform="translate(152.827 49.737)" opacity="0.3">
              <g id="Grupo_1230699" data-name="Grupo 1230699">
                <g id="Grupo_1230698" data-name="Grupo 1230698" clip-path="url(#clip-path-17)">
                  <path id="Trazado_1069001" data-name="Trazado 1069001" d="M332.435,79.123v4.041H237.221V79.123a1.92,1.92,0,0,1,1.92-1.919h91.375a1.919,1.919,0,0,1,1.919,1.919" transform="translate(-237.222 -77.203)" fill="#5a95ff"/>
                </g>
              </g>
            </g>
            <path id="Trazado_1069002" data-name="Trazado 1069002" d="M366.393,81.082a1.352,1.352,0,1,1-1.352-1.352,1.352,1.352,0,0,1,1.352,1.352" transform="translate(-129.388 -28.365)" fill="#3263ff"/>
            <path id="Trazado_1069003" data-name="Trazado 1069003" d="M373.2,81.082a1.352,1.352,0,1,1-1.352-1.352,1.352,1.352,0,0,1,1.352,1.352" transform="translate(-131.808 -28.365)" fill="#354adb"/>
            <path id="Trazado_1069004" data-name="Trazado 1069004" d="M379.71,81.082a1.352,1.352,0,1,1-1.352-1.352,1.352,1.352,0,0,1,1.352,1.352" transform="translate(-134.125 -28.365)" fill="#002029"/>
            <path id="Trazado_1069005" data-name="Trazado 1069005" d="M312.9,178.421a3.976,3.976,0,1,1-3.976-3.976,3.976,3.976,0,0,1,3.976,3.976" transform="translate(-108.489 -62.061)" fill="#2a5b74"/>
            <path id="Trazado_1069006" data-name="Trazado 1069006" d="M329.9,320.229H237.955a4.737,4.737,0,0,1-4.737-4.737v-83.9a4.737,4.737,0,0,1,4.737-4.737H329.9a4.737,4.737,0,0,1,4.737,4.737v83.9a4.737,4.737,0,0,1-4.737,4.737" transform="translate(-82.971 -80.707)" fill="#3263ff"/>
            <path id="Trazado_1069007" data-name="Trazado 1069007" d="M317.511,242.219H247.879a1.5,1.5,0,1,1,0-3h69.632a1.5,1.5,0,1,1,0,3" transform="translate(-87.653 -85.106)" fill="#354adb"/>
            <path id="Trazado_1069008" data-name="Trazado 1069008" d="M317.511,254.613H247.879a1.5,1.5,0,1,1,0-3h69.632a1.5,1.5,0,1,1,0,3" transform="translate(-87.653 -89.515)" fill="#354adb"/>
            <path id="Trazado_1069009" data-name="Trazado 1069009" d="M317.511,267.006H247.879a1.5,1.5,0,0,1,0-3h69.632a1.5,1.5,0,0,1,0,3" transform="translate(-87.653 -93.924)" fill="#354adb"/>
            <path id="Trazado_1069010" data-name="Trazado 1069010" d="M317.511,279.4H247.879a1.5,1.5,0,1,1,0-3h69.632a1.5,1.5,0,0,1,0,3" transform="translate(-87.653 -98.334)" fill="#354adb"/>
            <path id="Trazado_1069011" data-name="Trazado 1069011" d="M317.511,291.8H247.879a1.5,1.5,0,1,1,0-3h69.632a1.5,1.5,0,0,1,0,3" transform="translate(-87.653 -102.743)" fill="#354adb"/>
            <path id="Trazado_1069012" data-name="Trazado 1069012" d="M317.511,304.189H247.879a1.5,1.5,0,0,1,0-3h69.632a1.5,1.5,0,0,1,0,3" transform="translate(-87.653 -107.152)" fill="#354adb"/>
            <path id="Trazado_1069013" data-name="Trazado 1069013" d="M374.458,239.218h0a1.439,1.439,0,0,0-1.439,1.439v.121a1.439,1.439,0,0,0,2.878,0v-.121a1.439,1.439,0,0,0-1.439-1.439" transform="translate(-132.707 -85.105)" fill="#fff"/>
            <path id="Trazado_1069014" data-name="Trazado 1069014" d="M374.458,251.613h0a1.439,1.439,0,0,0-1.439,1.439v.121a1.439,1.439,0,1,0,2.878,0v-.121a1.439,1.439,0,0,0-1.439-1.439" transform="translate(-132.707 -89.515)" fill="#fff"/>
            <path id="Trazado_1069015" data-name="Trazado 1069015" d="M374.458,264.007h0a1.439,1.439,0,0,0-1.439,1.439v.121a1.439,1.439,0,1,0,2.878,0v-.121a1.439,1.439,0,0,0-1.439-1.439" transform="translate(-132.707 -93.924)" fill="#fff"/>
            <path id="Trazado_1069016" data-name="Trazado 1069016" d="M374.458,276.4h0a1.439,1.439,0,0,0-1.439,1.439v.121a1.439,1.439,0,1,0,2.878,0v-.121a1.439,1.439,0,0,0-1.439-1.439" transform="translate(-132.707 -98.334)" fill="#fff"/>
            <path id="Trazado_1069017" data-name="Trazado 1069017" d="M374.458,288.8h0a1.439,1.439,0,0,0-1.439,1.439v.121a1.439,1.439,0,0,0,2.878,0v-.121a1.439,1.439,0,0,0-1.439-1.439" transform="translate(-132.707 -102.743)" fill="#fff"/>
            <path id="Trazado_1069018" data-name="Trazado 1069018" d="M374.458,301.189h0a1.439,1.439,0,0,0-1.439,1.439v.121a1.439,1.439,0,1,0,2.878,0v-.121a1.439,1.439,0,0,0-1.439-1.439" transform="translate(-132.707 -107.152)" fill="#fff"/>
            <path id="Trazado_1069019" data-name="Trazado 1069019" d="M326.042,347.175h-74.86a4.8,4.8,0,0,1-4.8-4.8V323.216a4.8,4.8,0,0,1,4.8-4.8h74.86a4.8,4.8,0,0,1,4.8,4.8v19.157a4.8,4.8,0,0,1-4.8,4.8" transform="translate(-87.653 -113.28)" fill="#354adb"/>
            <path id="Trazado_1069020" data-name="Trazado 1069020" d="M263.809,346.93A13.834,13.834,0,1,1,277.642,333.1a13.85,13.85,0,0,1-13.834,13.834m0-22.979a9.145,9.145,0,1,0,9.144,9.145,9.155,9.155,0,0,0-9.144-9.145" transform="translate(-88.932 -113.582)" fill="#5a95ff"/>
            <path id="Trazado_1069021" data-name="Trazado 1069021" d="M270.783,335.152a1.094,1.094,0,0,1-1.094-1.094v-4.845a1.094,1.094,0,1,1,2.188,0v4.845a1.094,1.094,0,0,1-1.094,1.094" transform="translate(-95.946 -116.733)" fill="#5a95ff"/>
            <path id="Trazado_1069022" data-name="Trazado 1069022" d="M270.783,349.385a1.094,1.094,0,0,1-1.094-1.094v-4.845a1.094,1.094,0,1,1,2.188,0v4.845a1.094,1.094,0,0,1-1.094,1.094" transform="translate(-95.946 -121.796)" fill="#5a95ff"/>
            <path id="Trazado_1069023" data-name="Trazado 1069023" d="M264.75,341.183H259.9a1.094,1.094,0,0,1,0-2.188h4.845a1.094,1.094,0,0,1,0,2.188" transform="translate(-92.076 -120.602)" fill="#5a95ff"/>
            <path id="Trazado_1069024" data-name="Trazado 1069024" d="M278.984,341.183h-4.845a1.094,1.094,0,0,1,0-2.188h4.845a1.094,1.094,0,0,1,0,2.188" transform="translate(-97.14 -120.602)" fill="#5a95ff"/>
            <path id="Trazado_1069025" data-name="Trazado 1069025" d="M309.4,346.93A13.834,13.834,0,1,1,323.235,333.1,13.85,13.85,0,0,1,309.4,346.93m0-22.979a9.145,9.145,0,1,0,9.144,9.145,9.155,9.155,0,0,0-9.144-9.145" transform="translate(-105.153 -113.582)" fill="#5a95ff"/>
            <path id="Trazado_1069026" data-name="Trazado 1069026" d="M316.376,335.152a1.094,1.094,0,0,1-1.094-1.094v-4.845a1.094,1.094,0,1,1,2.188,0v4.845a1.094,1.094,0,0,1-1.094,1.094" transform="translate(-112.166 -116.733)" fill="#5a95ff"/>
            <path id="Trazado_1069027" data-name="Trazado 1069027" d="M316.376,349.385a1.094,1.094,0,0,1-1.094-1.094v-4.845a1.094,1.094,0,1,1,2.188,0v4.845a1.094,1.094,0,0,1-1.094,1.094" transform="translate(-112.166 -121.796)" fill="#5a95ff"/>
            <path id="Trazado_1069028" data-name="Trazado 1069028" d="M310.344,341.183H305.5a1.094,1.094,0,1,1,0-2.188h4.845a1.094,1.094,0,0,1,0,2.188" transform="translate(-108.296 -120.602)" fill="#5a95ff"/>
            <path id="Trazado_1069029" data-name="Trazado 1069029" d="M324.577,341.183h-4.845a1.094,1.094,0,0,1,0-2.188h4.845a1.094,1.094,0,0,1,0,2.188" transform="translate(-113.36 -120.602)" fill="#5a95ff"/>
            <path id="Trazado_1069030" data-name="Trazado 1069030" d="M361.8,329.77H344.449a1.173,1.173,0,0,1-1.173-1.173v-2.865a1.172,1.172,0,0,1,1.173-1.173H361.8a1.172,1.172,0,0,1,1.172,1.173V328.6a1.173,1.173,0,0,1-1.172,1.173" transform="translate(-122.125 -115.467)" fill="#5a95ff"/>
            <path id="Trazado_1069031" data-name="Trazado 1069031" d="M348.5,329a2.584,2.584,0,0,1-1.084-.24,4.805,4.805,0,0,0-2.026-.418h-.874a.234.234,0,0,1,0-.469h.874a5.278,5.278,0,0,1,2.223.461,2.1,2.1,0,0,0,2.346-.4,2.572,2.572,0,0,1,3.571-.005l.005.005a2.1,2.1,0,0,0,2.926,0,2.568,2.568,0,0,1,3.034-.4,2.492,2.492,0,0,0,1.209.334h1.552a.234.234,0,1,1,0,.469h-1.552a2.957,2.957,0,0,1-1.436-.393,2.1,2.1,0,0,0-2.482.327,2.572,2.572,0,0,1-3.572.006l-.005-.005a2.105,2.105,0,0,0-2.926,0A2.567,2.567,0,0,1,348.5,329" transform="translate(-122.484 -116.412)" fill="#fff"/>
            <path id="Trazado_1069032" data-name="Trazado 1069032" d="M355.674,357.8h-11.59a.808.808,0,1,1,0-1.615h11.59a.808.808,0,0,1,0,1.615" transform="translate(-122.125 -126.716)" fill="#5a95ff"/>
            <path id="Trazado_1069033" data-name="Trazado 1069033" d="M355.674,351.232h-11.59a.808.808,0,1,1,0-1.615h11.59a.808.808,0,0,1,0,1.615" transform="translate(-122.125 -124.381)" fill="#5a95ff"/>
            <path id="Trazado_1069034" data-name="Trazado 1069034" d="M355.674,344.667h-11.59a.808.808,0,1,1,0-1.615h11.59a.808.808,0,0,1,0,1.615" transform="translate(-122.125 -122.046)" fill="#5a95ff"/>
            <path id="Trazado_1069035" data-name="Trazado 1069035" d="M355.674,338.1h-11.59a.808.808,0,1,1,0-1.615h11.59a.808.808,0,0,1,0,1.615" transform="translate(-122.125 -119.71)" fill="#5a95ff"/>
            <path id="Trazado_1069036" data-name="Trazado 1069036" d="M370.309,356.181h-.027a.808.808,0,0,0,0,1.615h.027a.808.808,0,0,0,0-1.615" transform="translate(-131.446 -126.716)" fill="#5a95ff"/>
            <path id="Trazado_1069037" data-name="Trazado 1069037" d="M370.309,349.617h-.027a.808.808,0,0,0,0,1.615h.027a.808.808,0,0,0,0-1.615" transform="translate(-131.446 -124.381)" fill="#5a95ff"/>
            <path id="Trazado_1069038" data-name="Trazado 1069038" d="M370.309,343.052h-.027a.808.808,0,0,0,0,1.615h.027a.808.808,0,0,0,0-1.615" transform="translate(-131.446 -122.046)" fill="#5a95ff"/>
            <path id="Trazado_1069039" data-name="Trazado 1069039" d="M370.309,336.488h-.027a.808.808,0,0,0,0,1.615h.027a.808.808,0,0,0,0-1.615" transform="translate(-131.446 -119.71)" fill="#5a95ff"/>
            <path id="Trazado_1069040" data-name="Trazado 1069040" d="M193.048,291.833v48.876a1.945,1.945,0,0,1-1.945,1.945H162.776a1.947,1.947,0,0,1-1.945-1.945V291.833a1.945,1.945,0,0,1,1.945-1.946H191.1a1.945,1.945,0,0,1,1.945,1.946" transform="translate(-57.218 -103.131)" fill="#3263ff"/>
            <path id="Trazado_1069041" data-name="Trazado 1069041" d="M185.952,303.039H167.036a1.339,1.339,0,0,1,0-2.677h18.917a1.339,1.339,0,0,1,0,2.677" transform="translate(-58.949 -106.858)" fill="#5a95ff"/>
            <path id="Trazado_1069042" data-name="Trazado 1069042" d="M185.952,312.506H167.036a1.339,1.339,0,0,1,0-2.677h18.917a1.339,1.339,0,1,1,0,2.677" transform="translate(-58.949 -110.226)" fill="#5a95ff"/>
            <path id="Trazado_1069043" data-name="Trazado 1069043" d="M185.952,321.973H167.036a1.338,1.338,0,1,1,0-2.677h18.917a1.338,1.338,0,1,1,0,2.677" transform="translate(-58.949 -113.594)" fill="#5a95ff"/>
            <path id="Trazado_1069044" data-name="Trazado 1069044" d="M185.952,331.439H167.036a1.339,1.339,0,0,1,0-2.677h18.917a1.339,1.339,0,0,1,0,2.677" transform="translate(-58.949 -116.962)" fill="#5a95ff"/>
            <path id="Trazado_1069045" data-name="Trazado 1069045" d="M185.952,340.906H167.036a1.339,1.339,0,0,1,0-2.677h18.917a1.339,1.339,0,0,1,0,2.677" transform="translate(-58.949 -120.33)" fill="#5a95ff"/>
            <path id="Trazado_1069046" data-name="Trazado 1069046" d="M185.952,350.373H167.036a1.339,1.339,0,1,1,0-2.677h18.917a1.339,1.339,0,0,1,0,2.677" transform="translate(-58.949 -123.698)" fill="#5a95ff"/>
            <path id="Trazado_1069047" data-name="Trazado 1069047" d="M185.952,359.839H167.036a1.339,1.339,0,1,1,0-2.677h18.917a1.339,1.339,0,1,1,0,2.677" transform="translate(-58.949 -127.065)" fill="#5a95ff"/>
            <path id="Trazado_1069048" data-name="Trazado 1069048" d="M204.518,300.935a.574.574,0,1,1-.574-.573.574.574,0,0,1,.574.573" transform="translate(-72.352 -106.858)" fill="#173953"/>
            <path id="Trazado_1069049" data-name="Trazado 1069049" d="M204.518,303.311a.574.574,0,1,1-.574-.573.574.574,0,0,1,.574.573" transform="translate(-72.352 -107.703)" fill="#5a95ff"/>
            <path id="Trazado_1069050" data-name="Trazado 1069050" d="M204.518,310.4a.574.574,0,1,1-.574-.573.574.574,0,0,1,.574.573" transform="translate(-72.352 -110.226)" fill="#fff"/>
            <path id="Trazado_1069051" data-name="Trazado 1069051" d="M204.518,312.778a.574.574,0,1,1-.574-.573.574.574,0,0,1,.574.573" transform="translate(-72.352 -111.071)" fill="#5a95ff"/>
            <path id="Trazado_1069052" data-name="Trazado 1069052" d="M204.518,329.335a.574.574,0,1,1-.574-.573.574.574,0,0,1,.574.573" transform="translate(-72.352 -116.962)" fill="#fff"/>
            <path id="Trazado_1069053" data-name="Trazado 1069053" d="M204.518,331.711a.574.574,0,1,1-.574-.573.574.574,0,0,1,.574.573" transform="translate(-72.352 -117.807)" fill="#5a95ff"/>
            <path id="Trazado_1069054" data-name="Trazado 1069054" d="M204.518,319.868a.574.574,0,1,1-.574-.573.574.574,0,0,1,.574.573" transform="translate(-72.352 -113.594)" fill="#173953"/>
            <path id="Trazado_1069055" data-name="Trazado 1069055" d="M204.518,322.245a.574.574,0,1,1-.574-.573.574.574,0,0,1,.574.573" transform="translate(-72.352 -114.439)" fill="#5a95ff"/>
            <path id="Trazado_1069056" data-name="Trazado 1069056" d="M204.518,338.8a.574.574,0,1,1-.574-.573.574.574,0,0,1,.574.573" transform="translate(-72.352 -120.33)" fill="#173953"/>
            <path id="Trazado_1069057" data-name="Trazado 1069057" d="M204.518,341.178a.574.574,0,1,1-.574-.573.574.574,0,0,1,.574.573" transform="translate(-72.352 -121.175)" fill="#5a95ff"/>
            <path id="Trazado_1069058" data-name="Trazado 1069058" d="M204.518,348.268a.574.574,0,1,1-.574-.573.574.574,0,0,1,.574.573" transform="translate(-72.352 -123.697)" fill="#fff"/>
            <path id="Trazado_1069059" data-name="Trazado 1069059" d="M204.518,350.645a.574.574,0,1,1-.574-.573.574.574,0,0,1,.574.573" transform="translate(-72.352 -124.543)" fill="#5a95ff"/>
            <path id="Trazado_1069060" data-name="Trazado 1069060" d="M204.518,357.735a.574.574,0,1,1-.574-.573.574.574,0,0,1,.574.573" transform="translate(-72.352 -127.065)" fill="#173953"/>
            <path id="Trazado_1069061" data-name="Trazado 1069061" d="M204.518,360.111a.574.574,0,1,1-.574-.573.574.574,0,0,1,.574.573" transform="translate(-72.352 -127.911)" fill="#5a95ff"/>
            <path id="Trazado_1069062" data-name="Trazado 1069062" d="M185.257,257.822a1.048,1.048,0,0,1-1.048-1.048V204.059a1.047,1.047,0,0,1,1.048-1.048h18.813a1.047,1.047,0,1,1,0,2.094H186.3v51.669a1.048,1.048,0,0,1-1.048,1.048" transform="translate(-65.535 -72.224)" fill="#354adb"/>
            <path id="Trazado_1069063" data-name="Trazado 1069063" d="M190.3,288.669H170.369a2.2,2.2,0,0,1,2.205-2.205h15.517a2.205,2.205,0,0,1,2.205,2.205" transform="translate(-60.611 -101.914)" fill="#173953"/>
            <path id="Trazado_1069064" data-name="Trazado 1069064" d="M210.532,205.841h-3.209a2.171,2.171,0,0,1-2.171-2.171v-1.038a2.171,2.171,0,0,1,2.171-2.171h3.209Z" transform="translate(-72.986 -71.317)" fill="#5a95ff"/>
            <path id="Trazado_1069065" data-name="Trazado 1069065" d="M432.96,280.306a1.048,1.048,0,0,1-1.048-1.048V268.305h-26.4a1.048,1.048,0,1,1,0-2.1h27.45a1.047,1.047,0,0,1,1.047,1.048v12a1.047,1.047,0,0,1-1.047,1.048" transform="translate(-143.893 -94.708)" fill="#354adb"/>
            <path id="Trazado_1069066" data-name="Trazado 1069066" d="M407.65,268.828h3.209a2.171,2.171,0,0,0,2.171-2.171v-1.038a2.171,2.171,0,0,0-2.171-2.171H407.65Z" transform="translate(-145.027 -93.725)" fill="#5a95ff"/>
            <path id="Trazado_1069067" data-name="Trazado 1069067" d="M444.521,283.493v-3.209a2.171,2.171,0,0,1,2.171-2.171h1.038a2.171,2.171,0,0,1,2.171,2.171v3.209Z" transform="translate(-158.145 -98.943)" fill="#5a95ff"/>
            <path id="Trazado_1069068" data-name="Trazado 1069068" d="M427.518,286.464a2.871,2.871,0,0,0-2.871,2.875l.069,49.116a2.839,2.839,0,0,0,2.843,2.835l24.91-.037a2.839,2.839,0,0,0,2.835-2.843l-.068-49.079a2.872,2.872,0,0,0-2.871-2.867Z" transform="translate(-151.074 -101.914)" fill="#173953"/>
            <path id="Trazado_1069069" data-name="Trazado 1069069" d="M424.087,303.384h0a1.038,1.038,0,0,1-1.04-1.037l-.007-4.532a1.039,1.039,0,0,1,1.037-1.04Z" transform="translate(-150.502 -105.582)" fill="#002029"/>
            <path id="Trazado_1069070" data-name="Trazado 1069070" d="M472.14,303.613h0a.85.85,0,0,0,.848-.851l-.005-3.682a.851.851,0,0,0-.851-.848Z" transform="translate(-167.968 -106.1)" fill="#002029"/>
            <path id="Trazado_1069071" data-name="Trazado 1069071" d="M424.1,315.034h0a1.038,1.038,0,0,1-1.04-1.037l-.007-4.531a1.039,1.039,0,0,1,1.037-1.04Z" transform="translate(-150.509 -109.727)" fill="#002029"/>
            <path id="Trazado_1069072" data-name="Trazado 1069072" d="M453.078,339.3l-18.43.028h0l-3.911.005a1.148,1.148,0,0,1-.953-.5,1.018,1.018,0,0,1-.108-.194,1.112,1.112,0,0,1-.1-.456l-.014-9.213-.013-8.989-.017-10.889-.008-5.775-.015-9.781a1.154,1.154,0,0,1,1.151-1.156l8.986-.012,5.466-.008,7.892-.011a1.132,1.132,0,0,1,.472.1,1.148,1.148,0,0,1,.674.921,1.226,1.226,0,0,1,.008.131l.013,9.037.014,9.894.009,5.9.028,19.817a1.153,1.153,0,0,1-1.151,1.156" transform="translate(-152.806 -104.006)" fill="#fff"/>
            <path id="Trazado_1069073" data-name="Trazado 1069073" d="M443.8,314.319a10.095,10.095,0,1,0,10.095,10.1,10.106,10.106,0,0,0-10.095-10.1m.406,13.823V324.6h4.564a13.348,13.348,0,0,1-.539,3.537Zm2.86,4.029a11.262,11.262,0,0,0,1.755-3.217H451.9a9.245,9.245,0,0,1-6.044,4.515,10.278,10.278,0,0,0,1.215-1.3m.889-3.217a10.358,10.358,0,0,1-1.508,2.69,8.446,8.446,0,0,1-2.241,2.044v-4.734Zm-3.749-9.51v-4.3c.12.005.241.013.361.023a12.6,12.6,0,0,1,3.165,4.281Zm4.414,0a13.319,13.319,0,0,0-1.359-2.48,13.863,13.863,0,0,0-1.278-1.573,9.335,9.335,0,0,1,5.654,4.054Zm-4.414,4.349v-3.537h3.858a11.6,11.6,0,0,1,.7,3.537Zm5.371,0a12.489,12.489,0,0,0-.651-3.537H452.1a9.167,9.167,0,0,1,.964,3.537Zm3.5.812a9.166,9.166,0,0,1-.78,3.537H449.08a14.3,14.3,0,0,0,.505-3.537Zm-14.462,3.537H435.3a9.18,9.18,0,0,1-.78-3.537h3.594a14.3,14.3,0,0,0,.505,3.537m1.341-8.7a12.367,12.367,0,0,1,1.13-2,11.971,11.971,0,0,1,2.047-2.292c.085-.006.171-.011.258-.014v4.3Zm3.435.812v3.537h-4.465a11.659,11.659,0,0,1,.7-3.537Zm-7.429-.812a9.314,9.314,0,0,1,5.774-4.081,13.563,13.563,0,0,0-1.3,1.6,13.248,13.248,0,0,0-1.36,2.48ZM443.4,324.6v3.537h-3.932a13.3,13.3,0,0,1-.538-3.537Zm-8.856-.812a9.155,9.155,0,0,1,.964-3.537h3.266a12.444,12.444,0,0,0-.651,3.537Zm4.336,5.161a11.262,11.262,0,0,0,1.754,3.217,10.242,10.242,0,0,0,1.245,1.324,9.37,9.37,0,0,1-6.169-4.541Zm4.52,0v4.677a9.558,9.558,0,0,1-3.653-4.677Z" transform="translate(-154.299 -111.823)" fill="#3263ff"/>
            <path id="Trazado_1069074" data-name="Trazado 1069074" d="M452.372,292l-1.154,1.763a1.746,1.746,0,0,1-1.458.789l-11.183.017a1.747,1.747,0,0,1-1.46-.785l-1.16-1.759a.333.333,0,0,1,.331-.333l15.752-.023a.334.334,0,0,1,.332.332" transform="translate(-155.098 -103.765)" fill="#173953"/>
            <path id="Trazado_1069075" data-name="Trazado 1069075" d="M449.273,293.457l-9.582.014a.354.354,0,0,1,0-.708l9.582-.014a.354.354,0,1,1,0,.708" transform="translate(-156.3 -104.15)" fill="#2a5b74"/>
            <path id="Trazado_1069076" data-name="Trazado 1069076" d="M457.747,292.94a.425.425,0,1,1-.334-.334.425.425,0,0,1,.334.334" transform="translate(-162.551 -104.096)" fill="#2a5b74"/>
          </g>
        </g>
      </g>
    </g>
  </g>
</svg>
